<svg width="35" height="72" viewBox="0 0 35 72" fill="none" xmlns="http://www.w3.org/2000/svg">
<path d="M33.6066 62.032C33.5426 62.48 33.5746 62.928 33.7026 63.376C33.8306 63.824 33.9586 64.272 34.0866 64.72C34.0226 65.232 33.9586 65.776 33.8946 66.352C33.8306 66.928 33.6386 67.472 33.3186 67.984C33.4466 68.688 33.2546 69.168 32.7426 69.424C32.2946 69.616 31.8146 69.776 31.3026 69.904C31.0466 70.032 30.7906 70.032 30.5346 69.904C30.3426 69.776 30.1506 69.744 29.9586 69.808C29.3826 70 28.8066 70.032 28.2306 69.904C27.6546 69.712 27.0786 69.712 26.5026 69.904C25.9906 69.84 25.4466 69.776 24.8706 69.712C24.2946 69.648 23.7506 69.776 23.2386 70.096C22.2786 70.224 21.3186 70.256 20.3586 70.192C19.3986 70.128 18.4706 70.256 17.5746 70.576C15.5906 70.32 13.5426 70.384 11.4306 70.768C11.2386 70.896 11.1106 70.832 11.0466 70.576C11.0466 70.384 10.9826 70.384 10.8546 70.576C10.1506 70.96 9.41463 71.088 8.64663 70.96C7.94263 70.896 7.27063 71.056 6.63063 71.44C5.92663 71.568 5.19063 71.632 4.42263 71.632C3.65463 71.632 2.98263 71.376 2.40663 70.864C2.08663 70.288 1.73463 69.776 1.35063 69.328C1.03063 68.816 0.902634 68.208 0.966634 67.504L0.294634 67.408C0.358634 66.384 0.358634 65.36 0.294634 64.336C0.230634 63.312 0.454634 62.352 0.966634 61.456C1.09463 61.072 1.28663 60.72 1.54263 60.4C1.79863 60.08 1.95863 59.728 2.02263 59.344C2.08663 58.896 2.31063 58.544 2.69463 58.288C4.35863 58.224 5.99063 58.16 7.59063 58.096C9.19063 57.968 10.8226 57.84 12.4866 57.712C12.7426 55.536 12.8706 53.36 12.8706 51.184C12.9346 49.008 13.1266 46.832 13.4466 44.656C13.7666 41.328 14.0866 38.032 14.4066 34.768C14.7906 31.44 15.3986 28.144 16.2306 24.88C15.9746 24.88 15.8146 24.912 15.7506 24.976C14.9186 25.68 14.1186 26.416 13.3506 27.184C12.5826 27.952 11.6866 28.56 10.6626 29.008C10.2786 29.2 9.83063 29.328 9.31863 29.392C8.80663 29.392 8.39063 29.232 8.07063 28.912C6.98263 28.912 6.02263 28.56 5.19063 27.856C4.42263 27.088 3.75063 26.288 3.17463 25.456C2.53463 24.624 2.15063 23.728 2.02263 22.768C1.95863 21.744 1.79863 20.752 1.54263 19.792C2.24663 19.472 2.88663 19.088 3.46263 18.64C4.03863 18.192 4.58263 17.712 5.09463 17.2C5.28663 17.008 5.47863 16.848 5.67063 16.72C5.92663 16.592 6.08663 16.368 6.15063 16.048C6.98263 15.408 7.68663 14.704 8.26263 13.936C8.83863 13.104 9.57463 12.368 10.4706 11.728C11.7506 10.064 12.9346 8.336 14.0226 6.544C15.1106 4.688 16.1986 2.832 17.2866 0.975996C17.4786 0.591997 17.7026 0.367998 17.9586 0.303999C18.2786 0.239996 18.5986 0.239996 18.9186 0.303999C19.3026 0.303999 19.6546 0.335999 19.9746 0.399998C20.3586 0.463997 20.7106 0.495996 21.0306 0.495996C21.2226 0.559996 21.3186 0.559996 21.3186 0.495996C21.3826 0.367998 21.4466 0.239998 21.5106 0.111996C23.5586 -0.0160027 25.5426 -0.0160027 27.4626 0.111996C28.1026 0.239998 28.5186 0.399998 28.7106 0.591995C29.0306 0.847996 29.3186 1.072 29.5746 1.264C29.8946 1.456 30.2146 1.67999 30.5346 1.936C30.7266 2.448 31.0146 2.928 31.3986 3.376C31.7826 3.76 32.1346 4.208 32.4546 4.72C32.5826 5.36 32.6786 6.032 32.7426 6.736C32.8706 7.376 32.6786 7.952 32.1666 8.464C32.0386 9.104 31.9746 9.776 31.9746 10.48C31.9746 11.12 31.8146 11.728 31.4946 12.304C31.4946 13.648 31.2386 14.928 30.7266 16.144C30.2146 17.36 30.0226 18.64 30.1506 19.984C29.7026 20.304 29.4466 20.72 29.3826 21.232C29.3186 21.744 29.3506 22.256 29.4786 22.768C29.4146 23.088 29.1906 23.376 28.8066 23.632C28.4866 23.824 28.4866 24.176 28.8066 24.688C28.6786 25.328 28.4866 25.968 28.2306 26.608C28.0386 27.248 27.8786 27.888 27.7506 28.528C27.6866 29.872 27.4946 31.184 27.1746 32.464C26.8546 33.744 26.6306 35.056 26.5026 36.4C26.1826 37.808 25.9586 39.216 25.8306 40.624C25.7026 42.032 25.4786 43.472 25.1586 44.944C25.1586 45.392 25.1906 45.84 25.2546 46.288C25.3826 46.672 25.3186 47.088 25.0626 47.536C25.0626 49.136 24.9346 50.736 24.6786 52.336C24.4866 53.872 24.4226 55.44 24.4866 57.04C25.3186 57.104 26.1506 57.136 26.9826 57.136C27.8146 57.072 28.6466 57.072 29.4786 57.136C30.1826 57.392 30.7586 57.84 31.2066 58.48C31.6546 59.12 32.0706 59.76 32.4546 60.4C32.1986 60.912 32.2306 61.264 32.5506 61.456C32.9346 61.648 33.2866 61.84 33.6066 62.032Z" fill="#EA5A63"/>
</svg>
