<svg width="45" height="73" viewBox="0 0 45 73" fill="none" xmlns="http://www.w3.org/2000/svg">
<path d="M44.6309 23.576C44.0549 24.024 43.8629 24.568 44.0549 25.208C44.1829 25.528 44.1509 25.88 43.9589 26.264C43.7669 26.648 43.7349 27.032 43.8629 27.416C43.9909 27.736 43.9589 28.056 43.7669 28.376C43.6389 28.632 43.5109 28.92 43.3829 29.24C43.1269 29.624 43.0309 30.072 43.0949 30.584C43.2229 31.032 43.0309 31.32 42.5189 31.448C42.3269 31.832 42.2309 32.28 42.2309 32.792C42.2309 33.304 41.9749 33.656 41.4629 33.848C41.2069 34.232 40.9829 34.648 40.7909 35.096C40.6629 35.544 40.4389 35.928 40.1189 36.248C39.9909 36.824 39.7029 37.304 39.2549 37.688C38.8709 38.072 38.5509 38.52 38.2949 39.032C37.9749 39.672 37.5909 40.28 37.1429 40.856C36.6949 41.368 36.2469 41.88 35.7989 42.392C35.7989 42.712 35.6709 42.968 35.4149 43.16C35.2229 43.288 34.9989 43.416 34.7429 43.544C34.4869 43.672 34.2629 43.832 34.0709 44.024C33.8789 44.216 33.8149 44.472 33.8789 44.792C33.4309 44.92 33.0789 45.176 32.8229 45.56C32.6309 45.944 32.3749 46.232 32.0549 46.424C31.4149 46.744 30.8709 47.128 30.4229 47.576C29.9749 48.024 29.4309 48.408 28.7909 48.728C28.2789 49.112 27.8309 49.528 27.4469 49.976C27.0629 50.36 26.6149 50.712 26.1029 51.032C25.7829 51.224 25.4309 51.416 25.0469 51.608C24.7269 51.8 24.4709 52.088 24.2789 52.472C23.1269 52.984 22.1029 53.72 21.2069 54.68C20.3749 55.576 19.4149 56.28 18.3269 56.792C18.0709 56.92 17.8149 57.24 17.5589 57.752C17.8149 58.072 18.1349 58.136 18.5189 57.944C18.9029 57.688 19.2549 57.624 19.5749 57.752C20.2789 57.88 20.9829 57.88 21.6869 57.752C22.3909 57.624 23.0629 57.752 23.7029 58.136C24.0229 58.072 24.3429 58.04 24.6629 58.04C24.9829 57.976 25.3029 57.976 25.6229 58.04C25.9429 58.168 26.2949 58.168 26.6789 58.04C27.1269 57.848 27.5109 57.912 27.8309 58.232C28.4709 58.552 29.1109 58.648 29.7509 58.52C30.4549 58.392 31.1589 58.488 31.8629 58.808C32.8869 59.512 33.7829 60.344 34.5509 61.304C34.9349 61.816 35.1909 62.456 35.3189 63.224C35.5109 63.928 35.9269 64.472 36.5669 64.856C36.5669 65.368 36.5349 65.912 36.4709 66.488C36.4709 67.064 36.4389 67.64 36.3749 68.216H36.4709C36.4709 68.344 36.4389 68.44 36.3749 68.504L36.2789 68.6C36.0229 68.856 35.8949 69.176 35.8949 69.56C35.9589 69.88 35.8309 70.104 35.5109 70.232C35.1269 70.552 34.7109 70.744 34.2629 70.808C33.8149 70.808 33.3349 70.808 32.8229 70.808C32.3749 70.744 31.8949 70.68 31.3829 70.616C30.9349 70.488 30.4869 70.456 30.0389 70.52C29.4629 70.328 28.8869 70.232 28.3109 70.232C27.7349 70.168 27.1269 70.168 26.4869 70.232C25.9109 70.232 25.3349 70.2 24.7589 70.136C24.1829 70.072 23.6069 69.88 23.0309 69.56C22.1349 69.752 21.2709 69.912 20.4389 70.04C19.6069 70.168 18.7429 70.168 17.8469 70.04C17.2709 70.232 16.6629 70.328 16.0229 70.328C15.3829 70.264 14.8709 70.488 14.4869 71C14.0389 70.872 13.6229 70.872 13.2389 71C12.8549 71.192 12.4709 71.32 12.0869 71.384C11.5109 71.512 10.9669 71.704 10.4549 71.96C10.0069 72.216 9.52692 72.472 9.01492 72.728C8.56692 72.92 8.21492 72.888 7.95892 72.632C7.70292 72.44 7.44692 72.28 7.19092 72.152C6.93492 71.896 6.64692 71.736 6.32692 71.672C6.00692 71.608 5.75092 71.448 5.55892 71.192C5.23892 70.872 4.98292 70.52 4.79092 70.136C4.59892 69.752 4.31092 69.464 3.92692 69.272C3.79892 68.696 3.47892 68.28 2.96692 68.024C2.45492 67.704 2.13492 67.288 2.00692 66.776C1.87892 66.328 1.59092 66.008 1.14292 65.816C0.75892 65.56 0.69492 65.144 0.95092 64.568C0.95092 63.928 0.88692 63.32 0.75892 62.744C0.69492 62.168 0.72692 61.592 0.85492 61.016C0.72692 60.44 0.79092 59.96 1.04692 59.576C1.36692 59.128 1.62292 58.648 1.81492 58.136C2.07092 57.688 2.26292 57.24 2.39092 56.792C2.58292 56.28 2.83892 55.8 3.15892 55.352C3.47892 54.904 3.83092 54.488 4.21492 54.104C4.66292 53.72 4.98292 53.272 5.17492 52.76C5.36692 52.44 5.55892 52.152 5.75092 51.896C6.00692 51.576 6.29492 51.352 6.61492 51.224C7.70292 50.392 8.66292 49.496 9.49492 48.536C10.3269 47.512 11.2869 46.648 12.3749 45.944C12.6949 45.624 13.0469 45.336 13.4309 45.08C13.8789 44.824 14.2629 44.504 14.5829 44.12C15.5429 43.352 16.5029 42.616 17.4629 41.912C18.4869 41.208 19.4469 40.44 20.3429 39.608C21.6229 38.776 22.8069 37.816 23.8949 36.728C24.9829 35.64 26.0069 34.488 26.9669 33.272C28.0549 32.312 28.9509 31.224 29.6549 30.008C30.3589 28.728 31.1269 27.512 31.9589 26.36C32.2789 25.848 32.5669 25.368 32.8229 24.92C33.0789 24.408 33.2709 23.896 33.3989 23.384C33.8469 23 34.1029 22.52 34.1669 21.944C34.2309 21.304 34.4229 20.728 34.7429 20.216C34.7429 19 34.7109 17.784 34.6469 16.568C34.6469 15.288 34.3589 14.104 33.7829 13.016C33.6549 12.504 33.3349 12.184 32.8229 12.056C32.3749 11.864 31.9589 11.672 31.5749 11.48C30.2949 11.224 29.0149 11.032 27.7349 10.904C26.5189 10.776 25.3029 10.968 24.0869 11.48C23.7669 11.48 23.5109 11.608 23.3189 11.864C23.1269 12.056 22.8709 12.216 22.5509 12.344C22.0389 12.216 21.6229 12.248 21.3029 12.44C20.9829 12.632 20.6629 12.856 20.3429 13.112C19.7669 13.24 19.2869 13.528 18.9029 13.976C18.5189 14.36 18.1029 14.744 17.6549 15.128C17.4629 15.448 17.1749 15.704 16.7909 15.896C16.4069 16.024 16.1189 16.28 15.9269 16.664C15.4149 17.112 14.9349 17.592 14.4869 18.104C14.0389 18.552 13.6869 19.128 13.4309 19.832C13.1749 20.344 12.8869 20.856 12.5669 21.368C12.3109 21.88 12.2469 22.456 12.3749 23.096C12.5029 23.16 12.6629 23.16 12.8549 23.096C13.1109 23.032 13.2389 23.096 13.2389 23.288C12.8549 22.968 12.5349 22.936 12.2789 23.192C12.0869 23.384 11.9589 23.64 11.8949 23.96C11.8949 24.28 11.7669 24.536 11.5109 24.728C11.2549 24.92 11.2549 25.24 11.5109 25.688C11.9589 26.008 12.4389 26.264 12.9509 26.456C13.4629 26.584 13.9749 26.712 14.4869 26.84C14.6789 27.096 14.9349 27.288 15.2549 27.416C15.5749 27.544 15.8949 27.672 16.2149 27.8C16.5349 27.928 16.8229 28.088 17.0789 28.28C17.3349 28.472 17.5269 28.76 17.6549 29.144C17.7189 29.464 17.9429 29.656 18.3269 29.72C18.7749 29.784 18.9669 30.04 18.9029 30.488C19.3509 31.384 19.4469 32.376 19.1909 33.464C18.9989 34.552 18.3589 35.288 17.2709 35.672C16.7589 35.544 16.2469 35.544 15.7349 35.672C15.2869 35.736 14.8069 35.608 14.2949 35.288C13.7829 35.096 13.2389 34.968 12.6629 34.904C12.0869 34.84 11.5749 34.648 11.1269 34.328C10.8709 34.008 10.5509 33.752 10.1669 33.56C9.84692 33.304 9.49492 33.112 9.11092 32.984C8.02292 32.472 7.06292 31.768 6.23092 30.872C5.46292 29.976 4.72692 29.048 4.02292 28.088C3.83092 27.704 3.70292 27.32 3.63892 26.936C3.57492 26.552 3.38292 26.2 3.06292 25.88C2.93492 25.56 2.80692 25.24 2.67892 24.92C2.61492 24.536 2.51892 24.184 2.39092 23.864C2.32692 22.712 2.19892 21.592 2.00692 20.504C1.81492 19.352 1.87892 18.2 2.19892 17.048C2.51892 16.6 2.64692 16.12 2.58292 15.608C2.58292 15.032 2.80692 14.584 3.25492 14.264C3.38292 13.816 3.57492 13.464 3.83092 13.208C4.08692 12.952 4.37492 12.664 4.69492 12.344C4.50292 11.896 4.53492 11.512 4.79092 11.192C5.04692 10.872 5.30292 10.552 5.55892 10.232C6.13492 9.72 6.64692 9.208 7.09492 8.696C7.54292 8.12 8.05492 7.608 8.63092 7.16C9.14292 6.712 9.62292 6.264 10.0709 5.816C10.5829 5.304 11.1589 4.92 11.7989 4.664C12.0549 4.472 12.3109 4.216 12.5669 3.89599C12.8229 3.57599 12.4709 3.57599 11.5109 3.89599L11.4149 3.704C11.7349 3.64 12.1189 3.608 12.5669 3.608C13.0789 3.608 13.4949 3.608 13.8149 3.608C14.1349 3.224 14.5509 3 15.0629 2.936C15.5749 2.808 16.0549 2.616 16.5029 2.36C16.8869 2.104 17.2709 1.976 17.6549 1.976C18.1029 1.912 18.4869 1.72 18.8069 1.4C19.1269 1.08 19.6069 0.919998 20.2469 0.919998C22.1669 0.791996 24.0869 0.855995 26.0069 1.112C27.9269 1.368 29.7829 1.848 31.5749 2.55199C32.0869 2.744 32.5989 3 33.1109 3.32C33.6229 3.64 34.1669 3.768 34.7429 3.704C34.8709 3.704 34.9349 3.768 34.9349 3.89599C34.9989 4.024 35.0629 4.12 35.1269 4.184C35.3829 4.376 35.6069 4.536 35.7989 4.664C36.0549 4.792 36.3429 4.856 36.6629 4.856C37.3669 5.752 38.1029 6.584 38.8709 7.352C39.7029 8.12 40.3749 9.016 40.8869 10.04C41.1429 10.296 41.3349 10.584 41.4629 10.904C41.5909 11.16 41.7509 11.448 41.9429 11.768C42.0069 11.96 42.0389 12.152 42.0389 12.344C42.1029 12.536 42.2629 12.696 42.5189 12.824C42.8389 13.336 43.0309 13.944 43.0949 14.648C43.1589 15.352 43.3509 15.992 43.6709 16.568C43.7989 16.824 43.7989 17.08 43.6709 17.336C43.5429 17.528 43.5429 17.752 43.6709 18.008C43.7989 18.52 43.9269 19.032 44.0549 19.544C44.1829 20.056 44.1829 20.568 44.0549 21.08C44.1829 21.464 44.1829 21.912 44.0549 22.424C43.9269 22.936 44.1189 23.256 44.6309 23.384V23.576Z" fill="#EA5A63"/>
</svg>
