<svg width="42" height="72" viewBox="0 0 42 72" fill="none" xmlns="http://www.w3.org/2000/svg">
<path d="M40.9829 52.376C41.2389 53.208 41.2069 54.04 40.8869 54.872C40.5669 55.64 40.4709 56.44 40.5989 57.272C40.2789 58.104 39.9589 58.936 39.6389 59.768C39.3829 60.536 39.0629 61.304 38.6789 62.072C38.5509 62.584 38.3269 63.064 38.0069 63.512C37.6869 63.896 37.4949 64.376 37.4309 64.952C36.7909 65.144 36.2789 65.496 35.8949 66.008C35.5749 66.52 35.1589 67 34.6469 67.448C34.3269 67.512 34.0709 67.672 33.8789 67.928C33.6869 68.12 33.5269 68.344 33.3989 68.6C32.6949 68.856 31.9589 69.112 31.1909 69.368C30.4869 69.624 29.7829 69.912 29.0789 70.232C27.9909 70.36 26.9029 70.552 25.8149 70.808C24.7909 71.064 23.7349 71.128 22.6469 71C22.2629 71.384 21.8149 71.512 21.3029 71.384C20.7909 71.256 20.3109 71.192 19.8629 71.192C19.1589 71.064 18.4869 71.064 17.8469 71.192C17.2069 71.384 16.5669 71.352 15.9269 71.096C15.0309 71.032 14.1989 70.872 13.4309 70.616C12.6629 70.36 11.8309 70.168 10.9349 70.04C10.0389 69.528 9.14292 69.016 8.24692 68.504C7.35092 67.928 6.45492 67.384 5.55892 66.872C5.30292 66.168 4.88692 65.592 4.31092 65.144C3.79892 64.696 3.44692 64.12 3.25492 63.416C2.61492 62.776 2.16692 62.072 1.91092 61.304C1.71892 60.472 1.46292 59.672 1.14292 58.904C0.69492 57.816 0.56692 56.696 0.75892 55.544C1.01492 54.328 1.11092 53.144 1.04692 51.992C1.17492 51.672 1.36692 51.384 1.62292 51.128C1.94292 50.872 1.97492 50.52 1.71892 50.072C2.10292 49.688 2.42292 49.272 2.67892 48.824C2.93492 48.312 3.19092 47.8 3.44692 47.288C3.95892 46.52 4.53492 45.72 5.17492 44.888C5.87892 43.992 6.77492 43.576 7.86292 43.64C8.43892 43.96 8.88692 44.376 9.20692 44.888C9.59092 45.336 10.0389 45.72 10.5509 46.04C10.6149 46.232 10.6469 46.424 10.6469 46.616C10.6469 46.744 10.7429 46.872 10.9349 47C11.3189 47.192 11.4789 47.512 11.4149 47.96C11.3509 48.408 11.5109 48.728 11.8949 48.92C12.3429 49.624 12.4709 50.424 12.2789 51.32C12.1509 52.216 11.7669 52.952 11.1269 53.528C10.9989 53.848 10.8389 54.168 10.6469 54.488C10.5189 54.808 10.1989 54.872 9.68692 54.68C9.36692 54.872 9.01492 55.096 8.63092 55.352C8.24692 55.608 8.21492 55.96 8.53492 56.408C9.11092 56.728 9.68692 57.016 10.2629 57.272C10.8389 57.528 11.4149 57.816 11.9909 58.136C12.6949 58.264 13.3989 58.424 14.1029 58.616C14.8069 58.744 15.5109 58.808 16.2149 58.808C16.7269 58.616 17.2709 58.616 17.8469 58.808C18.4229 58.936 18.9989 58.936 19.5749 58.808C21.0469 58.616 22.4869 58.456 23.8949 58.328C25.3669 58.2 26.7749 57.848 28.1189 57.272C28.8229 57.208 29.4629 56.984 30.0389 56.6C30.6149 56.216 31.1589 55.8 31.6709 55.352C32.3749 54.648 32.8229 53.816 33.0149 52.856C33.2069 51.896 33.3669 50.968 33.4949 50.072C33.3669 49.752 33.1749 49.496 32.9189 49.304C32.7269 49.112 32.6309 48.856 32.6309 48.536C32.5029 48.216 32.3749 47.928 32.2469 47.672C32.1829 47.352 32.0869 47.032 31.9589 46.712C31.5109 46.136 31.0629 45.592 30.6149 45.08C30.1669 44.504 29.6229 44.024 28.9829 43.64C28.7269 43.384 28.4709 43.256 28.2149 43.256H28.1189C28.1829 43 28.1189 42.712 27.9269 42.392C27.2229 41.816 26.4549 41.464 25.6229 41.336C24.7909 41.208 23.9589 41.144 23.1269 41.144H22.7429H22.6469C22.3269 40.952 21.9429 40.856 21.4949 40.856C21.0469 40.792 20.6309 40.76 20.2469 40.76C19.5429 40.76 18.8709 40.76 18.2309 40.76C17.6549 40.76 17.0149 40.792 16.3109 40.856C15.9909 40.92 15.6389 40.952 15.2549 40.952C14.9349 40.952 14.6149 41.016 14.2949 41.144H13.9109H13.8149C13.4949 40.312 13.2069 39.512 12.9509 38.744C12.6949 37.912 12.4389 37.048 12.1829 36.152C12.1829 35.192 12.4069 34.392 12.8549 33.752C13.0469 32.792 13.3989 31.928 13.9109 31.16C14.2949 31.288 14.5829 31.32 14.7749 31.256C14.9669 31.128 15.0949 30.968 15.1589 30.776C15.2869 30.584 15.3829 30.36 15.4469 30.104C15.5109 29.848 15.6389 29.624 15.8309 29.432C15.8949 29.176 16.0229 29.016 16.2149 28.952C16.4709 28.824 16.6949 28.76 16.8869 28.76C17.1429 28.696 17.3989 28.664 17.6549 28.664C17.9109 28.6 18.1349 28.504 18.3269 28.376C18.9669 27.992 19.6389 27.704 20.3429 27.512C21.0469 27.256 21.6549 26.872 22.1669 26.36C22.8709 26.104 23.4789 25.72 23.9909 25.208C24.5669 24.696 25.1109 24.12 25.6229 23.48C26.1349 23.224 26.5829 22.872 26.9669 22.424C27.4149 21.976 27.6389 21.464 27.6389 20.888C28.2149 20.568 28.5349 20.088 28.5989 19.448C28.7269 18.744 28.8549 18.072 28.9829 17.432C28.8549 16.792 28.7269 16.184 28.5989 15.608C28.4709 14.968 28.2469 14.392 27.9269 13.88C27.4149 13.048 26.8069 12.28 26.1029 11.576C25.3989 10.872 24.5029 10.552 23.4149 10.616C22.8389 10.488 22.2629 10.552 21.6869 10.808C21.1749 11.064 20.6309 11.096 20.0549 10.904C19.6069 11.032 19.1909 11.288 18.8069 11.672C18.4869 11.992 18.0709 12.088 17.5589 11.96C17.1109 12.472 16.5349 12.888 15.8309 13.208C15.1909 13.464 14.7749 13.944 14.5829 14.648C14.0069 15.032 13.6229 15.48 13.4309 15.992C13.3669 16.376 13.1429 16.664 12.7589 16.856C12.4389 16.984 12.2149 17.24 12.0869 17.624C11.7669 18.328 11.8309 19 12.2789 19.64C12.7269 20.216 13.3029 20.568 14.0069 20.696C13.8149 21.016 13.7829 21.272 13.9109 21.464C14.0389 21.656 14.1989 21.848 14.3909 22.04C14.6469 22.232 14.8709 22.456 15.0629 22.712C15.2549 22.904 15.3509 23.128 15.3509 23.384C15.6069 24.088 15.6709 24.888 15.5429 25.784C15.4149 26.616 14.9349 27.16 14.1029 27.416C13.7829 27.224 13.4309 27.192 13.0469 27.32C12.7269 27.448 12.4069 27.448 12.0869 27.32C11.3829 27.192 10.7109 27.032 10.0709 26.84C9.49492 26.584 8.91892 26.296 8.34292 25.976C7.89492 25.784 7.54292 25.528 7.28692 25.208C7.03092 24.888 6.71092 24.6 6.32692 24.344C5.94292 23.704 5.55892 23.064 5.17492 22.424C4.85492 21.72 4.43892 21.112 3.92692 20.6C4.05492 20.216 4.02292 19.832 3.83092 19.448C3.63892 19.064 3.54292 18.648 3.54292 18.2C3.15892 17.88 3.03092 17.432 3.15892 16.856C3.28692 16.28 3.25492 15.736 3.06292 15.224C2.67892 14.328 2.61492 13.432 2.87092 12.536C3.12692 11.64 3.31892 10.744 3.44692 9.848C3.89492 9.528 4.18292 9.176 4.31092 8.792C4.43892 8.344 4.75892 7.992 5.27092 7.736C5.71892 6.776 6.35892 6.008 7.19092 5.432C8.02292 4.856 8.85492 4.216 9.68692 3.512C10.1349 3.448 10.5189 3.288 10.8389 3.032C11.1589 2.712 11.5429 2.488 11.9909 2.36C12.1829 2.296 12.3429 2.2 12.4709 2.07199C12.5989 1.88 12.7269 1.72 12.8549 1.592C13.7509 1.65599 14.6149 1.52799 15.4469 1.20799C16.3429 0.823996 17.2709 0.663996 18.2309 0.727995C18.8069 0.535997 19.3829 0.567999 19.9589 0.823999C20.5349 1.08 21.1109 1.20799 21.6869 1.20799C22.1989 1.336 22.7109 1.464 23.2229 1.592C23.7349 1.72 24.2469 1.752 24.7589 1.68799C24.6949 1.816 24.5669 1.912 24.3749 1.976C24.2469 1.976 24.2789 2.04 24.4709 2.168C25.1749 2.616 25.9109 2.968 26.6789 3.224C27.5109 3.416 28.2789 3.768 28.9829 4.27999C29.8149 4.792 30.5189 5.4 31.0949 6.10399C31.7349 6.808 32.4069 7.512 33.1109 8.216C33.8149 8.984 34.3909 9.816 34.8389 10.712C35.2869 11.544 35.7989 12.376 36.3749 13.208C36.5029 14.04 36.7909 14.776 37.2389 15.416C37.3669 16.312 37.5269 17.208 37.7189 18.104C37.9109 19 38.0709 19.896 38.1989 20.792C38.1989 20.856 38.2309 20.888 38.2949 20.888C38.2949 21.144 38.3269 21.368 38.3909 21.56C38.1989 22.008 38.1669 22.552 38.2949 23.192C38.4229 23.512 38.3909 23.768 38.1989 23.96C38.0709 24.152 37.9429 24.344 37.8149 24.536C37.8149 25.048 37.7189 25.496 37.5269 25.88C37.3349 26.264 37.3029 26.712 37.4309 27.224C37.1749 27.736 36.9509 28.248 36.7589 28.76C36.6309 29.272 36.3429 29.72 35.8949 30.104C35.7029 31.064 35.2229 31.864 34.4549 32.504C33.6869 33.144 33.0789 33.88 32.6309 34.712C33.1429 35.416 33.7189 36.088 34.3589 36.728C34.9989 37.304 35.5429 37.976 35.9909 38.744C36.1829 39.256 36.4389 39.704 36.7589 40.088C37.0789 40.408 37.3669 40.792 37.6229 41.24C38.2629 42.008 38.7109 42.872 38.9669 43.832C39.2869 44.728 39.7029 45.624 40.2149 46.52C40.3429 47.096 40.4389 47.704 40.5029 48.344C40.5669 48.984 40.7589 49.592 41.0789 50.168C41.0789 50.488 41.0149 50.84 40.8869 51.224C40.8229 51.608 40.8549 51.992 40.9829 52.376Z" fill="#EA5A63"/>
</svg>
