<svg width="45" height="71" viewBox="0 0 45 71" fill="none" xmlns="http://www.w3.org/2000/svg">
<path d="M44.4546 37.648C44.4546 38.608 44.2626 39.472 43.8786 40.24C43.8146 40.624 43.8466 41.04 43.9746 41.488C44.1026 41.872 44.1026 42.256 43.9746 42.64C43.7826 42.768 43.5586 42.896 43.3026 43.024C43.1106 43.152 42.8866 43.28 42.6306 43.408C42.2466 43.152 41.9586 42.992 41.7666 42.928C41.0626 43.376 40.2306 43.632 39.2706 43.696C38.3746 43.76 37.7346 43.376 37.3506 42.544C36.9666 42.48 36.7106 42.64 36.5826 43.024C36.4546 43.344 36.3266 43.632 36.1986 43.888C36.1986 44.592 36.1346 45.264 36.0066 45.904C35.8786 46.544 35.8146 47.216 35.8146 47.92C35.6866 48.24 35.5586 48.528 35.4306 48.784C35.3666 48.976 35.3986 49.232 35.5266 49.552C35.3346 51.024 35.1426 52.528 34.9506 54.064C34.8226 55.536 34.6946 57.04 34.5666 58.576C34.3746 58.896 34.2786 59.248 34.2786 59.632C34.2786 59.952 34.3106 60.304 34.3746 60.688C34.2466 61.584 34.1826 62.48 34.1826 63.376C34.2466 64.208 34.2146 65.072 34.0866 65.968C34.1506 66.48 34.1506 67.056 34.0866 67.696C34.0866 68.272 33.8306 68.752 33.3186 69.136C32.9986 69.456 32.6146 69.648 32.1666 69.712C31.7826 69.712 31.3986 69.776 31.0146 69.904C30.4386 70.16 29.8626 70.128 29.2866 69.808C28.7106 69.424 28.1026 69.232 27.4626 69.232C27.2706 68.784 26.9506 68.656 26.5026 68.848C26.1186 68.464 25.7666 68.112 25.4466 67.792C25.1266 67.408 24.7426 67.056 24.2946 66.736C24.4226 66.096 24.2626 65.584 23.8146 65.2C23.4306 64.816 23.3026 64.304 23.4306 63.664C23.1106 62.768 22.9506 61.84 22.9506 60.88C23.0146 59.92 23.0786 58.96 23.1426 58C23.0146 56.656 23.0786 55.312 23.3346 53.968C23.6546 52.56 23.7826 51.152 23.7186 49.744C23.6546 48.656 23.7186 47.6 23.9106 46.576C24.1026 45.552 24.1986 44.496 24.1986 43.408C23.8146 43.536 23.4306 43.6 23.0466 43.6C22.6626 43.536 22.2786 43.472 21.8946 43.408C20.8066 43.664 19.7186 43.888 18.6306 44.08C17.5426 44.208 16.4546 44.432 15.3666 44.752C14.5986 45.072 13.7666 45.168 12.8706 45.04C12.0386 44.912 11.3346 44.592 10.7586 44.08C10.3106 44.272 9.89463 44.528 9.51063 44.848C9.19063 45.104 8.80663 45.36 8.35863 45.616C7.97463 45.424 7.52663 45.424 7.01463 45.616C6.56663 45.808 6.18263 45.712 5.86263 45.328C5.47863 44.88 4.96663 44.624 4.32663 44.56C3.75063 44.432 3.36663 44.08 3.17463 43.504C2.27863 42.992 1.70263 42.288 1.44663 41.392C1.19063 40.496 0.902634 39.664 0.582634 38.896C0.902634 38.32 0.934634 37.808 0.678634 37.36C0.422634 36.912 0.294634 36.432 0.294634 35.92C0.550634 35.088 0.934634 34.384 1.44663 33.808C2.02263 33.232 2.50263 32.56 2.88663 31.792C3.33463 31.344 3.62263 30.832 3.75063 30.256C3.94263 29.68 4.26263 29.168 4.71063 28.72C4.83863 28.336 4.96663 27.984 5.09463 27.664C5.22263 27.344 5.41463 27.024 5.67063 26.704C5.99063 25.872 6.37463 25.072 6.82263 24.304C7.33463 23.536 7.71863 22.704 7.97463 21.808C7.91063 21.808 7.81463 21.744 7.68663 21.616C7.75063 21.552 7.78263 21.52 7.78263 21.52C7.78263 21.456 7.81463 21.392 7.87863 21.328C8.19863 21.264 8.42263 21.04 8.55063 20.656C8.67863 20.272 8.83863 19.92 9.03063 19.6C9.41463 18.128 9.92663 16.72 10.5666 15.376C11.2066 13.968 11.5906 12.528 11.7186 11.056C11.7826 10.544 11.8466 10.064 11.9106 9.616C12.0386 9.104 12.1666 8.592 12.2946 8.08C12.1666 7.76 12.1346 7.44 12.1986 7.12C12.3266 6.8 12.4226 6.48 12.4866 6.16C12.6146 5.84 12.6786 5.552 12.6786 5.296C12.7426 4.976 12.6466 4.656 12.3906 4.336C12.3266 4.08 12.3266 3.824 12.3906 3.568C12.4546 3.248 12.4866 2.96 12.4866 2.704C12.5506 2.448 12.5506 2.192 12.4866 1.936C12.4226 1.67999 12.2626 1.488 12.0066 1.36C11.6866 1.232 11.5906 1.04 11.7186 0.783998C11.9106 0.463999 12.0706 0.239998 12.1986 0.111996C12.9026 -0.0160027 13.5746 0.0479984 14.2146 0.303999C14.9186 0.495996 15.6226 0.687996 16.3266 0.879997C16.8386 0.943996 17.3186 0.975996 17.7666 0.975996C18.2146 0.975996 18.6946 0.975996 19.2066 0.975996C19.0786 1.104 18.9506 1.232 18.8226 1.36C18.6946 1.488 18.7266 1.616 18.9186 1.744C19.3666 2.448 19.9426 2.992 20.6466 3.376C21.4146 3.76 22.0226 4.304 22.4706 5.008C22.7266 5.712 22.9506 6.448 23.1426 7.216C23.3346 7.984 23.4306 8.784 23.4306 9.616C23.3026 10.704 23.2066 11.824 23.1426 12.976C23.0786 14.128 22.9506 15.28 22.7586 16.432C22.3746 17.392 22.3106 18.288 22.5666 19.12C22.3106 19.44 22.0866 19.76 21.8946 20.08C21.7666 20.4 21.7666 20.784 21.8946 21.232V21.424V21.712C21.6386 21.84 21.4786 22.064 21.4146 22.384C21.3506 22.64 21.2546 22.896 21.1266 23.152C20.8066 24.048 20.4546 24.912 20.0706 25.744C19.7506 26.512 19.4946 27.344 19.3026 28.24C18.9186 28.496 18.6626 28.848 18.5346 29.296C18.4706 29.68 18.3106 30.064 18.0546 30.448C17.9266 30.64 17.8306 30.864 17.7666 31.12C17.7026 31.376 17.6386 31.664 17.5746 31.984C17.7666 32.24 18.0226 32.336 18.3426 32.272C18.7266 32.208 19.0786 32.176 19.3986 32.176C20.5506 32.048 21.6706 31.952 22.7586 31.888C23.9106 31.824 25.0626 31.696 26.2146 31.504C26.3426 31.376 26.4386 31.248 26.5026 31.12C26.6306 30.992 26.6946 30.832 26.6946 30.64C26.8866 29.36 27.1746 28.08 27.5586 26.8C27.9426 25.52 28.2626 24.24 28.5186 22.96C28.9666 22.576 29.1906 22.064 29.1906 21.424C29.1906 21.168 29.1586 20.976 29.0946 20.848C29.2226 20.528 29.2546 20.176 29.1906 19.792C29.1906 19.408 29.2546 19.056 29.3826 18.736C29.7026 17.776 29.8626 16.816 29.8626 15.856C29.9266 14.832 30.0866 13.84 30.3426 12.88C30.6626 11.856 30.7906 10.832 30.7266 9.808C30.7266 8.784 30.8866 7.792 31.2066 6.832C31.3986 6.128 31.3986 5.392 31.2066 4.62399C31.0146 3.856 31.0466 3.088 31.3026 2.32C32.3906 2.256 33.4786 2.416 34.5666 2.8C35.6546 3.12 36.7426 3.376 37.8306 3.568C38.2146 3.824 38.5666 4.144 38.8866 4.528C39.2066 4.848 39.6226 5.072 40.1346 5.2C40.6466 5.84 41.0946 6.544 41.4786 7.31199C41.8626 8.08 42.3106 8.816 42.8226 9.51999C42.9506 9.712 42.8866 10.064 42.6306 10.576C42.5026 10.832 42.4706 11.12 42.5346 11.44C42.5986 11.696 42.5986 11.984 42.5346 12.304C42.2146 12.88 42.0226 13.488 41.9586 14.128C41.8946 14.768 41.8626 15.408 41.8626 16.048C41.8626 16.688 41.8306 17.328 41.7666 17.968C41.7666 18.608 41.6386 19.216 41.3826 19.792C41.1906 20.112 41.0946 20.496 41.0946 20.944C41.1586 21.328 41.0306 21.68 40.7106 22C40.9026 23.088 40.7426 24.016 40.2306 24.784C40.1666 25.744 40.0066 26.672 39.7506 27.568C39.5586 28.464 39.3986 29.392 39.2706 30.352C40.1666 30.288 40.9026 30.576 41.4786 31.216C42.1186 31.856 42.6946 32.464 43.2066 33.04C43.2706 33.872 43.5266 34.64 43.9746 35.344C44.4226 36.048 44.5826 36.816 44.4546 37.648Z" fill="#EA5A63"/>
</svg>
