<svg xmlns="http://www.w3.org/2000/svg" fill="none" width="107" height="106" style=""><rect id="backgroundrect" width="100%" height="100%" x="0" y="0" fill="none" stroke="none"/>


<g class="currentLayer" style=""><title>Layer 1</title><path d="M100.82 43.4147C102.167 27.6219 99.9225 11.0852 85.1551 3.80668C77.3777 -0.0268733 64.9711 -0.657647 56.1228 1.63839C51.0359 2.95868 41.5854 12.5462 38.6856 16.1771C31.1169 18.7671 24.0353 12.0308 15.7696 14.4604C7.41204 16.9173 2.22401 26.2725 1.34819 34.0485C-0.841153 53.482 5.04646 74.4145 12.6241 91.2992C15.8931 98.5827 19.5388 102.961 28.1569 104.961C31.9152 105.833 36.0341 106.322 40.0365 104.945C43.2819 103.828 45.281 101.264 48.3968 99.6741C55.8257 95.8831 60.7001 103.24 68.2774 104.598C75.6911 105.927 84.9671 104.177 90.8296 99.4236C96.6298 94.7215 99.9931 88.2625 102.607 81.802C104.585 76.9164 108.225 68.4392 106.466 63.3198L100.82 43.4147Z" fill="#FDEA59" id="svg_1" class=""/><g id="svg_2" class="">
<path d="M40.02368471069336,62.305487896728515 C36.76978471069336,62.305487896728515 34.12369471069336,64.95158789672851 34.12369471069336,68.20548789672851 C34.12369471069336,71.45938789672851 36.76978471069336,74.10548789672852 40.02368471069336,74.10548789672852 C43.27758471069336,74.10548789672852 45.92368471069336,71.45938789672851 45.92368471069336,68.20548789672851 C45.92368471069336,64.95158789672851 43.27748471069336,62.305487896728515 40.02368471069336,62.305487896728515 zM40.02368471069336,72.13878789672852 C37.85438471069336,72.13878789672852 36.09040471069336,70.37468789672852 36.09040471069336,68.20548789672851 C36.09040471069336,66.0361878967285 37.854484710693356,64.27218789672852 40.02368471069336,64.27218789672852 C42.19288471069336,64.27218789672852 43.95698471069336,66.03628789672851 43.95698471069336,68.20548789672851 C43.95698471069336,70.37468789672852 42.19288471069336,72.13878789672852 40.02368471069336,72.13878789672852 z" fill="#61455F" id="svg_3"/>
<path d="M73.45698471069336,62.305487896728515 C70.20308471069336,62.305487896728515 67.55698471069336,64.95158789672851 67.55698471069336,68.20548789672851 C67.55698471069336,71.45938789672851 70.20308471069336,74.10548789672852 73.45698471069336,74.10548789672852 C76.71088471069336,74.10548789672852 79.35698471069335,71.45938789672851 79.35698471069335,68.20548789672851 C79.35698471069335,64.95158789672851 76.71088471069336,62.305487896728515 73.45698471069336,62.305487896728515 zM73.45698471069336,72.13878789672852 C71.28768471069336,72.13878789672852 69.52368471069336,70.37468789672852 69.52368471069336,68.20548789672851 C69.52368471069336,66.0361878967285 71.28778471069336,64.27218789672852 73.45698471069336,64.27218789672852 C75.62628471069337,64.27218789672852 77.39028471069335,66.03628789672851 77.39028471069335,68.20548789672851 C77.39028471069335,70.37468789672852 75.62628471069337,72.13878789672852 73.45698471069336,72.13878789672852 z" fill="#61455F" id="svg_4"/>
<path d="M85.10058471069337,56.85678789672851 L76.25058471069336,43.09008789672852 C76.06968471069337,42.80878789672852 75.75798471069336,42.63868789672851 75.42358471069336,42.63868789672851 H64.60698471069335 C64.06318471069335,42.63868789672851 63.62368471069336,43.079287896728516 63.62368471069336,43.62198789672851 V68.20528789672852 C63.62368471069336,68.74908789672853 64.06318471069335,69.1885878967285 64.60698471069335,69.1885878967285 H68.54028471069336 V67.22188789672852 H65.59028471069337 V44.60548789672852 H74.88668471069336 L83.29028471069336,57.677887896728514 V67.22218789672851 H78.37358471069336 V69.18868789672851 H84.27358471069336 C84.81738471069336,69.18868789672851 85.25688471069336,68.74918789672851 85.25688471069336,68.20548789672851 V57.38868789672851 C85.25698471069336,57.20088789672852 85.20298471069336,57.01498789672851 85.10058471069337,56.85678789672851 z" fill="#61455F" id="svg_5"/>
<path d="M69.52368471069336,55.42208789672851 V48.538787896728515 H77.39038471069335 V46.57208789672852 H68.54038471069336 C67.99658471069336,46.57208789672852 67.55708471069336,47.01258789672852 67.55708471069336,47.55538789672852 V56.40538789672851 C67.55708471069336,56.94918789672852 67.99658471069336,57.38868789672851 68.54038471069336,57.38868789672851 H83.29038471069336 V55.42198789672852 H69.52368471069336 V55.42208789672851 z" fill="#61455F" id="svg_6"/>
<path d="M64.60698471069335,35.755587896728514 H27.240279710693358 C26.69752571069336,35.755587896728514 26.25698471069336,36.196087896728514 26.25698471069336,36.738887896728514 V68.20558789672852 C26.25698471069336,68.7493878967285 26.69752571069336,69.18888789672852 27.240279710693358,69.18888789672852 H35.10698471069336 V67.22218789672851 H28.22369471069336 V37.722187896728514 H63.62368471069336 V67.22218789672851 H44.94028471069336 V69.18888789672852 H64.60698471069335 C65.15078471069336,69.18888789672852 65.59028471069337,68.7493878967285 65.59028471069337,68.20558789672852 V36.738887896728514 C65.59028471069337,36.196087896728514 65.15078471069336,35.755587896728514 64.60698471069335,35.755587896728514 z" fill="#61455F" id="svg_7"/>
<path d="M33.14029471069336,63.28888789672852 H27.24029971069336 V65.25558789672851 H33.14029471069336 V63.28888789672852 z" fill="#61455F" id="svg_8"/>
<path d="M63.62368471069336,63.28888789672852 H46.90698471069336 V65.25558789672851 H63.62368471069336 V63.28888789672852 z" fill="#61455F" id="svg_9"/>
<path d="M84.27358471069336,63.28888789672852 H80.34028471069337 V65.25558789672851 H84.27358471069336 V63.28888789672852 z" fill="#61455F" id="svg_10"/>
<path d="M64.60698471069335,39.68878789672851 H30.19025471069336 V41.655487896728516 H64.60698471069335 V39.68878789672851 z" fill="#61455F" id="svg_11"/>
<path d="M41.00698471069336,67.22208789672851 H39.040284710693356 V69.18878789672851 H41.00698471069336 V67.22208789672851 z" fill="#61455F" id="svg_12"/>
<path d="M74.44038471069337,67.22208789672851 H72.47368471069336 V69.18878789672851 H74.44038471069337 V67.22208789672851 z" fill="#61455F" id="svg_13"/>
<path d="M43.95698471069336,31.822087896728515 H30.19025471069336 V33.788787896728515 H43.95698471069336 V31.822087896728515 z" fill="#61455F" id="svg_14"/>
<path d="M28.22368471069336,31.822087896728515 H26.25698471069336 V33.788787896728515 H28.22368471069336 V31.822087896728515 z" fill="#61455F" id="svg_15"/>
</g></g></svg>