<svg xmlns="http://www.w3.org/2000/svg" fill="none" width="118" height="119"><rect id="backgroundrect" width="100%" height="100%" x="0" y="0" fill="none" stroke="none"/>


<g class="currentLayer" style=""><title>Layer 1</title><path d="M82.6884 100.991C71.8474 112.928 57.9723 122.723 42.3512 116.83C34.1241 113.727 25.0875 104.977 20.6894 96.834C18.1614 92.1525 18.7821 78.5129 19.4862 73.8503C16.1911 66.4516 6.28033 65.8744 2.3842 58.0708C-1.55513 50.18 1.83572 39.8573 7.02651 33.8218C19.9994 18.7379 39.6661 8.59636 57.4828 2.51034C65.1685 -0.114683 70.9487 -0.448135 78.39 4.54813C81.6348 6.72678 84.8435 9.43764 86.5803 13.3557C87.989 16.5323 87.4584 19.7887 88.4244 23.1973C90.7283 31.3246 99.5767 29.8379 105.821 34.508C111.931 39.0765 117.031 47.1576 117.536 54.7919C118.036 62.3442 115.544 69.309 112.534 75.7204C110.258 80.5693 106.453 89.1379 101.422 91.3813L82.6884 100.991Z" fill="#FDEA59" id="svg_1"/><g clip-path="url(#clip0)" id="svg_2" class="">
<path d="M53.97347643127441,30.93177961730957 L54.89417643127442,32.36734961730957 C58.26147643127442,30.25789961730957 62.538176431274415,30.25789961730957 65.90547643127442,32.36734961730957 L66.8261764312744,30.93177961730957 C62.90917643127442,28.42327461730957 57.890476431274415,28.42327461730957 53.97347643127441,30.93177961730957 z" fill="#61455F" id="svg_3"/>
<path d="M50.171476431274414,40.98427961730957 H48.466476431274415 C48.464076431274414,42.56137961730957 48.77647643127442,44.12327961730957 49.38547643127441,45.57817961730957 L50.95907643127441,44.92007961730957 C50.43697643127442,43.67377961730957 50.169176431274416,42.33557961730957 50.171476431274414,40.98427961730957 z" fill="#61455F" id="svg_4"/>
<path d="M64.33267643127442,50.42697961730957 C63.08777643127441,50.94887961730957 61.75097643127441,51.21637961730957 60.40107643127442,51.21377961730957 V52.91877961730957 C61.977376431274415,52.92177961730957 63.53847643127442,52.60967961730957 64.99247643127441,52.00067961730957 L64.33267643127442,50.42697961730957 z" fill="#61455F" id="svg_5"/>
<path d="M70.63077643127441,40.98427961730957 C70.63307643127442,42.33467961730957 70.36547643127442,43.671979617309574 69.84387643127442,44.91757961730957 L71.41757643127441,45.575679617309575 C72.0264764312744,44.12167961730957 72.33857643127442,42.56057961730957 72.33567643127441,40.98427961730957 H70.63077643127441 z" fill="#61455F" id="svg_6"/>
<path d="M60.40107643127442,32.45945961730957 C55.69297643127442,32.45945961730957 51.87627643127441,36.27608961730957 51.87627643127441,40.98417961730957 C51.87627643127441,45.692279617309566 55.69297643127442,49.508879617309574 60.40107643127442,49.508879617309574 C65.10707643127441,49.50367961730957 68.92067643127442,45.69017961730957 68.92577643127441,40.98417961730957 C68.92577643127441,36.27618961730957 65.10917643127442,32.45945961730957 60.40107643127442,32.45945961730957 zM60.40107643127442,47.803979617309565 C56.63457643127441,47.803979617309565 53.58127643127442,44.75057961730957 53.58127643127442,40.98417961730957 C53.58127643127442,37.21774961730957 56.63457643127441,34.16440961730957 60.40107643127442,34.16440961730957 C64.16747643127442,34.16440961730957 67.2208764312744,37.21774961730957 67.2208764312744,40.98417961730957 C67.2165764312744,44.74887961730957 64.16577643127442,47.79977961730957 60.40107643127442,47.803979617309565 z" fill="#61455F" id="svg_7"/>
<path d="M62.276576431274414,40.71227961730957 L61.25357643127441,40.37127961730957 V38.18383961730957 C61.72837643127441,38.349539617309574 62.06207643127441,38.778219617309574 62.10607643127442,39.27927961730957 H63.81097643127441 C63.73477643127441,37.84060961730957 62.67337643127441,36.64607961730957 61.25357643127441,36.40131961730957 V35.86936961730957 H59.54857643127441 V36.40131961730957 C58.12877643127442,36.64607961730957 57.06737643127441,37.84060961730957 56.99117643127441,39.27927961730957 C57.024676431274415,40.19947961730957 57.64247643127442,40.99547961730957 58.52567643127441,41.25617961730957 L59.54857643127441,41.59717961730957 V43.78287961730957 C59.07427643127441,43.61737961730957 58.74077643127441,43.18957961730957 58.69617643127441,42.68917961730957 H56.99117643127441 C57.06737643127441,44.12777961730957 58.12877643127442,45.32237961730957 59.54857643127441,45.567079617309574 V46.09907961730957 H61.25357643127441 V45.567079617309574 C62.67337643127441,45.32237961730957 63.73477643127441,44.12777961730957 63.81097643127441,42.68917961730957 C63.777476431274415,41.76887961730957 63.15967643127441,40.97297961730957 62.276576431274414,40.71227961730957 zM59.54857643127441,39.803579617309566 L59.06267643127441,39.639879617309575 C58.84707643127442,39.56737961730957 58.69617643127441,39.41907961730957 58.69617643127441,39.27927961730957 C58.74017643127441,38.778219617309574 59.07377643127441,38.349539617309574 59.54857643127441,38.18383961730957 V39.803579617309566 zM61.25357643127441,43.78457961730957 V42.164879617309566 L61.73947643127441,42.32857961730957 C61.95517643127441,42.400979617309574 62.10607643127442,42.54937961730957 62.10607643127442,42.68917961730957 C62.06207643127441,43.19017961730957 61.72837643127441,43.618879617309574 61.25357643127441,43.78457961730957 z" fill="#61455F" id="svg_8"/>
<path d="M83.16807643127441,64.25067961730957 L80.36087643127442,61.44347961730957 L83.16807643127441,58.63627961730957 C83.5008764312744,58.303379617309574 83.5008764312744,57.76377961730957 83.16807643127441,57.43087961730957 L72.08597643127442,46.348779617309575 C71.75307643127442,46.01597961730957 71.21347643127442,46.01597961730957 70.88057643127442,46.348779617309575 L59.97487643127441,57.25447961730957 L48.216676431274415,45.49627961730957 C47.88377643127441,45.16347961730957 47.34417643127441,45.16347961730957 47.01127643127441,45.49627961730957 L35.92914643127441,56.578379617309565 C35.59636643127441,56.911279617309575 35.59636643127441,57.45097961730957 35.92914643127441,57.78377961730957 L42.146276431274416,64.00087961730958 H32.26947943127441 V65.70587961730956 H43.35167643127441 C43.46717643127441,65.70617961730957 43.58147643127441,65.68257961730957 43.68747643127441,65.63677961730957 L49.493676431274416,63.14847961730957 H62.10607643127442 V66.55827961730958 H52.728876431274415 C52.25807643127442,66.55827961730958 51.876376431274416,66.93987961730957 51.876376431274416,67.41077961730957 C51.876376431274416,67.74337961730957 52.06977643127441,68.04557961730957 52.37167643127441,68.18487961730958 L63.45377643127441,73.29967961730958 C63.73267643127441,73.42647961730957 64.05807643127442,73.39397961730957 64.30627643127441,73.21447961730956 L79.07027643127441,62.56017961730957 L81.31477643127442,64.80477961730958 L64.34807643127442,79.34537961730956 H59.70117643127442 L43.64657643127441,73.43097961730956 C43.55217643127442,73.39607961730957 43.452376431274416,73.37817961730957 43.35167643127441,73.37807961730957 H32.26947943127441 V75.08307961730958 H43.19907643127441 L59.253676431274414,80.99747961730958 C59.348076431274414,81.03247961730958 59.44787643127441,81.05027961730957 59.54857643127441,81.05037961730957 H64.6634764312744 C64.86687643127442,81.05057961730958 65.06347643127441,80.97767961730958 65.21757643127441,80.84487961730957 L83.11947643127442,65.50037961730956 C83.47697643127441,65.19407961730957 83.51857643127441,64.65587961730958 83.21217643127441,64.29837961730956 C83.19817643127442,64.28197961730957 83.18347643127441,64.26597961730957 83.16807643127441,64.25067961730957 zM49.318976431274415,61.44347961730957 C49.20347643127441,61.44317961730957 49.089076431274414,61.46657961730957 48.98307643127441,61.51257961730957 L48.77587643127441,61.59777961730957 C49.617576431274415,59.413579617309566 52.070676431274414,58.32517961730957 54.254976431274414,59.16687961730957 C55.31817643127441,59.57657961730957 56.17167643127441,60.397179617309575 56.62297643127441,61.44347961730957 H49.318976431274415 zM58.44467643127442,61.44347961730957 C57.698276431274415,58.91037961730957 55.36957643127441,57.17387961730957 52.728876431274415,57.18107961730957 C49.712176431274415,57.19927961730957 47.177076431274415,59.45227961730957 46.80497643127441,62.44597961730957 L44.14267643127441,63.58657961730957 L37.73723643127441,57.18107961730957 L47.613976431274416,47.30437961730957 L61.753076431274415,61.44347961730957 H58.44467643127442 zM63.71637643127441,71.54277961730958 L56.61017643127441,68.26327961730956 H62.95847643127441 C63.42927643127442,68.26327961730956 63.81097643127441,67.88157961730957 63.81097643127441,67.41077961730957 V63.50137961730957 L68.43987643127441,68.13027961730957 L63.71637643127441,71.54277961730958 zM63.89107643127441,61.17067961730957 C64.21397643127442,59.35097961730957 65.79897643127441,58.02707961730957 67.64707643127441,58.03357961730957 C69.76097643127441,58.02977961730957 71.4777764312744,59.74027961730957 71.48177643127441,61.85417961730957 C71.48517643127441,63.70377961730957 70.1652764312744,65.29117961730958 68.34617643127442,65.62567961730957 L63.89107643127441,61.17067961730957 zM69.72967643127441,67.00757961730957 C70.07177643127442,66.86887961730957 70.39867643127442,66.69577961730957 70.7062764312744,66.49197961730957 L69.83967643127441,67.11757961730957 L69.72967643127441,67.00757961730957 zM78.60227643127442,60.79137961730957 L71.09027643127442,66.21737961730958 C73.48347643127441,64.31017961730957 73.87747643127442,60.82387961730957 71.97017643127441,58.43067961730957 C70.06297643127442,56.03737961730957 66.57667643127442,55.64337961730957 64.18347643127441,57.55067961730957 C63.44277643127441,58.140879617309565 62.86577643127441,58.91117961730957 62.50747643127441,59.787979617309574 L61.18017643127442,58.45987961730957 L71.48317643127442,48.15687961730957 L81.35987643127442,58.03357961730957 L78.60227643127442,60.79137961730957 z" fill="#61455F" id="svg_9"/>
</g></g></svg>