<svg xmlns="http://www.w3.org/2000/svg" fill="none" width="110" height="101" style=""><rect id="backgroundrect" width="100%" height="100%" x="0" y="0" fill="none" stroke="none"/>


<g class="currentLayer" style=""><title>Layer 1</title><path d="M1.045071376914978,76.75132038607597 C4.457031376914978,90.21992038607597 15.320351376914978,97.75702038607598 29.085851376914977,100.20092038607598 C34.20895137691498,101.10992038607597 39.379151376914976,100.03592038607597 43.59205137691498,97.09852038607598 C47.52605137691498,94.35582038607598 49.042451376914975,91.28792038607597 54.094251376914976,90.87552038607598 C63.152451376914975,90.13642038607597 70.28505137691498,100.01592038607598 79.29735137691497,94.86022038607598 C85.58585137691497,91.26292038607598 92.07035137691499,87.10782038607597 94.21885137691498,80.50122038607597 C95.28955137691497,77.20822038607598 95.81055137691497,71.61132038607597 96.27105137691498,66.61342038607597 C96.63235137691498,62.69772038607597 96.73005137691497,56.292420386075975 98.63075137691497,52.493420386075975 C101.28645137691498,47.18612038607597 104.57345137691497,42.521220386075974 106.25645137691498,36.80832038607598 C107.81245137691498,31.525320386075972 111.88345137691498,23.435520386075975 108.35645137691498,18.155220386075975 C105.56345137691498,13.975220386075973 100.57745137691498,12.937320386075974 95.91315137691498,13.142820386075973 C90.16025137691499,13.396020386075973 84.34695137691497,12.477120386075974 78.49715137691499,13.420020386075974 C71.31885137691498,14.576920386075974 67.35485137691498,7.543580386075973 61.34785137691498,4.391110386075973 C57.51415137691498,2.3788703860759735 52.68985137691498,1.2150903860759743 48.152451376914975,0.8656103860759742 C43.521451376914975,0.5087473860759738 38.88185137691498,-0.03813361392402661 34.54125137691498,1.6198103860759736 C31.077151376914976,2.942350386075974 26.91575137691498,5.466260386075974 23.689251376914978,7.4725103860759745 C18.729051376914978,10.556420386075974 14.583051376914979,14.703720386075974 11.194451376914978,19.390720386075973 C7.194851376914978,24.920720386075974 3.062011376914978,29.956420386075973 2.022111376914978,36.602120386075974 C-0.13029552308502168,50.35842038607597 -0.16142032308502152,71.99042038607597 1.045071376914978,76.75132038607597 z" fill="#FDEA59" id="svg_1" class=""/><g clip-path="url(#clip0)" id="svg_2" class="">
<path d="M55.931693015098574,30.75594 C57.25989301509857,32.11639 59.48339301509857,34.39335 63.473693015098576,34.5543 L63.54379301509857,32.87893 C60.24179301509858,32.745419999999996 58.46449301509857,30.92467 57.16509301509856,29.59534 C55.98639301509857,28.38929 55.409893015098575,27.85568 54.10639301509857,27.85486 L54.10469301509857,29.53228 C54.61519301509857,29.53228 54.73539301509857,29.53228 55.931693015098574,30.75594 z" fill="#61455F" id="svg_3"/>
<path d="M67.53919301509856,33.87525 L66.85469301509858,32.33789 C66.31959301509858,32.56682 65.72979301509858,32.72612 65.10119301509857,32.81089 L65.33489301509857,34.47234 C66.11879301509857,34.3675 66.85969301509857,34.16602 67.53919301509856,33.87525 z" fill="#61455F" id="svg_4"/>
<path d="M69.49269301509858,56.370999999999995 C69.49269301509858,62.8493 65.29359301509857,68.59700000000001 59.04379301509857,70.6737 L59.593593015098584,72.263 C66.53659301509859,69.9545 71.20229301509858,63.5688 71.20229301509858,56.370999999999995 H69.49269301509858 z" fill="#61455F" id="svg_5"/>
<path d="M71.10919301509857,54.6072 C71.04659301509858,54.015 70.94939301509856,53.4204 70.82289301509857,52.8401 L69.15159301509857,53.1923 C69.26599301509857,53.714 69.35159301509857,54.2485 69.40789301509858,54.78 L71.10919301509857,54.6072 z" fill="#61455F" id="svg_6"/>
<path d="M39.87589301509857,47.069 L41.29679301509857,48.000699999999995 C41.59519301509857,47.5637 41.92079301509857,47.1342 42.26599301509857,46.725899999999996 L40.95029301509857,45.6558 C40.56839301509857,46.1087 40.20689301509857,46.5833 39.87589301509857,47.069 z" fill="#61455F" id="svg_7"/>
<path d="M44.58169301509857,44.512299999999996 L43.52359301509857,43.1948 C43.05779301509857,43.5556 42.60279301509857,43.9463 42.17119301509857,44.3591 L43.36459301509857,45.5607 C43.75359301509857,45.1884 44.16309301509857,44.836200000000005 44.58169301509857,44.512299999999996 z" fill="#61455F" id="svg_8"/>
<path d="M38.206293015098574,50.1904 L39.79539301509857,50.808800000000005 C39.99489301509857,50.316199999999995 40.221993015098576,49.83 40.470693015098576,49.3652 L38.95679301509857,48.5851 C38.680893015098576,49.1027 38.42879301509857,49.6429 38.206293015098574,50.1904 z" fill="#61455F" id="svg_9"/>
<path d="M54.10559301509857,50.5 C55.04849301509857,50.5 55.815293015098575,51.252300000000005 55.815293015098575,52.1774 H57.52489301509857 C57.52489301509857,50.6192 56.43179301509857,49.3164 54.960393015098575,48.9417 V47.1451 H53.250693015098584 V48.8226 H50.68619301509857 V52.1774 C50.68619301509857,54.0276 52.21969301509857,55.5322 54.10559301509857,55.5322 C55.04849301509857,55.5322 55.815293015098575,56.2845 55.815293015098575,57.2097 V58.8871 H54.10559301509857 C53.16269301509857,58.8871 52.39589301509857,58.1348 52.39589301509857,57.2097 H50.68619301509857 C50.68619301509857,58.7679 51.77939301509857,60.0706 53.250693015098584,60.4453 V62.2419 H54.960393015098575 V60.5645 H57.52489301509857 V57.2097 C57.52489301509857,55.3594 55.99139301509857,53.8548 54.10559301509857,53.8548 C53.16269301509857,53.8548 52.39589301509857,53.1025 52.39589301509857,52.1774 V50.5 H54.10559301509857 z" fill="#61455F" id="svg_10"/>
<path d="M65.21849301509857,54.6935 C65.21849301509857,48.6817 60.23299301509857,43.7903 54.10559301509857,43.7903 C47.97809301509857,43.7903 42.992693015098574,48.6817 42.992693015098574,54.6935 C42.992693015098574,60.7054 47.97809301509857,65.5967 54.10559301509857,65.5967 C60.23299301509857,65.5967 65.21849301509857,60.7054 65.21849301509857,54.6935 zM54.10559301509857,63.9193 C48.920993015098574,63.9193 44.702293015098576,59.7802 44.702293015098576,54.6935 C44.702293015098576,49.6068 48.920993015098574,45.4677 54.10559301509857,45.4677 C59.29009301509856,45.4677 63.508793015098576,49.6068 63.508793015098576,54.6935 C63.508793015098576,59.7802 59.29009301509856,63.9193 54.10559301509857,63.9193 z" fill="#61455F" id="svg_11"/>
<path d="M32.734593015098575,61.4032 C33.67749301509857,61.4032 34.44429301509857,62.1555 34.44429301509857,63.0806 H36.15399301509857 C36.15399301509857,61.5224 35.060793015098575,60.2196 33.58939301509857,59.8449 V58.0483 H31.87979301509857 V59.7258 H29.31523301509857 V63.0806 C29.31523301509857,64.9308 30.848773015098573,66.4354 32.734593015098575,66.4354 C33.67749301509857,66.4354 34.44429301509857,67.1877 34.44429301509857,68.1129 V69.7903 H32.734593015098575 C31.791693015098573,69.7903 31.02491301509857,69.038 31.02491301509857,68.1129 H29.31523301509857 C29.31523301509857,69.6711 30.408413015098574,70.9738 31.87979301509857,71.3485 V73.1451 H33.58939301509857 V71.46770000000001 H36.15399301509857 V68.1129 C36.15399301509857,66.26259999999999 34.62039301509857,64.75800000000001 32.734593015098575,64.75800000000001 C31.791693015098573,64.75800000000001 31.02491301509857,64.00569999999999 31.02491301509857,63.0806 V61.4032 H32.734593015098575 z" fill="#61455F" id="svg_12"/>
<path d="M67.27629301509857,41.1702 C70.91429301509856,36.7919 72.91199301509857,31.31615 72.91199301509857,25.64913 V24.5 H72.05719301509856 C69.12409301509857,24.5 68.09689301509857,26.11353 67.26999301509858,27.4105 C66.48449301509858,28.64236 65.91759301509857,29.53226 63.93369301509857,29.53226 C61.83999301509857,29.53226 60.816993015098575,28.485509999999998 59.63359301509857,27.274540000000002 C58.36269301509857,25.97348 56.92299301509857,24.5 54.100593015098575,24.5 C51.278493015098576,24.5 49.839693015098575,25.97429 48.568693015098575,27.27536 C47.38749301509857,28.48633 46.36489301509857,29.53226 44.27409301509857,29.53226 C42.29019301509857,29.53226 41.72339301509857,28.64154 40.938593015098576,27.4105 C40.11259301509857,26.11353 39.085393015098575,24.5 36.15399301509857,24.5 H35.29909301509857 V25.64913 C35.29909301509857,31.31615 37.29679301509857,36.7919 40.93489301509857,41.1702 C36.73249301509857,44.7228 34.13039301509857,49.585899999999995 33.674193015098574,54.7406 C33.36359301509857,54.7144 33.051793015098575,54.6935 32.734593015098575,54.6935 C26.607143015098572,54.6935 21.621693015098572,59.5849 21.621693015098572,65.5968 C21.621693015098572,71.6086 26.607143015098572,76.5 32.734593015098575,76.5 C36.31219301509857,76.5 39.49109301509857,74.82589999999999 41.525893015098575,72.24090000000001 C45.11679301509857,74.9827 49.54169301509857,76.5 54.10559301509857,76.5 C65.41759301509857,76.5 74.62169301509857,67.4695 74.62169301509857,56.370999999999995 C74.62169301509857,50.6098 71.95199301509857,45.117999999999995 67.27629301509857,41.1702 zM42.54809301509857,40.4355 C42.08149301509857,39.8945 41.645293015098574,39.3343 41.23419301509857,38.7581 H66.97779301509857 C66.56669301509856,39.3343 66.13049301509858,39.8945 65.66379301509858,40.4355 H42.54809301509857 zM39.48859301509857,28.29917 C40.31459301509857,29.59614 41.341793015098574,31.20968 44.27409301509857,31.20968 C47.09489301509857,31.20968 48.53369301509857,29.7362 49.80379301509857,28.43514 C50.98719301509857,27.22417 52.00849301509857,26.17742 54.100593015098575,26.17742 C56.19299301509857,26.17742 57.216493015098564,27.22417 58.39939301509858,28.43514 C59.67039301509857,29.7362 61.10999301509858,31.20968 63.93369301509857,31.20968 C66.86549301509856,31.20968 67.89399301509857,29.59614 68.72009301509857,28.29917 C69.37829301509856,27.26758 69.88169301509856,26.47596 71.19569301509857,26.2454 C71.09379301509857,30.07816 69.99859301509858,33.79461 68.06679301509857,37.0798 H40.14519301509857 C38.213393015098575,33.79461 37.11819301509857,30.07816 37.01629301509857,26.2454 C38.32779301509857,26.47596 38.831993015098575,27.26758 39.48859301509857,28.29917 zM32.734593015098575,74.8226 C27.55005301509857,74.8226 23.33137301509857,70.68350000000001 23.33137301509857,65.5968 C23.33137301509857,60.51 27.55005301509857,56.370999999999995 32.734593015098575,56.370999999999995 C37.91919301509857,56.370999999999995 42.13779301509857,60.51 42.13779301509857,65.5968 C42.13779301509857,70.68350000000001 37.91919301509857,74.8226 32.734593015098575,74.8226 zM54.10559301509857,74.8226 C49.87849301509857,74.8226 45.78219301509857,73.4036 42.47299301509857,70.8403 C43.34749301509857,69.28370000000001 43.84749301509857,67.4966 43.84749301509857,65.5968 C43.84749301509857,60.4756 40.22649301509857,56.180499999999995 35.36759301509857,55.0154 C35.76579301509857,50.090900000000005 38.308193015098574,45.434200000000004 42.43959301509857,42.112899999999996 H65.77069301509857 C70.31329301509857,45.763000000000005 72.91199301509857,50.9427 72.91199301509857,56.370999999999995 C72.91199301509857,66.5452 64.47549301509858,74.8226 54.10559301509857,74.8226 z" fill="#61455F" id="svg_13"/>
</g></g></svg>