<svg viewBox="0 0 173 177" fill="none" xmlns="http://www.w3.org/2000/svg">
<path d="M45.8096 17.8547L46.1541 17.5103L46.2546 17.6114C46.1075 17.6915 45.9567 17.7741 45.8096 17.8547Z" fill="#EFD5B8"/>
<path d="M2.86239 97.484L2.73267 97.3537L2.82887 97.2575C2.84004 97.3313 2.85122 97.4096 2.86239 97.484ZM99.0103 1.33553C98.9364 1.32436 98.8576 1.31319 98.7837 1.30201L98.8805 1.20581L99.0103 1.33553Z" fill="#F6EBDB"/>
<path d="M12.2286 125.46L12.0367 125.269L12.0932 125.211C12.1379 125.294 12.1839 125.378 12.2286 125.46ZM126.986 10.7023C126.905 10.6582 126.82 10.6117 126.738 10.5676L126.794 10.5105L126.986 10.7023Z" fill="#F6EBDB"/>
<path fill-rule="evenodd" clip-rule="evenodd" d="M171.126 85.0106C171.126 131.728 133.253 169.599 86.5371 169.599C39.82 169.599 1.9491 131.728 1.9491 85.0106C1.9491 38.2936 39.82 0.422607 86.5371 0.422607C133.253 0.422607 171.126 38.2936 171.126 85.0106Z" fill="#F3F3F4"/>
<path d="M28.436 65.1644C28.436 65.1644 28.174 58.8869 30.2156 57.9769C32.2572 57.0663 36.8841 58.638 36.8102 60.3022C36.737 61.9657 32.9779 68.034 32.9779 68.034C32.9779 68.034 29.6184 66.8335 28.436 65.1644Z" fill="#402922"/>
<path d="M28.9357 63.5624C28.8556 63.0857 29.7147 59.8244 30.3906 58.987C31.0666 58.1484 33.2951 58.339 33.6023 58.8852C33.909 59.4315 31.2777 59.352 30.8283 59.8964C30.1362 60.7319 29.2187 65.2347 28.9357 63.5624Z" fill="#73503D"/>
<path d="M81.0359 89.5988C81.0359 89.5988 83.3282 88.5759 83.6951 90.3207C84.0601 92.0656 82.5579 93.6404 81.7497 93.8912C82.0079 94.4306 73.723 100.948 66.4617 96.5237C55.0265 100.302 41.6398 101.043 35.1779 96.7708C29.2232 100.394 22.0885 97.7012 21.9929 95.2028C18.7086 93.6789 19.7825 90.7826 21.5032 89.3567C22.4076 87.2338 27.7757 83.6938 31.97 85.3642C37.2202 83.5994 42.0426 87.8788 43.5132 87.908C43.9638 87.9166 45.1593 87.6777 46.8378 87.4387C50.6367 86.8968 56.9086 86.3555 62.61 88.6944C70.7522 82.5765 77.916 85.2599 81.0359 89.5988Z" fill="#BEDEC2"/>
<path d="M89.0078 90.7088C89.0078 90.7088 91.3002 89.6846 91.6671 91.4307C92.0327 93.1756 90.5305 94.7497 89.7223 95.0005C89.9811 95.5405 81.695 102.056 74.4349 97.6324C62.9985 101.411 49.613 102.152 43.1499 97.8795C37.1965 101.503 30.0618 98.8112 29.9649 96.3121C26.6806 94.7888 27.7545 91.8913 29.4764 90.4655C30.3796 88.3438 35.7489 84.8031 39.9432 86.4735C45.1921 84.7087 50.0158 88.9881 51.4851 89.0179C51.9358 89.0266 53.1313 88.7876 54.8091 88.548C58.6093 88.0067 64.8818 87.4642 70.582 89.8043C78.7241 83.6864 85.888 86.3699 89.0078 90.7088Z" fill="#BEDEC2"/>
<path d="M89.0075 90.7082C88.5245 90.036 87.9442 89.4028 87.2788 88.838C87.2788 88.8361 87.2788 88.8336 87.2788 88.833C87.9467 89.4004 88.5277 90.0335 89.0124 90.7064C89.0093 90.707 89.0075 90.7082 89.0075 90.7082ZM91.2458 90.6816C90.9944 90.4792 90.6704 90.4103 90.3483 90.4103C89.8579 90.4103 89.3694 90.5686 89.141 90.6548C89.3663 90.5698 89.8566 90.409 90.3495 90.409C90.6717 90.409 90.9944 90.478 91.2458 90.6816Z" fill="#119C83"/>
<path d="M90.8728 94.1214H85.9535C86.5357 92.42 86.9826 90.654 87.2787 88.8384C87.9442 89.4032 88.5245 90.0364 89.0074 90.7086C89.0074 90.7086 89.0093 90.7074 89.0124 90.7068C89.0124 90.7068 89.059 90.6857 89.1409 90.6552C89.3694 90.569 89.8579 90.4107 90.3482 90.4107C90.6704 90.4107 90.9944 90.4796 91.2458 90.682C91.4395 90.839 91.5897 91.0786 91.6623 91.4287C91.8839 92.4678 91.4395 93.4467 90.8728 94.1214Z" fill="#87C595"/>
<path d="M87.705 83.5396C87.705 101.581 73.0812 116.206 55.0402 116.206C36.9992 116.206 22.3753 101.581 22.3753 83.5396C22.3753 65.5017 36.9992 50.876 55.0402 50.876C73.0812 50.876 87.705 65.5017 87.705 83.5396Z" fill="#BEDEC2"/>
<path d="M76.6687 87.3369C76.426 87.1407 76.1554 86.9583 75.8673 86.7919C75.912 86.6721 75.9561 86.5473 75.9996 86.4207C76.2423 85.705 76.4558 84.8974 76.7115 84.232C76.6749 82.6839 77.2609 83.0265 77.4744 82.2761C77.5222 82.2997 77.565 82.3102 77.6041 82.3102C78.0262 82.3102 78.0287 81.0724 78.3937 80.9588C78.7029 80.8949 78.9791 80.6398 79.1206 79.9409C79.3323 79.443 79.2864 78.1165 79.6619 78.0513C79.6694 78.0526 79.6749 78.0526 79.6811 78.0526C80.0418 78.0526 79.9605 76.7075 80.1846 76.3015C80.2733 77.2866 80.3192 78.2848 80.3192 79.2941C80.3192 80.6237 80.2404 81.9359 80.0858 83.2245C79.8406 83.5069 79.5793 83.8173 79.3708 84.3381C78.8593 84.8595 78.3012 85.4058 77.7525 86.011C77.3801 86.4219 77.0132 86.8601 76.6687 87.3369Z" fill="#94CB9F"/>
<path d="M30.0228 94.1214H27.137C27.0625 94.05 26.9899 94.006 26.9191 94.006C26.8912 94.006 26.862 94.0128 26.8347 94.0277C26.6392 92.6627 26.4548 92.294 26.2791 92.294C26.1115 92.294 25.952 92.636 25.8005 92.7576C25.4927 92.1493 25.2195 91.4063 24.9719 91.3889C24.7248 90.9333 24.5045 90.4013 24.304 90.3008C24.1295 89.2691 23.9681 88.7961 23.8173 88.7961C23.7937 88.7961 23.7708 88.8073 23.7478 88.829C23.6199 88.5931 23.4982 88.4131 23.3797 88.1021C23.5311 88.3051 23.8204 88.4733 24.2164 88.8005C24.2729 88.6974 24.3325 88.6515 24.3958 88.6515C24.6578 88.6515 24.9601 89.4616 25.2934 90.1183C25.6329 90.564 26.0072 91.4144 26.4076 91.4144C26.4926 91.4144 26.5783 91.3765 26.6658 91.2878C27.1637 92.2214 27.6969 92.1363 28.2537 92.6161C28.8105 92.9122 29.3896 93.9172 29.9805 94.0928C29.9942 94.1028 30.0091 94.1127 30.0228 94.1214ZM23.3797 88.1021C23.3002 87.9954 23.258 87.8787 23.258 87.7253C23.2977 87.8718 23.3387 87.9948 23.3797 88.1021Z" fill="#94CB9F"/>
<path d="M55.1029 94.1211H45.4871C45.3406 93.8989 45.168 93.7164 44.9849 93.5867C44.934 93.5519 44.88 93.5159 44.8223 93.4799C44.8248 93.478 44.8279 93.4756 44.831 93.4725C44.9396 93.3726 45.0942 93.2739 45.2897 93.2739C45.4455 93.2739 45.6268 93.3359 45.8328 93.5103C46.0495 93.6487 46.2928 93.7078 46.561 93.7078C47.2407 93.7078 48.0805 93.3247 49.0507 92.876C49.2847 92.9629 49.5268 93.0007 49.7764 93.0007C50.2444 93.0007 50.7366 92.8673 51.25 92.6668C52.0389 92.3607 52.8775 91.8958 53.7577 91.5172C54.6361 90.9138 55.5554 91.5507 56.5039 90.7394C57.3121 90.1602 58.1426 89.0901 58.9874 89.0901C59.132 89.0901 59.2767 89.1218 59.4207 89.1919C60.2866 88.6326 61.0762 89.1044 61.8012 87.8909C61.9545 88.0274 62.106 88.0839 62.2543 88.0839C62.8031 88.0839 63.3127 87.3005 63.7913 86.8548C64.2494 86.5128 64.6777 85.403 65.0793 85.403C65.2078 85.403 65.3338 85.5165 65.4573 85.8046C65.5498 85.9157 65.6417 85.9616 65.7323 85.9616C66.1345 85.9616 66.5101 85.0479 66.8652 84.8207C67.52 83.9945 68.1023 82.4787 68.6479 82.4787C68.8211 82.4787 68.9906 82.632 69.1575 83.0113C69.1606 83.0113 69.1631 83.0113 69.1662 83.0113C69.8565 83.0113 70.5002 82.1416 71.1873 81.3489C71.3121 81.2949 71.3959 81.2664 71.4418 81.2664C71.5889 81.2664 71.3506 81.5625 70.8745 82.2683C70.25 83.6016 69.214 84.4911 68.1035 85.5966C67.9154 85.9256 67.7249 86.2235 67.533 86.4731C67.4952 86.4849 67.4567 86.4967 67.4195 86.5097C67.1675 86.5917 66.988 86.8107 66.867 87.1223C66.7174 87.2136 66.5678 87.2639 66.4201 87.2645C65.9905 87.8399 65.574 88.6891 65.191 88.6891C65.0824 88.6891 64.9769 88.6208 64.8726 88.4582C64.484 88.9057 64.0811 89.4402 63.6677 89.4402C63.5846 89.4402 63.5008 89.4185 63.4176 89.3707C62.9148 89.5687 62.4002 89.2211 61.88 90.3135C61.8211 90.3421 61.7621 90.3545 61.7038 90.3545C61.5846 90.3545 61.466 90.3067 61.3474 90.2589C61.2289 90.2111 61.1103 90.1627 60.9918 90.1627C60.7652 90.1627 60.5386 90.3365 60.3133 91.0144C60.1718 90.7909 60.029 90.6947 59.8887 90.6947C59.5107 90.6947 59.137 91.3862 58.7702 92.2161C58.4021 93.267 58.042 93.6804 57.6919 93.6804C57.5603 93.6804 57.43 93.6227 57.3009 93.5172C57.0402 93.8741 56.7857 94.0566 56.5392 94.0566C56.3425 94.0566 56.1501 93.9386 55.9645 93.7009C55.6963 93.758 55.4089 93.9287 55.1029 94.1211Z" fill="#87C595"/>
<path d="M41.0867 91.2719C39.5349 91.2719 37.9874 90.7815 36.7056 90.172C36.2227 90.0422 35.7913 89.9578 35.4083 89.8454C35.872 89.0006 36.2277 88.0763 36.3853 87.396C36.7745 87.6753 37.1519 87.8846 37.5188 87.8858C38.4666 88.2433 39.7255 88.7411 41.0638 88.9423C41.1811 88.9094 41.299 88.8945 41.4145 88.8945C41.949 88.8945 42.4555 89.2079 42.9502 89.5208C43.4443 89.833 43.926 90.1458 44.4089 90.1458C44.5734 90.1458 44.7379 90.1092 44.9024 90.0242C45.0489 90.0055 45.1904 89.9975 45.327 89.9975C46.3084 89.9975 47.0439 90.4283 47.4257 90.4966C47.7423 90.5835 47.4778 91.1589 46.9136 91.1589C46.7112 91.1589 46.4698 91.085 46.2035 90.8889C45.7838 91.0503 45.3022 91.0844 44.7714 91.0844C44.5771 91.0844 44.3766 91.0788 44.1693 91.0751C43.9632 91.0701 43.751 91.0664 43.5325 91.0664C42.9589 91.0664 42.3475 91.0975 41.7118 91.2433C41.5033 91.2626 41.2947 91.2719 41.0867 91.2719ZM31.5666 84.7747C31.407 84.2725 31.2363 83.72 31.0333 83.2595C31.1457 83.36 31.2674 83.4525 31.4002 83.5264C31.6342 83.676 31.8769 84.0019 32.1321 84.3737C31.9452 84.5059 31.7559 84.64 31.5666 84.7747ZM31.0333 83.2595C30.6504 82.9125 30.3822 82.4587 30.2382 82.2749C30.5616 82.3842 30.8167 82.7685 31.0333 83.2595ZM30.2382 82.2749C30.1997 82.2619 30.1587 82.2532 30.1178 82.2483C30.119 82.2414 30.1196 82.2334 30.1209 82.2266C30.1259 82.2036 30.1339 82.1924 30.147 82.1924C30.1668 82.1924 30.1979 82.2234 30.2382 82.2749Z" fill="#8EC89A"/>
<path d="M70.692 76.6177C70.5573 76.6177 70.4263 76.5674 70.3021 76.4483C70.2587 76.4464 70.219 76.4446 70.1805 76.4446C69.98 76.4446 69.8285 76.4743 69.7218 76.5041C69.6162 76.5339 69.5541 76.5643 69.5324 76.5643C69.4691 76.5643 69.7516 76.308 70.2674 75.0466C70.7385 74.2856 71.3499 73.6177 71.9309 73.0156C72.2854 73.4352 72.7671 73.9349 73.1904 74.4104C73.006 74.6059 72.8198 74.7766 72.633 74.907C72.0079 75.5339 71.309 76.6177 70.692 76.6177ZM75.2382 71.8052L76.0334 67.2633C76.3512 66.5972 76.5964 65.9845 76.6833 65.8647C76.7112 66.0032 76.7553 66.0262 76.8 66.0262C76.8118 66.0262 76.8236 66.0249 76.836 66.0231C76.8465 66.0225 76.8589 66.0206 76.8707 66.0206C76.9545 66.0206 77.0222 66.105 76.9856 66.8958C76.9254 68.2794 76.7609 69.11 76.2239 70.11C76.0073 70.1503 75.6392 71.1273 75.2382 71.8052Z" fill="#87C595"/>
<path d="M32.6304 79.6659C32.6304 79.273 32.4063 79.443 32.0544 79.2531C31.7589 79.173 31.3722 78.6665 30.952 78.3158C31.0538 77.9657 31.1605 77.6181 31.2754 77.2736C31.6224 77.6355 31.8942 77.9756 32.1071 78.2319C32.4908 78.4095 32.677 78.8738 32.7539 79.1649C32.9091 79.5281 32.6304 79.3847 32.6304 79.6659ZM27.2226 74.3257C27.1562 74.0911 27.1096 73.8241 27.0798 73.497C26.9842 73.2338 27.0525 71.7341 27.2151 71.7341C27.2213 71.7341 27.2276 71.7372 27.2344 71.7422C27.2344 72.1767 27.1258 72.7 27.4516 72.9197C27.4907 73.0234 27.5354 73.1059 27.5869 73.1816C27.4584 73.5584 27.3362 73.9415 27.2226 74.3257Z" fill="#9CCEA5"/>
<path d="M48.8548 82.0066C48.7592 82.0066 48.6605 81.9625 48.5606 81.8539C48.0714 81.5547 47.5345 81.6243 47.0478 81.4877C46.9783 81.479 46.9107 81.4759 46.8436 81.4759C46.7741 81.4759 46.7058 81.479 46.6394 81.4827C46.5736 81.4859 46.509 81.4895 46.4457 81.4895C46.2154 81.4895 46.0069 81.443 45.8144 81.1792C45.4687 80.9396 45.1745 80.9235 44.9032 80.4877C44.632 80.083 44.3818 79.5802 44.1217 79.4182C43.8616 79.3127 43.5891 78.5268 43.275 78.286C43.275 78.2636 43.28 78.2537 43.2899 78.2537C43.3408 78.2537 43.5239 78.5373 43.8026 78.8204C44.082 79.1053 44.4588 79.389 44.8995 79.389C44.9982 79.389 45.1 79.3753 45.2043 79.343C45.7691 79.7403 46.4159 79.9384 47.0857 80.2667C47.2694 80.2127 47.4538 80.1885 47.6406 80.1885C48.1329 80.1885 48.6282 80.3561 49.1068 80.5727C49.4414 80.4846 49.6884 80.4442 49.861 80.4442C50.3706 80.4442 50.2409 80.7962 49.7921 81.3307C49.5537 81.3536 49.226 82.0066 48.8548 82.0066Z" fill="#87C595"/>
<path d="M52.3648 85.9882C52.0923 85.9882 51.8632 85.7039 51.6423 85.4985C51.5883 85.5059 51.5355 85.509 51.4834 85.509C50.8372 85.509 50.3666 85.0143 49.9948 85.0112C49.7863 84.8305 49.8949 84.5314 50.1774 84.5314C50.2419 84.5314 50.3158 84.5463 50.3977 84.5835C50.4467 84.6015 50.5014 84.6096 50.5591 84.6096C50.7478 84.6096 50.9781 84.5258 51.2332 84.4407C51.4877 84.3569 51.7664 84.2731 52.0519 84.2731C52.168 84.2731 52.286 84.2874 52.4027 84.3203C53.0488 84.3023 53.7943 83.766 54.4405 83.766C54.5982 83.766 54.7497 83.7977 54.8924 83.8771C55.6659 83.7921 56.3481 83.4804 56.7031 83.3619C56.9756 82.8355 57.2345 82.761 57.5008 82.761C57.5523 82.761 57.6044 82.7641 57.6572 82.7666C57.7099 82.7697 57.7627 82.7728 57.8167 82.7728C57.8645 82.7728 57.9135 82.7697 57.9619 82.7641C58.4232 82.4873 58.8626 82.5003 59.2922 81.9932C59.7106 81.6927 60.0532 81.5034 60.2394 81.5034C60.4194 81.5034 60.4548 81.6791 60.2736 82.1018C60.106 82.5617 59.7937 83.2663 59.4691 83.2663C59.4132 83.2663 59.3574 83.2452 59.3015 83.1993C59.2518 83.1608 59.1985 83.1428 59.1407 83.1428C58.759 83.1428 58.2276 83.9255 57.7068 84.2632C57.6851 84.2595 57.6621 84.2563 57.6385 84.2563C57.412 84.2563 57.1587 84.4681 56.9024 84.6791C56.6472 84.8901 56.3878 85.1018 56.1519 85.1018C56.06 85.1018 55.9725 85.0695 55.8893 84.9963C55.2885 85.1508 54.6888 85.4861 54.1836 85.6487C54.0886 85.604 53.9924 85.5872 53.8955 85.5872C53.7391 85.5872 53.5802 85.6313 53.4244 85.6754C53.2692 85.7188 53.1177 85.7629 52.9743 85.7629C52.9154 85.7629 52.8577 85.756 52.8006 85.738C52.6423 85.9193 52.4983 85.9882 52.3648 85.9882Z" fill="#87C595"/>
<path d="M59.5924 77.1848C58.8643 77.1848 58.4925 76.6193 57.8941 76.2227C57.8705 76.1389 57.8444 76.0768 57.8184 76.0321C57.8351 76.0333 57.8544 76.034 57.8743 76.034C58.0189 76.034 58.2542 75.9844 58.6204 75.818C59.4236 75.3512 60.1337 75.1817 60.7656 75.1817C61.3559 75.1817 61.8774 75.3288 62.3442 75.5188C62.472 75.5368 62.6055 75.5442 62.7433 75.5442C63.2076 75.5442 63.7178 75.4548 64.1716 75.3648C64.6253 75.276 65.0226 75.1867 65.2616 75.1867C65.3497 75.1867 65.4149 75.1985 65.4559 75.2276C65.9835 74.962 66.3553 74.8416 66.5738 74.8416C66.8178 74.8416 66.8712 74.9924 66.7346 75.2655C66.5192 75.7317 66.4838 75.5256 65.2138 76.2891C64.6514 76.5467 63.8904 76.9874 63.4013 76.9874C63.2778 76.9874 63.1716 76.9595 63.0909 76.8943C63.0251 76.8081 62.9115 76.7758 62.7681 76.7758C62.5726 76.7758 62.3212 76.8347 62.0598 76.8937C61.7998 76.952 61.5279 77.011 61.2901 77.011C61.0748 77.011 60.8873 76.9626 60.7632 76.8198C60.2784 77.0818 59.9034 77.1848 59.5924 77.1848ZM57.8184 76.0321C57.7457 76.024 57.7042 76.0011 57.6849 75.9781C57.6613 75.9502 57.6719 75.9223 57.6998 75.9223C57.7278 75.9223 57.7724 75.9502 57.8184 76.0321Z" fill="#87C595"/>
<path d="M67.5237 93.7228C67.4051 93.7228 67.3672 93.7036 67.4796 93.6539C67.4436 93.6552 67.41 93.6558 67.3771 93.6558C66.8172 93.6558 66.7384 93.5372 66.1214 93.5105C65.8117 93.4503 65.8433 93.3212 65.235 93.3212C65.0786 93.3212 64.8806 93.3299 64.623 93.3498C64.6329 93.297 64.4684 93.2808 64.24 93.2808C63.865 93.2808 63.3169 93.3255 63.0817 93.3318C63.0736 93.3342 63.0674 93.3342 63.0637 93.3342C63.001 93.3342 63.4336 93.1623 64.9383 92.7365C65.8576 92.4863 65.6912 92.4243 66.744 92.1232C66.8185 92.0649 67.0252 91.9786 67.294 91.8799C67.4026 92.1685 67.5205 92.4143 67.641 92.5999C67.9104 93.017 68.3548 93.2151 68.8688 93.2151C68.9004 93.2151 68.9333 93.2138 68.965 93.212C69.0376 93.2908 69.1158 93.3647 69.1984 93.4317C69.0612 93.5031 68.9414 93.5515 68.8706 93.5645C68.721 93.5918 67.8384 93.7228 67.5237 93.7228Z" fill="#87C595"/>
<path d="M45.2983 69.7332C45.2964 69.7332 45.2778 69.7071 45.238 69.6686C45.2517 69.6755 45.2647 69.6804 45.2765 69.6823C45.2927 69.7183 45.3007 69.7332 45.2983 69.7332ZM45.238 69.6686C45.202 69.6494 45.1567 69.6128 45.1058 69.5619C45.1642 69.601 45.2064 69.6388 45.238 69.6686ZM45.1058 69.5619C45.0959 69.5557 45.0866 69.5488 45.0754 69.5426C44.9221 69.447 44.6763 69.3502 44.3125 69.3502C44.2008 69.3502 44.0779 69.3595 43.9426 69.3812C43.1412 69.0696 41.8625 69.0758 41.775 68.4272C41.3256 68.2385 41.3374 67.9834 41.1636 67.8729C41.1816 67.5147 41.1238 67.1609 41.148 65.9883C41.1307 65.7512 41.2182 65.645 41.3752 65.645C41.7359 65.645 42.4609 66.2168 43.0878 67.0634C43.9407 67.9672 44.7222 69.1801 45.1058 69.5619Z" fill="#87C595"/>
<path d="M55.9853 70.7046C55.5732 70.7046 55.1635 70.6195 54.7637 70.3545C54.7637 70.167 54.8153 70.1112 54.9102 70.1112C54.981 70.1112 55.0766 70.1428 55.1945 70.1751C55.3112 70.2068 55.4496 70.2391 55.6054 70.2391C55.7886 70.2391 55.9971 70.195 56.2243 70.0535C57.0257 70.0323 58.0648 69.0274 59.094 69.0274C59.1778 69.0274 59.2603 69.0336 59.3441 69.0485C60.4528 68.4861 61.5235 67.9733 62.2436 67.1943C62.7358 66.6655 63.0127 66.4551 63.1306 66.4551C63.5316 66.4551 62.1089 68.8815 61.0809 69.5227C61.0269 69.4991 60.9711 69.4879 60.9134 69.4879C60.6291 69.4879 60.2951 69.7474 59.9245 70.0056C59.5533 70.2657 59.1455 70.524 58.7147 70.524C58.5775 70.524 58.4379 70.4979 58.2963 70.437C58.2492 70.4352 58.2014 70.4333 58.1536 70.4333C57.8066 70.4333 57.4478 70.501 57.0847 70.5686C56.7209 70.6363 56.3522 70.7046 55.9853 70.7046Z" fill="#87C595"/>
<path d="M69.0231 73.4568C69.0231 73.4568 63.1 69.5989 63.6649 67.4363C64.2298 65.2737 69.205 62.782 70.4582 63.8801C71.7115 64.977 74.1025 71.7032 74.1025 71.7032C74.1025 71.7032 71.0653 73.5754 69.0231 73.4568Z" fill="#402922"/>
<path d="M68.085 72.0642C67.6623 71.8289 65.1005 69.5025 64.8684 68.4516C64.6375 67.3994 66.7287 65.3975 67.347 65.4993C67.9665 65.6011 66.2607 67.6049 66.4041 68.2964C66.6245 69.3591 69.5667 72.8885 68.085 72.0642Z" fill="#73503D"/>
<path d="M71.5321 85.7074C74.5389 85.4752 79.8214 88.0619 77.1833 91.181C74.5464 94.3015 69.4588 95.1388 68.5166 92.4585C67.5749 89.7794 68.1398 85.9675 71.5321 85.7074Z" fill="#402922"/>
<path d="M70.9108 87.3897C72.0392 87.3028 74.0206 88.273 73.0318 89.4437C72.0417 90.6144 70.1342 90.9279 69.7804 89.9229C69.4272 88.9173 69.6389 87.4872 70.9108 87.3897Z" fill="#73503D"/>
<path d="M29.0054 86.7659C29.5833 86.1855 31.2885 84.9602 32.6355 84.0223C33.6702 83.301 35.1023 83.6231 35.7243 84.7212C36.129 85.4351 36.4735 86.2054 36.4735 86.7659C36.4735 88.1278 34.4362 92.6535 32.7391 91.9745C31.0408 91.2954 27.3282 88.4469 29.0054 86.7659Z" fill="#402922"/>
<path d="M30.1519 87.024C30.6609 87.1817 32.6392 88.134 32.6392 88.134C32.6392 88.134 32.844 89.2687 32.6013 89.5076C32.3605 89.746 30.8887 89.8608 30.4517 89.178C30.016 88.4939 29.3034 86.7608 30.1519 87.024Z" fill="#73503D"/>
<path d="M42.0508 103.477C38.2991 102.935 38.6665 100.321 39.3326 98.8616C40.0669 97.2539 42.8155 93.1508 45.4555 94.3997C48.0961 95.6487 49.2395 97.7424 49.0191 100.934C48.8 104.125 45.6132 103.99 42.0508 103.477Z" fill="#402922"/>
<path d="M41.4804 102.368C39.4307 102.072 39.6306 100.643 39.9949 99.8456C40.3966 98.9673 41.8993 96.7245 43.3419 97.4067C44.7858 98.0895 45.4096 99.2342 45.2904 100.979C45.1694 102.723 43.4276 102.648 41.4804 102.368Z" fill="#73503D"/>
<path d="M74.0848 75.6122C73.659 74.6507 71.3561 72.7053 71.4207 72.1566C71.4865 71.6079 72.0017 70.9139 72.0017 70.9139C72.0017 70.9139 71.0824 70.3267 71.3716 69.462C71.6596 68.5979 70.5802 68.1491 71.947 66.3683C71.947 66.3683 68.5051 65.5842 68.5045 63.47C68.5045 61.3552 71.0637 60.6711 71.0637 60.6711L76.754 63.1435L74.957 73.4155L74.0848 75.6122Z" fill="#BEDEC2"/>
<path d="M29.7546 92.3439C30.9066 90.8939 30.5714 89.2577 31.7936 88.9734C33.0165 88.6891 33.0165 88.6891 33.0165 88.6891C33.0165 88.6891 32.5745 87.519 33.9755 87.2546C35.3765 86.9914 36.8533 87.4892 37.2996 88.3452C37.7471 89.2006 38.8992 89.5208 37.2996 91.3743C35.7012 93.2291 28.7316 93.6313 29.7546 92.3439Z" fill="#BEDEC2"/>
<path d="M30.9392 82.3582C31.3315 82.9932 32.2936 84.5593 33.5978 85.0968C34.9019 85.6356 36.2719 85.4395 37.2508 85.0968C38.2291 84.7548 36.8101 82.3582 36.8101 82.3582H30.9392Z" fill="#BEDEC2"/>
<path d="M38.2893 100.517C38.3408 101.686 41.1484 101.173 41.699 100.472C42.2483 99.7706 43.2582 98.9593 42.9423 97.8643C42.9423 97.8643 44.3234 98.8395 45.3749 97.3503C46.4277 95.8606 45.82 94.1771 44.9845 93.5868C44.1477 92.9965 42.1533 92.3497 41.4923 93.5173C40.8318 94.6837 38.234 99.2839 38.2893 100.517Z" fill="#BEDEC2"/>
<path d="M41.3629 105.573C40.9849 104.189 41.9619 102.51 43.7409 102.487C43.7409 102.487 44.1866 100.343 45.7645 100.114C47.343 99.8841 49.425 102.693 46.87 105.18C44.3157 107.666 41.7285 106.913 41.3629 105.573Z" fill="#BEDEC2"/>
<path d="M67.4189 86.5098C68.4915 86.1591 69.8286 85.9114 70.2668 87.5998C70.2668 87.5998 73.0353 88.2963 72.0502 90.6817C71.0651 93.0653 68.4871 93.9083 67.6411 92.5998C66.795 91.2919 66.0719 86.9493 67.4189 86.5098Z" fill="#BEDEC2"/>
<path d="M78.9479 91.1272C79.1447 90.1961 77.9299 90.0105 76.288 91.1272C76.288 91.1272 74.3948 90.3928 73.167 92.2116C71.9398 94.0303 74.0248 94.2824 74.941 94.2457C75.8572 94.2079 78.8175 91.751 78.9479 91.1272Z" fill="#BEDEC2"/>
<path d="M61.5103 70.9267C62.2651 72.1073 66.1621 70.0465 64.691 63.8273C63.2192 57.6101 60.3508 69.1129 61.5103 70.9267Z" fill="#BEDEC2"/>
<path d="M87.7055 83.5395C87.7055 83.5246 87.7055 83.5072 87.7055 83.4917C87.7055 83.5072 87.7055 83.5233 87.7055 83.5395ZM87.7055 83.478C87.7055 83.4668 87.7055 83.4544 87.7055 83.4439C87.7055 83.4544 87.7055 83.4656 87.7055 83.478ZM87.7055 83.4278C87.7055 83.4141 87.7055 83.398 87.7055 83.3837C87.7055 83.398 87.7055 83.4141 87.7055 83.4278ZM87.7055 83.3806C87.7055 83.3651 87.7055 83.3489 87.7055 83.334C87.7055 83.3489 87.7055 83.3651 87.7055 83.3806ZM87.7055 83.3179C87.7055 83.3073 87.7043 83.2962 87.7043 83.2856C87.7043 83.2955 87.7055 83.3073 87.7055 83.3179ZM87.7043 83.2695C87.7043 83.2564 87.7043 83.2421 87.7043 83.2291C87.7043 83.2421 87.7043 83.2552 87.7043 83.2695ZM87.7043 83.2217C87.7043 83.2068 87.7043 83.1906 87.7037 83.1757C87.7043 83.1912 87.7043 83.2055 87.7043 83.2217ZM87.7037 83.159C87.7037 83.1484 87.7037 83.1379 87.7037 83.1285C87.7037 83.1385 87.7037 83.1484 87.7037 83.159ZM87.7037 83.1087C87.7025 83.0975 87.7025 83.0857 87.7025 83.0745C87.7025 83.0857 87.7025 83.0975 87.7037 83.1087ZM87.7025 83.0628C87.7025 83.0479 87.7012 83.0323 87.7012 83.0168C87.7012 83.0323 87.7025 83.0479 87.7025 83.0628ZM87.7012 82.9988C87.7012 82.9901 87.7012 82.979 87.7006 82.9691C87.7012 82.979 87.7012 82.9889 87.7012 82.9988ZM87.7006 82.9511C87.7006 82.9411 87.7006 82.9293 87.7006 82.9193C87.7006 82.9305 87.7006 82.9405 87.7006 82.9511ZM87.6994 82.9032C87.6994 82.8883 87.6993 82.8734 87.6987 82.8592C87.6993 82.8747 87.6994 82.8883 87.6994 82.9032ZM87.6987 82.8399C87.6987 82.8319 87.6987 82.8213 87.6975 82.8139C87.6987 82.8226 87.6987 82.8306 87.6987 82.8399ZM87.6975 82.7896C87.6975 82.7828 87.6975 82.7735 87.6969 82.7666C87.6975 82.7747 87.6975 82.7816 87.6975 82.7896ZM87.6969 82.7437C87.6969 82.7337 87.6956 82.722 87.6956 82.712C87.6956 82.722 87.6969 82.7337 87.6969 82.7437ZM87.695 82.676C87.695 82.6698 87.695 82.663 87.695 82.6568C87.695 82.6643 87.695 82.6692 87.695 82.676ZM87.6938 82.6301C87.6938 82.6233 87.6938 82.619 87.6925 82.6121C87.6938 82.619 87.6938 82.6233 87.6938 82.6301ZM87.6925 82.5842C87.6925 82.5836 87.6925 82.5842 87.6925 82.5823V82.5842ZM87.6907 82.5147C87.6894 82.5097 87.6894 82.5053 87.6894 82.5004C87.6894 82.5047 87.6894 82.5097 87.6907 82.5147ZM87.6888 82.47C87.6888 82.4656 87.6888 82.4619 87.6888 82.4576C87.6888 82.4619 87.6888 82.4656 87.6888 82.47ZM87.6845 82.3501C87.6845 82.3489 87.6845 82.3464 87.6845 82.3452C87.6845 82.347 87.6845 82.347 87.6845 82.3501ZM87.6838 82.3092C87.6826 82.3073 87.6826 82.3055 87.6826 82.303C87.6826 82.3042 87.6826 82.3073 87.6838 82.3092Z" fill="#119C83"/>
<path d="M85.9538 94.121H81.3033C81.3653 93.7709 81.4262 93.3718 81.4851 92.9068C81.7719 91.0223 82.0171 90.0682 82.1897 89.5996C82.2188 89.2966 82.2455 89.0391 82.271 88.8249C82.3951 88.5785 82.464 88.4208 82.464 88.2352C82.464 88.0384 82.4529 87.9218 82.4311 87.9218C82.3995 87.9218 82.3442 88.1837 82.271 88.8249C82.194 88.9764 82.0953 89.162 81.9792 89.409C81.6732 90.9994 81.2424 92.0689 80.7372 92.3215C80.5298 92.9813 80.3095 93.5809 80.081 94.121H76.7676C76.9972 93.6716 77.2164 93.2166 77.4249 92.7554C78.2176 92.1011 78.8874 91.4171 78.9482 91.1272C79.0413 90.6902 78.8228 90.4171 78.3951 90.3662C79.2145 88.0918 79.7887 85.7013 80.086 83.2246C80.2784 83.0011 80.4597 82.7938 80.5962 82.5133C80.6714 82.5455 80.739 82.5605 80.7992 82.5605C81.2356 82.5605 81.3306 81.7926 81.3014 81.0012C81.4249 80.5704 81.6142 80.3475 81.7371 79.9441C81.6484 78.9068 81.9842 79.1675 81.9066 78.206C81.834 77.2681 82.1121 77.4071 82.1537 76.8714C82.2387 76.4692 82.0593 75.3084 82.2325 75.247C82.181 74.5182 82.1208 73.8038 82.2027 73.5635C82.2145 73.5691 82.2257 73.5716 82.2356 73.5716C82.3833 73.5716 82.3355 73.0316 82.1679 72.1818C82.176 72.1886 82.1828 72.193 82.1884 72.193C82.3045 72.193 81.9612 70.8708 81.9563 70.6306C81.8371 70.0434 81.5596 69.0521 81.5913 69.0521C81.5938 69.0521 81.5987 69.0589 81.6055 69.0738C81.5969 69.0452 81.5894 69.0322 81.5844 69.0322C81.5379 69.0322 81.6763 70.2656 81.3591 70.5784C81.2157 70.8447 81.2722 71.8522 80.9985 71.9682C80.8166 72.3574 80.6714 72.959 80.6801 74.0825C80.6782 75.1719 80.1189 74.6548 80.2468 76.2221C80.2238 76.2408 80.2027 76.2675 80.1847 76.3016C79.7868 71.9335 78.5292 67.8149 76.5832 64.116L76.7539 63.1433L75.8148 62.7355C73.662 59.0843 70.8191 55.8888 67.4671 53.3264C78.9824 58.0713 87.1953 69.1979 87.6825 82.3028C87.6825 82.3053 87.6826 82.3072 87.6838 82.309C87.6838 82.3208 87.6838 82.3332 87.6844 82.345C87.6844 82.3463 87.6844 82.3488 87.6844 82.35C87.6856 82.3848 87.6875 82.422 87.6887 82.4574C87.6887 82.4618 87.6887 82.4655 87.6887 82.4699C87.6887 82.4804 87.6894 82.4903 87.6894 82.5002C87.6894 82.5052 87.6894 82.5096 87.6906 82.5145C87.6906 82.5375 87.6918 82.5592 87.6925 82.5822C87.6925 82.584 87.6925 82.5834 87.6925 82.5841C87.6925 82.5934 87.6925 82.6033 87.6925 82.612C87.6937 82.6188 87.6937 82.6232 87.6937 82.63C87.6937 82.6381 87.6937 82.6492 87.6949 82.6567C87.6949 82.6629 87.6949 82.6697 87.6949 82.6759C87.6949 82.6889 87.6956 82.7001 87.6956 82.7119C87.6956 82.7218 87.6968 82.7336 87.6968 82.7435C87.6968 82.7516 87.6968 82.7584 87.6968 82.7665C87.6974 82.7733 87.6974 82.7827 87.6974 82.7895C87.6974 82.7963 87.6974 82.8057 87.6974 82.8137C87.6987 82.8212 87.6987 82.8317 87.6987 82.8398C87.6987 82.8454 87.6987 82.8522 87.6987 82.859C87.6993 82.8733 87.6993 82.8882 87.6993 82.9031C87.6993 82.9081 87.6993 82.9142 87.7006 82.9192C87.7006 82.9291 87.7006 82.941 87.7006 82.9509C87.7006 82.9565 87.7006 82.9633 87.7006 82.9689C87.7012 82.9789 87.7012 82.99 87.7012 82.9987C87.7012 83.0061 87.7012 83.0111 87.7012 83.0167C87.7012 83.0322 87.7024 83.0477 87.7024 83.0626C87.7024 83.067 87.7024 83.0707 87.7024 83.0744C87.7024 83.0856 87.7024 83.0974 87.7036 83.1086C87.7036 83.1154 87.7036 83.1216 87.7036 83.1284C87.7036 83.1377 87.7036 83.1483 87.7036 83.1588C87.7036 83.1644 87.7036 83.1694 87.7036 83.1756C87.7043 83.1905 87.7043 83.2066 87.7043 83.2215C87.7043 83.2246 87.7043 83.2265 87.7043 83.229C87.7043 83.242 87.7043 83.2563 87.7043 83.2693C87.7043 83.2743 87.7043 83.2799 87.7043 83.2855C87.7043 83.296 87.7055 83.3072 87.7055 83.3177C87.7055 83.3233 87.7055 83.3289 87.7055 83.3339C87.7055 83.3488 87.7055 83.3649 87.7055 83.3805C87.7055 83.3817 87.7055 83.3817 87.7055 83.3836C87.7055 83.3978 87.7055 83.414 87.7055 83.4276C87.7055 83.4326 87.7055 83.4388 87.7055 83.4437C87.7055 83.4543 87.7055 83.4667 87.7055 83.4779C87.7055 83.4822 87.7055 83.4866 87.7055 83.4916C87.7055 83.5071 87.7055 83.5244 87.7055 83.5393C87.7055 87.2426 87.0891 90.8031 85.9538 94.121Z" fill="#87C595"/>
<path d="M80.0856 83.2244C80.2402 81.9358 80.3191 80.6236 80.3191 79.294C80.3191 78.2847 80.2731 77.2865 80.1844 76.3014C80.2024 76.2673 80.2235 76.2406 80.2464 76.2219C80.1186 74.6546 80.6778 75.1717 80.6797 74.0823C80.671 72.9588 80.8163 72.3572 80.9981 71.968C81.2719 71.852 81.2154 70.8445 81.3588 70.5782C81.676 70.2654 81.5375 69.032 81.5841 69.032C81.5891 69.032 81.5965 69.045 81.6052 69.0736C81.5984 69.0587 81.5934 69.0519 81.5909 69.0519C81.5593 69.0519 81.8368 70.0432 81.9559 70.6304C81.9609 70.8706 82.3042 72.1928 82.1881 72.1928C82.1825 72.1928 82.1757 72.1884 82.1676 72.1816C82.3352 73.0314 82.383 73.5714 82.2353 73.5714C82.2253 73.5714 82.2141 73.5689 82.2024 73.5633C82.1204 73.8036 82.1806 74.518 82.2321 75.2468C82.059 75.3082 82.2384 76.469 82.1533 76.8712C82.1117 77.4069 81.8336 77.2679 81.9063 78.2058C81.9839 79.1673 81.648 78.9066 81.7368 79.9439C81.6139 80.3473 81.4246 80.5702 81.301 81.001C81.3302 81.7924 81.2353 82.5603 80.7989 82.5603C80.7387 82.5603 80.671 82.5453 80.5959 82.5131C80.4593 82.7936 80.2781 83.0009 80.0856 83.2244Z" fill="#64B97E"/>
<path d="M81.3033 94.1213H80.0811C80.3095 93.5813 80.5299 92.9817 80.7372 92.3219C81.2425 92.0692 81.6732 90.9997 81.9793 89.4094C82.0953 89.1623 82.1941 88.9767 82.271 88.8253C82.2456 89.0394 82.2189 89.297 82.1897 89.5999C82.0171 90.0686 81.7719 91.0227 81.4852 92.9072C81.4262 93.3721 81.3654 93.7712 81.3033 94.1213ZM82.271 88.8253C82.3443 88.1841 82.3995 87.9221 82.4312 87.9221C82.4529 87.9221 82.4641 88.0388 82.4641 88.2356C82.4641 88.4212 82.3952 88.5788 82.271 88.8253Z" fill="#58B578"/>
<path d="M76.5828 64.1165C76.3376 63.6485 76.0812 63.1892 75.8143 62.7361L76.7535 63.1439L76.5828 64.1165Z" fill="#87C595"/>
<path d="M77.4245 92.7559C77.7783 91.975 78.1023 91.1786 78.3947 90.3667C78.8224 90.4176 79.0409 90.6907 78.9478 91.1277C78.8869 91.4176 78.2172 92.1016 77.4245 92.7559Z" fill="#87C595"/>
<path d="M49.2972 74.6405C48.8186 74.6927 47.4239 74.473 46.9651 73.91C46.2625 73.0186 45.4735 72.0254 45.1179 71.2377C45.5015 71.1198 45.9881 70.7951 46.2004 70.9435C46.4549 71.1427 46.8255 71.1931 47.4537 70.8516C47.5784 70.815 47.7162 70.7324 47.8634 70.6412C48.3848 70.3383 49.0154 69.8578 49.2433 70.0453C49.4183 70.3122 50.1247 69.697 50.6343 69.4208C50.7913 69.3401 50.9254 69.2954 51.0185 69.3022L51.2513 69.0881C51.3301 69.1601 51.3904 69.2309 51.4382 69.3284C51.6622 69.7778 52.2656 69.9876 52.5784 70.4718C53.1141 71.3004 53.2724 70.9038 52.5691 72.7275C51.6902 74.9578 50.9713 74.4599 49.2972 74.6405Z" fill="#402922"/>
<path d="M49.4846 72.5554C49.3474 72.5156 49.2332 72.4219 49.1494 72.3034C48.8763 71.8775 48.2121 71.1947 47.8638 70.641C48.3853 70.3381 49.0159 69.8577 49.2437 70.0451C49.4188 70.3121 50.1252 69.6969 50.6348 69.4207L50.7378 69.5417C50.9948 70.0501 51.9352 70.2214 51.7937 71.137C51.7745 71.2574 51.7347 71.394 51.6745 71.5485C51.3337 72.3909 50.1444 72.8446 49.4846 72.5554Z" fill="#73503D"/>
<path d="M54.7609 71.586C54.7634 71.1217 53.2426 70.9653 52.2408 72.2366C52.2408 72.2366 51.7374 72.1342 51.2153 72.8828C50.6952 73.632 50.1197 74.8635 50.4239 75.555C50.7274 76.2484 54.7553 72.7046 54.7609 71.586Z" fill="#BEDEC2"/>
<path d="M28.4531 90.3706C27.3718 90.3706 26.0571 87.5916 26.0571 82.4035C26.0571 79.5972 26.4637 76.8858 27.2228 74.3259C27.37 74.8511 27.6152 75.2049 27.982 75.6729C28.2483 76.1391 28.6716 76.6909 29.157 77.2272C29.6431 77.7735 30.1899 77.6729 30.7051 78.1341C30.7889 78.1862 30.8721 78.2477 30.9522 78.316C30.5866 79.586 30.3073 80.8902 30.121 82.2266C30.1192 82.2322 30.1179 82.239 30.1167 82.2483H30.1179C29.9447 83.4904 29.8529 84.7611 29.8461 86.0503C29.4842 86.3334 29.1875 86.5817 29.0056 86.766C28.2384 87.5339 28.5984 88.5457 29.3762 89.483C29.1279 90.0783 28.8026 90.3706 28.4531 90.3706ZM31.2756 77.2738C30.9932 76.9796 30.6623 76.6723 30.2737 76.3836C29.406 75.5947 28.7809 75.2111 28.3321 74.1899C27.9919 73.6009 27.7542 73.4233 27.5872 73.1819C31.4184 62.0248 42.005 54.0068 54.4613 54.0068C62.1739 54.0068 69.1639 57.0794 74.275 62.067L71.0634 60.671C71.0634 60.671 70.9833 60.6915 70.8511 60.7386C67.0559 58.8541 62.7785 57.7951 58.2508 57.7951C45.6822 57.7951 35.0168 65.9597 31.2756 77.2738Z" fill="#D9EBDA"/>
<path d="M30.1182 82.2479H30.117C30.1182 82.2387 30.1195 82.2319 30.1213 82.2263C30.1201 82.2331 30.1195 82.2411 30.1182 82.2479Z" fill="#BEDEC2"/>
<path d="M30.9526 78.3163C30.8725 78.248 30.7893 78.1865 30.7055 78.1344C30.1903 77.6732 29.6435 77.7737 29.1574 77.2275C28.672 76.6912 28.2487 76.1394 27.9824 75.6732C27.6155 75.2052 27.3703 74.8513 27.2232 74.3262C27.3368 73.9419 27.4591 73.5589 27.5876 73.1821C27.7546 73.4236 27.9923 73.6011 28.3325 74.1902C28.7813 75.2113 29.4063 75.5949 30.2741 76.3839C30.6627 76.6725 30.9936 76.9798 31.276 77.2741C31.1612 77.6186 31.0544 77.9662 30.9526 78.3163Z" fill="#C7E2CA"/>
<path d="M29.3763 89.4834C28.5985 88.5461 28.2385 87.5344 29.0057 86.7665C29.1876 86.5821 29.4843 86.3338 29.8462 86.0508C29.8462 86.0986 29.8462 86.1451 29.8462 86.1929C29.8462 86.5039 29.8381 86.7963 29.8232 87.0719C29.7425 87.17 29.7407 87.3617 29.7848 87.5933C29.709 88.4027 29.565 89.0309 29.3763 89.4834Z" fill="#91806A"/>
<path d="M29.7844 87.5927C29.7403 87.3611 29.7421 87.1694 29.8228 87.0713C29.8135 87.2525 29.8005 87.4269 29.7844 87.5927Z" fill="#B7A489"/>
<path d="M76.3428 64.3124C74.6637 62.9194 72.822 61.7177 70.8511 60.7388C70.9834 60.6916 71.0635 60.6711 71.0635 60.6711L74.2751 62.0672C75.0039 62.7767 75.6935 63.5265 76.3428 64.3124Z" fill="#D9EBDA"/>
<path d="M42.8944 56.8673C42.8944 56.8673 37.6238 50.2068 43.5804 49.5997C43.792 48.4687 45.0676 48.141 45.7405 48.3347C45.8423 47.4104 47.7889 45.9672 48.5686 47.1969C50.5996 45.9424 50.7958 47.2316 50.9584 47.5414C51.7933 46.7369 53.7871 47.056 53.8659 47.8356C56.6828 47.2217 57.0267 48.0373 56.918 48.8976C60.4134 48.5407 60.1397 50.3353 60.0559 50.8021C62.9181 50.6413 63.2191 52.9666 62.9423 53.4532C64.7945 53.6544 65.8306 57.4086 62.995 57.8294C63.3035 59.5631 60.8734 59.4837 59.8504 59.0634C61.5183 60.6618 59.3308 61.6686 56.6927 60.1714C57.3048 61.6798 55.8423 62.7431 54.3314 62.0472C54.1967 62.6487 53.3855 64.9567 50.9416 63.4396C50.7051 64.9685 49.4947 65.2875 48.2172 64.3055C47.8181 65.5227 46.5164 65.5898 45.7691 64.0318C45.1167 64.686 39.8386 64.1106 42.8944 56.8673Z" fill="#188240"/>
<path d="M43.8683 56.2617C43.8683 56.2617 52.3048 52.3951 61.0956 54.5745C61.0956 54.5745 51.6474 54.2934 43.8683 56.2617Z" fill="#006031"/>
<path d="M43.0499 56.3096C43.0499 56.3096 38.0586 57.1141 37.7681 58.155C37.4776 59.1954 37.3373 59.7521 38.2461 59.2251C39.1548 58.6957 42.5365 56.9285 43.2814 56.808C44.0263 56.6864 43.0499 56.3096 43.0499 56.3096Z" fill="#188240"/>
<path d="M92.5539 94.1213L91.925 96.2027L91.4092 97.9153L89.6904 103.602L89.4154 104.527L87.9933 109.231L87.2975 111.536L85.457 117.626L85.1758 118.552L84.0511 122.275L83.5346 123.992L83.3353 124.642L83.0591 125.562L81.2186 131.652L80.9424 132.572L80.1137 135.312L80.0989 135.369C79.8077 136.325 79.3323 137.188 78.7128 137.915L78.5495 138.11C78.3552 138.319 78.1504 138.519 77.9362 138.702L77.8841 138.743C77.1336 139.388 76.2491 139.869 75.282 140.15C74.6426 140.339 73.9629 140.441 73.2677 140.441H37.0777C36.316 140.441 35.5743 140.318 34.879 140.093C33.7381 139.725 32.7152 139.076 31.9076 138.211C31.1869 137.46 30.6295 136.544 30.2974 135.512L30.2515 135.369L29.4178 132.608L29.1366 131.682L27.3061 125.618L27.0249 124.697L26.8616 124.146L26.3402 122.422L25.1944 118.629L24.9138 117.703L23.0833 111.639L22.388 109.344L20.9709 104.65L20.6897 103.729L18.956 97.9823L18.4346 96.2592L17.7903 94.1213H92.5539Z" fill="#DDA15C"/>
<path d="M73.2679 140.441H71.7496L69.4175 138.11L73.3809 134.146L77.3331 138.094L75.2822 140.15C74.6428 140.339 73.9631 140.441 73.2679 140.441Z" fill="#C26D35"/>
<path d="M70.5424 140.441H67.0867L68.8142 138.713L70.5424 140.441Z" fill="#C26D35"/>
<path d="M65.8897 140.441H62.6172L60.3013 138.125L63.5278 134.899C63.9009 134.776 64.2684 134.648 64.6216 134.514L68.2156 138.11L65.8897 140.441Z" fill="#C26D35"/>
<path d="M61.4113 140.44H57.9849L59.6981 138.727L61.4113 140.44Z" fill="#C26D35"/>
<path d="M56.7888 140.441H53.4859L51.1842 138.14L52.2221 137.102C53.9924 136.902 55.71 136.662 57.3462 136.371L59.1004 138.125L56.7888 140.441Z" fill="#C26D35"/>
<path d="M52.2839 140.441H48.8891L50.5862 138.742L52.2839 140.441Z" fill="#C26D35"/>
<path d="M47.6875 140.441H44.3535L42.068 138.155L42.3491 137.875C44.6347 137.757 46.9606 137.608 49.2467 137.404L49.9829 138.14L47.6875 140.441Z" fill="#C26D35"/>
<path d="M43.1568 140.441H39.7819L41.4697 138.754L43.1568 140.441Z" fill="#C26D35"/>
<path d="M38.5803 140.441H37.0775C36.3159 140.441 35.5741 140.318 34.8789 140.092L32.9714 138.185C35.3594 138.134 37.9621 138.063 40.6561 137.945L40.8665 138.155L38.5803 140.441Z" fill="#C26D35"/>
<path d="M77.8844 138.742L77.9313 138.697L77.9363 138.702L77.8844 138.742Z" fill="#C26D35"/>
<path d="M78.5498 138.109L78.5349 138.094L78.7131 137.915L78.5498 138.109ZM50.5864 137.541L50.3462 137.301C50.5256 137.281 50.7037 137.265 50.8831 137.245L50.5864 137.541ZM59.7031 137.526L58.363 136.186C59.5752 135.957 60.736 135.695 61.8248 135.4L59.7031 137.526ZM68.8192 137.511L65.4865 134.178C67.5672 133.298 69.1575 132.229 70.0563 130.915L70.0923 130.859L72.7826 133.543L68.8192 137.511Z" fill="#C26D35"/>
<path d="M77.9312 137.496L73.984 133.544L77.9461 129.581L80.9424 132.572L80.1137 135.312L77.9312 137.496ZM73.3856 132.945L70.5625 130.123C71.2788 128.931 71.9896 127.444 72.6798 125.746L73.3955 125.031L77.3477 128.983L73.3856 132.945Z" fill="#C26D35"/>
<path d="M81.2185 131.652L78.5493 128.983L82.5127 125.014L83.059 125.562L81.2185 131.652ZM77.946 128.379L73.9988 124.432L77.9609 120.464L81.9144 124.416L77.946 128.379Z" fill="#C26D35"/>
<path d="M83.3352 124.641L83.1105 124.416L83.5344 123.992L83.3352 124.641Z" fill="#C26D35"/>
<path d="M82.5125 123.813L78.5647 119.865L82.5274 115.898L85.1755 118.551L84.0507 122.275L82.5125 123.813ZM73.4312 123.793C74.101 121.972 74.7453 119.973 75.3635 117.867L77.3573 119.865L73.4312 123.793ZM77.9607 119.262L75.6298 116.931C76.0432 115.489 76.4424 114.006 76.826 112.504L77.9768 111.353L81.9241 115.3L77.9607 119.262Z" fill="#C26D35"/>
<path d="M85.4567 117.626L83.1252 115.3L87.093 111.331L87.2972 111.536L85.4567 117.626ZM82.5275 114.701L78.5753 110.749L82.5424 106.786L86.4896 110.733L82.5275 114.701ZM77.2252 110.896L77.281 110.657L77.3735 110.749L77.2252 110.896ZM77.9769 110.151L77.5107 109.685C78.0278 107.506 78.5082 105.313 78.9428 103.186L81.939 106.182L77.9769 110.151Z" fill="#C26D35"/>
<path d="M87.0934 110.13L83.1406 106.182L87.1095 102.22L89.4155 104.526L87.9934 109.231L87.0934 110.13ZM82.5428 105.584L79.143 102.184C79.2343 101.724 79.3212 101.269 79.4087 100.814L82.5533 97.6697L86.5062 101.617L82.5428 105.584Z" fill="#C26D35"/>
<path d="M89.6901 103.602L87.7069 101.617L91.4089 97.915L89.6901 103.602Z" fill="#C26D35"/>
<path d="M87.1094 101.019L83.1565 97.0663L83.9641 96.2588H90.2739L91.0715 97.0564L87.1094 101.019ZM79.6848 99.3364C79.8815 98.278 80.0628 97.2482 80.2267 96.2588H81.1466L81.9554 97.0663L79.6848 99.3364ZM82.5582 96.468L82.349 96.2588H82.768L82.5582 96.468ZM91.6749 96.4525L91.4806 96.2588H91.8692L91.6749 96.4525Z" fill="#C26D35"/>
<path d="M82.5424 105.584L79.1427 102.185L78.5902 101.632L82.553 97.6701L86.5058 101.617L82.5424 105.584ZM86.4897 110.733L82.5276 114.702L78.5754 110.75L82.5424 106.786L86.4897 110.733ZM77.9608 119.262L74.0136 115.315L77.977 111.353L81.9242 115.3L77.9608 119.262ZM81.9143 124.416L77.9459 128.38L73.9987 124.432L77.9608 120.464L81.9143 124.416ZM73.3854 132.945L70.5623 130.123L69.4326 128.993L73.3953 125.031L77.3475 128.983L73.3854 132.945ZM68.8187 137.511L65.486 134.178L64.8665 133.559L68.8298 129.596L70.0918 130.859L72.7821 133.544L68.8187 137.511ZM64.2681 132.96L60.3159 129.008L64.2792 125.046L68.2315 128.993L64.2681 132.96ZM61.8242 135.4L59.7026 137.527L55.7504 133.574L59.7125 129.611L63.6647 133.559L61.8242 135.4ZM51.1998 129.023L55.1619 125.061L59.1141 129.013L55.152 132.976L51.1998 129.023ZM50.8826 137.246L50.5859 137.542L50.3456 137.301L46.633 133.589L50.5964 129.627L54.5493 133.574L50.8826 137.246ZM42.0824 129.038L46.0508 125.076L49.998 129.023L46.0347 132.991L42.0824 129.038ZM41.4691 137.552L37.5219 133.606L41.4841 129.642L45.4319 133.589L41.4691 137.552ZM32.9663 129.054L36.9335 125.091L40.8813 129.038L36.9192 133.001L32.9663 129.054ZM28.4207 124.504L32.3835 120.54L36.3307 124.488L32.3686 128.45L28.4207 124.504ZM28.4313 115.387L32.3984 111.425L36.3456 115.372L32.3835 119.339L28.4313 115.387ZM23.885 110.836L27.8478 106.874L31.795 110.821L27.8329 114.789L23.885 110.836ZM23.8999 101.725L27.8633 97.757L31.8112 101.709L27.8478 105.673L23.8999 101.725ZM36.3618 106.26L32.3984 110.223L28.4517 106.27L32.4139 102.308L36.3618 106.26ZM36.98 97.7421L40.9272 101.694L36.9645 105.656L33.0123 101.709L36.98 97.7421ZM45.4778 106.245L41.5151 110.207L37.5629 106.255L41.5306 102.293L45.4778 106.245ZM46.0918 97.726L50.044 101.678L46.0806 105.642L42.1284 101.694L46.0918 97.726ZM54.5946 106.229L50.6262 110.192L46.679 106.245L50.6424 102.277L54.5946 106.229ZM55.2078 97.716L59.16 101.663L55.1929 105.625L51.2457 101.678L55.2078 97.716ZM63.7106 106.214L59.7435 110.176L55.7963 106.229L59.7584 102.262L63.7106 106.214ZM64.3252 97.7011L68.2724 101.648L64.309 105.611L60.3618 101.663L64.3252 97.7011ZM72.823 106.199L68.8596 110.161L64.9124 106.214L68.8758 102.252L72.823 106.199ZM73.4413 97.685L77.3885 101.632L73.4264 105.601L69.4742 101.648L73.4413 97.685ZM73.3953 123.829L69.4481 119.882L73.4102 115.913L75.3637 117.867L77.3575 119.866L73.3953 123.829ZM68.8447 120.48L72.7969 124.432L68.8298 128.395L64.8826 124.447L68.8447 120.48ZM60.332 119.892L64.2941 115.929L68.2463 119.882L64.2842 123.844L60.332 119.892ZM59.7274 120.495L63.6809 124.447L59.7175 128.409L55.7653 124.457L59.7274 120.495ZM51.2147 119.907L55.1768 115.944L59.129 119.897L55.1669 123.859L51.2147 119.907ZM50.6113 120.51L54.5641 124.463L50.6014 128.426L46.6492 124.473L50.6113 120.51ZM42.0986 119.923L46.0657 115.959L50.0135 119.907L46.0508 123.875L42.0986 119.923ZM41.5002 120.525L45.4468 124.473L41.4841 128.436L37.5319 124.488L41.5002 120.525ZM40.8968 119.923L36.9335 123.89L32.9813 119.938L36.9483 115.975L40.8968 119.923ZM36.9483 114.774L32.9961 110.821L36.9645 106.858L40.9117 110.805L36.9483 114.774ZM45.4623 115.361L41.5002 119.324L37.5467 115.372L41.5151 111.409L45.4623 115.361ZM46.0657 114.758L42.1135 110.805L46.0806 106.843L50.0284 110.795L46.0657 114.758ZM54.579 115.346L50.6113 119.308L46.6641 115.356L50.6262 111.393L54.579 115.346ZM55.1768 114.743L51.2296 110.791L55.1929 106.827L59.1452 110.781L55.1768 114.743ZM63.6958 115.331L59.7274 119.293L55.7802 115.346L59.7435 111.378L63.6958 115.331ZM68.8596 111.363L72.8118 115.315L68.8447 119.277L64.8975 115.325L68.8596 111.363ZM64.2941 114.728L60.3469 110.781L64.309 106.817L68.2563 110.764L64.2941 114.728ZM77.3736 110.75L77.2253 110.897L73.4102 114.712L69.458 110.759L73.4264 106.797L77.2811 110.658L77.3736 110.75ZM81.9391 106.183L77.977 110.151L74.0248 106.199L77.9869 102.231L81.9391 106.183ZM91.9248 96.2027L91.6747 96.4528L89.3432 94.1213H88.1371L91.0713 97.0568L87.1092 101.02L83.1564 97.0667L86.1005 94.1213H84.9044L82.558 96.4684L80.5232 94.4336L80.2116 94.1213H79.0099L80.3538 95.4665L81.9552 97.0667L79.6846 99.3368L77.9918 101.034L74.0396 97.0822L77.0043 94.1213H75.7982L73.4413 96.4839L71.0794 94.1213H69.8776L72.8379 97.0822L68.8758 101.045L64.9229 97.0978L67.9037 94.1213H66.697L64.3252 96.4994L61.9471 94.1213H60.7454L63.7268 97.0978L59.7584 101.06L55.8112 97.1127L58.8025 94.1213H57.6008L55.2078 96.5093L52.8199 94.1213H51.6188L54.6094 97.1127L50.6424 101.075L46.6951 97.1276L49.6963 94.1213H48.4996L46.0967 96.5249L43.6883 94.1213H42.4915L45.4934 97.1276L41.5306 101.091L37.5778 97.1437L40.6001 94.1213H39.3984L36.98 96.5404L34.5567 94.1213H33.3605L36.376 97.1437L32.4139 101.106L28.4617 97.1586L31.4989 94.1213H30.2972L27.8633 96.5552L25.4244 94.1213H24.2283L27.2606 97.1586L23.2972 101.121L19.3499 97.1686L22.3977 94.1213H21.196L18.7466 96.5701L18.4344 96.2592L18.9558 97.9823L22.6938 101.725L20.6895 103.729L20.9707 104.65L23.2972 102.323L27.2444 106.276L23.2823 110.238L22.3878 109.344L23.083 111.639L23.2823 111.44L27.2295 115.387L24.9136 117.703L25.1941 118.629L27.8329 115.99L31.7851 119.938L27.8174 123.9L26.34 122.422L26.8614 124.146L27.2196 124.504L27.0247 124.697L27.3059 125.618L27.8174 125.107L31.7702 129.054L29.1364 131.682L29.4176 132.608L32.3686 129.653L36.3158 133.606L32.3524 137.568L30.2972 135.512C30.6293 136.544 31.1867 137.46 31.9074 138.211C32.7149 139.076 33.7379 139.725 34.8788 140.093L32.9558 138.17L36.9192 134.208L40.8664 138.156L38.5802 140.441H39.7814L41.4691 138.754L43.1563 140.441H44.3531L42.0675 138.156L42.3487 137.875L46.0347 134.192L49.9825 138.14L47.687 140.441H48.8888L50.5859 138.743L52.2836 140.441H53.4853L51.1836 138.14L52.2215 137.102L55.152 134.178L57.3456 136.371L59.0999 138.125L56.7882 140.441H57.9844L59.6976 138.728L61.4108 140.441H62.6169L60.3009 138.125L64.2631 134.162L64.6213 134.514L68.2153 138.11L65.8894 140.441H67.0862L68.8137 138.713L70.5418 140.441H71.7491L69.4171 138.11L73.3804 134.146L77.3327 138.094L75.2817 140.15C76.2489 139.869 77.1334 139.388 77.8839 138.743L77.931 138.697L77.936 138.702C78.1501 138.519 78.355 138.319 78.5493 138.11L78.5344 138.094L78.7125 137.915C79.332 137.188 79.8075 136.325 80.0986 135.369L80.1135 135.312L77.931 137.496L73.9838 133.544L77.9459 129.581L80.9422 132.572L81.2184 131.652L78.5493 128.983L82.5127 125.015L83.0589 125.562L83.3351 124.642L83.1104 124.416L83.5344 123.992L84.0508 122.275L82.5127 123.813L78.5648 119.866L82.5276 115.899L85.1756 118.552L85.4568 117.626L83.1253 115.3L87.093 111.332L87.2973 111.536L87.9931 109.231L87.093 110.131L83.1402 106.183L87.1092 102.221L89.4152 104.527L89.6902 103.602L87.707 101.617L91.409 97.9153L91.9248 96.2027Z" fill="#FBEDCE"/>
<path d="M80.2267 96.2592H74.8642L77.0045 94.1213H79.0101L80.354 95.4665C80.313 95.7265 80.2702 95.9923 80.2267 96.2592ZM73.6656 96.2592H73.2168L71.0796 94.1213H75.7984L73.6656 96.2592ZM72.0157 96.2592H65.763L67.9039 94.1213H69.8779L72.0157 96.2592ZM64.5644 96.2592H64.0845L61.9473 94.1213H66.6972L64.5644 96.2592ZM62.8865 96.2592H56.6655L58.8027 94.1213H60.7456L62.8865 96.2592ZM55.4594 96.2592H54.9579L52.8201 94.1213H57.601L55.4594 96.2592ZM53.7562 96.2592H47.5625L49.6966 94.1213H51.619L53.7562 96.2592ZM46.362 96.2592H45.8307L43.6885 94.1213H48.4998L46.362 96.2592ZM44.6252 96.2592H38.4625L40.6003 94.1213H42.4917L44.6252 96.2592ZM37.2614 96.2592H36.6984L34.5569 94.1213H39.3986L37.2614 96.2592ZM35.4936 96.2592H29.3613L31.4991 94.1213H33.3607L35.4936 96.2592ZM28.1596 96.2592H27.5668L25.4246 94.1213H30.2974L28.1596 96.2592ZM26.362 96.2592H20.2602L22.398 94.1213H24.2285L26.362 96.2592ZM19.0584 96.2592H18.4346L17.7903 94.1213H21.1962L19.0584 96.2592ZM80.5234 94.4336L80.2118 94.1213H80.5694C80.5532 94.2231 80.5383 94.3262 80.5234 94.4336Z" fill="#FAD992"/>
<path d="M91.869 96.2592H91.4805L89.3433 94.1213H92.5537L91.9249 96.2027L91.869 96.2592ZM90.2738 96.2592H83.964L86.1006 94.1213H88.1372L90.2738 96.2592ZM82.7678 96.2592H82.3489L80.5233 94.4336C80.5382 94.3262 80.553 94.2231 80.5692 94.1213H84.9044L82.7678 96.2592ZM81.1465 96.2592H80.2265C80.27 95.9923 80.3128 95.7265 80.3538 95.4665L81.1465 96.2592Z" fill="#F4C26E"/>
<path d="M91.9104 96.2592H91.8694L91.9253 96.2027L91.9079 96.2592H91.9104ZM91.4809 96.2592H90.2742L88.1376 94.1213H89.3437L91.4809 96.2592ZM83.9644 96.2592H82.7683L84.9048 94.1213H86.101L83.9644 96.2592ZM82.3493 96.2592H81.1469L80.3542 95.4665L79.0104 94.1213H80.2121L80.5237 94.4336L82.3493 96.2592ZM74.8645 96.2592H73.6658L75.7987 94.1213H77.0048L74.8645 96.2592ZM73.217 96.2592H72.0159L69.8781 94.1213H71.0799L73.217 96.2592ZM65.7633 96.2592H64.5646L66.6975 94.1213H67.9042L65.7633 96.2592ZM64.0848 96.2592H62.8868L60.7459 94.1213H61.9476L64.0848 96.2592ZM56.6658 96.2592H55.4597L57.6012 94.1213H58.803L56.6658 96.2592ZM54.9582 96.2592H53.7564L51.6193 94.1213H52.8204L54.9582 96.2592ZM47.5628 96.2592H46.3623L48.5001 94.1213H49.6968L47.5628 96.2592ZM45.8309 96.2592H44.6254L42.492 94.1213H43.6888L45.8309 96.2592ZM38.4628 96.2592H37.2617L39.3989 94.1213H40.6006L38.4628 96.2592ZM36.6987 96.2592H35.4938L33.361 94.1213H34.5572L36.6987 96.2592ZM29.3616 96.2592H28.1599L30.2977 94.1213H31.4994L29.3616 96.2592ZM27.5671 96.2592H26.3622L24.2288 94.1213H25.4249L27.5671 96.2592ZM20.2604 96.2592H19.0587L21.1965 94.1213H22.3982L20.2604 96.2592Z" fill="#FFF6DE"/>
<path d="M138.84 78.1831C138.84 78.1831 141.76 76.9174 142.227 79.0745C142.693 81.2309 140.779 83.1769 139.749 83.4866C140.078 84.1539 129.525 92.2061 120.274 86.7399C105.706 91.4091 88.6555 92.3246 80.4227 87.0453C72.8386 91.5233 63.7492 88.1949 63.6269 85.1073C59.4431 83.2253 60.81 79.6449 63.0043 77.8826C64.1551 75.26 70.9937 70.8838 76.3376 72.949C83.0242 70.7684 89.1676 76.0571 91.0416 76.0931C91.6145 76.1036 93.1378 75.8088 95.2762 75.5127C100.115 74.8429 108.106 74.1744 115.367 77.0651C125.74 69.5046 134.865 72.8205 138.84 78.1831Z" fill="#FEE6BA"/>
<path d="M138.84 78.1832C138.113 77.2037 137.215 76.2912 136.169 75.5035C136.17 75.501 136.169 75.501 136.17 75.4985C137.219 76.2875 138.118 77.2006 138.846 78.1807C138.841 78.182 138.84 78.1832 138.84 78.1832ZM141.701 78.1577C141.378 77.9014 140.962 77.8145 140.547 77.8145C139.958 77.8145 139.372 77.9889 139.064 78.0976C139.37 77.9889 139.958 77.8133 140.548 77.8133C140.964 77.8133 141.38 77.9001 141.701 78.1577Z" fill="#559A7F"/>
<path d="M140.974 82.6601H132.69C134.101 80.4211 135.273 78.0238 136.17 75.5037C137.215 76.2914 138.114 77.2038 138.84 78.1834C138.84 78.1834 138.841 78.1821 138.846 78.1809C138.846 78.1809 138.927 78.1461 139.064 78.0977C139.372 77.9891 139.959 77.8147 140.547 77.8147C140.963 77.8147 141.379 77.9015 141.702 78.1579C141.944 78.3541 142.13 78.6464 142.221 79.0729C142.535 80.4962 141.802 81.8308 140.974 82.6601Z" fill="#FDD187"/>
<path d="M138.242 63.4644C138.242 83.8276 121.227 100.335 100.238 100.335C79.2476 100.335 62.2327 83.8276 62.2327 63.4644C62.2327 43.1056 79.2476 26.5991 100.238 26.5991C121.227 26.5991 138.242 43.1056 138.242 63.4644Z" fill="#FEE6BA"/>
<path d="M112.441 82.6603H108.491C108.576 82.5957 108.66 82.5225 108.743 82.4368C109.322 82.1693 109.867 81.723 110.385 81.5901C111.424 80.9967 112.366 80.8248 113.268 80.1202C114.172 79.3176 115.04 79.1643 115.935 78.8937C116.831 78.8062 117.755 78.3809 118.771 77.8403C118.799 77.8272 118.821 77.821 118.839 77.821C118.999 77.821 118.837 78.2661 118.432 78.3456C117.978 79.2512 117.224 79.1643 116.279 80.0222C115.328 80.1531 114.185 81.5492 112.956 82.3518C112.785 82.3884 112.614 82.5076 112.441 82.6603Z" fill="#FDD187"/>
<path d="M121.142 72.1631C121.136 72.1631 121.24 72.0613 121.476 71.8403C122.252 71.1159 123.066 70.3133 123.579 68.574C124.019 68.2332 124.338 67.5256 124.621 66.7168C124.903 65.9086 125.152 64.998 125.451 64.2475C125.407 62.4995 126.09 62.8862 126.338 62.0389C126.393 62.065 126.443 62.0774 126.489 62.0774C126.98 62.0774 126.982 60.6795 127.408 60.5516C127.768 60.4796 128.088 60.1916 128.253 59.4033C128.5 58.8415 128.445 57.3437 128.883 57.2711C128.891 57.2717 128.898 57.2717 128.905 57.2717C129.325 57.2717 129.23 55.754 129.49 55.2959C129.595 56.4076 129.648 57.5343 129.648 58.6733C129.648 60.1736 129.555 61.6541 129.375 63.1085C129.09 63.4288 128.787 63.7782 128.544 64.3667C127.949 64.9545 127.3 65.5709 126.661 66.2549C126.022 66.9384 125.395 67.6914 124.85 68.5498C123.577 69.7491 122.473 70.9322 121.795 71.5697C121.392 71.9464 121.151 72.1631 121.142 72.1631Z" fill="#FDD692"/>
<path d="M82.7104 81.7202C81.4155 81.7202 80.0269 81.642 78.6458 81.4328C78.4528 81.4701 78.2603 81.4868 78.0673 81.4868C77.2628 81.4868 76.4652 81.1901 75.6986 80.8214C74.7476 79.8735 73.8407 79.547 73.0176 79.547C72.1945 78.6246 71.4472 78.9306 70.7669 78.6985C70.6831 78.6786 70.6024 78.6731 70.5217 78.6731C70.4633 78.6731 70.405 78.6768 70.3485 78.6786C70.2914 78.6811 70.2361 78.6848 70.1803 78.6848C69.7296 78.6848 69.31 78.4999 68.9208 76.6408C68.4068 76.5793 67.9413 75.277 67.5198 75.277C67.4869 75.277 67.4546 75.2857 67.4217 75.3024C67.1933 73.7611 66.9791 73.3453 66.7749 73.3453C66.5794 73.3453 66.3944 73.7314 66.2187 73.8686C65.86 73.1826 65.5428 72.3434 65.2541 72.3242C64.9667 71.809 64.7104 71.2093 64.477 71.0957C64.274 69.9306 64.0865 69.3974 63.9096 69.3974C63.8835 69.3974 63.8569 69.4092 63.8302 69.4347C63.6818 69.169 63.5403 68.9647 63.4025 68.614C63.5788 68.8425 63.9146 69.0324 64.3739 69.4024C64.4422 69.2863 64.5111 69.2342 64.5831 69.2342C64.8879 69.2342 65.2398 70.1479 65.6278 70.889C66.0245 71.3931 66.4583 72.3533 66.9251 72.3533C67.0226 72.3533 67.1232 72.3099 67.225 72.2106C67.8035 73.2633 68.4255 73.1677 69.0716 73.7084C69.7197 74.043 70.3944 75.1783 71.0822 75.375C71.7662 75.8586 72.4639 75.2906 73.1579 76.3161C73.4962 76.0231 73.8339 75.5979 74.1672 75.5979C74.5192 75.5979 74.8687 76.0665 75.2132 77.6538C76.1064 78.3161 76.9934 79.3875 77.865 79.3875C77.8929 79.3875 77.9196 79.3887 77.9475 79.3887C78.2231 79.3887 78.4962 79.362 78.7681 79.3366C79.0387 79.3111 79.3088 79.2845 79.5757 79.2845C79.8606 79.2845 80.1437 79.3149 80.423 79.4042C82.0866 79.9226 83.6483 80.3533 85.0419 80.6327C86.1641 80.8599 87.1759 80.989 88.0369 80.989C88.2417 80.989 88.4391 80.9822 88.6266 80.9673C88.7489 80.958 88.8438 80.953 88.9152 80.953C89.7085 80.953 87.5496 81.5141 84.3895 81.6768C83.855 81.7035 83.2932 81.7202 82.7104 81.7202ZM63.4025 68.614C63.3094 68.493 63.261 68.3626 63.261 68.1895C63.3069 68.3539 63.3541 68.493 63.4025 68.614Z" fill="#FDD692"/>
<path d="M94.8489 76.9001C94.3163 76.9001 93.7713 76.7772 93.2151 76.447C91.5926 76.2918 89.8781 76.1012 88.1469 74.8982C88.1698 74.8839 88.2412 74.7797 88.3592 74.6754C88.4845 74.5649 88.6633 74.4519 88.8917 74.4519C89.0736 74.4519 89.2847 74.522 89.5243 74.7182C89.7757 74.8752 90.0587 74.9417 90.3703 74.9417C91.1611 74.9417 92.1388 74.5103 93.2667 74.0025C93.5404 74.1006 93.8228 74.144 94.1133 74.144C94.6559 74.144 95.2288 73.9925 95.8272 73.7666C96.7446 73.4208 97.7192 72.8976 98.7428 72.4693C99.7657 71.789 100.835 72.5072 101.94 71.5903C102.879 70.9379 103.847 69.73 104.828 69.73C104.996 69.73 105.164 69.7654 105.334 69.8448C106.339 69.2142 107.259 69.7461 108.102 68.3762C108.281 68.5301 108.456 68.5953 108.629 68.5953C109.267 68.5953 109.861 67.7101 110.417 67.2061C110.951 66.8206 111.448 65.5679 111.916 65.5679C112.066 65.5679 112.212 65.6964 112.356 66.0229C112.463 66.1471 112.57 66.1992 112.675 66.1992C113.143 66.1992 113.581 65.1676 113.993 64.9119C114.757 63.9783 115.434 62.2682 116.067 62.2682C116.269 62.2682 116.466 62.442 116.661 62.869C116.665 62.869 116.668 62.869 116.672 62.869C117.474 62.869 118.224 61.887 119.023 60.9925C119.168 60.9323 119.265 60.8994 119.318 60.8994C119.491 60.8994 119.213 61.2346 118.658 62.031C117.932 63.5345 116.727 64.5394 115.434 65.7871C114.788 66.8833 114.118 67.6667 113.475 67.6692C112.976 68.3197 112.491 69.2781 112.046 69.2781C111.92 69.2781 111.796 69.2005 111.676 69.0155C111.223 69.522 110.754 70.1254 110.274 70.1254C110.178 70.1254 110.08 70.1012 109.982 70.046C109.397 70.2707 108.799 69.8777 108.193 71.1111C108.125 71.1434 108.056 71.157 107.989 71.157C107.851 71.157 107.712 71.1025 107.574 71.0491C107.436 70.9944 107.298 70.9404 107.159 70.9404C106.897 70.9404 106.633 71.136 106.371 71.9026C106.205 71.6499 106.041 71.5413 105.877 71.5413C105.437 71.5413 105.002 72.3222 104.575 73.2576C104.148 74.4451 103.729 74.9113 103.321 74.9113C103.169 74.9113 103.017 74.8448 102.866 74.7275C102.563 75.1291 102.267 75.3346 101.981 75.3346C101.75 75.3359 101.527 75.203 101.311 74.9336C100.822 75.036 100.275 75.4544 99.6788 75.7834C99.2505 76.0211 98.7974 76.2148 98.3225 76.2148C98.1351 76.2148 97.9451 76.1843 97.7502 76.1154C96.8464 76.4419 95.8719 76.9001 94.8489 76.9001ZM88.1425 74.9007C88.14 74.9007 88.1388 74.8982 88.1388 74.8933C88.1425 74.8945 88.145 74.897 88.1469 74.8982C88.1462 74.8995 88.1437 74.9007 88.1425 74.9007Z" fill="#FDD187"/>
<path d="M84.0022 72.1912C82.1971 72.1912 80.3969 71.6376 78.9053 70.9504C77.179 70.5023 76.0164 70.529 75.3137 68.6637C74.4652 68.2887 73.9152 67.6339 73.3932 66.0777C73.0462 65.4234 72.7439 64.1075 72.3051 63.1472C72.4367 63.2626 72.5782 63.3663 72.7315 63.4495C73.5744 63.9709 74.5037 66.3942 75.7334 66.3942C75.865 66.3942 75.9997 66.3669 76.1375 66.3073C77.4708 66.6735 78.7079 68.3669 79.8519 68.3694C80.9531 68.7748 82.418 69.3359 83.9755 69.5631C84.1133 69.5252 84.2486 69.5097 84.3839 69.5097C85.0053 69.5097 85.595 69.8629 86.1698 70.2142C86.7452 70.5674 87.3057 70.9206 87.8681 70.9206C88.0593 70.9206 88.2498 70.8809 88.4423 70.7853C88.6111 70.763 88.7768 70.7537 88.9351 70.7537C90.0779 70.7537 90.9339 71.2409 91.3783 71.3166C91.7458 71.4147 91.4385 72.064 90.7812 72.064C90.5453 72.064 90.2653 71.9808 89.9544 71.7592C89.4671 71.9417 88.9072 71.9808 88.2902 71.9808C88.0636 71.9808 87.8302 71.9746 87.59 71.9697C87.3491 71.9647 87.1015 71.9603 86.8476 71.9603C86.1803 71.9603 85.4696 71.9951 84.7296 72.1609C84.4882 72.1813 84.2449 72.1912 84.0022 72.1912ZM72.3051 63.1472C71.86 62.7568 71.5484 62.2459 71.3814 62.0379C71.7563 62.1608 72.0537 62.5947 72.3051 63.1472ZM71.3814 62.0379C71.3355 62.023 71.2883 62.0125 71.2399 62.0075C71.2448 61.9641 71.256 61.9448 71.274 61.9448C71.2982 61.9448 71.333 61.9783 71.3814 62.0379Z" fill="#FDD38C"/>
<path d="M118.445 55.6526C118.289 55.6526 118.138 55.5949 117.992 55.4614C117.943 55.4595 117.895 55.457 117.85 55.457C117.617 55.457 117.442 55.4906 117.318 55.5241C117.194 55.5582 117.122 55.5924 117.097 55.5924C117.024 55.5924 117.353 55.3031 117.952 53.8791C118.914 52.372 120.38 51.1871 121.276 50.161C122.034 48.7463 122.941 47.6644 123.718 46.6867C124.498 45.7016 125.239 43.7513 125.415 43.5154C125.449 43.6712 125.5 43.6979 125.552 43.6979C125.567 43.6979 125.58 43.6972 125.593 43.6941C125.608 43.6935 125.621 43.6911 125.634 43.6911C125.732 43.6911 125.811 43.7866 125.768 44.6799C125.698 46.2416 125.507 47.1783 124.882 48.3075C124.526 48.3714 123.817 50.5477 123.15 50.8971C122.432 51.8425 121.567 53.1349 120.704 53.7221C119.977 54.4291 119.164 55.6526 118.445 55.6526Z" fill="#FDD187"/>
<path d="M74.1643 59.0921C74.1643 58.6495 73.903 58.8419 73.4939 58.6266C73.0824 58.5192 72.5231 57.7246 71.9228 57.3646C71.3232 56.8432 70.6888 56.9574 70.1233 56.3404C69.5572 55.7345 69.065 55.112 68.7559 54.5868C68.1395 53.8239 67.8179 53.3255 67.7056 52.1299C67.5945 51.8339 67.6752 50.1411 67.8639 50.1411C67.8713 50.1411 67.8781 50.1436 67.8856 50.1486C67.8856 50.6408 67.7596 51.2317 68.1395 51.4788C68.3269 51.9667 68.6435 52.0368 69.1631 52.9133C69.6857 54.0654 70.412 54.498 71.4213 55.3888C72.4318 56.1157 73.1078 56.9512 73.5548 57.4744C74.0023 57.6749 74.2177 58.1988 74.3083 58.5272C74.4896 58.9381 74.1643 58.7755 74.1643 59.0921Z" fill="#FDDA9A"/>
<path d="M93.0399 61.7342C92.9288 61.7342 92.8153 61.6845 92.6979 61.5629C92.1287 61.224 91.5049 61.3028 90.9388 61.1489C90.8581 61.1383 90.778 61.1346 90.701 61.1346C90.6197 61.1346 90.5403 61.1383 90.4627 61.1427C90.3869 61.1464 90.3118 61.1501 90.2379 61.1501C89.9698 61.1501 89.7277 61.0986 89.5036 60.8C89.1002 60.5287 88.7594 60.512 88.444 60.0198C88.1268 59.5629 87.837 58.9962 87.5334 58.8124C87.2311 58.6939 86.9145 57.8068 86.5483 57.5356C86.5483 57.5089 86.5545 57.4971 86.5663 57.4971C86.6259 57.4971 86.837 57.8186 87.1622 58.1389C87.4875 58.4592 87.9263 58.7795 88.4391 58.7795C88.5539 58.7795 88.6725 58.764 88.7935 58.7274C89.4496 59.1762 90.2032 59.3996 90.9828 59.7696C91.1964 59.7094 91.4118 59.6827 91.6265 59.6827C92.1995 59.6827 92.778 59.8714 93.3336 60.1153C93.7221 60.0166 94.0095 59.9701 94.2113 59.9701C94.8035 59.9701 94.6526 60.3679 94.1318 60.9713C93.8537 60.9967 93.472 61.7342 93.0399 61.7342Z" fill="#FDD187"/>
<path d="M97.1232 66.2288C96.8066 66.2288 96.5403 65.9067 96.2827 65.6764C96.22 65.6832 96.1586 65.6869 96.0978 65.6869C95.346 65.6869 94.7986 65.1289 94.3672 65.1258C94.1238 64.9216 94.2492 64.5833 94.5782 64.5833C94.6533 64.5833 94.739 64.6013 94.8346 64.6422C94.8917 64.6627 94.9544 64.6727 95.022 64.6727C95.2418 64.6727 95.5105 64.577 95.8066 64.4833C96.1027 64.3877 96.428 64.2921 96.7588 64.2921C96.8941 64.2921 97.0314 64.3076 97.1679 64.3461C97.9196 64.325 98.7874 63.7204 99.5385 63.7204C99.7222 63.7204 99.8985 63.7552 100.064 63.8458C100.964 63.749 101.758 63.3977 102.171 63.263C102.487 62.6696 102.787 62.5864 103.097 62.5864C103.158 62.5864 103.219 62.5888 103.281 62.5919C103.342 62.5957 103.403 62.5981 103.466 62.5981C103.523 62.5981 103.578 62.5957 103.637 62.5889C104.172 62.2766 104.683 62.2921 105.183 61.7186C105.668 61.3809 106.067 61.1667 106.285 61.1667C106.494 61.1667 106.535 61.3641 106.325 61.8415C106.131 62.3604 105.766 63.1568 105.39 63.1568C105.324 63.1568 105.259 63.1326 105.193 63.0805C105.137 63.037 105.074 63.0165 105.007 63.0165C104.562 63.0165 103.944 63.8992 103.339 64.2822C103.313 64.276 103.286 64.2735 103.259 64.2735C102.996 64.2735 102.701 64.5119 102.403 64.7503C102.105 64.9899 101.804 65.2276 101.528 65.2276C101.423 65.2276 101.32 65.1922 101.223 65.1084C100.525 65.2835 99.8271 65.6602 99.2399 65.844C99.1294 65.7943 99.0171 65.7763 98.9035 65.7763C98.721 65.7763 98.536 65.826 98.356 65.8757C98.176 65.9253 97.9997 65.9749 97.8315 65.9749C97.7638 65.9749 97.6962 65.9663 97.631 65.9458C97.446 66.15 97.279 66.2288 97.1232 66.2288Z" fill="#FDD187"/>
<path d="M105.534 56.2919C104.686 56.2919 104.254 55.6538 103.557 55.2057C103.53 55.1113 103.499 55.0412 103.469 54.9903C103.488 54.9928 103.51 54.994 103.534 54.994C103.702 54.994 103.977 54.9369 104.401 54.7482C105.337 54.2212 106.162 54.0318 106.897 54.0318C107.584 54.0318 108.192 54.197 108.735 54.4111C108.882 54.4316 109.038 54.4403 109.199 54.4403C109.74 54.4403 110.333 54.3397 110.861 54.2385C111.388 54.138 111.851 54.0362 112.129 54.0362C112.231 54.0362 112.308 54.0511 112.355 54.0822C112.969 53.7836 113.401 53.647 113.656 53.647C113.94 53.647 114 53.8177 113.842 54.1262C113.592 54.6532 113.551 54.4198 112.072 55.2814C111.42 55.5719 110.535 56.0697 109.964 56.0697C109.822 56.0697 109.698 56.0387 109.602 55.9642C109.527 55.8655 109.395 55.8301 109.227 55.8301C109 55.8301 108.709 55.8972 108.404 55.9636C108.101 56.03 107.785 56.0964 107.509 56.0964C107.257 56.0964 107.04 56.0406 106.895 55.8798C106.331 56.1759 105.894 56.2919 105.534 56.2919ZM103.469 54.9903C103.384 54.9816 103.336 54.9561 103.314 54.9307C103.286 54.8997 103.298 54.868 103.331 54.868C103.363 54.868 103.416 54.8984 103.469 54.9903Z" fill="#FDD187"/>
<path d="M114.76 74.958C114.622 74.958 114.579 74.9363 114.71 74.881C114.668 74.8823 114.627 74.8823 114.59 74.8823C113.94 74.8823 113.848 74.7476 113.13 74.7178C112.77 74.6514 112.806 74.5049 112.099 74.5049C111.916 74.5049 111.685 74.5148 111.385 74.5378C111.398 74.4782 111.207 74.4589 110.941 74.4589C110.504 74.4589 109.866 74.5098 109.593 74.5167C109.583 74.5191 109.576 74.5191 109.571 74.5191C109.499 74.5191 110.002 74.3261 111.753 73.8451C112.822 73.5632 112.628 73.4931 113.854 73.1523C114.059 72.9953 115.116 72.6725 115.987 72.3764C115.815 72.2647 117.38 71.832 117.909 71.5844C117.935 71.4248 118.457 71.1747 118.928 70.9301C119.155 70.7867 119.278 70.7234 119.331 70.7234C119.522 70.7234 118.802 71.5334 118.672 72.31C118.655 72.7954 117.117 73.5862 117.651 73.8798C117.378 74.3199 116.582 74.7321 116.327 74.7793C116.153 74.8109 115.126 74.958 114.76 74.958Z" fill="#FDD187"/>
<path d="M88.9028 47.8828C88.8991 47.8828 88.8774 47.853 88.8315 47.8083C88.8482 47.8163 88.8631 47.8225 88.8774 47.8238C88.8942 47.8648 88.9041 47.8828 88.9028 47.8828ZM88.8315 47.8083C88.7893 47.7878 88.7384 47.7468 88.6782 47.6885C88.7458 47.7319 88.7948 47.7741 88.8315 47.8083ZM88.6782 47.6885C88.667 47.681 88.6552 47.6742 88.6428 47.6667C88.4627 47.5581 88.1785 47.4501 87.7551 47.4501C87.6248 47.4501 87.4826 47.4601 87.3249 47.4843C86.392 47.1323 84.9053 47.141 84.8023 46.4073C84.2784 46.1956 84.2933 45.9064 84.0916 45.7822C84.1133 45.3769 84.0456 44.9796 84.0723 43.6555C84.0531 43.3874 84.1555 43.2676 84.3367 43.2676C84.7576 43.2676 85.5999 43.9131 86.3305 44.8685C87.3218 45.8883 88.2319 47.2558 88.6782 47.6885Z" fill="#FDD187"/>
<path d="M101.335 48.9784C100.857 48.9784 100.38 48.8828 99.9147 48.583C99.9147 48.3714 99.9749 48.3086 100.085 48.3086C100.169 48.3086 100.28 48.3434 100.415 48.38C100.552 48.416 100.712 48.4526 100.894 48.4526C101.108 48.4526 101.349 48.4017 101.614 48.2434C102.546 48.2192 103.756 47.0851 104.953 47.0851C105.049 47.0851 105.146 47.0926 105.243 47.1081C106.533 46.475 107.779 45.8959 108.617 45.0169C109.19 44.4198 109.512 44.1814 109.65 44.1814C110.116 44.1814 108.46 46.9206 107.264 47.6438C107.203 47.6171 107.138 47.6054 107.07 47.6054C106.738 47.6054 106.35 47.8977 105.918 48.1901C105.487 48.4831 105.013 48.7754 104.512 48.7754C104.351 48.7754 104.189 48.745 104.025 48.6773C103.969 48.6736 103.915 48.6724 103.859 48.6724C103.454 48.6724 103.037 48.7487 102.615 48.8245C102.192 48.9021 101.763 48.9784 101.335 48.9784Z" fill="#FDD187"/>
<path d="M138.242 63.4642C138.242 63.4469 138.242 63.4276 138.242 63.4109C138.242 63.4289 138.242 63.4469 138.242 63.4642ZM138.242 63.3954C138.242 63.383 138.242 63.3674 138.242 63.355C138.242 63.3687 138.242 63.3817 138.242 63.3954ZM138.242 63.3383C138.24 63.3227 138.24 63.3047 138.24 63.288C138.24 63.3047 138.24 63.3227 138.242 63.3383ZM138.24 63.2855C138.24 63.2681 138.24 63.2501 138.24 63.2333C138.24 63.2501 138.24 63.2681 138.24 63.2855ZM138.24 63.2141C138.24 63.2017 138.24 63.1899 138.24 63.1774C138.24 63.1899 138.24 63.2017 138.24 63.2141ZM138.24 63.1594C138.24 63.1439 138.239 63.129 138.239 63.1148C138.239 63.1278 138.24 63.1445 138.24 63.1594ZM138.239 63.1061C138.239 63.0881 138.239 63.0713 138.239 63.0527C138.239 63.0713 138.239 63.0881 138.239 63.1061ZM138.239 63.0347C138.238 63.0229 138.238 63.0117 138.238 63C138.238 63.0117 138.238 63.0229 138.239 63.0347ZM138.238 62.9795C138.238 62.9658 138.238 62.9515 138.238 62.9397C138.238 62.9527 138.238 62.9658 138.238 62.9795ZM138.237 62.9261C138.237 62.9105 138.237 62.8913 138.237 62.8752C138.237 62.8938 138.237 62.9093 138.237 62.9261ZM138.235 62.8559C138.235 62.8441 138.235 62.8317 138.235 62.8212C138.235 62.8317 138.235 62.8441 138.235 62.8559ZM138.235 62.8007C138.235 62.7883 138.235 62.7753 138.235 62.7641C138.235 62.7759 138.235 62.7883 138.235 62.8007ZM138.235 62.7473C138.235 62.7293 138.234 62.7131 138.234 62.6964C138.234 62.7131 138.235 62.7299 138.235 62.7473ZM138.234 62.6759C138.232 62.6647 138.232 62.6554 138.232 62.6442C138.232 62.6554 138.232 62.6647 138.234 62.6759ZM138.232 62.6188C138.231 62.6095 138.231 62.6008 138.231 62.5915C138.231 62.5996 138.231 62.6107 138.232 62.6188ZM138.231 62.566C138.23 62.5574 138.23 62.5481 138.23 62.5394C138.23 62.5481 138.23 62.5574 138.231 62.566ZM138.229 62.4897C138.229 62.4822 138.229 62.4767 138.227 62.4692C138.229 62.4767 138.229 62.4822 138.229 62.4897ZM138.227 62.4375C138.227 62.4307 138.226 62.4245 138.226 62.417C138.226 62.4245 138.227 62.4307 138.227 62.4375ZM138.226 62.3873C138.225 62.3817 138.225 62.3761 138.225 62.3712C138.225 62.3761 138.225 62.3817 138.226 62.3873ZM138.222 62.3072C138.222 62.3022 138.222 62.2973 138.222 62.2923C138.222 62.2973 138.222 62.3022 138.222 62.3072ZM138.221 62.2551C138.221 62.2526 138.221 62.2482 138.221 62.2457C138.221 62.2482 138.221 62.2526 138.221 62.2551ZM138.217 62.1222C138.217 62.121 138.217 62.1173 138.217 62.116C138.217 62.1185 138.217 62.1197 138.217 62.1222ZM138.215 62.075C138.215 62.0726 138.215 62.0726 138.215 62.0701C138.215 62.0713 138.215 62.0726 138.215 62.075Z" fill="#559A7F"/>
<path d="M132.69 82.6602H128.724C128.909 82.2307 129.099 82.708 129.29 80.8334C129.321 81.0476 129.354 81.1369 129.387 81.1369C129.555 81.1369 129.723 78.7037 129.891 78.6285C130.286 77.3896 130.67 76.5913 131.003 74.0376C131.338 71.911 131.623 70.8334 131.824 70.3045C131.858 69.9625 131.888 69.6733 131.917 69.4299C132.062 69.1525 132.143 68.9743 132.143 68.7651C132.143 68.5417 132.13 68.4113 132.105 68.4113C132.068 68.4113 132.004 68.7074 131.917 69.4299C131.827 69.6019 131.714 69.8111 131.58 70.0892C131.222 71.8843 130.721 73.0916 130.133 73.3772C129.546 75.1891 128.873 76.6 128.177 77.6155C127.829 78.145 127.475 79.1022 127.122 79.7664C126.771 80.1698 126.419 80.2568 126.079 81.785C126.007 82.132 125.934 82.4219 125.862 82.6602H120.504C125.269 77.2698 128.459 70.528 129.375 63.109C129.6 62.8576 129.811 62.623 129.971 62.3076C130.056 62.3424 130.135 62.3591 130.207 62.3591C130.713 62.3591 130.823 61.4926 130.79 60.5993C130.934 60.1133 131.154 59.8632 131.297 59.4063C131.194 58.2375 131.585 58.5311 131.494 57.4454C131.41 56.3864 131.733 56.5435 131.781 55.9389C131.881 55.4845 131.672 54.1754 131.873 54.1053C131.813 53.2822 131.744 52.477 131.838 52.2064C131.853 52.2114 131.865 52.2145 131.877 52.2145C132.048 52.2145 131.993 51.6056 131.798 50.6472C131.808 50.654 131.815 50.6589 131.822 50.6589C131.958 50.6589 131.558 49.1673 131.552 48.8954C131.413 48.2312 131.09 47.1133 131.127 47.1133C131.13 47.1133 131.136 47.122 131.144 47.1375C131.133 47.1059 131.125 47.0903 131.119 47.0903C131.064 47.0903 131.226 48.4845 130.858 48.8371C130.69 49.1369 130.757 50.2747 130.438 50.4051C130.227 50.8439 130.058 51.5223 130.067 52.7911C130.065 54.022 129.415 53.4367 129.562 55.2058C129.536 55.2269 129.511 55.2573 129.49 55.2964C128.519 44.9209 123.113 35.7899 115.128 29.6912C115.144 29.6465 115.157 29.6018 115.17 29.5596C128.317 35.0189 137.654 47.4553 138.215 62.0705C138.215 62.073 138.215 62.073 138.215 62.0755C138.215 62.0885 138.217 62.1034 138.217 62.1164C138.217 62.1177 138.217 62.1214 138.217 62.1226C138.217 62.1636 138.22 62.2052 138.221 62.2462C138.221 62.2486 138.221 62.253 138.221 62.2555C138.221 62.2691 138.222 62.2797 138.222 62.2927C138.222 62.2977 138.222 62.3027 138.222 62.3076C138.223 62.3293 138.225 62.3511 138.225 62.3716C138.225 62.3765 138.225 62.3821 138.226 62.3877C138.226 62.397 138.226 62.4075 138.226 62.4175C138.226 62.4249 138.227 62.4311 138.227 62.438C138.227 62.4479 138.227 62.4597 138.227 62.4697C138.228 62.4771 138.228 62.4826 138.228 62.4901C138.228 62.5068 138.23 62.523 138.23 62.5398C138.23 62.5485 138.23 62.5578 138.231 62.5665C138.231 62.5745 138.231 62.5832 138.231 62.5919C138.231 62.6012 138.231 62.6099 138.232 62.6192C138.232 62.6279 138.232 62.6366 138.232 62.6447C138.232 62.6558 138.232 62.6651 138.233 62.6763C138.233 62.6838 138.233 62.6906 138.233 62.6968C138.233 62.7136 138.235 62.7297 138.235 62.7477C138.235 62.7527 138.235 62.7589 138.235 62.7645C138.235 62.7757 138.235 62.7887 138.235 62.8011C138.235 62.8067 138.235 62.8154 138.235 62.8216C138.235 62.8322 138.235 62.8445 138.235 62.8563C138.237 62.8625 138.237 62.8688 138.237 62.8756C138.237 62.8918 138.237 62.911 138.237 62.9265C138.237 62.9302 138.238 62.9364 138.238 62.9401C138.238 62.9519 138.238 62.9662 138.238 62.9799C138.238 62.9867 138.238 62.9929 138.238 63.0004C138.238 63.0122 138.238 63.0233 138.239 63.0351C138.239 63.0413 138.239 63.0488 138.239 63.0531C138.239 63.0717 138.239 63.0885 138.239 63.1065C138.239 63.109 138.239 63.1115 138.239 63.1152C138.239 63.1295 138.24 63.1443 138.24 63.1599C138.24 63.1654 138.24 63.1717 138.24 63.1779C138.24 63.1903 138.24 63.2021 138.24 63.2145C138.24 63.2214 138.24 63.2263 138.24 63.2337C138.24 63.2505 138.24 63.2685 138.24 63.2859C138.24 63.2865 138.24 63.2865 138.24 63.2884C138.24 63.3051 138.24 63.3232 138.241 63.3387C138.241 63.3449 138.241 63.3498 138.241 63.3554C138.241 63.3678 138.241 63.3834 138.241 63.3958C138.241 63.4014 138.241 63.4051 138.241 63.4113C138.241 63.4281 138.241 63.4473 138.241 63.4646C138.241 70.4963 136.212 77.0687 132.69 82.6602Z" fill="#FDD187"/>
<path d="M129.375 63.109C129.555 61.6546 129.648 60.1742 129.648 58.6739C129.648 57.5348 129.594 56.4082 129.49 55.2964C129.511 55.2573 129.535 55.2269 129.562 55.2058C129.414 53.4367 130.065 54.0221 130.067 52.7911C130.057 51.5224 130.227 50.8439 130.438 50.4051C130.756 50.2747 130.689 49.1369 130.858 48.8371C131.226 48.4845 131.064 47.0903 131.119 47.0903C131.125 47.0903 131.133 47.1059 131.144 47.1376C131.136 47.122 131.129 47.1133 131.127 47.1133C131.09 47.1133 131.413 48.2312 131.552 48.8954C131.558 49.1673 131.958 50.6589 131.822 50.6589C131.815 50.6589 131.808 50.654 131.798 50.6472C131.993 51.6056 132.048 52.2145 131.877 52.2145C131.864 52.2145 131.853 52.2114 131.838 52.2064C131.744 52.4771 131.813 53.2822 131.873 54.1053C131.671 54.1754 131.881 55.4846 131.781 55.9389C131.733 56.5435 131.41 56.3865 131.494 57.4454C131.585 58.5311 131.194 58.2375 131.296 59.4063C131.154 59.8632 130.934 60.1133 130.79 60.5993C130.823 61.4926 130.712 62.3592 130.206 62.3592C130.135 62.3592 130.056 62.3424 129.971 62.3076C129.81 62.623 129.599 62.8576 129.375 63.109Z" fill="#FBC368"/>
<path d="M128.724 82.6603H125.862C125.934 82.4219 126.007 82.1321 126.08 81.7851C126.419 80.2568 126.771 80.1699 127.122 79.7664C127.476 79.1022 127.829 78.1451 128.177 77.6156C128.873 76.6001 129.546 75.1892 130.134 73.3772C130.721 73.0917 131.222 71.8844 131.58 70.0892C131.714 69.8111 131.828 69.602 131.917 69.43C131.888 69.6733 131.858 69.9626 131.824 70.3046C131.623 70.8335 131.338 71.911 131.003 74.0377C130.67 76.5914 130.286 77.3896 129.891 78.6286C129.723 78.7037 129.555 81.137 129.387 81.137C129.354 81.137 129.322 81.0477 129.29 80.8335C129.099 82.7081 128.909 82.2308 128.724 82.6603ZM131.917 69.43C132.004 68.7075 132.068 68.4114 132.106 68.4114C132.13 68.4114 132.143 68.5417 132.143 68.7652C132.143 68.9744 132.062 69.1525 131.917 69.43Z" fill="#FBC061"/>
<path d="M82.3282 66.3242L82.2202 66.2106L79.1643 63.7215C78.525 63.2007 77.9905 62.5712 77.5877 61.8611L77.2239 61.2206C76.8577 60.7153 76.0489 60.8605 75.8918 61.4601L75.8335 62.0908C75.7515 62.9636 75.4915 63.8109 75.0675 64.5837L73.2096 67.9673L73.1668 68.0846C73.096 68.2839 73.0749 68.4825 73.1147 68.6749C73.3543 69.8456 75.6727 70.3863 78.2941 69.8823C80.916 69.377 82.8465 68.0182 82.6057 66.8463C82.5672 66.6557 82.4716 66.4806 82.3282 66.3242Z" fill="#683C2C"/>
<path d="M76.4124 62.2384C76.3727 62.6009 76.2764 64.0093 75.6998 65.2378C75.3609 65.9566 75.3354 66.8597 75.9195 66.8939C77.0257 66.9591 77.0772 64.2558 77.0337 63.7207C76.989 63.1862 76.5384 61.0838 76.4124 62.2384Z" fill="#9D705B"/>
<path d="M119.682 45.6039L119.679 45.5071L119.271 43.1073C119.185 42.6057 119.196 42.0931 119.304 41.5952L119.401 41.1452C119.439 40.7597 118.992 40.507 118.664 40.7305L118.37 41.0086C117.963 41.3922 117.482 41.6927 116.954 41.8938L114.643 42.769L114.572 42.8087C114.455 42.8739 114.361 42.9608 114.299 43.0688C113.919 43.7212 114.797 44.9 116.258 45.6995C117.721 46.4983 119.214 46.6169 119.594 45.9627C119.656 45.8565 119.683 45.7343 119.682 45.6039Z" fill="#683C2C"/>
<path d="M118.584 41.3081C118.413 41.4652 117.772 42.0989 116.98 42.4558C116.516 42.6644 116.122 43.084 116.387 43.3317C116.886 43.8022 118.051 42.5341 118.256 42.2622C118.46 41.9891 119.13 40.8078 118.584 41.3081Z" fill="#9D705B"/>
<path d="M89.9592 78.2484L89.8512 78.2304L87.1013 78.128C86.5272 78.1075 85.0343 78.1205 84.7649 78.1472C84.4949 78.1745 83.8835 78.4787 83.8282 79.2775C83.7711 80.0777 84.3528 80.2018 84.2956 79.681C84.2385 79.1602 84.4452 79.0976 84.4452 79.0976C84.7903 79.0287 85.066 79.5457 85.246 80.2782L85.7091 82.8822L85.7364 82.9635C85.7835 83.1013 85.8586 83.218 85.9654 83.3067C86.6054 83.8468 88.1051 83.1907 89.3124 81.8406C90.5197 80.4898 90.9797 78.9579 90.3385 78.4191C90.2336 78.3309 90.1051 78.2751 89.9592 78.2484Z" fill="#683C2C"/>
<path d="M84.4183 78.8288C84.9236 78.7965 85.6548 79.47 85.8764 80.3738C86.0055 80.9045 86.2687 81.2502 86.6014 81.0286C87.2327 80.6109 86.571 79.3365 85.941 79.002C85.4307 78.7419 84.8038 78.5085 84.4183 78.8288Z" fill="#9D705B"/>
<path d="M117.761 82.8119C116.947 81.9038 116.396 81.5357 115.972 81.5909C116.201 81.5295 112.545 78.6114 110.703 83.1049C110.702 83.27 110.288 80.0391 112.325 78.8479C112.309 78.234 116.71 79.6604 117.761 82.8119Z" fill="#824734"/>
<path d="M111.98 77.7337C112.096 78.1049 112.211 78.4761 112.325 78.848C114.368 78.7685 116.361 80.3824 117.761 82.812C117.786 82.4892 117.807 82.1615 117.824 81.8318C118.127 81.3626 113.613 76.3576 111.98 77.7337Z" fill="#683C2C"/>
<path d="M110.021 82.5138C110.251 82.6987 110.479 82.8955 110.703 83.1053C110.978 81.466 111.522 79.9787 112.325 78.8483C112.211 78.4765 112.096 78.1053 111.98 77.7341C111.938 77.5522 109.929 79.8216 110.021 82.5138Z" fill="#442B21"/>
<path d="M122.623 64.2507C123.477 64.4202 124.011 64.581 124.412 64.2936C124.412 64.2936 127.421 66.2781 130.207 66.0546C130.207 66.0546 129.494 68.3731 127.719 68.1024C127.719 68.1024 124.151 65.7715 122.623 64.2507Z" fill="#824734"/>
<path d="M127.839 69.54L127.719 68.1024L122.623 64.2507L122.83 65.4922C122.83 65.4922 126.716 69.1253 127.839 69.54Z" fill="#683C2C"/>
<path d="M130.498 67.5298L130.207 66.0549L127.719 68.1027L127.839 69.5403C127.839 69.5403 129.644 69.0897 130.498 67.5298Z" fill="#442B21"/>
<path d="M83.3075 40.9937C83.837 42.021 84.3975 42.458 84.9164 42.6014C84.9369 42.5145 85.4999 43.3947 86.9388 43.6312C88.2783 43.895 90.4931 43.5163 91.5266 41.5461C91.5421 41.3438 91.9909 43.7895 88.9456 44.7628C89.0399 44.751 87.346 44.9782 85.9462 44.2432C84.4943 43.6206 83.3354 42.0352 83.3075 40.9937Z" fill="#824734"/>
<path d="M89.1955 45.4288C89.1111 45.2078 89.0279 44.985 88.9454 44.7628C86.1223 44.9323 83.8268 43.214 83.3072 40.9937C83.1514 41.1389 83 41.2898 82.8529 41.448C82.856 41.3419 83.1371 43.0365 84.5425 44.1042C85.8082 45.2606 88.198 45.7907 89.1955 45.4288Z" fill="#683C2C"/>
<path d="M92.3274 41.6287C92.0555 41.6163 91.7867 41.5884 91.526 41.5461C91.1654 42.8503 90.2653 44.0185 88.945 44.7628C89.0276 44.985 89.1107 45.2078 89.1951 45.4288C89.2498 45.6479 92.4664 43.7597 92.3274 41.6287Z" fill="#442B21"/>
<path d="M104.272 57.4838L104.409 57.4813L107.789 56.9941C108.496 56.8923 110.313 56.5428 110.636 56.4503C110.96 56.3566 111.633 55.8506 111.514 54.8612C111.393 53.8724 110.653 53.8494 110.846 54.4732C111.04 55.0971 110.802 55.2206 110.802 55.2206C110.398 55.3801 109.938 54.8109 109.546 53.9574L108.364 50.8804L108.312 50.7873C108.221 50.6303 108.101 50.5049 107.951 50.4199C107.042 49.904 105.367 51.0387 104.213 52.9549C103.058 54.8711 102.859 56.8438 103.77 57.3603C103.919 57.4434 104.087 57.4838 104.272 57.4838Z" fill="#683C2C"/>
<path d="M97.9264 37.1364C99.8749 36.1308 101.123 35.5666 101.846 34.6609C101.846 34.6609 109.441 32.7509 115.396 28.551C115.396 28.551 115.051 32.294 111.04 34.4821C111.04 34.4821 102.051 36.7714 97.9264 37.1364Z" fill="#824734"/>
<path d="M112.054 36.0062L111.04 34.4817L97.9264 37.136L99.0251 38.3079C99.0251 38.3079 109.391 37.1025 112.054 36.0062Z" fill="#683C2C"/>
<path d="M116.799 29.8788L115.395 28.551L111.04 34.4821L112.054 36.0067C112.054 36.0067 115.754 32.9254 116.799 29.8788Z" fill="#442B21"/>
<path d="M94.9157 32.9524C96.5259 33.2597 98.9622 33.2237 99.6631 32.6421C100.364 32.0617 100.212 33.3683 99.6823 33.6135C99.1522 33.8581 95.5612 34.0319 94.8679 33.5279C94.1751 33.0226 94.9157 32.9524 94.9157 32.9524Z" fill="#90B043"/>
<path d="M97.4398 32.9483C95.9166 31.1742 96.919 28.4015 92.4268 25.5957C87.9345 22.79 81.1034 25.0513 79.6478 23.0786C78.6869 28.9514 82.7111 34.412 85.703 35.8434C89.8489 37.8273 98.7862 34.5156 97.4398 32.9483Z" fill="#90B043"/>
<path d="M96.5305 33.455C96.5305 33.455 96.2419 33.4165 95.7354 33.36C95.484 33.3246 95.1792 33.2812 94.8285 33.2315C94.4821 33.1701 94.091 33.0999 93.6646 33.0236C93.2413 32.9317 92.7807 32.8448 92.3021 32.7194C91.8198 32.6089 91.3232 32.4543 90.8055 32.3066C90.5479 32.2309 90.2922 32.1341 90.0296 32.0465C89.8993 32.0025 89.7677 31.9566 89.6354 31.9112C89.5051 31.861 89.3741 31.8088 89.2437 31.7567C88.9812 31.6518 88.7142 31.5549 88.4529 31.4401C88.1928 31.3203 87.9334 31.1992 87.6733 31.08C87.4088 30.9689 87.1618 30.82 86.9073 30.6896C86.6571 30.553 86.3983 30.432 86.1612 30.275C85.9197 30.126 85.6789 29.9782 85.4418 29.8336C85.2053 29.6884 84.9861 29.517 84.7627 29.3631C84.3102 29.062 83.9092 28.715 83.5175 28.401C83.3182 28.2489 83.1426 28.0757 82.97 27.9112C82.7956 27.7486 82.6274 27.5909 82.466 27.4388C82.299 27.2948 82.1637 27.1241 82.0234 26.977C81.8843 26.8268 81.7534 26.6859 81.6292 26.5531C81.3741 26.2942 81.1854 26.0291 81.0203 25.8224C80.6888 25.4078 80.5001 25.1707 80.5001 25.1707C80.5001 25.1707 80.6658 25.4308 80.9657 25.8802C81.1177 26.103 81.289 26.3867 81.5287 26.6685C81.6435 26.8138 81.767 26.9683 81.8961 27.1316C82.0283 27.2924 82.1587 27.4718 82.3194 27.6282C82.474 27.7921 82.636 27.9621 82.8042 28.1378C82.9706 28.3141 83.1451 28.4965 83.3412 28.6598C83.7242 28.9969 84.1184 29.3706 84.5715 29.6847C84.795 29.8467 85.0141 30.0267 85.2512 30.18C85.4889 30.3314 85.7304 30.486 85.9737 30.6412C86.2133 30.802 86.474 30.9274 86.7279 31.0689C86.9855 31.203 87.2344 31.3569 87.5032 31.4705C87.7676 31.5903 88.0327 31.7107 88.2959 31.8293C88.5616 31.9429 88.8328 32.0397 89.0985 32.144C89.2326 32.1943 89.366 32.2452 89.4976 32.2961C89.6329 32.3383 89.7677 32.3805 89.9005 32.4215C90.1686 32.504 90.43 32.5947 90.6919 32.6648C91.2189 32.8038 91.7279 32.9355 92.2195 33.0261C92.7068 33.1347 93.1786 33.1943 93.61 33.2607C94.0426 33.319 94.443 33.3551 94.7987 33.3861C95.155 33.4066 95.4654 33.4252 95.7217 33.4407C96.2357 33.4544 96.5305 33.455 96.5305 33.455Z" fill="#447538"/>
<path d="M92.8035 33.0503L92.7476 33.0248L92.6775 33.0031L92.5763 32.9888C92.4211 32.9789 92.1939 33.0273 91.9376 33.1335C91.6787 33.2353 91.3888 33.388 91.0853 33.5618C90.9344 33.6499 90.7768 33.7368 90.621 33.8349C90.4652 33.928 90.3069 34.0236 90.1473 34.1192C89.9903 34.2154 89.8326 34.3123 89.6756 34.3992C89.5198 34.4879 89.3677 34.5785 89.2175 34.6567C89.0679 34.7331 88.9226 34.8113 88.7836 34.8759C88.6458 34.9398 88.5142 35 88.3907 35.0485C88.2678 35.0969 88.1535 35.1378 88.0524 35.1694L87.7861 35.2458C87.6377 35.2818 87.5508 35.2986 87.5508 35.2986L87.611 35.3073L87.7811 35.329L88.0548 35.3278C88.161 35.3216 88.2821 35.3098 88.4136 35.2818C88.6762 35.2322 88.9828 35.1341 89.3013 34.9963C89.4596 34.9236 89.6241 34.8529 89.7854 34.7623C89.9493 34.6754 90.1107 34.5816 90.2727 34.486C90.4323 34.3861 90.5918 34.2843 90.7495 34.1856C90.9053 34.0863 91.0555 33.9789 91.2013 33.8821C91.4931 33.6841 91.7613 33.4966 91.9947 33.3526C92.2281 33.2073 92.4273 33.1086 92.5719 33.072L92.7414 33.0466L92.8035 33.0503Z" fill="#447538"/>
<path d="M88.2405 31.579L88.1921 31.5548L88.0406 31.5127C87.9053 31.4946 87.7011 31.5176 87.4677 31.5933C87.233 31.6647 86.9686 31.7808 86.6918 31.9149C86.554 31.9838 86.4112 32.0502 86.2684 32.1277C86.1263 32.2004 85.9823 32.2755 85.837 32.3506C85.693 32.4276 85.5508 32.5027 85.4074 32.5716C85.2665 32.6393 85.1287 32.7118 84.9922 32.7721C84.8569 32.8317 84.7259 32.8931 84.6005 32.9422C84.4757 32.9924 84.3559 33.0378 84.2461 33.0756C84.1349 33.1116 84.0332 33.1458 83.9413 33.17L83.7035 33.2295C83.5695 33.2556 83.4931 33.2711 83.4931 33.2711L83.5452 33.2836L83.6961 33.3128C83.8283 33.3308 84.0226 33.3401 84.2572 33.3128C84.4925 33.2873 84.7681 33.2215 85.0561 33.1203C85.2001 33.0669 85.3497 33.0142 85.4975 32.9446C85.6446 32.8776 85.7935 32.805 85.9425 32.7299C86.0872 32.6504 86.2324 32.5691 86.3764 32.4903C86.5186 32.4121 86.6551 32.3233 86.7898 32.2463C87.0555 32.0855 87.2994 31.9341 87.5124 31.8187L87.8035 31.6734L88.0338 31.5958L88.1846 31.5765L88.2405 31.579Z" fill="#447538"/>
<path d="M84.0976 29.0829L84.0728 29.0574L83.9952 28.9972L83.8418 28.9501L83.637 28.9382C83.4887 28.9413 83.3167 28.9699 83.1392 29.0115C82.9592 29.053 82.773 29.1033 82.588 29.1592L82.3136 29.2405L82.0517 29.3162L81.8059 29.3802L81.5849 29.4286L81.3962 29.459L81.2478 29.4745L81.1131 29.4882L81.2255 29.5571L81.3645 29.6186L81.557 29.6695L81.7916 29.6924L82.0572 29.68L82.3403 29.6378L82.629 29.5658C82.8189 29.5087 83.0076 29.4373 83.1789 29.3672C83.3496 29.297 83.5092 29.2306 83.6445 29.1747L83.8288 29.1095L83.966 29.0773L84.0628 29.0798L84.0976 29.0829Z" fill="#447538"/>
<path d="M93.3309 33.1172L93.2769 33.07L93.1559 32.9105C93.064 32.7596 92.9821 32.507 92.9082 32.1886C92.8331 31.872 92.7667 31.489 92.6891 31.0793C92.6494 30.8738 92.614 30.6584 92.568 30.4449C92.5221 30.2295 92.4762 30.0104 92.4296 29.7919C92.3762 29.5753 92.3216 29.3592 92.2614 29.1488C92.2049 28.9371 92.1323 28.7367 92.064 28.5418C91.9231 28.155 91.7599 27.8099 91.5916 27.5417C91.5097 27.4039 91.4241 27.2891 91.3452 27.191L91.1273 26.9545L90.974 26.8217L90.9181 26.7764L90.9597 26.8397L91.0733 27.0147C91.1199 27.0923 91.1745 27.1879 91.2329 27.299C91.2906 27.4126 91.3514 27.5418 91.4129 27.6858C91.4743 27.8298 91.5339 27.9917 91.5954 28.1637C91.6556 28.335 91.7102 28.5225 91.7704 28.7137C91.8263 28.908 91.8766 29.1122 91.9324 29.3177C91.9871 29.5244 92.0367 29.7385 92.0864 29.9527C92.1354 30.1674 92.1863 30.3816 92.2359 30.5933C92.2819 30.8056 92.3378 31.0129 92.3862 31.2146C92.4886 31.6168 92.5935 31.9918 92.7158 32.2978C92.8331 32.6057 92.9709 32.844 93.1013 32.9713L93.1925 33.0483L93.267 33.0905L93.3309 33.1172Z" fill="#447538"/>
<path d="M88.8329 31.7216L88.7907 31.667L88.6964 31.4988C88.6597 31.4243 88.6306 31.3225 88.5983 31.2064C88.5691 31.0878 88.543 30.9525 88.5182 30.8004C88.4716 30.4981 88.4338 30.1338 88.3903 29.744C88.3674 29.5491 88.3494 29.3448 88.3202 29.1394C88.2929 28.9352 88.2637 28.726 88.2333 28.5168C88.1979 28.3101 88.1607 28.1033 88.1185 27.9016C88.0787 27.6986 88.0241 27.505 87.9719 27.3176C87.8658 26.9445 87.7348 26.6093 87.597 26.343C87.5306 26.2089 87.4617 26.0922 87.3953 25.9941L87.2165 25.7483L87.0886 25.6056L87.0408 25.5571C87.0408 25.5571 87.0862 25.6465 87.1576 25.8029C87.1923 25.8818 87.2333 25.9768 87.2767 26.0891C87.322 26.2008 87.3655 26.3299 87.4114 26.4714C87.4574 26.613 87.5014 26.7688 87.5455 26.9346C87.5914 27.1003 87.6287 27.2803 87.6709 27.4653C87.7119 27.6503 87.7448 27.8458 87.7826 28.0425C87.8199 28.2399 87.8528 28.4441 87.8838 28.6484C87.9161 28.8526 87.949 29.0568 87.9819 29.2592C88.0117 29.4621 88.0495 29.6589 88.0824 29.8526C88.1513 30.2381 88.2271 30.5975 88.3227 30.8936C88.3661 31.0419 88.4207 31.1735 88.4723 31.2859C88.5269 31.3976 88.5828 31.4895 88.6386 31.5534L88.7156 31.6366L88.777 31.6863L88.8329 31.7216Z" fill="#447538"/>
<path d="M84.7047 29.4102L84.6724 29.3897L84.601 29.3158C84.5513 29.2426 84.5197 29.1128 84.5091 28.9384C84.4967 28.7671 84.4992 28.5554 84.4967 28.3257C84.4955 28.096 84.493 27.8472 84.4713 27.5982C84.4595 27.4735 84.4477 27.3487 84.4254 27.2283C84.4086 27.1048 84.3769 26.9887 84.3478 26.8763C84.2845 26.6516 84.192 26.4549 84.0858 26.3146L83.9275 26.1414L83.7835 26.0427L83.683 25.9998L83.647 25.9868L83.7363 26.1116L83.8226 26.2587L83.9095 26.4629L83.9852 26.7168L84.0436 27.0141C84.0765 27.2258 84.0976 27.4579 84.1187 27.6944C84.138 27.9328 84.1572 28.1736 84.1851 28.4033C84.2124 28.6317 84.2491 28.8466 84.3105 29.0247C84.3664 29.2035 84.462 29.34 84.5551 29.3847L84.6662 29.4114L84.7047 29.4102Z" fill="#447538"/>
<path d="M109.197 26.7808C109.732 31.2861 105.932 35.4102 100.711 35.9925C95.4916 36.5754 90.8262 33.3959 90.2924 28.8919C89.7579 24.3866 93.5562 20.2631 98.7772 19.6802C103.998 19.0974 108.663 22.2767 109.197 26.7808Z" fill="#E31E24"/>
<path d="M89.3717 16.9995C89.3717 16.9995 95.6616 18.5805 98.1433 24.0951L99.4965 23.3266C99.4965 23.3266 97.5765 18.0386 92.1321 16.0789C89.4393 15.11 88.6709 17.3434 89.3717 16.9995Z" fill="#A62320"/>
<path d="M99.4783 36.0616C99.4758 36.0616 99.4739 36.0616 99.4714 36.0616C99.4739 36.0616 99.4758 36.0616 99.4783 36.0616ZM99.4795 36.0616C99.6589 36.0616 99.8377 36.0567 100.018 36.0486C99.8377 36.0567 99.6589 36.0616 99.4795 36.0616Z" fill="#AF2727"/>
<path d="M100.017 36.0486C100.247 36.0374 100.479 36.0182 100.711 35.9928C100.721 35.9915 100.731 35.9903 100.741 35.989C100.731 35.9903 100.721 35.9915 100.711 35.9928C100.479 36.0182 100.247 36.0374 100.017 36.0486ZM100.744 35.989C100.753 35.9878 100.762 35.9866 100.771 35.9859C100.762 35.9866 100.753 35.9878 100.744 35.989ZM100.775 35.9859C100.784 35.9841 100.793 35.9835 100.803 35.9822C100.793 35.9835 100.784 35.9841 100.775 35.9859ZM100.805 35.9822C100.815 35.981 100.823 35.9797 100.833 35.9785C100.823 35.9797 100.815 35.981 100.805 35.9822ZM100.834 35.9785C100.844 35.9772 100.854 35.976 100.863 35.9748C100.854 35.976 100.844 35.9772 100.834 35.9785ZM100.864 35.9748C100.874 35.9735 100.884 35.9723 100.893 35.971C100.884 35.9723 100.874 35.9735 100.864 35.9748ZM100.896 35.971C100.905 35.9685 100.914 35.9673 100.923 35.9661C100.915 35.9673 100.904 35.9685 100.896 35.971ZM100.925 35.9661C100.934 35.9648 100.946 35.9636 100.955 35.963C100.946 35.9636 100.934 35.9648 100.925 35.9661ZM100.955 35.963C101.41 35.9021 101.853 35.814 102.283 35.7016C101.853 35.814 101.41 35.9021 100.955 35.963ZM102.283 35.7016C102.293 35.6992 102.302 35.6967 102.311 35.6942C102.302 35.6967 102.293 35.6992 102.283 35.7016ZM102.312 35.693C102.321 35.6917 102.329 35.6898 102.338 35.6867C102.329 35.6898 102.321 35.6917 102.312 35.693ZM102.343 35.6861C102.35 35.6836 102.357 35.6818 102.365 35.6799C102.357 35.6818 102.35 35.6836 102.343 35.6861ZM102.372 35.6775C102.379 35.6762 102.386 35.6737 102.394 35.6712C102.386 35.6737 102.379 35.6762 102.372 35.6775ZM102.4 35.67C102.407 35.6694 102.414 35.6669 102.42 35.6638C102.413 35.6669 102.407 35.6694 102.4 35.67ZM102.429 35.6631C102.435 35.6607 102.441 35.6588 102.447 35.657C102.441 35.6588 102.435 35.6607 102.429 35.6631ZM102.456 35.6545C102.463 35.6532 102.467 35.652 102.472 35.6507C102.467 35.652 102.461 35.6532 102.456 35.6545ZM102.486 35.6464C102.489 35.6464 102.494 35.6445 102.497 35.6433C102.492 35.6445 102.489 35.6464 102.486 35.6464ZM102.513 35.6384C102.515 35.6377 102.519 35.6377 102.52 35.6365C102.519 35.6377 102.515 35.6377 102.513 35.6384Z" fill="#662724"/>
<path d="M90.3173 29.0886C90.3155 29.0768 90.313 29.0644 90.3124 29.0526C90.313 29.0644 90.3155 29.0768 90.3173 29.0886ZM90.3 28.9633C90.2962 28.9384 90.2944 28.9148 90.2919 28.8919C90.2348 28.4164 90.2261 27.9478 90.2627 27.4859C90.2261 27.9478 90.2348 28.4164 90.2919 28.8919C90.2944 28.9148 90.2962 28.9384 90.3 28.9633ZM90.2634 27.4797C90.2634 27.4735 90.2652 27.4691 90.2652 27.4642C90.2652 27.4691 90.2634 27.4747 90.2634 27.4797ZM90.2658 27.4468C90.2658 27.4444 90.2658 27.4424 90.2677 27.4387C90.2658 27.4424 90.2658 27.4444 90.2658 27.4468Z" fill="#6F2F2B"/>
<path d="M99.4775 36.062C99.475 36.062 99.4731 36.062 99.4707 36.062C94.8456 36.0589 90.9108 33.1321 90.3173 29.0893C90.3155 29.0775 90.313 29.0651 90.3124 29.0533C90.3086 29.0229 90.3037 28.9937 90.3 28.9639C90.2962 28.9391 90.2944 28.9155 90.2919 28.8925C90.2348 28.417 90.2261 27.9484 90.2627 27.4866C90.2633 27.4841 90.2634 27.4828 90.2634 27.4803C90.2634 27.4754 90.2652 27.4698 90.2652 27.4648C90.2652 27.4586 90.2658 27.4537 90.2658 27.4475C90.2658 27.445 90.2658 27.4431 90.2677 27.4394C90.3329 26.674 90.5216 25.9291 90.8164 25.2246C90.822 28.1936 92.2422 31.1687 96.9281 31.7634C97.6743 31.8578 98.3968 31.9025 99.0957 31.9025C103.685 31.9025 107.242 29.9645 109.239 27.3953C109.36 31.1216 106.558 34.481 102.52 35.6368C102.518 35.638 102.515 35.6381 102.513 35.6387C102.507 35.6405 102.502 35.6411 102.497 35.6436C102.494 35.6448 102.489 35.6467 102.486 35.6467C102.481 35.6486 102.477 35.6486 102.472 35.6511C102.467 35.6523 102.463 35.6536 102.456 35.6548C102.454 35.6561 102.45 35.6573 102.446 35.6573C102.441 35.6592 102.435 35.661 102.428 35.6635C102.426 35.6635 102.423 35.6641 102.42 35.6641C102.414 35.6672 102.407 35.6697 102.4 35.6703C102.397 35.6716 102.396 35.6715 102.394 35.6715C102.386 35.674 102.379 35.6765 102.372 35.6778C102.37 35.679 102.367 35.679 102.365 35.6803C102.357 35.6821 102.35 35.684 102.343 35.6865C102.342 35.6865 102.339 35.6871 102.338 35.6871C102.329 35.6902 102.321 35.6921 102.312 35.6933C102.312 35.6945 102.311 35.6945 102.311 35.6945C102.302 35.697 102.293 35.6995 102.283 35.702C101.853 35.8143 101.41 35.9025 100.955 35.9633C100.946 35.9639 100.934 35.9651 100.925 35.9664C100.925 35.9664 100.925 35.9664 100.923 35.9664C100.914 35.9676 100.905 35.9689 100.896 35.9714C100.895 35.9714 100.895 35.9714 100.893 35.9714C100.883 35.9726 100.874 35.9739 100.864 35.9751H100.863C100.854 35.9764 100.844 35.9776 100.834 35.9788H100.833C100.823 35.9801 100.815 35.9813 100.805 35.9826C100.804 35.9826 100.803 35.9826 100.803 35.9826C100.793 35.9838 100.784 35.9844 100.775 35.9863C100.774 35.9863 100.772 35.9863 100.771 35.9863C100.762 35.9869 100.753 35.9881 100.744 35.9894C100.744 35.9894 100.742 35.9894 100.741 35.9894C100.731 35.9906 100.721 35.9919 100.711 35.9931C100.479 36.0186 100.247 36.0378 100.017 36.049C99.8369 36.057 99.6582 36.062 99.4788 36.062H99.4775Z" fill="#AE2523"/>
<path d="M95.2202 27.3746C95.0508 27.3746 94.8919 27.3343 94.7596 27.2337C94.1035 26.7365 93.0241 25.4603 93.9186 25.001L94.3959 25.0246C95.0756 26.0413 96.4704 26.1828 96.6007 26.4864C96.705 26.7285 95.8881 27.3746 95.2202 27.3746Z" fill="#FCE4D9"/>
<path d="M96.8068 23.7326C97.0589 22.9238 98.2159 23.2876 99.0402 23.3969C99.8639 23.5042 100.598 22.8115 100.84 22.6576C101.084 22.5055 103.151 24.4055 100.618 24.9635C98.0855 25.5191 96.3469 25.1988 96.8068 23.7326Z" fill="#6D262A"/>
<path d="M62.8207 87.4009L72.5098 140.502C72.691 141.492 73.578 142.213 74.6153 142.213H129.539C130.576 142.213 131.464 141.492 131.645 140.502L141.334 87.4009H62.8207Z" fill="#C4DCDC"/>
<path d="M141.391 82.6597H62.7634C61.4133 82.6597 60.3202 83.7211 60.3202 85.0303C60.3202 86.3394 61.4133 87.4008 62.7634 87.4008H141.391C142.74 87.4008 143.834 86.3394 143.834 85.0303C143.834 83.7211 142.74 82.6597 141.391 82.6597Z" fill="#FEFEFE"/>
<path d="M141.334 87.4012H62.8207V87.3987H141.334V87.4012Z" fill="#F0F0F0"/>
</svg>
