<svg viewBox="0 0 1920 994" fill="none" xmlns="http://www.w3.org/2000/svg">

 <g>
  <title>background</title>
  <rect fill="none" id="canvas_background" height="402" width="582" y="-1" x="-1"/>
 </g>
 <g>
  <title>Layer 1</title>
  <path id="svg_1" fill="#DDF8CD" d="m447.534,15.0081c-210.98,20.0281 -386.2645,16.6901 -447.534,0l0,703.5279c103.226,10.014 307,31.293 431.55,13.769c118.906,-16.73 329.657,-36.301 467.513,-13.769c137.857,22.531 398.087,28.788 543.937,-12.52c116.68,-33.046 354.46,-13.769 477,0l0,-686.6257c-87.91,-4.5898 -302.24,-29.24191 -447.53,-15.02111c-153.47,15.02111 -217.47,49.42421 -401.59,31.91881c-162.737,-15.4733 -359.621,-46.3151 -623.346,-21.2799z"/>
  <g id="svg_91">
   <path id="svg_92" fill="#ADEDB3" d="m1049.333312,158.922321c-28,-180.0005 237.501,-125.58938 504,-125.58896c266.499,0.00042 375.5,-2.52024 375.5,125.58796l0,426.412c0,43.052 -118.609,98.056 -211.5,52c-112.073,-55.567 -322,198 -386,28c-64,-170 -100,38 -266.0001,-154c-165.9998,-192 12,-172.411 -15.9999,-352.411z"/>
  </g>
  <g id="svg_2">
   <path id="svg_3" fill="#87C595" d="m488.501,688c-77.039,0 -139.501,-4.539 -139.501,-10.135c0,-3.811 28.932,-7.132 71.703,-8.865c36.98,3.253 92.84,5.327 155.336,5.327c14.245,0 28.141,-0.108 41.549,-0.312c6.711,1.186 10.412,2.486 10.412,3.85c0,5.596 -62.454,10.135 -139.499,10.135z"/>
   <path id="svg_4" fill="#F9C9B7" d="m415.198,557.577c-1.085,-0.022 -13.198,9.423 -13.198,9.423c0,0 16.097,-14.198 15.356,-28.471c-0.743,-14.267 5.879,-9.437 12.641,-5.116c4.018,2.561 3.003,12.342 4.373,16.968c1.045,3.531 4.133,7.978 3.56,11.772c-1.167,7.691 -7.057,-1.054 -10.975,-3.039c-4.274,-2.159 -7.752,-1.471 -11.757,-1.537z"/>
   <path id="svg_5" fill="#F9C9B7" d="m419.101,543c-7.02,-7.287 -13.003,-21.756 -10.534,-31.771c2.516,-10.252 9.391,-12.542 18.956,-8.013c9.392,4.47 26.294,28.637 11.886,34.806c-3.663,1.562 -8.081,0.878 -11.346,3.391l-8.962,1.587z"/>
   <path id="svg_6" fill="#F9C9B7" d="m438,513l8,7.817l-6.026,4.183l-1.974,-12z"/>
   <path id="svg_7" fill="#7B5D7B" d="m393.095,634c0,0 -18.142,39.884 14.043,40.833c32.184,0.952 81.524,-1.208 90.713,-0.893c9.191,0.317 71.072,4.06 71.072,4.06l14.066,-18.8l0.011,-0.564l-0.529,-0.186c-3.814,1.151 -14.5,4.83 -18.347,10.859l-60.455,-15.245l-110.574,-20.064z"/>
   <path id="svg_8" fill="#0B1238" d="m572.182,662.777c-1.915,6.068 -6.874,14.315 -6.874,14.315l-0.308,0.538c2.869,0.231 4.572,0.37 4.572,0.37l14.391,-19.223l0.037,-0.531l-0.471,-0.246c-1.991,0.209 -6.436,1.018 -10.541,4.166l-0.806,0.611z"/>
   <path id="svg_9" fill="#61455F" d="m413.814,640.449c0,0 85.595,-35.449 92.186,-35.449c6.596,0 45.288,65.571 45.288,65.571c0,0 12.659,1.414 14.712,6.429l-25.78,-2.193c0,0 -1.729,-4.848 -6.225,-9.883c-12.603,-14.122 -24.119,-18.174 -31.976,-30.865l-60.653,25.53c0,0 -34.001,-6.588 -27.552,-19.14z"/>
   <path id="svg_10" fill="#EA5A63" d="m418.816,549c0,0 11.36,5.66 17.042,11.797c5.681,6.13 3.866,12.781 3.866,21.35c0,8.571 -0.08,10.733 -3.392,21.115c-3.312,10.378 -8.573,35.152 -8.573,35.152c0,0 -28.043,2.754 -34.96,1.004c-6.916,-1.748 -11.862,-75.32 26.017,-90.418z"/>
   <path id="svg_11" fill="#61455F" d="m425.8,517l-10.8,9.502l17.18,19.498l9.82,-9.499l-16.2,-19.501z"/>
   <path id="svg_12" fill="#F9C9B7" d="m415.548,553.739c-8.056,6.128 -5.018,17.575 6.024,42.06c11.04,24.485 21.631,25.231 24.657,23.738c22.696,-17.927 -12.129,-70.393 -6.304,-74.441c5.824,-4.044 -4.744,-15.009 -1.515,-12.946c0,0 -0.47,-2.08 -2.518,-3.486c-2.051,-1.404 0.595,-6.979 -9.587,3.984l13.871,65.974c0,0 -3.5,-16.42 -5.271,-23.666c-3.864,-15.833 -13.119,-25.963 -19.357,-21.217z"/>
   <path id="svg_13" fill="#2E3054" d="m539,671.789c0,3.278 2.42,4.37 2.42,4.37l24.07,1.841l0.499,-0.255l0.011,-0.569c-2.307,-4.014 -8.774,-5.529 -12.267,-6.176c-5.121,3.227 -14.733,0.789 -14.733,0.789z"/>
   <path id="svg_14" fill="#BA3A29" d="m421.101,518.916c-6.095,-3.181 -2.786,5.493 -2.563,6.956c0.475,3.11 -0.248,6.062 -2.904,9.211c-6.218,7.372 -11.099,-0.748 -13.386,-7.597c-5.11,-15.282 6.228,-29.93 20.301,-31.454c-0.022,1.861 0.192,3.514 0.673,5.192c5.568,-2.319 16.245,-12.821 17.719,0.099c1.055,9.217 -12.222,9.59 -16.785,15.456l-3.055,2.137z"/>
   <path id="svg_15" fill="#61455F" d="m442.42,558.417c-6.035,1.682 -9.268,1.048 -10.678,0.492l8.433,39.852c0,0 -3.5,-16.314 -5.271,-23.513c-3.864,-15.73 -13.118,-25.795 -19.356,-21.08c-8.056,6.089 -5.018,17.462 6.024,41.788c11.039,24.326 21.63,25.067 24.656,23.584c16.358,-12.837 2.84,-43.492 -3.808,-61.123z"/>
   <path id="svg_16" fill="#61455F" d="m436.169,559.582c-2.039,0.045 -3.393,-0.274 -4.169,-0.582l4.174,19.859c3.81,14.225 7.669,27.141 7.669,27.141c3.844,-18.5 -2.712,-36.325 -7.674,-46.418z"/>
   <path id="svg_17" fill="#F7C3CD" d="m704.713,581.425l-0.193,-12.352c0.002,0 0.002,0.002 0.002,0.004l0.193,12.345c0,0 -0.002,0.001 -0.002,0.003z"/>
   <path id="svg_18" fill="#F3C5CF" d="m625,468.5c0,17.949 -14.55,32.5 -32.5,32.5c-17.949,0 -32.5,-14.551 -32.5,-32.5c0,-17.949 14.551,-32.5 32.5,-32.5c17.95,0 32.5,14.551 32.5,32.5z"/>
   <path id="svg_19" fill="white" d="m601.58,467l5.789,-3.518c0.128,0.414 0.308,0.819 0.561,1.201c1.468,2.171 4.512,2.801 6.804,1.411c2.286,-1.39 2.955,-4.28 1.487,-6.452c-1.185,-1.755 -3.399,-2.501 -5.412,-1.993c1.328,-1.522 1.536,-3.745 0.356,-5.497c-1.468,-2.174 -4.511,-2.804 -6.806,-1.414c-2.286,1.393 -2.953,4.278 -1.485,6.455c0.256,0.38 0.567,0.702 0.909,0.984l-5.783,3.517l3.58,5.306z"/>
   <path id="svg_20" fill="#BA5C44" d="m599.412,461.533c-5.615,-2.479 -16.886,-1.953 -22.473,1.589c-6.843,4.339 -8.991,13.116 -4.79,19.606c4.196,6.485 13.15,8.223 19.997,3.884c5.584,-3.542 10.782,-13.455 10.854,-19.535l-3.588,-5.544z"/>
   <path id="svg_21" fill="#F5D1D9" d="m570.002,476c0,-0.003 0,-0.006 0,-0.009c0,0.003 0,0.006 0,0.009zm-0.002,-0.073c0,-0.005 0,-0.011 0,-0.018c0,0.007 0,0.013 0,0.018zm0,-0.079c0.002,-0.008 0.002,-0.014 0.002,-0.023c0,0.009 0,0.017 -0.002,0.023zm0.002,-0.078c0,-0.008 0,-0.021 0,-0.029c0,0.008 0,0.021 0,0.029zm0,-0.082c0,-0.014 0,-0.029 0,-0.044c0,0.015 0,0.03 0,0.044zm0.004,-0.084c0,-0.027 0,-0.05 0,-0.076c0,0.026 0,0.049 0,0.076zm0,-0.102c0.002,-0.02 0.002,-0.038 0.002,-0.058c0,0.02 0,0.038 -0.002,0.058zm0.002,-0.085c0,-0.019 0.003,-0.038 0.003,-0.057c0,0.019 -0.003,0.038 -0.003,0.057zm0.003,-0.08c0.003,-0.024 0.003,-0.044 0.003,-0.068c0,0.024 0,0.044 -0.003,0.068zm0.003,-0.082c0.003,-0.027 0.003,-0.05 0.005,-0.073c-0.002,0.023 -0.002,0.046 -0.005,0.073zm0.005,-0.085c0.006,-0.117 0.012,-0.233 0.021,-0.346c-0.009,0.113 -0.015,0.229 -0.021,0.346zm0.021,-0.346c0.003,-0.03 0.005,-0.059 0.008,-0.087c-0.003,0.028 -0.005,0.057 -0.008,0.087zm0.008,-0.091c0.003,-0.029 0.003,-0.055 0.006,-0.084c-0.003,0.029 -0.003,0.055 -0.006,0.084zm0.006,-0.087c0.12,-1.394 0.438,-2.78 0.945,-4.101c-0.507,1.324 -0.825,2.704 -0.945,4.101zm0.947,-4.105c0.009,-0.025 0.02,-0.052 0.029,-0.078c-0.009,0.026 -0.02,0.053 -0.029,0.078zm0.032,-0.081c0.008,-0.026 0.02,-0.052 0.028,-0.076c-0.008,0.024 -0.02,0.05 -0.028,0.076zm0.034,-0.085c0.008,-0.026 0.02,-0.049 0.028,-0.076c-0.008,0.027 -0.02,0.053 -0.028,0.076zm0.031,-0.081c0.043,-0.108 0.089,-0.216 0.134,-0.321c-0.045,0.109 -0.091,0.213 -0.134,0.321zm0.139,-0.332c0.009,-0.023 0.021,-0.046 0.029,-0.069c-0.008,0.023 -0.02,0.046 -0.029,0.069zm0.035,-0.082c0.011,-0.023 0.019,-0.043 0.031,-0.067c-0.012,0.024 -0.02,0.044 -0.031,0.067zm0.034,-0.078c0.011,-0.023 0.02,-0.044 0.031,-0.067c-0.011,0.023 -0.02,0.044 -0.031,0.067zm0.037,-0.082c0.011,-0.023 0.023,-0.046 0.034,-0.069c-0.011,0.023 -0.023,0.046 -0.034,0.069zm0.034,-0.075c0.026,-0.055 0.052,-0.108 0.077,-0.16c-0.025,0.052 -0.051,0.105 -0.077,0.16zm0.08,-0.166c0.008,-0.024 0.02,-0.047 0.031,-0.07c-0.011,0.023 -0.023,0.046 -0.031,0.07zm0.043,-0.093c0.008,-0.017 0.017,-0.036 0.025,-0.053c-0.008,0.017 -0.017,0.036 -0.025,0.053zm0.039,-0.079c0.006,-0.018 0.015,-0.032 0.023,-0.049c-0.008,0.017 -0.017,0.031 -0.023,0.049zm0.037,-0.075c0.009,-0.018 0.017,-0.036 0.023,-0.05c-0.006,0.014 -0.014,0.032 -0.023,0.05zm0.037,-0.079c0.008,-0.015 0.017,-0.032 0.026,-0.047c-0.009,0.015 -0.018,0.032 -0.026,0.047zm0.04,-0.076c0.009,-0.015 0.017,-0.032 0.026,-0.049c-0.009,0.017 -0.017,0.032 -0.026,0.049zm0.037,-0.076c0.014,-0.023 0.026,-0.046 0.037,-0.07c-0.011,0.024 -0.023,0.047 -0.037,0.07zm0.06,-0.11c0.005,-0.012 0.011,-0.023 0.017,-0.032c-0.006,0.009 -0.012,0.02 -0.017,0.032zm0.037,-0.073c0.009,-0.011 0.014,-0.023 0.02,-0.035c-0.006,0.012 -0.011,0.024 -0.02,0.035zm0.039,-0.072c0.009,-0.012 0.015,-0.024 0.02,-0.036c-0.005,0.012 -0.011,0.024 -0.02,0.036zm0.041,-0.076c0.008,-0.009 0.013,-0.021 0.02,-0.033c-0.007,0.012 -0.015,0.024 -0.02,0.033zm0.042,-0.073c0.006,-0.012 0.012,-0.024 0.017,-0.035c-0.005,0.011 -0.011,0.023 -0.017,0.035zm0.04,-0.073c0.006,-0.012 0.011,-0.024 0.02,-0.032c-0.009,0.008 -0.014,0.02 -0.02,0.032zm0.108,-0.189c0.003,-0.006 0.009,-0.014 0.015,-0.024c-0.006,0.01 -0.012,0.018 -0.015,0.024zm0.04,-0.067c0.006,-0.009 0.012,-0.021 0.017,-0.029c-0.005,0.011 -0.011,0.02 -0.017,0.029zm0.043,-0.07c0.006,-0.012 0.008,-0.02 0.014,-0.029c-0.003,0.009 -0.008,0.017 -0.014,0.029zm0.042,-0.073c0.006,-0.008 0.012,-0.017 0.015,-0.026c-0.003,0.009 -0.009,0.018 -0.015,0.026zm0.043,-0.073c0.005,-0.009 0.009,-0.014 0.014,-0.02c-0.005,0.006 -0.009,0.011 -0.014,0.02zm0.046,-0.072c0.002,-0.004 0.005,-0.009 0.008,-0.015c-0.003,0.006 -0.006,0.011 -0.008,0.015zm0.162,-0.259c0.002,-0.004 0.006,-0.009 0.008,-0.012c-0.002,0.003 -0.006,0.008 -0.008,0.012zm0.043,-0.065c0.005,-0.005 0.008,-0.011 0.011,-0.017c-0.003,0.006 -0.006,0.012 -0.011,0.017zm0.045,-0.067c0.003,-0.005 0.006,-0.011 0.011,-0.017c-0.005,0.006 -0.008,0.012 -0.011,0.017zm0.046,-0.072c0.002,-0.003 0.006,-0.006 0.008,-0.009c-0.002,0.003 -0.006,0.006 -0.008,0.009zm0.045,-0.067c0.003,-0.003 0.003,-0.003 0.006,-0.006c-0.003,0.003 -0.003,0.006 -0.006,0.006zm0.179,-0.257c0,-0.002 0.003,-0.002 0.003,-0.005c0,0.003 -0.003,0.003 -0.003,0.005zm0.043,-0.061c0.003,-0.006 0.005,-0.008 0.009,-0.011c-0.004,0.003 -0.006,0.005 -0.009,0.011zm0.048,-0.067c0.003,-0.002 0.006,-0.005 0.009,-0.011c-0.003,0.006 -0.006,0.009 -0.009,0.011zm0.049,-0.066c0,-0.004 0.003,-0.004 0.003,-0.006c0,0.002 0,0.002 -0.003,0.006zm0.336,-0.443l0.002,-0.003l-0.002,0.003zm0.352,-0.43c0,-0.004 0.003,-0.004 0.003,-0.004c0,0 -0.003,0 -0.003,0.004zm0.051,-0.062c0.004,0 0.004,-0.003 0.007,-0.006c-0.003,0.003 -0.003,0.006 -0.007,0.006zm0.376,-0.419c0,-0.003 0,-0.003 0,-0.003c0,0 0,0 0,0.003zm0.052,-0.058c0.002,0 0.002,-0.004 0.005,-0.006c-0.003,0.002 -0.003,0.002 -0.005,0.006zm0.392,-0.405c0.003,-0.003 0.003,-0.003 0.006,-0.003c-0.003,0 -0.003,0 -0.006,0.003zm0.057,-0.055c0.003,-0.003 0.006,-0.006 0.009,-0.009c-0.003,0.003 -0.006,0.006 -0.009,0.009zm0.06,-0.059c0.003,-0.002 0.003,-0.002 0.006,-0.005c-0.003,0.003 -0.006,0.003 -0.006,0.005zm0.41,-0.387c0.005,-0.003 0.008,-0.005 0.011,-0.009c-0.003,0.004 -0.006,0.006 -0.011,0.009zm0.063,-0.055c0.002,-0.003 0.005,-0.006 0.008,-0.009c-0.003,0.003 -0.006,0.006 -0.008,0.009zm0.062,-0.055c0.003,-0.003 0.005,-0.006 0.009,-0.009c-0.004,0.003 -0.006,0.006 -0.009,0.009zm0.307,-0.265c0.003,-0.003 0.006,-0.003 0.006,-0.006c-0.003,0.003 -0.003,0.003 -0.006,0.006zm0.06,-0.05c0.005,-0.003 0.009,-0.009 0.014,-0.011c-0.005,0.002 -0.009,0.008 -0.014,0.011zm0.066,-0.055c0.002,-0.003 0.008,-0.006 0.014,-0.009c-0.006,0.003 -0.012,0.006 -0.014,0.009zm0.065,-0.053c0.006,-0.002 0.008,-0.008 0.014,-0.011c-0.006,0.003 -0.008,0.009 -0.014,0.011zm0.066,-0.052c0.002,-0.003 0.005,-0.005 0.011,-0.009c-0.006,0.004 -0.009,0.006 -0.011,0.009zm0.247,-0.195c0.008,-0.006 0.011,-0.008 0.019,-0.014c-0.008,0.006 -0.013,0.008 -0.019,0.014zm0.065,-0.05c0.009,-0.006 0.015,-0.011 0.023,-0.017c-0.008,0.006 -0.014,0.011 -0.023,0.017zm0.069,-0.052c0.008,-0.006 0.017,-0.011 0.025,-0.017c-0.008,0.006 -0.017,0.011 -0.025,0.017zm0.068,-0.053c0.011,-0.005 0.02,-0.011 0.028,-0.019c-0.008,0.005 -0.019,0.014 -0.028,0.019zm0.071,-0.052c0.009,-0.005 0.02,-0.014 0.029,-0.02c-0.009,0.009 -0.02,0.015 -0.029,0.02zm0.072,-0.049c0.008,-0.009 0.017,-0.015 0.025,-0.021c-0.008,0.006 -0.017,0.012 -0.025,0.021zm0.104,-0.078c0.012,-0.01 0.023,-0.015 0.034,-0.024c-0.011,0.009 -0.022,0.018 -0.034,0.024zm0.071,-0.05c0.012,-0.009 0.024,-0.017 0.038,-0.026c-0.014,0.009 -0.026,0.017 -0.038,0.026zm0.072,-0.049c0.014,-0.01 0.025,-0.018 0.04,-0.03c-0.015,0.009 -0.026,0.02 -0.04,0.03zm0.074,-0.053c0.014,-0.009 0.025,-0.018 0.037,-0.026c-0.012,0.008 -0.023,0.017 -0.037,0.026zm0.074,-0.05c0.014,-0.008 0.028,-0.02 0.043,-0.029c-0.015,0.009 -0.029,0.021 -0.043,0.029zm0.074,-0.049c0.014,-0.012 0.031,-0.02 0.045,-0.032c-0.014,0.012 -0.031,0.02 -0.045,0.032zm0.074,-0.05c0.025,-0.017 0.051,-0.034 0.074,-0.049c-0.023,0.015 -0.049,0.032 -0.074,0.049zm10.925,-3.169c0.85,-0.065 1.704,-0.097 2.549,-0.097c0.566,0 1.13,0.015 1.682,0.044c0.003,0 0.003,0 0.003,0c-0.558,-0.029 -1.124,-0.044 -1.693,-0.044c-0.842,0 -1.693,0.032 -2.541,0.097z"/>
   <path id="svg_22" fill="#C87D69" d="m579.393,483c-3.184,0 -6.126,-1.033 -8.529,-2.784c-0.568,-1.519 -0.851,-3.108 -0.862,-4.698c0,-0.003 0,-0.005 0,-0.009c0,-0.019 -0.002,-0.042 -0.002,-0.061c0,-0.006 0,-0.011 0,-0.018c0,-0.019 0,-0.039 0,-0.059c0.002,-0.006 0.002,-0.014 0.002,-0.022c0,-0.017 0,-0.037 0,-0.054c0,-0.008 0,-0.02 0,-0.028c0,-0.017 0,-0.034 0,-0.051c0,-0.014 0,-0.028 0,-0.043c0,-0.013 0,-0.025 0.004,-0.039c0,-0.026 0,-0.048 0,-0.074c0,-0.008 0,-0.016 0,-0.024c0.002,-0.02 0.002,-0.037 0.002,-0.057c0,-0.009 0,-0.017 0,-0.026c0,-0.019 0.003,-0.037 0.003,-0.056c0,-0.009 0,-0.017 0,-0.022c0.002,-0.023 0.003,-0.043 0.003,-0.066c0,-0.005 0,-0.011 0,-0.013c0.003,-0.026 0.003,-0.049 0.005,-0.071c0,-0.006 0,-0.009 0,-0.012c0.006,-0.113 0.011,-0.226 0.02,-0.335c0.003,-0.029 0.005,-0.057 0.008,-0.085l0,-0.003c0.003,-0.028 0.003,-0.054 0.006,-0.082c0,0 0,0 0,-0.003c0.117,-1.355 0.429,-2.693 0.926,-3.978l0.002,-0.003c0.009,-0.025 0.02,-0.051 0.029,-0.076c0.002,0 0.002,-0.003 0.002,-0.003c0.009,-0.025 0.02,-0.051 0.028,-0.073c0.003,-0.003 0.003,-0.006 0.006,-0.009c0.008,-0.022 0.019,-0.048 0.028,-0.074c0,0 0.002,-0.002 0.002,-0.005c0.042,-0.104 0.087,-0.206 0.132,-0.311c0.003,-0.005 0.003,-0.008 0.005,-0.011c0.009,-0.022 0.02,-0.045 0.028,-0.067c0.003,-0.003 0.006,-0.009 0.006,-0.012c0.011,-0.023 0.019,-0.042 0.03,-0.065c0,-0.003 0.003,-0.008 0.003,-0.011c0.011,-0.023 0.02,-0.043 0.031,-0.065c0.003,-0.003 0.003,-0.009 0.006,-0.015c0.011,-0.022 0.022,-0.044 0.033,-0.067c0,-0.003 0,-0.005 0,-0.005c0.025,-0.054 0.051,-0.105 0.075,-0.156c0,-0.003 0,-0.003 0.003,-0.005c0.008,-0.023 0.02,-0.046 0.031,-0.068c0.002,-0.006 0.008,-0.015 0.011,-0.023c0.008,-0.016 0.017,-0.034 0.025,-0.051c0.003,-0.008 0.008,-0.017 0.014,-0.026c0.005,-0.016 0.014,-0.03 0.022,-0.047c0.006,-0.009 0.009,-0.017 0.014,-0.025c0.009,-0.017 0.017,-0.035 0.022,-0.048c0.006,-0.009 0.011,-0.02 0.015,-0.028c0.008,-0.015 0.016,-0.032 0.025,-0.046c0.002,-0.009 0.008,-0.017 0.013,-0.028c0.009,-0.017 0.017,-0.031 0.026,-0.048c0.003,-0.009 0.008,-0.017 0.011,-0.026c0.014,-0.022 0.025,-0.044 0.036,-0.068c0.009,-0.013 0.014,-0.024 0.022,-0.039c0.006,-0.011 0.011,-0.022 0.017,-0.031c0.005,-0.014 0.014,-0.026 0.02,-0.039c0.008,-0.012 0.014,-0.023 0.019,-0.035c0.006,-0.011 0.014,-0.025 0.019,-0.036c0.009,-0.011 0.015,-0.023 0.02,-0.034c0.006,-0.014 0.014,-0.025 0.02,-0.039c0.005,-0.009 0.013,-0.02 0.02,-0.032c0.008,-0.014 0.013,-0.025 0.022,-0.039c0.005,-0.011 0.011,-0.023 0.016,-0.034c0.009,-0.011 0.015,-0.023 0.023,-0.036c0.005,-0.012 0.011,-0.023 0.019,-0.031c0.02,-0.037 0.039,-0.071 0.059,-0.105c0.009,-0.017 0.02,-0.032 0.028,-0.048c0.003,-0.006 0.008,-0.014 0.014,-0.023c0.008,-0.014 0.016,-0.028 0.025,-0.042c0.006,-0.009 0.011,-0.017 0.017,-0.028c0.008,-0.015 0.016,-0.028 0.025,-0.04c0.006,-0.011 0.011,-0.019 0.013,-0.028c0.012,-0.015 0.02,-0.028 0.028,-0.043c0.006,-0.008 0.012,-0.016 0.014,-0.025c0.011,-0.017 0.02,-0.031 0.028,-0.045c0.006,-0.009 0.009,-0.014 0.014,-0.02c0.009,-0.017 0.02,-0.034 0.031,-0.05c0.003,-0.004 0.006,-0.009 0.008,-0.015c0.051,-0.079 0.1,-0.158 0.151,-0.237c0.002,-0.003 0.006,-0.009 0.008,-0.011c0.012,-0.017 0.023,-0.034 0.034,-0.051c0.006,-0.006 0.008,-0.011 0.011,-0.017c0.011,-0.017 0.022,-0.031 0.033,-0.048c0.003,-0.006 0.006,-0.011 0.011,-0.017c0.011,-0.017 0.023,-0.034 0.034,-0.054c0.003,-0.003 0.006,-0.005 0.008,-0.008c0.011,-0.019 0.026,-0.037 0.037,-0.056c0.003,0 0.003,-0.004 0.005,-0.006c0.056,-0.082 0.112,-0.164 0.17,-0.243c0,-0.003 0.003,-0.003 0.003,-0.006c0.015,-0.017 0.026,-0.037 0.039,-0.053c0.003,-0.006 0.006,-0.008 0.009,-0.012c0.011,-0.016 0.025,-0.033 0.039,-0.053c0.003,-0.003 0.005,-0.006 0.008,-0.011c0.011,-0.017 0.026,-0.037 0.039,-0.054c0.003,-0.003 0.003,-0.003 0.003,-0.006c0.092,-0.121 0.184,-0.242 0.279,-0.364c0.017,-0.02 0.034,-0.04 0.048,-0.059l0.002,-0.003c0.112,-0.141 0.226,-0.28 0.343,-0.415c0,-0.003 0.003,-0.003 0.003,-0.003c0.017,-0.02 0.031,-0.037 0.047,-0.056c0.003,0 0.003,-0.003 0.006,-0.007c0.118,-0.135 0.24,-0.27 0.363,-0.4c0,-0.003 0,-0.003 0,-0.003c0.016,-0.017 0.033,-0.037 0.05,-0.054c0.003,-0.003 0.003,-0.003 0.006,-0.005c0.016,-0.017 0.033,-0.037 0.053,-0.054c0.106,-0.113 0.214,-0.223 0.326,-0.333c0.003,-0.003 0.003,-0.003 0.006,-0.003c0.017,-0.017 0.033,-0.034 0.05,-0.05c0.003,-0.004 0.005,-0.006 0.008,-0.009c0.017,-0.017 0.034,-0.031 0.05,-0.048c0,-0.003 0.003,-0.003 0.006,-0.006c0.016,-0.017 0.036,-0.033 0.053,-0.051c0.114,-0.107 0.228,-0.214 0.343,-0.319c0.006,-0.003 0.009,-0.005 0.011,-0.008c0.017,-0.014 0.034,-0.032 0.051,-0.045c0.002,-0.003 0.005,-0.006 0.008,-0.009c0.016,-0.014 0.036,-0.031 0.053,-0.045c0.003,-0.003 0.005,-0.005 0.008,-0.009c0.098,-0.081 0.192,-0.166 0.293,-0.248c0.003,-0.003 0.003,-0.003 0.005,-0.005c0.018,-0.015 0.037,-0.029 0.053,-0.043c0.006,-0.003 0.009,-0.009 0.015,-0.011c0.016,-0.014 0.033,-0.029 0.05,-0.042c0.003,-0.004 0.008,-0.006 0.014,-0.009c0.016,-0.014 0.034,-0.028 0.05,-0.043c0.006,-0.002 0.008,-0.008 0.014,-0.011c0.016,-0.013 0.034,-0.028 0.05,-0.039c0.003,-0.003 0.006,-0.006 0.011,-0.009c0.076,-0.061 0.154,-0.121 0.232,-0.181c0.006,-0.005 0.011,-0.008 0.019,-0.013c0.014,-0.011 0.031,-0.023 0.045,-0.035c0.008,-0.005 0.014,-0.011 0.022,-0.017c0.017,-0.011 0.031,-0.022 0.045,-0.033c0.008,-0.006 0.017,-0.011 0.025,-0.017c0.014,-0.011 0.028,-0.022 0.042,-0.034c0.009,-0.006 0.02,-0.014 0.028,-0.02c0.014,-0.008 0.028,-0.02 0.041,-0.031c0.009,-0.005 0.02,-0.011 0.029,-0.02c0.013,-0.008 0.028,-0.019 0.042,-0.028c0.008,-0.009 0.016,-0.014 0.024,-0.02c0.026,-0.017 0.053,-0.037 0.079,-0.056c0.011,-0.005 0.022,-0.014 0.033,-0.023c0.012,-0.008 0.025,-0.017 0.036,-0.025c0.011,-0.009 0.023,-0.017 0.037,-0.025c0.011,-0.006 0.022,-0.015 0.034,-0.023c0.013,-0.009 0.024,-0.02 0.038,-0.029c0.011,-0.005 0.023,-0.013 0.034,-0.022c0.014,-0.008 0.025,-0.017 0.036,-0.025c0.014,-0.006 0.025,-0.014 0.036,-0.023c0.015,-0.008 0.028,-0.019 0.042,-0.028c0.008,-0.006 0.02,-0.015 0.031,-0.02c0.014,-0.011 0.03,-0.019 0.044,-0.031c0.011,-0.006 0.02,-0.012 0.028,-0.017c0.025,-0.017 0.051,-0.034 0.073,-0.048c2.656,-1.723 6.628,-2.73 10.638,-3.026c0.831,-0.063 1.665,-0.094 2.491,-0.094c0.557,0 1.112,0.014 1.66,0.042c1.537,2.341 2.432,5.151 2.432,8.175c0,8.162 -6.539,14.783 -14.607,14.783z"/>
   <path id="svg_23" fill="white" d="m605.498,456c-1.377,0 -2.498,-1.122 -2.498,-2.502c0,-1.377 1.121,-2.498 2.498,-2.498c1.381,0 2.502,1.121 2.502,2.498c0,1.38 -1.121,2.502 -2.502,2.502z"/>
   <path id="svg_24" fill="#87C595" d="m606,394.001c0,16.014 -12.981,28.999 -29,28.999c-16.016,0 -29,-12.985 -29,-28.999c0,-16.016 12.984,-29.001 29,-29.001c16.019,0 29,12.985 29,29.001z"/>
   <path id="svg_25" fill="white" d="m571,390c-1.101,0 -2,-0.927 -2,-2.062l0,-6.876c0,-1.135 0.899,-2.062 2,-2.062c1.101,0 2,0.927 2,2.062l0,6.876c0,1.135 -0.899,2.062 -2,2.062z"/>
   <path id="svg_26" fill="white" d="m576.001,382c-0.55,0 -1.001,-0.508 -1.001,-1.125l0,-8.755c0,-0.618 0.451,-1.12 1.001,-1.12c0.551,0 0.999,0.502 0.999,1.12l0,8.755c0,0.617 -0.448,1.125 -0.999,1.125z"/>
   <path id="svg_27" fill="white" d="m585.503,389c-0.825,0 -1.503,-0.54 -1.503,-1.2l0,-5.597c0,-0.66 0.678,-1.203 1.503,-1.203c0.822,0 1.497,0.543 1.497,1.203l0,5.597c0,0.66 -0.675,1.2 -1.497,1.2z"/>
   <path id="svg_28" fill="#E8E8E8" d="m597,392c0,11.045 -8.957,20 -20.001,20c-11.045,0 -19.999,-8.955 -19.999,-20l40,0z"/>
   <path id="svg_29" fill="white" d="m588,392l-31,0c0,6.479 3.001,12.242 7.669,15.944c1.86,0.68 3.87,1.056 5.967,1.056c9.45,0 17.133,-7.572 17.364,-17z"/>
   <path id="svg_30" fill="#E8E8E8" d="m572,414l10,0l0,-4l-10,0l0,4z"/>
   <path id="svg_31" fill="#FFC1CA" d="m677.502,434c-14.088,0 -25.502,-11.417 -25.502,-25.5c0,-14.086 11.414,-25.5 25.502,-25.5c14.083,0 25.498,11.414 25.498,25.5c0,14.083 -11.415,25.5 -25.498,25.5z"/>
   <path id="svg_32" fill="#FA7071" d="m686,413c0,0 -1.985,4.497 -2.836,9l-12.328,0c-0.852,-4.503 -2.836,-9 -2.836,-9l18,0z"/>
   <path id="svg_33" fill="#DF5244" d="m685.001,415.822c0.556,-1.704 0.999,-2.822 0.999,-2.822l-18,0c0,0 0.474,1.197 1.059,3.008c2.34,0.632 4.911,0.992 7.623,0.992c2.979,0 5.8,-0.424 8.319,-1.178z"/>
   <path id="svg_34" fill="#F0F0F0" d="m672.606,399.252c-4.54,1.748 -8.606,5.193 -8.606,10.515c0,0.892 0.122,1.752 0.345,2.582c3.269,1.651 7.514,2.651 12.155,2.651c4.643,0 8.882,-1 12.152,-2.651c0.225,-0.83 0.348,-1.69 0.348,-2.582c0,-4.497 -3.353,-8.353 -9.097,-10.767l-7.297,0.252z"/>
   <path id="svg_35" fill="white" d="m682,401.26c0,-0.484 -0.042,-0.959 -0.101,-1.43c-0.586,-0.29 -1.196,-0.569 -1.846,-0.83l-7.366,0.242c-4.582,1.682 -8.687,4.995 -8.687,10.114c0,0.847 0.12,1.669 0.343,2.453c1.623,0.756 3.438,1.191 5.365,1.191c6.786,0 12.292,-5.256 12.292,-11.74z"/>
   <path id="svg_36" fill="#FA7071" d="m680,396c0,2.211 -1.791,4 -3.999,4c-2.208,0 -4.001,-1.789 -4.001,-4c0,-2.209 1.793,-4 4.001,-4c2.208,0 3.999,1.791 3.999,4z"/>
   <path id="svg_37" fill="#DBE0FF" d="m663.241,336c-1.77,0 -3.517,-0.083 -5.241,-0.239c1.127,-0.597 2.244,-1.179 3.381,-1.761c0.875,0.657 1.753,1.327 2.619,1.995c-0.253,0.002 -0.503,0.005 -0.759,0.005z"/>
   <path id="svg_38" fill="#CAE2FB" d="m426.329,411.966c0.021,-0.204 0.043,-0.41 0.064,-0.62c0.016,0.181 0.033,0.367 0.051,0.555l-0.115,0.065z"/>
   <path id="svg_39" fill="#5FA469" d="m1082.65,301.409c7.35,0.563 16.39,5.65 19.78,31.648c3.38,25.997 1.69,39.56 1.69,39.56l-35.02,-1.132c0,0 -4.7,-70.919 8.67,-70.215l4.88,0.139z"/>
   <path id="svg_40" fill="#E0E3FF" d="m1094.35,436.04l0,-0.002c0.89,-0.943 1.78,-1.899 2.67,-2.89c0,0.002 0.01,0.007 0.01,0.009c-0.89,0.979 -1.79,1.941 -2.68,2.883zm20.89,-32.784c-0.01,-0.012 -0.01,-0.027 -0.02,-0.041c0.63,-1.885 1.22,-3.777 1.78,-5.682c0,0.005 0,0.008 0,0.01c-0.56,1.917 -1.14,3.823 -1.76,5.713z"/>
   <path id="svg_41" fill="#87C595" d="m1063.96,320.519l26.08,0.559c0,0 2.78,40.334 11.1,50.417l-34.4,1.122c0,0 -19.98,-48.178 -2.78,-52.098z"/>
   <path id="svg_42" fill="#87C595" d="m872.952,299.002c-17.023,-0.19 -31.545,12.261 -33.933,29.091l-48.198,339.57l287.109,1.686l-5.48,-350.649c0,0 3.05,-16.558 9.61,-16.418c11.62,-0.988 -28.89,-1.289 -28.89,-1.289l-180.218,-1.991z"/>
   <path id="svg_43" fill="#5FA469" d="m1114.73,654.16l-41.9,-335.906l5.39,351.095l36.51,-15.189z"/>
   <path id="svg_44" fill="#DCC075" d="m930.809,420.773c6.224,0.48 13.886,4.787 16.76,26.808c2.872,22.021 1.436,33.51 1.436,33.51l-29.688,-0.958c0,0 -3.977,-60.072 7.347,-59.477l4.145,0.117z"/>
   <path id="svg_45" fill="#F1E5C5" d="m915.007,436.571l22.506,0.477c0,0 2.394,34.468 9.576,43.085l-29.687,0.958c0,0 -17.24,-41.168 -2.395,-44.52z"/>
   <path id="svg_46" fill="#FFF9C4" d="m782.684,419.054c-12.163,-0.136 -22.54,8.77 -24.247,20.812l-34.437,242.926l205.145,1.207l-3.914,-250.855c0,0 2.18,-11.844 6.867,-11.745c8.305,-0.705 -20.647,-0.92 -20.647,-0.92l-128.767,-1.425z"/>
   <path id="svg_47" fill="#DCC075" d="m955.685,673.144l24.125,-11.256l-54.579,-228.741l30.454,239.997z"/>
   <path id="svg_48" fill="#DCC075" d="m955.685,673.144l-30.454,-239.997l3.915,250.852l26.539,-10.855z"/>
   <path id="svg_49" fill="#D0DD77" d="m979.057,436.099c-13.286,0 -24.057,-10.769 -24.057,-24.049c0,-13.28 10.771,-24.05 24.057,-24.05c13.285,0 24.053,10.77 24.053,24.05c0,13.28 -10.768,24.049 -24.053,24.049z"/>
   <path id="svg_50" fill="#D0DD77" d="m1011.13,500.232c-9.12,0 -16.508,-7.391 -16.508,-16.504c0,-9.115 7.388,-16.506 16.508,-16.506c6.84,0 12.71,4.163 15.22,10.091l0.19,12.352c-2.38,6.181 -8.38,10.567 -15.41,10.567z"/>
   <path id="svg_51" fill="#BFD4F8" d="m799,369.493c0,19.6 -15.895,35.487 -35.5,35.487c-19.603,0 -35.5,-15.887 -35.5,-35.487c0,-19.605 15.897,-35.493 35.5,-35.493c19.605,0 35.5,15.888 35.5,35.493z"/>
   <path id="svg_52" fill="white" d="m765.863,348.823l-20.833,0c-0.957,0 -1.734,0.741 -1.734,1.651c0,1.249 1.065,2.26 2.376,2.26l5.387,0c0.806,0 1.457,0.622 1.457,1.385c0,1.154 -0.983,2.088 -2.197,2.088l-12.834,0c-1.617,0 -2.926,1.243 -2.926,2.779l0,1.39c0,1.535 1.309,2.781 2.926,2.781l8.909,0c0.835,0 1.51,0.64 1.51,1.435l0,1.254c0,0.792 -0.675,1.437 -1.51,1.437l-10.752,0c-1.402,0 -2.537,1.077 -2.537,2.41l0,1.04c0,1.332 1.135,2.412 2.537,2.412l16.376,0c1.214,0 2.196,0.933 2.196,2.088l0,0.382c0,1.154 -0.982,2.088 -2.196,2.088l-6.778,0c-1.878,0 -3.4,1.449 -3.4,3.235l0,0.915c0,1.786 1.522,3.232 3.4,3.232l27.903,0l-7.28,-36.262z"/>
   <path id="svg_53" fill="#F3A9B8" d="m792.533,366.378c0,11.716 -9.454,21.217 -21.117,21.217c-11.662,0 -21.119,-9.501 -21.119,-21.217c0,-11.716 9.457,-21.214 21.119,-21.214c11.663,0 21.117,9.498 21.117,21.214z"/>
   <path id="svg_54" fill="white" d="m790.76,366.535c0,10.246 -8.309,18.552 -18.56,18.552c-10.25,0 -18.558,-8.306 -18.558,-18.552c0,-10.25 8.308,-18.555 18.558,-18.555c10.251,0 18.56,8.305 18.56,18.555z"/>
   <path id="svg_55" fill="#2E3054" d="m772.292,365.072l9.794,-9.791l-9.143,14.035l-0.651,-4.244z"/>
   <path id="svg_56" fill="#2E3054" d="m772.292,365.073l-7.837,-3.263l8.488,7.507l1.306,-1.958l-1.957,-2.286z"/>
   <path id="svg_57" fill="#4F5A79" d="m773.396,352.345c0,0.659 -0.535,1.193 -1.194,1.193c-0.661,0 -1.195,-0.534 -1.195,-1.193c0,-0.661 0.534,-1.192 1.195,-1.192c0.659,0 1.194,0.531 1.194,1.192z"/>
   <path id="svg_58" fill="#4F5A79" d="m773.396,380.198c0,0.662 -0.535,1.196 -1.194,1.196c-0.661,0 -1.195,-0.534 -1.195,-1.196c0,-0.658 0.534,-1.19 1.195,-1.19c0.659,0 1.194,0.532 1.194,1.19z"/>
   <path id="svg_59" fill="#4F5A79" d="m786.135,367.466c-0.662,0 -1.194,-0.535 -1.194,-1.196c0,-0.658 0.532,-1.192 1.194,-1.192c0.658,0 1.193,0.534 1.193,1.192c0,0.661 -0.535,1.196 -1.193,1.196z"/>
   <path id="svg_60" fill="#4F5A79" d="m758.268,367.466c-0.656,0 -1.19,-0.535 -1.19,-1.196c0,-0.658 0.534,-1.192 1.19,-1.192c0.661,0 1.196,0.534 1.196,1.192c0,0.661 -0.535,1.196 -1.196,1.196z"/>
   <path id="svg_61" fill="#E5F0FE" d="m279.208,496.609c-0.038,-0.019 -0.077,-0.038 -0.115,-0.057c0.039,0.019 0.076,0.038 0.115,0.057zm64.053,-88.172c0.767,-0.593 1.516,-1.174 2.248,-1.742c0.001,0.003 0.001,0.003 0.001,0.003c-0.733,0.565 -1.482,1.146 -2.249,1.739zm-77.633,-14.091c-0.708,-0.438 -1.427,-0.886 -2.156,-1.342l-0.001,-0.003c0.724,0.453 1.452,0.908 2.157,1.345z"/>
   <path id="svg_62" fill="#EA5A63" d="m323.708,366.914c10.419,19.278 3.232,43.357 -16.056,53.781c-19.286,10.423 -43.365,3.241 -53.783,-16.037c-10.42,-19.281 -3.238,-43.363 16.049,-53.786c19.287,-10.423 43.37,-3.239 53.79,16.042z"/>
   <path id="svg_63" fill="#EA5A63" d="m304.423,415.641l74.494,50.622l-69.304,-68.015l-5.19,17.393z"/>
   <path id="svg_64" fill="white" d="m286.835,386.866c-5.226,2.824 -11.752,0.876 -14.574,-4.346c-2.821,-5.219 -0.873,-11.742 4.353,-14.566c5.224,-2.823 11.748,-0.878 14.568,4.341c2.822,5.221 0.877,11.748 -4.347,14.571zm-13.288,-24.587c-8.36,4.518 -11.478,14.954 -6.963,23.309c4.518,8.359 32.008,23.033 32.008,23.033c0,0 2.784,-31.035 -1.734,-39.394c-4.515,-8.356 -14.949,-11.467 -23.311,-6.948z"/>
   <path id="svg_65" fill="#87C595" d="m-5.36501,609.133c77.85821,-23.216 120.76201,-187.398 121.18301,-189.056l-2.199,-0.557c-0.429,1.639 -42.9969,164.608 -119.64963,187.473l0.66562,2.14z"/>
   <path id="svg_66" fill="#87C595" d="m24.2619,590.245c-0.0494,0.369 0.3612,-9.569 -1.5026,-19.923c-1.9005,-10.559 -6.1686,-21.548 -15.70439,-22.47c-18.88121,-1.818 17.10669,43.137 17.10669,43.137l0.1003,-0.744z"/>
   <path id="svg_67" fill="#87C595" d="m43.4078,573.225c0,0 -5.5828,-49.114 -21.6136,-43.751c-16.02959,5.359 21.6136,43.751 21.6136,43.751z"/>
   <path id="svg_68" fill="#87C595" d="m59.4262,550.407c0,0 -9.481,-53.635 -29.5066,-45.846c-15.1657,5.896 29.5066,45.846 29.5066,45.846z"/>
   <path id="svg_69" fill="#87C595" d="m82.0639,508.254c0,0 -4.5316,-51.236 -20.9714,-42.911c-16.4348,8.336 20.9714,42.911 20.9714,42.911z"/>
   <path id="svg_70" fill="#87C595" d="m75.1097,525.136c0,0 -17.0228,-49.275 -30.5704,-36.888c-9.1068,8.34 30.5704,36.888 30.5704,36.888z"/>
   <path id="svg_71" fill="#87C595" d="m94.4452,478.978c0,0 -6.1831,-55.998 -22.8158,-46.183c-16.6293,9.809 22.8158,46.183 22.8158,46.183z"/>
   <path id="svg_72" fill="#87C595" d="m105.083,445.673c0,0 0.331,-47.549 -10.3995,-36.167c-10.7236,11.37 10.3995,36.167 10.3995,36.167z"/>
   <path id="svg_73" fill="#87C595" d="m111.196,434.425c0,0 28.628,-36.126 14.551,-39.557c-14.074,-3.438 -14.551,39.557 -14.551,39.557z"/>
   <path id="svg_74" fill="#87C595" d="m105.084,445.673c0,0 45.336,-1.345 36.627,-16.14c-8.709,-14.79 -36.627,16.14 -36.627,16.14z"/>
   <path id="svg_75" fill="#87C595" d="m97.809,471.124c0,0 52.84,-0.334 51.51,-18.644c-1.346,-18.315 -51.51,18.644 -51.51,18.644z"/>
   <path id="svg_76" fill="#87C595" d="m86.1316,495.214c0,0 69.3704,1.928 63.6184,-17.74c-5.743,-19.669 -63.6184,17.74 -63.6184,17.74z"/>
   <path id="svg_77" fill="#87C595" d="m75.2921,518.66c0,0 75.6809,11.856 75.4929,-9.32c-0.192,-21.17 -75.4929,9.32 -75.4929,9.32z"/>
   <path id="svg_78" fill="#87C595" d="m54.0884,556.55c0,0 72.1856,-7.496 72.5706,12.206c0.395,19.691 -72.5706,-12.206 -72.5706,-12.206z"/>
   <path id="svg_79" fill="#87C595" d="m70.1662,534.27c0,0 62.0138,-15.835 64.3158,3.688c2.298,19.519 -64.3158,-3.688 -64.3158,-3.688z"/>
   <path id="svg_80" fill="#87C595" d="m45.4134,569.719c0,0 62.6106,1.014 53.9862,19.478c-8.6253,18.458 -55.9914,-15.971 -55.9914,-15.971l2.0052,-3.507z"/>
   <path id="svg_81" fill="#E7C264" d="m92.6957,646.542c8.0333,-2.784 16.5223,-5.153 20.9813,-12.65c6.183,-10.385 -1.534,-13.046 -4.945,-23.511c19.662,-3.102 36.084,-0.743 52.199,-15.324c15.873,-14.354 7.663,-28.993 -13.409,-30.884c-2.89,-0.264 18.789,-9.192 22.489,-10.715c8.183,-3.378 15.512,-9.848 20.519,-16.512c9.072,-12.071 11.03,-30.315 -8.195,-35.88c-16.662,-4.821 -28.395,9.983 -37.782,20.125c-4.218,4.555 -9.192,10.45 -12.211,15.954c-7.171,-8.459 -7.591,-21.047 -22.04,-15.471c-10.079,3.894 -16.1805,18.386 -14.1367,27.86c-13.0583,-3.815 -19.5718,-8.488 -32.2813,-3.292c-8.2188,3.355 -17.3439,10.425 -23.8745,17.003c-14.8707,14.978 -48.29185,75.564 -56.4584,95.977c0,0 92.3314,-6.849 109.1446,-12.68z"/>
   <path id="svg_82" fill="#EDFAD3" d="m89.9508,649.411c0.3542,0.064 0.7094,0.127 1.0617,0.189c1.4193,-0.49 2.8236,-1.002 4.2042,-1.542c-1.2699,-0.224 -2.5419,-0.449 -3.8146,-0.68c-5.3416,-0.972 -10.6983,-2.037 -15.947,-3.303c-7.3398,-1.773 -14.3116,-4.224 -20.7846,-7.933l-0.0677,2.793c1.2774,0.694 2.5739,1.355 3.8994,1.965c5.9333,2.718 12.2085,4.689 18.6581,5.95c4.211,0.823 8.4939,1.779 12.7905,2.561zm5.9812,-17.62c4.186,0.762 8.419,1.389 12.639,1.595c0.684,0.032 1.347,0.051 2.004,0.061c0.128,-0.529 0.215,-1.042 0.259,-1.531c-0.737,-0.058 -1.472,-0.123 -2.2,-0.201c-3.729,-0.395 -7.486,-0.933 -11.2121,-1.612c-2.927,-0.532 -5.837,-1.152 -8.6998,-1.858c-6.8403,-1.69 -13.3738,-4.049 -19.9989,-6.358c-0.9555,-0.334 -7.8045,-3.627 -9.4719,-3.93c-0.0439,-0.008 -0.0817,-0.013 -0.1181,-0.016c4.4389,-2.703 8.641,-5.638 13.0074,-8.466c1.1491,-0.743 2.3143,-1.467 3.4842,-2.182l-0.2014,0.047l6.4004,-6.504c-0.4303,0.282 -0.8607,0.562 -1.2913,0.846c-1.9915,-5.509 -0.5069,-12.608 -0.2208,-17.896c0.4194,-7.712 1.1848,-15.405 2.4498,-23.012c0.5076,-3.052 1.1353,-6.074 1.8173,-9.083c-0.7328,-0.248 -1.4487,-0.492 -2.1487,-0.729c-0.7388,3.108 -1.4069,6.234 -1.9144,9.404c-1.4671,9.18 -2.6543,18.587 -3.0436,27.895c-0.1848,4.515 -0.8358,10.246 1.0863,14.722c-6.0557,3.955 -12.2036,7.799 -18.4414,11.526c-1.0906,-5.782 -2.7918,-11.539 -3.1263,-17.393c-0.5083,-8.826 0.2919,-17.703 1.6308,-26.384c1.1191,-7.257 2.434,-14.72 4.7621,-21.787c-0.781,0.195 -1.5845,0.432 -2.4108,0.711c-2.113,6.742 -3.6323,13.627 -4.6893,20.604l-0.8057,32.92c0.7595,4.243 1.6531,8.451 2.348,12.706c-0.8979,0.53 -1.7974,1.056 -2.6984,1.579l-0.0693,2.868c0.4583,-0.257 0.9151,-0.517 1.3738,-0.776l0.4184,-0.251c0.158,0.154 0.3475,0.281 0.5847,0.324c0.019,0.003 0.0356,0.006 0.0551,0.008c0.2011,0.025 0.3972,0.054 0.5898,0.089c2.5751,0.469 4.4184,1.854 6.738,2.987c2.6287,1.281 5.6046,2.123 8.3848,3.081c5.6114,1.939 11.2368,3.744 17.0904,4.909c1.8676,0.371 3.7474,0.743 5.6389,1.087zm25.684,-29.508c11.296,0.775 22.595,0.379 33.312,-2.243c0.297,-0.259 0.594,-0.48 0.891,-0.749c0.024,-0.021 0.047,-0.042 0.071,-0.063c0.678,-0.617 1.295,-1.235 1.888,-1.85c-9.552,1.942 -19.16,3.062 -29.114,3.09c-1.279,0.002 -2.559,-0.021 -3.837,-0.068c-1.011,0.717 -2.087,1.346 -3.211,1.883zm11.505,-16.551c9.711,-0.356 21.107,-1.359 30.467,-4.926c-0.108,-0.345 -0.228,-0.686 -0.367,-1.02c-8.472,2.815 -18.518,3.729 -27,4.103c-1.029,0.044 -2.059,0.074 -3.091,0.094c0.025,0.582 0.022,1.167 -0.009,1.749zm-33.007,-20.294c0.694,-0.305 1.406,-0.577 2.132,-0.813c0.415,-5.329 0.817,-10.671 1.783,-15.92c1.566,-8.476 3.988,-16.39 7.016,-24.166c-0.931,0.037 -1.95,0.194 -3.06,0.472c-2.875,7.643 -4.752,15.735 -6.07,23.31c-0.983,5.653 -1.231,11.412 -1.801,17.117zm26.01,4.186c1.839,-1.59 3.719,-3.132 5.682,-4.581c4.262,-3.15 8.512,-5.824 11.94,-9.763c1.194,-1.371 2.413,-2.706 3.626,-4.048c0.259,0.069 0.511,0.124 0.758,0.169c1.921,0.35 3.563,0.04 5.61,0.136c2.75,0.13 5.483,0.506 8.231,0.636c4.188,0.198 8.344,-0.111 12.518,-0.066c0.257,-0.194 0.512,-0.395 0.77,-0.595c-5.103,-0.464 -10.196,-0.067 -15.299,-0.645c-3.999,-0.454 -7.846,-0.558 -11.822,-0.49c4.597,-5.051 9.327,-9.914 14.266,-14.677c0.003,0.002 0.011,0.006 0.024,0.008c0.851,0.155 22,-1.856 27.508,-2.525c0.087,-0.209 0.161,-0.418 0.207,-0.647c-4.103,-0.602 -23.258,0.832 -25.68,1.216c1.072,-1.015 2.138,-2.036 3.233,-3.044c4.742,-4.376 9.579,-8.827 13.958,-13.507c1.845,-1.972 3.863,-4.05 5.57,-6.282c-0.337,-0.341 -0.673,-0.684 -1.049,-1.007c-3.024,3.776 -6.765,7.26 -10.202,10.44c-3.311,3.061 -6.476,6.247 -9.808,9.294c1.101,-5.497 1.907,-11.059 2.78,-16.592c0.438,-2.782 1.17,-5.716 1.693,-8.662c-0.977,0.006 -1.936,0.081 -2.88,0.212c-0.383,2.733 -0.616,5.499 -1.019,8.048c-1.007,6.357 -2.145,12.699 -3.034,19.07l-0.312,0.386c-4.36,3.721 -8.263,7.767 -12.054,11.909c0.256,-7.883 1.817,-15.888 3.254,-23.588c0.705,-3.794 1.232,-7.605 2.022,-11.34c-0.92,0.609 -1.827,1.255 -2.709,1.942c-0.425,2.385 -0.852,4.769 -1.275,7.155c-1.562,8.803 -4.202,18.668 -2.986,27.692c-2.843,3.149 -5.654,6.331 -8.573,9.458c-2.267,2.421 -5.005,4.473 -7.805,6.478c2.584,-8.505 3.39,-17.7 4.931,-26.422c0.648,-3.673 1.673,-7.507 2.519,-11.356c-0.431,0.472 -0.856,0.935 -1.276,1.389c-0.812,0.877 -1.653,1.812 -2.501,2.774c-0.392,2.963 -0.731,5.891 -1.199,8.613c-1.433,8.348 -3.871,25.762 -3.715,25.884c-2.15,1.528 -4.3,3.056 -6.264,4.72c-0.381,0.324 -0.76,0.649 -1.138,0.974c0.523,0.394 1.022,0.807 1.5,1.234z"/>
   <path id="svg_83" fill="#9CC765" d="m1706,366.903c45.86,28.86 189.45,41.892 158.83,101.484c66.54,4.682 83.45,26.237 71.2,69.182c1.3,-4.62 24.29,2.538 27.4,4.541c5.17,3.304 10.65,12.106 13.12,16.717c7.84,14.674 6.46,29.621 6.29,44.489c-0.17,17.734 1.87,35.714 5.22,53.427c-35.21,-42.91 -186.2,-67.55 -151.41,-107.001c-23.77,-1.836 -67.78,-3.507 -83.99,-20.052c-20.79,-21.203 10.69,-34.393 33.7,-39.443c-89.38,-23.386 -74.68,-49.624 -56.49,-79.034l-13.48,-16.168c-5.83,-8.863 -9.6,-19.027 -10.39,-28.142z"/>
   <path id="svg_84" fill="#7CC7B9" d="m1871.49,456.399c-1.91,-26.885 -14.9,-59.118 -29.21,-83.786c-9.66,-16.681 -37.78,-58.967 -62.32,-55.791c-27.52,3.562 -14,55.714 -5.33,71.928c12.71,23.797 32.01,40.708 53.12,57.85c20.01,16.249 37.5,35.844 57.12,51.242l-13.38,-41.443z"/>
   <path id="svg_85" fill="#7CC7B9" d="m1866.06,489.88c-8.37,-14.197 -24.26,-28.467 -38.8,-38.272c-9.82,-6.63 -36.72,-22.507 -49.26,-14.472c-14.06,9.013 7.54,34.035 16.7,40.665c13.43,9.732 28.59,14.017 44.79,17.961c15.37,3.734 30.26,9.95 45.18,13.323l-18.61,-19.205z"/>
   <path id="svg_86" fill="#E7C264" d="m1955.68,593.491c15.91,-26.731 43.41,-38.967 29.52,-75.365c-5.55,-14.55 -19.92,-24.152 -27.17,-37.092c-9.06,-16.163 -2.7,-18.885 -1.29,-35.389c3.07,-35.591 -26.18,-44.373 -44.75,-72.482c-12.96,-19.606 -11.15,-41.79 -28.08,-62.67c-17.17,-21.217 -47.71,-40.858 -55.33,-65.493c-1.14,42.919 -31.11,107.508 13.44,145.862c-24.26,12.101 -27.07,38.06 -13.86,59.162c6.32,10.077 25.1,18.583 29.12,29.082c5.48,14.343 -5.61,14.308 -6.16,26.605c-1.71,39.047 147.42,101.98 112.05,139.452l-7.49,-51.672z"/>
   <path id="svg_87" fill="#EDFAD3" d="m1949.27,572.999l0.21,-13.289c0,0 0,-0.006 0,-0.006l-0.21,13.288c0,0.002 0,0.005 0,0.007zm-26.69,-70.331l0.97,-7.397c-2.3,-5.621 -4.56,-11.196 -6.78,-16.693c0.44,-4.124 5.57,-8.953 10.69,-13.239l0.7,-5.351c-0.23,0.19 -0.46,0.382 -0.7,0.573c-4.83,3.968 -10.11,8.307 -12.83,12.685c-0.27,-0.652 -0.54,-1.325 -0.79,-1.974c-5.08,-12.574 -10.67,-25.137 -16.28,-37.456l1.04,0.541c2.78,-3.82 6.65,-7.287 10.36,-10.644c3.38,-3.05 6.87,-6.197 9.69,-9.691c5.44,-6.805 8.1,-13.993 10.19,-21.1c-1.07,-1.052 -2.14,-2.127 -3.2,-3.22c-2.22,7.837 -4.67,15.288 -10.41,22.44c-2.67,3.334 -6.08,6.405 -9.37,9.38c-3.35,3.018 -6.76,6.154 -9.53,9.597c-1.26,-2.727 -2.5,-5.438 -3.73,-8.133c-0.14,-0.296 -0.27,-0.603 -0.42,-0.894l0.16,-0.167l-0.31,-0.159c-4.42,-9.653 -8.88,-19.435 -13.18,-29.32c11.57,-10.38 20.22,-23.052 25.04,-36.135c-0.75,-2.111 -1.44,-4.24 -2.11,-6.38c-3.94,13.909 -12.52,27.684 -24.5,38.907c-4.96,-11.489 -9.6,-23.097 -13.63,-34.753c-0.45,-1.33 -0.86,-2.668 -1.3,-3.984c13.97,-5.568 19.44,-23.195 21.69,-39.454l-0.13,-0.154c-0.38,-0.471 -0.76,-0.936 -1.16,-1.405c-0.71,-0.853 -1.45,-1.701 -2.2,-2.546c-1.79,16.063 -6.42,34.344 -19.26,40.293c-3.84,-12.051 -7.05,-24.179 -10.15,-35.981c-1.22,-4.749 -2.47,-9.468 -3.74,-14.184c-1.21,-4.499 -2.7,-9.013 -4.13,-13.379c-1.21,-3.659 -2.45,-7.43 -3.48,-11.054c-0.69,-2.379 -1.56,-5.074 -2.49,-7.941c-0.49,-1.551 -1.03,-3.184 -1.55,-4.858c-2.35,-3.487 -4.34,-7.054 -5.84,-10.731c-0.5,-1.222 -0.95,-2.458 -1.33,-3.707c-0.02,0.713 -0.04,1.429 -0.08,2.153c1.11,5.633 3.12,11.843 4.98,17.569c0.93,2.834 1.79,5.521 2.45,7.839c1.06,3.68 2.3,7.478 3.52,11.166c1.43,4.331 2.9,8.821 4.1,13.231c1.28,4.714 2.52,9.436 3.75,14.171c1.38,5.33 2.81,10.72 4.29,16.152c-12.45,-4.283 -22.21,-9.231 -32.59,-15.996c-0.13,1.098 -0.25,2.194 -0.36,3.29c-0.01,0.078 -0.02,0.153 -0.03,0.231c9.84,6.199 20.48,11.575 33.96,16.042c2.2,7.884 4.57,15.82 7.28,23.708c1.72,4.988 3.58,9.963 5.51,14.924c-12.87,-0.716 -31.42,-6.525 -45.09,-14.311c0.35,1.417 0.75,2.824 1.16,4.206c12.79,6.686 28.49,11.578 40.71,12.926c1.54,0.164 3.01,0.273 4.41,0.318c6.29,15.864 13.39,31.539 20.41,46.892c-3.55,-1.182 -7.62,-1.936 -11.61,-2.676c-3.85,-0.716 -7.82,-1.438 -10.99,-2.506c-12.7,-4.278 -25.1,-9.134 -33.27,-15.786c-0.78,0.77 -1.52,1.548 -2.23,2.361c10.25,8.137 25.2,13.182 34.32,16.249c3.53,1.184 7.67,1.962 11.69,2.702c5.12,0.945 10.36,1.922 13.94,3.702l0.08,0.161c4.69,10.206 9.45,20.643 14.01,31.146c-7.25,-2.04 -15.44,-3.262 -23.42,-4.452c-6.67,-0.969 -13.59,-1.992 -19.6,-3.478c-16.07,-3.963 -27.33,-10.367 -39.18,-17.161c0.17,1.353 0.39,2.689 0.7,4.019c11.2,6.375 22.22,12.275 37.71,16.1c6.25,1.535 13.3,2.571 20.1,3.581c8.78,1.289 17.83,2.635 25.3,5.074c1.9,4.44 3.78,8.886 5.57,13.333c0.89,2.24 1.8,4.491 2.71,6.741l-0.01,0.329l0.16,0.013c3.13,7.775 6.36,15.705 9.64,23.705zm28.84,-63.877c0,-0.003 0,-0.003 0.01,-0.003l0.12,-7.984c0,0 0,0 0,0.002l-0.13,7.985z"/>
   <path id="svg_88" fill="#E7C264" d="m1.45775,76.1021c9.34365,2.3622 19.09745,4.1677 25.60405,12.6553c9.0147,11.7556 1.2127,15.9156 -0.181,28.9606c22.0594,1.303 39.3878,-3.574 60.1329,12.011c20.4303,15.345 14.7343,34.009 -7.7507,38.9c-3.0877,0.675 22.456,8.752 26.814,10.136c9.639,3.058 19.04,9.951 25.954,17.366c12.528,13.432 18.69,35.188 -0.98,44.277c-17.047,7.878 -33.0761,-8.524 -45.5212,-19.588c-5.589,-4.971 -12.3016,-11.46 -16.7967,-17.725c-5.9289,11.087 -3.605,26.318 -20.5428,21.384c-11.8221,-3.45 -21.6513,-20.164 -21.526,-31.84c-2.5696,1.197 -4.8676,2.399 -7.0124,3.531c-8.9978,4.751 -15.26791,8.222 -27.35543,4.433c-9.67127,-3.028 -21.15577,-10.424 -29.71197,-17.547c-19.4739,-16.214 -69.1945,-85.1303 -82.5845,-108.7323c0,0 101.8841,-3.1711 121.45775,1.7784z"/>
   <path id="svg_89" fill="#E5F7FF" d="m86.8835,222.03c0.4877,0.438 0.979,0.883 1.4771,1.331c-0.4981,-0.448 -0.9901,-0.889 -1.4748,-1.326l-0.0023,-0.005z"/>
   <path id="svg_90" fill="#EDFAD3" d="m13.3013,141.194l3.0235,2.107l60.6048,-19.725c0.8838,0.426 1.7667,0.849 2.6569,1.338l-61.1068,19.888l15.7607,10.978l59.8146,-19.467c0.4898,0.585 0.9453,1.17 1.3675,1.755l-59.027,19.213l75.4035,52.513l24.798,-7.966c0.409,0.597 0.796,1.208 1.176,1.82l-23.521,7.655l-0.504,-0.151l27.945,19.459c-0.301,0.607 -0.637,1.198 -1.008,1.78l-43.4686,-30.276l7.0966,34.187c-0.82,-0.53 -1.631,-1.088 -2.433,-1.663l-8.3571,-35.095l-10.7807,-7.507l6.7055,32.299c-0.3671,-0.328 -0.7281,-0.652 -1.0878,-0.977c-0.4981,-0.447 -0.9894,-0.893 -1.4771,-1.33l-6.7004,-31.777l-36.7267,-25.579l12.4964,60.596c-0.629,0.108 -1.3143,0.161 -2.0502,0.157l-13.4277,-62.83l-6.4998,-4.527l-0.2513,0.081l-0.1171,-0.336l-17.5499,-12.224l-3.0074,0.979c0.0425,-0.737 0.0842,-1.481 0.1231,-2.244l0.7294,-0.235l-0.6949,-0.484c0.0358,-0.789 0.0682,-1.596 0.095,-2.412z"/>
  </g>
  <g id="svg_93">
   <path id="svg_94" fill="#DCC075" d="m772.749695,470.943373l0,-11.63641l3.15909,0l0,9.09091l4.70455,0l0,2.5455l-7.86364,0zm16.0497,-11.63641l3.1364,0l0,7.68182c0,0.88636 -0.2084,1.63447 -0.625,2.24429c-0.4129,0.6061 -0.9962,1.0663 -1.75,1.3807c-0.75,0.3106 -1.6326,0.4659 -2.6477,0.4659c-1.0228,0 -1.911,-0.1553 -2.6648,-0.4659c-0.75,-0.3144 -1.3315,-0.7746 -1.7443,-1.3807c-0.4091,-0.60982 -0.61368,-1.35793 -0.61368,-2.24429l0,-7.68182l3.15908,0l0,7.54546c0,0.43181 0.1648,0.78219 0.4943,1.05113c0.3334,0.26894 0.7898,0.40341 1.3694,0.40341c0.5909,0 1.053,-0.13447 1.3863,-0.40341c0.3333,-0.26894 0.5,-0.61932 0.5,-1.05113l0,-7.54546zm14.706,0l0,11.63641l-2.6364,0l-4.2045,-6.11368l-0.0682,0l0,6.11368l-3.1591,0l0,-11.63641l2.6818,0l4.1364,6.09091l0.0909,0l0,-6.09091l3.1591,0zm12.3579,4.36364l-3.2045,0c-0.0455,-0.53031 -0.2386,-0.95834 -0.5796,-1.28409c-0.3371,-0.32576 -0.8106,-0.48864 -1.4204,-0.48864c-0.7955,0 -1.4034,0.28599 -1.8239,0.85796c-0.4204,0.56818 -0.6307,1.35795 -0.6307,2.36931c0,1.06819 0.2122,1.87311 0.6364,2.41478c0.428,0.54166 1.0265,0.8125 1.7955,0.8125c0.5795,0 1.0416,-0.14394 1.3863,-0.43182c0.3447,-0.29167 0.5568,-0.68561 0.6364,-1.18182l3.2045,0.02273c-0.0378,0.49242 -0.1761,0.99432 -0.4147,1.50568c-0.2387,0.50758 -0.5777,0.97728 -1.0171,1.40908c-0.4356,0.428 -0.9754,0.7727 -1.6193,1.0341c-0.6439,0.2614 -1.392,0.392 -2.2443,0.392c-1.0682,0 -2.0265,-0.2291 -2.875,-0.6875c-0.8447,-0.4583 -1.5133,-1.1325 -2.0057,-2.02268c-0.4886,-0.89015 -0.733,-1.97917 -0.733,-3.26705c0,-1.29545 0.25,-2.38636 0.75,-3.27272c0.5,-0.89016 1.1743,-1.5625 2.0228,-2.01705c0.8485,-0.45833 1.7954,-0.6875 2.8409,-0.6875c0.9773,0 1.8485,0.17614 2.6136,0.52841c0.769,0.35227 1.3864,0.86553 1.8523,1.53977c0.4697,0.67425 0.7462,1.49243 0.8295,2.45455zm1.4333,7.27277l0,-11.63641l3.1591,0l0,4.54546l4.1818,0l0,-4.54546l3.1591,0l0,11.63641l-3.1591,0l0,-4.5455l-4.1818,0l0,4.5455l-3.1591,0zm13.75,0.1818c-0.4394,0 -0.8163,-0.1534 -1.1307,-0.4603c-0.3106,-0.3106 -0.464,-0.6875 -0.4602,-1.1306c-0.0038,-0.4319 0.1496,-0.8012 0.4602,-1.10799c0.3144,-0.30682 0.6913,-0.46023 1.1307,-0.46023c0.4166,0 0.7841,0.15341 1.1022,0.46023c0.322,0.30679 0.4849,0.67609 0.4887,1.10799c-0.0038,0.4431 -0.1667,0.82 -0.4887,1.1306c-0.3181,0.3069 -0.6856,0.4603 -1.1022,0.4603zm-55.34235,15.8182l-3.43182,-11.6364l3.52272,0l1.59091,7.1591l0.09091,0l1.88637,-7.1591l2.77276,0l1.8863,7.1818l0.0909,0l1.5909,-7.1818l3.5228,0l-3.4318,11.6364l-3.0228,0l-1.97725,-6.5l-0.0909,0l-1.97728,6.5l-3.02272,0zm25.27135,-5.8182c0,1.2954 -0.2519,2.3882 -0.7557,3.2784c-0.5038,0.8863 -1.1837,1.5587 -2.0398,2.017c-0.8561,0.4546 -1.8106,0.6818 -2.8636,0.6818c-1.0606,0 -2.019,-0.2291 -2.875,-0.6875c-0.8523,-0.4621 -1.5303,-1.1363 -2.0341,-2.0227c-0.5,-0.8901 -0.75,-1.9791 -0.75,-3.267c0,-1.2955 0.25,-2.3864 0.75,-3.2728c0.5038,-0.8901 1.1818,-1.5625 2.0341,-2.017c0.856,-0.4583 1.8144,-0.6875 2.875,-0.6875c1.053,0 2.0075,0.2292 2.8636,0.6875c0.8561,0.4545 1.536,1.1269 2.0398,2.017c0.5038,0.8864 0.7557,1.9773 0.7557,3.2728zm-3.25,0c0,-1.0455 -0.2065,-1.8447 -0.6194,-2.3978c-0.4091,-0.553 -1.0056,-0.8295 -1.7897,-0.8295c-0.7841,0 -1.3826,0.2765 -1.7955,0.8295c-0.4091,0.5531 -0.6136,1.3523 -0.6136,2.3978c0,1.0454 0.2045,1.8447 0.6136,2.3977c0.4129,0.553 1.0114,0.8295 1.7955,0.8295c0.7841,0 1.3806,-0.2765 1.7897,-0.8295c0.4129,-0.553 0.6194,-1.3523 0.6194,-2.3977zm4.7116,5.8182l0,-11.6364l5.0227,0c0.8637,0 1.6193,0.1572 2.2671,0.4716c0.6477,0.3144 1.1515,0.767 1.5113,1.3579c0.3599,0.5909 0.5398,1.2993 0.5398,2.125c0,0.8069 -0.1761,1.4906 -0.5284,2.0512c-0.3485,0.5606 -0.8314,0.9905 -1.4489,1.2897l2.3637,4.341l-3.4318,0l-2.0455,-3.841l-1.0909,0l0,3.841l-3.1591,0zm3.1591,-6.2955l1.1136,0c0.5531,0 0.9868,-0.1061 1.3012,-0.3182c0.3144,-0.2159 0.4716,-0.572 0.4716,-1.0682c0,-0.5 -0.1572,-0.8636 -0.4716,-1.0909c-0.3144,-0.2272 -0.7481,-0.3409 -1.3012,-0.3409l-1.1136,0l0,2.8182zm7.5284,6.2955l0,-11.6364l3.1591,0l0,4.7045l0.1591,0l3.5,-4.7045l3.6818,0l-3.9318,5.1818l4.0227,6.4546l-3.7727,0l-2.6137,-4.3637l-1.0454,1.3637l0,3l-3.1591,0z"/>
  </g>
  <g id="svg_95">
   <path id="svg_96" fill="#D0DD77" d="m863.41629,353.610105l0,-11.63641l3.15909,0l0,9.09091l4.70455,0l0,2.5455l-7.86364,0zm16.0497,-11.63641l3.1364,0l0,7.68182c0,0.88636 -0.2084,1.63447 -0.625,2.24429c-0.4129,0.6061 -0.9962,1.0663 -1.75,1.3807c-0.75,0.3106 -1.6326,0.4659 -2.6477,0.4659c-1.0228,0 -1.911,-0.1553 -2.6648,-0.4659c-0.75,-0.3144 -1.3315,-0.7746 -1.7443,-1.3807c-0.4091,-0.60982 -0.61368,-1.35793 -0.61368,-2.24429l0,-7.68182l3.15908,0l0,7.54546c0,0.43181 0.1648,0.78219 0.4943,1.05113c0.3334,0.26894 0.7898,0.40341 1.3694,0.40341c0.5909,0 1.053,-0.13447 1.3863,-0.40341c0.3333,-0.26894 0.5,-0.61932 0.5,-1.05113l0,-7.54546zm14.706,0l0,11.63641l-2.6364,0l-4.2045,-6.11368l-0.0682,0l0,6.11368l-3.1591,0l0,-11.63641l2.6818,0l4.1364,6.09091l0.0909,0l0,-6.09091l3.1591,0zm12.3579,4.36364l-3.2045,0c-0.0455,-0.53031 -0.2386,-0.95834 -0.5796,-1.28409c-0.3371,-0.32576 -0.8106,-0.48864 -1.4204,-0.48864c-0.7955,0 -1.4034,0.28599 -1.8239,0.85796c-0.4204,0.56818 -0.6307,1.35795 -0.6307,2.36931c0,1.06819 0.2122,1.87311 0.6364,2.41478c0.428,0.54166 1.0265,0.8125 1.7955,0.8125c0.5795,0 1.0416,-0.14394 1.3863,-0.43182c0.3447,-0.29167 0.5568,-0.68561 0.6364,-1.18182l3.2045,0.02273c-0.0378,0.49242 -0.1761,0.99432 -0.4147,1.50568c-0.2387,0.50758 -0.5777,0.97728 -1.0171,1.40908c-0.4356,0.428 -0.9754,0.7727 -1.6193,1.0341c-0.6439,0.2614 -1.392,0.392 -2.2443,0.392c-1.0682,0 -2.0265,-0.2291 -2.875,-0.6875c-0.8447,-0.4583 -1.5133,-1.1325 -2.0057,-2.02268c-0.4886,-0.89015 -0.733,-1.97917 -0.733,-3.26705c0,-1.29545 0.25,-2.38636 0.75,-3.27272c0.5,-0.89016 1.1743,-1.5625 2.0228,-2.01705c0.8485,-0.45833 1.7954,-0.6875 2.8409,-0.6875c0.9773,0 1.8485,0.17614 2.6136,0.52841c0.769,0.35227 1.3864,0.86553 1.8523,1.53977c0.4697,0.67425 0.7462,1.49243 0.8295,2.45455zm1.4333,7.27277l0,-11.63641l3.1591,0l0,4.54546l4.1818,0l0,-4.54546l3.1591,0l0,11.63641l-3.1591,0l0,-4.5455l-4.1818,0l0,4.5455l-3.1591,0zm13.75,0.1818c-0.4394,0 -0.8163,-0.1534 -1.1307,-0.4603c-0.3106,-0.3106 -0.464,-0.6875 -0.4602,-1.1306c-0.0038,-0.4319 0.1496,-0.8012 0.4602,-1.10799c0.3144,-0.30682 0.6913,-0.46023 1.1307,-0.46023c0.4166,0 0.7841,0.15341 1.1022,0.46023c0.322,0.30679 0.4849,0.67609 0.4887,1.10799c-0.0038,0.4431 -0.1667,0.82 -0.4887,1.1306c-0.3181,0.3069 -0.6856,0.4603 -1.1022,0.4603zm-55.34235,15.8182l-3.43182,-11.6364l3.52272,0l1.59091,7.1591l0.09091,0l1.88637,-7.1591l2.77276,0l1.8863,7.1818l0.0909,0l1.5909,-7.1818l3.5228,0l-3.4318,11.6364l-3.0228,0l-1.97725,-6.5l-0.0909,0l-1.97728,6.5l-3.02272,0zm25.27135,-5.8182c0,1.2954 -0.2519,2.3882 -0.7557,3.2784c-0.5038,0.8863 -1.1837,1.5587 -2.0398,2.017c-0.8561,0.4546 -1.8106,0.6818 -2.8636,0.6818c-1.0606,0 -2.019,-0.2291 -2.875,-0.6875c-0.8523,-0.4621 -1.5303,-1.1363 -2.0341,-2.0227c-0.5,-0.8901 -0.75,-1.9791 -0.75,-3.267c0,-1.2955 0.25,-2.3864 0.75,-3.2728c0.5038,-0.8901 1.1818,-1.5625 2.0341,-2.017c0.856,-0.4583 1.8144,-0.6875 2.875,-0.6875c1.053,0 2.0075,0.2292 2.8636,0.6875c0.8561,0.4545 1.536,1.1269 2.0398,2.017c0.5038,0.8864 0.7557,1.9773 0.7557,3.2728zm-3.25,0c0,-1.0455 -0.2065,-1.8447 -0.6194,-2.3978c-0.4091,-0.553 -1.0056,-0.8295 -1.7897,-0.8295c-0.7841,0 -1.3826,0.2765 -1.7955,0.8295c-0.4091,0.5531 -0.6136,1.3523 -0.6136,2.3978c0,1.0454 0.2045,1.8447 0.6136,2.3977c0.4129,0.553 1.0114,0.8295 1.7955,0.8295c0.7841,0 1.3806,-0.2765 1.7897,-0.8295c0.4129,-0.553 0.6194,-1.3523 0.6194,-2.3977zm4.7116,5.8182l0,-11.6364l5.0227,0c0.8637,0 1.6193,0.1572 2.2671,0.4716c0.6477,0.3144 1.1515,0.767 1.5113,1.3579c0.3599,0.5909 0.5398,1.2993 0.5398,2.125c0,0.8069 -0.1761,1.4906 -0.5284,2.0512c-0.3485,0.5606 -0.8314,0.9905 -1.4489,1.2897l2.3637,4.341l-3.4318,0l-2.0455,-3.841l-1.0909,0l0,3.841l-3.1591,0zm3.1591,-6.2955l1.1136,0c0.5531,0 0.9868,-0.1061 1.3012,-0.3182c0.3144,-0.2159 0.4716,-0.572 0.4716,-1.0682c0,-0.5 -0.1572,-0.8636 -0.4716,-1.0909c-0.3144,-0.2272 -0.7481,-0.3409 -1.3012,-0.3409l-1.1136,0l0,2.8182zm7.5284,6.2955l0,-11.6364l3.1591,0l0,4.7045l0.1591,0l3.5,-4.7045l3.6818,0l-3.9318,5.1818l4.0227,6.4546l-3.7727,0l-2.6137,-4.3637l-1.0454,1.3637l0,3l-3.1591,0z"/>
  </g>
 </g>
</svg>