<?xml version="1.0" encoding="UTF-8" standalone="no"?>
<svg
   xmlns:dc="http://purl.org/dc/elements/1.1/"
   xmlns:cc="http://creativecommons.org/ns#"
   xmlns:rdf="http://www.w3.org/1999/02/22-rdf-syntax-ns#"
   xmlns:svg="http://www.w3.org/2000/svg"
   xmlns="http://www.w3.org/2000/svg"
   xmlns:sodipodi="http://sodipodi.sourceforge.net/DTD/sodipodi-0.dtd"
   xmlns:inkscape="http://www.inkscape.org/namespaces/inkscape"
   viewBox="0 0 2108.9982 824.99994"
   version="1.1"
   id="svg107"
   sodipodi:docname="last-block-background.svg"
   width="1917.2711"
   height="750"
   style="fill:none"
   inkscape:version="0.92.4 (5da689c313, 2019-01-14)">
  <metadata
     id="metadata113">
    <rdf:RDF>
      <cc:Work
         rdf:about="">
        <dc:format>image/svg+xml</dc:format>
        <dc:type
           rdf:resource="http://purl.org/dc/dcmitype/StillImage" />
        <dc:title></dc:title>
      </cc:Work>
    </rdf:RDF>
  </metadata>
  <defs
     id="defs111" />
  <sodipodi:namedview
     pagecolor="#ffffff"
     bordercolor="#666666"
     borderopacity="1"
     objecttolerance="10"
     gridtolerance="10"
     guidetolerance="10"
     inkscape:pageopacity="0"
     inkscape:pageshadow="2"
     inkscape:window-width="1920"
     inkscape:window-height="1017"
     id="namedview109"
     showgrid="false"
     inkscape:zoom="0.59166667"
     inkscape:cx="1218.523"
     inkscape:cy="294.48919"
     inkscape:window-x="-8"
     inkscape:window-y="-8"
     inkscape:window-maximized="1"
     inkscape:current-layer="svg107"
     showguides="true"
     inkscape:guide-bbox="true"
     units="px"
     height="419mm"
     width="450mm"
     inkscape:pagecheckerboard="false"
     fit-margin-top="0.4"
     fit-margin-left="0"
     fit-margin-right="0"
     fit-margin-bottom="0.2"
     scale-x="1.1" />
  <g
     id="g5"
     transform="translate(120,85.169399)">
    <title
       id="title2">background</title>
    <rect
       id="canvas_background"
       height="402"
       width="582"
       y="-1"
       x="-1"
       style="fill:none" />
  </g>
  <g
     id="g105"
     transform="translate(120,44.267992)">
    <title
       id="title7">Layer 1</title>
    <path
       id="svg_1"
       d="M 447.534,15.0081 C 236.554,35.0362 61.2695,31.6982 0,15.0081 V 718.536 c 103.226,10.014 307,31.293 431.55,13.769 118.906,-16.73 329.657,-36.301 467.513,-13.769 137.857,22.531 398.087,28.788 543.937,-12.52 116.68,-33.046 354.46,-13.769 477,0 V 19.3903 C 1832.09,14.8005 1617.76,-9.85161 1472.47,4.36919 1319,19.3903 1255,53.7934 1070.88,36.288 908.143,20.8147 711.259,-10.0271 447.534,15.0081 Z"
       inkscape:connector-curvature="0"
       style="fill:#ddf8cd" />
    <g
       id="svg_91">
      <path
         id="svg_92"
         d="m 1049.3333,158.92232 c -28,-180.000499 237.501,-125.589379 504,-125.588959 266.499,4.2e-4 375.5,-2.52024 375.5,125.587959 v 426.412 c 0,43.052 -118.609,98.056 -211.5,52 -112.073,-55.567 -322,198 -386,28 -64,-170 -100,38 -266.0001,-154 -165.99979,-192 12,-172.411 -15.9999,-352.411 z"
         inkscape:connector-curvature="0"
         style="fill:#adedb3" />
    </g>
    <g
       id="svg_2">
      <path
         id="svg_3"
         d="M 488.501,688 C 411.462,688 349,683.461 349,677.865 c 0,-3.811 28.932,-7.132 71.703,-8.865 36.98,3.253 92.84,5.327 155.336,5.327 14.245,0 28.141,-0.108 41.549,-0.312 6.711,1.186 10.412,2.486 10.412,3.85 C 628,683.461 565.546,688 488.501,688 Z"
         inkscape:connector-curvature="0"
         style="fill:#87c595" />
      <path
         id="svg_4"
         d="M 415.198,557.577 C 414.113,557.555 402,567 402,567 c 0,0 16.097,-14.198 15.356,-28.471 -0.743,-14.267 5.879,-9.437 12.641,-5.116 4.018,2.561 3.003,12.342 4.373,16.968 1.045,3.531 4.133,7.978 3.56,11.772 -1.167,7.691 -7.057,-1.054 -10.975,-3.039 -4.274,-2.159 -7.752,-1.471 -11.757,-1.537 z"
         inkscape:connector-curvature="0"
         style="fill:#f9c9b7" />
      <path
         id="svg_5"
         d="m 419.101,543 c -7.02,-7.287 -13.003,-21.756 -10.534,-31.771 2.516,-10.252 9.391,-12.542 18.956,-8.013 9.392,4.47 26.294,28.637 11.886,34.806 -3.663,1.562 -8.081,0.878 -11.346,3.391 z"
         inkscape:connector-curvature="0"
         style="fill:#f9c9b7" />
      <path
         id="svg_6"
         d="m 438,513 8,7.817 -6.026,4.183 z"
         inkscape:connector-curvature="0"
         style="fill:#f9c9b7" />
      <path
         id="svg_7"
         d="m 393.095,634 c 0,0 -18.142,39.884 14.043,40.833 32.184,0.952 81.524,-1.208 90.713,-0.893 9.191,0.317 71.072,4.06 71.072,4.06 l 14.066,-18.8 0.011,-0.564 -0.529,-0.186 c -3.814,1.151 -14.5,4.83 -18.347,10.859 l -60.455,-15.245 z"
         inkscape:connector-curvature="0"
         style="fill:#7b5d7b" />
      <path
         id="svg_8"
         d="m 572.182,662.777 c -1.915,6.068 -6.874,14.315 -6.874,14.315 L 565,677.63 c 2.869,0.231 4.572,0.37 4.572,0.37 L 583.963,658.777 584,658.246 583.529,658 c -1.991,0.209 -6.436,1.018 -10.541,4.166 z"
         inkscape:connector-curvature="0"
         style="fill:#0b1238" />
      <path
         id="svg_9"
         d="m 413.814,640.449 c 0,0 85.595,-35.449 92.186,-35.449 6.596,0 45.288,65.571 45.288,65.571 0,0 12.659,1.414 14.712,6.429 l -25.78,-2.193 c 0,0 -1.729,-4.848 -6.225,-9.883 -12.603,-14.122 -24.119,-18.174 -31.976,-30.865 l -60.653,25.53 c 0,0 -34.001,-6.588 -27.552,-19.14 z"
         inkscape:connector-curvature="0"
         style="fill:#61455f" />
      <path
         id="svg_10"
         d="m 418.816,549 c 0,0 11.36,5.66 17.042,11.797 5.681,6.13 3.866,12.781 3.866,21.35 0,8.571 -0.08,10.733 -3.392,21.115 -3.312,10.378 -8.573,35.152 -8.573,35.152 0,0 -28.043,2.754 -34.96,1.004 -6.916,-1.748 -11.862,-75.32 26.017,-90.418 z"
         inkscape:connector-curvature="0"
         style="fill:#ea5a63" />
      <path
         id="svg_11"
         d="M 425.8,517 415,526.502 432.18,546 442,536.501 Z"
         inkscape:connector-curvature="0"
         style="fill:#61455f" />
      <path
         id="svg_12"
         d="m 415.548,553.739 c -8.056,6.128 -5.018,17.575 6.024,42.06 11.04,24.485 21.631,25.231 24.657,23.738 22.696,-17.927 -12.129,-70.393 -6.304,-74.441 5.824,-4.044 -4.744,-15.009 -1.515,-12.946 0,0 -0.47,-2.08 -2.518,-3.486 -2.051,-1.404 0.595,-6.979 -9.587,3.984 l 13.871,65.974 c 0,0 -3.5,-16.42 -5.271,-23.666 -3.864,-15.833 -13.119,-25.963 -19.357,-21.217 z"
         inkscape:connector-curvature="0"
         style="fill:#f9c9b7" />
      <path
         id="svg_13"
         d="m 539,671.789 c 0,3.278 2.42,4.37 2.42,4.37 l 24.07,1.841 0.499,-0.255 0.011,-0.569 c -2.307,-4.014 -8.774,-5.529 -12.267,-6.176 -5.121,3.227 -14.733,0.789 -14.733,0.789 z"
         inkscape:connector-curvature="0"
         style="fill:#2e3054" />
      <path
         id="svg_14"
         d="m 421.101,518.916 c -6.095,-3.181 -2.786,5.493 -2.563,6.956 0.475,3.11 -0.248,6.062 -2.904,9.211 -6.218,7.372 -11.099,-0.748 -13.386,-7.597 -5.11,-15.282 6.228,-29.93 20.301,-31.454 -0.022,1.861 0.192,3.514 0.673,5.192 5.568,-2.319 16.245,-12.821 17.719,0.099 1.055,9.217 -12.222,9.59 -16.785,15.456 z"
         inkscape:connector-curvature="0"
         style="fill:#ba3a29" />
      <path
         id="svg_15"
         d="m 442.42,558.417 c -6.035,1.682 -9.268,1.048 -10.678,0.492 l 8.433,39.852 c 0,0 -3.5,-16.314 -5.271,-23.513 -3.864,-15.73 -13.118,-25.795 -19.356,-21.08 -8.056,6.089 -5.018,17.462 6.024,41.788 11.039,24.326 21.63,25.067 24.656,23.584 16.358,-12.837 2.84,-43.492 -3.808,-61.123 z"
         inkscape:connector-curvature="0"
         style="fill:#61455f" />
      <path
         id="svg_16"
         d="M 436.169,559.582 C 434.13,559.627 432.776,559.308 432,559 l 4.174,19.859 c 3.81,14.225 7.669,27.141 7.669,27.141 3.844,-18.5 -2.712,-36.325 -7.674,-46.418 z"
         inkscape:connector-curvature="0"
         style="fill:#61455f" />
      <path
         id="svg_17"
         d="m 704.713,581.425 -0.193,-12.352 c 0.002,0 0.002,0.002 0.002,0.004 l 0.193,12.345 c 0,0 -0.002,10e-4 -0.002,0.003 z"
         inkscape:connector-curvature="0"
         style="fill:#f7c3cd" />
      <path
         id="svg_18"
         d="m 625,468.5 c 0,17.949 -14.55,32.5 -32.5,32.5 -17.949,0 -32.5,-14.551 -32.5,-32.5 0,-17.949 14.551,-32.5 32.5,-32.5 17.95,0 32.5,14.551 32.5,32.5 z"
         inkscape:connector-curvature="0"
         style="fill:#f3c5cf" />
      <path
         id="svg_19"
         d="m 601.58,467 5.789,-3.518 c 0.128,0.414 0.308,0.819 0.561,1.201 1.468,2.171 4.512,2.801 6.804,1.411 2.286,-1.39 2.955,-4.28 1.487,-6.452 -1.185,-1.755 -3.399,-2.501 -5.412,-1.993 1.328,-1.522 1.536,-3.745 0.356,-5.497 -1.468,-2.174 -4.511,-2.804 -6.806,-1.414 -2.286,1.393 -2.953,4.278 -1.485,6.455 0.256,0.38 0.567,0.702 0.909,0.984 L 598,461.694 Z"
         inkscape:connector-curvature="0"
         style="fill:#ffffff" />
      <path
         id="svg_20"
         d="m 599.412,461.533 c -5.615,-2.479 -16.886,-1.953 -22.473,1.589 -6.843,4.339 -8.991,13.116 -4.79,19.606 4.196,6.485 13.15,8.223 19.997,3.884 5.584,-3.542 10.782,-13.455 10.854,-19.535 z"
         inkscape:connector-curvature="0"
         style="fill:#ba5c44" />
      <path
         id="svg_21"
         d="m 570.002,476 c 0,-0.003 0,-0.006 0,-0.009 0,0.003 0,0.006 0,0.009 z M 570,475.927 c 0,-0.005 0,-0.011 0,-0.018 0,0.007 0,0.013 0,0.018 z m 0,-0.079 c 0.002,-0.008 0.002,-0.014 0.002,-0.023 0,0.009 0,0.017 -0.002,0.023 z m 0.002,-0.078 c 0,-0.008 0,-0.021 0,-0.029 0,0.008 0,0.021 0,0.029 z m 0,-0.082 c 0,-0.014 0,-0.029 0,-0.044 0,0.015 0,0.03 0,0.044 z m 0.004,-0.084 c 0,-0.027 0,-0.05 0,-0.076 0,0.026 0,0.049 0,0.076 z m 0,-0.102 c 0.002,-0.02 0.002,-0.038 0.002,-0.058 0,0.02 0,0.038 -0.002,0.058 z m 0.002,-0.085 c 0,-0.019 0.003,-0.038 0.003,-0.057 0,0.019 -0.003,0.038 -0.003,0.057 z m 0.003,-0.08 c 0.003,-0.024 0.003,-0.044 0.003,-0.068 0,0.024 0,0.044 -0.003,0.068 z m 0.003,-0.082 c 0.003,-0.027 0.003,-0.05 0.005,-0.073 -0.002,0.023 -0.002,0.046 -0.005,0.073 z m 0.005,-0.085 c 0.006,-0.117 0.012,-0.233 0.021,-0.346 -0.009,0.113 -0.015,0.229 -0.021,0.346 z m 0.021,-0.346 c 0.003,-0.03 0.005,-0.059 0.008,-0.087 -0.003,0.028 -0.005,0.057 -0.008,0.087 z m 0.008,-0.091 c 0.003,-0.029 0.003,-0.055 0.006,-0.084 -0.003,0.029 -0.003,0.055 -0.006,0.084 z m 0.006,-0.087 c 0.12,-1.394 0.438,-2.78 0.945,-4.101 -0.507,1.324 -0.825,2.704 -0.945,4.101 z m 0.947,-4.105 c 0.009,-0.025 0.02,-0.052 0.029,-0.078 -0.009,0.026 -0.02,0.053 -0.029,0.078 z m 0.032,-0.081 c 0.008,-0.026 0.02,-0.052 0.028,-0.076 -0.008,0.024 -0.02,0.05 -0.028,0.076 z m 0.034,-0.085 c 0.008,-0.026 0.02,-0.049 0.028,-0.076 -0.008,0.027 -0.02,0.053 -0.028,0.076 z m 0.031,-0.081 c 0.043,-0.108 0.089,-0.216 0.134,-0.321 -0.045,0.109 -0.091,0.213 -0.134,0.321 z m 0.139,-0.332 c 0.009,-0.023 0.021,-0.046 0.029,-0.069 -0.008,0.023 -0.02,0.046 -0.029,0.069 z m 0.035,-0.082 c 0.011,-0.023 0.019,-0.043 0.031,-0.067 -0.012,0.024 -0.02,0.044 -0.031,0.067 z m 0.034,-0.078 c 0.011,-0.023 0.02,-0.044 0.031,-0.067 -0.011,0.023 -0.02,0.044 -0.031,0.067 z m 0.037,-0.082 c 0.011,-0.023 0.023,-0.046 0.034,-0.069 -0.011,0.023 -0.023,0.046 -0.034,0.069 z m 0.034,-0.075 c 0.026,-0.055 0.052,-0.108 0.077,-0.16 -0.025,0.052 -0.051,0.105 -0.077,0.16 z m 0.08,-0.166 c 0.008,-0.024 0.02,-0.047 0.031,-0.07 -0.011,0.023 -0.023,0.046 -0.031,0.07 z m 0.043,-0.093 c 0.008,-0.017 0.017,-0.036 0.025,-0.053 -0.008,0.017 -0.017,0.036 -0.025,0.053 z m 0.039,-0.079 c 0.006,-0.018 0.015,-0.032 0.023,-0.049 -0.008,0.017 -0.017,0.031 -0.023,0.049 z m 0.037,-0.075 c 0.009,-0.018 0.017,-0.036 0.023,-0.05 -0.006,0.014 -0.014,0.032 -0.023,0.05 z m 0.037,-0.079 c 0.008,-0.015 0.017,-0.032 0.026,-0.047 -0.009,0.015 -0.018,0.032 -0.026,0.047 z m 0.04,-0.076 c 0.009,-0.015 0.017,-0.032 0.026,-0.049 -0.009,0.017 -0.017,0.032 -0.026,0.049 z m 0.037,-0.076 c 0.014,-0.023 0.026,-0.046 0.037,-0.07 -0.011,0.024 -0.023,0.047 -0.037,0.07 z m 0.06,-0.11 c 0.005,-0.012 0.011,-0.023 0.017,-0.032 -0.006,0.009 -0.012,0.02 -0.017,0.032 z m 0.037,-0.073 c 0.009,-0.011 0.014,-0.023 0.02,-0.035 -0.006,0.012 -0.011,0.024 -0.02,0.035 z m 0.039,-0.072 c 0.009,-0.012 0.015,-0.024 0.02,-0.036 -0.005,0.012 -0.011,0.024 -0.02,0.036 z m 0.041,-0.076 c 0.008,-0.009 0.013,-0.021 0.02,-0.033 -0.007,0.012 -0.015,0.024 -0.02,0.033 z m 0.042,-0.073 c 0.006,-0.012 0.012,-0.024 0.017,-0.035 -0.005,0.011 -0.011,0.023 -0.017,0.035 z m 0.04,-0.073 c 0.006,-0.012 0.011,-0.024 0.02,-0.032 -0.009,0.008 -0.014,0.02 -0.02,0.032 z m 0.108,-0.189 c 0.003,-0.006 0.009,-0.014 0.015,-0.024 -0.006,0.01 -0.012,0.018 -0.015,0.024 z m 0.04,-0.067 c 0.006,-0.009 0.012,-0.021 0.017,-0.029 -0.005,0.011 -0.011,0.02 -0.017,0.029 z m 0.043,-0.07 c 0.006,-0.012 0.008,-0.02 0.014,-0.029 -0.003,0.009 -0.008,0.017 -0.014,0.029 z m 0.042,-0.073 c 0.006,-0.008 0.012,-0.017 0.015,-0.026 -0.003,0.009 -0.009,0.018 -0.015,0.026 z m 0.043,-0.073 c 0.005,-0.009 0.009,-0.014 0.014,-0.02 -0.005,0.006 -0.009,0.011 -0.014,0.02 z m 0.046,-0.072 c 0.002,-0.004 0.005,-0.009 0.008,-0.015 -0.003,0.006 -0.006,0.011 -0.008,0.015 z m 0.162,-0.259 c 0.002,-0.004 0.006,-0.009 0.008,-0.012 -0.002,0.003 -0.006,0.008 -0.008,0.012 z m 0.043,-0.065 c 0.005,-0.005 0.008,-0.011 0.011,-0.017 -0.003,0.006 -0.006,0.012 -0.011,0.017 z m 0.045,-0.067 c 0.003,-0.005 0.006,-0.011 0.011,-0.017 -0.005,0.006 -0.008,0.012 -0.011,0.017 z m 0.046,-0.072 c 0.002,-0.003 0.006,-0.006 0.008,-0.009 -0.002,0.003 -0.006,0.006 -0.008,0.009 z m 0.045,-0.067 c 0.003,-0.003 0.003,-0.003 0.006,-0.006 -0.003,0.003 -0.003,0.006 -0.006,0.006 z m 0.179,-0.257 c 0,-0.002 0.003,-0.002 0.003,-0.005 0,0.003 -0.003,0.003 -0.003,0.005 z m 0.043,-0.061 c 0.003,-0.006 0.005,-0.008 0.009,-0.011 -0.004,0.003 -0.006,0.005 -0.009,0.011 z m 0.048,-0.067 c 0.003,-0.002 0.006,-0.005 0.009,-0.011 -0.003,0.006 -0.006,0.009 -0.009,0.011 z m 0.049,-0.066 c 0,-0.004 0.003,-0.004 0.003,-0.006 0,0.002 0,0.002 -0.003,0.006 z m 0.336,-0.443 0.002,-0.003 z m 0.352,-0.43 c 0,-0.004 0.003,-0.004 0.003,-0.004 0,0 -0.003,0 -0.003,0.004 z m 0.051,-0.062 c 0.004,0 0.004,-0.003 0.007,-0.006 -0.003,0.003 -0.003,0.006 -0.007,0.006 z m 0.376,-0.419 c 0,-0.003 0,-0.003 0,-0.003 0,0 0,0 0,0.003 z m 0.052,-0.058 c 0.002,0 0.002,-0.004 0.005,-0.006 -0.003,0.002 -0.003,0.002 -0.005,0.006 z m 0.392,-0.405 c 0.003,-0.003 0.003,-0.003 0.006,-0.003 -0.003,0 -0.003,0 -0.006,0.003 z m 0.057,-0.055 c 0.003,-0.003 0.006,-0.006 0.009,-0.009 -0.003,0.003 -0.006,0.006 -0.009,0.009 z m 0.06,-0.059 c 0.003,-0.002 0.003,-0.002 0.006,-0.005 -0.003,0.003 -0.006,0.003 -0.006,0.005 z m 0.41,-0.387 c 0.005,-0.003 0.008,-0.005 0.011,-0.009 -0.003,0.004 -0.006,0.006 -0.011,0.009 z m 0.063,-0.055 c 0.002,-0.003 0.005,-0.006 0.008,-0.009 -0.003,0.003 -0.006,0.006 -0.008,0.009 z m 0.062,-0.055 c 0.003,-0.003 0.005,-0.006 0.009,-0.009 -0.004,0.003 -0.006,0.006 -0.009,0.009 z m 0.307,-0.265 c 0.003,-0.003 0.006,-0.003 0.006,-0.006 -0.003,0.003 -0.003,0.003 -0.006,0.006 z m 0.06,-0.05 c 0.005,-0.003 0.009,-0.009 0.014,-0.011 -0.005,0.002 -0.009,0.008 -0.014,0.011 z m 0.066,-0.055 c 0.002,-0.003 0.008,-0.006 0.014,-0.009 -0.006,0.003 -0.012,0.006 -0.014,0.009 z m 0.065,-0.053 c 0.006,-0.002 0.008,-0.008 0.014,-0.011 -0.006,0.003 -0.008,0.009 -0.014,0.011 z m 0.066,-0.052 c 0.002,-0.003 0.005,-0.005 0.011,-0.009 -0.006,0.004 -0.009,0.006 -0.011,0.009 z m 0.247,-0.195 c 0.008,-0.006 0.011,-0.008 0.019,-0.014 -0.008,0.006 -0.013,0.008 -0.019,0.014 z m 0.065,-0.05 c 0.009,-0.006 0.015,-0.011 0.023,-0.017 -0.008,0.006 -0.014,0.011 -0.023,0.017 z m 0.069,-0.052 c 0.008,-0.006 0.017,-0.011 0.025,-0.017 -0.008,0.006 -0.017,0.011 -0.025,0.017 z m 0.068,-0.053 c 0.011,-0.005 0.02,-0.011 0.028,-0.019 -0.008,0.005 -0.019,0.014 -0.028,0.019 z m 0.071,-0.052 c 0.009,-0.005 0.02,-0.014 0.029,-0.02 -0.009,0.009 -0.02,0.015 -0.029,0.02 z m 0.072,-0.049 c 0.008,-0.009 0.017,-0.015 0.025,-0.021 -0.008,0.006 -0.017,0.012 -0.025,0.021 z m 0.104,-0.078 c 0.012,-0.01 0.023,-0.015 0.034,-0.024 -0.011,0.009 -0.022,0.018 -0.034,0.024 z m 0.071,-0.05 c 0.012,-0.009 0.024,-0.017 0.038,-0.026 -0.014,0.009 -0.026,0.017 -0.038,0.026 z m 0.072,-0.049 c 0.014,-0.01 0.025,-0.018 0.04,-0.03 -0.015,0.009 -0.026,0.02 -0.04,0.03 z m 0.074,-0.053 c 0.014,-0.009 0.025,-0.018 0.037,-0.026 -0.012,0.008 -0.023,0.017 -0.037,0.026 z m 0.074,-0.05 c 0.014,-0.008 0.028,-0.02 0.043,-0.029 -0.015,0.009 -0.029,0.021 -0.043,0.029 z m 0.074,-0.049 c 0.014,-0.012 0.031,-0.02 0.045,-0.032 -0.014,0.012 -0.031,0.02 -0.045,0.032 z m 0.074,-0.05 c 0.025,-0.017 0.051,-0.034 0.074,-0.049 -0.023,0.015 -0.049,0.032 -0.074,0.049 z m 10.925,-3.169 c 0.85,-0.065 1.704,-0.097 2.549,-0.097 0.566,0 1.13,0.015 1.682,0.044 0.003,0 0.003,0 0.003,0 -0.558,-0.029 -1.124,-0.044 -1.693,-0.044 -0.842,0 -1.693,0.032 -2.541,0.097 z"
         inkscape:connector-curvature="0"
         style="fill:#f5d1d9" />
      <path
         id="svg_22"
         d="m 579.393,483 c -3.184,0 -6.126,-1.033 -8.529,-2.784 -0.568,-1.519 -0.851,-3.108 -0.862,-4.698 0,-0.003 0,-0.005 0,-0.009 0,-0.019 -0.002,-0.042 -0.002,-0.061 0,-0.006 0,-0.011 0,-0.018 0,-0.019 0,-0.039 0,-0.059 0.002,-0.006 0.002,-0.014 0.002,-0.022 0,-0.017 0,-0.037 0,-0.054 0,-0.008 0,-0.02 0,-0.028 0,-0.017 0,-0.034 0,-0.051 0,-0.014 0,-0.028 0,-0.043 0,-0.013 0,-0.025 0.004,-0.039 0,-0.026 0,-0.048 0,-0.074 0,-0.008 0,-0.016 0,-0.024 0.002,-0.02 0.002,-0.037 0.002,-0.057 0,-0.009 0,-0.017 0,-0.026 0,-0.019 0.003,-0.037 0.003,-0.056 0,-0.009 0,-0.017 0,-0.022 0.002,-0.023 0.003,-0.043 0.003,-0.066 0,-0.005 0,-0.011 0,-0.013 0.003,-0.026 0.003,-0.049 0.005,-0.071 0,-0.006 0,-0.009 0,-0.012 0.006,-0.113 0.011,-0.226 0.02,-0.335 0.003,-0.029 0.005,-0.057 0.008,-0.085 v -0.003 c 0.003,-0.028 0.003,-0.054 0.006,-0.082 0,0 0,0 0,-0.003 0.117,-1.355 0.429,-2.693 0.926,-3.978 l 0.002,-0.003 c 0.009,-0.025 0.02,-0.051 0.029,-0.076 0.002,0 0.002,-0.003 0.002,-0.003 0.009,-0.025 0.02,-0.051 0.028,-0.073 0.003,-0.003 0.003,-0.006 0.006,-0.009 0.008,-0.022 0.019,-0.048 0.028,-0.074 0,0 0.002,-0.002 0.002,-0.005 0.042,-0.104 0.087,-0.206 0.132,-0.311 0.003,-0.005 0.003,-0.008 0.005,-0.011 0.009,-0.022 0.02,-0.045 0.028,-0.067 0.003,-0.003 0.006,-0.009 0.006,-0.012 0.011,-0.023 0.019,-0.042 0.03,-0.065 0,-0.003 0.003,-0.008 0.003,-0.011 0.011,-0.023 0.02,-0.043 0.031,-0.065 0.003,-0.003 0.003,-0.009 0.006,-0.015 0.011,-0.022 0.022,-0.044 0.033,-0.067 0,-0.003 0,-0.005 0,-0.005 0.025,-0.054 0.051,-0.105 0.075,-0.156 0,-0.003 0,-0.003 0.003,-0.005 0.008,-0.023 0.02,-0.046 0.031,-0.068 0.002,-0.006 0.008,-0.015 0.011,-0.023 0.008,-0.016 0.017,-0.034 0.025,-0.051 0.003,-0.008 0.008,-0.017 0.014,-0.026 0.005,-0.016 0.014,-0.03 0.022,-0.047 0.006,-0.009 0.009,-0.017 0.014,-0.025 0.009,-0.017 0.017,-0.035 0.022,-0.048 0.006,-0.009 0.011,-0.02 0.015,-0.028 0.008,-0.015 0.016,-0.032 0.025,-0.046 0.002,-0.009 0.008,-0.017 0.013,-0.028 0.009,-0.017 0.017,-0.031 0.026,-0.048 0.003,-0.009 0.008,-0.017 0.011,-0.026 0.014,-0.022 0.025,-0.044 0.036,-0.068 0.009,-0.013 0.014,-0.024 0.022,-0.039 0.006,-0.011 0.011,-0.022 0.017,-0.031 0.005,-0.014 0.014,-0.026 0.02,-0.039 0.008,-0.012 0.014,-0.023 0.019,-0.035 0.006,-0.011 0.014,-0.025 0.019,-0.036 0.009,-0.011 0.015,-0.023 0.02,-0.034 0.006,-0.014 0.014,-0.025 0.02,-0.039 0.005,-0.009 0.013,-0.02 0.02,-0.032 0.008,-0.014 0.013,-0.025 0.022,-0.039 0.005,-0.011 0.011,-0.023 0.016,-0.034 0.009,-0.011 0.015,-0.023 0.023,-0.036 0.005,-0.012 0.011,-0.023 0.019,-0.031 0.02,-0.037 0.039,-0.071 0.059,-0.105 0.009,-0.017 0.02,-0.032 0.028,-0.048 0.003,-0.006 0.008,-0.014 0.014,-0.023 0.008,-0.014 0.016,-0.028 0.025,-0.042 0.006,-0.009 0.011,-0.017 0.017,-0.028 0.008,-0.015 0.016,-0.028 0.025,-0.04 0.006,-0.011 0.011,-0.019 0.013,-0.028 0.012,-0.015 0.02,-0.028 0.028,-0.043 0.006,-0.008 0.012,-0.016 0.014,-0.025 0.011,-0.017 0.02,-0.031 0.028,-0.045 0.006,-0.009 0.009,-0.014 0.014,-0.02 0.009,-0.017 0.02,-0.034 0.031,-0.05 0.003,-0.004 0.006,-0.009 0.008,-0.015 0.051,-0.079 0.1,-0.158 0.151,-0.237 0.002,-0.003 0.006,-0.009 0.008,-0.011 0.012,-0.017 0.023,-0.034 0.034,-0.051 0.006,-0.006 0.008,-0.011 0.011,-0.017 0.011,-0.017 0.022,-0.031 0.033,-0.048 0.003,-0.006 0.006,-0.011 0.011,-0.017 0.011,-0.017 0.023,-0.034 0.034,-0.054 0.003,-0.003 0.006,-0.005 0.008,-0.008 0.011,-0.019 0.026,-0.037 0.037,-0.056 0.003,0 0.003,-0.004 0.005,-0.006 0.056,-0.082 0.112,-0.164 0.17,-0.243 0,-0.003 0.003,-0.003 0.003,-0.006 0.015,-0.017 0.026,-0.037 0.039,-0.053 0.003,-0.006 0.006,-0.008 0.009,-0.012 0.011,-0.016 0.025,-0.033 0.039,-0.053 0.003,-0.003 0.005,-0.006 0.008,-0.011 0.011,-0.017 0.026,-0.037 0.039,-0.054 0.003,-0.003 0.003,-0.003 0.003,-0.006 0.092,-0.121 0.184,-0.242 0.279,-0.364 0.017,-0.02 0.034,-0.04 0.048,-0.059 l 0.002,-0.003 c 0.112,-0.141 0.226,-0.28 0.343,-0.415 0,-0.003 0.003,-0.003 0.003,-0.003 0.017,-0.02 0.031,-0.037 0.047,-0.056 0.003,0 0.003,-0.003 0.006,-0.007 0.118,-0.135 0.24,-0.27 0.363,-0.4 0,-0.003 0,-0.003 0,-0.003 0.016,-0.017 0.033,-0.037 0.05,-0.054 0.003,-0.003 0.003,-0.003 0.006,-0.005 0.016,-0.017 0.033,-0.037 0.053,-0.054 0.106,-0.113 0.214,-0.223 0.326,-0.333 0.003,-0.003 0.003,-0.003 0.006,-0.003 0.017,-0.017 0.033,-0.034 0.05,-0.05 0.003,-0.004 0.005,-0.006 0.008,-0.009 0.017,-0.017 0.034,-0.031 0.05,-0.048 0,-0.003 0.003,-0.003 0.006,-0.006 0.016,-0.017 0.036,-0.033 0.053,-0.051 0.114,-0.107 0.228,-0.214 0.343,-0.319 0.006,-0.003 0.009,-0.005 0.011,-0.008 0.017,-0.014 0.034,-0.032 0.051,-0.045 0.002,-0.003 0.005,-0.006 0.008,-0.009 0.016,-0.014 0.036,-0.031 0.053,-0.045 0.003,-0.003 0.005,-0.005 0.008,-0.009 0.098,-0.081 0.192,-0.166 0.293,-0.248 0.003,-0.003 0.003,-0.003 0.005,-0.005 0.018,-0.015 0.037,-0.029 0.053,-0.043 0.006,-0.003 0.009,-0.009 0.015,-0.011 0.016,-0.014 0.033,-0.029 0.05,-0.042 0.003,-0.004 0.008,-0.006 0.014,-0.009 0.016,-0.014 0.034,-0.028 0.05,-0.043 0.006,-0.002 0.008,-0.008 0.014,-0.011 0.016,-0.013 0.034,-0.028 0.05,-0.039 0.003,-0.003 0.006,-0.006 0.011,-0.009 0.076,-0.061 0.154,-0.121 0.232,-0.181 0.006,-0.005 0.011,-0.008 0.019,-0.013 0.014,-0.011 0.031,-0.023 0.045,-0.035 0.008,-0.005 0.014,-0.011 0.022,-0.017 0.017,-0.011 0.031,-0.022 0.045,-0.033 0.008,-0.006 0.017,-0.011 0.025,-0.017 0.014,-0.011 0.028,-0.022 0.042,-0.034 0.009,-0.006 0.02,-0.014 0.028,-0.02 0.014,-0.008 0.028,-0.02 0.041,-0.031 0.009,-0.005 0.02,-0.011 0.029,-0.02 0.013,-0.008 0.028,-0.019 0.042,-0.028 0.008,-0.009 0.016,-0.014 0.024,-0.02 0.026,-0.017 0.053,-0.037 0.079,-0.056 0.011,-0.005 0.022,-0.014 0.033,-0.023 0.012,-0.008 0.025,-0.017 0.036,-0.025 0.011,-0.009 0.023,-0.017 0.037,-0.025 0.011,-0.006 0.022,-0.015 0.034,-0.023 0.013,-0.009 0.024,-0.02 0.038,-0.029 0.011,-0.005 0.023,-0.013 0.034,-0.022 0.014,-0.008 0.025,-0.017 0.036,-0.025 0.014,-0.006 0.025,-0.014 0.036,-0.023 0.015,-0.008 0.028,-0.019 0.042,-0.028 0.008,-0.006 0.02,-0.015 0.031,-0.02 0.014,-0.011 0.03,-0.019 0.044,-0.031 0.011,-0.006 0.02,-0.012 0.028,-0.017 0.025,-0.017 0.051,-0.034 0.073,-0.048 2.656,-1.723 6.628,-2.73 10.638,-3.026 0.831,-0.063 1.665,-0.094 2.491,-0.094 0.557,0 1.112,0.014 1.66,0.042 1.537,2.341 2.432,5.151 2.432,8.175 0,8.162 -6.539,14.783 -14.607,14.783 z"
         inkscape:connector-curvature="0"
         style="fill:#c87d69" />
      <path
         id="svg_23"
         d="m 605.498,456 c -1.377,0 -2.498,-1.122 -2.498,-2.502 0,-1.377 1.121,-2.498 2.498,-2.498 1.381,0 2.502,1.121 2.502,2.498 0,1.38 -1.121,2.502 -2.502,2.502 z"
         inkscape:connector-curvature="0"
         style="fill:#ffffff" />
      <path
         id="svg_24"
         d="M 606,394.001 C 606,410.015 593.019,423 577,423 560.984,423 548,410.015 548,394.001 548,377.985 560.984,365 577,365 c 16.019,0 29,12.985 29,29.001 z"
         inkscape:connector-curvature="0"
         style="fill:#87c595" />
      <path
         id="svg_25"
         d="m 571,390 c -1.101,0 -2,-0.927 -2,-2.062 v -6.876 c 0,-1.135 0.899,-2.062 2,-2.062 1.101,0 2,0.927 2,2.062 v 6.876 c 0,1.135 -0.899,2.062 -2,2.062 z"
         inkscape:connector-curvature="0"
         style="fill:#ffffff" />
      <path
         id="svg_26"
         d="m 576.001,382 c -0.55,0 -1.001,-0.508 -1.001,-1.125 v -8.755 c 0,-0.618 0.451,-1.12 1.001,-1.12 0.551,0 0.999,0.502 0.999,1.12 v 8.755 c 0,0.617 -0.448,1.125 -0.999,1.125 z"
         inkscape:connector-curvature="0"
         style="fill:#ffffff" />
      <path
         id="svg_27"
         d="M 585.503,389 C 584.678,389 584,388.46 584,387.8 v -5.597 c 0,-0.66 0.678,-1.203 1.503,-1.203 0.822,0 1.497,0.543 1.497,1.203 v 5.597 c 0,0.66 -0.675,1.2 -1.497,1.2 z"
         inkscape:connector-curvature="0"
         style="fill:#ffffff" />
      <path
         id="svg_28"
         d="m 597,392 c 0,11.045 -8.957,20 -20.001,20 C 565.954,412 557,403.045 557,392 Z"
         inkscape:connector-curvature="0"
         style="fill:#e8e8e8" />
      <path
         id="svg_29"
         d="m 588,392 h -31 c 0,6.479 3.001,12.242 7.669,15.944 1.86,0.68 3.87,1.056 5.967,1.056 9.45,0 17.133,-7.572 17.364,-17 z"
         inkscape:connector-curvature="0"
         style="fill:#ffffff" />
      <path
         id="svg_30"
         d="m 572,414 h 10 v -4 h -10 z"
         inkscape:connector-curvature="0"
         style="fill:#e8e8e8" />
      <path
         id="svg_31"
         d="M 677.502,434 C 663.414,434 652,422.583 652,408.5 652,394.414 663.414,383 677.502,383 691.585,383 703,394.414 703,408.5 703,422.583 691.585,434 677.502,434 Z"
         inkscape:connector-curvature="0"
         style="fill:#ffc1ca" />
      <path
         id="svg_32"
         d="m 686,413 c 0,0 -1.985,4.497 -2.836,9 H 670.836 C 669.984,417.497 668,413 668,413 Z"
         inkscape:connector-curvature="0"
         style="fill:#fa7071" />
      <path
         id="svg_33"
         d="M 685.001,415.822 C 685.557,414.118 686,413 686,413 h -18 c 0,0 0.474,1.197 1.059,3.008 2.34,0.632 4.911,0.992 7.623,0.992 2.979,0 5.8,-0.424 8.319,-1.178 z"
         inkscape:connector-curvature="0"
         style="fill:#df5244" />
      <path
         id="svg_34"
         d="M 672.606,399.252 C 668.066,401 664,404.445 664,409.767 c 0,0.892 0.122,1.752 0.345,2.582 3.269,1.651 7.514,2.651 12.155,2.651 4.643,0 8.882,-1 12.152,-2.651 0.225,-0.83 0.348,-1.69 0.348,-2.582 0,-4.497 -3.353,-8.353 -9.097,-10.767 z"
         inkscape:connector-curvature="0"
         style="fill:#f0f0f0" />
      <path
         id="svg_35"
         d="m 682,401.26 c 0,-0.484 -0.042,-0.959 -0.101,-1.43 -0.586,-0.29 -1.196,-0.569 -1.846,-0.83 l -7.366,0.242 c -4.582,1.682 -8.687,4.995 -8.687,10.114 0,0.847 0.12,1.669 0.343,2.453 1.623,0.756 3.438,1.191 5.365,1.191 6.786,0 12.292,-5.256 12.292,-11.74 z"
         inkscape:connector-curvature="0"
         style="fill:#ffffff" />
      <path
         id="svg_36"
         d="m 680,396 c 0,2.211 -1.791,4 -3.999,4 -2.208,0 -4.001,-1.789 -4.001,-4 0,-2.209 1.793,-4 4.001,-4 2.208,0 3.999,1.791 3.999,4 z"
         inkscape:connector-curvature="0"
         style="fill:#fa7071" />
      <path
         id="svg_37"
         d="m 663.241,336 c -1.77,0 -3.517,-0.083 -5.241,-0.239 1.127,-0.597 2.244,-1.179 3.381,-1.761 0.875,0.657 1.753,1.327 2.619,1.995 -0.253,0.002 -0.503,0.005 -0.759,0.005 z"
         inkscape:connector-curvature="0"
         style="fill:#dbe0ff" />
      <path
         id="svg_38"
         d="m 426.329,411.966 c 0.021,-0.204 0.043,-0.41 0.064,-0.62 0.016,0.181 0.033,0.367 0.051,0.555 z"
         inkscape:connector-curvature="0"
         style="fill:#cae2fb" />
      <path
         id="svg_39"
         d="m 1082.65,301.409 c 7.35,0.563 16.39,5.65 19.78,31.648 3.38,25.997 1.69,39.56 1.69,39.56 l -35.02,-1.132 c 0,0 -4.7,-70.919 8.67,-70.215 z"
         inkscape:connector-curvature="0"
         style="fill:#5fa469" />
      <path
         id="svg_40"
         d="m 1094.35,436.04 v -0.002 c 0.89,-0.943 1.78,-1.899 2.67,-2.89 0,0.002 0.01,0.007 0.01,0.009 -0.89,0.979 -1.79,1.941 -2.68,2.883 z m 20.89,-32.784 c -0.01,-0.012 -0.01,-0.027 -0.02,-0.041 0.63,-1.885 1.22,-3.777 1.78,-5.682 0,0.005 0,0.008 0,0.01 -0.56,1.917 -1.14,3.823 -1.76,5.713 z"
         inkscape:connector-curvature="0"
         style="fill:#e0e3ff" />
      <path
         id="svg_41"
         d="m 1063.96,320.519 26.08,0.559 c 0,0 2.78,40.334 11.1,50.417 l -34.4,1.122 c 0,0 -19.98,-48.178 -2.78,-52.098 z"
         inkscape:connector-curvature="0"
         style="fill:#87c595" />
      <path
         id="svg_42"
         d="m 872.952,299.002 c -17.023,-0.19 -31.545,12.261 -33.933,29.091 l -48.198,339.57 287.109,1.686 -5.48,-350.649 c 0,0 3.05,-16.558 9.61,-16.418 11.62,-0.988 -28.89,-1.289 -28.89,-1.289 z"
         inkscape:connector-curvature="0"
         style="fill:#87c595" />
      <path
         id="svg_43"
         d="m 1114.73,654.16 -41.9,-335.906 5.39,351.095 z"
         inkscape:connector-curvature="0"
         style="fill:#5fa469" />
      <path
         id="svg_44"
         d="m 930.809,420.773 c 6.224,0.48 13.886,4.787 16.76,26.808 2.872,22.021 1.436,33.51 1.436,33.51 l -29.688,-0.958 c 0,0 -3.977,-60.072 7.347,-59.477 z"
         inkscape:connector-curvature="0"
         style="fill:#dcc075" />
      <path
         id="svg_45"
         d="m 915.007,436.571 22.506,0.477 c 0,0 2.394,34.468 9.576,43.085 l -29.687,0.958 c 0,0 -17.24,-41.168 -2.395,-44.52 z"
         inkscape:connector-curvature="0"
         style="fill:#f1e5c5" />
      <path
         id="svg_46"
         d="m 782.684,419.054 c -12.163,-0.136 -22.54,8.77 -24.247,20.812 L 724,682.792 l 205.145,1.207 -3.914,-250.855 c 0,0 2.18,-11.844 6.867,-11.745 8.305,-0.705 -20.647,-0.92 -20.647,-0.92 z"
         inkscape:connector-curvature="0"
         style="fill:#fff9c4" />
      <path
         id="svg_47"
         d="M 955.685,673.144 979.81,661.888 925.231,433.147 Z"
         inkscape:connector-curvature="0"
         style="fill:#dcc075" />
      <path
         id="svg_48"
         d="m 955.685,673.144 -30.454,-239.997 3.915,250.852 z"
         inkscape:connector-curvature="0"
         style="fill:#dcc075" />
      <path
         id="svg_49"
         d="M 979.057,436.099 C 965.771,436.099 955,425.33 955,412.05 955,398.77 965.771,388 979.057,388 c 13.285,0 24.053,10.77 24.053,24.05 0,13.28 -10.768,24.049 -24.053,24.049 z"
         inkscape:connector-curvature="0"
         style="fill:#d0dd77" />
      <path
         id="svg_50"
         d="m 1011.13,500.232 c -9.12,0 -16.508,-7.391 -16.508,-16.504 0,-9.115 7.388,-16.506 16.508,-16.506 6.84,0 12.71,4.163 15.22,10.091 l 0.19,12.352 c -2.38,6.181 -8.38,10.567 -15.41,10.567 z"
         inkscape:connector-curvature="0"
         style="fill:#d0dd77" />
      <path
         id="svg_51"
         d="m 799,369.493 c 0,19.6 -15.895,35.487 -35.5,35.487 -19.603,0 -35.5,-15.887 -35.5,-35.487 0,-19.605 15.897,-35.493 35.5,-35.493 19.605,0 35.5,15.888 35.5,35.493 z"
         inkscape:connector-curvature="0"
         style="fill:#bfd4f8" />
      <path
         id="svg_52"
         d="M 765.863,348.823 H 745.03 c -0.957,0 -1.734,0.741 -1.734,1.651 0,1.249 1.065,2.26 2.376,2.26 h 5.387 c 0.806,0 1.457,0.622 1.457,1.385 0,1.154 -0.983,2.088 -2.197,2.088 h -12.834 c -1.617,0 -2.926,1.243 -2.926,2.779 v 1.39 c 0,1.535 1.309,2.781 2.926,2.781 h 8.909 c 0.835,0 1.51,0.64 1.51,1.435 v 1.254 c 0,0.792 -0.675,1.437 -1.51,1.437 h -10.752 c -1.402,0 -2.537,1.077 -2.537,2.41 v 1.04 c 0,1.332 1.135,2.412 2.537,2.412 h 16.376 c 1.214,0 2.196,0.933 2.196,2.088 v 0.382 c 0,1.154 -0.982,2.088 -2.196,2.088 h -6.778 c -1.878,0 -3.4,1.449 -3.4,3.235 v 0.915 c 0,1.786 1.522,3.232 3.4,3.232 h 27.903 z"
         inkscape:connector-curvature="0"
         style="fill:#ffffff" />
      <path
         id="svg_53"
         d="m 792.533,366.378 c 0,11.716 -9.454,21.217 -21.117,21.217 -11.662,0 -21.119,-9.501 -21.119,-21.217 0,-11.716 9.457,-21.214 21.119,-21.214 11.663,0 21.117,9.498 21.117,21.214 z"
         inkscape:connector-curvature="0"
         style="fill:#f3a9b8" />
      <path
         id="svg_54"
         d="m 790.76,366.535 c 0,10.246 -8.309,18.552 -18.56,18.552 -10.25,0 -18.558,-8.306 -18.558,-18.552 0,-10.25 8.308,-18.555 18.558,-18.555 10.251,0 18.56,8.305 18.56,18.555 z"
         inkscape:connector-curvature="0"
         style="fill:#ffffff" />
      <path
         id="svg_55"
         d="m 772.292,365.072 9.794,-9.791 -9.143,14.035 z"
         inkscape:connector-curvature="0"
         style="fill:#2e3054" />
      <path
         id="svg_56"
         d="m 772.292,365.073 -7.837,-3.263 8.488,7.507 1.306,-1.958 z"
         inkscape:connector-curvature="0"
         style="fill:#2e3054" />
      <path
         id="svg_57"
         d="m 773.396,352.345 c 0,0.659 -0.535,1.193 -1.194,1.193 -0.661,0 -1.195,-0.534 -1.195,-1.193 0,-0.661 0.534,-1.192 1.195,-1.192 0.659,0 1.194,0.531 1.194,1.192 z"
         inkscape:connector-curvature="0"
         style="fill:#4f5a79" />
      <path
         id="svg_58"
         d="m 773.396,380.198 c 0,0.662 -0.535,1.196 -1.194,1.196 -0.661,0 -1.195,-0.534 -1.195,-1.196 0,-0.658 0.534,-1.19 1.195,-1.19 0.659,0 1.194,0.532 1.194,1.19 z"
         inkscape:connector-curvature="0"
         style="fill:#4f5a79" />
      <path
         id="svg_59"
         d="m 786.135,367.466 c -0.662,0 -1.194,-0.535 -1.194,-1.196 0,-0.658 0.532,-1.192 1.194,-1.192 0.658,0 1.193,0.534 1.193,1.192 0,0.661 -0.535,1.196 -1.193,1.196 z"
         inkscape:connector-curvature="0"
         style="fill:#4f5a79" />
      <path
         id="svg_60"
         d="m 758.268,367.466 c -0.656,0 -1.19,-0.535 -1.19,-1.196 0,-0.658 0.534,-1.192 1.19,-1.192 0.661,0 1.196,0.534 1.196,1.192 0,0.661 -0.535,1.196 -1.196,1.196 z"
         inkscape:connector-curvature="0"
         style="fill:#4f5a79" />
      <path
         id="svg_61"
         d="m 279.208,496.609 c -0.038,-0.019 -0.077,-0.038 -0.115,-0.057 0.039,0.019 0.076,0.038 0.115,0.057 z m 64.053,-88.172 c 0.767,-0.593 1.516,-1.174 2.248,-1.742 10e-4,0.003 10e-4,0.003 10e-4,0.003 -0.733,0.565 -1.482,1.146 -2.249,1.739 z m -77.633,-14.091 c -0.708,-0.438 -1.427,-0.886 -2.156,-1.342 l -10e-4,-0.003 c 0.724,0.453 1.452,0.908 2.157,1.345 z"
         inkscape:connector-curvature="0"
         style="fill:#e5f0fe" />
      <path
         id="svg_62"
         d="m 323.708,366.914 c 10.419,19.278 3.232,43.357 -16.056,53.781 -19.286,10.423 -43.365,3.241 -53.783,-16.037 -10.42,-19.281 -3.238,-43.363 16.049,-53.786 19.287,-10.423 43.37,-3.239 53.79,16.042 z"
         inkscape:connector-curvature="0"
         style="fill:#ea5a63" />
      <path
         id="svg_63"
         d="m 304.423,415.641 74.494,50.622 -69.304,-68.015 z"
         inkscape:connector-curvature="0"
         style="fill:#ea5a63" />
      <path
         id="svg_64"
         d="m 286.835,386.866 c -5.226,2.824 -11.752,0.876 -14.574,-4.346 -2.821,-5.219 -0.873,-11.742 4.353,-14.566 5.224,-2.823 11.748,-0.878 14.568,4.341 2.822,5.221 0.877,11.748 -4.347,14.571 z m -13.288,-24.587 c -8.36,4.518 -11.478,14.954 -6.963,23.309 4.518,8.359 32.008,23.033 32.008,23.033 0,0 2.784,-31.035 -1.734,-39.394 -4.515,-8.356 -14.949,-11.467 -23.311,-6.948 z"
         inkscape:connector-curvature="0"
         style="fill:#ffffff" />
      <path
         id="svg_65"
         d="M -5.36501,609.133 C 72.4932,585.917 115.397,421.735 115.818,420.077 l -2.199,-0.557 C 113.19,421.159 70.6221,584.128 -6.03063,606.993 Z"
         inkscape:connector-curvature="0"
         style="fill:#87c595" />
      <path
         id="svg_66"
         d="m 24.2619,590.245 c -0.0494,0.369 0.3612,-9.569 -1.5026,-19.923 -1.9005,-10.559 -6.1686,-21.548 -15.70439,-22.47 -18.88121,-1.818 17.10669,43.137 17.10669,43.137 z"
         inkscape:connector-curvature="0"
         style="fill:#87c595" />
      <path
         id="svg_67"
         d="m 43.4078,573.225 c 0,0 -5.5828,-49.114 -21.6136,-43.751 -16.02959,5.359 21.6136,43.751 21.6136,43.751 z"
         inkscape:connector-curvature="0"
         style="fill:#87c595" />
      <path
         id="svg_68"
         d="m 59.4262,550.407 c 0,0 -9.481,-53.635 -29.5066,-45.846 -15.1657,5.896 29.5066,45.846 29.5066,45.846 z"
         inkscape:connector-curvature="0"
         style="fill:#87c595" />
      <path
         id="svg_69"
         d="m 82.0639,508.254 c 0,0 -4.5316,-51.236 -20.9714,-42.911 -16.4348,8.336 20.9714,42.911 20.9714,42.911 z"
         inkscape:connector-curvature="0"
         style="fill:#87c595" />
      <path
         id="svg_70"
         d="m 75.1097,525.136 c 0,0 -17.0228,-49.275 -30.5704,-36.888 -9.1068,8.34 30.5704,36.888 30.5704,36.888 z"
         inkscape:connector-curvature="0"
         style="fill:#87c595" />
      <path
         id="svg_71"
         d="m 94.4452,478.978 c 0,0 -6.1831,-55.998 -22.8158,-46.183 -16.6293,9.809 22.8158,46.183 22.8158,46.183 z"
         inkscape:connector-curvature="0"
         style="fill:#87c595" />
      <path
         id="svg_72"
         d="m 105.083,445.673 c 0,0 0.331,-47.549 -10.3995,-36.167 -10.7236,11.37 10.3995,36.167 10.3995,36.167 z"
         inkscape:connector-curvature="0"
         style="fill:#87c595" />
      <path
         id="svg_73"
         d="m 111.196,434.425 c 0,0 28.628,-36.126 14.551,-39.557 -14.074,-3.438 -14.551,39.557 -14.551,39.557 z"
         inkscape:connector-curvature="0"
         style="fill:#87c595" />
      <path
         id="svg_74"
         d="m 105.084,445.673 c 0,0 45.336,-1.345 36.627,-16.14 -8.709,-14.79 -36.627,16.14 -36.627,16.14 z"
         inkscape:connector-curvature="0"
         style="fill:#87c595" />
      <path
         id="svg_75"
         d="m 97.809,471.124 c 0,0 52.84,-0.334 51.51,-18.644 -1.346,-18.315 -51.51,18.644 -51.51,18.644 z"
         inkscape:connector-curvature="0"
         style="fill:#87c595" />
      <path
         id="svg_76"
         d="m 86.1316,495.214 c 0,0 69.3704,1.928 63.6184,-17.74 -5.743,-19.669 -63.6184,17.74 -63.6184,17.74 z"
         inkscape:connector-curvature="0"
         style="fill:#87c595" />
      <path
         id="svg_77"
         d="m 75.2921,518.66 c 0,0 75.6809,11.856 75.4929,-9.32 -0.192,-21.17 -75.4929,9.32 -75.4929,9.32 z"
         inkscape:connector-curvature="0"
         style="fill:#87c595" />
      <path
         id="svg_78"
         d="m 54.0884,556.55 c 0,0 72.1856,-7.496 72.5706,12.206 0.395,19.691 -72.5706,-12.206 -72.5706,-12.206 z"
         inkscape:connector-curvature="0"
         style="fill:#87c595" />
      <path
         id="svg_79"
         d="m 70.1662,534.27 c 0,0 62.0138,-15.835 64.3158,3.688 2.298,19.519 -64.3158,-3.688 -64.3158,-3.688 z"
         inkscape:connector-curvature="0"
         style="fill:#87c595" />
      <path
         id="svg_80"
         d="m 45.4134,569.719 c 0,0 62.6106,1.014 53.9862,19.478 -8.6253,18.458 -55.9914,-15.971 -55.9914,-15.971 z"
         inkscape:connector-curvature="0"
         style="fill:#87c595" />
      <path
         id="svg_81"
         d="m 92.6957,646.542 c 8.0333,-2.784 16.5223,-5.153 20.9813,-12.65 6.183,-10.385 -1.534,-13.046 -4.945,-23.511 19.662,-3.102 36.084,-0.743 52.199,-15.324 15.873,-14.354 7.663,-28.993 -13.409,-30.884 -2.89,-0.264 18.789,-9.192 22.489,-10.715 8.183,-3.378 15.512,-9.848 20.519,-16.512 9.072,-12.071 11.03,-30.315 -8.195,-35.88 -16.662,-4.821 -28.395,9.983 -37.782,20.125 -4.218,4.555 -9.192,10.45 -12.211,15.954 -7.171,-8.459 -7.591,-21.047 -22.04,-15.471 -10.079,3.894 -16.1805,18.386 -14.1367,27.86 -13.0583,-3.815 -19.5718,-8.488 -32.2813,-3.292 -8.2188,3.355 -17.3439,10.425 -23.8745,17.003 -14.8707,14.978 -48.29185,75.564 -56.4584,95.977 0,0 92.3314,-6.849 109.1446,-12.68 z"
         inkscape:connector-curvature="0"
         style="fill:#e7c264" />
      <path
         id="svg_82"
         d="m 89.9508,649.411 c 0.3542,0.064 0.7094,0.127 1.0617,0.189 1.4193,-0.49 2.8236,-1.002 4.2042,-1.542 -1.2699,-0.224 -2.5419,-0.449 -3.8146,-0.68 -5.3416,-0.972 -10.6983,-2.037 -15.947,-3.303 -7.3398,-1.773 -14.3116,-4.224 -20.7846,-7.933 l -0.0677,2.793 c 1.2774,0.694 2.5739,1.355 3.8994,1.965 5.9333,2.718 12.2085,4.689 18.6581,5.95 4.211,0.823 8.4939,1.779 12.7905,2.561 z m 5.9812,-17.62 c 4.186,0.762 8.419,1.389 12.639,1.595 0.684,0.032 1.347,0.051 2.004,0.061 0.128,-0.529 0.215,-1.042 0.259,-1.531 -0.737,-0.058 -1.472,-0.123 -2.2,-0.201 -3.729,-0.395 -7.486,-0.933 -11.2121,-1.612 -2.927,-0.532 -5.837,-1.152 -8.6998,-1.858 -6.8403,-1.69 -13.3738,-4.049 -19.9989,-6.358 -0.9555,-0.334 -7.8045,-3.627 -9.4719,-3.93 -0.0439,-0.008 -0.0817,-0.013 -0.1181,-0.016 4.4389,-2.703 8.641,-5.638 13.0074,-8.466 1.1491,-0.743 2.3143,-1.467 3.4842,-2.182 l -0.2014,0.047 6.4004,-6.504 c -0.4303,0.282 -0.8607,0.562 -1.2913,0.846 -1.9915,-5.509 -0.5069,-12.608 -0.2208,-17.896 0.4194,-7.712 1.1848,-15.405 2.4498,-23.012 0.5076,-3.052 1.1353,-6.074 1.8173,-9.083 -0.7328,-0.248 -1.4487,-0.492 -2.1487,-0.729 -0.7388,3.108 -1.4069,6.234 -1.9144,9.404 -1.4671,9.18 -2.6543,18.587 -3.0436,27.895 -0.1848,4.515 -0.8358,10.246 1.0863,14.722 -6.0557,3.955 -12.2036,7.799 -18.4414,11.526 -1.0906,-5.782 -2.7918,-11.539 -3.1263,-17.393 -0.5083,-8.826 0.2919,-17.703 1.6308,-26.384 1.1191,-7.257 2.434,-14.72 4.7621,-21.787 -0.781,0.195 -1.5845,0.432 -2.4108,0.711 -2.113,6.742 -3.6323,13.627 -4.6893,20.604 l -0.8057,32.92 c 0.7595,4.243 1.6531,8.451 2.348,12.706 -0.8979,0.53 -1.7974,1.056 -2.6984,1.579 l -0.0693,2.868 c 0.4583,-0.257 0.9151,-0.517 1.3738,-0.776 l 0.4184,-0.251 c 0.158,0.154 0.3475,0.281 0.5847,0.324 0.019,0.003 0.0356,0.006 0.0551,0.008 0.2011,0.025 0.3972,0.054 0.5898,0.089 2.5751,0.469 4.4184,1.854 6.738,2.987 2.6287,1.281 5.6046,2.123 8.3848,3.081 5.6114,1.939 11.2368,3.744 17.0904,4.909 1.8676,0.371 3.7474,0.743 5.6389,1.087 z m 25.684,-29.508 c 11.296,0.775 22.595,0.379 33.312,-2.243 0.297,-0.259 0.594,-0.48 0.891,-0.749 0.024,-0.021 0.047,-0.042 0.071,-0.063 0.678,-0.617 1.295,-1.235 1.888,-1.85 -9.552,1.942 -19.16,3.062 -29.114,3.09 -1.279,0.002 -2.559,-0.021 -3.837,-0.068 -1.011,0.717 -2.087,1.346 -3.211,1.883 z m 11.505,-16.551 c 9.711,-0.356 21.107,-1.359 30.467,-4.926 -0.108,-0.345 -0.228,-0.686 -0.367,-1.02 -8.472,2.815 -18.518,3.729 -27,4.103 -1.029,0.044 -2.059,0.074 -3.091,0.094 0.025,0.582 0.022,1.167 -0.009,1.749 z m -33.007,-20.294 c 0.694,-0.305 1.406,-0.577 2.132,-0.813 0.415,-5.329 0.817,-10.671 1.783,-15.92 1.566,-8.476 3.988,-16.39 7.016,-24.166 -0.931,0.037 -1.95,0.194 -3.06,0.472 -2.875,7.643 -4.752,15.735 -6.07,23.31 -0.983,5.653 -1.231,11.412 -1.801,17.117 z m 26.01,4.186 c 1.839,-1.59 3.719,-3.132 5.682,-4.581 4.262,-3.15 8.512,-5.824 11.94,-9.763 1.194,-1.371 2.413,-2.706 3.626,-4.048 0.259,0.069 0.511,0.124 0.758,0.169 1.921,0.35 3.563,0.04 5.61,0.136 2.75,0.13 5.483,0.506 8.231,0.636 4.188,0.198 8.344,-0.111 12.518,-0.066 0.257,-0.194 0.512,-0.395 0.77,-0.595 -5.103,-0.464 -10.196,-0.067 -15.299,-0.645 -3.999,-0.454 -7.846,-0.558 -11.822,-0.49 4.597,-5.051 9.327,-9.914 14.266,-14.677 0.003,0.002 0.011,0.006 0.024,0.008 0.851,0.155 22,-1.856 27.508,-2.525 0.087,-0.209 0.161,-0.418 0.207,-0.647 -4.103,-0.602 -23.258,0.832 -25.68,1.216 1.072,-1.015 2.138,-2.036 3.233,-3.044 4.742,-4.376 9.579,-8.827 13.958,-13.507 1.845,-1.972 3.863,-4.05 5.57,-6.282 -0.337,-0.341 -0.673,-0.684 -1.049,-1.007 -3.024,3.776 -6.765,7.26 -10.202,10.44 -3.311,3.061 -6.476,6.247 -9.808,9.294 1.101,-5.497 1.907,-11.059 2.78,-16.592 0.438,-2.782 1.17,-5.716 1.693,-8.662 -0.977,0.006 -1.936,0.081 -2.88,0.212 -0.383,2.733 -0.616,5.499 -1.019,8.048 -1.007,6.357 -2.145,12.699 -3.034,19.07 l -0.312,0.386 c -4.36,3.721 -8.263,7.767 -12.054,11.909 0.256,-7.883 1.817,-15.888 3.254,-23.588 0.705,-3.794 1.232,-7.605 2.022,-11.34 -0.92,0.609 -1.827,1.255 -2.709,1.942 -0.425,2.385 -0.852,4.769 -1.275,7.155 -1.562,8.803 -4.202,18.668 -2.986,27.692 -2.843,3.149 -5.654,6.331 -8.573,9.458 -2.267,2.421 -5.005,4.473 -7.805,6.478 2.584,-8.505 3.39,-17.7 4.931,-26.422 0.648,-3.673 1.673,-7.507 2.519,-11.356 -0.431,0.472 -0.856,0.935 -1.276,1.389 -0.812,0.877 -1.653,1.812 -2.501,2.774 -0.392,2.963 -0.731,5.891 -1.199,8.613 -1.433,8.348 -3.871,25.762 -3.715,25.884 -2.15,1.528 -4.3,3.056 -6.264,4.72 -0.381,0.324 -0.76,0.649 -1.138,0.974 0.523,0.394 1.022,0.807 1.5,1.234 z"
         inkscape:connector-curvature="0"
         style="fill:#edfad3" />
      <path
         id="svg_83"
         d="m 1706,366.903 c 45.86,28.86 189.45,41.892 158.83,101.484 66.54,4.682 83.45,26.237 71.2,69.182 1.3,-4.62 24.29,2.538 27.4,4.541 5.17,3.304 10.65,12.106 13.12,16.717 7.84,14.674 6.46,29.621 6.29,44.489 -0.17,17.734 1.87,35.714 5.22,53.427 -35.21,-42.91 -186.2,-67.55 -151.41,-107.001 -23.77,-1.836 -67.78,-3.507 -83.99,-20.052 -20.79,-21.203 10.69,-34.393 33.7,-39.443 -89.38,-23.386 -74.68,-49.624 -56.49,-79.034 l -13.48,-16.168 c -5.83,-8.863 -9.6,-19.027 -10.39,-28.142 z"
         inkscape:connector-curvature="0"
         style="fill:#9cc765" />
      <path
         id="svg_84"
         d="m 1871.49,456.399 c -1.91,-26.885 -14.9,-59.118 -29.21,-83.786 -9.66,-16.681 -37.78,-58.967 -62.32,-55.791 -27.52,3.562 -14,55.714 -5.33,71.928 12.71,23.797 32.01,40.708 53.12,57.85 20.01,16.249 37.5,35.844 57.12,51.242 z"
         inkscape:connector-curvature="0"
         style="fill:#7cc7b9" />
      <path
         id="svg_85"
         d="m 1866.06,489.88 c -8.37,-14.197 -24.26,-28.467 -38.8,-38.272 -9.82,-6.63 -36.72,-22.507 -49.26,-14.472 -14.06,9.013 7.54,34.035 16.7,40.665 13.43,9.732 28.59,14.017 44.79,17.961 15.37,3.734 30.26,9.95 45.18,13.323 z"
         inkscape:connector-curvature="0"
         style="fill:#7cc7b9" />
      <path
         id="svg_86"
         d="m 1955.68,593.491 c 15.91,-26.731 43.41,-38.967 29.52,-75.365 -5.55,-14.55 -19.92,-24.152 -27.17,-37.092 -9.06,-16.163 -2.7,-18.885 -1.29,-35.389 3.07,-35.591 -26.18,-44.373 -44.75,-72.482 -12.96,-19.606 -11.15,-41.79 -28.08,-62.67 -17.17,-21.217 -47.71,-40.858 -55.33,-65.493 -1.14,42.919 -31.11,107.508 13.44,145.862 -24.26,12.101 -27.07,38.06 -13.86,59.162 6.32,10.077 25.1,18.583 29.12,29.082 5.48,14.343 -5.61,14.308 -6.16,26.605 -1.71,39.047 147.42,101.98 112.05,139.452 z"
         inkscape:connector-curvature="0"
         style="fill:#e7c264" />
      <path
         id="svg_87"
         d="m 1949.27,572.999 0.21,-13.289 c 0,0 0,-0.006 0,-0.006 l -0.21,13.288 c 0,0.002 0,0.005 0,0.007 z m -26.69,-70.331 0.97,-7.397 c -2.3,-5.621 -4.56,-11.196 -6.78,-16.693 0.44,-4.124 5.57,-8.953 10.69,-13.239 l 0.7,-5.351 c -0.23,0.19 -0.46,0.382 -0.7,0.573 -4.83,3.968 -10.11,8.307 -12.83,12.685 -0.27,-0.652 -0.54,-1.325 -0.79,-1.974 -5.08,-12.574 -10.67,-25.137 -16.28,-37.456 l 1.04,0.541 c 2.78,-3.82 6.65,-7.287 10.36,-10.644 3.38,-3.05 6.87,-6.197 9.69,-9.691 5.44,-6.805 8.1,-13.993 10.19,-21.1 -1.07,-1.052 -2.14,-2.127 -3.2,-3.22 -2.22,7.837 -4.67,15.288 -10.41,22.44 -2.67,3.334 -6.08,6.405 -9.37,9.38 -3.35,3.018 -6.76,6.154 -9.53,9.597 -1.26,-2.727 -2.5,-5.438 -3.73,-8.133 -0.14,-0.296 -0.27,-0.603 -0.42,-0.894 l 0.16,-0.167 -0.31,-0.159 c -4.42,-9.653 -8.88,-19.435 -13.18,-29.32 11.57,-10.38 20.22,-23.052 25.04,-36.135 -0.75,-2.111 -1.44,-4.24 -2.11,-6.38 -3.94,13.909 -12.52,27.684 -24.5,38.907 -4.96,-11.489 -9.6,-23.097 -13.63,-34.753 -0.45,-1.33 -0.86,-2.668 -1.3,-3.984 13.97,-5.568 19.44,-23.195 21.69,-39.454 l -0.13,-0.154 c -0.38,-0.471 -0.76,-0.936 -1.16,-1.405 -0.71,-0.853 -1.45,-1.701 -2.2,-2.546 -1.79,16.063 -6.42,34.344 -19.26,40.293 -3.84,-12.051 -7.05,-24.179 -10.15,-35.981 -1.22,-4.749 -2.47,-9.468 -3.74,-14.184 -1.21,-4.499 -2.7,-9.013 -4.13,-13.379 -1.21,-3.659 -2.45,-7.43 -3.48,-11.054 -0.69,-2.379 -1.56,-5.074 -2.49,-7.941 -0.49,-1.551 -1.03,-3.184 -1.55,-4.858 -2.35,-3.487 -4.34,-7.054 -5.84,-10.731 -0.5,-1.222 -0.95,-2.458 -1.33,-3.707 -0.02,0.713 -0.04,1.429 -0.08,2.153 1.11,5.633 3.12,11.843 4.98,17.569 0.93,2.834 1.79,5.521 2.45,7.839 1.06,3.68 2.3,7.478 3.52,11.166 1.43,4.331 2.9,8.821 4.1,13.231 1.28,4.714 2.52,9.436 3.75,14.171 1.38,5.33 2.81,10.72 4.29,16.152 -12.45,-4.283 -22.21,-9.231 -32.59,-15.996 -0.13,1.098 -0.25,2.194 -0.36,3.29 -0.01,0.078 -0.02,0.153 -0.03,0.231 9.84,6.199 20.48,11.575 33.96,16.042 2.2,7.884 4.57,15.82 7.28,23.708 1.72,4.988 3.58,9.963 5.51,14.924 -12.87,-0.716 -31.42,-6.525 -45.09,-14.311 0.35,1.417 0.75,2.824 1.16,4.206 12.79,6.686 28.49,11.578 40.71,12.926 1.54,0.164 3.01,0.273 4.41,0.318 6.29,15.864 13.39,31.539 20.41,46.892 -3.55,-1.182 -7.62,-1.936 -11.61,-2.676 -3.85,-0.716 -7.82,-1.438 -10.99,-2.506 -12.7,-4.278 -25.1,-9.134 -33.27,-15.786 -0.78,0.77 -1.52,1.548 -2.23,2.361 10.25,8.137 25.2,13.182 34.32,16.249 3.53,1.184 7.67,1.962 11.69,2.702 5.12,0.945 10.36,1.922 13.94,3.702 l 0.08,0.161 c 4.69,10.206 9.45,20.643 14.01,31.146 -7.25,-2.04 -15.44,-3.262 -23.42,-4.452 -6.67,-0.969 -13.59,-1.992 -19.6,-3.478 -16.07,-3.963 -27.33,-10.367 -39.18,-17.161 0.17,1.353 0.39,2.689 0.7,4.019 11.2,6.375 22.22,12.275 37.71,16.1 6.25,1.535 13.3,2.571 20.1,3.581 8.78,1.289 17.83,2.635 25.3,5.074 1.9,4.44 3.78,8.886 5.57,13.333 0.89,2.24 1.8,4.491 2.71,6.741 l -0.01,0.329 0.16,0.013 c 3.13,7.775 6.36,15.705 9.64,23.705 z m 28.84,-63.877 c 0,-0.003 0,-0.003 0.01,-0.003 l 0.12,-7.984 c 0,0 0,0 0,0.002 z"
         inkscape:connector-curvature="0"
         style="fill:#edfad3" />
      <path
         id="svg_88"
         d="m 1.45775,76.1021 c 9.34365,2.3622 19.09745,4.1677 25.60405,12.6553 9.0147,11.7556 1.2127,15.9156 -0.181,28.9606 22.0594,1.303 39.3878,-3.574 60.1329,12.011 20.4303,15.345 14.7343,34.009 -7.7507,38.9 -3.0877,0.675 22.456,8.752 26.814,10.136 9.639,3.058 19.04,9.951 25.954,17.366 12.528,13.432 18.69,35.188 -0.98,44.277 -17.047,7.878 -33.0761,-8.524 -45.5212,-19.588 -5.589,-4.971 -12.3016,-11.46 -16.7967,-17.725 -5.9289,11.087 -3.605,26.318 -20.5428,21.384 -11.8221,-3.45 -21.6513,-20.164 -21.526,-31.84 -2.5696,1.197 -4.8676,2.399 -7.0124,3.531 -8.9978,4.751 -15.26791,8.222 -27.35543,4.433 C -17.3748,197.575 -28.8593,190.179 -37.4155,183.056 -56.8894,166.842 -106.61,97.9257 -120,74.3237 c 0,0 101.8841,-3.1711 121.45775,1.7784 z"
         inkscape:connector-curvature="0"
         style="fill:#e7c264" />
      <path
         id="svg_89"
         d="m 86.8835,222.03 c 0.4877,0.438 0.979,0.883 1.4771,1.331 -0.4981,-0.448 -0.9901,-0.889 -1.4748,-1.326 z"
         inkscape:connector-curvature="0"
         style="fill:#e5f7ff" />
      <path
         id="svg_90"
         d="m 13.3013,141.194 3.0235,2.107 60.6048,-19.725 c 0.8838,0.426 1.7667,0.849 2.6569,1.338 L 18.4797,144.802 34.2404,155.78 94.055,136.313 c 0.4898,0.585 0.9453,1.17 1.3675,1.755 l -59.027,19.213 75.4035,52.513 24.798,-7.966 c 0.409,0.597 0.796,1.208 1.176,1.82 l -23.521,7.655 -0.504,-0.151 27.945,19.459 c -0.301,0.607 -0.637,1.198 -1.008,1.78 l -43.4686,-30.276 7.0966,34.187 c -0.82,-0.53 -1.631,-1.088 -2.433,-1.663 l -8.3571,-35.095 -10.7807,-7.507 6.7055,32.299 c -0.3671,-0.328 -0.7281,-0.652 -1.0878,-0.977 -0.4981,-0.447 -0.9894,-0.893 -1.4771,-1.33 l -6.7004,-31.777 -36.7267,-25.579 12.4964,60.596 c -0.629,0.108 -1.3143,0.161 -2.0502,0.157 l -13.4277,-62.83 -6.4998,-4.527 -0.2513,0.081 -0.1171,-0.336 -17.5499,-12.224 -3.0074,0.979 c 0.0425,-0.737 0.0842,-1.481 0.1231,-2.244 l 0.7294,-0.235 -0.6949,-0.484 c 0.0358,-0.789 0.0682,-1.596 0.095,-2.412 z"
         inkscape:connector-curvature="0"
         style="fill:#edfad3" />
    </g>
    <g
       id="svg_93">
      <path
         id="svg_94"
         d="m 772.74969,470.94337 v -11.63641 h 3.15909 v 9.09091 h 4.70455 v 2.5455 z m 16.0497,-11.63641 h 3.1364 v 7.68182 c 0,0.88636 -0.2084,1.63447 -0.625,2.24429 -0.4129,0.6061 -0.9962,1.0663 -1.75,1.3807 -0.75,0.3106 -1.6326,0.4659 -2.6477,0.4659 -1.02279,0 -1.91099,-0.1553 -2.6648,-0.4659 -0.75,-0.3144 -1.3315,-0.7746 -1.74429,-1.3807 -0.4091,-0.60982 -0.61369,-1.35793 -0.61369,-2.24429 v -7.68182 h 3.15908 v 7.54546 c 0,0.43181 0.16481,0.78219 0.4943,1.05113 0.3334,0.26894 0.7898,0.40341 1.3694,0.40341 0.59091,0 1.053,-0.13447 1.3863,-0.40341 0.3333,-0.26894 0.5,-0.61932 0.5,-1.05113 z m 14.70601,0 v 11.63641 h -2.6364 l -4.20451,-6.11368 h -0.0682 v 6.11368 h -3.1591 v -11.63641 h 2.6818 l 4.1364,6.09091 h 0.0909 v -6.09091 z m 12.35789,4.36364 h -3.2045 c -0.0455,-0.53031 -0.2386,-0.95834 -0.5796,-1.28409 -0.3371,-0.32576 -0.8106,-0.48864 -1.4204,-0.48864 -0.7955,0 -1.4034,0.28599 -1.8239,0.85796 -0.4204,0.56818 -0.6307,1.35795 -0.6307,2.36931 0,1.06819 0.2122,1.87311 0.6364,2.41478 0.428,0.54166 1.0265,0.8125 1.7955,0.8125 0.5795,0 1.0416,-0.14394 1.3863,-0.43182 0.3447,-0.29167 0.5568,-0.68561 0.6364,-1.18182 l 3.2045,0.0227 c -0.0378,0.49242 -0.1761,0.99432 -0.4147,1.50568 -0.2387,0.50758 -0.5777,0.97728 -1.0171,1.40908 -0.4356,0.428 -0.9754,0.7727 -1.6193,1.0341 -0.6439,0.2614 -1.392,0.392 -2.2443,0.392 -1.0682,0 -2.0265,-0.2291 -2.875,-0.6875 -0.8447,-0.4583 -1.5133,-1.1325 -2.0057,-2.02268 -0.4886,-0.89015 -0.733,-1.97917 -0.733,-3.26705 0,-1.29545 0.25,-2.38636 0.75,-3.27272 0.5,-0.89016 1.1743,-1.5625 2.0228,-2.01705 0.8485,-0.45833 1.7954,-0.6875 2.8409,-0.6875 0.9773,0 1.8485,0.17614 2.6136,0.52841 0.769,0.35227 1.3864,0.86553 1.8523,1.53977 0.4697,0.67425 0.7462,1.49243 0.8295,2.45455 z m 1.43331,7.27277 v -11.63641 h 3.15909 v 4.54546 h 4.1818 v -4.54546 h 3.1591 v 11.63641 h -3.1591 v -4.5455 h -4.1818 v 4.5455 z m 13.75,0.1818 c -0.4394,0 -0.8163,-0.1534 -1.13071,-0.4603 -0.3106,-0.3106 -0.464,-0.6875 -0.4602,-1.1306 -0.004,-0.4319 0.1496,-0.8012 0.4602,-1.10799 0.3144,-0.30682 0.6913,-0.46023 1.13071,-0.46023 0.4166,0 0.78409,0.15341 1.1022,0.46023 0.322,0.30679 0.4849,0.67609 0.4887,1.10799 -0.004,0.4431 -0.1667,0.82 -0.4887,1.1306 -0.3181,0.3069 -0.6856,0.4603 -1.1022,0.4603 z m -55.34235,15.8182 -3.43183,-11.6364 h 3.52273 l 1.59091,7.1591 h 0.0909 l 1.88637,-7.1591 h 2.77276 l 1.8863,7.1818 h 0.0909 l 1.5909,-7.1818 h 3.5228 l -3.4318,11.6364 h -3.0228 l -1.97725,-6.5 h -0.0909 l -1.97728,6.5 z m 25.27134,-5.8182 c 0,1.2954 -0.25189,2.3882 -0.7557,3.2784 -0.5038,0.8863 -1.1837,1.5587 -2.0398,2.017 -0.8561,0.4546 -1.8106,0.6818 -2.8636,0.6818 -1.0606,0 -2.019,-0.2291 -2.875,-0.6875 -0.8523,-0.4621 -1.5303,-1.1363 -2.0341,-2.0227 -0.5,-0.8901 -0.75,-1.9791 -0.75,-3.267 0,-1.2955 0.25,-2.3864 0.75,-3.2728 0.5038,-0.8901 1.1818,-1.5625 2.0341,-2.017 0.856,-0.4583 1.8144,-0.6875 2.875,-0.6875 1.053,0 2.0075,0.2292 2.8636,0.6875 0.8561,0.4545 1.536,1.1269 2.0398,2.017 0.5038,0.8864 0.7557,1.9773 0.7557,3.2728 z m -3.25,0 c 0,-1.0455 -0.2065,-1.8447 -0.6194,-2.3978 -0.4091,-0.553 -1.0056,-0.8295 -1.7897,-0.8295 -0.7841,0 -1.3826,0.2765 -1.7955,0.8295 -0.4091,0.5531 -0.6136,1.3523 -0.6136,2.3978 0,1.0454 0.2045,1.8447 0.6136,2.3977 0.4129,0.553 1.0114,0.8295 1.7955,0.8295 0.7841,0 1.3806,-0.2765 1.7897,-0.8295 0.4129,-0.553 0.6194,-1.3523 0.6194,-2.3977 z m 4.7116,5.8182 v -11.6364 h 5.0227 c 0.8637,0 1.6193,0.1572 2.2671,0.4716 0.6477,0.3144 1.15151,0.767 1.5113,1.3579 0.35991,0.5909 0.5398,1.2993 0.5398,2.125 0,0.8069 -0.1761,1.4906 -0.5284,2.0512 -0.34849,0.5606 -0.8314,0.9905 -1.4489,1.2897 l 2.3637,4.341 h -3.43179 l -2.0455,-3.841 h -1.0909 v 3.841 z m 3.1591,-6.2955 h 1.1136 c 0.5531,0 0.9868,-0.1061 1.3012,-0.3182 0.3144,-0.2159 0.4716,-0.572 0.4716,-1.0682 0,-0.5 -0.1572,-0.8636 -0.4716,-1.0909 -0.3144,-0.2272 -0.7481,-0.3409 -1.3012,-0.3409 h -1.1136 z m 7.5284,6.2955 v -11.6364 h 3.1591 v 4.7045 h 0.1591 l 3.5,-4.7045 h 3.6818 l -3.9318,5.1818 4.0227,6.4546 h -3.7727 l -2.6137,-4.3637 -1.0454,1.3637 v 3 z"
         inkscape:connector-curvature="0"
         style="fill:#dcc075" />
    </g>
    <g
       id="svg_95">
      <path
         id="svg_96"
         d="m 863.41629,353.6101 v -11.63641 h 3.15909 v 9.09091 h 4.70455 v 2.5455 z m 16.0497,-11.63641 h 3.1364 v 7.68182 c 0,0.88636 -0.2084,1.63447 -0.625,2.24429 -0.4129,0.6061 -0.9962,1.0663 -1.75,1.3807 -0.75,0.3106 -1.6326,0.4659 -2.6477,0.4659 -1.0228,0 -1.911,-0.1553 -2.6648,-0.4659 -0.75,-0.3144 -1.3315,-0.7746 -1.7443,-1.3807 -0.4091,-0.60982 -0.61368,-1.35793 -0.61368,-2.24429 v -7.68182 h 3.15908 v 7.54546 c 0,0.43181 0.1648,0.78219 0.4943,1.05113 0.3334,0.26894 0.7898,0.40341 1.3694,0.40341 0.5909,0 1.053,-0.13447 1.3863,-0.40341 0.3333,-0.26894 0.5,-0.61932 0.5,-1.05113 z m 14.706,0 v 11.63641 h -2.6364 l -4.2045,-6.11368 h -0.0682 v 6.11368 h -3.1591 v -11.63641 h 2.6818 l 4.1364,6.09091 h 0.0909 v -6.09091 z m 12.3579,4.36364 h -3.2045 c -0.0455,-0.53031 -0.2386,-0.95834 -0.5796,-1.28409 -0.3371,-0.32576 -0.8106,-0.48864 -1.4204,-0.48864 -0.7955,0 -1.4034,0.28599 -1.8239,0.85796 -0.4204,0.56818 -0.6307,1.35795 -0.6307,2.36931 0,1.06819 0.2122,1.87311 0.6364,2.41478 0.428,0.54166 1.0265,0.8125 1.7955,0.8125 0.5795,0 1.0416,-0.14394 1.3863,-0.43182 0.3447,-0.29167 0.5568,-0.68561 0.6364,-1.18182 l 3.2045,0.0227 c -0.0378,0.49242 -0.1761,0.99432 -0.4147,1.50568 -0.2387,0.50758 -0.5777,0.97728 -1.0171,1.40908 -0.4356,0.428 -0.9754,0.7727 -1.6193,1.0341 -0.6439,0.2614 -1.392,0.392 -2.2443,0.392 -1.0682,0 -2.0265,-0.2291 -2.875,-0.6875 -0.8447,-0.4583 -1.5133,-1.1325 -2.0057,-2.02268 -0.4886,-0.89015 -0.733,-1.97917 -0.733,-3.26705 0,-1.29545 0.25,-2.38636 0.75,-3.27272 0.5,-0.89015 1.1743,-1.5625 2.0228,-2.01704 0.8485,-0.45833 1.7954,-0.6875 2.8409,-0.6875 0.9773,0 1.8485,0.17613 2.6136,0.52841 0.769,0.35226 1.3864,0.86553 1.8523,1.53976 0.4697,0.67425 0.7462,1.49244 0.8295,2.45455 z m 1.4333,7.27277 v -11.63641 h 3.1591 v 4.54546 h 4.1818 v -4.54546 h 3.1591 v 11.63641 h -3.1591 v -4.5455 h -4.1818 v 4.5455 z m 13.75,0.1818 c -0.4394,0 -0.8163,-0.1534 -1.1307,-0.4603 -0.3106,-0.3106 -0.464,-0.6875 -0.4602,-1.1306 -0.004,-0.4319 0.1496,-0.8012 0.4602,-1.10799 0.3144,-0.30682 0.6913,-0.46023 1.1307,-0.46023 0.4166,0 0.7841,0.15341 1.1022,0.46023 0.322,0.30679 0.4849,0.67609 0.4887,1.10799 -0.004,0.4431 -0.1667,0.82 -0.4887,1.1306 -0.3181,0.3069 -0.6856,0.4603 -1.1022,0.4603 z m -55.34235,15.8182 -3.43182,-11.6364 h 3.52272 l 1.59091,7.1591 h 0.0909 l 1.88637,-7.1591 h 2.77276 l 1.8863,7.1818 h 0.0909 l 1.5909,-7.1818 h 3.5228 l -3.4318,11.6364 h -3.0228 l -1.97725,-6.5 h -0.0909 l -1.97728,6.5 z m 25.27135,-5.8182 c 0,1.2954 -0.2519,2.3882 -0.7557,3.2784 -0.5038,0.8863 -1.1837,1.5587 -2.0398,2.017 -0.8561,0.4546 -1.8106,0.6818 -2.8636,0.6818 -1.0606,0 -2.019,-0.2291 -2.875,-0.6875 -0.8523,-0.4621 -1.5303,-1.1363 -2.0341,-2.0227 -0.5,-0.8901 -0.75,-1.9791 -0.75,-3.267 0,-1.2955 0.25,-2.3864 0.75,-3.2728 0.5038,-0.8901 1.1818,-1.5625 2.0341,-2.017 0.856,-0.4583 1.8144,-0.6875 2.875,-0.6875 1.053,0 2.0075,0.2292 2.8636,0.6875 0.8561,0.4545 1.536,1.1269 2.0398,2.017 0.5038,0.8864 0.7557,1.9773 0.7557,3.2728 z m -3.25,0 c 0,-1.0455 -0.2065,-1.8447 -0.6194,-2.3978 -0.4091,-0.553 -1.0056,-0.8295 -1.7897,-0.8295 -0.7841,0 -1.3826,0.2765 -1.7955,0.8295 -0.4091,0.5531 -0.6136,1.3523 -0.6136,2.3978 0,1.0454 0.2045,1.8447 0.6136,2.3977 0.4129,0.553 1.0114,0.8295 1.7955,0.8295 0.7841,0 1.3806,-0.2765 1.7897,-0.8295 0.4129,-0.553 0.6194,-1.3523 0.6194,-2.3977 z m 4.7116,5.8182 v -11.6364 h 5.0227 c 0.8637,0 1.6193,0.1572 2.2671,0.4716 0.6477,0.3144 1.1515,0.767 1.5113,1.3579 0.3599,0.5909 0.5398,1.2993 0.5398,2.125 0,0.8069 -0.1761,1.4906 -0.5284,2.0512 -0.3485,0.5606 -0.8314,0.9905 -1.4489,1.2897 l 2.3637,4.341 h -3.4318 l -2.0455,-3.841 h -1.0909 v 3.841 z m 3.1591,-6.2955 h 1.1136 c 0.5531,0 0.9868,-0.1061 1.3012,-0.3182 0.3144,-0.2159 0.4716,-0.572 0.4716,-1.0682 0,-0.5 -0.1572,-0.8636 -0.4716,-1.0909 -0.3144,-0.2272 -0.7481,-0.3409 -1.3012,-0.3409 h -1.1136 z m 7.5284,6.2955 v -11.6364 h 3.1591 v 4.7045 h 0.1591 l 3.5,-4.7045 h 3.6818 l -3.9318,5.1818 4.0227,6.4546 h -3.7727 l -2.6137,-4.3637 -1.0454,1.3637 v 3 z"
         inkscape:connector-curvature="0"
         style="fill:#d0dd77" />
    </g>
  </g>
</svg>
