<svg width="375" height="1211" xmlns="http://www.w3.org/2000/svg">

 <g>
  <title>background</title>
  <rect fill="none" id="canvas_background" height="402" width="582" y="-1" x="-1"/>
 </g>
 <g>
  <title>Layer 1</title>
  <path id="svg_1" fill="#DDF8CD" d="m89,12.1895c-24,6.8392 -71.5,3.4196 -89,-3.76151l0,1189.47201c20.1613,16.83 59,15.44 74,7.03c24.8138,-13.9 67,-20.51 101.598,-7.03c26.802,10.44 73.239,0.91 103.244,-5.24l0.158,-0.04c30,-6.15 82,5.28 96,17.1l0,-1197.5305c-2.5,-12.31026 -66.091,-16.9184 -85.5,-6.15585c-12.091,6.70475 -51.367,13.74065 -81.5,2.39425c-44.5,-16.75644 -91.087,-4.19258 -119,3.7616z"/>
  <path id="svg_4" fill="#87C595" d="m69.3487,521.124c-39.8953,0 -72.24152,-2.351 -72.24152,-5.249c0,-1.974 14.98282,-3.694 37.13182,-4.591c19.1503,1.685 48.0781,2.758 80.442,2.758c7.377,0 14.573,-0.055 21.516,-0.161c3.476,0.614 5.392,1.287 5.392,1.994c0,2.898 -32.342,5.249 -72.2403,5.249z"/>
  <path id="svg_5" fill="#F9C9B7" d="m31.3881,453.577c-0.5619,-0.011 -6.8346,4.88 -6.8346,4.88c0,0 8.3357,-7.353 7.9521,-14.745c-0.3848,-7.389 3.0446,-4.887 6.5465,-2.65c2.0804,1.327 1.555,6.392 2.2646,8.788c0.5411,1.829 2.1401,4.132 1.8432,6.097c-0.6042,3.983 -3.6541,-0.546 -5.6831,-1.574c-2.2135,-1.118 -4.0145,-0.762 -6.0887,-0.796z"/>
  <path id="svg_6" fill="#F9C9B7" d="m33.4096,446.027c-3.6357,-3.774 -6.7341,-11.267 -5.4556,-16.454c1.3032,-5.31 4.8633,-6.496 9.8169,-4.15c4.8636,2.315 13.6162,14.831 6.1553,18.026c-1.8971,0.809 -4.1849,0.455 -5.8759,1.757l-4.6407,0.821z"/>
  <path id="svg_7" fill="#F9C9B7" d="m43.1965,430.49l4.1429,4.048l-3.1204,2.167l-1.0225,-6.215z"/>
  <path id="svg_8" fill="#7B5D7B" d="m19.9417,493.157c0,0 -9.3946,20.656 7.2723,21.148c16.6668,0.493 42.218,-0.626 46.9764,-0.463c4.7601,0.165 36.8056,2.103 36.8056,2.103l7.284,-9.737l0.006,-0.292l-0.275,-0.096c-1.974,0.596 -7.508,2.502 -9.5,5.624l-31.3074,-7.895l-57.2619,-10.392z"/>
  <path id="svg_9" fill="#0B1238" d="m112.684,508.061c-0.992,3.143 -3.56,7.414 -3.56,7.414l-0.16,0.278c1.486,0.12 2.368,0.192 2.368,0.192l7.453,-9.956l0.019,-0.275l-0.244,-0.127c-1.031,0.108 -3.333,0.527 -5.459,2.158l-0.417,0.316z"/>
  <path id="svg_10" fill="#61455F" d="m30.6713,496.497c0,0 44.326,-18.359 47.7392,-18.359c3.4158,0 23.4525,33.959 23.4525,33.959c0,0 6.556,0.733 7.619,3.33l-13.35,-1.136c0,0 -0.8954,-2.511 -3.2238,-5.118c-6.5268,-7.314 -12.4903,-9.412 -16.5591,-15.985l-31.4094,13.221c0,0 -17.6076,-3.411 -14.2684,-9.912z"/>
  <path id="svg_11" fill="#EA5A63" d="m33.2617,449.135c0,0 5.8827,2.931 8.8252,6.11c2.942,3.174 2.0024,6.619 2.0024,11.057c0,4.439 -0.0418,5.558 -1.7569,10.936c-1.7151,5.374 -4.4394,18.205 -4.4394,18.205c0,0 -14.5222,1.426 -18.1043,0.52c-3.5816,-0.905 -6.1426,-39.009 13.473,-46.828z"/>
  <path id="svg_12" fill="#61455F" d="m36.8787,432.562l-5.5931,4.921l8.8969,10.098l5.0853,-4.919l-8.3891,-10.1z"/>
  <path id="svg_13" fill="#F9C9B7" d="m31.5694,451.589c-4.1718,3.174 -2.5985,9.103 3.1197,21.784c5.717,12.68 11.2017,13.067 12.7688,12.294c11.7535,-9.285 -6.2809,-36.457 -3.2647,-38.554c3.0162,-2.094 -2.4564,-7.773 -0.7841,-6.705c0,0 -0.2439,-1.077 -1.3042,-1.805c-1.062,-0.727 0.308,-3.614 -4.9647,2.063l7.1831,34.169c0,0 -1.8127,-8.504 -2.7298,-12.257c-2.001,-8.2 -6.7934,-13.446 -10.0241,-10.989z"/>
  <path id="svg_14" fill="#2E3054" d="m95.5,512.728c0,1.698 1.2531,2.263 1.2531,2.263l12.4649,0.954l0.258,-0.132l0.006,-0.295c-1.195,-2.079 -4.543,-2.864 -6.352,-3.199c-2.653,1.672 -7.63,0.409 -7.63,0.409z"/>
  <path id="svg_15" fill="#BA3A29" d="m34.445,433.554c-3.1561,-1.647 -1.4426,2.845 -1.3274,3.603c0.2462,1.61 -0.1284,3.139 -1.5037,4.77c-3.2197,3.818 -5.7477,-0.387 -6.9321,-3.934c-2.6461,-7.915 3.2254,-15.501 10.5132,-16.291c-0.0116,0.964 0.0991,1.82 0.3486,2.69c2.8831,-1.202 8.4123,-6.64 9.1755,0.051c0.5464,4.773 -6.3287,4.967 -8.6919,8.004l-1.5822,1.107z"/>
  <path id="svg_16" fill="#61455F" d="m45.4853,454.012c-3.1254,0.871 -4.7993,0.543 -5.5296,0.255l4.3671,20.639c0,0 -1.8126,-8.449 -2.7296,-12.177c-2.001,-8.147 -6.7933,-13.359 -10.0239,-10.918c-4.1716,3.154 -2.5984,9.044 3.1197,21.643c5.7168,12.598 11.2013,12.982 12.7684,12.214c8.4712,-6.648 1.4705,-22.525 -1.9721,-31.656z"/>
  <path id="svg_17" fill="#61455F" d="m42.2482,454.615c-1.0559,0.024 -1.7568,-0.142 -2.1588,-0.301l2.1617,10.285c1.9726,7.367 3.9714,14.057 3.9714,14.057c1.9905,-9.582 -1.4047,-18.813 -3.9743,-24.041z"/>
  <path id="svg_18" fill="#F7C3CD" d="m181.316,465.928l-0.1,-6.397c0.001,0 0.001,0.001 0.001,0.002l0.1,6.393c0,0 -0.001,0.001 -0.001,0.002z"/>
  <path id="svg_19" fill="#F3C5CF" d="m140.036,407.443c0,9.296 -7.535,16.832 -16.83,16.832c-9.295,0 -16.831,-7.536 -16.831,-16.832c0,-9.296 7.536,-16.832 16.831,-16.832c9.295,0 16.83,7.536 16.83,16.832z"/>
  <path id="svg_20" fill="white" d="m127.907,406.667l2.998,-1.822c0.067,0.214 0.16,0.424 0.291,0.622c0.76,1.124 2.336,1.45 3.523,0.73c1.184,-0.719 1.531,-2.216 0.771,-3.341c-0.614,-0.909 -1.761,-1.295 -2.803,-1.032c0.688,-0.788 0.795,-1.94 0.184,-2.847c-0.76,-1.126 -2.336,-1.452 -3.524,-0.733c-1.184,0.722 -1.53,2.216 -0.769,3.343c0.132,0.198 0.293,0.364 0.47,0.51l-2.995,1.822l1.854,2.748z"/>
  <path id="svg_21" fill="#BA5C44" d="m126.785,403.836c-2.908,-1.284 -8.745,-1.012 -11.638,0.822c-3.544,2.248 -4.656,6.793 -2.481,10.155c2.173,3.358 6.81,4.258 10.356,2.011c2.892,-1.834 5.583,-6.969 5.621,-10.117l-1.858,-2.871z"/>
  <path id="svg_22" fill="#F5D1D9" d="m111.555,411.328c0,-0.002 0,-0.003 0,-0.005c0,0.002 0,0.003 0,0.005zm-0.002,-0.038c0,-0.003 0,-0.006 0,-0.009c0,0.003 0,0.006 0,0.009zm0,-0.041c0.002,-0.004 0.002,-0.007 0.002,-0.012c0,0.005 0,0.009 -0.002,0.012zm0.002,-0.04c0,-0.005 0,-0.011 0,-0.015c0,0.004 0,0.01 0,0.015zm0,-0.043c0,-0.007 0,-0.015 0,-0.022c0,0.007 0,0.015 0,0.022zm0.001,-0.043c0,-0.014 0,-0.026 0,-0.039c0,0.013 0,0.025 0,0.039zm0,-0.053c0.002,-0.01 0.002,-0.019 0.002,-0.03c0,0.011 0,0.02 -0.002,0.03zm0.002,-0.044c0,-0.01 0.001,-0.019 0.001,-0.03c0,0.011 -0.001,0.02 -0.001,0.03zm0.001,-0.042c0.002,-0.012 0.002,-0.022 0.002,-0.035c0,0.013 0,0.023 -0.002,0.035zm0.002,-0.042c0.001,-0.014 0.001,-0.026 0.003,-0.038c-0.002,0.012 -0.002,0.024 -0.003,0.038zm0.003,-0.044c0.002,-0.06 0.005,-0.12 0.01,-0.179c-0.005,0.059 -0.008,0.119 -0.01,0.179zm0.01,-0.179c0.002,-0.015 0.003,-0.03 0.005,-0.045c-0.002,0.015 -0.003,0.03 -0.005,0.045zm0.005,-0.047c0.001,-0.015 0.001,-0.029 0.002,-0.044c-0.001,0.015 -0.001,0.029 -0.002,0.044zm0.002,-0.045c0.062,-0.722 0.227,-1.44 0.49,-2.124c-0.263,0.686 -0.428,1.4 -0.49,2.124zm0.491,-2.126c0.004,-0.013 0.01,-0.027 0.015,-0.041c-0.005,0.014 -0.011,0.028 -0.015,0.041zm0.016,-0.042c0.005,-0.014 0.011,-0.027 0.015,-0.039c-0.004,0.012 -0.01,0.025 -0.015,0.039zm0.018,-0.044c0.004,-0.014 0.01,-0.026 0.015,-0.039c-0.005,0.013 -0.011,0.027 -0.015,0.039zm0.016,-0.042c0.022,-0.056 0.046,-0.112 0.069,-0.166c-0.023,0.056 -0.047,0.11 -0.069,0.166zm0.072,-0.172c0.005,-0.012 0.011,-0.024 0.015,-0.036c-0.004,0.012 -0.01,0.024 -0.015,0.036zm0.018,-0.042c0.006,-0.012 0.01,-0.023 0.016,-0.035c-0.006,0.012 -0.01,0.023 -0.016,0.035zm0.018,-0.041c0.006,-0.012 0.01,-0.023 0.016,-0.035c-0.006,0.012 -0.01,0.023 -0.016,0.035zm0.019,-0.042c0.006,-0.012 0.012,-0.024 0.018,-0.036c-0.006,0.012 -0.012,0.024 -0.018,0.036zm0.018,-0.039c0.013,-0.029 0.026,-0.056 0.039,-0.083c-0.013,0.027 -0.026,0.054 -0.039,0.083zm0.041,-0.086c0.004,-0.013 0.01,-0.025 0.016,-0.036c-0.006,0.011 -0.012,0.023 -0.016,0.036zm0.022,-0.048c0.004,-0.009 0.009,-0.019 0.013,-0.028c-0.004,0.009 -0.009,0.019 -0.013,0.028zm0.021,-0.041c0.002,-0.009 0.007,-0.017 0.011,-0.026c-0.004,0.009 -0.009,0.017 -0.011,0.026zm0.019,-0.039c0.004,-0.009 0.009,-0.019 0.011,-0.026c-0.002,0.007 -0.007,0.017 -0.011,0.026zm0.019,-0.041c0.004,-0.008 0.009,-0.017 0.013,-0.024c-0.004,0.007 -0.009,0.016 -0.013,0.024zm0.02,-0.039c0.005,-0.008 0.009,-0.017 0.014,-0.026c-0.005,0.009 -0.009,0.017 -0.014,0.026zm0.02,-0.04c0.007,-0.012 0.013,-0.024 0.019,-0.036c-0.006,0.012 -0.012,0.024 -0.019,0.036zm0.031,-0.057c0.002,-0.006 0.005,-0.012 0.008,-0.017c-0.003,0.005 -0.006,0.011 -0.008,0.017zm0.019,-0.037c0.004,-0.006 0.007,-0.012 0.01,-0.019c-0.003,0.007 -0.006,0.013 -0.01,0.019zm0.02,-0.038c0.005,-0.006 0.008,-0.013 0.011,-0.019c-0.003,0.006 -0.006,0.013 -0.011,0.019zm0.021,-0.039c0.004,-0.005 0.007,-0.011 0.011,-0.017c-0.004,0.006 -0.008,0.012 -0.011,0.017zm0.022,-0.038c0.003,-0.006 0.006,-0.012 0.009,-0.018c-0.003,0.006 -0.006,0.012 -0.009,0.018zm0.021,-0.038c0.003,-0.006 0.006,-0.012 0.01,-0.016c-0.004,0.004 -0.007,0.01 -0.01,0.016zm0.056,-0.098c0.001,-0.003 0.004,-0.007 0.007,-0.012c-0.003,0.005 -0.006,0.009 -0.007,0.012zm0.021,-0.035c0.002,-0.004 0.005,-0.01 0.008,-0.015c-0.003,0.006 -0.006,0.011 -0.008,0.015zm0.022,-0.036c0.003,-0.006 0.004,-0.01 0.007,-0.015c-0.001,0.005 -0.004,0.009 -0.007,0.015zm0.021,-0.038c0.003,-0.004 0.007,-0.008 0.008,-0.013c-0.001,0.005 -0.005,0.009 -0.008,0.013zm0.023,-0.037c0.003,-0.005 0.004,-0.008 0.007,-0.011c-0.003,0.003 -0.004,0.006 -0.007,0.011zm0.023,-0.038c0.002,-0.001 0.003,-0.004 0.005,-0.007c-0.002,0.003 -0.003,0.006 -0.005,0.007zm0.084,-0.134c0.002,-0.002 0.003,-0.005 0.005,-0.006c-0.002,0.001 -0.003,0.004 -0.005,0.006zm0.023,-0.033c0.002,-0.003 0.004,-0.006 0.005,-0.009c-0.001,0.003 -0.003,0.006 -0.005,0.009zm0.023,-0.035c0.002,-0.003 0.003,-0.006 0.006,-0.009c-0.003,0.003 -0.004,0.006 -0.006,0.009zm0.024,-0.037c0.001,-0.002 0.003,-0.003 0.004,-0.005c-0.001,0.002 -0.003,0.003 -0.004,0.005zm0.023,-0.035c0.002,-0.002 0.002,-0.002 0.003,-0.003c-0.001,0.001 -0.001,0.003 -0.003,0.003zm0.093,-0.133c0,-0.001 0.002,-0.001 0.002,-0.003c0,0.002 -0.002,0.002 -0.002,0.003zm0.022,-0.032c0.002,-0.003 0.003,-0.004 0.005,-0.006c-0.002,0.002 -0.003,0.003 -0.005,0.006zm0.025,-0.034c0.002,-0.002 0.003,-0.003 0.005,-0.006c-0.002,0.003 -0.003,0.004 -0.005,0.006zm0.025,-0.035c0,-0.002 0.002,-0.002 0.002,-0.003c0,0.001 0,0.001 -0.002,0.003zm0.174,-0.229l0.002,-0.002l-0.002,0.002zm0.183,-0.223c0,-0.002 0.001,-0.002 0.001,-0.002c0,0 -0.001,0 -0.001,0.002zm0.026,-0.032c0.002,0 0.002,-0.001 0.003,-0.003c-0.001,0.002 -0.001,0.003 -0.003,0.003zm0.195,-0.217c0,-0.001 0,-0.001 0,-0.001c0,0 0,0 0,0.001zm0.027,-0.03c0.001,0 0.001,-0.002 0.002,-0.003c-0.001,0.001 -0.001,0.001 -0.002,0.003zm0.203,-0.21c0.001,-0.001 0.001,-0.001 0.003,-0.001c-0.002,0 -0.002,0 -0.003,0.001zm0.029,-0.028c0.002,-0.002 0.003,-0.003 0.005,-0.005c-0.002,0.002 -0.003,0.003 -0.005,0.005zm0.031,-0.031c0.002,-0.001 0.002,-0.001 0.003,-0.002c-0.001,0.001 -0.003,0.001 -0.003,0.002zm0.212,-0.2c0.003,-0.002 0.005,-0.003 0.006,-0.005c-0.001,0.002 -0.003,0.003 -0.006,0.005zm0.033,-0.029c0.001,-0.001 0.003,-0.003 0.004,-0.004c-0.001,0.001 -0.003,0.003 -0.004,0.004zm0.032,-0.028c0.002,-0.002 0.003,-0.003 0.005,-0.005c-0.002,0.002 -0.003,0.003 -0.005,0.005zm0.159,-0.137c0.002,-0.002 0.003,-0.002 0.003,-0.003c-0.001,0.001 -0.001,0.001 -0.003,0.003zm0.031,-0.026c0.003,-0.002 0.005,-0.005 0.008,-0.006c-0.003,0.001 -0.005,0.004 -0.008,0.006zm0.034,-0.029c0.002,-0.001 0.005,-0.003 0.008,-0.004c-0.003,0.001 -0.006,0.003 -0.008,0.004zm0.034,-0.027c0.003,-0.001 0.004,-0.004 0.007,-0.006c-0.003,0.002 -0.004,0.005 -0.007,0.006zm0.034,-0.027c0.001,-0.002 0.003,-0.003 0.006,-0.005c-0.003,0.002 -0.005,0.003 -0.006,0.005zm0.128,-0.101c0.005,-0.003 0.006,-0.005 0.01,-0.008c-0.004,0.003 -0.007,0.005 -0.01,0.008zm0.034,-0.026c0.004,-0.003 0.008,-0.006 0.012,-0.009c-0.004,0.003 -0.008,0.006 -0.012,0.009zm0.036,-0.027c0.004,-0.003 0.008,-0.006 0.013,-0.009c-0.005,0.003 -0.009,0.006 -0.013,0.009zm0.035,-0.027c0.006,-0.003 0.01,-0.006 0.014,-0.01c-0.004,0.003 -0.01,0.007 -0.014,0.01zm0.037,-0.027c0.004,-0.003 0.01,-0.008 0.015,-0.011c-0.005,0.005 -0.011,0.008 -0.015,0.011zm0.037,-0.026c0.004,-0.004 0.009,-0.007 0.013,-0.01c-0.004,0.003 -0.009,0.006 -0.013,0.01zm0.054,-0.04c0.006,-0.005 0.012,-0.008 0.018,-0.013c-0.006,0.005 -0.012,0.01 -0.018,0.013zm0.037,-0.026c0.006,-0.005 0.012,-0.009 0.019,-0.014c-0.007,0.005 -0.013,0.009 -0.019,0.014zm0.037,-0.026c0.007,-0.004 0.013,-0.009 0.02,-0.015c-0.007,0.005 -0.013,0.011 -0.02,0.015zm0.038,-0.027c0.008,-0.004 0.013,-0.009 0.019,-0.013c-0.006,0.004 -0.011,0.009 -0.019,0.013zm0.038,-0.026c0.008,-0.004 0.015,-0.01 0.023,-0.015c-0.008,0.005 -0.015,0.011 -0.023,0.015zm0.039,-0.025c0.007,-0.006 0.016,-0.011 0.023,-0.017c-0.007,0.006 -0.016,0.011 -0.023,0.017zm0.038,-0.026c0.013,-0.009 0.027,-0.018 0.038,-0.026c-0.011,0.008 -0.025,0.017 -0.038,0.026zm5.658,-1.641c0.44,-0.034 0.882,-0.05 1.32,-0.05c0.293,0 0.585,0.007 0.871,0.022c0.001,0 0.001,0 0.001,0c-0.289,-0.015 -0.582,-0.022 -0.876,-0.022c-0.437,0 -0.877,0.016 -1.316,0.05z"/>
  <path id="svg_23" fill="#C87D69" d="m116.418,414.953c-1.649,0 -3.173,-0.535 -4.417,-1.441c-0.294,-0.787 -0.441,-1.61 -0.446,-2.433c0,-0.002 0,-0.003 0,-0.005c0,-0.01 -0.002,-0.022 -0.002,-0.032c0,-0.003 0,-0.006 0,-0.009c0,-0.01 0,-0.02 0,-0.031c0.002,-0.003 0.002,-0.007 0.002,-0.011c0,-0.009 0,-0.019 0,-0.028c0,-0.004 0,-0.011 0,-0.015c0,-0.008 0,-0.017 0,-0.026c0,-0.007 0,-0.015 0,-0.022c0,-0.007 0,-0.013 0.001,-0.02c0,-0.014 0,-0.025 0,-0.039c0,-0.004 0,-0.008 0,-0.012c0.002,-0.011 0.002,-0.02 0.002,-0.03c0,-0.004 0,-0.009 0,-0.013c0,-0.01 0.001,-0.019 0.001,-0.029c0,-0.005 0,-0.009 0,-0.012c0.001,-0.012 0.001,-0.022 0.001,-0.034c0,-0.003 0,-0.006 0,-0.007c0.002,-0.013 0.002,-0.025 0.003,-0.036c0,-0.004 0,-0.005 0,-0.007c0.003,-0.058 0.006,-0.116 0.011,-0.173c0.001,-0.015 0.002,-0.03 0.004,-0.044l0,-0.002c0.001,-0.014 0.001,-0.028 0.003,-0.042c0,0 0,0 0,-0.002c0.061,-0.701 0.222,-1.395 0.479,-2.06l0.002,-0.002c0.004,-0.012 0.01,-0.026 0.014,-0.039c0.002,0 0.002,-0.002 0.002,-0.002c0.004,-0.012 0.01,-0.026 0.014,-0.037c0.002,-0.002 0.002,-0.003 0.003,-0.005c0.004,-0.011 0.01,-0.025 0.015,-0.038c0,0 0.001,-0.001 0.001,-0.003c0.022,-0.054 0.045,-0.106 0.068,-0.161c0.001,-0.003 0.001,-0.004 0.003,-0.006c0.004,-0.011 0.01,-0.023 0.014,-0.034c0.002,-0.002 0.003,-0.005 0.003,-0.007c0.006,-0.011 0.01,-0.021 0.016,-0.033c0,-0.001 0.002,-0.004 0.002,-0.006c0.005,-0.012 0.01,-0.022 0.015,-0.034c0.002,-0.001 0.002,-0.004 0.003,-0.007c0.006,-0.012 0.012,-0.023 0.018,-0.035c0,-0.001 0,-0.003 0,-0.003c0.013,-0.027 0.026,-0.054 0.038,-0.08c0,-0.002 0,-0.002 0.002,-0.003c0.004,-0.012 0.01,-0.024 0.016,-0.035c0.001,-0.003 0.004,-0.008 0.006,-0.012c0.004,-0.009 0.008,-0.018 0.013,-0.026c0.001,-0.004 0.004,-0.009 0.007,-0.014c0.003,-0.008 0.007,-0.015 0.011,-0.024c0.003,-0.005 0.005,-0.009 0.008,-0.013c0.004,-0.009 0.008,-0.018 0.011,-0.025c0.003,-0.005 0.006,-0.011 0.008,-0.015c0.004,-0.007 0.008,-0.016 0.013,-0.023c0.001,-0.005 0.004,-0.009 0.007,-0.015c0.004,-0.009 0.008,-0.016 0.013,-0.025c0.001,-0.004 0.004,-0.008 0.005,-0.013c0.008,-0.012 0.014,-0.023 0.019,-0.035c0.005,-0.007 0.008,-0.013 0.012,-0.021c0.003,-0.005 0.005,-0.011 0.008,-0.016c0.003,-0.007 0.008,-0.013 0.011,-0.02c0.004,-0.006 0.007,-0.012 0.01,-0.018c0.003,-0.006 0.007,-0.013 0.01,-0.018c0.004,-0.006 0.007,-0.013 0.01,-0.018c0.003,-0.007 0.007,-0.013 0.01,-0.021c0.003,-0.004 0.007,-0.01 0.01,-0.016c0.004,-0.007 0.007,-0.013 0.012,-0.02c0.003,-0.006 0.006,-0.012 0.008,-0.018c0.005,-0.006 0.008,-0.012 0.012,-0.019c0.003,-0.006 0.006,-0.012 0.01,-0.016c0.01,-0.019 0.02,-0.036 0.03,-0.054c0.005,-0.009 0.011,-0.016 0.015,-0.025c0.001,-0.003 0.004,-0.007 0.007,-0.012c0.004,-0.007 0.009,-0.014 0.013,-0.021c0.003,-0.005 0.006,-0.009 0.009,-0.015c0.004,-0.007 0.008,-0.015 0.013,-0.021c0.003,-0.006 0.006,-0.01 0.007,-0.014c0.006,-0.008 0.01,-0.015 0.014,-0.022c0.003,-0.004 0.006,-0.009 0.008,-0.013c0.005,-0.009 0.01,-0.016 0.014,-0.024c0.003,-0.004 0.004,-0.007 0.007,-0.01c0.005,-0.009 0.011,-0.017 0.016,-0.026c0.002,-0.002 0.003,-0.005 0.004,-0.008c0.027,-0.041 0.052,-0.081 0.079,-0.122c0.001,-0.002 0.002,-0.005 0.004,-0.006c0.006,-0.009 0.012,-0.018 0.017,-0.027c0.003,-0.003 0.004,-0.005 0.006,-0.008c0.006,-0.009 0.011,-0.017 0.017,-0.025c0.002,-0.003 0.003,-0.006 0.006,-0.009c0.006,-0.009 0.012,-0.017 0.018,-0.028c0.001,-0.001 0.002,-0.003 0.004,-0.004c0.005,-0.01 0.013,-0.019 0.019,-0.029c0.001,0 0.001,-0.002 0.002,-0.003c0.029,-0.043 0.058,-0.085 0.088,-0.126c0,-0.001 0.002,-0.001 0.002,-0.003c0.007,-0.009 0.013,-0.019 0.02,-0.028c0.002,-0.003 0.003,-0.004 0.005,-0.006c0.005,-0.008 0.013,-0.017 0.02,-0.027c0.001,-0.002 0.003,-0.003 0.004,-0.006c0.006,-0.009 0.013,-0.019 0.02,-0.028c0.002,-0.002 0.002,-0.002 0.002,-0.003c0.047,-0.063 0.095,-0.125 0.144,-0.189c0.009,-0.01 0.018,-0.02 0.025,-0.03l0.001,-0.002c0.058,-0.073 0.117,-0.144 0.178,-0.215c0,-0.001 0.001,-0.001 0.001,-0.001c0.009,-0.011 0.016,-0.019 0.025,-0.029c0.001,0 0.001,-0.002 0.003,-0.004c0.061,-0.07 0.124,-0.14 0.188,-0.207c0,-0.001 0,-0.001 0,-0.001c0.008,-0.009 0.017,-0.02 0.026,-0.028c0.001,-0.002 0.001,-0.002 0.003,-0.003c0.008,-0.009 0.017,-0.019 0.027,-0.028c0.055,-0.058 0.111,-0.116 0.169,-0.172c0.002,-0.002 0.002,-0.002 0.003,-0.002c0.009,-0.009 0.017,-0.017 0.026,-0.026c0.002,-0.002 0.003,-0.003 0.004,-0.005c0.009,-0.008 0.018,-0.016 0.026,-0.025c0,-0.001 0.002,-0.001 0.003,-0.002c0.009,-0.009 0.019,-0.018 0.028,-0.027c0.059,-0.056 0.118,-0.111 0.177,-0.165c0.003,-0.002 0.005,-0.003 0.006,-0.005c0.009,-0.007 0.018,-0.016 0.026,-0.023c0.001,-0.001 0.003,-0.003 0.004,-0.004c0.009,-0.007 0.019,-0.016 0.028,-0.023c0.001,-0.002 0.003,-0.003 0.004,-0.005c0.051,-0.042 0.1,-0.086 0.152,-0.129c0.001,-0.001 0.001,-0.001 0.003,-0.002c0.009,-0.008 0.018,-0.015 0.027,-0.022c0.003,-0.002 0.005,-0.005 0.007,-0.006c0.009,-0.008 0.018,-0.015 0.027,-0.022c0.001,-0.002 0.004,-0.003 0.007,-0.005c0.008,-0.007 0.017,-0.014 0.026,-0.022c0.003,-0.001 0.004,-0.004 0.007,-0.006c0.008,-0.007 0.017,-0.014 0.026,-0.02c0.001,-0.001 0.003,-0.003 0.006,-0.004c0.039,-0.032 0.079,-0.063 0.12,-0.094c0.003,-0.003 0.005,-0.004 0.01,-0.007c0.007,-0.006 0.016,-0.012 0.023,-0.018c0.004,-0.003 0.007,-0.006 0.011,-0.009c0.009,-0.005 0.016,-0.011 0.024,-0.017c0.004,-0.003 0.008,-0.006 0.012,-0.009c0.008,-0.006 0.015,-0.011 0.022,-0.018c0.005,-0.002 0.01,-0.007 0.014,-0.01c0.008,-0.004 0.015,-0.01 0.022,-0.016c0.005,-0.003 0.01,-0.006 0.015,-0.01c0.007,-0.004 0.014,-0.01 0.022,-0.015c0.004,-0.004 0.008,-0.007 0.012,-0.01c0.013,-0.009 0.028,-0.019 0.041,-0.029c0.006,-0.003 0.011,-0.007 0.017,-0.012c0.006,-0.004 0.013,-0.009 0.019,-0.013c0.006,-0.004 0.012,-0.009 0.019,-0.013c0.005,-0.003 0.011,-0.008 0.017,-0.012c0.007,-0.004 0.013,-0.01 0.02,-0.015c0.006,-0.003 0.012,-0.007 0.018,-0.011c0.007,-0.004 0.013,-0.009 0.018,-0.013c0.008,-0.003 0.014,-0.008 0.019,-0.012c0.008,-0.004 0.015,-0.01 0.022,-0.015c0.004,-0.003 0.01,-0.007 0.016,-0.01c0.007,-0.006 0.016,-0.01 0.023,-0.016c0.006,-0.003 0.01,-0.006 0.014,-0.009c0.013,-0.009 0.026,-0.017 0.038,-0.025c1.376,-0.892 3.433,-1.414 5.509,-1.567c0.43,-0.032 0.862,-0.048 1.29,-0.048c0.288,0 0.576,0.007 0.859,0.021c0.796,1.213 1.26,2.668 1.26,4.234c0,4.228 -3.386,7.656 -7.564,7.656z"/>
  <path id="svg_24" fill="white" d="m129.936,400.97c-0.713,0 -1.293,-0.581 -1.293,-1.296c0,-0.713 0.58,-1.294 1.293,-1.294c0.716,0 1.296,0.581 1.296,1.294c0,0.715 -0.58,1.296 -1.296,1.296z"/>
  <path id="svg_25" fill="#87C595" d="m130.196,368.86c0,8.294 -6.722,15.019 -15.017,15.019c-8.294,0 -15.018,-6.725 -15.018,-15.019c0,-8.295 6.724,-15.02 15.018,-15.02c8.295,0 15.017,6.725 15.017,15.02z"/>
  <path id="svg_26" fill="white" d="m112.071,366.788c-0.57,0 -1.035,-0.48 -1.035,-1.068l0,-3.561c0,-0.588 0.465,-1.068 1.035,-1.068c0.57,0 1.036,0.48 1.036,1.068l0,3.561c0,0.588 -0.466,1.068 -1.036,1.068z"/>
  <path id="svg_27" fill="white" d="m114.661,362.645c-0.285,0 -0.518,-0.263 -0.518,-0.583l0,-4.534c0,-0.32 0.233,-0.58 0.518,-0.58c0.286,0 0.518,0.26 0.518,0.58l0,4.534c0,0.32 -0.232,0.583 -0.518,0.583z"/>
  <path id="svg_28" fill="white" d="m119.582,366.27c-0.427,0 -0.779,-0.279 -0.779,-0.621l0,-2.899c0,-0.342 0.352,-0.623 0.779,-0.623c0.426,0 0.775,0.281 0.775,0.623l0,2.899c0,0.342 -0.349,0.621 -0.775,0.621z"/>
  <path id="svg_29" fill="#E8E8E8" d="m125.536,367.824c0,5.72 -4.639,10.358 -10.358,10.358c-5.719,0 -10.356,-4.638 -10.356,-10.358l20.714,0z"/>
  <path id="svg_30" fill="white" d="m120.875,367.824l-16.053,0c0,3.355 1.554,6.34 3.971,8.257c0.963,0.353 2.004,0.547 3.09,0.547c4.894,0 8.873,-3.921 8.992,-8.804z"/>
  <path id="svg_31" fill="#E8E8E8" d="m112.589,379.218l5.179,0l0,-2.072l-5.179,0l0,2.072z"/>
  <path id="svg_32" fill="#FFC1CA" d="m167.224,389.576c-7.296,0 -13.206,-5.913 -13.206,-13.207c0,-7.295 5.91,-13.206 13.206,-13.206c7.293,0 13.205,5.911 13.205,13.206c0,7.294 -5.912,13.207 -13.205,13.207z"/>
  <path id="svg_33" fill="#FA7071" d="m171.625,378.7c0,0 -1.028,2.329 -1.469,4.661l-6.384,0c-0.441,-2.332 -1.469,-4.661 -1.469,-4.661l9.322,0z"/>
  <path id="svg_34" fill="#DF5244" d="m171.108,380.161c0.287,-0.883 0.517,-1.461 0.517,-1.461l-9.322,0c0,0 0.246,0.62 0.549,1.558c1.212,0.327 2.543,0.513 3.948,0.513c1.542,0 3.003,-0.219 4.308,-0.61z"/>
  <path id="svg_35" fill="#F0F0F0" d="m164.689,371.58c-2.351,0.905 -4.457,2.689 -4.457,5.445c0,0.462 0.064,0.908 0.179,1.338c1.693,0.855 3.891,1.373 6.294,1.373c2.405,0 4.6,-0.518 6.293,-1.373c0.117,-0.43 0.181,-0.876 0.181,-1.338c0,-2.329 -1.737,-4.326 -4.711,-5.576l-3.779,0.131z"/>
  <path id="svg_36" fill="white" d="m169.554,372.62c0,-0.251 -0.022,-0.497 -0.053,-0.741c-0.303,-0.15 -0.619,-0.295 -0.956,-0.43l-3.814,0.126c-2.373,0.871 -4.499,2.587 -4.499,5.238c0,0.438 0.063,0.864 0.178,1.27c0.84,0.392 1.78,0.617 2.778,0.617c3.514,0 6.366,-2.722 6.366,-6.08z"/>
  <path id="svg_37" fill="#FA7071" d="m168.518,369.895c0,1.146 -0.928,2.072 -2.071,2.072c-1.143,0 -2.072,-0.926 -2.072,-2.072c0,-1.144 0.929,-2.071 2.072,-2.071c1.143,0 2.071,0.927 2.071,2.071z"/>
  <path id="svg_38" fill="#DBE0FF" d="m159.839,338.821c-0.916,0 -1.821,-0.043 -2.714,-0.124c0.584,-0.309 1.162,-0.611 1.751,-0.912c0.453,0.341 0.907,0.688 1.356,1.033c-0.131,0.001 -0.26,0.003 -0.393,0.003z"/>
  <path id="svg_39" fill="#CAE2FB" d="m37.1528,378.164c0.0109,-0.105 0.022,-0.212 0.0328,-0.321c0.0083,0.093 0.0173,0.19 0.0264,0.288l-0.0592,0.033z"/>
  <path id="svg_40" fill="#5FA469" d="m377.035,320.906c3.802,0.292 8.483,2.926 10.239,16.39c1.754,13.465 0.876,20.489 0.876,20.489l-18.134,-0.586c0,0 -2.432,-36.73 4.487,-36.365l2.532,0.072z"/>
  <path id="svg_41" fill="#87C595" d="m367.355,330.803l13.507,0.289c0,0 1.438,20.889 5.748,26.111l-17.818,0.582c0,0 -10.346,-24.952 -1.437,-26.982z"/>
  <path id="svg_42" fill="#87C595" d="m268.44,319.659c-8.816,-0.098 -16.336,6.35 -17.573,15.067l-24.96,175.865l148.679,0.873l-2.837,-181.603c0,0 1.584,-8.576 4.978,-8.503c6.02,-0.512 -14.963,-0.668 -14.963,-0.668l-93.324,-1.031z"/>
  <path id="svg_43" fill="#5FA469" d="m393.648,503.598l-21.7,-173.968l2.791,181.834l18.909,-7.866z"/>
  <path id="svg_44" fill="#DCC075" d="m298.401,382.726c3.223,0.248 7.191,2.479 8.679,13.884c1.488,11.404 0.744,17.355 0.744,17.355l-15.374,-0.496c0,0 -2.06,-31.113 3.805,-30.804l2.146,0.061z"/>
  <path id="svg_45" fill="#F1E5C5" d="m290.218,390.907l11.655,0.248c0,0 1.24,17.851 4.959,22.313l-15.374,0.497c0,0 -8.928,-21.321 -1.24,-23.058z"/>
  <path id="svg_46" fill="#FFF9C4" d="m221.693,381.835c-6.298,-0.07 -11.672,4.542 -12.556,10.779l-17.833,125.813l106.235,0.625l-2.027,-129.92c0,0 1.13,-6.134 3.557,-6.082c4.3,-0.366 -10.693,-0.477 -10.693,-0.477l-66.683,-0.738z"/>
  <path id="svg_47" fill="#DCC075" d="m311.283,513.43l12.493,-5.829l-28.264,-118.467l15.771,124.296z"/>
  <path id="svg_48" fill="#DCC075" d="m311.283,513.43l-15.771,-124.296l2.028,129.918l13.743,-5.622z"/>
  <path id="svg_49" fill="#D0DD77" d="m323.386,390.663c-6.88,0 -12.457,-5.578 -12.457,-12.456c0,-6.877 5.577,-12.455 12.457,-12.455c6.881,0 12.458,5.578 12.458,12.455c0,6.878 -5.577,12.456 -12.458,12.456z"/>
  <path id="svg_50" fill="#D0DD77" d="m339.997,423.877c-4.721,0 -8.55,-3.827 -8.55,-8.547c0,-4.721 3.829,-8.549 8.55,-8.549c3.543,0 6.583,2.156 7.879,5.227l0.1,6.397c-1.234,3.201 -4.342,5.472 -7.979,5.472z"/>
  <path id="svg_51" fill="#BFD4F8" d="m230.143,356.167c0,10.151 -8.231,18.379 -18.384,18.379c-10.152,0 -18.384,-8.228 -18.384,-18.379c0,-10.153 8.232,-18.382 18.384,-18.382c10.153,0 18.384,8.229 18.384,18.382z"/>
  <path id="svg_52" fill="white" d="m212.982,345.462l-10.788,0c-0.496,0 -0.898,0.384 -0.898,0.856c0,0.646 0.551,1.17 1.231,1.17l2.789,0c0.417,0 0.755,0.322 0.755,0.717c0,0.598 -0.509,1.082 -1.138,1.082l-6.646,0c-0.838,0 -1.515,0.643 -1.515,1.439l0,0.72c0,0.795 0.677,1.44 1.515,1.44l4.613,0c0.433,0 0.782,0.331 0.782,0.743l0,0.649c0,0.411 -0.349,0.745 -0.782,0.745l-5.568,0c-0.726,0 -1.313,0.558 -1.313,1.248l0,0.538c0,0.691 0.587,1.25 1.313,1.25l8.481,0c0.628,0 1.137,0.483 1.137,1.081l0,0.198c0,0.597 -0.509,1.082 -1.137,1.082l-3.51,0c-0.973,0 -1.761,0.75 -1.761,1.675l0,0.474c0,0.925 0.788,1.674 1.761,1.674l14.45,0l-3.771,-18.781z"/>
  <path id="svg_53" fill="#F3A9B8" d="m226.794,354.554c0,6.068 -4.896,10.989 -10.936,10.989c-6.039,0 -10.936,-4.921 -10.936,-10.989c0,-6.068 4.897,-10.987 10.936,-10.987c6.04,0 10.936,4.919 10.936,10.987z"/>
  <path id="svg_54" fill="white" d="m225.876,354.635c0,5.307 -4.303,9.608 -9.612,9.608c-5.308,0 -9.61,-4.301 -9.61,-9.608c0,-5.308 4.302,-9.61 9.61,-9.61c5.309,0 9.612,4.302 9.612,9.61z"/>
  <path id="svg_55" fill="#2E3054" d="m216.312,353.878l5.072,-5.071l-4.735,7.269l-0.337,-2.198z"/>
  <path id="svg_56" fill="#2E3054" d="m216.312,353.878l-4.058,-1.69l4.395,3.888l0.677,-1.014l-1.014,-1.184z"/>
  <path id="svg_57" fill="#4F5A79" d="m216.884,347.286c0,0.341 -0.278,0.618 -0.619,0.618c-0.342,0 -0.619,-0.277 -0.619,-0.618c0,-0.342 0.277,-0.618 0.619,-0.618c0.341,0 0.619,0.276 0.619,0.618z"/>
  <path id="svg_58" fill="#4F5A79" d="m216.884,361.711c0,0.343 -0.278,0.62 -0.619,0.62c-0.342,0 -0.619,-0.277 -0.619,-0.62c0,-0.341 0.277,-0.616 0.619,-0.616c0.341,0 0.619,0.275 0.619,0.616z"/>
  <path id="svg_59" fill="#4F5A79" d="m223.48,355.117c-0.342,0 -0.617,-0.277 -0.617,-0.619c0,-0.341 0.275,-0.618 0.617,-0.618c0.341,0 0.618,0.277 0.618,0.618c0,0.342 -0.277,0.619 -0.618,0.619z"/>
  <path id="svg_60" fill="#4F5A79" d="m209.049,355.117c-0.339,0 -0.616,-0.277 -0.616,-0.619c0,-0.341 0.277,-0.618 0.616,-0.618c0.343,0 0.62,0.277 0.62,0.618c0,0.342 -0.277,0.619 -0.62,0.619z"/>
  <path id="svg_61" fill="#9CC765" d="m269,100.249c21.915,13.79 90.525,20.017 75.895,48.492c31.795,2.237 39.876,12.537 34.019,33.057c0.623,-2.207 11.606,1.213 13.093,2.17c2.469,1.579 5.09,5.785 6.268,7.988c3.747,7.012 3.09,14.154 3.008,21.258c-0.083,8.474 0.894,17.065 2.495,25.529c-16.826,-20.503 -88.972,-32.277 -72.352,-51.128c-11.357,-0.877 -32.383,-1.676 -40.133,-9.582c-9.934,-10.131 5.112,-16.434 16.106,-18.847c-42.709,-11.174 -35.687,-23.711 -26.994,-37.764l-6.443,-7.726c-2.783,-4.235 -4.584,-9.092 -4.962,-13.447z"/>
  <path id="svg_62" fill="#7CC7B9" d="m348.077,143.013c-0.915,-12.847 -7.123,-28.249 -13.956,-40.035c-4.62,-7.9715 -18.054,-28.1767 -29.782,-26.6592c-13.146,1.7021 -6.691,26.6212 -2.547,34.3692c6.075,11.371 15.296,19.451 25.383,27.643c9.563,7.764 17.918,17.127 27.294,24.484l-6.392,-19.802z"/>
  <path id="svg_63" fill="#7CC7B9" d="m345.482,159.011c-4.002,-6.784 -11.594,-13.603 -18.541,-18.287c-4.693,-3.169 -17.543,-10.755 -23.536,-6.916c-6.719,4.307 3.603,16.263 7.977,19.431c6.42,4.65 13.661,6.698 21.405,8.582c7.341,1.785 14.459,4.755 21.585,6.366l-8.89,-9.176z"/>
  <path id="svg_64" fill="#E7C264" d="m388.305,208.519c7.603,-12.773 20.742,-18.619 14.107,-36.011c-2.653,-6.953 -9.52,-11.541 -12.984,-17.724c-4.331,-7.723 -1.29,-9.024 -0.615,-16.91c1.465,-17.006 -12.51,-21.202 -21.383,-34.634c-6.196,-9.3684 -5.33,-19.9687 -13.418,-29.9455c-8.207,-10.1383 -22.798,-19.5234 -26.44,-31.2945c-0.542,20.5079 -14.864,51.3703 6.424,69.697c-11.595,5.783 -12.934,18.186 -6.624,28.27c3.019,4.814 11.995,8.879 13.915,13.896c2.618,6.853 -2.684,6.836 -2.944,12.712c-0.817,18.658 70.444,48.73 53.541,66.635l-3.579,-24.691z"/>
  <path id="svg_65" fill="#EDFAD3" d="m385.241,198.728l0.102,-6.351c-0.001,0 -0.001,-0.002 -0.001,-0.002l-0.102,6.349c0,0.001 0,0.003 0.001,0.004zm-12.752,-33.606l0.463,-3.535c-1.099,-2.686 -2.179,-5.35 -3.241,-7.977c0.211,-1.97 2.663,-4.278 5.11,-6.325l0.334,-2.558c-0.11,0.092 -0.221,0.183 -0.334,0.274c-2.31,1.896 -4.834,3.97 -6.133,6.061c-0.128,-0.311 -0.256,-0.633 -0.375,-0.943c-2.429,-6.008 -5.101,-12.011 -7.779,-17.897l0.498,0.258c1.328,-1.825 3.175,-3.482 4.95,-5.086c1.614,-1.457 3.282,-2.961 4.627,-4.63c2.603,-3.252 3.871,-6.687 4.869,-10.083c-0.509,-0.502 -1.02,-1.016 -1.528,-1.538c-1.062,3.744 -2.231,7.305 -4.974,10.723c-1.275,1.592 -2.903,3.06 -4.476,4.481c-1.602,1.442 -3.229,2.941 -4.557,4.586c-0.598,-1.303 -1.194,-2.598 -1.781,-3.886c-0.064,-0.142 -0.127,-0.288 -0.201,-0.427l0.078,-0.08l-0.149,-0.076c-2.111,-4.612 -4.242,-9.287 -6.3,-14.01c5.53,-4.96 9.667,-11.015 11.968,-17.2664c-0.357,-1.0086 -0.687,-2.0259 -1.008,-3.0486c-1.884,6.6463 -5.985,13.228 -11.709,18.591c-2.366,-5.49 -4.585,-11.0364 -6.511,-16.606c-0.216,-0.6356 -0.409,-1.2748 -0.621,-1.9037c6.676,-2.6603 9.288,-11.0831 10.361,-18.8521l-0.058,-0.0737c-0.182,-0.225 -0.366,-0.4474 -0.554,-0.6713c-0.342,-0.4076 -0.693,-0.8131 -1.054,-1.2167c-0.854,7.6753 -3.065,16.4106 -9.202,19.2532c-1.835,-5.7585 -3.37,-11.5535 -4.848,-17.1927c-0.587,-2.2691 -1.181,-4.5239 -1.789,-6.7776c-0.577,-2.1495 -1.289,-4.3066 -1.975,-6.393c-0.578,-1.748 -1.168,-3.5499 -1.659,-5.2815c-0.332,-1.1369 -0.745,-2.4248 -1.192,-3.7947c-0.236,-0.7409 -0.49,-1.5215 -0.741,-2.3215c-1.124,-1.666 -2.074,-3.3702 -2.79,-5.1274c-0.24,-0.5841 -0.452,-1.1744 -0.636,-1.7713c-0.009,0.3409 -0.021,0.683 -0.038,1.029c0.532,2.6913 1.492,5.6586 2.379,8.3947c0.444,1.3542 0.857,2.6381 1.172,3.7458c0.504,1.7582 1.101,3.5733 1.68,5.3355c0.682,2.0696 1.389,4.215 1.961,6.3222c0.609,2.2523 1.201,4.5086 1.791,6.7711c0.659,2.5468 1.344,5.1222 2.052,7.7179c-5.95,-2.0466 -10.614,-4.4108 -15.574,-7.6432c-0.062,0.5247 -0.12,1.0483 -0.175,1.5719c-0.004,0.0372 -0.007,0.0733 -0.012,0.1105c4.702,2.9622 9.784,5.5309 16.228,7.6651c1.053,3.7676 2.184,7.5597 3.48,11.3284c0.821,2.3836 1.707,4.7606 2.63,7.1311c-6.148,-0.342 -15.011,-3.1177 -21.542,-6.8379c0.163,0.6767 0.354,1.3495 0.551,2.0094c6.11,3.1952 13.612,5.5325 19.454,6.1765c0.733,0.079 1.436,0.13 2.107,0.152c3.004,7.58 6.397,15.071 9.753,22.406c-1.697,-0.564 -3.643,-0.925 -5.55,-1.278c-1.838,-0.342 -3.737,-0.687 -5.25,-1.198c-6.067,-2.044 -11.996,-4.364 -15.899,-7.543c-0.372,0.368 -0.725,0.74 -1.062,1.128c4.895,3.889 12.042,6.299 16.398,7.765c1.685,0.566 3.666,0.937 5.587,1.291c2.445,0.452 4.95,0.918 6.66,1.769l0.037,0.077c2.241,4.876 4.516,9.863 6.694,14.882c-3.464,-0.975 -7.379,-1.558 -11.188,-2.127c-3.189,-0.463 -6.494,-0.952 -9.367,-1.662c-7.679,-1.894 -13.058,-4.954 -18.724,-8.2c0.084,0.647 0.19,1.285 0.337,1.92c5.35,3.046 10.619,5.866 18.02,7.693c2.987,0.734 6.352,1.229 9.602,1.711c4.196,0.617 8.52,1.26 12.092,2.425c0.906,2.121 1.804,4.246 2.659,6.371c0.424,1.07 0.861,2.146 1.297,3.221l-0.005,0.157l0.073,0.007c1.5,3.714 3.039,7.504 4.609,11.327zm13.782,-30.523c0,-0.002 0,-0.002 0.001,-0.002l0.061,-3.815c0,0 0,0 -0.001,0.002l-0.061,3.815z"/>
  <g id="svg_66">
   <path id="svg_67" fill="#ADEDB3" d="m-2.8753,660.007c-14.1314,-164.7346 119.8643,-114.93782 254.3643,-114.93744c134.499,0.00038 189.511,-2.30651 189.511,114.93744l0,390.25c0,39.401 -59.861,89.74 -106.742,47.59c-56.562,-50.854 -162.51,181.209 -194.81,25.625c-32.3008,-155.583 -50.4698,34.778 -134.24832,-140.94c-83.77858,-175.717 6.05629,-157.789 -8.07498,-322.525z"/>
  </g>
 </g>
</svg>