<svg width="375" height="300" viewBox="0 0 375 300" fill="none" xmlns="http://www.w3.org/2000/svg">
<path d="M367.377 182.836C347.492 233.96 305.039 276.026 248.408 289.421C214.841 297.358 180.257 299.117 145.8 299.364C117.957 299.563 90.5116 290.688 63.3098 284.71C31.7955 277.785 25.1505 265.96 -16.1497 268.238C-57.45 270.515 -118.728 276.589 -130.52 243.182C-138.598 220.296 -98.7503 193.83 -126.549 158.145C-154.347 122.46 -128.931 60.9604 -82.0714 26.0346C-35.2115 -8.8912 -4.14728 78.1641 38.697 77.9141C81.5413 77.6641 80.626 4.87343 153.359 4.87341C226.092 4.87339 273.473 40.1048 326.649 69.2841C368.232 92.0975 384.847 137.936 367.377 182.836Z" fill="#DDF8CD"/>
<path d="M200.96 257.008C200.96 258.222 177.889 259.207 149.429 259.207C120.968 259.207 97.8975 258.222 97.8975 257.008C97.8975 255.793 120.968 254.81 149.429 254.81C177.889 254.81 200.96 255.793 200.96 257.008Z" fill="#ABDBE6"/>
<path d="M132.957 70.2739C132.957 72.7973 130.904 74.8447 128.375 74.8447C125.843 74.8447 123.795 72.7973 123.795 70.2739C123.795 67.7458 125.843 65.6996 128.375 65.6996C130.904 65.6996 132.957 67.7458 132.957 70.2739Z" fill="white"/>
<path d="M312.461 74.0067C312.461 77.7102 309.441 80.7138 305.735 80.7138C302.03 80.7138 299.009 77.7102 299.009 74.0067C299.009 70.3008 302.03 67.2983 305.735 67.2983C309.441 67.2983 312.461 70.3008 312.461 74.0067Z" fill="white"/>
<path d="M341.278 108.154C336.811 108.154 333.183 104.537 333.183 100.076C333.183 95.6107 336.811 91.9949 341.278 91.9949C345.757 91.9949 349.372 95.6107 349.372 100.076C349.372 104.537 345.757 108.154 341.278 108.154Z" fill="white"/>
<path d="M213.994 67.3223C211.801 67.3223 210.024 65.5478 210.024 63.3594C210.024 61.1714 211.801 59.3958 213.994 59.3958C216.188 59.3958 217.966 61.1714 217.966 63.3594C217.966 65.5478 216.188 67.3223 213.994 67.3223Z" fill="white"/>
<path d="M295.613 123.339C295.613 124.517 294.659 125.475 293.47 125.475C292.296 125.475 291.34 124.517 291.34 123.339C291.34 122.16 292.296 121.207 293.47 121.207C294.659 121.207 295.613 122.16 295.613 123.339Z" fill="white"/>
<path d="M217.406 233.648L213.275 240.446C213.275 240.446 219.065 248.294 224.706 249.233C230.349 250.17 219 243.292 223.942 238.225C228.887 233.158 217.406 233.648 217.406 233.648Z" fill="white"/>
<path d="M364.955 268.924C363.444 253.782 360.5 237.952 362.063 222.6C362.489 218.405 366.065 199.66 372.83 203.976C378.265 207.444 374.689 220.116 374.65 225.382C374.547 239.552 371.733 254.85 367.86 267.956L364.955 268.924Z" fill="#7CC7B9"/>
<path d="M48.8931 196.83C38.0468 193.649 30.3792 183.899 31.0688 172.344C31.4356 166.192 34.1869 166.961 37.9305 163.241C41.9004 159.298 39.7278 157.809 36.3662 153.434C30.2104 145.426 24.4215 136.42 26.9262 125.751C29.2964 115.653 41.2742 115.825 38.6267 105.275C35.2235 91.7085 36.575 78.2231 38.1463 64.2882C39.0654 56.1365 42.0423 36.2336 53.2788 35.9297C63.8754 35.6463 63.364 55.3737 63.5806 62.0564C63.7825 68.2856 62.4566 72.5948 67.2448 76.1062C73.3761 80.5994 80.4726 82.0866 81.7507 91.0656C83.2574 101.653 71.5169 106.112 70.932 115.508C70.4493 123.3 81.6371 127.816 85.6125 134.233C93.0758 146.284 78.5427 146.367 77.3211 155.99C77.239 156.64 76.8501 157.03 76.5545 157.569C80.629 160.638 86.2449 162.271 88.5676 167.218C91.2673 172.97 89.2934 178.87 85.3114 183.299C77.3047 192.203 62.2691 200.044 50.242 197.187C49.7877 197.079 49.3385 196.96 48.8931 196.83Z" fill="#E7C264"/>
<path d="M74.0624 266.703C74.0624 267.585 65.1818 268.301 54.2261 268.301C43.2701 268.301 34.3906 267.585 34.3906 266.703C34.3906 265.818 43.2701 265.104 54.2261 265.104C65.1818 265.104 74.0624 265.818 74.0624 266.703Z" fill="#ABDBE6"/>
<path d="M53.5466 260.845H53.0083V247.2C53.188 247.282 53.3673 247.364 53.5466 247.443V260.845Z" fill="white"/>
<path d="M53.5466 247.444C53.3673 247.364 53.188 247.282 53.0083 247.201V197.656C53.188 197.675 53.3673 197.691 53.5466 197.706V247.444Z" fill="#E5F7FF"/>
<path d="M53.5466 197.706C53.3673 197.691 53.188 197.675 53.0083 197.655V176.154L53.3716 176.515L53.5466 176.34V184.772L53.0884 185.23L53.468 185.609L53.5466 185.531V193.297L53.0884 193.756L53.468 194.135L53.5466 194.056V197.706ZM53.5466 175.933L53.0083 175.394V137.501L53.3716 137.865L53.5466 137.688V146.689L53.0884 147.148L53.468 147.527L53.5466 147.447V151.805L53.0884 152.264L53.468 152.643L53.5466 152.564V162.037L53.0884 162.494L53.468 162.874L53.5466 162.794V175.933ZM53.5466 137.281L53.0083 136.744V131.249L53.3716 131.611L53.5466 131.436V137.281ZM53.5466 131.028L53.0083 130.491V96.5761L53.3716 96.9395L53.5466 96.7644V108.037L53.0884 108.496L53.468 108.875L53.5466 108.796V116.564L53.0884 117.021L53.468 117.401L53.5466 117.321V131.028ZM53.5466 96.3556L53.0083 95.8183V90.8931L53.3716 91.2557L53.5466 91.0802V96.3556ZM53.5466 90.6714L53.0083 90.1341V61.335L53.3716 61.6968L53.5466 61.5228V71.0911L53.0884 71.55L53.468 71.9285L53.5466 71.8501V90.6714Z" fill="#EDFAD3"/>
<path d="M53.0083 35.9408V35.9297H53.2786C53.188 35.9319 53.0978 35.936 53.0083 35.9408Z" fill="#EDFAD3"/>
<path d="M53.5466 61.1142L53.0083 60.5769V35.9413C53.0978 35.9363 53.188 35.932 53.2786 35.9297H53.5466V61.1142Z" fill="#EDFAD3"/>
<path d="M81.4459 89.4737C81.437 89.4366 81.4278 89.3995 81.4177 89.3621C81.4278 89.3995 81.437 89.4366 81.4459 89.4737Z" fill="#EDFAD3"/>
<path d="M53.4682 117.401L53.0886 117.021L53.5468 116.563L81.2824 88.8776C81.3287 89.0371 81.3754 89.1971 81.4178 89.3621C81.4279 89.3997 81.4372 89.437 81.4462 89.4743L53.5468 117.321L53.4682 117.401Z" fill="#EDFAD3"/>
<path d="M53.4682 108.874L53.0886 108.496L53.5468 108.037L78.1359 83.4923C78.2623 83.6212 78.384 83.7513 78.505 83.8844L53.5468 108.796L53.4682 108.874Z" fill="#EDFAD3"/>
<path d="M76.0794 124.911C75.9553 124.797 75.8313 124.682 75.7087 124.566L75.7099 124.564C75.8336 124.681 75.9569 124.797 76.0794 124.911Z" fill="#EDFAD3"/>
<path d="M53.4682 147.527L53.0886 147.148L53.5468 146.689L75.7089 124.566C75.8314 124.682 75.9555 124.797 76.0796 124.911C76.087 124.919 76.0948 124.926 76.1025 124.934L53.5468 147.447L53.4682 147.527Z" fill="#EDFAD3"/>
<path d="M53.4682 71.9283L53.0886 71.5498L53.5468 71.0909L63.5554 61.1018V61.1041C63.5604 61.3631 63.567 61.6088 63.5732 61.8425L53.5468 71.8499L53.4682 71.9283Z" fill="#EDFAD3"/>
<path d="M53.4682 152.642L53.0886 152.263L53.5468 151.805L78.4237 126.973C78.5595 127.091 78.6975 127.206 78.8344 127.322L53.5468 152.564L53.4682 152.642Z" fill="#EDFAD3"/>
<path d="M53.4682 194.135L53.0886 193.756L53.5468 193.298L81.8452 165.052L82.2248 165.431L53.5468 194.057L53.4682 194.135Z" fill="#EDFAD3"/>
<path d="M53.4682 162.874L53.0886 162.494L53.5468 162.036L81.8452 133.789L82.2248 134.169L53.5468 162.794L53.4682 162.874Z" fill="#EDFAD3"/>
<path d="M36.0988 114.371L36.0957 114.369C36.2252 114.242 36.3493 114.113 36.4718 113.984L36.4741 113.987C36.3516 114.115 36.2264 114.244 36.0988 114.371Z" fill="#EDFAD3"/>
<path d="M53.3717 131.611L53.0084 131.249L36.0989 114.37C36.2264 114.244 36.3517 114.115 36.4742 113.986L53.0084 130.491L53.5467 131.028L53.7509 131.232L53.5467 131.435L53.3717 131.611Z" fill="#EDFAD3"/>
<path d="M53.3717 137.865L53.0084 137.501L32.7563 117.287C32.8921 117.169 33.0286 117.052 33.1667 116.938L53.0084 136.744L53.5467 137.281L53.7509 137.485L53.5467 137.688L53.3717 137.865Z" fill="#EDFAD3"/>
<path d="M38.9478 162.119V162.118C39.0652 161.969 39.1726 161.824 39.2694 161.681L39.2721 161.683C39.1741 161.825 39.0668 161.97 38.9478 162.119Z" fill="#EDFAD3"/>
<path d="M53.3716 176.515L53.0083 176.153L38.9478 162.119C39.0668 161.97 39.1741 161.825 39.2721 161.683L53.0083 175.394L53.5466 175.933L53.7508 176.136L53.5466 176.34L53.3716 176.515Z" fill="#EDFAD3"/>
<path d="M79.5882 159.538C79.4283 159.444 79.2697 159.351 79.1106 159.255H79.1118C79.2697 159.35 79.4295 159.444 79.5897 159.536L79.5882 159.538Z" fill="#EDFAD3"/>
<path d="M53.4682 185.609L53.0886 185.23L53.5468 184.772L79.1118 159.255C79.2697 159.351 79.4284 159.444 79.5882 159.538L53.5468 185.531L53.4682 185.609Z" fill="#EDFAD3"/>
<path d="M53.3716 61.6968L53.0083 61.335L41.0691 49.4192C41.1298 49.227 41.1943 49.0375 41.2562 48.8469L53.0083 60.5772L53.5466 61.1145L53.7508 61.3183L53.5466 61.5229L53.3716 61.6968Z" fill="#EDFAD3"/>
<path d="M53.3719 91.2557L53.0086 90.8931L37.0566 74.9698C37.0749 74.7377 37.0955 74.5032 37.1161 74.2703L53.0086 90.1342L53.5469 90.6715L53.7511 90.8753L53.5469 91.0802L53.3719 91.2557Z" fill="#EDFAD3"/>
<path d="M53.3718 96.9398L53.0086 96.5764L36.6875 80.2871C36.7003 80.046 36.7136 79.8061 36.7264 79.5665L53.0086 95.8186L53.5469 96.3559L53.7511 96.5597L53.5469 96.7647L53.3718 96.9398Z" fill="#EDFAD3"/>
<path d="M53.1675 260.845H54.0492V196.351H53.1675V260.845Z" fill="#EDFAD3"/>
<path d="M56.6932 265.565C56.6932 265.565 41.1582 210.023 31.2158 234.273C21.2725 258.523 56.6932 265.565 56.6932 265.565Z" fill="#7CC7B9"/>
<path d="M71.5866 208.63C69.4074 208.63 67.4358 209.545 65.728 211.35C56.1601 221.454 56.8509 256.183 57.1558 264.367C61.7904 256.796 82.2069 222.374 77.1021 211.684C76.264 209.928 74.7833 208.947 72.5753 208.689C72.2423 208.65 71.9094 208.63 71.5866 208.63ZM56.2519 267.834L56.1578 266.164C56.0567 264.381 53.8105 222.372 64.9431 210.612C67.1457 208.287 69.7675 207.277 72.7021 207.622C75.2687 207.925 77.0776 209.135 78.0729 211.222C84.0466 223.73 58.2503 264.682 57.1492 266.419L56.2519 267.834Z" fill="#5FA469"/>
<path d="M376.755 236.681C373.321 236.681 371.836 244.874 371.049 249.275C370.842 250.428 370.661 251.425 370.493 252.089C370.003 253.958 369.448 255.896 368.906 257.769C367.705 261.919 366.465 266.202 365.871 270.281L374.367 268.941L374.844 268.717C377.749 267.366 380.744 265.967 382.203 263.254C383.094 261.598 383.274 260.023 382.681 259.037C382.319 258.432 381.686 258.099 380.886 258.099C380.215 258.099 379.118 258.332 377.684 259.448L376.239 260.58L376.936 258.884C379.247 253.276 383.985 239.923 378.098 237.03C377.62 236.798 377.181 236.681 376.755 236.681ZM364.735 271.439L364.826 270.799C365.381 266.457 366.698 261.904 367.976 257.502C368.505 255.634 369.061 253.703 369.551 251.845C369.706 251.218 369.886 250.237 370.093 249.105C371.049 243.771 372.508 235.713 376.755 235.713C377.323 235.713 377.917 235.864 378.524 236.162C384.501 239.101 381.299 250.421 378.408 257.821C379.272 257.367 380.112 257.131 380.886 257.131C382.022 257.131 382.978 257.646 383.52 258.541C384.294 259.84 384.127 261.724 383.055 263.711C381.441 266.707 378.162 268.242 375.257 269.595L374.586 269.886L364.735 271.439Z" fill="#5FA469"/>
<path d="M366.75 271.651C368.88 261.889 364.051 246.067 360.178 236.679C358.926 233.613 352.057 223.456 347.733 225.541C343.614 227.527 349.32 238.351 350.896 240.865C349.772 239.407 347.41 238.142 345.073 238.182C340.839 238.25 341.742 239.065 342.168 242.532C342.814 247.885 346.88 250.862 350.599 254.027C347.836 252.991 343.434 253.173 343.575 257.205C343.731 261.235 366.75 271.651 366.75 271.651Z" fill="#E7C264"/>
<path d="M200.302 29.0158C200.302 45.0397 186.586 58.0304 169.668 58.0304C152.748 58.0304 139.032 45.0397 139.032 29.0158C139.032 12.9908 152.748 0 169.668 0C186.586 0 200.302 12.9908 200.302 29.0158Z" fill="#ABDBE6"/>
<path d="M197.877 29.2264C197.877 43.2428 186.496 54.6019 172.452 54.6019C158.412 54.6019 147.032 43.2428 147.032 29.2264C147.032 15.2115 158.412 3.85083 172.452 3.85083C186.496 3.85083 197.877 15.2115 197.877 29.2264Z" fill="white"/>
<path d="M172.573 27.2299L185.991 13.8385L173.47 33.0321L172.573 27.2299Z" fill="#2E3054"/>
<path d="M172.573 27.2303L161.841 22.7666L173.47 33.0325L175.258 30.355L172.573 27.2303Z" fill="#2E3054"/>
<path d="M174.089 9.82136C174.089 10.7236 173.357 11.4538 172.454 11.4538C171.551 11.4538 170.819 10.7236 170.819 9.82136C170.819 8.91915 171.551 8.1897 172.454 8.1897C173.357 8.1897 174.089 8.91915 174.089 9.82136Z" fill="#4F5A79"/>
<path d="M174.089 47.9181C174.089 48.8188 173.357 49.551 172.454 49.551C171.551 49.551 170.819 48.8188 170.819 47.9181C170.819 47.0159 171.551 46.2869 172.454 46.2869C173.357 46.2869 174.089 47.0159 174.089 47.9181Z" fill="#4F5A79"/>
<path d="M191.539 30.501C190.635 30.501 189.903 29.7704 189.903 28.8697C189.903 27.9687 190.635 27.2373 191.539 27.2373C192.441 27.2373 193.173 27.9687 193.173 28.8697C193.173 29.7704 192.441 30.501 191.539 30.501Z" fill="#4F5A79"/>
<path d="M153.369 30.501C152.467 30.501 151.735 29.7704 151.735 28.8697C151.735 27.9687 152.467 27.2373 153.369 27.2373C154.274 27.2373 155.005 27.9687 155.005 28.8697C155.005 29.7704 154.274 30.501 153.369 30.501Z" fill="#4F5A79"/>
<path d="M185.876 153.978C185.876 153.978 179.493 159.406 183.076 167.433C186.66 175.459 196.402 181.717 206.345 187.218C213.832 191.359 216.07 194.292 212.768 199.966C208.625 207.08 203.905 205.611 198.319 212.612C196.392 215.307 191.205 223.456 191.205 223.456L195.817 226.372C195.817 226.372 195.538 224.611 201.182 220.658C207.377 216.323 218.53 210.782 221.943 208.22C225.356 205.657 231.122 202.371 228.54 194.29C225.959 186.21 203.105 166.393 203.105 166.393L185.876 153.978Z" fill="#596A83"/>
<path d="M254.269 213.966C277.483 189.094 261.116 159.587 261.116 159.587L264.296 160.077C264.296 160.077 286.034 184.214 264.533 210.552L254.269 213.966Z" fill="#D43E3A"/>
<path d="M262.819 161.296C262.819 163.719 260.857 165.685 258.431 165.685C256.004 165.685 254.032 163.719 254.032 161.296C254.032 158.871 256.004 156.907 258.431 156.907C260.857 156.907 262.819 158.871 262.819 161.296Z" fill="#D43E3A"/>
<path d="M166.814 235.913C166.814 247.495 157.405 256.886 145.802 256.886C134.199 256.886 124.791 247.495 124.791 235.913C124.791 224.33 134.199 214.939 145.802 214.939C157.405 214.939 166.814 224.33 166.814 235.913Z" fill="#DDE4EA"/>
<path d="M166.814 235.913C166.814 247.495 157.405 256.886 145.802 256.886C134.199 256.886 124.791 247.495 124.791 235.913C124.791 224.33 134.199 214.939 145.802 214.939C157.405 214.939 166.814 224.33 166.814 235.913Z" fill="#596A83"/>
<path d="M156.167 235.913C156.167 241.895 151.308 246.746 145.315 246.746C139.32 246.746 134.461 241.895 134.461 235.913C134.461 229.931 139.32 225.08 145.315 225.08C151.308 225.08 156.167 229.931 156.167 235.913Z" fill="white"/>
<path d="M198.572 184.103C198.572 184.103 187.333 207.004 199.791 221.669C212.254 236.334 242.063 231.189 242.063 231.189L241.815 241.223L98.1621 246.626C98.1621 246.626 104.515 193.368 130.167 179.731C155.817 166.094 190.509 173.298 198.572 184.103Z" fill="#EA5A63"/>
<path d="M186.358 212.747C182.202 197.385 159.973 194.945 136.275 206.895C112.577 218.844 99.3835 242.498 99.3835 242.498C99.3835 242.498 99.7802 242.556 100.502 242.658L172.338 240.096C183.8 234.22 189.505 224.396 186.358 212.747Z" fill="#DE6264"/>
<path d="M107.5 208.816L107.146 208.568C107.165 208.541 107.881 207.531 109.198 205.901C108.969 206.416 108.749 206.93 108.529 207.449C107.88 208.285 107.527 208.78 107.5 208.816ZM194.958 180.235C194.743 180.219 194.513 180.202 194.268 180.184C194.023 180.02 193.775 179.858 193.518 179.698C193.789 179.717 194.044 179.736 194.285 179.753C194.508 179.915 194.731 180.075 194.958 180.235Z" fill="#E5F7FF"/>
<path d="M197.246 180.429C197.216 180.425 196.472 180.351 194.958 180.236C194.731 180.075 194.508 179.915 194.285 179.754C196.279 179.899 197.255 179.996 197.289 180L197.246 180.429Z" fill="#9BA6B5"/>
<path d="M108.529 207.449C108.749 206.931 108.969 206.416 109.198 205.901C111.532 203.008 115.754 198.158 121.322 193.368C129.291 186.512 141.708 178.402 155.8 178.402C155.936 178.402 156.071 178.403 156.207 178.404C175.89 178.643 187.917 179.306 193.518 179.698C193.775 179.859 194.023 180.02 194.268 180.184C189.06 179.804 176.845 179.088 156.201 178.835C156.055 178.834 155.906 178.833 155.76 178.833C132.275 178.833 113.089 201.577 108.529 207.449Z" fill="#E58B89"/>
<path d="M180.004 157.151C180.004 157.151 174.629 164.223 179.516 172.269C184.401 180.315 199.55 182.023 206.39 187.63C213.229 193.24 216.573 195.308 214.276 202.073C211.394 210.563 206.492 209.844 202.168 218.476C200.724 221.757 196.988 231.561 196.988 231.561L202.024 233.871C202.024 233.871 201.451 232.009 206.349 226.675C211.723 220.825 221.78 212.747 224.712 209.333C227.645 205.92 232.775 201.287 228.866 192.995C224.957 184.705 206.633 167.149 206.633 167.149L180.004 157.151Z" fill="#2E3054"/>
<path d="M293.211 181.9C293.211 188.029 291.135 192.995 288.574 192.995C286.003 192.995 271.473 190.071 271.473 182.752C271.473 175.438 286.003 170.804 288.574 170.804C291.135 170.804 293.211 175.771 293.211 181.9Z" fill="#DE6264"/>
<path d="M293.211 181.9C293.211 188.029 291.135 192.995 288.574 192.995C286.003 192.995 283.927 188.029 283.927 181.9C283.927 175.771 286.003 170.804 288.574 170.804C291.135 170.804 293.211 175.771 293.211 181.9Z" fill="#D43E3A"/>
<path d="M232.042 121.548C232.042 121.548 247.185 112.283 240.834 103.017C234.486 93.7495 225.202 93.7485 220.315 105.941C215.429 118.135 217.038 117.168 207.753 122.045C198.468 126.923 183.18 135.203 178.296 146.421C173.409 157.637 191.488 165.929 204.681 167.392C204.681 167.392 212.988 164.466 214.941 157.637C216.894 150.81 225.202 126.912 232.042 121.548Z" fill="#F9C9B7"/>
<path d="M214.668 117.79C213.121 116.557 211.077 120.106 207.318 122.061C197.883 126.965 182.985 135.306 178.019 146.588C173.054 157.868 191.428 166.209 204.835 167.682C204.835 167.682 213.278 164.737 215.264 157.868C217.093 151.543 224.405 130.638 230.984 123.171C231.545 122.533 218.239 120.643 214.668 117.79Z" fill="#EA5A63"/>
<path d="M216.833 115.14C216.833 115.14 225.05 123.341 231.862 122.045L229.915 124.851C229.915 124.851 218.356 126.447 211.259 119.914L216.833 115.14Z" fill="#2E3054"/>
<path d="M216.555 153.777C218.544 147.815 222.031 138.493 225.813 131.228C226.996 134.019 226.316 137.702 227.104 143.087C227.098 143.087 227.092 143.086 227.085 143.086C226.305 143.086 219.894 146.83 216.555 153.777Z" fill="#A5967A"/>
<path d="M216.439 154.021C212.585 144.864 210.102 131.468 213.699 128.049C215.104 126.715 216.28 126.021 217.7 126.021C218.998 126.021 220.499 126.601 222.564 127.798C224.289 128.8 225.257 129.915 225.813 131.228C222.031 138.492 218.544 147.815 216.555 153.777C216.516 153.857 216.477 153.94 216.439 154.021Z" fill="#A5261C"/>
<path d="M287.262 235.913C287.262 247.495 277.855 256.886 266.248 256.886C254.641 256.886 245.233 247.495 245.233 235.913C245.233 224.33 254.641 214.939 266.248 214.939C277.855 214.939 287.262 224.33 287.262 235.913Z" fill="#DDE4EA"/>
<path d="M286.044 257.335C286.044 257.918 273.425 258.39 257.863 258.39C242.301 258.39 229.68 257.918 229.68 257.335C229.68 256.752 242.301 256.28 257.863 256.28C273.425 256.28 286.044 256.752 286.044 257.335Z" fill="#ABDBE6"/>
<path d="M287.262 235.913C287.262 247.495 277.855 256.886 266.248 256.886C254.641 256.886 245.233 247.495 245.233 235.913C245.233 224.33 254.641 214.939 266.248 214.939C277.855 214.939 287.262 224.33 287.262 235.913Z" fill="#596A83"/>
<path d="M277.101 235.913C277.101 241.895 272.237 246.746 266.248 246.746C260.258 246.746 255.395 241.895 255.395 235.913C255.395 229.931 260.258 225.08 266.248 225.08C272.237 225.08 277.101 229.931 277.101 235.913Z" fill="white"/>
<path d="M214.781 127.117C209.108 131.75 216.637 150.39 224.941 158.193C233.249 165.997 238.955 164.063 249.158 161.431C257.212 159.352 259.401 157.637 262.819 160.564C266.248 163.49 264.782 156.175 260.135 153.98C255.498 151.786 251.584 155.931 243.034 156.908C234.486 157.882 232.86 152.365 230.369 145.717C227.322 136.181 230.22 130.183 223.645 126.902C219.321 124.744 217.468 124.923 214.781 127.117Z" fill="#F9C9B7"/>
<path d="M287.397 217.675C282.543 211.556 275.036 207.626 266.609 207.626C251.966 207.626 240.101 219.471 240.101 234.084C240.101 237.683 240.824 241.112 242.125 244.241C248.579 244.569 257.367 242.4 266.186 237.862C277.411 232.082 285.497 224.102 287.397 217.675Z" fill="#D43E3A"/>
<path d="M271.649 223.146C268.065 223.146 265.174 220.253 265.174 216.683C265.174 213.114 268.065 210.219 271.649 210.219C272.743 210.219 273.786 210.494 274.695 210.978C273.549 211.337 272.723 212.402 272.723 213.661C272.723 215.215 273.983 216.472 275.542 216.472C276.554 216.472 277.442 215.939 277.938 215.138C278.051 215.633 278.124 216.15 278.124 216.683C278.124 220.253 275.222 223.146 271.649 223.146Z" fill="#E58B89"/>
<path d="M288.894 188.719C286.984 188.719 285.435 185.005 285.435 180.421C285.435 175.838 286.984 172.121 288.894 172.121C289.369 172.121 289.834 172.358 290.247 172.786C288.688 173.027 287.479 174.66 287.479 176.638C287.479 178.782 288.894 180.521 290.65 180.521C291.279 180.521 291.858 180.302 292.343 179.924C292.354 180.089 292.354 180.253 292.354 180.421C292.354 185.005 290.804 188.719 288.894 188.719Z" fill="#E58B89"/>
<path d="M293.066 179.157C292.787 176.556 292.127 174.321 291.238 172.821C292.715 173.157 293.83 174.738 293.83 176.638C293.83 177.599 293.541 178.48 293.066 179.157Z" fill="#E5F7FF"/>
<path d="M292.343 179.923C292.26 176.712 291.424 173.99 290.247 172.786C290.381 172.765 290.515 172.755 290.65 172.755C290.856 172.755 291.052 172.777 291.238 172.821C292.126 174.321 292.787 176.556 293.066 179.157C292.859 179.455 292.612 179.714 292.343 179.923Z" fill="#E58B89"/>
<path d="M290.65 180.521C288.894 180.521 287.479 178.782 287.479 176.638C287.479 174.66 288.688 173.027 290.247 172.786C291.424 173.991 292.26 176.712 292.343 179.924C291.858 180.302 291.279 180.521 290.65 180.521Z" fill="#EFB9B8"/>
<path d="M165.595 217.318C163.152 217.318 161.175 215.343 161.175 212.906C161.175 210.469 163.152 208.494 165.595 208.494C168.037 208.494 170.016 210.469 170.016 212.906C170.016 215.343 168.037 217.318 165.595 217.318Z" fill="#EBA1A2"/>
<path d="M171.971 209.436C170.962 209.436 170.144 208.62 170.144 207.613C170.144 206.607 170.962 205.791 171.971 205.791C172.981 205.791 173.797 206.607 173.797 207.613C173.797 208.62 172.981 209.436 171.971 209.436Z" fill="#EBA1A2"/>
<path d="M277.938 215.138C277.494 213.337 276.296 211.832 274.695 210.978C274.963 210.894 275.243 210.85 275.542 210.85C277.091 210.85 278.351 212.109 278.351 213.661C278.351 214.203 278.196 214.709 277.938 215.138Z" fill="#E58B89"/>
<path d="M275.542 216.472C273.983 216.472 272.723 215.215 272.723 213.661C272.723 212.403 273.549 211.337 274.695 210.978C276.296 211.833 277.494 213.338 277.938 215.138C277.442 215.939 276.554 216.472 275.542 216.472Z" fill="#EFB9B8"/>
<path d="M216.833 115.141C216.833 115.141 207.123 113.501 195.398 108.137C183.67 102.772 163.88 94.8238 147.755 101.652C147.755 101.652 161.377 107.478 156.806 116.051C156.198 116.754 167.545 111.551 179.027 115.209C190.509 118.866 204.68 123.5 211.764 119.842L216.833 115.141Z" fill="#2E3054"/>
<path d="M229.216 140.925C228.057 134.119 229.039 129.593 223.645 126.902C219.321 124.744 217.468 124.923 214.78 127.117C211.185 130.056 212.899 138.628 216.751 146.496C220.084 140.337 228.518 140.87 229.216 140.925Z" fill="#DE6264"/>
<path d="M155.59 227.684H119.489C118.98 227.684 118.566 227.346 118.566 226.929C118.566 226.511 118.98 226.172 119.489 226.172H155.59C156.099 226.172 156.511 226.511 156.511 226.929C156.511 227.346 156.099 227.684 155.59 227.684Z" fill="#EBA1A2"/>
<path d="M240.545 238.904H187.834C187.075 238.904 186.457 238.568 186.457 238.15C186.457 237.732 187.075 237.395 187.834 237.395H203.049C203.734 237.732 204.436 237.98 205.132 238.096C205.414 238.143 205.643 238.166 205.825 238.166C206.474 238.166 206.535 237.88 206.298 237.395H240.308C240.37 237.903 240.453 238.407 240.545 238.904Z" fill="#E58B89"/>
<path d="M241.785 238.904H240.545C240.453 238.407 240.369 237.903 240.308 237.395H241.785C242.538 237.395 243.158 237.732 243.158 238.15C243.158 238.568 242.538 238.904 241.785 238.904Z" fill="#E58B89"/>
<path d="M205.825 238.166C205.643 238.166 205.414 238.143 205.132 238.096C204.435 237.98 203.734 237.732 203.049 237.395H206.298C206.535 237.88 206.474 238.166 205.825 238.166Z" fill="white"/>
<path d="M142.89 233.079H113.27C112.851 233.079 112.512 232.74 112.512 232.324C112.512 231.907 112.851 231.568 113.27 231.568H142.89C143.309 231.568 143.646 231.907 143.646 232.324C143.646 232.74 143.309 233.079 142.89 233.079Z" fill="#EBA1A2"/>
<path d="M183.665 156.005C180.323 152.29 178.683 148.431 178.027 146.568C177.93 146.792 177.85 146.993 177.775 147.196C178.539 149.225 180.197 152.832 183.32 156.31C187.337 160.785 194.607 165.905 206.844 165.905C207.382 165.905 207.936 165.89 208.496 165.87C208.754 165.713 209.017 165.544 209.284 165.364C195.736 166.09 187.878 160.692 183.665 156.005Z" fill="#ACD0EF"/>
<path d="M124.982 141.712L107.723 140.123L124.982 139.062V141.712Z" fill="white"/>
<path d="M119.509 154.633L104.216 153.223L119.509 152.284V154.633Z" fill="white"/>
<path d="M123.299 149.166L97.2014 147.576L123.299 146.517V149.166Z" fill="white"/>
<path d="M242.331 103.254C242.331 103.254 247.061 103.948 244.593 106.961C242.125 109.974 237.223 104.081 232.528 105.74C227.831 107.4 234.479 102.717 242.331 103.254Z" fill="#2E3054"/>
<path d="M226.521 112.87C226.521 112.87 223.393 115.384 217.335 114.52L217.552 110.417L225.773 112.576L226.521 112.87Z" fill="#2E3054"/>
<path d="M242.332 103.254C241.506 103.685 241.722 103.731 239.781 103.692C236.608 103.63 230.827 104.174 228.339 110.494C227.987 111.387 228.62 112.44 226.953 113.302C225.285 114.161 222.362 113.793 222.362 113.793L217.552 113.224C217.552 113.224 207.2 98.9397 222.312 92.4924C232.559 88.1222 239.595 95.897 241.692 100.349C242.683 102.463 243.168 102.823 242.332 103.254Z" fill="#FCD746"/>
<path d="M237.872 95.9782C238.666 96.7852 238.934 97.813 238.469 98.2726C237.995 98.7325 236.972 98.4518 236.176 97.645C235.38 96.838 235.115 95.8102 235.582 95.3494C236.049 94.8898 237.074 95.1711 237.872 95.9782Z" fill="white"/>
<path d="M232.569 101.719C229.492 103.438 227.467 105.897 226.385 109.236C225.711 111.315 221.374 111.94 216.12 110.788C216.205 110.962 216.292 111.127 216.377 111.285C218.032 111.627 219.584 111.798 220.961 111.797C224.066 111.797 226.285 110.949 226.798 109.369C227.859 106.093 229.76 103.781 232.781 102.095C235.515 100.567 239.74 100.422 241.733 100.448L241.692 100.349C241.64 100.237 241.578 100.123 241.516 100.007C239.42 99.9899 235.329 100.176 232.569 101.719Z" fill="white"/>
<path d="M128.47 173.82H175.866V134.787H128.47V173.82Z" fill="#FFD72D"/>
<path d="M128.47 139.799H175.866V134.787H128.47V139.799Z" fill="#FFEB96"/>
<path d="M153.183 162.129C153.183 162.129 154.503 169.513 158.997 169.777C158.997 169.777 157.236 171.007 152.038 170.919C146.841 170.831 145.52 169.777 145.52 169.777C150.011 169.513 151.333 162.129 151.333 162.129H153.183Z" fill="#596A83"/>
<path d="M170.168 160.127C170.168 161.613 162.142 163.364 152.25 163.364C142.359 163.364 134.347 161.613 134.347 160.127C134.347 158.643 142.366 157.439 152.257 157.439C162.147 157.439 170.168 158.643 170.168 160.127Z" fill="#727F9C"/>
<path d="M167.476 158.795C167.457 150.495 160.719 143.78 152.409 143.78C144.098 143.78 137.359 150.495 137.341 158.784C137.451 160.073 144.154 161.084 152.409 161.084C160.664 161.084 167.366 160.073 167.472 158.82L167.476 158.795Z" fill="#596A83"/>
<path d="M154.446 142.576C154.446 143.517 153.681 144.281 152.738 144.281C151.794 144.281 151.03 143.517 151.03 142.576C151.03 141.635 151.794 140.872 152.738 140.872C153.681 140.872 154.446 141.635 154.446 142.576Z" fill="#596A83"/>
<path d="M145.001 159.321C145.001 159.321 142.188 159.122 140.179 158.72C140.379 154.308 141.787 146.688 151.231 145.284C151.231 145.284 145.201 148.694 145.001 159.321Z" fill="#ACB5C1"/>
<path d="M152.284 133.454L152.246 133.304C152.048 132.529 151.758 131.423 151.358 130.131C151.158 129.485 150.921 128.794 150.653 128.082C150.379 127.376 150.049 126.651 149.661 125.976C149.466 125.644 149.25 125.323 149.016 125.055C148.776 124.798 148.526 124.555 148.291 124.447C148.056 124.331 147.855 124.299 147.616 124.331L147.427 124.376L147.264 124.443L147.182 124.468L147.038 124.554L146.742 124.734C146.733 124.742 146.639 124.801 146.759 124.724L146.692 124.78L146.589 124.858L146.395 125.018C146.291 125.131 146.173 125.237 146.112 125.354C145.966 125.583 145.878 125.797 145.89 126.072C145.894 126.613 146.182 127.329 146.618 127.959C147.051 128.594 147.56 129.199 148.082 129.746C148.609 130.287 149.137 130.791 149.639 131.242C150.648 132.143 151.537 132.859 152.16 133.357L152.284 133.454ZM152.743 134.821C152.743 134.821 152.305 134.63 151.579 134.249C150.853 133.861 149.827 133.287 148.665 132.464C148.082 132.056 147.462 131.591 146.841 131.038C146.221 130.484 145.578 129.866 145.008 129.092C144.718 128.708 144.45 128.279 144.221 127.792C143.988 127.309 143.825 126.73 143.807 126.096C143.771 125.459 143.988 124.763 144.333 124.225C144.501 123.938 144.712 123.719 144.922 123.497C145.027 123.379 145.144 123.305 145.255 123.208L145.426 123.073L145.51 123.005L145.614 122.933L145.949 122.736L146.104 122.646L146.343 122.54C146.499 122.476 146.66 122.402 146.822 122.357C146.982 122.318 147.145 122.284 147.308 122.253C147.981 122.153 148.717 122.303 149.281 122.617C149.864 122.922 150.248 123.352 150.586 123.765C150.916 124.185 151.169 124.613 151.389 125.035C151.832 125.882 152.113 126.72 152.347 127.513C152.585 128.305 152.745 129.06 152.873 129.757C153.137 131.151 153.241 132.32 153.296 133.139C153.327 133.548 153.33 133.872 153.339 134.091C153.343 134.313 153.345 134.432 153.345 134.432C153.349 134.665 153.164 134.858 152.932 134.861L152.757 134.827L152.743 134.821Z" fill="#D43E3A"/>
<path d="M153.437 134.123C153.437 134.123 153.782 133.871 154.385 133.425C154.987 132.985 155.846 132.352 156.859 131.588C157.363 131.202 157.9 130.777 158.459 130.328C159.016 129.877 159.58 129.379 160.131 128.862C160.672 128.348 161.207 127.764 161.535 127.214C161.712 126.942 161.778 126.676 161.774 126.588L161.76 126.525L161.785 126.542L161.727 126.48L161.603 126.378L161.539 126.325C161.428 126.239 161.611 126.378 161.591 126.364L161.51 126.321L161.386 126.261L161.143 126.207C160.976 126.196 160.725 126.273 160.46 126.409C159.923 126.683 159.346 127.192 158.847 127.727C158.348 128.272 157.876 128.847 157.449 129.414C157.029 129.987 156.636 130.542 156.282 131.064C155.579 132.111 155.012 133.012 154.613 133.643C154.22 134.274 153.994 134.636 153.994 134.636L153.437 134.123ZM153.259 134.317C153.259 134.317 153.373 133.888 153.626 133.169C153.885 132.45 154.273 131.429 154.855 130.245C155.144 129.652 155.473 129.015 155.874 128.361C156.269 127.705 156.714 127.02 157.272 126.353C157.547 126.016 157.855 125.684 158.194 125.359C158.541 125.035 158.92 124.719 159.406 124.458C159.88 124.2 160.454 123.956 161.151 123.96C161.49 123.971 161.842 124.021 162.163 124.146C162.332 124.193 162.472 124.274 162.616 124.355L162.831 124.477L162.968 124.574L163.06 124.652L163.182 124.756L163.246 124.808L163.351 124.92C163.497 125.088 163.659 125.275 163.748 125.461C163.83 125.648 163.93 125.838 163.962 126.037C163.993 126.232 164.041 126.451 164.022 126.629C163.989 127.398 163.693 127.944 163.417 128.376C163.134 128.82 162.817 129.184 162.495 129.509C162.177 129.842 161.846 130.132 161.521 130.408C160.873 130.966 160.207 131.423 159.574 131.844C158.944 132.268 158.326 132.627 157.754 132.949C156.611 133.594 155.625 134.059 154.928 134.368C154.231 134.677 153.815 134.828 153.815 134.828C153.594 134.909 153.35 134.795 153.269 134.575L153.258 134.32L153.259 134.317Z" fill="#D43E3A"/>
<path d="M146.206 136.528C142.847 136.528 139.773 134.757 136.917 131.201C131.738 124.751 126.429 124.925 118.301 125.977C117.861 126.035 117.456 125.723 117.397 125.282C117.341 124.842 117.652 124.44 118.093 124.382C126.527 123.293 132.48 123.108 138.174 130.197C142.279 135.306 146.677 136.224 152.017 133.083C152.401 132.858 152.893 132.986 153.12 133.368C153.345 133.75 153.218 134.243 152.835 134.47C150.503 135.84 148.298 136.528 146.206 136.528Z" fill="#D43E3A"/>
</svg>
