<svg viewBox="0 0 170 170" fill="none" xmlns="http://www.w3.org/2000/svg">
<path d="M169.499 84.9996C169.499 131.668 131.667 169.5 84.9996 169.5C38.3325 169.5 0.5 131.668 0.5 84.9996C0.5 38.3322 38.3325 0.5 84.9996 0.5C131.667 0.5 169.499 38.3322 169.499 84.9996Z" fill="#EBECEC" stroke="#D9DADA"/>
<path d="M129.318 109.178C128.277 101.136 127.23 94.6059 122.343 75.8714C117.669 57.9623 115.35 51.2616 112.162 43.4137C111.742 42.3826 111.152 41.4624 110.431 40.7095C110.031 40.267 109.571 39.8922 109.059 39.5828L109.046 39.5764C108.931 39.5058 108.814 39.4389 108.692 39.3763C108.573 39.3129 108.455 39.2542 108.334 39.1998L108.285 39.1782C107.965 39.0351 107.635 38.9184 107.295 38.8335C106.259 38.55 105.128 38.4751 103.985 38.6205C95.9438 39.6641 89.4142 40.7095 70.6796 45.5965C52.7706 50.2691 46.0691 52.5894 38.2219 55.7769C37.1837 56.1986 36.2579 56.7959 35.5014 57.5216C35.0878 57.9008 34.7323 58.3353 34.437 58.814L34.3295 58.9877L34.23 59.1652C33.9547 59.6583 33.751 60.1788 33.6225 60.7273C33.3575 61.7416 33.2905 62.8429 33.4298 63.9527C34.4796 72.3573 35.7294 79.3377 40.4012 97.2467C45.2882 115.983 47.565 122.192 50.5841 129.715C51.0149 130.786 51.6339 131.735 52.3868 132.5C52.6259 132.757 52.8909 132.986 53.1698 133.197L53.2141 133.229C53.3201 133.306 53.4294 133.383 53.5425 133.453C53.6556 133.529 53.7724 133.6 53.8894 133.667L53.9037 133.674C54.4214 133.969 54.9742 134.189 55.5545 134.321C56.5635 134.581 57.6576 134.646 58.761 134.508C67.1656 133.457 74.1459 132.209 92.055 127.537C110.791 122.65 117 120.374 124.524 117.355C125.586 116.929 126.53 116.314 127.294 115.567C127.686 115.202 128.023 114.787 128.308 114.33L128.42 114.145L128.527 113.956C128.785 113.484 128.984 112.989 129.11 112.468C129.39 111.435 129.464 110.313 129.318 109.178Z" fill="#2C2F22"/>
<path d="M88.29 35.4701C88.29 35.4701 102.13 35.1278 110.012 40.414C119.988 43.2675 122.003 57.4254 122.003 57.4254C122.003 57.4254 129.16 63.9512 131.046 70.3813C132.934 76.8113 131.404 95.8797 128.151 100.295C124.898 104.712 127.298 113.107 120.269 123.96C113.241 134.815 95.2034 142.877 84.1451 144.712C73.0851 146.548 60.0549 143.234 53.8113 134.583C47.5688 125.933 45.058 121.134 45.058 121.134L33.486 111.356C33.486 111.356 23.0747 89.9457 37.6634 62.2244C52.2493 34.5052 61.7301 33.6989 67.5583 34.8056C73.3855 35.9144 88.29 35.4701 88.29 35.4701Z" fill="#C07A38"/>
<path d="M104.444 109.912C103.166 112.09 101.72 114.228 100.089 116.317C98.9185 117.817 96.7536 118.084 95.2542 116.913C93.7555 115.743 93.483 113.574 94.6585 112.079C111.728 90.215 106.178 60.2367 94.1164 50.6889C88.7246 46.4202 83.698 44.7822 80.3271 46.1921C78.2256 47.0707 76.8418 49.221 76.5286 52.0945C76.2336 54.7986 76.9478 55.4592 81.5433 58.3534C85.1687 60.6351 90.1355 63.7628 95.3501 69.9856C108.05 85.1389 102.42 98.2143 94.4586 110.073C88.0214 119.66 76.2436 127.445 67.067 128.183C62.4214 128.555 58.5064 127.191 55.7435 124.236C50.9886 119.147 49.2619 110.805 51.346 102.978C53.0096 96.74 56.7227 92.3119 61.5428 90.8276C62.7772 90.4476 64.0794 90.1072 65.3364 89.7771C69.7529 88.6214 74.3349 87.4221 75.7241 84.6392C76.7107 82.6818 76.3713 79.5913 74.7133 75.4526C73.3486 72.0489 70.9802 70.3999 67.4677 70.4127C59.0051 70.4442 45.6273 80.4599 40.3919 93.8142C33.5193 111.343 48.4556 120.779 49.0954 121.171C50.7126 122.165 51.1977 124.296 50.2393 125.902C49.2511 127.522 47.146 128.042 45.5216 127.062C38.3737 122.738 26.7626 109.705 33.9772 91.3009C39.858 76.2907 55.1868 63.5681 67.4416 63.5237C73.8262 63.4993 78.6799 66.8261 81.108 72.8895C83.5687 79.03 83.8186 83.888 81.8774 87.7407C79.0755 93.2957 72.7034 94.9709 67.0821 96.4431C65.8379 96.7682 64.664 97.0758 63.5681 97.4134C61.1067 98.1717 59.0259 100.913 58.0041 104.752C56.7861 109.327 57.1699 115.673 60.778 119.531C62.0913 120.936 63.9663 121.52 66.515 121.315C73.5638 120.751 83.5333 113.982 88.7407 106.232C96.6261 94.484 99.3747 85.5145 90.0704 74.41C85.5507 69.0171 81.2927 66.3366 77.8718 64.1827C73.2552 61.2756 68.8941 58.5299 69.6778 51.3462C70.2732 45.9079 73.1846 41.7114 77.6671 39.8362C81.0482 38.4198 88.2366 37.248 98.3916 45.287C111.318 55.52 118.991 85.0881 104.444 109.912Z" fill="#E8AA5C"/>
<path d="M122.256 119.34C118.185 126.284 112.16 131.365 104.986 133.471C96.1646 136.059 87.6466 133.498 82.2004 126.619C72.7404 114.672 75.9758 105.309 80.0709 93.4558C82.9028 85.2602 86.4268 75.0599 87.309 60.483C87.977 49.4111 82.1614 40.2725 72.8363 37.741C63.9075 35.3186 51.1605 39.0363 42.2092 56.6883C35.457 69.9881 36.1096 83.8003 44.1504 97.7402C50.3299 108.455 58.7517 115.241 58.8369 115.308C60.3237 116.495 60.5618 118.666 59.3861 120.148C58.2042 121.635 56.0404 121.885 54.5507 120.703C54.1689 120.401 45.1468 113.166 38.296 101.38C29.0405 85.4593 28.2703 68.9266 36.0634 53.5696C46.9108 32.2045 63.6251 28.103 74.6408 31.0921C87.2034 34.5013 95.0577 46.48 94.1852 60.8993C93.2478 76.4182 89.5499 87.1127 86.5825 95.7056C82.5226 107.456 80.4844 113.355 87.6023 122.344C91.244 126.942 97.0161 128.63 103.048 126.859C110.296 124.732 119.303 116.809 120.822 101.483C121.01 99.5909 122.696 98.2071 124.591 98.3944C126.484 98.5817 127.866 100.269 127.679 102.163C127.044 108.559 125.141 114.417 122.256 119.34Z" fill="#EEBD73"/>
<path d="M120.184 118.275C115.78 125.787 109.37 130.137 103.803 131.771C95.6767 134.155 87.8449 131.813 82.8509 125.506C73.9766 114.295 76.9214 105.772 80.9967 93.9723C83.8637 85.6762 87.4314 75.3529 88.3272 60.5416C89.0468 48.6327 82.7227 38.7845 72.5864 36.0324C63.4432 33.5509 49.4266 37.2496 39.9712 55.8618C23.0965 89.1107 56.7209 116.339 57.0621 116.609C57.8079 117.201 57.9336 118.286 57.3418 119.028C56.7489 119.775 55.6676 119.899 54.9219 119.308C54.5507 119.015 45.774 111.977 39.0843 100.469C30.1364 85.0772 29.3816 69.1137 36.8997 54.3034C47.2773 33.8459 63.0984 29.8883 73.4879 32.7074C85.2429 35.8974 92.587 47.1676 91.7653 60.7489C90.8423 76.0325 87.1887 86.6031 84.2547 95.0972C80.2599 106.66 77.849 113.638 85.5515 123.367C89.644 128.534 96.1031 130.439 102.832 128.465C110.595 126.189 120.232 117.787 121.837 101.606C121.931 100.662 122.774 99.9688 123.719 100.063C124.667 100.156 125.358 101 125.264 101.947C124.614 108.507 122.735 113.922 120.184 118.275Z" fill="#FFF0BD"/>
<path d="M116.755 116.552C114.09 124.145 109.149 130.287 102.512 133.727C94.3491 137.957 85.4991 137.077 78.8374 131.368C67.2615 121.451 68.6434 111.643 70.3927 99.2251C71.6046 90.6393 73.1087 79.952 71.1836 65.4765C69.7193 54.4808 62.2623 46.6254 52.624 45.9266C43.3964 45.2571 31.597 51.3485 26.1934 70.3889C22.1119 84.7341 25.3961 98.1671 35.9574 110.309C44.0734 119.644 53.644 124.691 53.7389 124.739C55.4231 125.618 56.0757 127.705 55.2022 129.384C54.3282 131.07 52.2528 131.73 50.564 130.855C50.1315 130.63 39.8896 125.258 30.9093 115.004C18.7777 101.15 14.8537 85.0699 19.5624 68.5039C26.1192 45.4587 41.7387 38.2306 53.1227 39.0558C66.1029 39.9963 76.1096 50.249 78.0111 64.5678C80.0636 79.9782 78.4834 91.184 77.2166 100.186C75.4824 112.498 74.611 118.677 83.3198 126.137C87.7725 129.95 93.7626 130.503 99.3428 127.611C106.049 124.132 113.372 114.633 111.93 99.2992C111.751 97.406 113.141 95.7254 115.036 95.5461C116.93 95.3678 118.609 96.7587 118.788 98.6522C119.391 105.052 118.645 111.167 116.755 116.552Z" fill="#EEBD73"/>
<path d="M114.517 115.902C111.635 124.118 106.177 129.617 101.023 132.286C93.5047 136.182 85.3697 135.383 79.261 130.149C68.4029 120.847 69.6617 111.916 71.4028 99.5531C72.6272 90.8614 74.1513 80.0458 72.1947 65.3378C70.6201 53.5113 62.5256 45.0566 52.0513 44.2973C42.6038 43.6123 29.5538 49.9282 23.8369 70.0058C13.6419 105.871 51.8601 126.155 52.2457 126.354C53.092 126.795 53.4214 127.834 52.9825 128.677C52.5443 129.521 51.5046 129.852 50.6619 129.414C50.2393 129.197 40.277 123.97 31.5086 113.959C19.7806 100.564 15.9823 85.0413 20.5245 69.0645C26.7907 46.9978 41.5623 40.0826 52.3001 40.862C64.4471 41.7416 73.8155 51.3954 75.6092 64.8843C77.6302 80.0612 76.0689 91.1356 74.8137 100.035C73.1088 112.147 72.078 119.459 81.5026 127.533C86.5082 131.821 93.2125 132.455 99.4381 129.228C106.622 125.506 114.472 115.414 112.948 99.2265C112.859 98.2817 113.554 97.439 114.5 97.3505C115.449 97.2607 116.287 97.9566 116.377 98.9025C116.994 105.467 116.19 111.142 114.517 115.902Z" fill="#FFF0BD"/>
<path d="M76.5956 140.519C68.5512 140.823 61.0252 138.477 55.3935 133.565C48.4647 127.518 46.0394 118.962 48.9082 110.672C53.8912 96.2661 63.5231 93.9573 75.717 91.0343C84.1506 89.0126 94.646 86.4929 107.408 79.3968C117.1 74.0029 121.675 64.1837 118.791 54.9618C116.03 46.1308 106.038 37.3867 86.3427 39.3377C71.5016 40.8012 60.2071 48.7823 52.7835 63.058C47.0755 74.0319 45.8855 84.7843 45.8737 84.8921C45.6754 86.7817 43.9715 88.1527 42.089 87.9582C40.1994 87.7591 38.8282 86.0729 39.0219 84.1807C39.0698 83.6956 40.3143 72.1966 46.5625 60.0822C55.0051 43.7162 68.5286 34.1721 85.6665 32.4787C109.512 30.1286 121.961 42.0113 125.369 52.9056C129.251 65.3286 123.38 78.3951 110.756 85.417C97.1701 92.9755 86.1652 95.6127 77.326 97.733C65.237 100.632 59.1674 102.087 55.4207 112.926C53.502 118.466 55.1852 124.241 59.9221 128.372C65.6154 133.339 77.1406 136.669 90.8775 129.704C92.5727 128.843 94.646 129.522 95.5075 131.217C96.3682 132.914 95.6876 134.987 93.9927 135.848C88.2586 138.757 82.2964 140.303 76.5956 140.519Z" fill="#EEBD73"/>
<path d="M76.3767 138.199C67.6768 138.528 60.56 135.465 56.1871 131.65C49.8075 126.085 47.5667 118.223 50.1985 110.621C54.8721 97.1075 63.6433 95.0059 75.7831 92.0927C84.318 90.0455 94.9381 87.4981 107.907 80.2851C118.332 74.4859 123.229 63.8558 120.097 53.8311C117.271 44.7882 106.611 34.9644 85.8367 37.0062C48.7298 40.6688 43.869 83.6616 43.8246 84.0944C43.7261 85.0418 42.879 85.7296 41.9331 85.63C40.9876 85.5323 40.3005 84.688 40.3973 83.7422C40.4452 83.2689 41.6564 72.0849 47.756 60.2548C55.9182 44.4345 68.9664 35.2097 85.4973 33.5799C108.326 31.3201 120.173 42.5276 123.385 52.8047C127.02 64.4296 121.471 76.6816 109.58 83.2953C96.2016 90.7397 85.3244 93.3479 76.5848 95.4423C64.6894 98.2947 57.5092 100.017 53.4547 111.745C51.2983 117.976 53.1679 124.444 58.4513 129.054C64.5491 134.373 76.8146 137.978 91.3181 130.625C92.1645 130.196 93.2024 130.535 93.6313 131.382C94.0631 132.231 93.7219 133.268 92.8748 133.696C86.9942 136.678 81.4194 138.008 76.3767 138.199Z" fill="#FFF0BD"/>
<path d="M88.9833 145.782C80.9386 146.088 73.4126 143.742 67.7809 138.828C60.8521 132.784 58.4268 124.227 61.2956 115.938C66.2786 101.532 75.9095 99.2226 88.1062 96.2976C96.5373 94.2769 107.033 91.7582 119.795 84.6611C129.486 79.2675 134.061 69.448 131.179 60.2261C128.418 51.3961 118.426 42.65 98.7291 44.603C83.889 46.0655 72.5937 54.0459 65.1698 68.3223C59.4622 79.2962 58.2729 90.0497 58.2603 90.1564C58.062 92.0468 56.3588 93.418 54.4764 93.2225C52.5867 93.0242 51.2148 91.3365 51.4074 89.445C51.4572 88.9599 52.7017 77.4609 58.9499 65.3476C67.3917 48.9806 80.916 39.4364 98.0524 37.7433C121.899 35.3947 134.348 47.2756 137.756 58.1717C141.637 70.5937 135.767 83.6601 123.143 90.6802C109.558 98.2406 98.5526 100.877 89.7126 102.999C77.6229 105.898 71.5548 107.352 67.807 118.191C65.8894 123.73 67.5718 129.505 72.3095 133.637C78.0028 138.603 89.5272 141.934 103.265 134.968C104.96 134.108 107.033 134.786 107.894 136.483C108.755 138.18 108.074 140.254 106.379 141.112C100.645 144.02 94.6812 145.569 88.9833 145.782Z" fill="#EEBD73"/>
<path d="M88.7633 143.464C80.0637 143.794 72.9476 140.729 68.5747 136.916C62.1952 131.35 59.9536 123.486 62.5854 115.885C67.2597 102.373 76.0302 100.27 88.1697 97.3576C96.7057 95.3114 107.325 92.763 120.292 85.5518C130.719 79.7507 135.617 69.1199 132.485 59.096C129.659 50.0549 118.999 40.2303 98.2234 42.2721C61.1175 45.9336 56.2566 88.9275 56.2123 89.3593C56.1127 90.3059 55.2666 90.9947 54.3208 90.8959C53.3752 90.7972 52.6875 89.9529 52.7852 89.0081C52.8321 88.5348 54.043 77.3498 60.1426 65.5214C68.3059 49.6993 81.3543 40.4746 97.884 38.8448C120.713 36.585 132.561 47.7935 135.773 58.0688C139.406 69.6945 133.858 81.9464 121.968 88.562C108.587 96.0046 97.7113 98.6138 88.9724 100.709C77.0763 103.561 69.8969 105.283 65.8416 117.011C63.6849 123.241 65.5556 129.71 70.8389 134.32C76.9368 139.639 89.2023 143.243 103.705 135.89C104.552 135.462 105.589 135.799 106.019 136.646C106.448 137.496 106.109 138.533 105.262 138.96C99.3819 141.944 93.8071 143.275 88.7633 143.464Z" fill="#FFF0BD"/>
<path d="M118.786 101.141C113.033 110.957 103.451 117.29 91.9987 118.711C76.3115 120.657 57.806 113.01 47.0012 100.119C38.2569 89.6857 35.5084 77.2401 39.2587 65.0741C43.8843 50.0775 54.1986 39.0444 67.5582 34.8054C78.5803 31.3096 90.1652 33.0815 98.5473 39.5478C106.212 45.4627 108.472 54.3245 104.591 63.2535C100.493 72.6853 90.7698 79.2972 82.918 78.0066C81.041 77.698 79.7704 75.9261 80.0797 74.0483C80.3848 72.174 82.1605 70.8998 84.0373 71.2092C88.7181 71.9775 95.5055 66.8771 98.2712 60.5057C99.7881 57.0189 101.292 50.3697 94.3373 45.003C87.7453 39.9161 78.5116 38.5586 69.6426 41.373C58.4658 44.9188 49.7939 54.2965 45.8437 67.1051C41.9477 79.7362 47.1939 89.6215 52.2828 95.6932C61.6684 106.894 77.6527 113.548 91.1498 111.873C101.43 110.598 109.856 104.423 114.264 94.9411C117.913 87.0929 118.049 78.2611 114.6 72.9641C113.563 71.3685 114.016 69.2346 115.61 68.1974C117.204 67.1592 119.338 67.611 120.377 69.2056C125.143 76.5297 125.195 87.7727 120.511 97.8461C119.982 98.9828 119.407 100.084 118.786 101.141Z" fill="#EEBD73"/>
<path d="M116.638 100.12C111.158 109.472 102.03 115.507 91.12 116.861C75.9803 118.738 58.1064 111.342 47.6572 98.8709C39.2995 88.9014 36.6659 77.0287 40.2382 65.4402C44.6978 50.99 54.5996 40.3725 67.4125 36.3072C77.8979 32.9804 88.8946 34.6492 96.8277 40.7707C103.933 46.2549 105.945 54.1467 102.344 62.4246C98.5455 71.1707 89.6529 77.3373 82.5332 76.1652C81.5948 76.0115 80.9576 75.1262 81.1133 74.1878C81.2673 73.252 82.1515 72.6132 83.0917 72.7671C88.5606 73.6675 96.0812 68.1867 99.1853 61.0516C100.901 57.1059 102.604 49.5773 94.7236 43.4992C87.6837 38.0675 77.8643 36.605 68.4543 39.5906C56.7334 43.3101 47.6464 53.1003 43.5313 66.4563C40.3141 76.8884 42.716 87.6144 50.2962 96.6591C60.0386 108.283 76.6509 115.184 90.6955 113.442C101.576 112.092 110.494 105.57 115.159 95.527C119.049 87.1601 119.138 77.6595 115.379 71.8836C114.86 71.0873 115.083 70.0194 115.883 69.4999C116.681 68.9814 117.747 69.2066 118.266 70.004C122.717 76.8422 122.723 87.4307 118.285 96.9795C117.781 98.0646 117.228 99.1116 116.638 100.12Z" fill="#FFE9B2"/>
<path d="M131.339 64.8283C136.804 74.806 137.316 86.2814 132.651 96.8363C126.261 111.296 110.196 123.241 93.5815 125.889C80.1395 128.031 68.048 123.997 59.5382 114.529C49.0481 102.855 44.8817 88.3375 48.1097 74.7C50.7713 63.4463 58.2449 54.417 68.0977 50.55C77.1096 47.0106 85.8754 49.6252 91.5407 57.5421C97.5273 65.9034 98.2061 77.6422 93.0638 83.7147C91.834 85.1664 89.6621 85.3465 88.2086 84.1175C86.7569 82.893 86.5768 80.7155 87.8076 79.262C90.8702 75.642 89.9833 67.1976 85.937 61.5513C83.7244 58.4598 78.793 53.7528 70.6143 56.9636C62.8631 60.0054 56.9579 67.2284 54.814 76.2857C52.1145 87.6949 55.7045 99.9542 64.6632 109.923C73.4986 119.754 84.6774 120.332 92.4984 119.086C106.93 116.786 120.85 106.492 126.348 94.0516C130.536 84.5772 129.566 74.1752 123.698 65.5225C118.839 58.3602 111.33 53.7049 105.015 53.9429C103.113 54.0142 101.513 52.5292 101.443 50.6287C101.372 48.7273 102.855 47.1291 104.756 47.0567C113.489 46.7299 123.162 52.4604 129.399 61.6544C130.102 62.6916 130.751 63.7539 131.339 64.8283Z" fill="#EEBD73"/>
<path d="M129.36 66.1451C134.567 75.6523 135.055 86.5846 130.612 96.6383C124.444 110.594 108.916 122.126 92.8486 124.686C80.0021 126.732 68.4633 122.893 60.3573 113.876C50.2483 102.625 46.2266 88.6751 49.3217 75.5944C51.8547 64.8891 58.9353 56.3123 68.2632 52.6508C76.6191 49.372 84.423 51.7013 89.6755 59.0426C95.2277 66.7949 95.9509 77.5925 91.2884 83.0985C90.6729 83.8253 89.5852 83.9159 88.8593 83.3004C88.1363 82.6878 88.0422 81.5999 88.6576 80.8741C92.2404 76.6441 91.4005 67.377 86.8757 61.0472C84.3714 57.5475 78.7876 52.2208 69.5221 55.859C61.246 59.1078 54.948 66.7805 52.6746 76.3881C49.8429 88.3529 53.5743 101.18 62.9201 111.573C70.2163 119.693 80.6537 123.142 92.3073 121.285C107.284 118.9 121.74 108.192 127.461 95.2455C131.893 85.2162 130.878 74.217 124.659 65.0538C119.479 57.4183 111.375 52.4615 104.488 52.7195C103.537 52.7547 102.737 52.0154 102.701 51.0623C102.666 50.1113 103.408 49.3122 104.359 49.2761C112.512 48.9718 121.599 54.4055 127.511 63.1198C128.183 64.1097 128.798 65.119 129.36 66.1451Z" fill="#FFE9B2"/>
<path d="M113.43 141.763C102.277 144.005 91.1716 141.075 82.4853 133.476C70.5864 123.067 63.9719 104.171 66.3944 87.5251C68.3574 74.0542 75.811 63.7163 87.3852 58.4147C101.655 51.8797 116.753 52.2281 128.81 59.3731C138.759 65.2683 145.151 75.0921 145.906 85.6517C146.598 95.309 141.491 102.897 132.244 105.944C122.48 109.167 111.073 106.318 106.807 99.5995C105.789 97.9923 106.264 95.8646 107.87 94.8446C109.471 93.8246 111.605 94.2997 112.625 95.9072C115.168 99.9117 123.493 101.58 130.088 99.3997C133.699 98.2104 139.662 94.9044 139.034 86.1422C138.44 77.8371 133.305 70.0458 125.3 65.2999C115.212 59.3241 102.44 59.0989 90.254 64.6783C78.2373 70.1815 74.3539 80.6805 73.2128 88.5187C71.1059 102.979 76.7848 119.336 87.0232 128.29C94.8178 135.111 105.036 137.285 115.044 134.263C123.329 131.758 130.011 125.978 131.667 119.879C132.165 118.043 134.058 116.958 135.894 117.457C137.729 117.956 138.813 119.847 138.314 121.684C136.025 130.118 127.672 137.644 117.037 140.858C115.837 141.22 114.632 141.522 113.43 141.763Z" fill="#EEBD73"/>
<path d="M112.762 139.481C102.136 141.618 91.5543 138.825 83.2808 131.589C71.7983 121.543 65.4161 103.283 67.7609 87.1832C69.6351 74.3094 76.7386 64.4395 87.7632 59.3888C101.515 53.0944 116.028 53.413 127.594 60.2638C137.058 65.8722 143.135 75.1873 143.85 85.1832C144.491 94.1353 139.94 100.89 131.369 103.718C122.315 106.707 111.792 104.178 107.924 98.0849C107.414 97.284 107.652 96.2197 108.454 95.7092C109.255 95.2007 110.323 95.4349 110.832 96.2397C113.801 100.92 122.897 102.88 130.287 100.446C134.375 99.0993 141.125 95.3562 140.414 85.4293C139.78 76.5593 134.33 68.2614 125.837 63.2279C115.26 56.9615 101.904 56.6982 89.1986 62.5219C79.2734 67.0677 72.8698 76.0028 71.1692 87.6801C68.9846 102.688 74.8969 119.677 85.5506 128.995C93.8016 136.216 104.605 138.525 115.205 135.32C124.036 132.651 131.184 126.39 132.991 119.74C133.238 118.822 134.184 118.279 135.105 118.529C136.022 118.778 136.565 119.725 136.315 120.643C134.176 128.517 126.281 135.571 116.2 138.616C115.056 138.965 113.907 139.251 112.762 139.481Z" fill="#FFE9B2"/>
<path d="M124.607 89.7934C130.072 99.7712 130.583 111.247 125.918 121.802C119.528 136.263 103.463 148.208 86.8511 150.856C73.4073 152.998 61.3165 148.962 52.8077 139.493C42.3169 127.82 38.1511 113.304 41.3765 99.6652C44.0401 88.4115 51.5117 79.3824 61.3663 75.5152C70.3792 71.9775 79.1432 74.5903 84.8078 82.5091C90.7969 90.8686 91.4757 102.608 86.3334 108.682C85.1036 110.133 82.9289 110.313 81.4782 109.083C80.0264 107.858 79.8446 105.682 81.0744 104.228C84.1398 100.608 83.2501 92.1636 79.2048 86.5164C76.9939 83.4249 72.0597 78.7198 63.8831 81.9291C56.1327 84.9716 50.2249 92.1943 48.0826 101.251C45.382 112.66 48.9741 124.919 57.93 134.889C66.7664 144.72 77.9442 145.298 85.7659 144.05C100.198 141.752 114.12 131.458 119.617 119.017C123.804 109.542 122.836 99.1403 116.966 90.4876C112.106 83.3254 104.599 78.6718 98.2823 78.9091C96.3799 78.9804 94.7809 77.4954 94.7121 75.5949C94.6413 73.6945 96.1238 72.0943 98.0243 72.0219C106.758 71.6971 116.43 77.4258 122.668 86.6206C123.372 87.6578 124.018 88.7193 124.607 89.7934Z" fill="#EEBD73"/>
<path d="M122.627 91.1118C127.834 100.618 128.322 111.55 123.88 121.605C117.714 135.558 102.184 147.092 86.1181 149.653C73.2687 151.7 61.73 147.859 53.624 138.843C43.517 127.591 39.496 113.641 42.5911 100.561C45.1242 89.8558 52.2048 81.279 61.5319 77.6164C69.886 74.3384 77.6899 76.668 82.9432 84.0085C88.4954 91.7608 89.2176 102.558 84.555 108.066C83.9414 108.791 82.8547 108.881 82.1279 108.268C81.403 107.654 81.3098 106.568 81.9271 105.841C85.508 101.61 84.6699 92.3434 80.1431 86.0139C77.638 82.5142 72.0543 77.1865 62.7908 80.8247C54.5136 84.0737 48.2175 91.7472 45.9423 101.355C43.1124 113.32 46.8419 126.146 56.187 136.537C63.4857 144.658 73.9213 148.108 85.575 146.251C100.554 143.864 115.008 133.158 120.729 120.213C125.162 110.184 124.145 99.1826 117.927 90.0205C112.748 82.3849 104.642 77.4281 97.7553 77.6852C96.8062 77.7213 96.0053 76.982 95.9699 76.029C95.9329 75.0777 96.6776 74.2779 97.626 74.2435C105.778 73.9374 114.867 79.3711 120.778 88.0864C121.45 89.0756 122.065 90.0864 122.627 91.1118Z" fill="#FFE9B2"/>
<path d="M130.067 30.5715C137.869 38.8514 141.254 49.8283 139.399 61.2167C136.86 76.8198 124.32 92.4277 108.911 99.1754C96.4407 104.635 83.7244 103.777 73.1033 96.7562C60.0105 88.1035 52.3216 75.103 52.0086 61.0928C51.7487 49.5305 56.7065 38.9094 65.2695 32.6848C73.0997 26.9915 82.2393 27.3127 89.7163 33.5473C97.6161 40.1292 101.231 51.3196 97.7836 58.4908C96.9602 60.206 94.9019 60.9271 93.188 60.1036C91.4757 59.2845 90.7507 57.2238 91.5744 55.507C93.6295 51.2319 90.6414 43.2823 85.3026 38.8388C82.384 36.4033 76.4247 33.0919 69.3186 38.2578C62.5853 43.1548 58.6883 51.6346 58.8966 60.9371C59.158 72.6595 65.7212 83.6193 76.9016 91.0093C87.9298 98.2965 98.8939 96.0413 106.148 92.8628C119.535 87.004 130.413 73.533 132.6 60.11C134.265 49.8861 130.707 40.0641 122.847 33.1681C116.34 27.461 107.901 24.8484 101.849 26.6693C100.027 27.2167 98.1058 26.185 97.5574 24.3605C97.0099 22.5406 98.0432 20.6184 99.8641 20.0699C108.234 17.5541 119.038 20.6628 127.391 27.9897C128.331 28.816 129.225 29.6792 130.067 30.5715Z" fill="#EEBD73"/>
<path d="M128.483 32.3463C135.918 40.2335 139.143 50.6907 137.376 61.5399C134.924 76.5983 122.802 91.6721 107.898 98.1963C95.9807 103.415 83.8465 102.606 73.7285 95.9201C61.1156 87.5788 53.7092 75.0924 53.4067 61.654C53.1625 50.6556 57.854 40.5711 65.9583 34.6785C73.2164 29.4005 81.3578 29.6884 88.29 35.4697C95.6151 41.5739 99.0352 51.8392 95.9101 58.3445C95.4984 59.2016 94.4676 59.5625 93.6123 59.15C92.7573 58.7401 92.3925 57.7119 92.806 56.854C95.2052 51.8575 92.0603 43.1006 86.0856 38.1148C82.7803 35.3591 76.0337 31.6106 67.9836 37.4642C60.7916 42.6942 56.6332 51.7071 56.852 61.5771C57.1273 73.8688 63.9698 85.3433 75.6309 93.0458C84.7369 99.066 95.7067 99.7745 106.516 95.0422C120.409 88.959 131.702 74.9549 133.976 60.9871C135.739 50.1641 131.984 39.7738 123.659 32.4741C116.723 26.3898 107.631 23.6339 101.031 25.6195C100.12 25.8937 99.1591 25.3781 98.8849 24.4648C98.6107 23.5536 99.1276 22.5934 100.039 22.3191C107.852 19.9705 118.016 22.9399 125.931 29.8849C126.83 30.6732 127.68 31.4957 128.483 32.3463Z" fill="#FFE9B2"/>
<path fill-rule="evenodd" clip-rule="evenodd" d="M85.4555 125.976C84.9707 125.785 84.5046 125.575 84.0556 125.352C82.4102 124.531 80.9949 123.516 79.6881 122.469C79.4436 122.274 79.204 122.078 78.9667 121.881C76.8282 120.111 74.9322 118.341 72.6988 117.354C72.0282 117.058 71.3276 116.831 70.5811 116.697C70.0734 116.606 69.5449 116.557 68.99 116.557C68.8715 116.557 68.7512 116.559 68.6298 116.564C68.3574 116.574 68.0778 116.596 67.7917 116.63C66.2551 116.815 64.8688 116.965 63.6043 117.058C63.0912 117.095 62.5989 117.123 62.1246 117.14C61.7754 117.152 61.4361 117.159 61.1067 117.159C61.0415 117.159 60.9763 117.159 60.912 117.158C60.6069 117.156 60.3094 117.147 60.0205 117.133C58.9861 117.081 58.0477 116.947 57.1788 116.711C56.3128 116.476 55.5162 116.136 54.7633 115.673C54.0891 115.258 53.4511 114.743 52.8295 114.112C51.9352 113.204 51.0764 112.056 50.1995 110.619C49.9414 110.198 49.6818 109.751 49.4194 109.277C49.2565 108.983 49.0926 108.68 48.9271 108.365C48.8709 108.259 48.8147 108.151 48.7578 108.042C48.1857 106.939 47.765 105.829 47.4582 104.715C46.9043 102.705 46.7216 100.684 46.6952 98.6788C46.6573 95.7556 46.9523 92.8623 46.9143 90.0748C46.9017 89.1662 46.8528 88.2693 46.7468 87.3853C46.7081 87.0639 46.6619 86.7455 46.6057 86.4276C46.4664 85.626 46.2699 84.8358 45.9992 84.0603C45.9957 84.0503 45.9921 84.0403 45.9885 84.0295C45.7966 83.4857 45.5685 82.948 45.2971 82.4185C44.9849 81.8105 44.6165 81.213 44.1822 80.6266C43.3621 79.5217 42.6925 78.3216 42.1784 77.0754C39.8914 71.5278 40.6897 65.0815 45.0888 62.1285C46.0039 61.5131 47.0744 61.0506 48.3063 60.7774C49.1287 60.5952 50.0238 60.4985 50.9915 60.4985C51.1913 60.4985 51.396 60.5021 51.6012 60.5111C51.6682 60.5139 51.7362 60.5167 51.8042 60.5203C51.8693 60.5239 51.9353 60.5275 52.0004 60.5311C52.4801 60.5555 52.9452 60.5773 53.3985 60.5945C54.3372 60.6299 55.2194 60.6489 56.0467 60.6489C56.3182 60.6489 56.5842 60.6471 56.8441 60.6432C57.5716 60.6317 58.2529 60.6027 58.8912 60.5555C60.3953 60.4452 61.6549 60.2325 62.6838 59.8931C64.0658 59.4377 65.0353 58.7574 65.6335 57.7944C65.9547 57.2785 66.1692 56.682 66.2841 55.9953C66.4044 55.2703 66.6325 54.2567 67.076 53.149C67.4405 52.2386 67.9521 51.264 68.6688 50.3325C68.8379 50.1137 69.0198 49.8956 69.2127 49.6819C69.7078 49.1353 70.2824 48.615 70.9512 48.1435C71.9756 47.4213 73.219 46.8139 74.7313 46.4075C75.2962 46.2556 75.898 46.1317 76.5396 46.0401C76.6915 46.0186 76.8554 46.0076 77.0309 46.0076C77.0627 46.0076 77.0942 46.0086 77.1261 46.0086C78.2635 46.033 79.8474 46.4891 81.5931 47.3498C82.3768 47.7353 83.1921 48.2015 84.0148 48.7471C84.6384 49.1596 85.2664 49.6186 85.8873 50.1209C86.2954 50.4513 86.7 50.7997 87.0981 51.168C87.2077 51.2684 87.32 51.3617 87.4339 51.4477C88.3705 52.1534 89.4747 52.3807 90.693 52.3807C90.8595 52.3807 91.0285 52.3761 91.2006 52.3679C91.5354 52.3525 91.8784 52.3237 92.2268 52.2848C92.6711 52.2358 93.1255 52.1724 93.589 52.1047C93.7999 52.0739 94.0133 52.0413 94.2278 52.0095C95.1392 51.873 96.0766 51.7373 97.0253 51.6739C97.3708 51.6511 97.7167 51.6385 98.064 51.6385C98.4016 51.6385 98.7403 51.6503 99.0779 51.6783C99.0986 51.6801 99.1184 51.6819 99.1384 51.6837C99.5465 51.7209 99.9547 51.7796 100.361 51.8684C100.918 51.9897 101.471 52.1652 102.017 52.4097C102.788 52.7534 103.547 53.2342 104.284 53.893C104.287 53.8948 104.29 53.8973 104.292 53.9002C104.495 54.082 104.697 54.2768 104.896 54.4866C105.038 54.6359 105.176 54.7888 105.309 54.9473C106.132 55.9255 106.79 57.073 107.341 58.3346C107.664 59.0714 107.949 59.8479 108.21 60.6514C108.456 61.4079 108.68 62.1891 108.892 62.9872C108.652 62.8941 108.41 62.7891 108.168 62.6678C107.679 62.4236 106.987 62.3066 106.204 62.3066C104.361 62.3066 102.009 62.9528 100.567 64.1067C98.514 65.7511 96.4596 65.3394 94.1988 66.7775C91.94 68.2154 91.3238 71.0924 89.064 73.9685C86.8031 76.8437 88.8592 80.9516 87.8303 83.4177C86.8031 85.8838 90.5011 89.17 91.3238 90.6079C92.1455 92.046 92.3499 95.333 96.2531 96.1547C100.157 96.9764 101.594 97.7981 105.395 98.4135C105.978 98.5087 106.492 98.5503 106.957 98.5503C109.512 98.5503 110.553 97.2922 113.51 96.7709C117.003 96.1547 118.235 94.9221 118.851 93.2787C119.468 91.6351 120.905 90.6079 122.754 89.17C122.807 89.13 122.857 89.0884 122.905 89.0469C123.506 94.1158 122.465 95.704 124.807 97.0218C125.183 97.2345 125.549 97.3322 125.892 97.3322C127.747 97.3322 128.946 94.4724 127.672 91.2903C126.724 88.9184 124.973 87.807 123.858 87.7165C124.268 86.6757 124.153 85.4838 123.939 84.3743C124.454 84.6729 124.936 84.9905 125.389 85.3263C125.813 85.6421 126.21 85.9733 126.579 86.3173C127.019 86.7283 127.419 87.1572 127.78 87.6016C127.946 87.807 128.105 88.0169 128.254 88.2278C128.654 88.7942 128.993 89.3806 129.27 89.9817C130.762 93.2135 130.478 96.8551 128.347 99.8642C127.821 100.607 127.183 101.313 126.43 101.963C125.53 102.741 124.468 103.441 123.242 104.037C122.867 104.219 122.478 104.391 122.073 104.553C121.79 104.665 121.5 104.773 121.202 104.875C120.904 104.979 120.596 105.076 120.282 105.168C119.112 105.509 118.074 105.931 117.145 106.418C116.901 106.547 116.663 106.681 116.433 106.818C115.684 107.267 115.011 107.761 114.401 108.292C114.331 108.086 114.257 107.867 114.181 107.635C113.167 104.53 111.122 106.106 109.402 104.578C107.683 103.048 105.298 103.48 102.902 102.283C102.446 102.055 101.803 101.946 101.074 101.946C99.3593 101.946 97.171 102.549 95.8306 103.621C93.9202 105.15 92.007 104.768 89.9057 106.106C87.8023 107.445 87.2295 110.121 85.1261 112.797C83.0248 115.473 84.9353 119.297 83.9787 121.59C83.4104 122.956 84.4004 124.593 85.4555 125.976Z" fill="url(#paint0_radial)"/>
<path fill-rule="evenodd" clip-rule="evenodd" d="M123.778 79.0693C123.572 77.3526 123.214 75.6971 122.706 74.1361C122.766 74.0348 122.827 73.9334 122.886 73.8321C124.215 75.7941 124.726 76.6512 124.599 78.0095C124.33 78.3661 124.058 78.7191 123.778 79.0693ZM112.679 75.5878C112.419 75.0591 112.179 74.5153 111.958 73.9596C111.531 70.1931 110.752 66.5965 109.688 63.2554C111.727 63.8534 113.67 63.8154 115.154 65.134C116.321 66.1712 117.627 65.8797 118.704 66.362C118.556 66.8174 118.39 67.2689 118.208 67.716C117.97 67.6652 117.729 67.6391 117.486 67.6391C116.841 67.6391 116.19 67.8202 115.61 68.1975C114.016 69.2347 113.563 71.3686 114.6 72.9642C114.676 73.081 114.751 73.1995 114.823 73.3188C114.17 74.1081 113.454 74.8654 112.679 75.5878Z" fill="url(#paint1_radial)"/>
<path fill-rule="evenodd" clip-rule="evenodd" d="M111.958 73.9596C110.571 70.4918 109.848 66.5721 108.892 62.9873C109.158 63.0907 109.424 63.1784 109.688 63.2554C110.752 66.5965 111.531 70.1931 111.958 73.9596Z" fill="url(#paint2_radial)"/>
<path fill-rule="evenodd" clip-rule="evenodd" d="M115.716 78.8988C115.029 78.3242 114.328 77.7819 113.615 77.2724C113.465 77.0325 113.32 76.7893 113.18 76.5413C113.966 75.8363 114.697 75.0959 115.371 74.3258C115.924 75.4525 116.343 76.697 116.63 78.0263C116.333 78.3224 116.028 78.6128 115.716 78.8988ZM120.78 69.8523C120.649 69.6333 120.515 69.418 120.377 69.2054C120.091 68.7664 119.722 68.4142 119.304 68.1556C119.443 67.8342 119.573 67.5094 119.696 67.1836C119.918 67.4922 120.118 67.8939 120.29 68.4216C120.466 68.9627 120.629 69.437 120.78 69.8523Z" fill="url(#paint3_radial)"/>
<path fill-rule="evenodd" clip-rule="evenodd" d="M119.323 82.368C116.758 81.1898 114.955 79.4032 113.615 77.2727C114.328 77.7822 115.029 78.3245 115.716 78.8991C116.133 79.2483 116.545 79.6095 116.951 79.9815C117.34 80.3388 117.723 80.7072 118.101 81.0856C118.516 81.5009 118.923 81.9291 119.323 82.368Z" fill="url(#paint4_radial)"/>
<path fill-rule="evenodd" clip-rule="evenodd" d="M123.939 84.3743C123.443 84.0855 122.917 83.8158 122.363 83.568C122.792 83.1019 123.212 82.6304 123.624 82.1499C123.597 82.5524 123.641 82.9924 123.781 83.6232C123.836 83.8666 123.89 84.118 123.939 84.3743Z" fill="url(#paint5_radial)"/>
<path fill-rule="evenodd" clip-rule="evenodd" d="M84.5777 97.6138C84.1967 95.8932 84.5777 95.7023 85.1508 93.4081C85.7254 91.1139 85.1315 90.5719 82.8473 87.1781C82.5398 86.7228 82.0611 85.7138 81.3297 83.4686C80.3143 80.3635 78.27 81.9381 76.5496 80.4097C74.8301 78.8802 72.4435 79.3127 70.0508 78.1155C68.5214 77.3515 64.8896 77.9254 62.9781 79.4549C61.0659 80.9843 59.1555 80.6016 57.0514 81.9381C54.9498 83.2767 54.3752 85.9527 52.2736 88.6296C50.1705 91.3058 52.0828 95.1284 51.1272 97.4226C50.1706 99.7169 53.6122 102.775 54.3752 104.113C55.1407 105.451 55.3318 108.509 58.9644 109.274C62.5943 110.038 63.9347 110.803 67.4696 111.378C71.0064 111.95 71.7701 110.421 75.0209 109.847C78.27 109.274 79.4167 108.127 79.9895 106.598C80.5642 105.069 81.9018 104.113 83.6221 102.775C85.3416 101.436 84.9597 99.3341 84.5777 97.6138Z" fill="url(#paint6_radial)"/>
<path fill-rule="evenodd" clip-rule="evenodd" d="M102.479 135.356C101.61 135.244 100.748 135.092 99.8959 134.9C100.425 134.699 100.954 134.477 101.479 134.233C102.638 134.069 103.81 133.816 104.986 133.471C107.345 132.779 109.578 131.765 111.661 130.469C110.426 131.723 109.105 132.918 107.716 134.042C106.854 134.207 106.169 134.438 105.557 134.675C105.316 134.622 105.068 134.594 104.819 134.594C104.295 134.594 103.764 134.714 103.265 134.968C103.002 135.101 102.74 135.23 102.479 135.356ZM98.4034 127.548C97.1345 127.548 95.9021 127.388 94.7254 127.072C96.093 126.932 97.5673 126.675 99.1645 126.282C101.985 125.588 103.892 124.204 105.36 122.453C105.507 122.39 105.653 122.328 105.799 122.263C103.861 124.613 101.677 126.362 99.5436 127.505C99.1609 127.533 98.7807 127.548 98.4034 127.548Z" fill="url(#paint7_radial)"/>
<path fill-rule="evenodd" clip-rule="evenodd" d="M107.645 130.256C111.278 127.139 114.141 123.048 116.083 118.318C116.768 117.316 117.414 116.238 118.009 115.087C118.285 115.844 118.266 116.526 118.005 117.574C117.43 119.868 117.048 120.059 117.43 121.78C117.459 121.908 117.487 122.037 117.514 122.169C114.54 125.9 111.058 128.565 107.645 130.256ZM91.5977 129.434C90.1451 129.374 88.7262 129.085 87.3751 128.568C87.3279 128.465 87.2799 128.369 87.2293 128.279C86.9723 127.83 86.412 127.185 85.8194 126.441C86.0955 126.447 86.3715 126.449 86.6501 126.449C86.707 126.449 86.7632 126.449 86.8212 126.449C87.7145 126.716 88.6711 126.923 89.7036 127.052C91.4422 128.103 93.3688 128.783 95.4105 129.072C94.6594 129.244 93.9101 129.356 93.1653 129.41C92.9255 129.358 92.6792 129.331 92.4321 129.331C92.1543 129.331 91.8737 129.364 91.5977 129.434Z" fill="url(#paint8_radial)"/>
<path fill-rule="evenodd" clip-rule="evenodd" d="M101.775 135.668C101.344 135.668 100.866 135.63 100.324 135.542C96.9509 134.996 95.5772 134.275 92.3066 133.547C91.0521 132.921 89.8295 132.202 88.6484 131.396C88.0014 130.436 87.7282 129.361 87.3942 128.61C88.1128 129.219 88.8521 129.79 89.6078 130.322C89.9336 130.55 90.2612 130.77 90.5924 130.984C91.606 131.639 92.6496 132.224 93.7176 132.741C94.3917 133.067 95.0767 133.366 95.7691 133.637C96.0859 133.761 96.4035 133.878 96.7229 133.99C97.7636 134.356 98.8226 134.659 99.896 134.9C100.748 135.092 101.61 135.244 102.479 135.356C102.788 135.397 103.099 135.431 103.41 135.462C102.923 135.589 102.397 135.668 101.775 135.668Z" fill="url(#paint9_radial)"/>
<path fill-rule="evenodd" clip-rule="evenodd" d="M92.3066 133.548C92.1481 133.512 91.9844 133.476 91.8161 133.441C90.1915 133.099 89.2548 132.298 88.6484 131.396C89.8295 132.203 91.0521 132.921 92.3066 133.548Z" fill="url(#paint10_radial)"/>
<path fill-rule="evenodd" clip-rule="evenodd" d="M56.9615 76.7344C58.4287 76.4523 59.5046 74.3861 61.7554 74.8558C64.0035 75.3256 65.3718 75.0431 66.5457 74.292C67.7186 73.5408 69.285 74.1986 69.676 75.5128C70.0662 76.8286 71.4363 77.9553 72.61 77.7673C73.7839 77.5797 75.3478 78.9889 75.4455 79.8331C75.544 80.6795 73.9784 82.1827 75.4455 83.4026C76.9124 84.6234 77.1078 85.9384 76.0319 87.5367C74.9575 89.1331 73.0002 91.6689 72.3168 89.9773C71.6326 88.2878 69.773 90.0725 69.4797 91.1051C69.1865 92.1394 71.9258 92.8906 70.1657 94.3928C68.4046 95.8951 63.7103 95.5206 64.1002 94.0183C64.4911 92.515 62.2431 91.6689 60.7762 92.7023C59.3091 93.7351 58.7219 93.4534 57.7445 91.7631C56.7653 90.0725 57.0603 89.0389 55.2004 89.0389C53.3434 89.0389 52.5597 86.1267 53.4403 84.5303C54.3208 82.9339 55.6902 84.0606 55.8846 82.2759C56.0811 80.4912 54.614 80.7718 54.9072 79.3637C55.2004 77.9553 55.4947 77.0159 56.9615 76.7344Z" fill="url(#paint11_radial)"/>
<path fill-rule="evenodd" clip-rule="evenodd" d="M62.2305 87.7009C61.0884 88.8918 61.3364 89.2404 62.7274 89.8856C64.1165 90.53 65.5554 89.3389 66.0026 88.0485C66.4479 86.7579 63.3354 86.5481 62.2305 87.7009ZM58.0115 85.6664C58.5081 84.6746 56.4738 84.2231 55.0331 84.8719C53.4954 85.5678 53.9923 87.4539 55.5787 87.3544C57.168 87.2548 57.8132 86.4611 58.3101 87.7009C58.805 88.9436 61.435 86.9072 60.9398 85.8657C60.4432 84.8231 57.5164 86.6591 58.0115 85.6664ZM60.5445 81.7957C59.947 82.2916 59.6495 82.5905 59.3508 83.6818C59.054 84.7733 60.691 84.8719 62.5273 83.5325C64.3636 82.1931 62.0858 80.5097 60.5445 81.7957ZM70.6669 79.413C69.4758 80.4058 67.9366 82.0936 68.0867 80.6057C68.2352 79.116 65.6704 79.2663 64.6134 80.8527C63.9182 81.8945 64.3636 82.0438 66.0523 81.8455C67.7383 81.6464 67.3917 82.0438 66.4479 83.7316C65.5057 85.4185 66.1011 86.7579 68.0351 85.9652C69.9727 85.1705 69.3773 84.1279 69.6244 82.5905C69.8732 81.0518 71.3121 82.1433 72.8011 80.6057C74.2887 79.0654 71.8588 78.422 70.6669 79.413ZM59.7988 80.3558C61.387 79.0174 60.0956 78.5216 62.2305 78.422C64.3636 78.3215 65.0088 76.6843 61.8331 75.9893C60.5317 75.7061 59.1038 76.2374 59.5507 77.1804C59.9978 78.1232 56.9707 76.9323 56.2239 78.7686C55.48 80.6057 58.2095 81.6962 59.7988 80.3558ZM66.0523 78.1729C67.7881 78.0744 69.0777 77.479 68.5338 76.0401C67.9871 74.6002 66.3048 75.2553 65.5554 75.8905C64.9102 76.4354 64.3148 78.2727 66.0523 78.1729Z" fill="url(#paint12_radial)"/>
<path fill-rule="evenodd" clip-rule="evenodd" d="M100.304 95.5255C102.698 96.7228 105.084 96.2913 106.804 97.8197C108.523 99.3492 110.569 97.7736 111.583 100.879C112.315 103.124 112.794 104.133 113.102 104.588C115.385 107.984 115.979 108.524 115.405 110.818C114.832 113.113 114.45 113.303 114.832 115.024C115.214 116.745 115.596 118.846 113.875 120.185C112.156 121.523 110.818 122.478 110.244 124.008C109.671 125.536 108.523 126.684 105.275 127.258C102.024 127.831 101.261 129.36 97.7238 128.787C94.1887 128.212 92.8486 127.449 89.2176 126.684C85.5858 125.92 85.3949 122.86 84.6294 121.523C83.8655 120.185 80.4248 117.127 81.3804 114.833C82.337 112.539 80.4248 108.717 82.5279 106.039C84.6294 103.363 85.2041 100.687 87.3054 99.3492C89.4087 98.0116 91.3199 98.3944 93.2324 96.8649C95.1428 95.3354 98.7753 94.7618 100.304 95.5255Z" fill="url(#paint13_radial)"/>
<path fill-rule="evenodd" clip-rule="evenodd" d="M71.3475 50.0643C73.6135 48.2706 76.4454 47.2599 79.7596 49.0453C83.0718 50.8283 77.9749 51.211 74.1512 53.8872C70.3294 56.5631 68.2896 52.4845 71.3475 50.0643Z" fill="url(#paint14_linear)"/>
<path d="M106.155 104.726L102.568 100.87L103.295 106.087L106.155 104.726ZM118.322 72.6281L114.735 68.7727L115.461 73.9893L118.322 72.6281ZM106.759 119.441L103.171 115.586L103.9 120.8L106.759 119.441ZM107.536 62.751L103.948 58.8955L104.675 64.1119L107.536 62.751ZM58.5941 90.8448L59.3208 96.0594L62.1807 94.6985L58.5941 90.8448ZM55.6447 79.4725L56.3725 84.6864L59.2313 83.3252L55.6447 79.4725ZM90.1108 109.343L92.9635 110.714L93.7164 105.505L90.1108 109.343ZM74.554 90.4169L69.7547 92.5807L71.8624 94.9427L74.554 90.4169ZM101.768 110.306L96.5373 109.718L97.1455 112.825L101.768 110.306ZM111.086 80.5361L105.856 79.9476L106.464 83.0574L111.086 80.5361ZM90.6395 116.385L91.2457 119.49L95.8695 116.971L90.6395 116.385ZM64.5129 86.3108L65.1183 89.4169L69.7429 86.8982L64.5129 86.3108ZM98.998 83.269L100.222 78.1503L96.2813 81.641L98.998 83.269ZM105.789 72.6851L101.437 69.7239L100.524 72.7538L105.789 72.6851ZM94.2521 70.7177L91.6911 72.5756L95.9136 75.7122L94.2521 70.7177ZM65.1699 80.5351L69.493 77.5331L66.9908 75.5955L65.1699 80.5351Z" fill="#A9AF2C"/>
<defs>
<radialGradient id="paint0_radial" cx="0" cy="0" r="1" gradientUnits="userSpaceOnUse" gradientTransform="translate(90.0438 93.9786) rotate(-25.0717) scale(40.8698)">
<stop stop-color="#B91D00"/>
<stop offset="0.0196078" stop-color="#B91D00"/>
<stop offset="0.509804" stop-color="#D92000"/>
<stop offset="1" stop-color="#F82200"/>
</radialGradient>
<radialGradient id="paint1_radial" cx="0" cy="0" r="1" gradientUnits="userSpaceOnUse" gradientTransform="translate(104.304 76.6982) rotate(45.561) scale(22.6872 22.6846)">
<stop stop-color="#492511"/>
<stop offset="0.180392" stop-color="#853F26"/>
<stop offset="0.690196" stop-color="#492511"/>
<stop offset="1" stop-color="#C1583B"/>
</radialGradient>
<radialGradient id="paint2_radial" cx="0" cy="0" r="1" gradientUnits="userSpaceOnUse" gradientTransform="translate(104.311 76.7041) rotate(45.3549) scale(22.7695 22.7681)">
<stop stop-color="#55331C"/>
<stop offset="0.180392" stop-color="#914D31"/>
<stop offset="0.690196" stop-color="#55331C"/>
<stop offset="1" stop-color="#CD6646"/>
</radialGradient>
<radialGradient id="paint3_radial" cx="0" cy="0" r="1" gradientUnits="userSpaceOnUse" gradientTransform="translate(104.353 76.6664) rotate(45.3549) scale(22.7684 22.7681)">
<stop stop-color="#5C4839"/>
<stop offset="0.180392" stop-color="#98624E"/>
<stop offset="0.690196" stop-color="#5C4839"/>
<stop offset="1" stop-color="#D47B63"/>
</radialGradient>
<radialGradient id="paint4_radial" cx="0" cy="0" r="1" gradientUnits="userSpaceOnUse" gradientTransform="translate(104.318 76.7173) rotate(45.3549) scale(22.7686 22.7676)">
<stop stop-color="#573923"/>
<stop offset="0.180392" stop-color="#935338"/>
<stop offset="0.690196" stop-color="#573923"/>
<stop offset="1" stop-color="#CF6C4D"/>
</radialGradient>
<radialGradient id="paint5_radial" cx="0" cy="0" r="1" gradientUnits="userSpaceOnUse" gradientTransform="translate(104.337 76.6825) rotate(45.3547) scale(22.7713 22.7703)">
<stop stop-color="#5C4636"/>
<stop offset="0.180392" stop-color="#98604B"/>
<stop offset="0.690196" stop-color="#5C4636"/>
<stop offset="1" stop-color="#D47960"/>
</radialGradient>
<radialGradient id="paint6_radial" cx="0" cy="0" r="1" gradientUnits="userSpaceOnUse" gradientTransform="translate(68.1555 92.6045) rotate(49.7001) scale(19.3423)">
<stop stop-color="#160000"/>
<stop offset="0.294118" stop-color="#781000"/>
<stop offset="0.458824" stop-color="#160000"/>
<stop offset="1" stop-color="#D92000"/>
</radialGradient>
<radialGradient id="paint7_radial" cx="0" cy="0" r="1" gradientUnits="userSpaceOnUse" gradientTransform="translate(99.1315 115.982) rotate(44.1439) scale(20.8575 20.858)">
<stop stop-color="#3D1007"/>
<stop offset="0.196078" stop-color="#936239"/>
<stop offset="0.639216" stop-color="#3D1007"/>
<stop offset="1" stop-color="#E8B46B"/>
</radialGradient>
<radialGradient id="paint8_radial" cx="0" cy="0" r="1" gradientUnits="userSpaceOnUse" gradientTransform="translate(99.0874 115.988) rotate(44.2113) scale(20.8325 20.8341)">
<stop stop-color="#451F18"/>
<stop offset="0.196078" stop-color="#9B724B"/>
<stop offset="0.639216" stop-color="#451F18"/>
<stop offset="1" stop-color="#F0C47D"/>
</radialGradient>
<radialGradient id="paint9_radial" cx="0" cy="0" r="1" gradientUnits="userSpaceOnUse" gradientTransform="translate(99.0862 115.979) rotate(44.1441) scale(20.8579 20.8583)">
<stop stop-color="#42180F"/>
<stop offset="0.196078" stop-color="#986B41"/>
<stop offset="0.639216" stop-color="#42180F"/>
<stop offset="1" stop-color="#EEBD73"/>
</radialGradient>
<radialGradient id="paint10_radial" cx="0" cy="0" r="1" gradientUnits="userSpaceOnUse" gradientTransform="translate(99.1053 115.987) rotate(44.1439) scale(20.8576)">
<stop stop-color="#451E17"/>
<stop offset="0.196078" stop-color="#9B7149"/>
<stop offset="0.639216" stop-color="#451E17"/>
<stop offset="1" stop-color="#F0C37B"/>
</radialGradient>
<radialGradient id="paint11_radial" cx="0" cy="0" r="1" gradientUnits="userSpaceOnUse" gradientTransform="translate(63.4797 75.0426) rotate(75.19) scale(22.4296)">
<stop stop-color="#BE5E3F"/>
<stop offset="1" stop-color="#963622"/>
</radialGradient>
<radialGradient id="paint12_radial" cx="0" cy="0" r="1" gradientUnits="userSpaceOnUse" gradientTransform="translate(59.2728 71.7444) rotate(64.4584) scale(18.7439 18.7436)">
<stop stop-color="#FF9B75"/>
<stop offset="1" stop-color="#AA4A30"/>
</radialGradient>
<radialGradient id="paint13_radial" cx="0" cy="0" r="1" gradientUnits="userSpaceOnUse" gradientTransform="translate(98.7586 112.042) scale(16.6007 16.6006)">
<stop stop-color="#963622"/>
<stop offset="0.631373" stop-color="#7C2B18"/>
<stop offset="1" stop-color="#63210F"/>
</radialGradient>
<linearGradient id="paint14_linear" x1="78.281" y1="55.0096" x2="73.7441" y2="49.7221" gradientUnits="userSpaceOnUse">
<stop stop-color="#FF3B00"/>
<stop offset="0.00784314" stop-color="#FF6934"/>
<stop offset="0.0196078" stop-color="#FF3B00"/>
<stop offset="1" stop-color="#FF9869"/>
</linearGradient>
</defs>
</svg>
