<svg viewBox="0 0 375 344" fill="none" xmlns="http://www.w3.org/2000/svg">
<path d="M253.318 340.246C239.54 340.08 225.776 340.121 211.79 341.645C177.75 345.355 141.023 343.413 107.926 336.668C66.6377 328.257 52.4893 299.069 35.4104 272.72C19.9485 248.867 0.0547009 225.861 -7.74294 199.726C-14.2838 177.812 -18.072 144.034 0.0435877 124.66C11.9646 111.912 31.1081 108.186 50.5499 103.79C70.999 99.168 89.1329 94.9939 100.849 81.6401C112.79 68.0285 99.8861 52.6918 110.023 39.1523C138.373 1.29888 224.35 3.38425 273.276 1.18812C299.307 0.0196509 320.559 3.7231 345.544 7.00165C388.083 12.5834 434.274 22.7744 460.983 49.4598C478.484 66.9461 466.424 86.9921 475.549 106.809C479.223 114.792 486.187 122.379 492.212 129.717C500.808 140.183 509.977 146.707 513.44 159.179C517.021 172.076 517.636 185.474 515.261 198.521C512.469 213.855 503.523 227.854 496.283 242.546C489.424 256.469 482.592 270.496 471.51 282.796C448.361 308.491 411.861 321.216 375.145 328.028C346.854 333.279 321.312 339.033 291.938 340.209C278.936 340.732 266.123 340.399 253.318 340.246Z" fill="#DDF8CD"/>
<path d="M160.069 178.754C160.069 178.754 161.113 190.526 164.418 196.002C167.724 201.481 181.168 205.271 192.776 211.715C204.384 218.159 167.626 243.293 132.158 238.136C96.6895 232.98 97.9783 216.871 97.9783 216.871L129.999 196.97C129.999 196.97 139.252 188.516 138.606 176.917C137.962 165.317 153.619 172.31 160.069 178.754Z" fill="#ECB49F"/>
<path d="M141.733 187.799C140.477 186.743 139.362 185.334 138.373 183.679L138.364 183.441C138.319 182.627 138.353 181.821 138.459 181.031C140.74 183.683 143.527 185.4 146.925 185.532C147.173 185.54 147.418 185.546 147.66 185.546C153.391 185.546 157.324 182.888 160.061 178.775C159.196 181.201 158.121 183.366 156.775 185.126L141.733 187.799Z" fill="#DA7F63"/>
<path d="M128.305 145.658C128.305 145.658 130.159 184.887 146.925 185.532C163.693 186.177 165.644 164.835 166.739 149.289C167.966 131.885 166.488 126.605 146.925 125.602C128.063 124.635 128.305 145.658 128.305 145.658Z" fill="#ECB49F"/>
<path d="M165.51 141.551C165.622 141.591 165.737 141.633 165.846 141.675C170.375 143.413 171.793 150.043 169.448 154.322C169.194 154.782 167.521 156.215 167.518 156.533C167.507 157.505 169.339 157.398 169.099 158.949C168.753 161.188 168.407 164.135 166.297 163.309C164.669 162.674 163.08 161.66 162.848 160.138C162.364 156.949 164.89 149.517 160.931 149.832C158.899 149.995 145.984 149.435 145.984 149.435C145.984 149.435 144.286 151.541 139.962 154.056C135.637 156.57 132.954 154.192 132.954 154.192C132.954 154.192 131.558 162.095 129.674 162.38C128.337 162.581 126.482 162.797 125.954 161.196C125.379 159.451 126.149 158.742 127.294 157.653C126.301 158.598 125.317 155.647 125.32 155.14C125.332 153.659 127.805 145.993 128.354 144.679C129.967 140.83 131.321 146.343 134.93 145.173C138.9 143.883 142.893 142.838 147.018 142.057C152.714 140.976 159.91 139.567 165.51 141.551Z" fill="#2E3054"/>
<path d="M161.227 186.472C161.082 185.762 160.953 185.067 160.839 184.405L161.882 184.22C161.882 184.22 161.76 185.171 161.227 186.472Z" fill="#CACCB6"/>
<path d="M148.811 193.744C139.034 193.744 136.79 189.131 136.606 188.709L141.733 187.799C143.213 189.043 144.889 189.796 146.788 189.881C147.002 189.89 147.214 189.895 147.421 189.895C151.498 189.895 154.518 188.079 156.776 185.126L160.839 184.405C160.953 185.067 161.082 185.762 161.228 186.472C160.104 189.221 157.155 193.53 149.684 193.733C149.387 193.741 149.096 193.744 148.811 193.744Z" fill="#E29871"/>
<path d="M147.421 189.896C147.214 189.896 147.002 189.89 146.788 189.881C144.889 189.796 143.213 189.043 141.733 187.799L156.776 185.126C154.518 188.079 151.498 189.896 147.421 189.896Z" fill="#D16B47"/>
<path d="M135.106 188.976L135.945 188.808C135.942 188.815 135.939 188.821 135.936 188.828L135.106 188.976Z" fill="#CACCB6"/>
<path d="M135.936 188.828C135.939 188.821 135.942 188.815 135.945 188.808L136.593 188.679C136.593 188.679 136.597 188.689 136.606 188.709L135.936 188.828Z" fill="#E29871"/>
<path d="M149.486 169.256C149.486 169.256 138.221 164.749 130.965 168.133C130.965 168.133 128.063 192.782 146.925 192.782C168.696 192.782 165.353 168.067 165.353 168.067C165.353 168.067 158.675 164.907 149.486 169.256Z" fill="#2E3054"/>
<path d="M141.073 171.855C141.073 171.855 149.181 176.638 157.628 171.627C157.628 171.627 149.739 188.263 141.073 171.855Z" fill="white"/>
<path d="M195.899 217.615C195.899 217.615 220.492 250.912 223.667 273.505C227.236 274.299 248.055 238.706 248.055 238.706L258.574 245.363C258.574 245.363 228.822 302.84 218.111 304.424C209.337 305.724 180.428 260.425 180.428 260.425C180.428 260.425 191.536 218.407 195.899 217.615Z" fill="#ECB49F"/>
<path d="M269.13 237.578C268.94 237.578 268.754 237.495 268.629 237.338C268.424 237.088 268.436 236.727 268.652 236.491L282.557 221.381C282.64 221.289 284.609 219.212 287.898 219.212C288.727 219.212 289.578 219.348 290.423 219.615C290.642 219.684 290.809 219.865 290.86 220.09C290.912 220.314 290.841 220.548 290.672 220.705L278.677 231.999L278.563 232.084L269.463 237.487C269.359 237.548 269.245 237.578 269.13 237.578Z" fill="#E7A588"/>
<path d="M247.077 253.902L269.798 237.035L279.032 227.559L286.584 217.067C286.07 216.87 285.327 216.658 284.504 216.658C283.078 216.658 281.882 217.298 280.953 218.56C278.156 222.357 273.254 227.36 272.816 227.805C272.423 228.296 267.966 232.471 263.911 232.471C263.003 232.471 262.167 232.214 261.435 231.694C259.254 230.145 259.517 227.182 260.443 224.492C260.808 223.432 261.305 223.458 261.404 222.448C261.57 220.738 260.881 218.518 260.156 217.721C259.578 217.084 258.715 216.755 257.59 216.744C257.489 216.991 257.289 217.786 257.491 220.013C257.86 224.07 255.705 228.506 253.498 230.288C253.12 230.592 252.648 230.892 252.151 231.21C249.936 232.625 247.18 234.384 248.055 238.706C248.112 238.987 247.976 239.273 247.723 239.407L247.077 253.902Z" fill="#ECB49F"/>
<path d="M120.449 221.646C122.653 210.458 121.047 195.9 118.089 184.293C116.092 176.443 109.591 156.163 99.5036 154.838C88.1928 153.354 87.8088 176.107 89.4622 183.657C91.8875 194.738 97.6804 203.71 104.17 212.972C110.322 221.746 115.102 231.622 121.192 240.01L120.449 221.646Z" fill="#7CC7B9"/>
<path d="M187.37 252.396C189.757 252.349 192.224 252.298 194.671 252.159C198.798 251.924 202.222 251.465 205.446 250.713L206.452 250.485C210.364 249.606 217.645 247.971 218.944 244.222C219.388 242.939 218.171 239.748 216.283 237.254C214.905 235.432 213.529 234.452 212.824 234.954L212.259 234.16C221.585 227.534 228.259 218.231 231.05 207.967L231.217 207.358C232.392 203.08 233.097 200.499 230.161 196.483C228.567 194.306 227.121 193.286 225.733 193.364C223.84 193.472 222.026 195.61 220.111 197.872C219.455 198.647 218.776 199.449 218.066 200.206C215.857 202.558 213.722 205.059 211.659 207.476C209.465 210.043 207.2 212.697 204.833 215.188C200.863 219.372 196.975 223.935 193.22 228.347C185.206 237.761 176.939 247.469 166.904 254.719C171.882 253.272 176.47 252.838 180.083 252.633C182.523 252.493 184.987 252.444 187.37 252.396ZM163.531 255.856C174.754 248.535 183.764 237.952 192.479 227.717C196.243 223.294 200.136 218.721 204.126 214.518C206.475 212.043 208.733 209.401 210.916 206.843C212.987 204.417 215.131 201.908 217.354 199.538C218.049 198.801 218.719 198.009 219.366 197.244C221.423 194.816 223.366 192.524 225.678 192.393C227.421 192.293 229.146 193.444 230.947 195.909C234.161 200.304 233.321 203.37 232.157 207.614L231.991 208.222C229.27 218.233 222.937 227.343 214.087 234.028C215.276 234.499 216.411 235.808 217.061 236.667C218.9 239.099 220.508 242.684 219.864 244.541C218.387 248.8 210.761 250.515 206.666 251.436L205.667 251.662C202.387 252.428 198.911 252.895 194.727 253.133C192.263 253.272 189.786 253.322 187.39 253.369C185.016 253.417 182.56 253.467 180.138 253.605C175.813 253.851 170.07 254.427 163.969 256.72L159.814 258.28L163.531 255.856Z" fill="#5FA469"/>
<path d="M83.8169 253.517C80.5085 250.869 76.9249 248.364 75.9691 243.83C74.6442 237.55 78.6149 237.351 81.7478 232.479C73.095 227.908 65.1355 226.636 59.8275 216.691C54.599 206.9 60.5767 200.612 70.6214 202.827C72.0015 203.13 63.2763 195.254 61.7885 193.908C58.498 190.932 56.0594 186.493 54.7276 182.305C52.3141 174.72 54.1113 165.034 63.8467 165.081C72.2834 165.122 75.526 174.519 78.3727 181.159C79.6506 184.141 81.0833 187.927 81.6646 191.217C86.2433 187.951 88.3054 181.536 94.1743 186.592C98.2692 190.124 98.9463 198.503 96.5953 203.07C97.869 203.072 99.0339 203.023 100.123 202.972C104.693 202.761 107.909 202.55 112.045 206.264C115.354 209.234 118.536 214.255 120.588 218.63C125.259 228.587 131.763 264.827 132.521 276.569C132.521 276.569 90.7473 259.064 83.8169 253.517Z" fill="#E7C264"/>
<path d="M78.0642 180.434C77.9535 180.172 77.8428 179.907 77.7297 179.639C77.8428 179.907 77.9545 180.171 78.0642 180.432V180.434Z" fill="#E5F7FF"/>
<path d="M91.8573 225.751L91.0513 224.366L62.688 220.966C62.415 220.636 62.1417 220.307 61.8786 219.951L90.4766 223.38L86.2739 216.164L58.2808 212.808C58.1982 212.488 58.1294 212.174 58.0742 211.866L85.6993 215.177L65.5909 180.658L54.0057 179.226C53.9585 178.916 53.9225 178.604 53.8894 178.294L64.8975 179.614L65.071 179.766L57.6182 166.974C57.8594 166.791 58.1115 166.62 58.3762 166.46L69.9676 186.361L73.8365 171.616C74.0636 171.976 74.281 172.344 74.4915 172.718L70.9528 188.051L73.8279 192.986L77.483 179.056C77.5666 179.252 77.6486 179.446 77.7299 179.64C77.8429 179.908 77.9536 180.173 78.0643 180.435L74.5101 194.159L84.304 210.973L91.195 184.854C91.4703 184.927 91.7575 185.032 92.0539 185.169L85.0991 212.337L86.8324 215.313L86.9498 215.328L86.9309 215.481L91.6108 223.516L93.0182 223.685C92.856 223.966 92.6924 224.251 92.5265 224.544L92.1855 224.502L92.3708 224.82C92.201 225.124 92.0288 225.435 91.8573 225.751Z" fill="#EDFAD3"/>
<path d="M163.888 240.475C163.631 227.598 159.282 216.315 164.837 203.259C168.391 194.902 179.703 181.294 189.482 190.187C172.289 179.921 198.792 149.771 214.705 152.462C220.37 164.438 217.61 179.518 208.239 189.448C213.682 187.769 216.101 188.946 217.858 194.144C219.906 200.203 215.53 205.646 213.378 207.294C211.226 208.941 205.985 213.034 202.18 216.199C207.541 217.281 213.358 220.768 211.072 227.594C209.312 232.852 202.406 233.814 198.379 236.714C202.325 236.646 206.586 236.134 210.143 237.567C212.287 250.709 193.314 257.369 184.382 260.968C171.77 266.046 158.938 270.866 146.4 275.429L163.888 240.475Z" fill="#E7C264"/>
<path d="M214.714 152.48C214.712 152.474 214.708 152.468 214.705 152.462C214.708 152.468 214.712 152.474 214.714 152.48Z" fill="#E5F7FF"/>
<path d="M203.798 225.886C203.621 225.567 203.446 225.252 203.274 224.946L211.536 223.953C211.567 224.274 211.572 224.611 211.565 224.952L203.798 225.886ZM188.304 209.404L187.47 208.98L197.613 187.028L191.011 164.864C191.276 164.573 191.554 164.286 191.825 164L198.264 185.618L200.961 179.78L195.289 160.432C195.539 160.21 195.797 159.996 196.053 159.78L201.517 179.308L214.225 152.411C214.385 152.432 214.55 152.436 214.705 152.462C214.708 152.468 214.712 152.474 214.714 152.48C214.799 152.658 214.864 152.845 214.945 153.025L191.025 203.646L218.061 199.281C217.948 199.635 217.819 199.983 217.663 200.319L190.526 204.7L188.304 209.404ZM185.386 207.922L184.25 207.345L178.865 188.005C179.152 187.897 179.441 187.802 179.732 187.718L185.386 207.922Z" fill="#EDFAD3"/>
<path d="M184.331 275.945L184.442 285.812C184.226 282.437 184.167 279.104 184.331 275.945ZM244.691 243.38C244.691 243.38 229.616 265.181 223.667 271.524C222.286 261.708 216.864 250.247 211.172 240.42C202.576 221.987 195.989 213.307 195.989 213.307L174.607 202.447C173.424 203.243 172.557 204.059 172.557 204.059C172.557 204.059 166.811 207.467 158.101 209.455C139.071 212.849 124.131 202.583 122.854 201.723L99.7436 213.952C99.7436 213.952 83.7038 231.766 80.56 262.732C79.1733 276.38 84.3875 326.026 84.2435 327.964C84.2435 327.964 89.4244 331.762 104.276 335.906C104.276 335.906 107.428 283.273 107.735 281.434C108.627 276.082 109.62 272.614 110.351 272.797C111.085 272.982 111.266 280.803 111.265 288.69L111.401 276.589C112.448 296.785 104.276 335.906 104.276 335.906C104.276 335.906 117.528 339.846 141.924 341.431C171.628 344.538 194.77 343.157 194.77 343.157C194.77 343.157 185.691 304.297 184.471 286.209C184.498 278.987 184.706 272.321 185.382 272.153C186.269 271.932 189.785 275.811 192.426 278.911C201.582 292.305 213.455 307.947 218.508 307.2C229.219 305.614 256.591 252.101 256.591 252.101L244.691 243.38Z" fill="white"/>
<path d="M141.552 214.444L115.768 219.597C115.768 219.597 115.768 304.029 138.379 329C138.379 329 115.371 265.975 118.942 221.578L146.709 213.651L141.552 214.444Z" fill="#C2DEE9"/>
<path d="M117.552 204.732L138.974 213.057C138.974 213.057 131.833 224.652 130.94 226.138C130.048 227.624 144.923 218.408 144.923 218.408L148.196 210.084L117.552 204.732Z" fill="#C2DEE9"/>
<path d="M177.055 203.542L155.634 211.868C155.634 211.868 161.882 217.515 161.882 221.678C161.882 223.412 149.684 217.218 149.684 217.218L146.412 208.894L177.055 203.542Z" fill="#C2DEE9"/>
<path d="M131 192.984L150.28 208.3L148.494 212.462C148.494 212.462 143.138 233.867 124.097 241.597C124.097 241.597 131.239 217.218 143.138 211.868C143.138 211.868 119.338 204.732 117.553 204.732C115.768 204.732 127.379 192.356 131 192.984Z" fill="#D43E3A"/>
<path d="M163.699 193.743C163.699 193.743 152.957 205.711 141.835 201.152C130.714 196.593 146.509 211.868 146.509 211.868C146.509 211.868 151.864 233.273 170.905 241.003C170.905 241.003 163.765 216.624 151.864 211.273C151.864 211.273 175.666 204.138 177.45 204.138C179.236 204.138 167.317 193.116 163.699 193.743Z" fill="#D43E3A"/>
<path d="M151.394 208.003C151.394 209.974 149.796 211.571 147.825 211.571C145.852 211.571 144.254 209.974 144.254 208.003C144.254 208.003 145.852 203.841 147.825 203.841C149.796 203.841 151.394 205.439 151.394 207.408V208.003Z" fill="#DE6264"/>
<path d="M306.308 214.883C306.308 217.957 289.723 221.579 269.284 221.579C248.845 221.579 232.29 217.957 232.29 214.883C232.29 211.812 248.859 209.32 269.3 209.32C289.738 209.32 306.308 211.812 306.308 214.883Z" fill="#727F9C"/>
<path d="M300.748 212.125C300.707 194.955 286.783 181.065 269.612 181.065C252.44 181.065 238.515 194.955 238.473 212.104C238.704 214.77 252.553 216.862 269.612 216.862C286.669 216.862 300.518 214.77 300.738 212.179L300.748 212.125Z" fill="#596A83"/>
<path d="M273.82 178.575C273.82 180.521 272.241 182.099 270.293 182.099C268.341 182.099 266.762 180.521 266.762 178.575C266.762 176.627 268.341 175.048 270.293 175.048C272.241 175.048 273.82 176.627 273.82 178.575Z" fill="#596A83"/>
<path d="M254.303 213.217C254.303 213.217 248.494 212.802 244.341 211.972C244.756 202.844 247.662 187.079 267.178 184.176C267.178 184.176 254.718 191.229 254.303 213.217Z" fill="#ACB5C1"/>
<path d="M168.528 142.915C168.528 142.915 148.291 150.401 128.461 144.038L128.867 134.307C128.867 134.307 156.386 139.173 167.313 133.184L168.528 142.915Z" fill="#C2DEE9"/>
<path d="M128.462 135.959C128.462 135.959 114.179 134.372 119.337 123.273C124.495 112.175 131.636 120.102 131.636 120.102C131.636 120.102 134.818 102.434 149.486 103.057C168.13 103.85 163.767 126.049 163.767 126.049C163.767 126.049 176.46 116.932 176.066 129.617C175.742 139.985 164.958 143.094 149.486 138.337C149.486 138.337 138.38 133.581 128.462 135.959Z" fill="white"/>
<path d="M128.766 134.346L128.461 144.038C139.668 147.634 154.751 148.189 166.411 143.787C167.13 143.515 167.837 143.226 168.528 142.915L168.556 139.507L167.336 142.103L150.675 143.094C128.858 142.499 130.027 136.98 128.766 134.346Z" fill="white"/>
<path d="M127.272 228.714C127.272 229.808 126.384 230.695 125.287 230.695C124.193 230.695 123.304 229.808 123.304 228.714C123.304 227.619 124.193 226.732 125.287 226.732C126.384 226.732 127.272 227.619 127.272 228.714Z" fill="#C2DEE9"/>
<path d="M128.462 246.552C128.462 247.646 127.575 248.534 126.478 248.534C125.383 248.534 124.495 247.646 124.495 246.552C124.495 245.457 125.383 244.569 126.478 244.569C127.575 244.569 128.462 245.457 128.462 246.552Z" fill="#C2DEE9"/>
<path d="M130.447 266.372C130.447 267.466 129.558 268.353 128.462 268.353C127.366 268.353 126.479 267.466 126.479 266.372C126.479 265.276 127.366 264.389 128.462 264.389C129.558 264.389 130.447 265.276 130.447 266.372Z" fill="#C2DEE9"/>
<path d="M133.222 285.002C133.222 286.096 132.334 286.984 131.238 286.984C130.143 286.984 129.255 286.096 129.255 285.002C129.255 283.906 130.143 283.02 131.238 283.02C132.334 283.02 133.222 283.906 133.222 285.002Z" fill="#C2DEE9"/>
<path d="M185.386 244.569V272.153C186.276 271.941 189.788 275.814 192.426 278.911C192.724 279.349 193.028 279.788 193.332 280.23C189.663 263.278 185.386 244.569 185.386 244.569Z" fill="#C2DEE9"/>
<path d="M218.508 307.2C218.518 307.198 218.528 307.197 218.538 307.195C218.528 307.197 218.518 307.198 218.508 307.2ZM218.542 307.194C218.562 307.191 218.583 307.188 218.603 307.184C218.582 307.188 218.562 307.191 218.542 307.194ZM218.604 307.184C220.219 306.902 222.202 305.468 224.408 303.233C222.202 305.467 220.219 306.902 218.604 307.184ZM224.41 303.231C224.422 303.218 224.435 303.204 224.448 303.191C224.435 303.204 224.422 303.218 224.41 303.231ZM224.453 303.187C224.466 303.174 224.478 303.161 224.491 303.149C224.479 303.161 224.466 303.174 224.453 303.187ZM224.503 303.135C224.512 303.126 224.52 303.118 224.53 303.109C224.521 303.118 224.512 303.126 224.503 303.135ZM224.544 303.093C224.555 303.083 224.565 303.073 224.576 303.061C224.566 303.072 224.555 303.083 224.544 303.093ZM224.598 303.039C224.601 303.034 224.606 303.03 224.61 303.027C224.605 303.03 224.602 303.034 224.598 303.039ZM224.689 302.945C224.691 302.944 224.692 302.941 224.694 302.939C224.692 302.941 224.69 302.944 224.689 302.945Z" fill="#D3F2FF"/>
<path d="M218.147 307.225C214.772 307.225 208.781 300.902 202.554 292.905C204.302 291.516 210.45 287.141 218.548 287.141C222.961 287.141 227.953 288.441 233.126 292.232C230.177 296.497 227.288 300.252 224.694 302.939C224.692 302.941 224.691 302.944 224.689 302.945C224.662 302.972 224.636 302.999 224.61 303.027C224.606 303.03 224.601 303.034 224.598 303.039C224.59 303.047 224.583 303.053 224.576 303.061C224.565 303.073 224.555 303.083 224.544 303.093C224.539 303.099 224.534 303.105 224.53 303.109C224.52 303.118 224.512 303.126 224.503 303.135C224.499 303.14 224.496 303.144 224.491 303.149C224.478 303.16 224.466 303.174 224.453 303.187C224.452 303.188 224.45 303.19 224.448 303.191C224.435 303.204 224.422 303.218 224.41 303.23C224.409 303.232 224.408 303.232 224.408 303.233C222.202 305.468 220.219 306.902 218.603 307.184H218.603C218.583 307.188 218.562 307.191 218.542 307.194C218.541 307.194 218.539 307.194 218.538 307.195C218.528 307.197 218.518 307.198 218.508 307.2C218.392 307.217 218.271 307.225 218.147 307.225Z" fill="#EDFAFF"/>
<path d="M236.261 254.975L250.308 263.851C253.713 257.673 256.078 253.097 256.517 252.246C252.234 250.602 247.15 246.884 244.001 244.373C242.633 246.337 239.886 249.978 236.261 254.975Z" fill="#C2DEE9"/>
<path d="M243.104 240.11C243.104 240.11 253.814 249.624 260.656 251.11L254.11 263.002L236.558 253.488L243.104 240.11Z" fill="white"/>
<path d="M268.986 178.571C268.411 178.571 267.945 178.104 267.945 177.529C267.945 176.955 268.411 176.49 268.986 176.49C269.562 176.49 270.028 176.955 270.028 177.529C270.028 178.104 269.562 178.571 268.986 178.571Z" fill="#ACB5C1"/>
<path d="M264.517 219.561C255.279 219.561 244.712 218.521 236.261 214.839C236.261 214.839 254.35 218.532 273.068 218.532C277.502 218.532 281.969 218.325 286.242 217.813C286.242 217.813 276.496 219.561 264.517 219.561Z" fill="#B9BFCE"/>
<path d="M143.138 211.868C143.138 211.868 131.239 224.948 133.916 226.733C136.594 228.517 143.138 211.868 143.138 211.868Z" fill="#DE6264"/>
<path d="M149.684 212.462C149.684 212.462 160.692 221.678 158.014 224.056C155.337 226.434 149.684 212.462 149.684 212.462Z" fill="#DE6264"/>
<path d="M311.006 159.012C311.006 169.589 302.424 178.165 291.839 178.165C281.254 178.165 272.671 169.589 272.671 159.012C272.671 148.434 281.254 139.859 291.839 139.859C302.424 139.859 311.006 148.434 311.006 159.012Z" fill="#FFD13D"/>
<path d="M287.742 156.38C287.018 156.38 286.426 155.787 286.426 155.063V150.678C286.426 149.954 287.018 149.362 287.742 149.362C288.467 149.362 289.06 149.954 289.06 150.678V155.063C289.06 155.787 288.467 156.38 287.742 156.38Z" fill="white"/>
<path d="M291.253 151.116C290.851 151.116 290.521 150.787 290.521 150.385V144.683C290.521 144.282 290.851 143.952 291.253 143.952C291.656 143.952 291.985 144.282 291.985 144.683V150.385C291.985 150.787 291.656 151.116 291.253 151.116Z" fill="white"/>
<path d="M297.546 156.086C297.063 156.086 296.667 155.692 296.667 155.21V151.116C296.667 150.633 297.063 150.239 297.546 150.239C298.028 150.239 298.423 150.633 298.423 151.116V155.21C298.423 155.692 298.028 156.086 297.546 156.086Z" fill="white"/>
<path d="M305.081 157.696C305.081 165.092 299.152 171.089 291.839 171.089C284.526 171.089 278.598 165.092 278.598 157.696H305.081Z" fill="#C2DEE9"/>
<path d="M299.222 157.696H278.598C278.598 161.987 280.594 165.802 283.696 168.254C284.936 168.707 286.274 168.954 287.668 168.954C293.954 168.954 299.065 163.939 299.222 157.696Z" fill="white"/>
<path d="M288.474 172.462H295.204V169.83H288.474V172.462Z" fill="#C2DEE9"/>
<path d="M264.573 141.411C264.573 152.321 255.718 161.167 244.802 161.167C233.882 161.167 225.029 152.321 225.029 141.411C225.029 130.499 233.882 121.653 244.802 121.653C255.718 121.653 264.573 130.499 264.573 141.411Z" fill="#95DEE6"/>
<path d="M249.421 139.37L252.826 137.19C252.9 137.446 253.007 137.698 253.156 137.934C254.018 139.28 255.812 139.671 257.16 138.809C258.507 137.947 258.901 136.157 258.036 134.809C257.34 133.723 256.034 133.259 254.851 133.574C255.633 132.63 255.756 131.253 255.059 130.166C254.197 128.82 252.405 128.428 251.056 129.29C249.709 130.153 249.317 131.943 250.179 133.29C250.331 133.525 250.515 133.727 250.716 133.902L247.311 136.082L249.421 139.37Z" fill="#F0F0F0"/>
<path d="M247.944 135.923C244.648 134.453 238.029 134.767 234.749 136.867C230.728 139.44 229.468 144.645 231.936 148.491C234.4 152.338 239.66 153.37 243.678 150.796C246.96 148.695 250.011 142.818 250.052 139.212L247.944 135.923Z" fill="#C47A31"/>
<path d="M234.749 136.867C231.224 139.123 229.82 143.403 231.193 147.017C232.634 148.057 234.405 148.67 236.32 148.67C241.172 148.67 245.104 144.74 245.104 139.891C245.104 138.097 244.563 136.43 243.641 135.04C240.493 134.88 236.901 135.488 234.749 136.867Z" fill="#DA9922"/>
<path d="M251.83 132.378C250.999 132.378 250.326 131.706 250.326 130.875C250.326 130.046 250.999 129.375 251.83 129.375C252.661 129.375 253.334 130.046 253.334 130.875C253.334 131.706 252.661 132.378 251.83 132.378Z" fill="white"/>
<path d="M297.983 98.068C306.194 98.068 312.85 104.719 312.85 112.924C312.85 121.13 306.194 127.782 297.983 127.782C289.773 127.782 283.116 121.13 283.116 112.924C283.116 104.719 289.773 98.068 297.983 98.068Z" fill="#D43E3A"/>
<path d="M297.662 125.161L294.83 118.806L291.997 112.451H303.325L300.493 118.806L297.662 125.161Z" fill="#FFBF44"/>
<path d="M301.846 112.451H291.997L292.508 113.6L299.638 120.724L300.493 118.806L302.87 113.473L301.846 112.451Z" fill="#F39A21"/>
<path d="M299.168 121.78C298.971 121.719 298.773 121.659 298.581 121.595C298.873 121.466 299.155 121.332 299.427 121.196L299.961 119.997C299.217 120.422 298.387 120.826 297.46 121.191C296.748 120.91 296.093 120.607 295.489 120.288L296.003 121.442C296.114 121.494 296.226 121.545 296.338 121.595L296.105 121.67L296.436 122.411C296.788 122.297 297.13 122.178 297.46 122.054C297.898 122.219 298.359 122.375 298.837 122.52L299.168 121.78Z" fill="white"/>
<path d="M297.46 113.867C298.222 114.413 299.101 114.953 300.111 115.45C299.378 116.052 298.501 116.665 297.46 117.236C296.418 116.665 295.542 116.052 294.808 115.45C295.818 114.953 296.697 114.413 297.46 113.867ZM293.347 115.229L293.251 115.266L293.58 116.004C293.723 115.944 293.864 115.885 294.001 115.824C294.721 116.443 295.583 117.078 296.605 117.676C296.013 117.964 295.373 118.235 294.686 118.486L294.83 118.806L295.015 119.224C295.907 118.896 296.72 118.534 297.46 118.149C298.294 118.583 299.222 118.989 300.251 119.348L300.493 118.806L300.581 118.608C299.76 118.326 299.005 118.011 298.314 117.676C299.337 117.078 300.198 116.443 300.916 115.824C301.165 115.933 301.419 116.038 301.681 116.141L302.009 115.403C301.864 115.345 301.715 115.288 301.574 115.229C301.781 115.029 301.973 114.834 302.151 114.643C302.286 114.499 302.416 114.356 302.539 114.215L303.326 112.451H302.89C302.53 112.972 302.084 113.542 301.531 114.127C301.303 114.368 301.051 114.619 300.775 114.874C299.769 114.401 298.894 113.885 298.135 113.358C298.521 113.053 298.869 112.749 299.187 112.451H297.975C297.809 112.588 297.638 112.726 297.46 112.864C297.281 112.726 297.109 112.588 296.946 112.451H295.732C296.05 112.749 296.398 113.053 296.783 113.358C296.025 113.885 295.151 114.401 294.145 114.874C293.868 114.619 293.615 114.368 293.387 114.127C292.837 113.542 292.389 112.972 292.029 112.451L293.147 115.032L293.347 115.229Z" fill="white"/>
<path d="M299.639 120.724L299.827 120.301L299.961 119.997C299.743 120.122 299.514 120.245 299.28 120.366L299.639 120.724Z" fill="#DFE0CF"/>
<path d="M294.808 115.45C295.818 114.953 296.697 114.413 297.46 113.867C298.222 114.413 299.101 114.953 300.111 115.45C299.378 116.052 298.501 116.665 297.46 117.236C296.418 116.665 295.542 116.052 294.808 115.45ZM298.314 117.676C299.337 117.078 300.198 116.443 300.916 115.824C301.165 115.933 301.419 116.038 301.681 116.141L302.009 115.403C301.864 115.345 301.715 115.288 301.574 115.229C301.781 115.029 301.973 114.834 302.151 114.643C302.286 114.499 302.416 114.356 302.539 114.215L302.87 113.473L302.449 113.053C302.181 113.399 301.878 113.76 301.531 114.127C301.303 114.368 301.051 114.619 300.775 114.874C299.769 114.401 298.894 113.885 298.135 113.358C298.521 113.053 298.869 112.749 299.187 112.451H297.975C297.809 112.588 297.638 112.726 297.46 112.864C297.281 112.726 297.109 112.588 296.946 112.451H295.732C296.05 112.749 296.398 113.053 296.783 113.358C296.025 113.885 295.151 114.401 294.145 114.874C293.868 114.619 293.615 114.368 293.387 114.127C292.837 113.542 292.389 112.972 292.029 112.451L292.508 113.6L296.565 117.652L297.194 118.283L297.46 118.149C298.294 118.583 299.222 118.989 300.251 119.348L300.493 118.806L300.581 118.608C299.76 118.326 299.005 118.011 298.314 117.676Z" fill="#DFE0CF"/>
<path d="M305.756 109.8C305.796 109.491 305.816 109.175 305.816 108.854C305.816 104.532 302.309 101.026 297.983 101.026C293.825 101.026 290.424 104.268 290.168 108.359C290.05 108.858 289.978 109.377 289.961 109.909C289.173 110.315 288.633 111.135 288.633 112.082C288.633 113.433 289.729 114.528 291.08 114.528C292.14 114.528 293.042 113.853 293.382 112.91C293.722 113.853 294.622 114.528 295.682 114.528C296.743 114.528 297.643 113.853 297.983 112.91C298.323 113.853 299.223 114.528 300.285 114.528C301.344 114.528 302.245 113.853 302.585 112.91C302.924 113.853 303.826 114.528 304.886 114.528C306.238 114.528 307.334 113.433 307.334 112.082C307.334 111.039 306.677 110.152 305.756 109.8Z" fill="white"/>
<path d="M295.7 103.386C295.7 103.757 295.398 104.057 295.027 104.057C294.655 104.057 294.357 103.757 294.357 103.386C294.357 103.015 294.655 102.714 295.027 102.714C295.398 102.714 295.7 103.015 295.7 103.386Z" fill="#F55557"/>
<path d="M299.247 105.48C299.247 105.85 298.945 106.152 298.574 106.152C298.203 106.152 297.902 105.85 297.902 105.48C297.902 105.109 298.203 104.809 298.574 104.809C298.945 104.809 299.247 105.109 299.247 105.48Z" fill="#F55557"/>
<path d="M302.147 103.225C302.147 103.596 301.848 103.896 301.475 103.896C301.105 103.896 300.805 103.596 300.805 103.225C300.805 102.854 301.105 102.555 301.475 102.555C301.848 102.555 302.147 102.854 302.147 103.225Z" fill="#F55557"/>
<path d="M293.041 104.876C293.041 105.239 292.744 105.534 292.381 105.534C292.017 105.534 291.723 105.239 291.723 104.876C291.723 104.513 292.017 104.218 292.381 104.218C292.744 104.218 293.041 104.513 293.041 104.876Z" fill="#F55557"/>
<path d="M298.723 102.259C298.723 102.622 298.427 102.916 298.063 102.916C297.7 102.916 297.405 102.622 297.405 102.259C297.405 101.894 297.7 101.601 298.063 101.601C298.427 101.601 298.723 101.894 298.723 102.259Z" fill="#F55557"/>
<path d="M302.914 105.963C302.914 106.326 302.618 106.621 302.255 106.621C301.891 106.621 301.598 106.326 301.598 105.963C301.598 105.6 301.891 105.305 302.255 105.305C302.618 105.305 302.914 105.6 302.914 105.963Z" fill="#F55557"/>
<path d="M296.063 106.367C296.063 106.729 295.767 107.024 295.403 107.024C295.04 107.024 294.745 106.729 294.745 106.367C294.745 106.003 295.04 105.708 295.403 105.708C295.767 105.708 296.063 106.003 296.063 106.367Z" fill="#F55557"/>
<path d="M225.938 100.24C225.938 110.923 217.271 119.584 206.58 119.584C195.888 119.584 187.223 110.923 187.223 100.24C187.223 89.5568 195.888 80.8962 206.58 80.8962C217.271 80.8962 225.938 89.5568 225.938 100.24Z" fill="white"/>
<path d="M211.807 94.4424H196.737L199.011 108.284C199.135 109.03 199.517 109.688 199.983 110.044C200.218 110.227 206.489 112.482 206.489 112.482C206.489 112.482 213.047 110.219 213.289 110.027C213.743 109.665 214.115 109.018 214.237 108.284L216.511 94.4424H211.807Z" fill="#596A83"/>
<path d="M206.489 112.482C206.489 112.482 200.218 110.227 199.983 110.044C199.517 109.688 199.135 109.03 199.011 108.284L197.318 97.9808L201.742 99.9519C202.203 100.157 202.838 100.263 203.453 100.264C203.909 100.264 204.354 100.205 204.708 100.083L206.489 99.4728V112.482ZM206.489 112.482C206.489 112.482 212.929 110.183 213.215 109.933C213.643 109.561 213.984 108.96 214.104 108.284L215.881 98.0633L215.918 98.0468L214.237 108.284C214.115 109.018 213.743 109.665 213.289 110.027C213.046 110.219 206.489 112.482 206.489 112.482ZM206.489 97.7737L198.019 94.4424H215.364H206.489V97.7737Z" fill="#ACB5C1"/>
<path d="M206.489 94.4424V112.482C206.489 112.482 212.929 110.183 213.216 109.933C213.643 109.561 213.985 108.96 214.104 108.284L216.511 94.4424H206.489Z" fill="#596A83"/>
<path d="M197.073 94.0699L193.76 95.2056C192.93 95.4906 192.908 96.0143 193.707 96.3716L201.742 99.952C202.545 100.309 203.878 100.368 204.708 100.083L208.798 98.6813L197.073 94.0699Z" fill="#596A83"/>
<path d="M216.311 94.0699L219.623 95.2056C220.455 95.4906 220.476 96.0143 219.676 96.3716L211.643 99.952C210.84 100.309 209.506 100.368 208.677 100.083L204.587 98.6813L216.311 94.0699Z" fill="#596A83"/>
<path d="M209.931 100.264C209.475 100.264 209.031 100.205 208.677 100.083L206.692 99.4038L204.587 98.6813L216.311 94.0699L219.623 95.2056C220.046 95.3502 220.258 95.5563 220.261 95.771C220.265 95.9793 220.07 96.1966 219.676 96.3716L211.643 99.952C211.182 100.157 210.545 100.264 209.931 100.264Z" fill="#ACB5C1"/>
<path d="M208.056 98.1094C207.267 98.4195 205.979 98.4195 205.192 98.1094L197.295 95.003C196.509 94.6935 196.509 94.1863 197.295 93.8772L205.192 90.7704C205.979 90.4603 207.267 90.4603 208.056 90.7704L215.953 93.8772C216.739 94.1863 216.739 94.6935 215.953 95.003L208.056 98.1094Z" fill="#885493"/>
<path d="M208.056 98.1094C207.267 98.4195 205.979 98.4195 205.192 98.1094L197.295 95.003C196.509 94.6935 196.509 94.1863 197.295 93.8772L205.192 90.7704C205.979 90.4603 207.267 90.4603 208.056 90.7704L215.953 93.8772C216.739 94.1863 216.739 94.6935 215.953 95.003L208.056 98.1094Z" fill="#596A83"/>
<path d="M206.965 95.3249C207.145 95.5266 207.309 95.7439 207.458 95.9708C207.271 96.1944 207.105 96.4377 206.965 96.6943C206.824 96.4377 206.659 96.1944 206.471 95.9708C206.621 95.7439 206.785 95.5266 206.965 95.3249ZM198.742 95.5715C199.724 94.3253 201.248 93.5218 202.957 93.5218C204.139 93.5218 205.231 93.9065 206.117 94.5558C205.941 94.7539 205.776 94.9623 205.625 95.1805C204.874 94.639 203.952 94.3177 202.957 94.3177C201.588 94.3177 200.358 94.923 199.519 95.8787L200.678 96.3337C201.283 95.7921 202.082 95.4619 202.957 95.4619C203.744 95.4619 204.473 95.7317 205.053 96.1812C204.953 96.3994 204.866 96.623 204.79 96.8522C204.303 96.4133 203.661 96.1442 202.957 96.1442C202.384 96.1442 201.853 96.3205 201.411 96.622L203.133 97.2993C203.422 97.331 203.69 97.4393 203.911 97.6051L205.192 98.1094C205.329 98.1652 205.484 98.2078 205.648 98.2428C205.694 97.8617 205.779 97.4932 205.9 97.1401C206.116 97.4998 206.264 97.9043 206.335 98.3329C206.769 98.3584 207.218 98.3273 207.612 98.2408C207.687 97.8452 207.832 97.4747 208.03 97.1401C208.128 97.4278 208.205 97.7256 208.254 98.0314L212.248 96.4599C211.867 96.2601 211.434 96.1442 210.973 96.1442C210.269 96.1442 209.628 96.4133 209.14 96.8522C209.066 96.623 208.977 96.3994 208.878 96.1812C209.457 95.7317 210.185 95.4619 210.973 95.4619C211.745 95.4619 212.46 95.7195 213.032 96.1514L214.227 95.6815C213.399 94.8404 212.246 94.3177 210.973 94.3177C209.979 94.3177 209.058 94.639 208.307 95.1805C208.153 94.9623 207.99 94.7539 207.811 94.5558C208.701 93.9065 209.793 93.5218 210.973 93.5218C212.588 93.5218 214.035 94.2387 215.021 95.3688L215.953 95.0029L216.131 94.9207C215.528 94.1367 214.749 93.4934 213.852 93.0506L212.836 92.6507C212.246 92.474 211.622 92.3776 210.973 92.3776C209.462 92.3776 208.072 92.896 206.965 93.7629C205.859 92.896 204.467 92.3776 202.957 92.3776C200.762 92.3776 198.817 93.4693 197.636 95.1376L198.742 95.5715Z" fill="white"/>
<path d="M212.089 86.65C212.328 86.0024 213.102 85.691 213.816 85.9529C214.531 86.2157 214.918 86.9538 214.68 87.6004L210.871 96.6995L208.664 97.4056L212.089 86.65Z" fill="#FFD13D"/>
<path d="M210.973 94.3175C210.308 94.3175 209.678 94.4645 209.105 94.722L208.878 96.181C209.457 95.7316 210.185 95.4618 210.973 95.4618C211.283 95.4618 211.581 95.5047 211.866 95.5823L212.317 94.519C211.892 94.3888 211.442 94.3175 210.973 94.3175Z" fill="white"/>
<path d="M207.824 95.9604V97.5525C207.884 97.4098 207.951 97.2718 208.03 97.14C208.128 97.4277 208.205 97.7255 208.254 98.0313L212.248 96.4598C211.867 96.26 211.434 96.1441 210.973 96.1441C210.269 96.1441 209.628 96.4132 209.14 96.8521C209.066 96.6229 208.977 96.3993 208.878 96.181C208.98 96.1011 209.091 96.0285 209.204 95.9604H207.824Z" fill="white"/>
<path d="M205.112 97.4065L202.226 86.069C202.027 85.4092 201.273 85.0519 200.545 85.2722C199.814 85.4925 199.385 86.2061 199.584 86.8659L202.984 96.5558L205.112 97.4065Z" fill="#FFD13D"/>
<path d="M205.361 96.3916L204.995 96.3193C204.919 96.4924 204.849 96.6703 204.79 96.8523C204.303 96.4134 203.661 96.1443 202.957 96.1443C202.831 96.1443 202.708 96.1539 202.589 96.1704L202.419 97.0187L203.133 97.2994C203.422 97.3311 203.69 97.4394 203.911 97.6052L205.03 98.0457L205.361 96.3916Z" fill="white"/>
<path d="M281.307 91.0753C281.307 104.276 270.599 114.977 257.388 114.977C244.176 114.977 233.467 104.276 233.467 91.0753C233.467 77.8743 244.176 67.1726 257.388 67.1726C270.599 67.1726 281.307 77.8743 281.307 91.0753Z" fill="white"/>
<path d="M267.131 73.4458L259.764 89.5547L276.938 83.5261C276.938 83.5261 273.576 73.7252 267.131 73.4458Z" fill="#FFD13D"/>
<path d="M266.417 75.0067L265.908 76.117C269.949 77.5485 272.471 82.5954 273.394 84.77L274.948 84.2244C274.088 82.1129 271.204 75.9743 266.417 75.0067Z" fill="#FFBF44"/>
<path d="M256.057 92.4052L262.998 77.2265C260.907 76.2708 258.589 75.725 256.14 75.725C247.005 75.725 239.601 83.1251 239.601 92.2526C239.601 101.38 247.005 108.781 256.14 108.781C265.274 108.781 272.68 101.38 272.68 92.2526C272.68 90.3716 272.35 88.5719 271.77 86.8881L256.057 92.4052Z" fill="#FFD13D"/>
<path d="M269.912 87.541L268.566 88.0125C269.008 89.2991 269.257 90.6738 269.257 92.1097C269.257 99.1128 263.576 104.79 256.567 104.79C249.559 104.79 243.878 99.1128 243.878 92.1097C243.878 85.1062 249.559 79.4295 256.567 79.4295C258.328 79.4295 260.005 79.7888 261.53 80.4367L262.121 79.1422C260.417 78.4111 258.541 78.0043 256.567 78.0043C248.772 78.0043 242.453 84.3192 242.453 92.1097C242.453 99.8998 248.772 106.215 256.567 106.215C264.364 106.215 270.683 99.8998 270.683 92.1097C270.683 90.5081 270.404 88.9748 269.912 87.541Z" fill="#FFBF44"/>
<path d="M256.425 98.5215C256.425 100.095 255.149 101.37 253.573 101.37C251.999 101.37 250.722 100.095 250.722 98.5215C250.722 96.9473 251.999 95.6726 253.573 95.6726C255.149 95.6726 256.425 96.9473 256.425 98.5215Z" fill="#D43E3A"/>
<path d="M266.9 82.1677C266.9 82.1677 267.378 86.32 263.604 85.2534C263.604 85.2534 263.303 81.9068 266.9 82.1677Z" fill="#5FA469"/>
<path d="M269.829 81.5669C269.829 82.7478 268.87 83.7035 267.689 83.7035C266.508 83.7035 265.549 82.7478 265.549 81.5669C265.549 80.3867 266.508 79.4297 267.689 79.4297C268.87 79.4297 269.829 80.3867 269.829 81.5669Z" fill="#D43E3A"/>
<path d="M250.722 89.1184C250.722 89.9044 250.083 90.5427 249.296 90.5427C248.508 90.5427 247.87 89.9044 247.87 89.1184C247.87 88.3305 248.508 87.6935 249.296 87.6935C250.083 87.6935 250.722 88.3305 250.722 89.1184Z" fill="#D43E3A"/>
<path d="M266.977 93.8199C266.977 94.9995 266.018 95.9561 264.838 95.9561C263.657 95.9561 262.699 94.9995 262.699 93.8199C262.699 92.6393 263.657 91.6826 264.838 91.6826C266.018 91.6826 266.977 92.6393 266.977 93.8199Z" fill="#D43E3A"/>
<path d="M256.493 87.8987C255.467 87.868 254.574 87.6477 253.762 87.4139L253.482 87.333L253.421 87.047C253.326 86.6018 253.327 86.1854 253.425 85.8073L253.494 85.5451L253.752 85.4639C254.666 85.1782 255.307 84.5445 255.385 83.8877C255.219 83.8286 255.053 83.7662 254.887 83.7047C254.308 83.4888 253.71 83.2662 253.137 83.1074L253.396 82.1669C254.013 82.3369 254.63 82.5681 255.229 82.7907C255.498 82.8914 255.766 82.9911 256.029 83.0833L256.308 83.182L256.349 83.4779C256.506 84.64 255.687 85.7634 254.331 86.2947L254.333 86.5602C255.001 86.7432 255.725 86.9 256.522 86.9232L256.493 87.8987Z" fill="#FFA132"/>
<path d="M256.71 82.8483C256.71 84.0292 255.753 84.9859 254.571 84.9859C253.391 84.9859 252.433 84.0292 252.433 82.8483C252.433 81.6681 253.391 80.7124 254.571 80.7124C255.753 80.7124 256.71 81.6681 256.71 82.8483Z" fill="#D43E3A"/>
<path d="M259.871 101.777C259.485 101.777 259.115 101.73 258.737 101.55L258.29 101.337L258.595 100.946C258.816 100.663 259.255 100.348 259.765 99.9834C260.306 99.5964 261.572 98.689 261.414 98.3581C261.17 97.8558 259.925 98.2045 259.018 98.4598C258.541 98.5935 258.087 98.7206 257.723 98.7556L257.645 97.9664C257.94 97.938 258.36 97.8198 258.804 97.6946C260.048 97.3462 261.596 96.912 262.128 98.0123C262.578 98.9455 261.331 99.8398 260.227 100.629C260.062 100.747 259.895 100.867 259.743 100.981C259.912 100.988 260.095 100.979 260.297 100.968L260.344 101.759C260.184 101.769 260.026 101.777 259.871 101.777Z" fill="#FFA132"/>
<path d="M247.391 95.5711L246.393 95.0186C246.664 94.5306 247.057 94.1108 247.436 93.7043C247.595 93.5343 247.752 93.3665 247.894 93.1978L248.142 92.9029L248.508 93.0234C248.723 93.0937 249.035 93.1208 249.362 93.1482C249.726 93.1799 250.125 93.2149 250.499 93.3203C251.162 92.4831 251.988 91.5086 253.009 90.3531L253.864 91.1084C252.72 92.4006 251.829 93.4619 251.14 94.3509L250.85 94.7257L250.428 94.5088C250.141 94.3608 249.695 94.3222 249.264 94.2849C249.019 94.2641 248.769 94.2423 248.532 94.1987L248.271 94.4814C247.939 94.8373 247.595 95.2059 247.391 95.5711Z" fill="#FFA132"/>
<path d="M257.709 93.6778C257.709 93.6778 259.419 90.9699 260.987 93.5352C260.987 93.5352 259.561 95.6727 257.709 93.6778Z" fill="#5FA469"/>
<path d="M247.155 82.9573C247.155 82.9573 250.946 82.1146 251.771 85.6355C251.771 85.6355 248.672 86.2372 247.155 82.9573Z" fill="#5FA469"/>
<path d="M250.05 96.1076C250.05 96.1076 250.222 100.284 246.537 98.9413C246.537 98.9413 246.484 95.5806 250.05 96.1076Z" fill="#5FA469"/>
</svg>
