<svg xmlns="http://www.w3.org/2000/svg" fill="none" width="106" height="98" style=""><rect id="backgroundrect" width="100%" height="100%" x="0" y="0" fill="none" stroke="none"/>


<g class="currentLayer" style=""><title>Layer 1</title><path d="M57.4297 95.4382C72.9274 99.013 89.7143 99.2971 99.2115 86.3809C104.214 79.5785 106.739 67.9284 105.81 59.2197C105.276 54.213 97.1883 43.8725 94.0216 40.5993C92.6043 33.0588 100.386 27.3376 99.2353 19.1609C98.0711 10.8933 89.5624 4.62065 81.9643 2.65923C62.9754 -2.24318 41.2599 0.280333 23.3109 4.99285C15.5682 7.02596 10.6572 9.83872 7.34969 17.7038C5.90727 21.1338 4.79036 24.9608 5.54771 28.9494C6.16106 32.1835 8.40461 34.4489 9.50919 37.6294C12.1421 45.2124 4.08121 48.7542 1.57137 55.7279C-0.88533 62.5507 -0.564407 71.5847 3.26519 77.8254C7.05323 83.9997 12.9612 88.1235 18.9853 91.5385C23.5408 94.1216 31.4131 98.8018 36.7729 97.882L57.4297 95.4382Z" fill="#FDEA59" id="svg_1" class=""/><g clip-path="url(#clip0)" id="svg_2" class="">
<path d="M72.92060191040039,31.711719296875 C66.04120191040039,29.789069296875 59.121401910400394,26.795309296875 52.90920191040039,23.054191296875 C52.57930191040039,22.855471296875 52.169801910400395,22.855471296875 51.839901910400386,23.054191296875 C45.448501910400395,26.902789296875 38.90260191040039,29.734579296875 31.82794191040039,31.711719296875 C31.37091191040039,31.839319296875 31.05411191040039,32.263059296875 31.05411191040039,32.746469296875 V43.708029296875 C31.05411191040039,54.996029296875 36.15947191040039,62.467929296875 40.44250191040039,66.748229296875 C45.053401910400396,71.356629296875 50.424501910400394,73.905129296875 52.374601910400386,73.905129296875 C54.324501910400386,73.905129296875 59.69560191040039,71.356629296875 64.30650191040039,66.748229296875 C68.5894019104004,62.468029296875 73.69450191040039,54.996129296875 73.69450191040039,43.708029296875 V32.746369296875 C73.69450191040039,32.263059296875 73.37770191040039,31.839319296875 72.92060191040039,31.711719296875 zM71.59090191040039,43.707929296875 C71.59090191040039,54.250929296875 66.8291019104004,61.223029296875 62.83420191040039,65.21552929687499 C58.30000191040039,69.747329296875 53.45200191040039,71.759429296875 52.374601910400386,71.759429296875 C51.297101910400386,71.759429296875 46.448901910400394,69.747329296875 41.91450191040039,65.21552929687499 C37.91970191040039,61.222929296875 33.15772191040039,54.250929296875 33.15772191040039,43.707929296875 V33.560729296874996 C39.92310191040039,31.601459296875 46.22370191040039,28.867089296875 52.37480191040039,25.221089296875 C58.37220191040039,28.770359296875 64.98710191040038,31.640699296875 71.59090191040039,33.560329296875 V43.707929296875 z" fill="#61455F" id="svg_3"/>
<path d="M43.05180191040039,33.440829296875 C42.83900191040039,32.889449296875 42.22830191040039,32.618609296875 41.68770191040039,32.835859296875 C39.80880191040039,33.591029296875 37.88030191040039,34.286029296875 35.95576191040039,34.901829296875 C35.51719191040039,35.042329296874996 35.21875191040039,35.456629296875 35.21875191040039,35.925429296875 V40.068329296875 C35.21875191040039,40.660729296875004 35.68975191040039,41.141029296875004 36.27051191040039,41.141029296875004 C36.85127191040039,41.141029296875004 37.32226191040039,40.660729296875004 37.32226191040039,40.068329296875 V36.709429296875 C39.04870191040039,36.139729296875004 40.77330191040039,35.509429296875 42.45880191040039,34.832029296875 C42.99930191040039,34.614929296875 43.264801910400394,33.992129296875 43.05180191040039,33.440829296875 z" fill="#61455F" id="svg_4"/>
<path d="M45.04980191040039,33.644229296875 C45.19090191040039,33.644229296875 45.33410191040039,33.615229296875 45.47150191040039,33.554029296875 L45.49090191040039,33.545529296875 C46.023001910400396,33.307629296875 46.262701910400395,32.675809296875 46.02950191040039,32.133239296875004 C45.796101910400395,31.590469296875 45.17310191040039,31.344929296875 44.64160191040039,31.582599296875 L44.624601910400386,31.590069296875 C44.09220191040039,31.827239296875 43.851701910400394,32.458559296875 44.084201910400395,33.001429296875 C44.25680191040039,33.404429296875 44.64400191040039,33.644229296875 45.04980191040039,33.644229296875 z" fill="#61455F" id="svg_5"/>
<path d="M64.90570191040038,57.497829296875 C64.41970191040039,57.173729296875 63.76790191040039,57.313129296875 63.44990191040039,57.809029296875 C62.58320191040039,59.162129296875 61.566401910400394,60.457929296875 60.42730191040039,61.659829296875 C59.49060191040039,62.648229296875 58.475601910400385,63.569329296875 57.410401910400395,64.39762929687501 C56.94860191040039,64.756829296875 56.85970191040039,65.429929296875 57.21180191040039,65.901229296875 C57.41890191040039,66.178029296875 57.73210191040039,66.323629296875 58.04890191040039,66.323629296875 C58.27140191040039,66.323629296875 58.49550191040039,66.25202929687501 58.68590191040039,66.103829296875 C59.834801910400394,65.210229296875 60.92960191040039,64.216829296875 61.93950191040039,63.151229296875 C63.17110191040039,61.851929296875 64.27160191040039,60.449429296875 65.2109019104004,58.982629296875 C65.52880191040039,58.486629296875 65.39200191040038,57.821829296875 64.90570191040038,57.497829296875 z" fill="#61455F" id="svg_6"/>
<path d="M54.96780191040039,66.080129296875 L54.90750191040039,66.116329296875 C54.404801910400394,66.41332929687499 54.23310191040039,67.069529296875 54.52410191040039,67.582229296875 C54.71910191040039,67.92582929687501 55.07210191040039,68.117729296875 55.43530191040039,68.117729296875 C55.61400191040039,68.117729296875 55.795401910400386,68.071229296875 55.96120191040039,67.973129296875 L56.03080191040039,67.93132929687499 C56.53210191040039,67.631929296875 56.70040191040039,66.974829296875 56.40690191040039,66.46352929687501 C56.11310191040039,65.95242929687501 55.46880191040039,65.781029296875 54.96780191040039,66.080129296875 z" fill="#61455F" id="svg_7"/>
<path d="M45.20520191040039,46.215629296875 C44.55940191040039,45.556829296875 43.70050191040039,45.194229296875 42.787101910400395,45.194229296875 C41.87360191040039,45.194229296875 41.01460191040039,45.556929296875 40.36850191040039,46.215629296875 C39.03520191040039,47.575929296875 39.03520191040039,49.789229296875 40.36850191040039,51.149429296875 L46.57900191040039,57.483929296875 C47.22490191040039,58.142529296875 48.08380191040039,58.505229296875 48.99740191040039,58.505229296875 C49.91100191040039,58.505229296875 50.76990191040039,58.142529296875 51.41580191040039,57.483729296875 L64.3808019104004,44.259429296875 C65.71400191040038,42.898829296875 65.71400191040038,40.685829296875 64.3806019104004,39.326129296874996 C63.73470191040039,38.667229296875 62.87580191040039,38.304729296874996 61.96210191040039,38.304729296874996 C61.04850191040039,38.304729296874996 60.18970191040039,38.667329296874996 59.543701910400394,39.326129296874996 L48.997301910400395,50.083329296875 L45.20520191040039,46.215629296875 zM61.03120191040039,40.843329296875 C61.27970191040039,40.589829296874996 61.61050191040039,40.450229296875 61.96220191040039,40.450229296875 C62.31420191040039,40.450229296875 62.64460191040039,40.589829296874996 62.89340191040039,40.843329296875 C63.406501910400394,41.366729296875 63.406501910400394,42.218829296875 62.89320191040039,42.742429296875 L49.92840191040039,55.966629296875 C49.67990191040039,56.220129296875 49.349201910400396,56.359629296875 48.99740191040039,56.359629296875 C48.64560191040039,56.359629296875 48.314901910400394,56.220129296875 48.066201910400395,55.966629296875 L41.85590191040039,49.632229296874996 C41.34250191040039,49.108629296875 41.34250191040039,48.256529296875 41.85570191040039,47.733129296875 C42.104301910400395,47.479629296875004 42.43510191040039,47.339829296874996 42.78700191040039,47.339829296874996 C43.13880191040039,47.339829296874996 43.46940191040039,47.479429296875 43.717901910400386,47.732929296875 L48.25350191040039,52.359329296875 C48.45090191040039,52.560429296875 48.71830191040039,52.673529296875 48.997301910400395,52.673529296875 C49.27630191040039,52.673529296875 49.54370191040039,52.560529296875 49.74090191040039,52.359329296875 L61.03120191040039,40.843329296875 z" fill="#61455F" id="svg_8"/>
</g></g></svg>