<svg viewBox="0 0 750 430" fill="none" xmlns="http://www.w3.org/2000/svg">
<path d="M726.121 262.619C697.554 336.052 636.569 396.473 555.215 415.714C506.995 427.115 457.312 429.64 407.814 429.995C367.816 430.282 328.39 417.534 289.313 408.948C244.041 399 234.495 382.015 175.165 385.287C115.836 388.558 27.8064 397.283 10.8674 349.298C-0.736805 316.426 56.5058 278.411 16.5722 227.154C-23.3614 175.897 13.1493 87.5613 80.4658 37.3952C147.782 -12.771 192.408 112.272 253.955 111.913C315.503 111.554 314.188 7.00003 418.673 7C523.158 6.99997 591.222 57.6051 667.612 99.5171C727.348 132.285 751.217 198.126 726.121 262.619Z" fill="#DDF8CD"/>
<path d="M487.054 369.158C487.054 370.901 453.912 372.316 413.027 372.316C372.142 372.316 339 370.901 339 369.158C339 367.412 372.142 366 413.027 366C453.912 366 487.054 367.412 487.054 369.158Z" fill="#ABDBE6"/>
<path d="M389.365 100.939C389.365 104.563 386.415 107.504 382.782 107.504C379.145 107.504 376.202 104.563 376.202 100.939C376.202 97.3076 379.145 94.3684 382.782 94.3684C386.415 94.3684 389.365 97.3076 389.365 100.939Z" fill="white"/>
<path d="M647.231 106.3C647.231 111.62 642.892 115.934 637.569 115.934C632.246 115.934 627.906 111.62 627.906 106.3C627.906 100.977 632.246 96.6649 637.569 96.6649C642.892 96.6649 647.231 100.977 647.231 106.3Z" fill="white"/>
<path d="M688.627 155.349C682.21 155.349 676.998 150.153 676.998 143.745C676.998 137.332 682.21 132.138 688.627 132.138C695.062 132.138 700.256 137.332 700.256 143.745C700.256 150.153 695.062 155.349 688.627 155.349Z" fill="white"/>
<path d="M505.778 96.6992C502.628 96.6992 500.075 94.1504 500.075 91.0071C500.075 87.8644 502.628 85.3138 505.778 85.3138C508.93 85.3138 511.484 87.8644 511.484 91.0071C511.484 94.1504 508.93 96.6992 505.778 96.6992Z" fill="white"/>
<path d="M623.028 177.16C623.028 178.852 621.657 180.227 619.95 180.227C618.263 180.227 616.89 178.852 616.89 177.16C616.89 175.466 618.263 174.097 619.95 174.097C621.657 174.097 623.028 175.466 623.028 177.16Z" fill="white"/>
<path d="M510.68 335.603L504.745 345.368C504.745 345.368 513.063 356.641 521.167 357.99C529.274 359.335 512.969 349.455 520.07 342.177C527.172 334.899 510.68 335.603 510.68 335.603Z" fill="white"/>
<path d="M722.64 386.273C720.471 364.523 716.242 341.786 718.486 319.734C719.098 313.71 724.236 286.785 733.954 292.983C741.762 297.964 736.625 316.166 736.569 323.731C736.421 344.083 732.377 366.057 726.814 384.882L722.64 386.273Z" fill="#7CC7B9"/>
<path d="M268.603 282.72C253.022 278.15 242.007 264.146 242.997 247.549C243.524 238.712 247.477 239.817 252.854 234.474C258.557 228.81 255.436 226.672 250.607 220.386C241.764 208.884 233.448 195.949 237.046 180.625C240.451 166.12 257.658 166.367 253.855 151.214C248.966 131.727 250.907 112.357 253.165 92.3413C254.485 80.6325 258.761 52.0447 274.903 51.6081C290.126 51.201 289.391 79.5368 289.702 89.1356C289.992 98.083 288.087 104.273 294.966 109.316C303.774 115.77 313.968 117.906 315.804 130.803C317.969 146.011 301.103 152.415 300.263 165.912C299.569 177.104 315.641 183.59 321.352 192.807C332.073 210.117 311.196 210.236 309.441 224.059C309.323 224.992 308.764 225.552 308.34 226.326C314.193 230.735 322.26 233.08 325.597 240.186C329.475 248.448 326.64 256.922 320.919 263.284C309.417 276.074 287.818 287.336 270.541 283.233C269.888 283.077 269.243 282.907 268.603 282.72Z" fill="#E7C264"/>
<path d="M304.76 383.082C304.76 384.349 292.002 385.378 276.264 385.378C260.525 385.378 247.769 384.349 247.769 383.082C247.769 381.811 260.525 380.786 276.264 380.786C292.002 380.786 304.76 381.811 304.76 383.082Z" fill="#ABDBE6"/>
<path d="M275.288 374.669H274.515V355.07C274.773 355.186 275.03 355.304 275.288 355.419V374.669Z" fill="white"/>
<path d="M275.288 355.419C275.03 355.305 274.773 355.186 274.515 355.07V283.905C274.773 283.933 275.03 283.957 275.288 283.977V355.419Z" fill="#E5F7FF"/>
<path d="M275.288 283.977C275.03 283.956 274.773 283.933 274.515 283.905V253.02L275.036 253.54L275.288 253.289V265.4L274.63 266.058L275.175 266.602L275.288 266.49V277.645L274.63 278.304L275.175 278.848L275.288 278.735V283.977ZM275.288 252.704L274.515 251.93V197.502L275.036 198.024L275.288 197.77V210.699L274.63 211.358L275.175 211.902L275.288 211.787V218.047L274.63 218.706L275.175 219.25L275.288 219.138V232.743L274.63 233.401L275.175 233.946L275.288 233.832V252.704ZM275.288 197.185L274.515 196.414V188.521L275.036 189.041L275.288 188.789V197.185ZM275.288 188.204L274.515 187.433V138.718L275.036 139.24L275.288 138.989V155.18L274.63 155.839L275.175 156.384L275.288 156.271V167.428L274.63 168.085L275.175 168.631L275.288 168.516V188.204ZM275.288 138.402L274.515 137.63V130.555L275.036 131.076L275.288 130.824V138.402ZM275.288 130.237L274.515 129.465V88.0992L275.036 88.6189L275.288 88.3691V102.113L274.63 102.772L275.175 103.315L275.288 103.203V130.237Z" fill="#EDFAD3"/>
<path d="M274.515 51.6241V51.608H274.903C274.773 51.6112 274.643 51.6171 274.515 51.6241Z" fill="#EDFAD3"/>
<path d="M275.288 87.7822L274.515 87.0104V51.6248C274.643 51.6175 274.773 51.6114 274.903 51.608H275.288V87.7822Z" fill="#EDFAD3"/>
<path d="M315.367 128.517C315.354 128.463 315.341 128.41 315.326 128.356C315.341 128.41 315.354 128.463 315.367 128.517Z" fill="#EDFAD3"/>
<path d="M275.175 168.631L274.63 168.084L275.288 167.427L315.132 127.661C315.198 127.89 315.265 128.119 315.326 128.356C315.341 128.411 315.354 128.464 315.367 128.518L275.288 168.516L275.175 168.631Z" fill="#EDFAD3"/>
<path d="M275.175 156.383L274.63 155.839L275.288 155.18L310.612 119.925C310.793 120.11 310.968 120.297 311.142 120.488L275.288 156.271L275.175 156.383Z" fill="#EDFAD3"/>
<path d="M307.657 179.418C307.479 179.253 307.301 179.088 307.125 178.922L307.127 178.92C307.304 179.087 307.481 179.253 307.657 179.418Z" fill="#EDFAD3"/>
<path d="M275.175 211.902L274.63 211.358L275.288 210.699L307.125 178.922C307.301 179.089 307.479 179.254 307.658 179.418C307.668 179.429 307.679 179.439 307.691 179.45L275.288 211.787L275.175 211.902Z" fill="#EDFAD3"/>
<path d="M275.175 103.315L274.63 102.771L275.288 102.112L289.666 87.7644V87.7678C289.673 88.1397 289.683 88.4927 289.692 88.8283L275.288 103.203L275.175 103.315Z" fill="#EDFAD3"/>
<path d="M275.175 219.25L274.63 218.706L275.288 218.047L311.025 182.379C311.22 182.548 311.418 182.714 311.615 182.881L275.288 219.137L275.175 219.25Z" fill="#EDFAD3"/>
<path d="M275.175 278.848L274.63 278.305L275.288 277.645L315.94 237.075L316.485 237.619L275.288 278.736L275.175 278.848Z" fill="#EDFAD3"/>
<path d="M275.175 233.946L274.63 233.4L275.288 232.743L315.94 192.17L316.485 192.715L275.288 233.831L275.175 233.946Z" fill="#EDFAD3"/>
<path d="M250.223 164.278L250.219 164.276C250.405 164.093 250.583 163.908 250.759 163.723L250.763 163.727C250.587 163.911 250.407 164.096 250.223 164.278Z" fill="#EDFAD3"/>
<path d="M275.036 189.041L274.515 188.521L250.223 164.277C250.407 164.096 250.586 163.91 250.762 163.726L274.515 187.432L275.288 188.204L275.581 188.497L275.288 188.789L275.036 189.041Z" fill="#EDFAD3"/>
<path d="M275.037 198.024L274.515 197.502L245.422 168.466C245.617 168.297 245.813 168.129 246.011 167.965L274.515 196.414L275.288 197.186L275.581 197.478L275.288 197.771L275.037 198.024Z" fill="#EDFAD3"/>
<path d="M254.316 232.861V232.86C254.485 232.647 254.639 232.437 254.778 232.232L254.782 232.236C254.641 232.44 254.487 232.648 254.316 232.861Z" fill="#EDFAD3"/>
<path d="M275.036 253.54L274.515 253.02L254.316 232.861C254.487 232.648 254.641 232.44 254.782 232.236L274.515 251.93L275.288 252.704L275.581 252.996L275.288 253.289L275.036 253.54Z" fill="#EDFAD3"/>
<path d="M312.698 229.154C312.468 229.019 312.24 228.886 312.012 228.749H312.013C312.24 228.884 312.47 229.019 312.7 229.152L312.698 229.154Z" fill="#EDFAD3"/>
<path d="M275.175 266.602L274.63 266.058L275.288 265.4L312.013 228.749C312.24 228.886 312.468 229.019 312.698 229.154L275.288 266.49L275.175 266.602Z" fill="#EDFAD3"/>
<path d="M275.037 88.6191L274.515 88.0994L257.363 70.9839C257.451 70.7079 257.543 70.4358 257.632 70.162L274.515 87.0109L275.288 87.7826L275.581 88.0754L275.288 88.3692L275.037 88.6191Z" fill="#EDFAD3"/>
<path d="M275.037 131.076L274.515 130.556L251.599 107.684C251.625 107.35 251.655 107.014 251.684 106.679L274.515 129.465L275.288 130.237L275.581 130.53L275.288 130.824L275.037 131.076Z" fill="#EDFAD3"/>
<path d="M275.037 139.241L274.515 138.719L251.069 115.321C251.087 114.975 251.106 114.63 251.125 114.286L274.515 137.63L275.288 138.402L275.581 138.695L275.288 138.989L275.037 139.241Z" fill="#EDFAD3"/>
<path d="M274.743 374.668H276.01V282.031H274.743V374.668Z" fill="#EDFAD3"/>
<path d="M279.808 381.447C279.808 381.447 257.491 301.669 243.208 336.501C228.925 371.333 279.808 381.447 279.808 381.447Z" fill="#7CC7B9"/>
<path d="M301.203 299.669C298.072 299.669 295.24 300.983 292.787 303.576C279.042 318.089 280.034 367.972 280.472 379.727C287.13 368.853 316.46 319.411 309.126 304.056C307.922 301.532 305.795 300.124 302.623 299.754C302.145 299.697 301.667 299.669 301.203 299.669ZM279.174 384.707L279.039 382.308C278.893 379.747 275.667 319.407 291.659 302.515C294.823 299.176 298.59 297.726 302.805 298.221C306.492 298.656 309.091 300.394 310.521 303.391C319.102 321.358 282.045 380.18 280.463 382.675L279.174 384.707Z" fill="#5FA469"/>
<path d="M739.592 339.96C734.659 339.96 732.525 351.728 731.395 358.049C731.098 359.706 730.838 361.138 730.597 362.092C729.892 364.775 729.095 367.559 728.316 370.25C726.591 376.21 724.811 382.363 723.957 388.221L736.161 386.298L736.847 385.976C741.02 384.034 745.323 382.026 747.418 378.128C748.698 375.749 748.958 373.488 748.105 372.072C747.585 371.202 746.676 370.725 745.527 370.725C744.563 370.725 742.986 371.059 740.927 372.662L738.85 374.288L739.852 371.852C743.172 363.796 749.978 344.617 741.521 340.462C740.835 340.128 740.204 339.96 739.592 339.96ZM722.325 389.885L722.455 388.965C723.253 382.73 725.145 376.19 726.981 369.866C727.741 367.184 728.539 364.409 729.243 361.741C729.465 360.84 729.725 359.432 730.022 357.805C731.395 350.144 733.49 338.57 739.592 338.57C740.408 338.57 741.261 338.787 742.133 339.214C750.72 343.437 746.121 359.695 741.966 370.325C743.208 369.673 744.414 369.334 745.527 369.334C747.159 369.334 748.531 370.073 749.31 371.359C750.423 373.225 750.182 375.931 748.643 378.785C746.324 383.089 741.613 385.293 737.441 387.237L736.476 387.655L722.325 389.885Z" fill="#5FA469"/>
<path d="M725.219 390.19C728.279 376.167 721.342 353.442 715.778 339.958C713.979 335.553 704.113 320.964 697.9 323.959C691.983 326.811 700.181 342.358 702.444 345.969C700.83 343.876 697.437 342.059 694.079 342.116C687.996 342.214 689.295 343.384 689.907 348.365C690.834 356.053 696.676 360.329 702.017 364.875C698.048 363.386 691.724 363.648 691.928 369.439C692.151 375.229 725.219 390.19 725.219 390.19Z" fill="#E7C264"/>
<path d="M486.11 41.6772C486.11 64.6933 466.405 83.3528 442.102 83.3528C417.796 83.3528 398.092 64.6933 398.092 41.6772C398.092 18.6595 417.796 0 442.102 0C466.405 0 486.11 18.6595 486.11 41.6772Z" fill="#ABDBE6"/>
<path d="M482.625 41.9795C482.625 62.1122 466.276 78.428 446.101 78.428C425.932 78.428 409.584 62.1122 409.584 41.9795C409.584 21.849 425.932 5.53101 446.101 5.53101C466.276 5.53101 482.625 21.849 482.625 41.9795Z" fill="white"/>
<path d="M446.276 39.1121L465.551 19.8772L447.563 47.4463L446.276 39.1121Z" fill="#2E3054"/>
<path d="M446.275 39.1126L430.858 32.7012L447.563 47.4467L450.131 43.6008L446.275 39.1126Z" fill="#2E3054"/>
<path d="M448.453 14.1071C448.453 15.403 447.401 16.4519 446.103 16.4519C444.807 16.4519 443.755 15.403 443.755 14.1071C443.755 12.8112 444.807 11.7634 446.103 11.7634C447.401 11.7634 448.453 12.8112 448.453 14.1071Z" fill="#4F5A79"/>
<path d="M448.453 68.8278C448.453 70.1215 447.401 71.1732 446.103 71.1732C444.807 71.1732 443.755 70.1215 443.755 68.8278C443.755 67.5319 444.807 66.4847 446.103 66.4847C447.401 66.4847 448.453 67.5319 448.453 68.8278Z" fill="#4F5A79"/>
<path d="M473.52 43.8105C472.222 43.8105 471.17 42.7611 471.17 41.4674C471.17 40.1732 472.222 39.1227 473.52 39.1227C474.816 39.1227 475.868 40.1732 475.868 41.4674C475.868 42.7611 474.816 43.8105 473.52 43.8105Z" fill="#4F5A79"/>
<path d="M418.688 43.8105C417.391 43.8105 416.34 42.7611 416.34 41.4674C416.34 40.1732 417.391 39.1227 418.688 39.1227C419.988 39.1227 421.038 40.1732 421.038 41.4674C421.038 42.7611 419.988 43.8105 418.688 43.8105Z" fill="#4F5A79"/>
<path d="M465.385 221.168C465.385 221.168 456.215 228.964 461.363 240.495C466.511 252.023 480.507 261.012 494.79 268.913C505.545 274.862 508.761 279.073 504.016 287.224C498.065 297.442 491.284 295.332 483.26 305.388C480.492 309.259 473.041 320.964 473.041 320.964L479.666 325.153C479.666 325.153 479.266 322.623 487.373 316.945C496.273 310.718 512.294 302.76 517.197 299.079C522.1 295.399 530.384 290.678 526.674 279.071C522.966 267.465 490.135 239.001 490.135 239.001L465.385 221.168Z" fill="#596A83"/>
<path d="M563.635 307.333C596.984 271.607 573.471 229.225 573.471 229.225L578.04 229.929C578.04 229.929 609.267 264.599 578.381 302.43L563.635 307.333Z" fill="#D43E3A"/>
<path d="M575.918 231.68C575.918 235.16 573.1 237.984 569.613 237.984C566.128 237.984 563.294 235.16 563.294 231.68C563.294 228.196 566.128 225.376 569.613 225.376C573.1 225.376 575.918 228.196 575.918 231.68Z" fill="#D43E3A"/>
<path d="M438.002 338.856C438.002 355.493 424.486 368.982 407.816 368.982C391.149 368.982 377.633 355.493 377.633 338.856C377.633 322.22 391.149 308.731 407.816 308.731C424.486 308.731 438.002 322.22 438.002 338.856Z" fill="#DDE4EA"/>
<path d="M438.002 338.856C438.002 355.493 424.486 368.982 407.816 368.982C391.149 368.982 377.633 355.493 377.633 338.856C377.633 322.22 391.149 308.731 407.816 308.731C424.486 308.731 438.002 322.22 438.002 338.856Z" fill="#596A83"/>
<path d="M422.707 338.856C422.707 347.449 415.727 354.417 407.117 354.417C398.506 354.417 391.526 347.449 391.526 338.856C391.526 330.265 398.506 323.296 407.117 323.296C415.727 323.296 422.707 330.265 422.707 338.856Z" fill="white"/>
<path d="M483.624 264.438C483.624 264.438 467.478 297.333 485.376 318.397C503.278 339.461 546.101 332.071 546.101 332.071L545.745 346.483L339.38 354.244C339.38 354.244 348.506 277.747 385.357 258.159C422.204 238.571 472.041 248.919 483.624 264.438Z" fill="#EA5A63"/>
<path d="M466.077 305.582C460.108 283.517 428.175 280.012 394.131 297.176C360.087 314.339 341.135 348.315 341.135 348.315C341.135 348.315 341.704 348.398 342.741 348.545L445.938 344.865C462.403 336.425 470.599 322.315 466.077 305.582Z" fill="#DE6264"/>
<path d="M352.795 299.936L352.286 299.58C352.314 299.541 353.342 298.09 355.233 295.748C354.905 296.489 354.588 297.227 354.272 297.972C353.341 299.173 352.833 299.883 352.795 299.936ZM478.432 258.883C478.123 258.86 477.792 258.836 477.441 258.81C477.089 258.574 476.733 258.342 476.364 258.111C476.752 258.139 477.119 258.166 477.465 258.191C477.785 258.423 478.106 258.653 478.432 258.883Z" fill="#E5F7FF"/>
<path d="M481.719 259.161C481.676 259.157 480.606 259.05 478.432 258.884C478.106 258.653 477.785 258.424 477.465 258.191C480.33 258.401 481.732 258.539 481.781 258.545L481.719 259.161Z" fill="#9BA6B5"/>
<path d="M354.272 297.973C354.588 297.228 354.905 296.489 355.233 295.749C358.586 291.593 364.652 284.627 372.651 277.747C384.099 267.899 401.936 256.25 422.179 256.25C422.374 256.25 422.569 256.252 422.765 256.253C451.039 256.597 468.318 257.548 476.363 258.111C476.733 258.342 477.089 258.575 477.44 258.81C469.96 258.264 452.412 257.235 422.756 256.872C422.546 256.871 422.331 256.869 422.123 256.869C388.384 256.869 360.823 289.538 354.272 297.973Z" fill="#E58B89"/>
<path d="M456.95 225.725C456.95 225.725 449.228 235.884 456.249 247.44C463.266 258.998 485.029 261.452 494.855 269.505C504.68 277.563 509.483 280.534 506.183 290.25C502.042 302.445 495.002 301.412 488.789 313.811C486.715 318.524 481.348 332.606 481.348 332.606L488.583 335.924C488.583 335.924 487.76 333.25 494.796 325.588C502.515 317.185 516.963 305.582 521.176 300.679C525.389 295.775 532.757 289.121 527.142 277.211C521.527 265.304 495.203 240.087 495.203 240.087L456.95 225.725Z" fill="#2E3054"/>
<path d="M619.577 261.275C619.577 270.078 616.595 277.21 612.916 277.21C609.222 277.21 588.35 273.011 588.35 262.499C588.35 251.993 609.222 245.337 612.916 245.337C616.595 245.337 619.577 252.472 619.577 261.275Z" fill="#DE6264"/>
<path d="M619.577 261.275C619.577 270.078 616.595 277.21 612.916 277.21C609.222 277.21 606.24 270.078 606.24 261.275C606.24 252.472 609.222 245.337 612.916 245.337C616.595 245.337 619.577 252.472 619.577 261.275Z" fill="#D43E3A"/>
<path d="M531.705 174.588C531.705 174.588 553.459 161.279 544.336 147.97C535.215 134.658 521.879 134.657 514.859 152.17C507.84 169.685 510.151 168.295 496.813 175.301C483.475 182.308 461.513 194.201 454.496 210.313C447.476 226.424 473.447 238.335 492.399 240.436C492.399 240.436 504.333 236.232 507.138 226.424C509.944 216.618 521.879 182.292 531.705 174.588Z" fill="#F9C9B7"/>
<path d="M506.747 169.19C504.524 167.418 501.588 172.515 496.188 175.324C482.634 182.368 461.232 194.348 454.098 210.554C446.966 226.756 473.361 238.737 492.621 240.852C492.621 240.852 504.749 236.622 507.602 226.756C510.231 217.67 520.734 187.644 530.185 176.918C530.991 176.002 511.876 173.288 506.747 169.19Z" fill="#EA5A63"/>
<path d="M509.857 165.384C509.857 165.384 521.661 177.162 531.446 175.302L528.649 179.331C528.649 179.331 512.045 181.624 501.849 172.24L509.857 165.384Z" fill="#2E3054"/>
<path d="M509.457 220.88C512.314 212.317 517.324 198.926 522.757 188.491C524.456 192.5 523.48 197.79 524.612 205.526C524.603 205.526 524.594 205.524 524.584 205.524C523.463 205.524 514.254 210.901 509.457 220.88Z" fill="#A5967A"/>
<path d="M509.29 221.23C503.754 208.077 500.186 188.837 505.355 183.925C507.372 182.009 509.062 181.013 511.102 181.013C512.967 181.013 515.124 181.845 518.089 183.565C520.568 185.004 521.958 186.606 522.757 188.491C517.324 198.925 512.314 212.316 509.457 220.88C509.4 220.995 509.345 221.113 509.29 221.23Z" fill="#A5261C"/>
<path d="M611.032 338.856C611.032 355.493 597.518 368.982 580.843 368.982C564.169 368.982 550.655 355.493 550.655 338.856C550.655 322.22 564.169 308.731 580.843 308.731C597.518 308.731 611.032 322.22 611.032 338.856Z" fill="#DDE4EA"/>
<path d="M609.281 369.627C609.281 370.463 591.154 371.143 568.798 371.143C546.442 371.143 528.311 370.463 528.311 369.627C528.311 368.79 546.442 368.111 568.798 368.111C591.154 368.111 609.281 368.79 609.281 369.627Z" fill="#ABDBE6"/>
<path d="M611.032 338.856C611.032 355.493 597.518 368.982 580.843 368.982C564.169 368.982 550.655 355.493 550.655 338.856C550.655 322.22 564.169 308.731 580.843 308.731C597.518 308.731 611.032 322.22 611.032 338.856Z" fill="#596A83"/>
<path d="M596.435 338.856C596.435 347.449 589.448 354.417 580.843 354.417C572.239 354.417 565.252 347.449 565.252 338.856C565.252 330.265 572.239 323.296 580.843 323.296C589.448 323.296 596.435 330.265 596.435 338.856Z" fill="white"/>
<path d="M506.908 182.587C498.76 189.241 509.575 216.015 521.504 227.222C533.438 238.433 541.636 235.654 556.293 231.874C567.864 228.888 571.008 226.424 575.918 230.629C580.844 234.831 578.737 224.324 572.061 221.171C565.401 218.019 559.779 223.974 547.496 225.376C535.215 226.775 532.88 218.851 529.301 209.302C524.925 195.606 529.087 186.99 519.642 182.278C513.431 179.177 510.769 179.435 506.908 182.587Z" fill="#F9C9B7"/>
<path d="M611.224 312.66C604.253 303.872 593.468 298.226 581.363 298.226C560.327 298.226 543.282 315.241 543.282 336.229C543.282 341.399 544.321 346.325 546.19 350.819C555.462 351.29 568.086 348.174 580.755 341.657C596.879 333.354 608.495 321.892 611.224 312.66Z" fill="#D43E3A"/>
<path d="M588.602 320.519C583.454 320.519 579.301 316.363 579.301 311.236C579.301 306.109 583.454 301.952 588.602 301.952C590.175 301.952 591.673 302.346 592.978 303.041C591.332 303.557 590.145 305.087 590.145 306.895C590.145 309.126 591.955 310.932 594.195 310.932C595.648 310.932 596.924 310.167 597.636 309.017C597.799 309.727 597.903 310.47 597.903 311.236C597.903 316.363 593.735 320.519 588.602 320.519Z" fill="#E58B89"/>
<path d="M613.376 271.069C610.631 271.069 608.406 265.734 608.406 259.149C608.406 252.567 610.631 247.228 613.376 247.228C614.058 247.228 614.725 247.569 615.319 248.183C613.079 248.53 611.343 250.875 611.343 253.716C611.343 256.795 613.376 259.293 615.898 259.293C616.802 259.293 617.633 258.979 618.331 258.436C618.345 258.673 618.345 258.91 618.345 259.149C618.345 265.734 616.12 271.069 613.376 271.069Z" fill="#E58B89"/>
<path d="M619.369 257.335C618.968 253.599 618.019 250.389 616.743 248.233C618.865 248.716 620.467 250.987 620.467 253.716C620.467 255.097 620.051 256.362 619.369 257.335Z" fill="#E5F7FF"/>
<path d="M618.331 258.435C618.211 253.822 617.01 249.913 615.319 248.183C615.512 248.153 615.705 248.139 615.898 248.139C616.195 248.139 616.476 248.171 616.743 248.233C618.019 250.389 618.968 253.598 619.369 257.335C619.072 257.763 618.716 258.135 618.331 258.435Z" fill="#E58B89"/>
<path d="M615.898 259.293C613.376 259.293 611.343 256.796 611.343 253.716C611.343 250.875 613.079 248.53 615.319 248.183C617.01 249.914 618.212 253.823 618.331 258.436C617.633 258.979 616.802 259.293 615.898 259.293Z" fill="#EFB9B8"/>
<path d="M436.251 312.148C432.741 312.148 429.9 309.311 429.9 305.811C429.9 302.31 432.741 299.473 436.251 299.473C439.758 299.473 442.602 302.31 442.602 305.811C442.602 309.311 439.758 312.148 436.251 312.148Z" fill="#EBA1A2"/>
<path d="M445.41 300.827C443.961 300.827 442.786 299.654 442.786 298.208C442.786 296.763 443.961 295.59 445.41 295.59C446.861 295.59 448.033 296.763 448.033 298.208C448.033 299.654 446.861 300.827 445.41 300.827Z" fill="#EBA1A2"/>
<path d="M597.636 309.017C596.998 306.43 595.278 304.268 592.979 303.041C593.364 302.921 593.765 302.857 594.195 302.857C596.42 302.857 598.23 304.666 598.23 306.895C598.23 307.674 598.007 308.401 597.636 309.017Z" fill="#E58B89"/>
<path d="M594.195 310.933C591.955 310.933 590.145 309.127 590.145 306.895C590.145 305.088 591.332 303.557 592.979 303.042C595.278 304.269 596.999 306.431 597.636 309.017C596.924 310.167 595.648 310.933 594.195 310.933Z" fill="#EFB9B8"/>
<path d="M509.857 165.384C509.857 165.384 495.908 163.029 479.064 155.324C462.216 147.618 433.787 136.201 410.622 146.01C410.622 146.01 430.191 154.378 423.625 166.691C422.751 167.701 439.052 160.227 455.546 165.481C472.041 170.734 492.398 177.391 502.575 172.136L509.857 165.384Z" fill="#2E3054"/>
<path d="M527.646 202.419C525.981 192.643 527.392 186.143 519.642 182.278C513.431 179.177 510.769 179.435 506.908 182.587C501.743 186.808 504.205 199.12 509.738 210.422C514.527 201.575 526.642 202.341 527.646 202.419Z" fill="#DE6264"/>
<path d="M421.877 327.037H370.018C369.286 327.037 368.692 326.552 368.692 325.952C368.692 325.352 369.286 324.866 370.018 324.866H421.877C422.609 324.866 423.201 325.352 423.201 325.952C423.201 326.552 422.609 327.037 421.877 327.037Z" fill="#EBA1A2"/>
<path d="M543.92 343.153H468.198C467.107 343.153 466.22 342.67 466.22 342.07C466.22 341.469 467.107 340.985 468.198 340.985H490.055C491.039 341.469 492.047 341.826 493.048 341.993C493.453 342.059 493.781 342.092 494.042 342.092C494.975 342.092 495.063 341.682 494.723 340.985H543.579C543.668 341.715 543.787 342.438 543.92 343.153Z" fill="#E58B89"/>
<path d="M545.701 343.153H543.92C543.787 342.438 543.668 341.715 543.579 340.985H545.701C546.784 340.985 547.673 341.469 547.673 342.07C547.673 342.67 546.784 343.153 545.701 343.153Z" fill="#E58B89"/>
<path d="M494.042 342.092C493.781 342.092 493.453 342.059 493.048 341.993C492.047 341.826 491.039 341.469 490.055 340.985H494.723C495.063 341.682 494.975 342.092 494.042 342.092Z" fill="white"/>
<path d="M403.634 334.786H361.083C360.482 334.786 359.995 334.3 359.995 333.701C359.995 333.102 360.482 332.616 361.083 332.616H403.634C404.235 332.616 404.72 333.102 404.72 333.701C404.72 334.3 404.235 334.786 403.634 334.786Z" fill="#EBA1A2"/>
<path d="M462.208 224.08C457.408 218.743 455.052 213.201 454.11 210.526C453.971 210.847 453.855 211.135 453.748 211.427C454.845 214.342 457.227 219.523 461.713 224.518C467.484 230.946 477.929 238.299 495.506 238.299C496.28 238.299 497.076 238.279 497.88 238.249C498.25 238.024 498.629 237.781 499.012 237.523C479.55 238.566 468.261 230.813 462.208 224.08Z" fill="#ACD0EF"/>
<path d="M377.908 203.551L353.115 201.268L377.908 199.743V203.551Z" fill="white"/>
<path d="M370.046 222.109L348.077 220.083L370.046 218.736V222.109Z" fill="white"/>
<path d="M375.49 214.256L338 211.973L375.49 210.451V214.256Z" fill="white"/>
<path d="M546.486 148.31C546.486 148.31 553.281 149.307 549.735 153.634C546.19 157.962 539.148 149.498 532.403 151.882C525.656 154.265 535.206 147.539 546.486 148.31Z" fill="#2E3054"/>
<path d="M523.773 162.122C523.773 162.122 519.28 165.733 510.578 164.492L510.89 158.599L522.699 161.7L523.773 162.122Z" fill="#2E3054"/>
<path d="M546.486 148.31C545.3 148.93 545.611 148.996 542.823 148.94C538.264 148.85 529.959 149.632 526.386 158.71C525.88 159.992 526.789 161.505 524.395 162.743C521.998 163.977 517.8 163.447 517.8 163.447L510.89 162.631C510.89 162.631 496.018 142.113 517.727 132.853C532.447 126.576 542.556 137.743 545.567 144.137C546.991 147.174 547.688 147.692 546.486 148.31Z" fill="#FCD746"/>
<path d="M540.08 137.86C541.22 139.019 541.606 140.495 540.938 141.155C540.256 141.816 538.787 141.413 537.644 140.254C536.5 139.095 536.119 137.618 536.791 136.956C537.461 136.296 538.934 136.7 540.08 137.86Z" fill="white"/>
<path d="M532.462 146.105C528.041 148.574 525.133 152.106 523.578 156.902C522.611 159.89 516.38 160.787 508.832 159.132C508.955 159.382 509.08 159.619 509.202 159.845C511.58 160.336 513.809 160.583 515.787 160.581C520.247 160.581 523.435 159.363 524.171 157.094C525.696 152.388 528.427 149.067 532.766 146.645C536.694 144.451 542.764 144.242 545.626 144.279L545.567 144.137C545.493 143.977 545.404 143.813 545.315 143.647C542.303 143.622 536.427 143.89 532.462 146.105Z" fill="white"/>
<path d="M382.919 249.669H451.005V193.604H382.919V249.669Z" fill="#FFD72D"/>
<path d="M382.919 200.803H451.005V193.604H382.919V200.803Z" fill="#FFEB96"/>
<path d="M418.42 232.876C418.42 232.876 420.317 243.483 426.772 243.861C426.772 243.861 424.242 245.629 416.776 245.502C409.31 245.376 407.412 243.861 407.412 243.861C413.864 243.483 415.763 232.876 415.763 232.876H418.42Z" fill="#596A83"/>
<path d="M442.82 230.001C442.82 232.136 431.29 234.649 417.08 234.649C402.87 234.649 391.362 232.136 391.362 230.001C391.362 227.869 402.881 226.139 417.091 226.139C431.298 226.139 442.82 227.869 442.82 230.001Z" fill="#727F9C"/>
<path d="M438.952 228.087C438.926 216.166 429.246 206.52 417.309 206.52C405.37 206.52 395.688 216.166 395.662 228.072C395.821 229.923 405.45 231.375 417.309 231.375C429.167 231.375 438.795 229.923 438.946 228.124L438.952 228.087Z" fill="#596A83"/>
<path d="M420.234 204.791C420.234 206.143 419.135 207.24 417.781 207.24C416.424 207.24 415.327 206.143 415.327 204.791C415.327 203.439 416.424 202.344 417.781 202.344C419.135 202.344 420.234 203.439 420.234 204.791Z" fill="#596A83"/>
<path d="M406.666 228.843C406.666 228.843 402.625 228.557 399.74 227.979C400.026 221.642 402.05 210.697 415.616 208.681C415.616 208.681 406.954 213.578 406.666 228.843Z" fill="#ACB5C1"/>
<path d="M417.129 191.689L417.074 191.472C416.789 190.361 416.373 188.771 415.799 186.915C415.511 185.987 415.171 184.995 414.786 183.972C414.392 182.958 413.918 181.917 413.361 180.948C413.081 180.471 412.771 180.009 412.434 179.624C412.09 179.256 411.73 178.906 411.393 178.751C411.055 178.585 410.766 178.539 410.423 178.585L410.151 178.649L409.918 178.745L409.799 178.782L409.593 178.905L409.167 179.164C409.154 179.175 409.019 179.26 409.192 179.149L409.095 179.229L408.948 179.341L408.669 179.571C408.519 179.734 408.35 179.886 408.262 180.053C408.052 180.384 407.926 180.69 407.944 181.086C407.95 181.863 408.363 182.891 408.99 183.796C409.611 184.708 410.342 185.577 411.092 186.362C411.85 187.139 412.608 187.863 413.329 188.511C414.778 189.806 416.055 190.834 416.951 191.549L417.129 191.689ZM417.788 193.652C417.788 193.652 417.159 193.378 416.116 192.83C415.073 192.273 413.599 191.449 411.93 190.266C411.092 189.68 410.202 189.012 409.31 188.218C408.418 187.423 407.496 186.535 406.677 185.423C406.26 184.871 405.875 184.255 405.545 183.557C405.211 182.862 404.977 182.03 404.951 181.119C404.9 180.205 405.211 179.205 405.707 178.432C405.948 178.021 406.251 177.705 406.553 177.387C406.704 177.217 406.873 177.11 407.031 176.971L407.277 176.777L407.398 176.679L407.546 176.577L408.028 176.293L408.251 176.164L408.594 176.012C408.819 175.92 409.049 175.815 409.282 175.75C409.512 175.694 409.746 175.644 409.981 175.6C410.948 175.456 412.005 175.671 412.815 176.123C413.652 176.561 414.204 177.178 414.689 177.772C415.164 178.375 415.527 178.99 415.843 179.596C416.48 180.813 416.883 182.016 417.22 183.155C417.561 184.292 417.791 185.377 417.975 186.378C418.355 188.381 418.504 190.06 418.583 191.236C418.628 191.823 418.632 192.288 418.644 192.604C418.65 192.922 418.653 193.094 418.653 193.094C418.658 193.428 418.393 193.705 418.06 193.709L417.809 193.661L417.788 193.652Z" fill="#D43E3A"/>
<path d="M418.785 192.649C418.785 192.649 419.28 192.288 420.147 191.647C421.011 191.015 422.246 190.106 423.701 189.009C424.425 188.454 425.196 187.844 425.999 187.198C426.8 186.551 427.61 185.835 428.401 185.093C429.179 184.354 429.946 183.515 430.418 182.726C430.673 182.335 430.768 181.953 430.762 181.827L430.741 181.735L430.777 181.76L430.694 181.672L430.516 181.525L430.424 181.449C430.264 181.325 430.528 181.525 430.498 181.504L430.382 181.444L430.204 181.356L429.854 181.279C429.615 181.263 429.255 181.374 428.873 181.569C428.102 181.963 427.273 182.695 426.557 183.463C425.84 184.245 425.162 185.071 424.548 185.885C423.944 186.708 423.38 187.506 422.872 188.255C421.863 189.759 421.047 191.053 420.474 191.959C419.909 192.867 419.586 193.387 419.586 193.387L418.785 192.649ZM418.53 192.928C418.53 192.928 418.693 192.312 419.057 191.28C419.428 190.247 419.987 188.779 420.823 187.08C421.237 186.227 421.71 185.312 422.286 184.374C422.854 183.432 423.493 182.447 424.294 181.49C424.689 181.005 425.131 180.528 425.619 180.061C426.118 179.596 426.662 179.141 427.359 178.767C428.041 178.396 428.865 178.045 429.866 178.052C430.354 178.068 430.859 178.139 431.32 178.318C431.563 178.386 431.765 178.503 431.971 178.619L432.28 178.795L432.477 178.934L432.609 179.045L432.784 179.195L432.876 179.27L433.027 179.43C433.237 179.672 433.469 179.941 433.597 180.207C433.716 180.477 433.858 180.749 433.904 181.035C433.948 181.315 434.018 181.63 433.991 181.886C433.944 182.99 433.519 183.774 433.122 184.394C432.715 185.032 432.259 185.555 431.798 186.022C431.341 186.501 430.865 186.917 430.399 187.314C429.467 188.115 428.51 188.771 427.601 189.376C426.696 189.984 425.809 190.501 424.987 190.963C423.345 191.89 421.928 192.558 420.927 193.002C419.925 193.446 419.327 193.662 419.327 193.662C419.01 193.779 418.66 193.615 418.544 193.299L418.528 192.932L418.53 192.928Z" fill="#D43E3A"/>
<path d="M408.398 196.104C403.572 196.104 399.156 193.56 395.054 188.452C387.613 179.188 379.987 179.438 368.31 180.948C367.678 181.032 367.097 180.584 367.012 179.95C366.932 179.318 367.379 178.741 368.012 178.657C380.128 177.093 388.679 176.828 396.859 187.01C402.756 194.349 409.074 195.667 416.745 191.156C417.297 190.832 418.004 191.016 418.329 191.565C418.653 192.114 418.47 192.822 417.92 193.148C414.57 195.115 411.403 196.104 408.398 196.104Z" fill="#D43E3A"/>
</svg>
