<svg viewBox="0 0 110 101" fill="none" xmlns="http://www.w3.org/2000/svg">
<path d="M1.24762 76.9264C4.65958 90.395 15.5229 97.9321 29.2884 100.376C34.4115 101.285 39.5817 100.211 43.7946 97.2736C47.7286 94.5309 49.245 91.463 54.2968 91.0506C63.355 90.3115 70.4876 100.191 79.4999 95.0353C85.7884 91.438 92.2729 87.2829 94.4214 80.6763C95.4921 77.3833 96.0131 71.7864 96.4736 66.7885C96.8349 62.8728 96.9326 56.4675 98.8333 52.6685C101.489 47.3612 104.776 42.6963 106.459 36.9834C108.015 31.7004 112.086 23.6106 108.559 18.3303C105.766 14.1503 100.78 13.1124 96.1157 13.3179C90.3628 13.5711 84.5495 12.6522 78.6997 13.5951C71.5214 14.752 67.5574 7.71866 61.5504 4.56619C57.7167 2.55395 52.8924 1.39017 48.355 1.04069C43.724 0.683827 39.0844 0.136946 34.7438 1.79489C31.2797 3.11743 27.1183 5.64134 23.8918 7.64759C18.9316 10.7315 14.7856 14.8788 11.397 19.5658C7.3974 25.0958 3.26456 30.1315 2.22466 36.7772C0.0722531 50.5335 0.0411283 72.1655 1.24762 76.9264Z" fill="#FDEA59"/>
<g clip-path="url(#clip0)">
<path d="M34.31 6.25594C35.6382 7.61639 37.8617 9.89335 41.852 10.0543L41.9221 8.37893C38.6201 8.24542 36.8428 6.42467 35.5434 5.09534C34.3647 3.88929 33.7882 3.35568 32.4847 3.35486L32.483 5.03228C32.9935 5.03228 33.1137 5.03228 34.31 6.25594Z" fill="#61455F"/>
<path d="M45.9175 9.37525L45.233 7.83789C44.6979 8.06682 44.1081 8.22612 43.4795 8.31089L43.7132 9.97234C44.4971 9.8675 45.238 9.66602 45.9175 9.37525Z" fill="#61455F"/>
<path d="M47.871 31.871C47.871 38.3493 43.6719 44.097 37.4221 46.1737L37.9719 47.763C44.9149 45.4545 49.5806 39.0688 49.5806 31.871H47.871Z" fill="#61455F"/>
<path d="M49.4875 30.1072C49.4249 29.515 49.3277 28.9204 49.2012 28.3401L47.5299 28.6923C47.6443 29.214 47.7299 29.7485 47.7862 30.28L49.4875 30.1072Z" fill="#61455F"/>
<path d="M18.2542 22.569L19.6751 23.5007C19.9735 23.0637 20.2991 22.6342 20.6443 22.2259L19.3286 21.1558C18.9467 21.6087 18.5852 22.0833 18.2542 22.569Z" fill="#61455F"/>
<path d="M22.96 20.0123L21.9019 18.6948C21.4361 19.0556 20.9811 19.4463 20.5495 19.8591L21.7429 21.0607C22.1319 20.6884 22.5414 20.3362 22.96 20.0123Z" fill="#61455F"/>
<path d="M16.5846 25.6904L18.1737 26.3088C18.3732 25.8162 18.6003 25.33 18.849 24.8652L17.3351 24.0851C17.0592 24.6027 16.8071 25.1429 16.5846 25.6904Z" fill="#61455F"/>
<path d="M32.4839 26C33.4268 26 34.1936 26.7523 34.1936 27.6774H35.9032C35.9032 26.1192 34.8101 24.8164 33.3387 24.4417V22.6451H31.629V24.3226H29.0645V27.6774C29.0645 29.5276 30.598 31.0322 32.4839 31.0322C33.4268 31.0322 34.1936 31.7845 34.1936 32.7097V34.3871H32.4839C31.541 34.3871 30.7742 33.6348 30.7742 32.7097H29.0645C29.0645 34.2679 30.1577 35.5706 31.629 35.9453V37.7419H33.3387V36.0645H35.9032V32.7097C35.9032 30.8594 34.3697 29.3548 32.4839 29.3548C31.541 29.3548 30.7742 28.6025 30.7742 27.6774V26H32.4839Z" fill="#61455F"/>
<path d="M43.5968 30.1935C43.5968 24.1817 38.6113 19.2903 32.4839 19.2903C26.3564 19.2903 21.371 24.1817 21.371 30.1935C21.371 36.2054 26.3564 41.0967 32.4839 41.0967C38.6113 41.0967 43.5968 36.2054 43.5968 30.1935ZM32.4839 39.4193C27.2993 39.4193 23.0806 35.2802 23.0806 30.1935C23.0806 25.1068 27.2993 20.9677 32.4839 20.9677C37.6684 20.9677 41.8871 25.1068 41.8871 30.1935C41.8871 35.2802 37.6684 39.4193 32.4839 39.4193Z" fill="#61455F"/>
<path d="M11.1129 36.9032C12.0558 36.9032 12.8226 37.6555 12.8226 38.5806H14.5323C14.5323 37.0224 13.4391 35.7196 11.9677 35.3449V33.5483H10.2581V35.2258H7.69354V38.5806C7.69354 40.4308 9.22708 41.9354 11.1129 41.9354C12.0558 41.9354 12.8226 42.6877 12.8226 43.6129V45.2903H11.1129C10.17 45.2903 9.40322 44.538 9.40322 43.6129H7.69354C7.69354 45.1711 8.78672 46.4738 10.2581 46.8485V48.6451H11.9677V46.9677H14.5323V43.6129C14.5323 41.7626 12.9987 40.258 11.1129 40.258C10.17 40.258 9.40322 39.5057 9.40322 38.5806V36.9032H11.1129Z" fill="#61455F"/>
<path d="M45.6546 16.6702C49.2926 12.2919 51.2903 6.81615 51.2903 1.14913V0H50.4355C47.5024 0 46.4752 1.61353 45.6483 2.9105C44.8628 4.14236 44.2959 5.03226 42.312 5.03226C40.2183 5.03226 39.1953 3.98551 38.0119 2.77454C36.741 1.47348 35.3013 0 32.4789 0C29.6568 0 28.218 1.47429 26.947 2.77536C25.7658 3.98633 24.7432 5.03226 22.6524 5.03226C20.6685 5.03226 20.1017 4.14154 19.3169 2.9105C18.4909 1.61353 17.4637 0 14.5323 0H13.6774V1.14913C13.6774 6.81615 15.6751 12.2919 19.3132 16.6702C15.1108 20.2228 12.5087 25.0859 12.0525 30.2406C11.7419 30.2144 11.4301 30.1935 11.1129 30.1935C4.98545 30.1935 0 35.0849 0 41.0968C0 47.1086 4.98545 52 11.1129 52C14.6905 52 17.8694 50.3259 19.9042 47.7409C23.4951 50.4827 27.92 52 32.4839 52C43.7959 52 53 42.9695 53 31.871C53 26.1098 50.3303 20.618 45.6546 16.6702ZM20.9264 15.9355C20.4598 15.3945 20.0236 14.8343 19.6125 14.2581H45.3561C44.945 14.8343 44.5088 15.3945 44.0421 15.9355H20.9264ZM17.8669 3.79917C18.6929 5.09614 19.7201 6.70968 22.6524 6.70968C25.4732 6.70968 26.912 5.2362 28.1821 3.93514C29.3655 2.72417 30.3868 1.67742 32.4789 1.67742C34.5713 1.67742 35.5948 2.72417 36.7777 3.93514C38.0487 5.2362 39.4883 6.70968 42.312 6.70968C45.2438 6.70968 46.2723 5.09614 47.0984 3.79917C47.7566 2.76758 48.26 1.97596 49.574 1.7454C49.4721 5.57816 48.3769 9.29461 46.4451 12.5798H18.5235C16.5917 9.29461 15.4965 5.57816 15.3946 1.7454C16.7061 1.97596 17.2103 2.76758 17.8669 3.79917ZM11.1129 50.3226C5.92836 50.3226 1.70968 46.1835 1.70968 41.0968C1.70968 36.01 5.92836 31.871 11.1129 31.871C16.2975 31.871 20.5161 36.01 20.5161 41.0968C20.5161 46.1835 16.2975 50.3226 11.1129 50.3226ZM32.4839 50.3226C28.2568 50.3226 24.1605 48.9036 20.8513 46.3403C21.7258 44.7837 22.2258 42.9966 22.2258 41.0968C22.2258 35.9756 18.6048 31.6805 13.7459 30.5154C14.1441 25.5909 16.6865 20.9342 20.8179 17.6129H44.149C48.6916 21.263 51.2903 26.4427 51.2903 31.871C51.2903 42.0452 42.8538 50.3226 32.4839 50.3226Z" fill="#61455F"/>
</g>
</svg>
