<svg  viewBox="0 0 767 496" fill="none" xmlns="http://www.w3.org/2000/svg">
<path d="M385.756 491.285C365.811 491.044 345.886 491.103 325.639 493.31C276.361 498.682 223.195 495.87 175.283 486.104C115.514 473.923 95.0322 431.659 70.3084 393.505C47.9255 358.965 19.1269 325.652 7.83888 287.808C-1.62977 256.076 -7.11364 207.164 19.1108 179.11C36.3679 160.65 64.0803 155.256 92.2248 148.889C121.827 142.197 148.078 136.153 165.039 116.816C182.325 97.1059 163.645 74.8979 178.32 55.2923C219.36 0.479449 343.821 3.49913 414.648 0.31907C452.331 -1.37291 483.095 3.98979 519.263 8.73723C580.844 16.8197 647.711 31.5766 686.376 70.2178C711.711 95.5385 694.253 124.566 707.461 153.261C712.779 164.82 722.862 175.807 731.583 186.433C744.027 201.587 757.3 211.035 762.313 229.095C767.497 247.77 768.387 267.17 764.95 286.063C760.908 308.267 747.957 328.537 737.476 349.813C727.547 369.973 717.657 390.285 701.615 408.096C668.104 445.302 615.265 463.728 562.115 473.593C521.16 481.196 484.185 489.528 441.663 491.231C422.84 491.988 404.292 491.507 385.756 491.285Z" fill="#DDF8CD"/>
<path d="M250.767 257.44C250.767 257.44 252.278 274.486 257.062 282.416C261.847 290.348 281.31 295.837 298.114 305.169C314.918 314.499 261.706 350.893 210.362 343.427C159.017 335.96 160.883 312.633 160.883 312.633L207.237 283.817C207.237 283.817 220.631 271.576 219.696 254.78C218.764 237.982 241.429 248.109 250.767 257.44Z" fill="#ECB49F"/>
<path d="M224.223 270.536C222.405 269.008 220.791 266.967 219.359 264.571L219.346 264.227C219.281 263.048 219.33 261.881 219.483 260.737C222.786 264.577 226.82 267.063 231.739 267.254C232.098 267.266 232.453 267.274 232.803 267.274C241.1 267.274 246.793 263.425 250.755 257.47C249.503 260.982 247.946 264.117 245.999 266.666L224.223 270.536Z" fill="#DA7F63"/>
<path d="M204.785 209.516C204.785 209.516 207.468 266.321 231.739 267.254C256.013 268.188 258.836 237.285 260.423 214.773C262.198 189.572 260.059 181.926 231.739 180.474C204.434 179.074 204.785 209.516 204.785 209.516Z" fill="#ECB49F"/>
<path d="M258.643 203.568C258.805 203.627 258.972 203.688 259.13 203.749C265.686 206.265 267.739 215.866 264.344 222.061C263.977 222.727 261.555 224.803 261.55 225.263C261.534 226.671 264.186 226.515 263.838 228.761C263.338 232.004 262.837 236.27 259.783 235.075C257.425 234.155 255.125 232.686 254.789 230.483C254.09 225.865 257.746 215.103 252.015 215.56C249.074 215.795 230.377 214.986 230.377 214.986C230.377 214.986 227.918 218.034 221.659 221.676C215.399 225.317 211.514 221.874 211.514 221.874C211.514 221.874 209.493 233.317 206.766 233.729C204.831 234.021 202.145 234.333 201.381 232.015C200.549 229.488 201.664 228.461 203.321 226.885C201.883 228.253 200.459 223.98 200.464 223.245C200.48 221.101 204.061 210.001 204.856 208.098C207.191 202.525 209.15 210.508 214.375 208.813C220.122 206.946 225.902 205.433 231.874 204.302C240.119 202.736 250.536 200.695 258.643 203.568Z" fill="#2E3054"/>
<path d="M252.444 268.615C252.234 267.587 252.047 266.58 251.881 265.622L253.391 265.354C253.391 265.354 253.214 266.731 252.444 268.615Z" fill="#CACCB6"/>
<path d="M234.469 279.145C220.315 279.145 217.068 272.465 216.801 271.855L224.223 270.536C226.365 272.338 228.792 273.428 231.541 273.552C231.85 273.565 232.157 273.572 232.457 273.572C238.359 273.572 242.731 270.942 245.999 266.667L251.881 265.622C252.046 266.58 252.234 267.587 252.444 268.616C250.817 272.597 246.549 278.836 235.733 279.129C235.302 279.141 234.881 279.145 234.469 279.145Z" fill="#E29871"/>
<path d="M232.457 273.573C232.157 273.573 231.85 273.565 231.541 273.552C228.792 273.428 226.365 272.338 224.223 270.537L245.999 266.667C242.731 270.943 238.359 273.573 232.457 273.573Z" fill="#D16B47"/>
<path d="M214.63 272.241L215.845 271.999C215.84 272.008 215.835 272.017 215.831 272.027L214.63 272.241Z" fill="#CACCB6"/>
<path d="M215.831 272.026C215.835 272.017 215.84 272.008 215.845 271.998L216.782 271.811C216.782 271.811 216.788 271.825 216.801 271.855L215.831 272.026Z" fill="#E29871"/>
<path d="M235.447 243.686C235.447 243.686 219.138 237.16 208.635 242.06C208.635 242.06 204.434 277.752 231.739 277.752C263.256 277.752 258.416 241.965 258.416 241.965C258.416 241.965 248.749 237.388 235.447 243.686Z" fill="#2E3054"/>
<path d="M223.267 247.449C223.267 247.449 235.005 254.375 247.233 247.12C247.233 247.12 235.812 271.209 223.267 247.449Z" fill="white"/>
<path d="M302.634 313.711C302.634 313.711 338.236 361.926 342.832 394.642C347.999 395.791 378.137 344.252 378.137 344.252L393.364 353.891C393.364 353.891 350.295 437.119 334.79 439.414C322.088 441.295 280.239 375.701 280.239 375.701C280.239 375.701 296.32 314.858 302.634 313.711Z" fill="#ECB49F"/>
<path d="M408.645 342.618C408.371 342.618 408.101 342.498 407.92 342.271C407.623 341.909 407.641 341.385 407.953 341.044L428.082 319.165C428.203 319.032 431.053 316.024 435.814 316.024C437.015 316.024 438.247 316.22 439.47 316.608C439.787 316.708 440.028 316.97 440.102 317.295C440.178 317.619 440.075 317.959 439.83 318.186L422.465 334.539L422.3 334.663L409.127 342.486C408.977 342.575 408.812 342.618 408.645 342.618Z" fill="#E7A588"/>
<path d="M376.72 366.255L409.612 341.832L422.979 328.111L433.912 312.917C433.168 312.633 432.092 312.325 430.901 312.325C428.837 312.325 427.106 313.252 425.76 315.079C421.711 320.577 414.616 327.822 413.981 328.466C413.412 329.177 406.961 335.223 401.09 335.223C399.775 335.223 398.565 334.852 397.506 334.098C394.349 331.855 394.73 327.565 396.07 323.669C396.598 322.135 397.317 322.173 397.462 320.709C397.701 318.233 396.704 315.019 395.654 313.865C394.817 312.943 393.568 312.467 391.94 312.451C391.793 312.807 391.504 313.958 391.797 317.184C392.33 323.058 389.212 329.482 386.017 332.063C385.469 332.502 384.786 332.937 384.067 333.398C380.86 335.446 376.87 337.993 378.137 344.252C378.22 344.659 378.023 345.072 377.656 345.267L376.72 366.255Z" fill="#ECB49F"/>
<path d="M193.411 319.549C196.602 303.348 194.277 282.267 189.996 265.46C187.104 254.093 177.694 224.728 163.091 222.809C146.717 220.659 146.161 253.606 148.555 264.539C152.066 280.585 160.452 293.576 169.846 306.987C178.751 319.693 185.672 333.993 194.487 346.141L193.411 319.549Z" fill="#7CC7B9"/>
<path d="M290.288 364.075C293.743 364.007 297.315 363.934 300.858 363.732C306.831 363.392 311.788 362.728 316.455 361.639L317.911 361.308C323.574 360.035 334.115 357.667 335.995 352.239C336.638 350.38 334.876 345.761 332.143 342.149C330.148 339.51 328.157 338.091 327.136 338.818L326.318 337.669C339.819 328.075 349.48 314.603 353.52 299.74L353.761 298.859C355.462 292.664 356.483 288.926 352.233 283.112C349.926 279.959 347.832 278.482 345.823 278.595C343.083 278.752 340.457 281.847 337.685 285.123C336.735 286.245 335.752 287.406 334.725 288.503C331.526 291.909 328.436 295.529 325.449 299.029C322.274 302.746 318.994 306.589 315.567 310.197C309.82 316.256 304.193 322.863 298.757 329.252C287.155 342.883 275.188 356.94 260.661 367.439C267.867 365.343 274.51 364.715 279.739 364.418C283.272 364.216 286.839 364.145 290.288 364.075ZM255.778 369.086C272.025 358.485 285.068 343.16 297.683 328.34C303.133 321.935 308.769 315.312 314.545 309.227C317.945 305.643 321.214 301.817 324.374 298.113C327.372 294.601 330.475 290.967 333.694 287.536C334.699 286.468 335.669 285.321 336.607 284.214C339.584 280.698 342.397 277.379 345.744 277.188C348.267 277.044 350.763 278.711 353.371 282.281C358.024 288.644 356.807 293.085 355.122 299.229L354.882 300.11C350.943 314.606 341.775 327.798 328.964 337.477C330.685 338.16 332.328 340.055 333.269 341.299C335.932 344.82 338.26 350.012 337.327 352.701C335.19 358.869 324.15 361.351 318.221 362.685L316.775 363.012C312.026 364.121 306.995 364.797 300.939 365.142C297.372 365.343 293.785 365.416 290.317 365.485C286.88 365.554 283.325 365.626 279.819 365.826C273.559 366.181 265.244 367.016 256.412 370.336L250.398 372.595L255.778 369.086Z" fill="#5FA469"/>
<path d="M140.383 365.698C135.593 361.863 130.405 358.236 129.022 351.671C127.104 342.578 132.852 342.289 137.387 335.235C124.861 328.615 113.339 326.774 105.655 312.374C98.0862 298.195 106.74 289.09 121.281 292.299C123.278 292.737 110.648 281.332 108.494 279.383C103.73 275.074 100.2 268.645 98.2722 262.582C94.7785 251.598 97.3801 237.573 111.473 237.641C123.686 237.7 128.38 251.308 132.501 260.922C134.351 265.241 136.425 270.723 137.267 275.487C143.895 270.756 146.88 261.468 155.376 268.79C161.304 273.904 162.284 286.037 158.881 292.65C160.725 292.653 162.411 292.581 163.988 292.508C170.604 292.202 175.259 291.897 181.246 297.275C186.037 301.576 190.642 308.846 193.613 315.181C200.375 329.599 209.79 382.076 210.888 399.078C210.888 399.078 150.415 373.731 140.383 365.698Z" fill="#E7C264"/>
<path d="M132.055 259.872C131.895 259.493 131.734 259.109 131.571 258.721C131.734 259.109 131.896 259.491 132.055 259.869V259.872Z" fill="#E5F7FF"/>
<path d="M152.022 325.492L150.855 323.487L109.796 318.564C109.401 318.086 109.005 317.61 108.624 317.094L150.023 322.059L143.939 311.61L103.416 306.75C103.296 306.287 103.197 305.832 103.117 305.387L143.107 310.181L113.998 260.197L97.2272 258.123C97.1588 257.674 97.1067 257.223 97.0589 256.773L112.994 258.685L113.246 258.905L102.457 240.382C102.806 240.117 103.171 239.87 103.554 239.637L120.334 268.454L125.935 247.104C126.263 247.624 126.578 248.158 126.883 248.699L121.76 270.902L125.922 278.048L131.213 257.876C131.334 258.161 131.453 258.442 131.571 258.722C131.734 259.11 131.895 259.494 132.055 259.873L126.91 279.746L141.088 304.093L151.063 266.272C151.462 266.378 151.877 266.531 152.307 266.729L142.239 306.069L144.748 310.378L144.918 310.399L144.89 310.621L151.665 322.256L153.703 322.5C153.468 322.908 153.231 323.321 152.991 323.745L152.497 323.684L152.765 324.145C152.519 324.584 152.27 325.035 152.022 325.492Z" fill="#EDFAD3"/>
<path d="M256.295 346.814C255.922 328.167 249.628 311.829 257.669 292.923C262.814 280.822 279.189 261.118 293.345 273.995C268.456 259.129 306.822 215.471 329.859 219.368C338.059 236.709 334.064 258.546 320.498 272.925C328.378 270.493 331.879 272.198 334.423 279.725C337.388 288.498 331.053 296.38 327.937 298.766C324.822 301.151 317.236 307.078 311.728 311.661C319.488 313.227 327.909 318.277 324.6 328.161C322.051 335.775 312.054 337.168 306.225 341.368C311.937 341.269 318.105 340.527 323.255 342.603C326.359 361.632 298.893 371.277 285.962 376.488C267.705 383.841 249.13 390.821 230.979 397.428L256.295 346.814Z" fill="#E7C264"/>
<path d="M329.872 219.393C329.869 219.386 329.863 219.376 329.859 219.368C329.863 219.376 329.869 219.386 329.872 219.393Z" fill="#E5F7FF"/>
<path d="M314.07 325.687C313.813 325.225 313.56 324.77 313.311 324.327L325.271 322.889C325.316 323.354 325.323 323.842 325.313 324.335L314.07 325.687ZM291.639 301.821L290.433 301.208L305.115 269.421L295.559 237.327C295.943 236.904 296.345 236.49 296.737 236.076L306.058 267.379L309.962 258.926L301.752 230.909C302.114 230.587 302.487 230.277 302.857 229.964L310.767 258.242L329.164 219.295C329.396 219.325 329.634 219.33 329.859 219.368C329.864 219.376 329.869 219.386 329.872 219.393C329.994 219.652 330.089 219.922 330.206 220.184L295.579 293.484L334.717 287.163C334.553 287.676 334.366 288.18 334.141 288.666L294.857 295.011L291.639 301.821ZM287.416 299.676L285.772 298.84L277.976 270.835C278.391 270.679 278.81 270.541 279.231 270.419L287.416 299.676Z" fill="#EDFAD3"/>
<path d="M285.889 398.175L286.05 412.462C285.737 407.575 285.651 402.75 285.889 398.175ZM373.267 351.019C373.267 351.019 351.445 382.589 342.831 391.773C340.834 377.559 332.984 360.964 324.744 346.734C312.301 320.042 302.765 307.473 302.765 307.473L271.812 291.748C270.1 292.9 268.844 294.081 268.844 294.081C268.844 294.081 260.526 299.016 247.918 301.895C220.369 306.81 198.742 291.945 196.894 290.699L163.438 308.408C163.438 308.408 140.219 334.202 135.668 379.042C133.66 398.805 141.209 470.694 141 473.5C141 473.5 148.5 479 170 485C170 485 174.562 408.786 175.007 406.123C176.298 398.374 177.735 393.351 178.794 393.617C179.856 393.884 180.118 405.209 180.117 416.63L180.313 399.107C181.83 428.351 170 485 170 485C170 485 189.183 490.705 224.5 493C267.5 497.5 301 495.5 301 495.5C301 495.5 287.857 439.23 286.091 413.037C286.13 402.58 286.431 392.928 287.411 392.683C288.694 392.364 293.783 397.98 297.607 402.469C310.862 421.864 328.049 444.515 335.365 443.432C350.87 441.136 390.493 363.648 390.493 363.648L373.267 351.019Z" fill="white"/>
<path d="M223.961 309.119L186.636 316.581C186.636 316.581 186.636 438.841 219.367 475C219.367 475 186.061 383.738 191.23 319.45L231.426 307.971L223.961 309.119Z" fill="#C2DEE9"/>
<path d="M189.219 295.057L220.229 307.112C220.229 307.112 209.892 323.901 208.599 326.052C207.308 328.205 228.841 314.859 228.841 314.859L233.579 302.806L189.219 295.057Z" fill="#C2DEE9"/>
<path d="M275.356 293.334L244.346 305.389C244.346 305.389 253.391 313.567 253.391 319.595C253.391 322.105 235.733 313.137 235.733 313.137L230.996 301.083L275.356 293.334Z" fill="#C2DEE9"/>
<path d="M208.685 278.044L236.595 300.223L234.01 306.25C234.01 306.25 226.257 337.245 198.693 348.438C198.693 348.438 209.031 313.137 226.257 305.39C226.257 305.39 191.803 295.057 189.219 295.057C186.636 295.057 203.444 277.136 208.685 278.044Z" fill="#D43E3A"/>
<path d="M256.021 279.145C256.021 279.145 240.471 296.474 224.371 289.873C208.272 283.271 231.137 305.39 231.137 305.39C231.137 305.39 238.888 336.384 266.452 347.577C266.452 347.577 256.117 312.277 238.888 304.528C238.888 304.528 273.344 294.196 275.928 294.196C278.513 294.196 261.259 278.237 256.021 279.145Z" fill="#D43E3A"/>
<path d="M238.209 299.792C238.209 302.646 235.895 304.959 233.041 304.959C230.186 304.959 227.872 302.646 227.872 299.792C227.872 299.792 230.186 293.766 233.041 293.766C235.895 293.766 238.209 296.08 238.209 298.932V299.792Z" fill="#DE6264"/>
<path d="M462.465 309.756C462.465 314.207 438.457 319.451 408.869 319.451C379.28 319.451 355.314 314.207 355.314 309.756C355.314 305.309 379.301 301.701 408.891 301.701C438.479 301.701 462.465 305.309 462.465 309.756Z" fill="#727F9C"/>
<path d="M454.416 305.762C454.357 280.899 434.201 260.786 409.343 260.786C384.484 260.786 364.326 280.899 364.266 305.732C364.601 309.592 384.648 312.621 409.343 312.621C434.036 312.621 454.084 309.592 454.401 305.84L454.416 305.762Z" fill="#596A83"/>
<path d="M415.434 257.18C415.434 259.998 413.149 262.284 410.328 262.284C407.503 262.284 405.218 259.998 405.218 257.18C405.218 254.36 407.503 252.073 410.328 252.073C413.149 252.073 415.434 254.36 415.434 257.18Z" fill="#596A83"/>
<path d="M387.182 307.343C387.182 307.343 378.772 306.742 372.76 305.541C373.361 292.323 377.568 269.494 405.82 265.291C405.82 265.291 387.782 275.503 387.182 307.343Z" fill="#ACB5C1"/>
<path d="M263.011 205.544C263.011 205.544 233.716 216.384 205.01 207.17L205.598 193.08C205.598 193.08 245.435 200.125 261.253 191.453L263.011 205.544Z" fill="#C2DEE9"/>
<path d="M205.012 195.471C205.012 195.471 184.336 193.173 191.803 177.102C199.269 161.031 209.606 172.51 209.606 172.51C209.606 172.51 214.212 146.926 235.447 147.828C262.436 148.977 256.119 181.121 256.119 181.121C256.119 181.121 274.494 167.92 273.923 186.287C273.456 201.301 257.844 205.803 235.447 198.914C235.447 198.914 219.369 192.027 205.012 195.471Z" fill="white"/>
<path d="M205.452 193.135L205.01 207.169C221.233 212.377 243.068 213.18 259.947 206.806C260.988 206.413 262.011 205.994 263.011 205.544L263.053 200.608L261.287 204.368L237.168 205.803C205.585 204.941 207.278 196.949 205.452 193.135Z" fill="white"/>
<path d="M203.289 329.783C203.289 331.368 202.003 332.652 200.416 332.652C198.831 332.652 197.545 331.368 197.545 329.783C197.545 328.198 198.831 326.914 200.416 326.914C202.003 326.914 203.289 328.198 203.289 329.783Z" fill="#C2DEE9"/>
<path d="M205.012 355.614C205.012 357.197 203.727 358.483 202.139 358.483C200.554 358.483 199.268 357.197 199.268 355.614C199.268 354.028 200.554 352.742 202.139 352.742C203.727 352.742 205.012 354.028 205.012 355.614Z" fill="#C2DEE9"/>
<path d="M207.885 384.312C207.885 385.897 206.598 387.181 205.012 387.181C203.426 387.181 202.141 385.897 202.141 384.312C202.141 382.726 203.426 381.441 205.012 381.441C206.598 381.441 207.885 382.726 207.885 384.312Z" fill="#C2DEE9"/>
<path d="M211.902 411.289C211.902 412.873 210.617 414.159 209.031 414.159C207.445 414.159 206.16 412.873 206.16 411.289C206.16 409.703 207.445 408.419 209.031 408.419C210.617 408.419 211.902 409.703 211.902 411.289Z" fill="#C2DEE9"/>
<path d="M287.415 352.742V392.684C288.705 392.377 293.788 397.985 297.607 402.469C298.039 403.104 298.479 403.74 298.919 404.38C293.607 379.833 287.415 352.742 287.415 352.742Z" fill="#C2DEE9"/>
<path d="M335.365 443.432C335.379 443.429 335.393 443.428 335.407 443.426C335.393 443.428 335.379 443.429 335.365 443.432ZM335.414 443.425C335.442 443.42 335.472 443.416 335.501 443.41C335.471 443.416 335.442 443.42 335.414 443.425ZM335.502 443.41C337.84 443.001 340.712 440.925 343.905 437.688C340.712 440.923 337.84 443.001 335.502 443.41ZM343.908 437.685C343.926 437.666 343.944 437.647 343.963 437.628C343.944 437.647 343.926 437.666 343.908 437.685ZM343.97 437.621C343.989 437.603 344.006 437.584 344.026 437.566C344.008 437.584 343.989 437.603 343.97 437.621ZM344.043 437.547C344.056 437.534 344.067 437.522 344.081 437.509C344.068 437.522 344.056 437.534 344.043 437.547ZM344.102 437.487C344.118 437.471 344.132 437.456 344.148 437.439C344.134 437.455 344.118 437.471 344.102 437.487ZM344.18 437.408C344.184 437.401 344.192 437.395 344.197 437.39C344.191 437.395 344.186 437.401 344.18 437.408ZM344.311 437.271C344.314 437.27 344.316 437.266 344.319 437.263C344.316 437.266 344.313 437.27 344.311 437.271Z" fill="#D3F2FF"/>
<path d="M334.842 443.47C329.956 443.47 321.282 434.314 312.269 422.733C314.799 420.722 323.699 414.387 335.422 414.387C341.81 414.387 349.037 416.27 356.526 421.759C352.256 427.934 348.075 433.372 344.319 437.263C344.316 437.266 344.314 437.269 344.311 437.271C344.273 437.311 344.235 437.35 344.197 437.39C344.192 437.395 344.184 437.401 344.179 437.408C344.168 437.419 344.158 437.428 344.148 437.439C344.132 437.456 344.118 437.471 344.101 437.487C344.095 437.495 344.088 437.503 344.081 437.509C344.067 437.522 344.055 437.534 344.043 437.547C344.036 437.553 344.032 437.56 344.025 437.566C344.006 437.584 343.989 437.603 343.97 437.621C343.968 437.623 343.965 437.627 343.963 437.628C343.944 437.647 343.925 437.666 343.908 437.685C343.906 437.687 343.905 437.687 343.905 437.688C340.712 440.925 337.84 443.001 335.502 443.41H335.501C335.472 443.415 335.442 443.42 335.414 443.425C335.412 443.425 335.409 443.425 335.407 443.426C335.393 443.428 335.379 443.429 335.364 443.432C335.197 443.458 335.021 443.47 334.842 443.47Z" fill="#EDFAFF"/>
<path d="M361.063 367.809L381.399 380.663C386.328 371.717 389.751 365.09 390.386 363.859C384.186 361.478 376.827 356.094 372.268 352.457C370.287 355.302 366.311 360.574 361.063 367.809Z" fill="#C2DEE9"/>
<path d="M370.969 346.285C370.969 346.285 386.474 360.061 396.378 362.213L386.903 379.433L361.493 365.656L370.969 346.285Z" fill="white"/>
<path d="M408.437 257.174C407.605 257.174 406.93 256.498 406.93 255.666C406.93 254.835 407.605 254.16 408.437 254.16C409.271 254.16 409.946 254.835 409.946 255.666C409.946 256.498 409.271 257.174 408.437 257.174Z" fill="#ACB5C1"/>
<path d="M401.968 316.529C388.594 316.529 373.297 315.023 361.063 309.692C361.063 309.692 387.249 315.04 414.346 315.04C420.765 315.04 427.231 314.74 433.417 313.998C433.417 313.998 419.309 316.529 401.968 316.529Z" fill="#B9BFCE"/>
<path d="M226.257 305.39C226.257 305.39 209.031 324.33 212.907 326.914C216.783 329.497 226.257 305.39 226.257 305.39Z" fill="#DE6264"/>
<path d="M235.733 306.249C235.733 306.249 251.668 319.595 247.792 323.038C243.916 326.482 235.733 306.249 235.733 306.249Z" fill="#DE6264"/>
<path d="M469.267 228.852C469.267 244.169 456.842 256.586 441.52 256.586C426.196 256.586 413.772 244.169 413.772 228.852C413.772 213.535 426.196 201.118 441.52 201.118C456.842 201.118 469.267 213.535 469.267 228.852Z" fill="#FFD13D"/>
<path d="M435.588 225.041C434.54 225.041 433.683 224.182 433.683 223.135V216.784C433.683 215.736 434.54 214.879 435.588 214.879C436.639 214.879 437.496 215.736 437.496 216.784V223.135C437.496 224.182 436.639 225.041 435.588 225.041Z" fill="white"/>
<path d="M440.672 217.419C440.089 217.419 439.611 216.943 439.611 216.36V208.103C439.611 207.522 440.089 207.045 440.672 207.045C441.255 207.045 441.731 207.522 441.731 208.103V216.36C441.731 216.943 441.255 217.419 440.672 217.419Z" fill="white"/>
<path d="M449.78 224.616C449.082 224.616 448.509 224.045 448.509 223.347V217.419C448.509 216.72 449.082 216.149 449.78 216.149C450.479 216.149 451.051 216.72 451.051 217.419V223.347C451.051 224.045 450.479 224.616 449.78 224.616Z" fill="white"/>
<path d="M460.688 226.947C460.688 237.657 452.105 246.34 441.52 246.34C430.933 246.34 422.351 237.657 422.351 226.947H460.688Z" fill="#C2DEE9"/>
<path d="M452.207 226.947H422.351C422.351 233.16 425.242 238.685 429.732 242.236C431.527 242.891 433.464 243.248 435.482 243.248C444.581 243.248 451.979 235.987 452.207 226.947Z" fill="white"/>
<path d="M436.648 248.329H446.39V244.517H436.648V248.329Z" fill="#C2DEE9"/>
<path d="M402.048 203.365C402.048 219.164 389.231 231.973 373.427 231.973C357.62 231.973 344.804 219.164 344.804 203.365C344.804 187.565 357.62 174.756 373.427 174.756C389.231 174.756 402.048 187.565 402.048 203.365Z" fill="#95DEE6"/>
<path d="M380.114 200.41L385.043 197.254C385.151 197.624 385.305 197.989 385.521 198.331C386.769 200.28 389.365 200.846 391.317 199.598C393.267 198.349 393.837 195.757 392.585 193.806C391.577 192.233 389.688 191.561 387.975 192.018C389.106 190.651 389.284 188.657 388.276 187.083C387.028 185.134 384.434 184.566 382.482 185.815C380.532 187.064 379.963 189.656 381.211 191.607C381.432 191.946 381.698 192.239 381.989 192.492L377.06 195.649L380.114 200.41Z" fill="#F0F0F0"/>
<path d="M377.977 195.419C373.205 193.291 363.623 193.745 358.875 196.786C353.053 200.511 351.23 208.049 354.803 213.618C358.37 219.188 365.984 220.682 371.801 216.955C376.552 213.914 380.968 205.403 381.027 200.181L377.977 195.419Z" fill="#C47A31"/>
<path d="M358.875 196.786C353.771 200.053 351.74 206.251 353.727 211.484C355.813 212.989 358.376 213.876 361.149 213.876C368.172 213.876 373.865 208.186 373.865 201.165C373.865 198.567 373.082 196.153 371.747 194.14C367.19 193.909 361.991 194.789 358.875 196.786Z" fill="#DA9922"/>
<path d="M383.601 190.286C382.399 190.286 381.424 189.313 381.424 188.11C381.424 186.909 382.399 185.937 383.601 185.937C384.805 185.937 385.779 186.909 385.779 188.11C385.779 189.313 384.805 190.286 383.601 190.286Z" fill="white"/>
<path d="M450.414 140.604C462.3 140.604 471.936 150.235 471.936 162.116C471.936 173.998 462.3 183.631 450.414 183.631C438.528 183.631 428.892 173.998 428.892 162.116C428.892 150.235 438.528 140.604 450.414 140.604Z" fill="#D43E3A"/>
<path d="M449.948 179.835L445.849 170.632L441.748 161.431H458.147L454.047 170.632L449.948 179.835Z" fill="#FFBF44"/>
<path d="M456.005 161.431H441.748L442.488 163.094L452.81 173.41L454.047 170.632L457.488 162.91L456.005 161.431Z" fill="#F39A21"/>
<path d="M452.129 174.939C451.843 174.852 451.558 174.764 451.28 174.672C451.702 174.485 452.11 174.291 452.504 174.094L453.277 172.358C452.201 172.972 450.998 173.558 449.656 174.086C448.626 173.68 447.678 173.24 446.803 172.778L447.548 174.45C447.708 174.525 447.871 174.599 448.032 174.672L447.695 174.78L448.173 175.853C448.683 175.688 449.178 175.516 449.656 175.336C450.29 175.575 450.957 175.801 451.65 176.011L452.129 174.939Z" fill="white"/>
<path d="M449.656 163.482C450.76 164.272 452.032 165.053 453.495 165.774C452.432 166.645 451.163 167.532 449.656 168.359C448.148 167.532 446.879 166.645 445.817 165.774C447.279 165.053 448.551 164.272 449.656 163.482ZM443.702 165.453L443.563 165.507L444.04 166.575C444.246 166.488 444.451 166.404 444.649 166.315C445.691 167.212 446.94 168.131 448.418 168.997C447.562 169.414 446.635 169.807 445.641 170.169L445.849 170.632L446.117 171.238C447.408 170.764 448.585 170.238 449.656 169.682C450.863 170.31 452.207 170.897 453.696 171.418L454.048 170.632L454.174 170.346C452.986 169.937 451.892 169.481 450.892 168.997C452.374 168.131 453.62 167.212 454.66 166.315C455.019 166.472 455.388 166.624 455.767 166.774L456.242 165.706C456.031 165.622 455.817 165.539 455.611 165.453C455.911 165.164 456.19 164.882 456.447 164.605C456.642 164.396 456.831 164.19 457.009 163.985L458.147 161.431H457.517C456.996 162.185 456.35 163.01 455.55 163.858C455.219 164.207 454.854 164.571 454.455 164.939C452.999 164.254 451.732 163.507 450.633 162.744C451.192 162.303 451.697 161.863 452.156 161.431H450.401C450.162 161.629 449.914 161.83 449.656 162.028C449.397 161.83 449.148 161.629 448.912 161.431H447.155C447.615 161.863 448.119 162.303 448.677 162.744C447.58 163.507 446.314 164.254 444.857 164.939C444.456 164.571 444.091 164.207 443.76 163.858C442.963 163.01 442.315 162.185 441.794 161.431L443.413 165.169L443.702 165.453Z" fill="white"/>
<path d="M452.81 173.41L453.082 172.798L453.277 172.358C452.961 172.539 452.629 172.717 452.291 172.891L452.81 173.41Z" fill="#DFE0CF"/>
<path d="M445.817 165.774C447.279 165.053 448.551 164.272 449.656 163.482C450.76 164.272 452.032 165.053 453.495 165.774C452.433 166.645 451.163 167.532 449.656 168.359C448.148 167.532 446.879 166.645 445.817 165.774ZM450.892 168.997C452.374 168.131 453.62 167.212 454.66 166.315C455.019 166.472 455.388 166.624 455.767 166.774L456.242 165.706C456.031 165.622 455.817 165.539 455.611 165.453C455.911 165.164 456.19 164.882 456.447 164.605C456.642 164.396 456.831 164.19 457.009 163.985L457.488 162.91L456.879 162.303C456.491 162.804 456.052 163.326 455.55 163.858C455.219 164.207 454.854 164.571 454.455 164.939C452.999 164.254 451.732 163.507 450.633 162.744C451.192 162.303 451.697 161.863 452.156 161.431H450.401C450.162 161.629 449.914 161.83 449.656 162.028C449.397 161.83 449.148 161.629 448.912 161.431H447.155C447.615 161.863 448.119 162.303 448.677 162.744C447.58 163.507 446.314 164.254 444.857 164.939C444.456 164.571 444.091 164.207 443.76 163.858C442.963 163.01 442.315 162.185 441.794 161.431L442.488 163.094L448.361 168.963L449.271 169.875L449.656 169.682C450.863 170.31 452.207 170.897 453.696 171.418L454.048 170.632L454.174 170.346C452.986 169.937 451.892 169.481 450.892 168.997Z" fill="#DFE0CF"/>
<path d="M461.667 157.592C461.723 157.144 461.752 156.687 461.752 156.222C461.752 149.964 456.675 144.887 450.414 144.887C444.394 144.887 439.471 149.581 439.101 155.506C438.93 156.228 438.825 156.979 438.801 157.75C437.66 158.338 436.878 159.525 436.878 160.896C436.878 162.853 438.464 164.439 440.421 164.439C441.955 164.439 443.262 163.461 443.752 162.095C444.245 163.461 445.548 164.439 447.083 164.439C448.618 164.439 449.921 163.461 450.414 162.095C450.906 163.461 452.208 164.439 453.745 164.439C455.279 164.439 456.583 163.461 457.075 162.095C457.566 163.461 458.872 164.439 460.407 164.439C462.364 164.439 463.95 162.853 463.95 160.896C463.95 159.386 462.999 158.101 461.667 157.592Z" fill="white"/>
<path d="M447.108 148.305C447.108 148.841 446.671 149.276 446.134 149.276C445.596 149.276 445.164 148.841 445.164 148.305C445.164 147.767 445.596 147.332 446.134 147.332C446.671 147.332 447.108 147.767 447.108 148.305Z" fill="#F55557"/>
<path d="M452.243 151.336C452.243 151.872 451.807 152.309 451.268 152.309C450.732 152.309 450.296 151.872 450.296 151.336C450.296 150.799 450.732 150.365 451.268 150.365C451.807 150.365 452.243 150.799 452.243 151.336Z" fill="#F55557"/>
<path d="M456.442 148.072C456.442 148.608 456.008 149.043 455.468 149.043C454.934 149.043 454.498 148.608 454.498 148.072C454.498 147.534 454.934 147.1 455.468 147.1C456.008 147.1 456.442 147.534 456.442 148.072Z" fill="#F55557"/>
<path d="M443.259 150.462C443.259 150.987 442.83 151.414 442.304 151.414C441.777 151.414 441.351 150.987 441.351 150.462C441.351 149.936 441.777 149.509 442.304 149.509C442.83 149.509 443.259 149.936 443.259 150.462Z" fill="#F55557"/>
<path d="M451.484 146.672C451.484 147.199 451.057 147.624 450.53 147.624C450.004 147.624 449.577 147.199 449.577 146.672C449.577 146.144 450.004 145.719 450.53 145.719C451.057 145.719 451.484 146.144 451.484 146.672Z" fill="#F55557"/>
<path d="M457.552 152.036C457.552 152.561 457.123 152.988 456.597 152.988C456.071 152.988 455.646 152.561 455.646 152.036C455.646 151.511 456.071 151.084 456.597 151.084C457.123 151.084 457.552 151.511 457.552 152.036Z" fill="#F55557"/>
<path d="M447.634 152.621C447.634 153.146 447.206 153.573 446.679 153.573C446.153 153.573 445.726 153.146 445.726 152.621C445.726 152.094 446.153 151.667 446.679 151.667C447.206 151.667 447.634 152.094 447.634 152.621Z" fill="#F55557"/>
<path d="M346.12 143.749C346.12 159.218 333.573 171.76 318.097 171.76C302.618 171.76 290.075 159.218 290.075 143.749C290.075 128.279 302.618 115.739 318.097 115.739C333.573 115.739 346.12 128.279 346.12 143.749Z" fill="white"/>
<path d="M325.664 135.354H303.848L307.14 155.396C307.319 156.477 307.872 157.429 308.546 157.945C308.887 158.21 317.965 161.475 317.965 161.475C317.965 161.475 327.458 158.199 327.809 157.92C328.467 157.396 329.005 156.46 329.181 155.396L332.473 135.354H325.664Z" fill="#596A83"/>
<path d="M317.965 161.475C317.965 161.475 308.886 158.21 308.546 157.945C307.872 157.429 307.319 156.477 307.14 155.396L304.689 140.477L311.094 143.332C311.761 143.629 312.68 143.782 313.569 143.784C314.23 143.784 314.875 143.698 315.386 143.522L317.965 142.638V161.475ZM317.965 161.475C317.965 161.475 327.288 158.147 327.702 157.785C328.322 157.246 328.816 156.376 328.988 155.396L331.561 140.597L331.615 140.573L329.181 155.396C329.005 156.46 328.466 157.396 327.808 157.92C327.458 158.199 317.965 161.475 317.965 161.475ZM317.965 140.178L305.704 135.354H330.813H317.965V140.178Z" fill="#ACB5C1"/>
<path d="M317.965 135.354V161.475C317.965 161.475 327.288 158.147 327.703 157.785C328.322 157.246 328.816 156.376 328.988 155.396L332.473 135.354H317.965Z" fill="#596A83"/>
<path d="M304.334 134.814L299.538 136.459C298.337 136.872 298.304 137.63 299.462 138.147L311.094 143.332C312.256 143.849 314.186 143.935 315.386 143.522L321.308 141.492L304.334 134.814Z" fill="#596A83"/>
<path d="M332.184 134.814L336.978 136.459C338.182 136.872 338.213 137.63 337.054 138.147L325.425 143.332C324.263 143.849 322.332 143.935 321.132 143.522L315.212 141.492L332.184 134.814Z" fill="#596A83"/>
<path d="M322.948 143.784C322.288 143.784 321.645 143.698 321.132 143.522L318.259 142.538L315.212 141.492L332.184 134.814L336.978 136.459C337.59 136.668 337.897 136.967 337.902 137.278C337.907 137.579 337.625 137.894 337.054 138.147L325.426 143.332C324.759 143.629 323.837 143.784 322.948 143.784Z" fill="#ACB5C1"/>
<path d="M320.234 140.664C319.091 141.113 317.226 141.113 316.088 140.664L304.656 136.166C303.518 135.718 303.518 134.983 304.656 134.535L316.088 130.037C317.226 129.588 319.091 129.588 320.234 130.037L331.665 134.535C332.803 134.983 332.803 135.718 331.665 136.166L320.234 140.664Z" fill="#885493"/>
<path d="M320.234 140.664C319.091 141.113 317.226 141.113 316.088 140.664L304.656 136.166C303.518 135.718 303.518 134.983 304.656 134.535L316.088 130.037C317.226 129.588 319.091 129.588 320.234 130.037L331.665 134.535C332.803 134.983 332.803 135.718 331.665 136.166L320.234 140.664Z" fill="#596A83"/>
<path d="M318.655 136.632C318.914 136.924 319.153 137.239 319.367 137.567C319.098 137.891 318.857 138.243 318.655 138.615C318.45 138.243 318.211 137.891 317.939 137.567C318.156 137.239 318.394 136.924 318.655 136.632ZM306.75 136.989C308.172 135.184 310.378 134.021 312.852 134.021C314.564 134.021 316.143 134.578 317.427 135.518C317.172 135.805 316.933 136.107 316.714 136.423C315.628 135.639 314.292 135.173 312.852 135.173C310.87 135.173 309.09 136.05 307.875 137.434L309.553 138.093C310.428 137.308 311.585 136.83 312.852 136.83C313.992 136.83 315.046 137.221 315.887 137.872C315.742 138.188 315.615 138.512 315.505 138.843C314.8 138.208 313.871 137.818 312.852 137.818C312.023 137.818 311.254 138.074 310.614 138.51L313.108 139.491C313.525 139.537 313.913 139.694 314.233 139.934L316.088 140.664C316.286 140.745 316.51 140.806 316.747 140.857C316.814 140.305 316.938 139.772 317.112 139.26C317.425 139.781 317.639 140.367 317.743 140.988C318.37 141.024 319.021 140.979 319.591 140.854C319.699 140.281 319.909 139.745 320.196 139.26C320.338 139.677 320.449 140.108 320.52 140.551L326.302 138.275C325.751 137.986 325.124 137.818 324.457 137.818C323.437 137.818 322.509 138.208 321.803 138.843C321.695 138.512 321.567 138.188 321.424 137.872C322.262 137.221 323.315 136.83 324.457 136.83C325.573 136.83 326.608 137.203 327.437 137.829L329.167 137.148C327.968 135.93 326.298 135.173 324.457 135.173C323.017 135.173 321.684 135.639 320.596 136.423C320.374 136.107 320.138 135.805 319.879 135.518C321.167 134.578 322.748 134.021 324.457 134.021C326.794 134.021 328.888 135.059 330.316 136.695L331.665 136.166L331.923 136.047C331.05 134.911 329.923 133.98 328.623 133.339L327.153 132.759C326.298 132.504 325.395 132.364 324.457 132.364C322.268 132.364 320.256 133.115 318.655 134.37C317.054 133.115 315.038 132.364 312.852 132.364C309.674 132.364 306.859 133.945 305.15 136.361L306.75 136.989Z" fill="white"/>
<path d="M326.072 124.07C326.418 123.133 327.537 122.682 328.571 123.061C329.606 123.441 330.167 124.51 329.823 125.446L324.309 138.622L321.114 139.645L326.072 124.07Z" fill="#FFD13D"/>
<path d="M324.457 135.173C323.493 135.173 322.581 135.386 321.752 135.759L321.424 137.871C322.262 137.221 323.315 136.83 324.457 136.83C324.904 136.83 325.337 136.892 325.749 137.004L326.402 135.465C325.786 135.276 325.135 135.173 324.457 135.173Z" fill="white"/>
<path d="M319.897 137.552V139.857C319.985 139.651 320.082 139.451 320.196 139.26C320.338 139.677 320.449 140.108 320.52 140.551L326.302 138.275C325.751 137.986 325.124 137.818 324.457 137.818C323.437 137.818 322.509 138.208 321.803 138.843C321.695 138.511 321.567 138.188 321.424 137.872C321.571 137.756 321.732 137.651 321.895 137.552H319.897Z" fill="white"/>
<path d="M315.972 139.646L311.794 123.229C311.505 122.274 310.414 121.756 309.36 122.075C308.302 122.394 307.682 123.427 307.969 124.383L312.891 138.414L315.972 139.646Z" fill="#FFD13D"/>
<path d="M316.332 138.176L315.802 138.072C315.692 138.322 315.591 138.58 315.505 138.843C314.8 138.208 313.871 137.818 312.851 137.818C312.669 137.818 312.491 137.832 312.319 137.856L312.074 139.084L313.107 139.491C313.525 139.537 313.913 139.694 314.233 139.934L315.853 140.572L316.332 138.176Z" fill="white"/>
<path d="M426.274 130.478C426.274 149.593 410.772 165.089 391.648 165.089C372.522 165.089 357.018 149.593 357.018 130.478C357.018 111.363 372.522 95.8665 391.648 95.8665C410.772 95.8665 426.274 111.363 426.274 130.478Z" fill="white"/>
<path d="M405.752 104.95L395.087 128.277L419.949 119.547C419.949 119.547 415.082 105.355 405.752 104.95Z" fill="#FFD13D"/>
<path d="M404.718 107.21L403.982 108.818C409.831 110.891 413.482 118.199 414.818 121.348L417.068 120.558C415.823 117.5 411.648 108.612 404.718 107.21Z" fill="#FFBF44"/>
<path d="M389.72 132.404L399.769 110.425C396.742 109.041 393.386 108.25 389.841 108.25C376.617 108.25 365.898 118.966 365.898 132.183C365.898 145.4 376.617 156.116 389.841 156.116C403.064 156.116 413.784 145.4 413.784 132.183C413.784 129.459 413.306 126.853 412.468 124.415L389.72 132.404Z" fill="#FFD13D"/>
<path d="M409.777 125.36L407.829 126.043C408.469 127.906 408.83 129.897 408.83 131.976C408.83 142.117 400.605 150.338 390.459 150.338C380.314 150.338 372.089 142.117 372.089 131.976C372.089 121.835 380.314 113.615 390.459 113.615C393.008 113.615 395.436 114.135 397.644 115.073L398.499 113.199C396.032 112.14 393.316 111.551 390.459 111.551C379.174 111.551 370.027 120.695 370.027 131.976C370.027 143.256 379.174 152.401 390.459 152.401C401.745 152.401 410.894 143.256 410.894 131.976C410.894 129.657 410.489 127.437 409.777 125.36Z" fill="#FFBF44"/>
<path d="M390.253 141.261C390.253 143.54 388.406 145.386 386.124 145.386C383.846 145.386 381.997 143.54 381.997 141.261C381.997 138.981 383.846 137.135 386.124 137.135C388.406 137.135 390.253 138.981 390.253 141.261Z" fill="#D43E3A"/>
<path d="M405.417 117.58C405.417 117.58 406.109 123.592 400.646 122.048C400.646 122.048 400.21 117.202 405.417 117.58Z" fill="#5FA469"/>
<path d="M409.657 116.71C409.657 118.42 408.269 119.804 406.559 119.804C404.85 119.804 403.462 118.42 403.462 116.71C403.462 115.001 404.85 113.615 406.559 113.615C408.269 113.615 409.657 115.001 409.657 116.71Z" fill="#D43E3A"/>
<path d="M381.997 127.645C381.997 128.783 381.073 129.707 379.933 129.707C378.793 129.707 377.868 128.783 377.868 127.645C377.868 126.504 378.793 125.581 379.933 125.581C381.073 125.581 381.997 126.504 381.997 127.645Z" fill="#D43E3A"/>
<path d="M405.528 134.452C405.528 136.161 404.14 137.546 402.432 137.546C400.723 137.546 399.336 136.161 399.336 134.452C399.336 132.743 400.723 131.358 402.432 131.358C404.14 131.358 405.528 132.743 405.528 134.452Z" fill="#D43E3A"/>
<path d="M390.352 125.878C388.867 125.834 387.574 125.515 386.399 125.176L385.993 125.059L385.905 124.645C385.767 124 385.769 123.397 385.91 122.85L386.01 122.47L386.384 122.353C387.708 121.939 388.635 121.021 388.748 120.07C388.508 119.985 388.268 119.894 388.027 119.805C387.188 119.493 386.323 119.17 385.494 118.94L385.869 117.578C386.761 117.825 387.655 118.159 388.522 118.482C388.911 118.628 389.299 118.772 389.68 118.905L390.085 119.048L390.144 119.477C390.37 121.16 389.184 122.786 387.221 123.556L387.225 123.94C388.192 124.205 389.24 124.432 390.394 124.466L390.352 125.878Z" fill="#FFA132"/>
<path d="M390.666 118.565C390.666 120.275 389.28 121.66 387.57 121.66C385.861 121.66 384.475 120.275 384.475 118.565C384.475 116.856 385.861 115.472 387.57 115.472C389.28 115.472 390.666 116.856 390.666 118.565Z" fill="#D43E3A"/>
<path d="M395.243 145.975C394.684 145.975 394.147 145.906 393.601 145.646L392.952 145.338L393.394 144.771C393.715 144.362 394.35 143.906 395.089 143.378C395.871 142.817 397.704 141.503 397.475 141.024C397.123 140.297 395.32 140.802 394.007 141.171C393.316 141.365 392.659 141.549 392.132 141.6L392.019 140.457C392.446 140.416 393.054 140.245 393.698 140.063C395.498 139.559 397.739 138.93 398.509 140.523C399.16 141.875 397.355 143.17 395.757 144.312C395.518 144.484 395.276 144.657 395.057 144.822C395.301 144.833 395.566 144.819 395.859 144.803L395.927 145.949C395.695 145.963 395.466 145.975 395.243 145.975Z" fill="#FFA132"/>
<path d="M377.176 136.988L375.731 136.188C376.123 135.482 376.692 134.874 377.241 134.285C377.471 134.039 377.699 133.796 377.903 133.552L378.262 133.125L378.793 133.299C379.104 133.401 379.555 133.44 380.029 133.48C380.555 133.526 381.134 133.576 381.675 133.729C382.635 132.517 383.83 131.106 385.308 129.432L386.547 130.526C384.89 132.397 383.6 133.934 382.602 135.221L382.183 135.764L381.572 135.45C381.156 135.236 380.511 135.18 379.887 135.126C379.533 135.096 379.171 135.064 378.828 135.001L378.45 135.41C377.968 135.926 377.471 136.459 377.176 136.988Z" fill="#FFA132"/>
<path d="M392.111 134.247C392.111 134.247 394.587 130.326 396.858 134.04C396.858 134.04 394.793 137.135 392.111 134.247Z" fill="#5FA469"/>
<path d="M376.835 118.723C376.835 118.723 382.322 117.503 383.517 122.601C383.517 122.601 379.03 123.473 376.835 118.723Z" fill="#5FA469"/>
<path d="M381.025 137.765C381.025 137.765 381.273 143.813 375.939 141.868C375.939 141.868 375.863 137.002 381.025 137.765Z" fill="#5FA469"/>
</svg>
