<svg viewBox="0 0 237 244" fill="none" xmlns="http://www.w3.org/2000/svg">
<path d="M46.7522 10.553C16.5159 22.2637 2.25181 49.2409 0.665427 81.3522C0.0757247 93.3032 4.10121 104.783 12.1665 113.536C19.6969 121.709 27.2648 124.273 29.72 135.676C34.122 156.122 13.3173 175.272 27.9519 194.325C38.1637 207.62 49.7275 221.199 65.6928 224.173C73.6506 225.655 86.7906 225.211 98.5228 224.803C107.715 224.486 122.605 222.84 131.983 226.068C145.084 230.577 156.882 236.714 170.636 238.887C183.355 240.895 203.332 247.822 214.536 238.236C223.405 230.647 224.334 218.971 222.474 208.392C220.18 195.344 220.587 181.816 216.664 168.748C211.85 152.712 226.993 141.619 232.525 126.997C236.056 117.666 237.325 106.322 236.79 95.8709C236.244 85.2036 236.136 74.4615 231.002 65.0442C226.906 57.5285 219.816 48.7726 214.204 41.9982C205.577 31.5836 194.725 23.3363 182.846 16.974C168.829 9.46384 155.92 1.50564 140.192 1.07191C107.638 0.174429 57.4402 6.41249 46.7522 10.553Z" fill="white"/>
<path d="M77.0238 133.235C69.3545 123.944 64.7448 112.027 64.7448 99.0346C64.7448 83.2263 71.5665 69.013 82.4234 59.1832V64.4646C73.8215 73.4362 68.534 85.6181 68.534 99.0346C68.534 110.339 72.2864 120.766 78.6139 129.135C78.1239 130.588 77.5909 131.956 77.0238 133.235ZM164.017 127.362C163.377 127.179 162.791 127.031 162.273 126.911C161.669 126.512 161.078 126.154 160.5 125.834C165.43 118.092 168.287 108.898 168.287 99.0346C168.287 87.4925 164.374 76.8645 157.804 68.4079C158.393 66.7598 158.826 65.2416 159.037 63.9339C167.161 73.349 172.076 85.6181 172.076 99.0346C172.076 109.431 169.125 119.137 164.017 127.362ZM79.2807 127.012C73.6448 119.128 70.3285 109.469 70.3285 99.0346C70.3285 86.7867 74.8971 75.6086 82.4234 67.1137V87.1632C81.1946 90.8977 80.5302 94.8881 80.5302 99.0346C80.5302 103.181 81.1946 107.172 82.4234 110.907V111.071C82.0257 112.304 81.6588 113.994 81.3949 116.315C80.9519 120.207 80.221 123.789 79.2807 127.012ZM158.892 125.017C155.533 123.468 152.794 123.171 151.2 123.168C150.482 122.631 149.787 122.154 149.116 121.731C152.227 118.353 155.279 113.545 156.828 109.031C157.777 106.264 157.284 103.826 156.192 101.799C156.258 100.886 156.292 99.9644 156.292 99.0346C156.292 92.5799 154.68 86.5017 151.839 81.181C153.762 77.6193 155.664 73.8094 157.049 70.3826C162.983 78.3879 166.493 88.3008 166.493 99.0346C166.493 108.606 163.703 117.522 158.892 125.017ZM148.487 65.4111V61.4789C149.004 61.895 149.514 62.3223 150.014 62.7588C149.493 63.5685 148.982 64.4595 148.487 65.4111ZM151.049 61.2798C150.219 60.5606 149.363 59.8659 148.487 59.2017V56.487C148.487 55.2934 147.532 54.3262 146.355 54.3262H140.637C133.945 50.9857 126.396 49.1067 118.41 49.1067C110.425 49.1067 102.875 50.9857 96.1827 54.3262H88.6481C97.1642 48.6342 107.401 45.314 118.41 45.314C131.974 45.314 144.363 50.3511 153.811 58.6594C152.887 59.1883 151.958 60.0959 151.049 61.2798ZM136.255 54.3262H100.566C106.084 52.1174 112.106 50.9021 118.41 50.9021C124.715 50.9021 130.738 52.1174 136.255 54.3262Z" fill="#F9F7EF"/>
<path d="M156.292 99.0343C156.292 119.976 139.331 136.955 118.41 136.955C97.49 136.955 80.5303 119.976 80.5303 99.0343C80.5303 78.0919 97.49 61.1141 118.41 61.1141C139.331 61.1141 156.292 78.0919 156.292 99.0343Z" fill="#D6CAD0"/>
<path d="M118.41 147.167C91.8563 147.167 70.3289 125.617 70.3289 99.0343C70.3289 72.452 91.8563 50.9018 118.41 50.9018C144.966 50.9018 166.493 72.452 166.493 99.0343C166.493 125.617 144.966 147.167 118.41 147.167ZM118.41 49.1064C90.8647 49.1064 68.5344 71.4599 68.5344 99.0343C68.5344 126.609 90.8647 148.963 118.41 148.963C145.956 148.963 168.287 126.609 168.287 99.0343C168.287 71.4599 145.956 49.1064 118.41 49.1064Z" fill="#D6CAD0"/>
<path d="M63.3478 55.9038C63.3478 56.4415 62.9934 56.878 62.5565 56.878C62.1195 56.878 61.7651 56.4415 61.7651 55.9038V52.7365C61.7651 52.1989 62.1195 51.7624 62.5565 51.7624C62.9934 51.7624 63.3478 52.1989 63.3478 52.7365V55.9038Z" fill="#ABDBE6"/>
<path d="M63.3478 43.4818C63.3478 44.0204 62.9934 44.456 62.5565 44.456C62.1195 44.456 61.7651 44.0204 61.7651 43.4818V40.3159C61.7651 39.7778 62.1195 39.3413 62.5565 39.3413C62.9934 39.3413 63.3478 39.7778 63.3478 40.3159V43.4818Z" fill="#ABDBE6"/>
<path d="M69.6957 51.3208C70.1599 51.5901 70.3606 52.1153 70.1414 52.4931C69.9236 52.8719 69.3699 52.9615 68.9048 52.6922L66.1653 51.1092C65.7006 50.84 65.4985 50.3148 65.7177 49.936C65.9359 49.5573 66.491 49.4695 66.9552 49.7379L69.6957 51.3208Z" fill="#ABDBE6"/>
<path d="M58.9489 45.1101C59.4154 45.3794 59.6152 45.9041 59.3965 46.2829C59.1773 46.6612 58.6241 46.7503 58.158 46.482L55.4194 44.8985C54.9543 44.6293 54.7527 44.1041 54.9719 43.7262C55.1906 43.3465 55.7443 43.2579 56.2108 43.5272L58.9489 45.1101Z" fill="#ABDBE6"/>
<path d="M68.9048 43.5272C69.3699 43.2579 69.9236 43.3466 70.1414 43.7254C70.3606 44.1032 70.1599 44.6284 69.6957 44.8986L66.9552 46.4811C66.491 46.7504 65.9359 46.6612 65.7177 46.2829C65.4985 45.9041 65.7006 45.3794 66.1653 45.1101L68.9048 43.5272Z" fill="#ABDBE6"/>
<path d="M58.158 49.7379C58.6241 49.4695 59.1773 49.5573 59.3965 49.936C59.6152 50.3148 59.4154 50.84 58.9489 51.1083L56.2108 52.6913C55.7443 52.9606 55.1897 52.8719 54.9719 52.4931C54.7527 52.1144 54.9543 51.5901 55.4194 51.3208L58.158 49.7379Z" fill="#ABDBE6"/>
<path d="M52.587 180.014C51.9341 180.014 51.2705 179.942 50.6075 179.79C45.8188 178.697 42.8112 173.91 43.9025 169.116C44.9947 164.323 49.7792 161.311 54.566 162.404C54.9264 162.487 55.153 162.845 55.0713 163.208C54.9887 163.567 54.6316 163.795 54.2693 163.712C50.2037 162.784 46.1376 165.341 45.2078 169.415C44.2808 173.486 46.8367 177.555 50.9051 178.484C54.9716 179.411 59.0377 176.854 59.9647 172.781C60.2402 171.575 60.2157 170.309 59.8955 169.124C59.7986 168.767 60.009 168.399 60.3671 168.302C60.7215 168.205 61.0915 168.415 61.1884 168.774C61.5659 170.171 61.594 171.66 61.2701 173.079C60.3306 177.208 56.6508 180.014 52.587 180.014Z" fill="#D43E3A"/>
<path d="M52.4838 173.019C52.3181 173.019 52.1589 172.958 52.0344 172.846L47.1774 168.447C46.9042 168.199 46.8821 167.774 47.1303 167.5C47.3781 167.226 47.8008 167.204 48.0753 167.453L52.4349 171.4L63.456 159.082C63.702 158.807 64.1256 158.783 64.401 159.03C64.676 159.277 64.7005 159.701 64.4522 159.976L52.983 172.797C52.8649 172.929 52.697 173.008 52.5198 173.019H52.4838Z" fill="#D43E3A"/>
<path d="M136.475 38.1201L134.048 36.9427L131.703 38.2758L132.071 35.6022L130.078 33.7805L132.733 33.3052L133.849 30.846L135.12 33.2262L137.801 33.5283L135.932 35.4743L136.475 38.1201Z" fill="#FFD72D"/>
<path d="M146.36 38.1201L143.933 36.9427L141.586 38.2758L141.956 35.6022L139.963 33.7805L142.619 33.3052L143.733 30.846L145.005 33.2262L147.687 33.5283L145.817 35.4743L146.36 38.1201Z" fill="#FFD72D"/>
<path d="M156.245 38.1201L153.817 36.9427L151.471 38.2758L151.84 35.6022L149.848 33.7805L152.503 33.3052L153.618 30.846L154.89 33.2262L157.572 33.5283L155.702 35.4743L156.245 38.1201Z" fill="#FFD72D"/>
<path d="M166.129 38.1201L163.703 36.9427L161.357 38.2758L161.726 35.6022L159.733 33.7805L162.389 33.3052L163.503 30.846L164.775 33.2262L167.456 33.5283L165.586 35.4743L166.129 38.1201Z" fill="#FFD72D"/>
<path d="M176.402 38.1201L173.976 36.9427L171.629 38.2758L171.999 35.6022L170.005 33.7805L172.661 33.3052L173.775 30.846L175.048 33.2262L177.728 33.5283L175.859 35.4743L176.402 38.1201Z" fill="#FFD72D"/>
<path d="M94.2355 29.3993C91.2948 29.3993 88.9088 27.0113 88.9088 24.0661C88.9088 21.1215 91.2948 18.7339 94.2355 18.7339C97.1794 18.7339 99.5635 21.1215 99.5635 24.0661C99.5635 27.0113 97.1794 29.3993 94.2355 29.3993ZM94.2355 15.5338C89.5285 15.5338 85.7129 19.3533 85.7129 24.0661C85.7129 28.7781 94.2355 41.6643 94.2355 41.6643C94.2355 41.6643 102.759 28.7781 102.759 24.0661C102.759 19.3533 98.9443 15.5338 94.2355 15.5338Z" fill="#DE6264"/>
<path d="M207.308 135.417C203.707 135.417 200.787 132.495 200.787 128.889C200.787 125.284 203.707 122.361 207.308 122.361C210.91 122.361 213.829 125.284 213.829 128.889C213.829 132.495 210.91 135.417 207.308 135.417ZM207.308 118.445C201.546 118.445 196.874 123.121 196.874 128.889C196.874 134.657 207.308 150.432 207.308 150.432C207.308 150.432 217.742 134.657 217.742 128.889C217.742 123.121 213.072 118.445 207.308 118.445Z" fill="#D6CAD0"/>
<path d="M146.349 70.1194C149.837 61.388 154.822 54.5777 158.66 60.1658C162.498 65.754 143.955 94.5973 143.955 94.5973C143.955 94.5973 142.858 78.8518 146.349 70.1194Z" fill="#F9C9B7"/>
<path d="M98.1862 224.766L123.145 224.173C122.502 220.801 123.624 192.955 128.884 184.871C135.019 175.437 142.433 162.634 145.245 150.056C148.058 137.478 99.995 124.9 86.957 154.323C73.9194 183.748 89.002 208.455 89.002 208.455L98.1862 224.766Z" fill="#F9C9B7"/>
<path d="M96.5344 184.213C99.5189 176 100.096 168.943 99.4104 163.062H100.836C101.341 174.16 96.5344 184.213 96.5344 184.213Z" fill="#F9C9B7"/>
<path d="M148.487 160.901C148.487 162.094 147.532 163.062 146.355 163.062H84.5552C83.3777 163.062 82.4235 162.094 82.4235 160.901V56.4867C82.4235 55.2931 83.3777 54.3259 84.5552 54.3259H146.355C147.532 54.3259 148.487 55.2931 148.487 56.4867V160.901Z" fill="#7B5D7B"/>
<path d="M82.4235 111.071V56.4867C82.4235 55.2931 83.3777 54.3259 84.5552 54.3259H146.355C147.532 54.3259 148.487 55.2931 148.487 56.4867V73.6304L144.579 77.5903V62.4786C144.579 61.5275 143.739 60.7561 142.701 60.7561H88.2102C87.1711 60.7561 86.3313 61.5275 86.3313 62.4786V107.795C86.0964 107.762 85.8551 107.746 85.6059 107.746C85.3997 107.746 85.1892 107.758 84.9724 107.78C84.9724 107.78 84.9516 107.776 84.9119 107.776C84.6323 107.776 83.4266 107.966 82.4235 111.071Z" fill="#585976"/>
<path d="M144.579 145.729C144.579 146.679 143.739 147.451 142.701 147.451H88.2103C87.1712 147.451 86.3314 146.679 86.3314 145.729V62.4788C86.3314 61.5277 87.1712 60.7563 88.2103 60.7563H142.701C143.739 60.7563 144.579 61.5277 144.579 62.4788V145.729Z" fill="white"/>
<path d="M138.851 116.414C138.851 118.508 127.579 120.205 113.676 120.205C99.7717 120.205 88.4999 118.508 88.4999 116.414C88.4999 114.32 99.7717 112.623 113.676 112.623C127.579 112.623 138.851 114.32 138.851 116.414Z" fill="#727F9C"/>
<path d="M104.338 112.426C107.911 106.692 108.444 95.517 108.131 88.6595C108.028 86.4197 105.986 78.3904 102.762 78.7336C99.6921 79.0606 100.854 87.2535 101.282 89.2124C100.895 88.0267 99.6861 86.6853 98.1952 86.1777C95.4862 85.2571 94.2597 85.658 93.7397 87.9616C92.9359 91.5201 96.4538 94.6647 98.0983 97.5272C96.5728 96.2357 93.7378 95.3511 92.9146 97.9526C92.0905 100.554 104.338 112.426 104.338 112.426Z" fill="#7CC7B9"/>
<path d="M119.971 104.525C119.003 98.8248 122.942 90.8801 125.938 86.321C126.918 84.8323 131.944 80.3185 134.727 82.1417C137.377 83.8785 133.083 88.9382 131.922 90.074C132.74 89.45 134.365 89.122 135.917 89.5087C138.734 90.2098 138.093 90.5147 137.653 92.3563C136.974 95.1965 134.136 96.1994 131.515 97.3574C133.408 97.2202 136.325 98.0096 136.041 100.204C135.757 102.397 119.971 104.525 119.971 104.525Z" fill="#7CC7B9"/>
<path d="M121.195 97.2852C120.816 93.5156 119.827 89.5279 120.799 85.811C121.065 84.7948 122.985 80.3105 125.866 81.5993C128.182 82.633 126.377 85.6257 126.26 86.9181C125.946 90.3949 124.428 94.0569 122.485 97.1448L121.195 97.2852Z" fill="#55979B"/>
<path d="M122.552 102.281C122.972 98.5149 122.844 94.409 124.574 90.9789C125.046 90.0412 127.866 86.0624 130.411 87.928C132.459 89.426 130.065 91.9725 129.68 93.2118C128.644 96.543 126.39 99.8045 123.844 102.416L122.552 102.281Z" fill="#55979B"/>
<path d="M105.144 104.915C102.428 102.274 99.107 99.8623 97.4592 96.3919C97.008 95.4437 95.5918 90.7761 98.6248 89.9031C101.061 89.2019 101.606 92.6542 102.348 93.7184C104.345 96.5795 105.54 100.361 106.042 103.975L105.144 104.915Z" fill="#55979B"/>
<path d="M136.177 114.241C136.147 101.934 126.185 91.9772 113.899 91.9772C101.611 91.9772 91.6496 101.934 91.621 114.226C91.7843 116.136 101.693 117.635 113.899 117.635C126.104 117.635 136.012 116.136 136.169 114.279L136.177 114.241Z" fill="#7B5D7B"/>
<path d="M116.91 90.1931C116.91 91.5885 115.778 92.7192 114.385 92.7192C112.99 92.7192 111.859 91.5885 111.859 90.1931C111.859 88.7967 112.99 87.665 114.385 87.665C115.778 87.665 116.91 88.7967 116.91 90.1931Z" fill="#596A83"/>
<path d="M102.948 115.023C102.948 115.023 98.7887 114.725 95.819 114.131C96.1157 107.588 98.1953 96.288 112.157 94.2071C112.157 94.2071 103.244 99.2622 102.948 115.023Z" fill="#ACB5C1"/>
<path d="M86.2117 225.121L98.9964 224.647L95.479 208.695V175.811C105.596 157.943 92.1313 146.188 90.0867 142.819C88.0408 139.451 89.916 127.096 90.7678 118.861C91.5384 111.425 89.3194 107.33 84.9728 107.78C84.9728 107.78 82.4174 107.33 81.3953 116.315C80.3723 125.3 77.816 132.636 74.6862 137.702C72.7164 140.891 66.1406 155.622 72.0205 169.772C77.9005 183.923 86.2117 225.121 86.2117 225.121Z" fill="#F9C9B7"/>
<path d="M149.192 95.2116C149.192 95.2116 159.723 100.585 156.828 109.03C153.93 117.476 145.768 126.945 141.82 126.177C137.87 125.409 140.303 120.831 142.672 116.482C145.042 112.131 148.138 107.752 148.138 107.752L149.192 95.2116Z" fill="#F9C9B7"/>
<path d="M148.917 82.2456C148.917 82.2456 159.143 87.6199 156.331 96.0649C153.519 104.509 145.595 113.979 141.759 113.211C137.924 112.442 140.286 107.866 142.587 103.516C144.888 99.1643 147.895 94.7859 147.895 94.7859L148.917 82.2456Z" fill="#F9C9B7"/>
<path d="M82.4738 119.671C81.849 119.671 81.395 119.557 81.395 119.557C81.395 119.557 81.9058 110.856 83.4391 109.32C83.4391 109.32 86.5071 112.392 85.9963 116.486C85.6553 119.216 83.7233 119.671 82.4738 119.671Z" fill="#F9C9B7"/>
<path d="M120.647 155.231C120.647 158.11 118.316 160.442 115.441 160.442C112.567 160.442 110.236 158.11 110.236 155.231C110.236 152.355 112.567 150.021 115.441 150.021C118.316 150.021 120.647 152.355 120.647 155.231Z" fill="#596A83"/>
<path d="M119.399 155.231C119.399 157.419 117.627 159.192 115.441 159.192C113.257 159.192 111.486 157.419 111.486 155.231C111.486 153.045 113.257 151.272 115.441 151.272C117.627 151.272 119.399 153.045 119.399 155.231Z" fill="#2E3054"/>
<path d="M142.701 60.7563H88.2103C87.1712 60.7563 86.3314 61.5277 86.3314 62.4788V70.91H144.579V62.4788C144.579 61.5277 143.739 60.7563 142.701 60.7563Z" fill="#E7C264"/>
<path d="M131.32 136.882C131.32 138.731 129.822 140.228 127.977 140.228H101.51C99.6636 140.228 98.1672 138.731 98.1672 136.882V131.583C98.1672 129.736 99.6636 128.237 101.51 128.237H127.977C129.822 128.237 131.32 129.736 131.32 131.583V136.882Z" fill="#DE6264"/>
<path d="M103.89 136.621C103.89 137.349 104.198 137.771 104.833 137.771C105.482 137.771 105.777 137.349 105.777 136.621V132.411C105.777 131.695 105.482 131.262 104.833 131.262C104.198 131.262 103.89 131.695 103.89 132.411V136.621ZM103.015 132.456C103.015 131.239 103.618 130.453 104.833 130.453C106.062 130.453 106.664 131.239 106.664 132.456V136.576C106.664 137.783 106.062 138.579 104.833 138.579C103.618 138.579 103.015 137.783 103.015 136.576V132.456Z" fill="white"/>
<path d="M109.335 134.288C110.039 134.288 110.459 134.061 110.459 133.196V132.434C110.459 131.717 110.197 131.342 109.539 131.342H108.675V134.288H109.335ZM109.562 130.533C110.812 130.533 111.335 131.171 111.335 132.354V133.003C111.335 133.879 111.028 134.425 110.346 134.641C111.073 134.858 111.346 135.449 111.346 136.303V137.543C111.346 137.896 111.357 138.226 111.506 138.499H110.607C110.505 138.271 110.459 138.066 110.459 137.532V136.28C110.459 135.38 110.039 135.097 109.3 135.097H108.675V138.499H107.788V130.533H109.562Z" fill="white"/>
<path d="M114.403 137.69C115.039 137.69 115.347 137.292 115.347 136.564V132.468C115.347 131.74 115.039 131.342 114.391 131.342H113.437V137.69H114.403ZM114.414 130.533C115.653 130.533 116.221 131.284 116.221 132.513V136.53C116.221 137.748 115.653 138.499 114.414 138.499H112.55V130.533H114.414Z" fill="white"/>
<path d="M120.165 134.061V134.858H118.221V137.69H120.608V138.499H117.334V130.533H120.608V131.342H118.221V134.061H120.165Z" fill="white"/>
<path d="M123.255 134.288C123.96 134.288 124.381 134.061 124.381 133.196V132.434C124.381 131.717 124.119 131.342 123.459 131.342H122.596V134.288H123.255ZM123.482 130.533C124.732 130.533 125.255 131.171 125.255 132.354V133.003C125.255 133.879 124.949 134.425 124.267 134.641C124.994 134.858 125.267 135.449 125.267 136.303V137.543C125.267 137.896 125.279 138.226 125.426 138.499H124.528C124.426 138.271 124.381 138.066 124.381 137.532V136.28C124.381 135.38 123.96 135.097 123.221 135.097H122.596V138.499H121.709V130.533H123.482Z" fill="white"/>
<path d="M89.8417 64.0114H97.1022V63.0095H89.8417V64.0114Z" fill="#FFEB96"/>
<path d="M89.8417 66.5127H97.1022V65.5122H89.8417V66.5127Z" fill="#FFEB96"/>
<path d="M89.8417 69.0147H97.1022V68.0137H89.8417V69.0147Z" fill="#FFEB96"/>
<path d="M139.087 63.4842C138.652 63.4842 138.299 63.1304 138.299 62.6939C138.299 62.2574 138.652 61.9036 139.087 61.9036C139.523 61.9036 139.876 62.2574 139.876 62.6939C139.876 63.1304 139.523 63.4842 139.087 63.4842Z" fill="#FFEB96"/>
<path d="M139.087 66.1693C138.652 66.1693 138.299 65.8164 138.299 65.3799C138.299 64.9438 138.652 64.59 139.087 64.59C139.523 64.59 139.876 64.9438 139.876 65.3799C139.876 65.8164 139.523 66.1693 139.087 66.1693Z" fill="#FFEB96"/>
<path d="M139.087 68.8557C138.652 68.8557 138.299 68.5014 138.299 68.0653C138.299 67.6288 138.652 67.275 139.087 67.275C139.523 67.275 139.876 67.6288 139.876 68.0653C139.876 68.5014 139.523 68.8557 139.087 68.8557Z" fill="#FFEB96"/>
<path d="M56.3797 132.971H54.6964C49.6447 131.708 52.171 114.011 53.1183 108.639C53.9032 104.183 53.8206 96.9047 53.7694 94.5513H53.0412C46.4073 93.9929 51.4936 70.5784 51.4936 70.5784H52.8511C52.643 78.7943 51.4936 86.468 53.1709 87.1488C53.2304 87.1738 53.2881 87.1853 53.3421 87.1853C54.8168 87.1853 54.431 78.5116 54.7946 70.5784H56.2804C56.6501 78.61 56.3718 87.1654 57.7972 87.165C57.8318 87.165 57.8682 87.1594 57.9042 87.1488C59.4514 86.7151 58.4307 78.7943 58.224 70.5784H59.5815C59.5815 70.5784 64.6682 93.9929 58.0343 94.5513H57.3062C57.2554 96.9047 57.1719 104.183 57.9577 108.639C58.9041 114.011 61.4304 131.708 56.3797 132.971Z" fill="#7B5D7B"/>
<path d="M182.51 129.039C177.442 129.039 179.873 111.343 180.628 105.971C180.717 105.337 180.075 98.6746 180.075 98.6746C180.075 98.6746 176.489 95.6523 176.315 89.8886C175.897 76.0836 181.329 63.9526 183.111 63.9332C184.1 63.9419 184.126 99.9074 184.1 100.914C183.836 111.224 187.578 129.039 182.51 129.039Z" fill="#7B5D7B"/>
<path d="M159.768 126.444C159.768 126.444 180.621 128.774 186.766 148.627L182.699 157.665C182.699 157.665 163.538 133.47 159.768 126.444Z" fill="#F9C9B7"/>
<path d="M149.681 123.275C149.681 123.275 165.895 120.068 178.968 148.857L170.773 154.132C170.773 154.132 153.451 130.301 149.681 123.275Z" fill="#F9C9B7"/>
<path d="M139.826 118.467C139.826 118.467 155.734 117.701 169.255 148.692L158.876 151.618C158.876 151.618 143.722 126.032 139.826 118.467Z" fill="#F9C9B7"/>
<path d="M152.516 212.765C156.129 214.62 167.313 216.95 171.027 223.998L175.732 239.728C175.732 239.728 178.929 241.234 192.308 243.284C209.503 245.919 216.578 236.173 216.578 236.173L203.733 211.962C203.874 189.407 186.766 148.627 186.766 148.627C185.46 144.459 158.444 147.82 159.198 151.674C157.645 148.166 157.529 147.866 155.918 144.705C151.182 134.445 139.453 117.632 139.453 117.632C134.546 109.721 132.206 107.873 128.87 109.317C125.534 110.757 130.392 117.733 131.694 121.899C131.694 121.899 148.818 152.925 152.049 171.783C154.805 187.874 152.855 187.483 149.944 187.093C149.443 187.027 148.914 186.959 148.376 186.976C144.707 187.091 143.256 182.282 135.943 172.712C127.387 160.581 122.972 166.852 122.972 166.852C138.391 203.627 141.679 207.192 152.516 212.765Z" fill="#F9C9B7"/>
</svg>
