<svg viewBox="0 0 224 257" fill="none" xmlns="http://www.w3.org/2000/svg">
<path d="M183.407 243.588C209.788 233.371 222.233 209.833 223.617 181.816C224.132 171.389 220.619 161.373 213.582 153.736C207.012 146.606 200.409 144.368 198.267 134.419C194.426 116.581 212.578 99.8721 199.809 83.2485C190.9 71.6491 180.811 59.8012 166.881 57.2067C159.938 55.9138 148.473 56.3013 138.237 56.6565C130.217 56.9337 117.226 58.3693 109.044 55.5535C97.6127 51.6194 87.3192 46.265 75.3194 44.3684C64.2221 42.6169 46.7926 36.5728 37.0168 44.9366C29.2783 51.558 28.468 61.7454 30.0908 70.9747C32.0929 82.3598 31.7372 94.1624 35.1601 105.565C39.3595 119.556 26.1484 129.235 21.3219 141.991C18.2405 150.133 17.1335 160.03 17.6009 169.149C18.0771 178.456 18.1708 187.828 22.6503 196.045C26.2241 202.602 32.4104 210.242 37.3066 216.152C44.833 225.239 54.3019 232.435 64.666 237.986C76.8956 244.538 88.159 251.481 101.881 251.86C130.284 252.644 174.082 247.201 183.407 243.588Z" fill="white"/>
<path d="M168.36 253.566C151.359 253.566 137.575 252.136 137.575 250.377C137.575 248.616 151.359 247.188 168.36 247.188C185.362 247.188 199.144 248.616 199.144 250.377C199.144 252.136 185.362 253.566 168.36 253.566Z" fill="#E5EBFF"/>
<path d="M61.6096 184.378C55.9789 184.378 50.9018 180.483 49.6209 174.754C48.2929 168.814 51.4984 162.914 56.9428 160.681C60.3643 168.174 64.7151 175.063 69.8203 181.241C68.3054 182.601 66.4325 183.602 64.3048 184.078C63.896 184.17 63.4872 184.24 63.0802 184.29C63.3617 179.944 63.358 177.097 63.3571 176.989L62.8052 176.992C62.8061 177.1 62.8103 179.971 62.5256 184.344C62.2188 184.367 61.9133 184.378 61.6096 184.378Z" fill="#DAEAFD"/>
<path d="M69.8205 181.241C64.7153 175.063 60.3645 168.174 56.943 160.681C57.5775 160.421 58.2428 160.209 58.934 160.055C59.8389 159.852 60.7419 159.755 61.6306 159.755C67.261 159.755 72.339 163.65 73.6194 169.378C74.6272 173.883 73.0265 178.364 69.8205 181.241Z" fill="#DBE2FE"/>
<path d="M206.936 161.24C203.384 161.24 200.503 158.356 200.503 154.799C200.503 151.244 203.384 148.361 206.936 148.361C210.489 148.361 213.371 151.244 213.371 154.799C213.371 158.356 210.489 161.24 206.936 161.24Z" fill="#E9EBFF"/>
<path d="M46.0636 222.274C49.2484 216.04 54.3065 212.964 52.3104 204.856C51.5107 201.616 49.0786 199.594 47.955 196.736C46.5518 193.168 47.722 192.481 48.1894 188.723C49.2008 180.613 44.1063 178.939 41.1674 172.766C39.1141 168.457 39.7268 163.407 36.985 158.852C34.2045 154.226 29.0218 150.102 27.9859 144.599C27.2213 154.347 21.0363 169.326 28.4699 177.544C23.9904 180.551 23.1492 186.473 25.2265 191.115C26.219 193.334 29.4546 195.058 30.0337 197.396C30.8213 200.59 28.8441 200.703 28.5866 203.501C27.7699 212.378 53.5138 225.03 46.7207 233.917L46.0636 222.274Z" fill="#7CC7B9"/>
<path d="M31.1356 163.813C28.7911 162.945 26.9676 161.842 25.2963 160.542C25.3318 160.273 25.3715 160.005 25.4112 159.738C27.172 161.161 28.8465 162.176 31.0083 163.015C30.8145 161.799 30.6313 160.59 30.4559 159.395C30.2968 158.337 30.1376 157.276 29.9724 156.223C29.8174 155.234 29.6129 154.232 29.415 153.263C29.2475 152.441 29.0749 151.592 28.936 150.771C28.8484 150.253 28.7284 149.65 28.6015 149.017C28.3426 147.729 28.0649 146.333 27.9417 145.06C27.9541 144.908 27.9717 144.751 27.986 144.599C28.1964 145.711 28.5775 146.77 29.0731 147.784C29.1432 148.16 29.2193 148.53 29.2871 148.881C29.4163 149.52 29.5349 150.122 29.6272 150.656C29.7633 151.464 29.9331 152.306 30.1006 153.124C30.2995 154.099 30.5058 155.109 30.6622 156.113C30.8279 157.169 30.9875 158.229 31.1444 159.292C31.5398 161.937 31.9515 164.651 32.4793 167.345C34.8451 165.856 35.9086 161.658 36.4384 157.993C36.6303 158.277 36.8121 158.562 36.9851 158.852C36.3927 162.599 35.1874 166.658 32.6256 168.074C32.6865 168.368 32.7423 168.668 32.806 168.962C33.3703 171.563 34.0463 174.145 34.7763 176.7C37.0585 174.024 38.7681 170.803 39.6527 167.605C39.744 168.08 39.8409 168.551 39.9489 169.019C38.9185 172.045 37.2098 175.017 35.0088 177.502C35.6461 179.697 36.3138 181.868 36.9745 184.009C37.0188 184.147 37.0386 184.215 37.0585 184.281C37.2435 184.877 37.4304 185.48 37.6164 186.083C38.1567 185.272 38.805 184.526 39.4404 183.805C40.0675 183.092 40.7134 182.36 41.2321 181.574C42.3501 179.887 42.8821 178.17 43.3819 176.366C43.5577 176.606 43.7339 176.837 43.9084 177.064C43.4446 178.698 42.8766 180.359 41.8177 181.963C41.269 182.785 40.6073 183.537 39.965 184.268C39.259 185.068 38.5259 185.896 37.98 186.794L37.8019 186.682C38.638 189.416 39.4713 192.205 40.2101 195.004C40.2474 195.149 40.2853 195.296 40.3259 195.442C40.8667 194.421 41.8629 193.38 42.7783 192.424C43.3666 191.814 43.9199 191.236 44.2526 190.766C45.7112 188.688 47.1886 186.379 48.0206 184.033C48.118 184.453 48.1992 184.894 48.2486 185.36C47.3649 187.401 46.0872 189.373 44.8238 191.169C44.4621 191.686 43.889 192.283 43.2854 192.913C42.1679 194.071 40.7965 195.502 40.6369 196.627C41.8135 201.079 43.0755 205.756 44.3915 210.323C45.385 213.762 45.8593 217.327 46.3226 220.776C46.359 221.045 46.3927 221.315 46.4315 221.588C46.306 221.808 46.1837 222.041 46.0637 222.274L46.2173 224.999C45.9982 223.616 45.8104 222.232 45.6281 220.87C45.1709 217.445 44.7002 213.906 43.7192 210.515C42.3954 205.929 41.1311 201.226 39.9493 196.758L39.9286 196.683C39.7952 196.182 39.6623 195.68 39.5327 195.184C39.2715 194.194 38.9956 193.207 38.716 192.217C37.4161 191.746 35.8228 191.538 34.2752 191.344C33.0764 191.189 31.8361 191.028 30.742 190.749C28.0339 190.05 26.1458 188.832 24.2345 187.508C24.1976 187.208 24.1746 186.906 24.1621 186.603C26.1855 188.016 28.1064 189.346 30.9179 190.068C31.9699 190.34 33.1871 190.497 34.3647 190.645C35.7688 190.829 37.2117 191.017 38.4769 191.4C37.8019 189.068 37.0917 186.752 36.3899 184.485C35.7628 184.085 34.8418 183.92 33.943 183.762C33.2361 183.639 32.5084 183.509 31.8956 183.278C30.3115 182.68 27.7142 181.698 25.9953 179.964C26.1315 179.771 26.2731 179.587 26.4226 179.405C27.7903 180.824 29.9368 181.791 32.1424 182.624C32.6925 182.831 33.3916 182.953 34.0676 183.072C34.7689 183.199 35.4846 183.324 36.1006 183.551C35.0504 180.145 33.9905 176.666 33.0801 173.137C32.8295 173.141 32.5688 173.131 32.2989 173.112C30.1376 172.94 27.4046 172.002 25.2142 170.624C25.1593 170.313 25.1062 169.999 25.0647 169.682C27.3976 171.299 30.6257 172.417 32.9075 172.439C32.6288 171.333 32.3635 170.225 32.1226 169.111C31.7424 167.353 31.425 165.578 31.1356 163.813Z" fill="white"/>
<path d="M46.7185 227.824C46.6169 227.329 46.5254 226.821 46.4353 226.316C46.7203 226.793 46.9666 227.265 47.173 227.732L46.7185 227.824Z" fill="white"/>
<path d="M0.984375 182.433C7.71612 186.379 26.8971 184.305 24.333 196.386C33.1882 195.171 35.9379 198.662 35.3772 207.064C35.4372 206.159 38.6317 206.774 39.0885 207.051C39.8494 207.505 40.7847 208.978 41.2207 209.758C42.6105 212.249 42.7947 215.084 43.137 217.863C43.5477 221.178 44.2569 224.472 45.1295 227.669C39.453 220.766 19.016 220.909 22.6202 212.456C19.453 212.857 13.6325 213.927 11.0956 211.349C7.84624 208.043 11.6595 204.595 14.5586 202.93C2.2441 201.37 3.53331 196.014 5.20368 189.952L3.03772 187.358C2.05488 185.89 1.3106 184.109 0.984375 182.433Z" fill="#E7C264"/>
<path d="M46.5744 229.506C63.4114 219.152 63.3602 177.41 63.3574 176.989L62.8055 176.992C62.8074 177.41 62.8604 218.843 46.286 229.037L46.5744 229.506Z" fill="#95DEE6"/>
<path d="M52.3621 223.174C52.3722 223.264 51.8739 220.954 50.8352 218.643C49.7398 216.207 48.0445 213.771 45.7134 214.148C41.1707 214.886 52.3842 223.36 52.3842 223.36L52.3621 223.174Z" fill="#95DEE6"/>
<path d="M55.8047 217.935C55.8047 217.935 51.4678 206.59 48.0384 208.861C44.6073 211.132 55.8047 217.935 55.8047 217.935Z" fill="#95DEE6"/>
<path d="M58.1569 211.509C58.1569 211.509 52.629 199.33 48.4098 202.426C45.2153 204.772 58.1569 211.509 58.1569 211.509Z" fill="#95DEE6"/>
<path d="M60.8701 200.073C60.8701 200.073 56.6508 188.159 53.3069 191.158C49.9643 194.161 60.8701 200.073 60.8701 200.073Z" fill="#95DEE6"/>
<path d="M60.2792 204.521C60.2792 204.521 53.2484 193.849 50.8329 197.638C49.2105 200.186 60.2792 204.521 60.2792 204.521Z" fill="#95DEE6"/>
<path d="M61.9722 192.336C61.9722 192.336 57.0714 179.391 53.7735 182.757C50.4767 186.124 61.9722 192.336 61.9722 192.336Z" fill="#95DEE6"/>
<path d="M62.4159 183.748C62.4159 183.748 59.5634 172.409 57.7473 175.783C55.9311 179.157 62.4159 183.748 62.4159 183.748Z" fill="#95DEE6"/>
<path d="M63.1575 180.692C63.1575 180.692 67.6476 170.318 64.1325 170.373C60.6192 170.427 63.1575 180.692 63.1575 180.692Z" fill="#95DEE6"/>
<path d="M62.4157 183.748C62.4157 183.748 72.9689 180.617 70.014 177.635C67.0595 174.653 62.4157 183.748 62.4157 183.748Z" fill="#95DEE6"/>
<path d="M62.2771 190.258C62.2771 190.258 74.6535 186.901 73.2125 182.625C71.7687 178.35 62.2771 190.258 62.2771 190.258Z" fill="#95DEE6"/>
<path d="M61.0216 196.716C61.0216 196.716 77.4156 192.872 74.8552 188.548C72.2947 184.221 61.0216 196.716 61.0216 196.716Z" fill="#95DEE6"/>
<path d="M59.9239 202.969C59.9239 202.969 78.4109 201.098 77.0617 196.07C75.7116 191.042 59.9239 202.969 59.9239 202.969Z" fill="#95DEE6"/>
<path d="M57.2821 213.305C57.2821 213.305 73.7573 207.043 75.0622 211.708C76.3672 216.371 57.2821 213.305 57.2821 213.305Z" fill="#95DEE6"/>
<path d="M59.6827 207.002C59.6827 207.002 73.2555 199.39 74.9993 203.891C76.7402 208.396 59.6827 207.002 59.6827 207.002Z" fill="#95DEE6"/>
<path d="M56.0594 216.975C56.0594 216.975 70.8111 213.334 69.9257 218.264C69.0397 223.194 55.8047 217.935 55.8047 217.935L56.0594 216.975Z" fill="#95DEE6"/>
<path d="M27.887 219.889C27.887 239.809 35.0151 255.96 43.8048 255.96C52.5949 255.96 59.7221 239.809 59.7221 219.889H27.887Z" fill="#E4EDF1"/>
<path d="M43.8048 255.96C35.0151 255.96 27.887 239.809 27.887 219.889H59.7221C59.7221 225.44 59.1689 230.701 58.1791 235.398C55.6205 247.558 50.1457 255.96 43.8048 255.96ZM34.3446 222.728C32.492 222.728 30.9905 224.122 30.9905 225.842C30.9905 227.565 32.492 228.961 34.3446 228.961C36.1973 228.961 37.696 227.565 37.696 225.842C37.696 224.122 36.1973 222.728 34.3446 222.728Z" fill="#F1A2A4"/>
<path d="M27.887 254.674C27.887 255.9 35.0151 256.893 43.8048 256.893C52.5949 256.893 59.7221 255.9 59.7221 254.674H27.887Z" fill="#B0BCD8"/>
<path d="M34.3447 228.961C32.4921 228.961 30.9906 227.565 30.9906 225.842C30.9906 224.122 32.4921 222.728 34.3447 222.728C36.1974 222.728 37.6961 224.122 37.6961 225.842C37.6961 227.565 36.1974 228.961 34.3447 228.961Z" fill="#F5BEBF"/>
<path d="M148.074 86.2177C146.328 86.2177 143.199 87.1642 142.729 87.4478C141.637 88.1055 140.321 89.9614 139.527 91.3518C137.762 94.4452 137.697 97.6125 137.628 100.965C137.619 101.399 137.61 101.832 137.598 102.264C137.484 105.981 137 109.874 136.12 114.122C140.391 110.246 148.241 107.207 155.856 104.26C164.598 100.878 172.855 97.6813 173.902 93.8535C174.196 92.7777 173.891 91.6853 172.969 90.513L172.383 89.7688L173.329 89.7319C173.835 89.7116 174.38 89.694 174.953 89.6751C180.977 89.4778 190.081 89.1799 193.716 85.6532C195.057 84.3525 195.583 83.0984 195.28 81.9247C194.613 79.3491 190.102 77.2803 186.102 76.2026L184.223 75.6955L186.121 75.265C195.856 73.0589 201.336 70.3309 202.871 66.9257C204.194 63.994 202.68 60.8087 200.4 56.6307L200.238 56.3342L203.918 52.1442C205.144 50.3798 206.05 48.321 206.46 46.3912C202.756 48.327 197.228 49.8601 191.401 51.4763C181.448 54.2358 170.169 57.3633 167.502 63.0429C166.625 64.9118 166.702 66.9442 167.739 69.2565L168.033 69.9138L167.314 69.936C158.516 70.2159 153.257 71.8594 150.768 75.1047C148.864 77.5861 148.52 81.0633 149.683 86.05L148.746 86.2732C148.769 86.3221 148.64 86.2177 148.074 86.2177ZM134.401 117.422L134.826 115.542C135.916 110.713 136.507 106.36 136.633 102.235C136.647 101.807 136.656 101.376 136.663 100.947C136.732 97.6194 136.802 94.1787 138.689 90.8719C138.998 90.3324 140.618 87.5924 142.231 86.6214C142.919 86.2043 146.781 85.0717 148.528 85.2764C147.569 80.5081 148.044 77.0715 150.003 74.5171C152.613 71.1129 157.893 69.353 166.587 68.9964C165.711 66.698 165.724 64.5598 166.629 62.6327C169.483 56.5503 180.495 53.4976 191.144 50.5456C197.394 48.8125 203.297 47.176 206.856 45.066L207.703 44.5648L207.581 45.5417C207.288 47.8841 206.228 50.5082 204.676 52.7387L201.408 56.4644C203.299 59.9333 205.327 63.8258 203.751 67.3225C202.158 70.8524 197.166 73.5591 188.094 75.7915C191.099 76.78 195.441 78.6983 196.213 81.6822C196.61 83.2171 195.996 84.7862 194.387 86.3461C190.484 90.1328 181.157 90.4377 174.985 90.6405C174.733 90.6493 174.486 90.6566 174.246 90.6645C174.945 91.8243 175.141 92.9786 174.832 94.108C173.656 98.4065 165.179 101.687 156.203 105.161C147.924 108.365 139.364 111.679 135.66 115.965L134.401 117.422Z" fill="#2A2B7C"/>
<path d="M152.982 75.2149C152.52 64.5315 156.061 51.2582 160.434 40.9124C163.391 33.9159 172.265 16.0276 181.79 16.2216C192.47 16.4401 189.617 37.5922 187.02 44.361C183.214 54.2943 176.585 61.7965 169.275 69.4665C162.341 76.7374 156.523 85.2208 149.707 92.1378L152.982 75.2149Z" fill="#E7C264"/>
<path d="M140.705 91.2455C135.93 85.1105 128.852 82.982 130.953 73.4316C131.792 69.6126 134.935 66.7335 136.242 63.2591C137.876 58.9208 136.242 58.4561 135.328 54.3849C133.355 45.6064 140.125 42.4303 143.644 34.7908C146.103 29.4609 144.897 23.9859 148.27 18.2061C151.69 12.3334 158.397 6.40388 159.391 0C161.151 10.6728 170.639 25.7827 161.187 36.8537C167.476 39.057 169.054 45.4401 166.589 51.152C165.411 53.8791 161.16 56.6335 160.552 59.3887C159.722 63.1519 162.406 62.7708 162.964 65.8222C164.73 75.5093 130.826 96.2318 140.683 104.394L140.705 91.2455Z" fill="#7CC7B9"/>
<path d="M140.254 40.2889V40.2879C140.475 39.9886 140.695 39.6865 140.915 39.3738C140.916 39.3757 140.916 39.3766 140.917 39.3775C140.696 39.6865 140.475 39.9896 140.254 40.2889ZM145.022 30.3121C145.02 30.3084 145.018 30.3052 145.016 30.3015C145.126 29.7514 145.222 29.1999 145.31 28.647C145.311 28.6479 145.311 28.6488 145.311 28.6497C145.223 29.2059 145.13 29.7602 145.022 30.3121Z" fill="#E9EBFF"/>
<path d="M145.636 67.1913H144.702C145.194 65.1889 145.674 63.205 146.14 61.259C145.842 60.0424 143.876 58.8007 142.278 57.7966C141.414 57.2492 140.595 56.73 140.067 56.2492C138.224 54.5688 136.344 52.7003 134.998 50.6518C135.03 50.1206 135.107 49.606 135.207 49.1118C136.509 51.5146 138.681 53.7119 140.811 55.6523C141.294 56.0898 142.087 56.5919 142.929 57.1222C144.237 57.9494 145.664 58.8548 146.475 59.8552C146.516 59.6834 146.557 59.5084 146.596 59.3366C147.391 56.0284 148.309 52.704 149.236 49.442L149.005 49.6111C148.198 48.7506 147.144 48.0161 146.129 47.3048C145.207 46.6558 144.253 45.9879 143.45 45.2105C141.896 43.6959 141.006 41.991 140.254 40.2889C140.476 39.9896 140.697 39.6865 140.918 39.3775C141.726 41.258 142.576 43.0363 144.212 44.6276C144.975 45.3699 145.905 46.0216 146.804 46.6521C147.72 47.2942 148.653 47.9611 149.444 48.7256C149.651 48.0036 149.861 47.2854 150.065 46.5731L150.135 46.3343L150.088 46.2987L150.159 46.2484C150.895 43.6904 151.634 41.0991 152.333 38.4875C149.175 36.2865 146.641 33.4148 145.022 30.3122C145.13 29.7602 145.224 29.2059 145.311 28.6497C146.748 31.9875 149.301 35.1363 152.589 37.5345C153.388 34.5003 154.11 31.4466 154.681 28.4026C154.744 28.0562 154.796 27.7075 154.858 27.3647C151.285 26.4446 149.353 22.2306 148.245 18.2495C148.254 18.2351 148.263 18.2204 148.27 18.2061C148.474 17.8564 148.689 17.5072 148.915 17.1575C148.925 17.14 148.936 17.1238 148.947 17.1062C149.936 21.0546 151.687 25.4622 155.001 26.5153C155.514 23.3776 155.871 20.2426 156.21 17.1931C156.344 15.9672 156.479 14.7468 156.626 13.5274C156.761 12.3652 156.966 11.1883 157.163 10.0501C157.328 9.09724 157.496 8.11337 157.619 7.17478C157.705 6.55721 157.821 5.85651 157.949 5.10914C158.014 4.70544 158.086 4.28188 158.155 3.8463C158.751 2.5816 159.189 1.30027 159.391 0C159.419 0.173677 159.45 0.350571 159.483 0.526096C159.409 1.97048 159.138 3.59131 158.887 5.08558C158.762 5.82555 158.643 6.52536 158.564 7.12491C158.437 8.07783 158.267 9.06814 158.102 10.0298C157.905 11.1592 157.704 12.3292 157.565 13.4706C157.421 14.6886 157.285 15.909 157.15 17.1326C157.002 18.51 156.84 19.9031 156.67 21.3078C159.533 19.819 161.725 18.2573 164.003 16.2199C164.06 16.4379 164.114 16.6573 164.168 16.8767C164.185 16.946 164.202 17.0148 164.219 17.085C162.054 18.9636 159.667 20.6629 156.558 22.2316C156.298 24.2737 156 26.3337 155.616 28.392C155.374 29.696 155.096 30.9995 154.801 32.3021C157.89 31.691 162.176 29.617 165.214 27.2142C165.181 27.5791 165.133 27.9444 165.079 28.302C162.218 30.4018 158.589 32.1506 155.677 32.8984C155.311 32.9903 154.959 33.0674 154.62 33.1265C153.65 37.2962 152.475 41.4474 151.307 45.514C152.125 45.1006 153.085 44.7763 154.024 44.4567C154.929 44.1486 155.868 43.8349 156.596 43.4613C159.52 41.967 162.355 40.3374 164.1 38.4034C164.315 38.5687 164.52 38.7373 164.719 38.917C162.523 41.2921 159.08 43.0539 156.98 44.1264C156.167 44.5417 155.189 44.8747 154.244 45.1944C153.039 45.6018 151.803 46.0226 150.987 46.63C150.204 49.3349 149.415 52.0998 148.675 54.8745C150.358 54.1193 152.299 53.5405 154.188 52.9756C155.768 52.5082 157.406 52.0218 158.809 51.4472C162.56 49.9174 165.062 47.9418 167.695 45.847C167.7 46.1898 167.691 46.5302 167.666 46.8738C165.177 48.8406 162.712 50.6836 159.098 52.1599C157.636 52.7534 155.97 53.2486 154.359 53.7294C152.279 54.3475 150.136 54.9881 148.412 55.8478C148.107 57.0196 147.806 58.1929 147.528 59.3619C147.39 59.9509 147.247 60.5421 147.105 61.1352L147.082 61.2257C146.613 63.1828 146.131 65.1774 145.636 67.1913Z" fill="white"/>
<path d="M165.762 214.296H85.5918V67.1913H157.332C161.986 67.1913 165.762 71.0269 165.762 75.7587V214.296Z" fill="#F1E5C5"/>
<path d="M160.04 171.944H98.3469V167.558C99.6006 168.442 101.13 168.96 102.78 168.96C107.041 168.96 110.496 165.503 110.496 161.237C110.496 156.971 107.041 153.513 102.78 153.513C101.13 153.513 99.6006 154.032 98.3469 154.915V150.905H160.04C160.736 150.905 161.3 151.472 161.3 152.169V170.681C161.3 171.378 160.736 171.944 160.04 171.944ZM113.051 165.633V167.736H157.516V165.633H113.051ZM113.709 160.374V162.476H157.516V160.374H113.709ZM113.709 155.114V157.217H157.516V155.114H113.709Z" fill="#F7F8FC"/>
<path d="M98.347 171.944H92.8768C92.1796 171.944 91.6153 171.378 91.6153 170.681V152.169C91.6153 151.472 92.1796 150.905 92.8768 150.905H98.347V154.915C96.362 156.312 95.064 158.622 95.064 161.237C95.064 163.851 96.362 166.161 98.347 167.558V171.944Z" fill="#F7F8FC"/>
<path d="M114 157.103H157.808V155H114V157.103Z" fill="#7CC7B9"/>
<path d="M113.709 162.476H157.517V160.374H113.709V162.476Z" fill="#7CC7B9"/>
<path d="M113.051 167.736H157.517V165.634H113.051V167.736Z" fill="#7CC7B9"/>
<path d="M102.78 168.96C101.13 168.96 99.6006 168.442 98.3469 167.558V154.915C99.6006 154.031 101.13 153.513 102.78 153.513C107.041 153.513 110.496 156.971 110.496 161.237C110.496 165.502 107.041 168.96 102.78 168.96Z" fill="#7CC7B9"/>
<path d="M98.3472 167.558C96.3622 166.161 95.0642 163.851 95.0642 161.237C95.0642 158.623 96.3622 156.312 98.3472 154.915V167.558Z" fill="#7CC7B9"/>
<path d="M160.04 202.515H98.3469V198.13C99.6006 199.013 101.13 199.531 102.78 199.531C107.041 199.531 110.496 196.074 110.496 191.808C110.496 187.542 107.041 184.085 102.78 184.085C101.13 184.085 99.6006 184.603 98.3469 185.486V181.477H160.04C160.736 181.477 161.3 182.042 161.3 182.74V201.252C161.3 201.949 160.736 202.515 160.04 202.515ZM113.051 196.204V198.308H157.516V196.204H113.051ZM113.709 190.944V193.048H157.516V190.944H113.709ZM113.709 185.685V187.788H157.516V185.685H113.709Z" fill="#F7F8FC"/>
<path d="M98.347 202.515H92.8768C92.1796 202.515 91.6153 201.949 91.6153 201.252V182.74C91.6153 182.042 92.1796 181.477 92.8768 181.477H98.347V185.486C96.362 186.883 95.064 189.194 95.064 191.808C95.064 194.422 96.362 196.733 98.347 198.13V202.515Z" fill="#F7F8FC"/>
<path d="M113.709 187.788H157.517V185.685H113.709V187.788Z" fill="#7CC7B9"/>
<path d="M113.709 193.048H157.517V190.944H113.709V193.048Z" fill="#7CC7B9"/>
<path d="M113.051 198.308H157.517V196.205H113.051V198.308Z" fill="#7CC7B9"/>
<path d="M102.78 199.531C101.13 199.531 99.6006 199.013 98.3469 198.13V185.486C99.6006 184.603 101.13 184.085 102.78 184.085C107.041 184.085 110.496 187.542 110.496 191.808C110.496 196.074 107.041 199.531 102.78 199.531Z" fill="#7CC7B9"/>
<path d="M98.3472 198.13C96.3622 196.734 95.0642 194.422 95.0642 191.808C95.0642 189.194 96.3622 186.883 98.3472 185.486V198.13Z" fill="#7CC7B9"/>
<path d="M163.346 138.65C163.346 139.817 162.4 140.763 161.234 140.763H67.6368C66.4721 140.763 65.5249 139.817 65.5249 138.65V107.654C65.5249 106.486 66.4721 105.541 67.6368 105.541H161.234C162.4 105.541 163.346 106.486 163.346 107.654V138.65Z" fill="#DEA56F"/>
<path d="M98.7851 122.512C98.7851 130.293 92.4834 136.6 84.7111 136.6C76.9379 136.6 70.6376 130.293 70.6376 122.512C70.6376 114.732 76.9379 108.423 84.7111 108.423C92.4834 108.423 98.7851 114.732 98.7851 122.512Z" fill="white"/>
<path d="M101.416 116.107H157.012V112.585H101.416V116.107Z" fill="white"/>
<path d="M101.416 124.912H157.012V121.39H101.416V124.912Z" fill="white"/>
<path d="M101.416 133.718H157.012V130.196H101.416V133.718Z" fill="white"/>
<path d="M175.312 209.724L157.202 248.238L146.218 249.606C146.218 249.606 149.527 244.91 154.277 245.873L160.321 224.576L165.927 203.098C165.927 203.098 174.948 197.808 175.312 209.724Z" fill="#F5B29C"/>
<path d="M189.95 206.085C189.95 206.085 191.744 233.69 183.667 250.709C183.667 250.709 173.205 247.361 174.173 246.76C174.173 246.76 177.411 245.444 179.537 247.144C179.537 247.144 184.425 226.508 181.449 213.105C178.52 199.903 185.276 204.171 189.95 206.085Z" fill="#F5B29C"/>
<path d="M170.823 136.01L167.422 145.371C167.422 145.371 171.316 148.338 171.035 152.816C170.703 158.144 160.405 195.544 160.405 195.544C160.405 195.544 180.387 206.985 191.226 198.263C191.777 197.819 191.205 193.174 191.2 192.5C191.168 187.913 191.109 183.328 191.014 178.742C190.962 176.195 189.289 172.147 188.927 169.623C188.684 167.932 186.846 162.787 186.736 161.07C186.383 155.637 186.955 157.121 189.588 147.475C190.926 142.913 189.671 135.739 185.104 133.26C180.336 130.671 174.254 132.213 170.823 136.01Z" fill="#553738"/>
<path d="M184.109 124.839C183.022 130.016 174.955 128.219 173.588 124.95C170.959 118.662 174.026 113.836 174.026 113.836C175.555 108.859 176.948 107.987 180.6 107.768C180.6 107.768 187.323 109.518 184.109 124.839Z" fill="#F9C9B7"/>
<path d="M169.716 159.68C169.716 159.68 160.396 179.305 159.717 180.888C157.803 185.343 156.061 190.017 154.338 194.596C152.528 199.41 151.208 205.025 153.578 209.893C156.154 215.182 164.282 213.993 168.552 216.488C173.111 219.155 181.469 219.772 185.875 216.29C193.292 210.433 192.669 217.206 197.692 213.056C202.716 208.903 196.748 196.846 194.624 187.172C191.775 171.599 186.736 160.192 186.736 160.192C186.736 160.192 176.728 163.629 169.716 159.68Z" fill="#55979B"/>
<path d="M174.848 133.784C171.783 132.009 163.816 144.774 161.756 144.544C159.292 144.273 152.819 132.371 152.296 130.594C151.819 128.972 152.03 123.937 150.507 123.196C148.985 122.454 151.115 125.666 150.216 125.828C149.317 125.989 145.724 118.771 144.957 119.101C144.19 119.43 147.598 125.457 147.147 125.536C146.699 125.613 146.15 126.051 145.712 126.271C145.275 126.49 144.617 126.6 144.398 127.039C144.179 127.477 144.139 129.393 146.75 130.859C149.532 132.42 158.23 151.941 159.563 152.442C161.394 153.13 172.729 144.568 172.729 144.568C172.729 144.568 182.614 138.281 174.848 133.784Z" fill="#F9C9B7"/>
<path d="M173.631 115.683C173.631 115.683 175.41 117.009 178.079 115.352C178.079 115.352 179.146 116.843 177.902 118.502C177.902 118.502 179.659 117.218 180.015 119.539C180.17 120.538 177.723 121.817 177.723 121.817C177.723 121.817 173.274 131.099 173.274 136.237C173.274 141.44 178.92 150.687 188.932 147.011C188.932 147.011 193.819 145.203 194.039 139.719C194.039 139.719 199.078 141.693 200.612 138.184C206.683 124.293 193.915 116.843 193.915 116.843C193.915 116.843 193.203 105.572 181.816 106.236C174.305 106.673 170.606 113.198 173.631 115.683Z" fill="#BA3A29"/>
<path d="M149.804 246.604C147.643 247.742 146.327 249.606 146.327 249.606L157.312 248.238L158.214 246.323C154.463 248.494 150.548 246.937 149.804 246.604Z" fill="#2E3054"/>
<path d="M184.521 249.043C182.78 248.775 178.885 248.131 177.674 247.582C176.52 247.06 177.549 246.628 178.182 246.433C176.291 245.949 174.282 246.76 174.282 246.76C173.314 247.361 183.778 250.709 183.778 250.709C184.036 250.165 184.283 249.609 184.521 249.043Z" fill="#2E3054"/>
<path d="M168.958 161.279C168.841 161.525 168.718 161.785 168.579 162.075C169.462 162.435 175.053 164.622 180.446 164.622C183.109 164.622 185.716 164.074 187.685 162.519C187.563 162.207 187.45 161.922 187.35 161.67C181.994 166.235 170.384 161.847 168.958 161.279Z" fill="#2E3054"/>
<path d="M92.9299 118.668C94.7525 122.602 92.5496 127.499 88.0092 129.607C83.4697 131.714 78.3119 130.233 76.4902 126.3C75.3878 123.918 75.7593 121.185 77.2299 118.93C78.1905 117.459 81.7357 116.143 81.7357 116.143C81.7357 116.143 85.0981 114.255 86.8423 114.475C89.5093 114.809 91.8285 116.29 92.9299 118.668Z" fill="#FA7071"/>
<path d="M82.8054 115.297C82.8054 115.297 83.0371 115.051 83.0947 114.615C83.1547 114.177 82.877 113.81 82.877 113.81L81.5074 115.569L79.2806 115.48C79.2806 115.48 79.3609 115.93 79.7572 116.17C80.1518 116.409 80.46 116.384 80.46 116.384C79.1408 116.997 77.6024 117.397 77.6024 117.397C79.5966 119.022 80.9376 117.496 80.9376 117.496C81.2296 118.736 82.7833 118.367 82.7833 118.367C82.817 118.352 84.1006 117.403 83.3467 116.378C83.3467 116.378 85.3728 116.341 85.4226 113.767C85.4226 113.767 84.1228 114.684 82.8054 115.297Z" fill="#96B81D"/>
<path d="M80.264 123.014C79.1271 123.014 78.2028 122.091 78.2028 120.951C78.2028 119.812 79.1271 118.888 80.264 118.888C81.401 118.888 82.3248 119.812 82.3248 120.951C82.3248 122.091 81.401 123.014 80.264 123.014Z" fill="#FCA9AA"/>
<path d="M160.04 99.8593H92.8768C92.1796 99.8593 91.6153 99.2935 91.6153 98.5965V80.0837C91.6153 79.3867 92.1796 78.8208 92.8768 78.8208H160.04C160.736 78.8208 161.3 79.3867 161.3 80.0837V98.5965C161.3 99.2935 160.736 99.8593 160.04 99.8593ZM102.78 81.4283C98.5187 81.4283 95.064 84.8866 95.064 89.1518C95.064 93.4171 98.5187 96.8754 102.78 96.8754C107.041 96.8754 110.496 93.4171 110.496 89.1518C110.496 84.8866 107.041 81.4283 102.78 81.4283ZM113.051 93.5483V95.6513H157.517V93.5483H113.051ZM113.709 88.289V90.3911H157.517V88.289H113.709ZM113.709 83.0288V85.1319H157.517V83.0288H113.709Z" fill="#F7F8FC"/>
<path d="M113.709 85.1318H157.517V83.0287H113.709V85.1318Z" fill="#7CC7B9"/>
<path d="M113.709 90.391H157.517V88.2884H113.709V90.391Z" fill="#7CC7B9"/>
<path d="M113.051 95.6512H157.517V93.5482H113.051V95.6512Z" fill="#7CC7B9"/>
<path d="M102.781 96.8754C98.5189 96.8754 95.0642 93.4171 95.0642 89.1518C95.0642 84.8866 98.5189 81.4283 102.781 81.4283C107.041 81.4283 110.496 84.8866 110.496 89.1518C110.496 93.4171 107.041 96.8754 102.781 96.8754Z" fill="#7CC7B9"/>
</svg>
