<svg viewBox="0 0 230 195" fill="none" xmlns="http://www.w3.org/2000/svg">
<path d="M124.549 185.841C157.995 192.775 194.224 193.326 214.72 168.273C225.515 155.08 230.966 132.483 228.961 115.592C227.807 105.881 210.354 85.8248 203.519 79.4761C200.461 64.8507 217.255 53.754 214.771 37.8946C212.259 21.8588 193.896 9.69248 177.498 5.88815C136.518 -3.6205 89.6529 1.27408 50.9165 10.4144C34.2067 14.3578 23.6082 19.8134 16.4702 35.0685C13.3573 41.7212 10.9469 49.1439 12.5813 56.8801C13.905 63.153 18.7469 67.547 21.1307 73.7157C26.8128 88.4237 9.41644 95.2934 3.99988 108.819C-1.302 122.053 -0.609421 139.575 7.65536 151.679C15.8304 163.655 28.5806 171.653 41.5813 178.277C51.4127 183.287 68.4022 192.365 79.9692 190.581L124.549 185.841Z" fill="white"/>
<path d="M145.772 72.7885C145.772 77.2178 149.359 80.8084 153.784 80.8084C158.209 80.8084 161.795 77.2178 161.795 72.7885C161.795 68.3592 158.209 64.7678 153.784 64.7678C149.359 64.7678 145.772 68.3592 145.772 72.7885Z" fill="white"/>
<path d="M127.399 25.1868C127.399 28.0515 129.719 30.3742 132.581 30.3742C135.443 30.3742 137.763 28.0515 137.763 25.1868C137.763 22.3218 135.443 19.999 132.581 19.999C129.719 19.999 127.399 22.3218 127.399 25.1868Z" fill="#BFD4F8"/>
<path d="M171.522 159.429C172.203 159.144 172.864 158.825 173.505 158.467C175.1 152.94 175.53 146.784 176.972 141.232C178.292 136.154 180.092 134.153 181.832 134.153C182.179 134.153 182.522 134.232 182.86 134.383C185.713 129.799 187.115 124.418 182.21 121.652C181.143 121.05 180.123 120.784 179.153 120.784C173.251 120.784 169.19 130.617 167.555 134.413C167.157 131.023 165.845 129.617 164.536 129.617C162.737 129.617 160.945 132.279 161.554 136.096C160.636 135.194 159.8 134.819 159.043 134.819C157.789 134.819 156.75 135.845 155.911 137.195C155.995 137.684 156.077 138.163 156.155 138.635C156.157 138.639 156.159 138.644 156.161 138.648C156.547 139.536 156.674 140.456 156.577 141.294C157.243 145.687 157.571 148.804 157.571 148.804C157.325 148.922 157.084 149.035 156.839 149.15L159.255 156.877C159.514 155.841 159.777 154.829 160.061 153.858C160.842 151.191 161.504 148.264 164.467 147.828C164.736 147.79 164.995 147.77 165.243 147.77C169.878 147.77 171.118 154.4 171.522 159.429Z" fill="#F2A2AA"/>
<path d="M148.826 177.024C160.564 178.408 174.074 180.995 184.228 173.457C189.448 169.582 189.104 166.12 182.516 165.392C186.697 162.858 191.588 160.956 196.277 159.487C204.799 156.817 208.96 150.749 196.899 150.491C199.047 146.119 203.431 142.434 205.775 137.521C208.212 132.411 209.125 128.234 208.849 122.632C197.778 120.966 192.751 140.264 187.496 147.124C188.029 136.778 180.641 127.114 176.972 141.232C175.103 148.428 174.933 156.643 171.726 163.182C171.543 158.59 171.186 146.841 164.467 147.829C161.504 148.264 160.843 151.191 160.061 153.858C157.955 161.045 157.014 170.507 150.717 175.033L148.826 177.024Z" fill="#4FAB8F"/>
<path d="M36.5711 134.287C33.6852 132.238 30.0536 133.355 29.5289 137.358C29.0161 141.245 31.6055 142.156 33.8448 143.958C40.7113 149.483 46.7848 153.898 55.0289 156.752C62.9091 159.48 71.3623 159.735 79.1004 163.552C72.8864 158.256 72.0597 149.023 69.2881 141.512C68.0423 138.13 66.1807 134.165 63.8811 131.516C62.5832 130.022 57.1642 126.65 58.1378 131.862C56.7919 124.651 49.6162 117.833 50.5303 129.547C49.5876 124.865 36.4513 114.747 31.8452 117.933C25.3804 122.404 34.081 130.922 36.5711 134.287Z" fill="white"/>
<path d="M71.2449 166.47C68.9373 163.413 68.6512 158.806 66.9326 155.28C64.5829 150.455 60.9913 145.65 57.235 142.025C50.842 135.854 49.0262 143.376 50.5336 150.017C48.1312 143.594 37.6083 132.853 31.6035 130.185C23.4686 126.572 28.1223 136.598 30.3465 140.85C25.7254 133.943 9.82173 132.088 3.95586 137.946C11.6538 141.148 16.6966 145.918 20.999 153.256C25.3511 160.678 29.369 162.227 37.4429 161.454C36.5808 168.286 49.2198 173.932 53.9962 176.022C59.3834 178.378 83.2125 181.016 83.7721 186.842L71.2449 166.47Z" fill="#E7C264"/>
<path d="M70.9643 41.3188C71.57 41.3188 72.186 41.2517 72.8008 41.111C77.2406 40.0967 80.0292 35.6582 79.0183 31.2118C78.005 26.7678 73.5684 23.9754 69.1302 24.9898C68.796 25.0653 68.5852 25.3983 68.6614 25.7328C68.7384 26.0681 69.0698 26.2791 69.4056 26.202C73.1762 25.3418 76.9465 27.7118 77.8077 31.4887C78.6674 35.2649 76.2983 39.039 72.5241 39.9004C68.7539 40.7582 64.9833 38.3874 64.1248 34.6121C63.8684 33.4928 63.8914 32.3195 64.1875 31.2198C64.2772 30.8884 64.0827 30.5471 63.7509 30.4585C63.4223 30.3683 63.0785 30.563 62.9888 30.8943C62.6383 32.1908 62.6125 33.5715 62.913 34.8882C63.7842 38.7172 67.1973 41.3188 70.9643 41.3188Z" fill="#FA7071"/>
<path d="M71.0599 34.8326C71.2151 34.8326 71.3619 34.7746 71.4766 34.6713L75.9819 30.592C76.2351 30.3615 76.2554 29.969 76.0248 29.7143C75.7954 29.46 75.4028 29.4393 75.148 29.671L71.1059 33.3303L60.8851 21.9086C60.6581 21.6543 60.2652 21.63 60.0096 21.8597C59.7548 22.0889 59.7318 22.4815 59.9612 22.7374L70.5967 34.6264C70.7066 34.7488 70.863 34.8226 71.0277 34.8326H71.0599Z" fill="#FA7071"/>
<path d="M130.339 52.6852C133.664 55.9039 135.64 59.4067 135.64 64.1646C135.64 66.7643 135.313 68.5172 134.213 70.7069C133.26 72.6072 131.07 74.5335 130.572 76.4263C133.721 76.6158 136.389 76.6591 139.003 78.8766C147.296 85.9127 147.689 102.518 135.991 106.898C134.057 107.623 131.375 107.992 129.583 107.274C133.532 104.96 138.556 112.311 135.259 116.145C131.387 120.644 121.851 120.812 116.356 121.064C110.05 121.353 100.536 122.418 95.406 118.293C91.4798 115.139 89.4088 108.503 88.5526 103.912C86.9733 107.539 85.3282 112.092 81.269 113.433C77.3321 114.732 72.6022 112.47 70.3891 109.192C68.187 105.928 69.0812 101.452 71.2777 98.5609C72.3422 97.1592 78.6526 89.6673 80.4121 90.3396C72.5292 87.3271 72.5101 78.8674 74.1283 71.0073C78.9666 47.4955 112.343 35.7857 130.015 52.3777C130.125 52.4798 130.233 52.5823 130.339 52.6852Z" fill="#2E3054"/>
<path d="M154.474 141.587L162.584 167.524C162.584 167.524 167.541 171.582 164.838 179.928C162.795 186.231 152.028 195.792 141.407 189.851L149.226 171.531C149.226 171.531 150.475 171.531 151.726 170.903C152.975 170.279 148.288 165.588 143.289 156.831C138.291 148.075 152.286 139.71 154.474 141.587Z" fill="#E7A588"/>
<path d="M99.3436 65.8517C97.082 68.1156 98.9042 83.0966 98.1854 86.8163C96.5799 95.1453 91.7106 98.1709 85.6523 103.574C81.6963 107.103 74.4647 111.284 72.8203 116.44C71.0168 122.101 78.1286 126.226 82.9613 129.07C89.5138 132.928 95.9354 132.822 103.349 134.381C106.616 135.067 109.225 136.718 112.811 137.078C116.541 137.449 120.486 136.994 124.076 136.602C130.513 135.899 137.781 133.982 143.343 130.649C149.93 126.699 154.227 123.726 148.745 116.441C145.35 111.927 139.243 109.963 135.002 106.743C125.264 99.3485 116.794 91.5936 117.521 78.5337C118.07 68.6091 104.85 60.3385 99.3436 65.8517Z" fill="#F9C9B7"/>
<path d="M60.5428 142.49L52.432 168.426C52.432 168.426 47.4751 172.485 50.1788 180.83C52.2213 187.136 62.9889 196.694 73.6089 190.753L65.3482 182.934C65.3482 182.934 66.3551 176.321 64.7476 172.559C64.0654 171.228 66.7298 166.491 71.7276 157.734C76.725 148.977 62.7302 140.614 60.5428 142.49Z" fill="#E7A588"/>
<path d="M126.03 98.5857C126.03 98.5857 110.108 111.516 91.4832 97.9853C91.4832 97.9853 74.6623 109.111 69.5549 113.021C64.4479 116.929 63.6835 129.436 58.3578 146.487C58.3578 146.487 97.4903 177.371 157.571 148.804C157.571 148.804 154.567 120.237 148.258 114.222C141.949 108.208 126.03 98.5857 126.03 98.5857Z" fill="#EA5A63"/>
<path d="M98.2983 80.0666C98.1967 76.4577 98.0435 72.301 98.3281 69.3652C98.2173 69.4637 98.1097 69.5654 98.0058 69.6699L97.6434 78.3382C97.8574 78.9406 98.0745 79.5167 98.2983 80.0666ZM117.517 78.6072C117.551 78.5496 117.585 78.4932 117.618 78.4392C117.621 78.3696 117.613 76.7037 117.618 76.6349C117.807 73.2148 116.192 70.6704 113.768 69.0291C116.134 71.6069 117.719 74.9638 117.521 78.5337C117.52 78.5587 117.518 78.5826 117.517 78.6072Z" fill="#2B2234"/>
<path d="M108.56 88.3797C111.474 88.3789 115.67 81.6857 117.517 78.6072C117.517 78.5826 117.519 78.5588 117.52 78.5337C117.718 74.9638 116.133 71.6069 113.767 69.0291C111.596 67.5594 108.775 66.814 106.023 66.814C103.096 66.814 100.244 67.6567 98.3274 69.3652C98.0428 72.301 98.196 76.4578 98.2976 80.0666C100.213 84.7649 102.658 87.5549 108.305 88.3619C108.389 88.3742 108.473 88.3797 108.56 88.3797Z" fill="#F9C9B7"/>
<path d="M124.773 53.2904C124.773 53.2904 120.696 83.9288 108.98 84.7553C97.2649 85.5825 93.4614 68.1529 92.541 56.1026C91.5134 42.6156 92.7525 38.5232 109.158 37.7464C124.975 36.9955 124.773 53.2904 124.773 53.2904Z" fill="#F9C9B7"/>
<path d="M89.2345 49.0143C89.3702 49.9639 89.6175 51.0021 89.8394 52.0745C85.6683 51.9827 85.7758 58.7069 87.1341 61.0853C87.3643 61.4874 88.8856 62.7481 88.8888 63.027C88.8987 63.8824 87.2317 63.7879 87.4508 65.1511C87.7659 67.1194 90.3689 68.6157 92.2903 67.8894C93.7687 67.3303 93.4584 65.6139 93.6667 64.2773C94.1978 60.8862 95.4389 59.3097 97.7052 57.0918C99.4425 55.3905 102.555 53.0169 102.788 50.517C106 56.2432 112.993 57.2003 118.895 55.8756C119.725 59.3271 119.089 61.2069 122.503 63.2256C125.803 65.1785 126.375 63.4708 129.084 61.6423C129.718 58.8619 127.617 55.8224 126.03 54.6078C130.051 50.7161 126.652 44.6061 122.831 40.5137C118.136 35.4832 112.488 33.4791 105.861 33.9364C102.798 34.149 98.6003 35.6374 96.3967 37.8067C94.6749 39.5017 92.8289 40.5478 92.6237 44.353C89.2667 44.761 88.888 46.6026 89.2345 49.0143Z" fill="#2E3054"/>
<path d="M151.571 169.778C151.591 169.742 151.613 169.706 151.635 169.669C151.614 169.63 151.593 169.59 151.571 169.55V169.778Z" fill="#DCC8B6"/>
<path d="M161.88 164.645L161.645 163.593C161.536 163.556 161.428 163.52 161.32 163.487L161.659 164.566C161.732 164.592 161.806 164.617 161.88 164.645Z" fill="#7599B0"/>
<path d="M151.635 169.669C152.884 167.534 155.33 164.136 159.204 164.136C159.966 164.136 160.784 164.268 161.659 164.566L161.321 163.487C160.418 163.208 159.544 163.089 158.702 163.089C156.191 163.089 153.975 164.152 152.178 165.215C151.97 165.339 151.768 165.461 151.571 165.583V169.55C151.593 169.59 151.614 169.63 151.635 169.669Z" fill="#DD8B61"/>
<path d="M161.902 164.652C154.455 161.881 151.058 171.158 150.662 171.357C149.41 171.983 149.226 171.531 149.226 171.531L139.75 191.344C150.372 197.284 161.952 189.168 165.288 178.123C167.203 171.782 162.134 165.494 162.134 165.494L161.902 164.652Z" fill="#E7A588"/>
<path d="M53.3354 165.538L53.693 164.396L53.3354 165.538Z" fill="#F4B59F"/>
<path d="M64.4819 181.86V167.136C62.4791 165.879 59.6599 163.997 56.316 163.997C55.4733 163.997 54.597 164.117 53.6921 164.396L53.3348 165.538C53.6567 165.515 53.9703 165.504 54.2723 165.504C61.0503 165.504 62.8836 170.946 62.7951 171.357C61.8501 175.72 62.9447 180.379 62.9447 180.379L64.4819 181.86Z" fill="#DD8B61"/>
<path d="M53.1138 165.555C60.8435 164.892 62.8891 170.924 62.7959 171.357C61.8508 175.72 62.9455 180.379 62.9455 180.379L75.267 192.246C64.6446 198.186 53.0641 190.069 49.7289 179.026C47.813 172.684 52.8824 166.395 52.8824 166.395L53.1138 165.555Z" fill="#E7A588"/>
<path d="M99.4792 156.846L115.559 154.068L107.733 108.66L91.6518 111.437L99.4792 156.846Z" fill="#D55765"/>
<path d="M102.986 143.946C102.665 146.505 104.479 148.841 107.035 149.164L122.107 151.058C124.664 151.379 126.997 149.564 127.319 147.005L129.975 125.827C130.295 123.268 128.415 121.476 125.857 121.154L110.786 119.26C108.228 118.938 105.965 120.208 105.641 122.768L102.986 143.946Z" fill="#7AB6F6"/>
<path d="M106.167 118.588L126.778 121.178C128.833 121.435 130.291 123.315 130.033 125.372C129.774 127.43 127.9 128.89 125.842 128.63L105.233 126.04L106.167 118.588Z" fill="#2E3054"/>
<path d="M106.274 119.035L127.138 121.657C128.456 121.824 129.365 123.257 129.164 124.855C128.966 126.453 127.729 127.619 126.411 127.453L105.545 124.829L106.274 119.035Z" fill="white"/>
<path d="M105.531 123.658L105.564 123.399H105.562L105.531 123.658Z" fill="#6BA4E9"/>
<path d="M105.67 123.84L105.723 123.419L105.564 123.399L105.531 123.658L105.512 123.82L105.67 123.84Z" fill="#292B4F"/>
<path d="M125.759 126.364L125.811 125.944L105.722 123.419L105.67 123.84L125.759 126.364Z" fill="#E0E6F1"/>
<path d="M105.874 120.924L105.905 120.672L105.905 120.671L105.874 120.924Z" fill="#BB4F60"/>
<path d="M106.012 121.112L106.066 120.692L105.905 120.672L105.874 120.924L105.854 121.092L106.012 121.112Z" fill="#292B4F"/>
<path d="M125.828 123.603L125.881 123.183L106.066 120.692L106.012 121.113L125.828 123.603Z" fill="#E0E6F1"/>
<path d="M105.682 122.457L105.708 122.251L105.68 122.457H105.682Z" fill="#BB4F60"/>
<path d="M105.842 122.477L105.894 122.056L105.736 122.036L105.708 122.251L105.682 122.456L105.842 122.477Z" fill="#292B4F"/>
<path d="M125.793 124.985L125.845 124.564L105.894 122.056L105.841 122.477L125.793 124.985Z" fill="#E0E6F1"/>
<path d="M133.759 126.225C132.809 124.492 125.992 126.405 123.845 127.582C121.698 128.759 120.726 131.118 121.676 132.852C122.625 134.587 125.135 135.039 127.28 133.86C128.033 133.447 129.171 132.598 130.29 131.596L128.78 133.048C128.551 134.022 128.439 134.996 128.431 135.952L131.526 144.162C132.518 145.273 133.759 146.128 135.204 146.623C136.677 147.128 138.21 147.205 139.699 146.92L147.711 142.512C148.254 141.84 148.723 141.096 149.103 140.286L148.636 138.014C148.905 139.436 149.271 140.744 149.601 141.504C150.579 143.751 152.837 144.934 154.649 144.145C156.46 143.357 157.137 140.895 156.16 138.649C155.183 136.402 150.965 130.71 149.152 131.498L133.759 126.225Z" fill="white"/>
<path d="M134.003 130.172C132.34 135.034 133.683 139.897 137.004 141.034C140.324 142.17 144.363 139.15 146.023 134.287C147.686 129.426 146.341 124.562 143.021 123.425C139.702 122.289 135.663 125.308 134.003 130.172Z" fill="#E6EDFF"/>
<path d="M148.872 131.402C148.946 131.335 149.019 131.268 149.092 131.199C148.93 131.136 148.774 131.101 148.628 131.101C148.496 131.101 148.371 131.13 148.256 131.19L146.724 130.665L148.872 131.402Z" fill="#252775"/>
<path d="M146.379 133.065C147.267 132.647 148.109 132.088 148.872 131.402L146.724 130.665C146.688 131.444 146.575 132.25 146.379 133.065Z" fill="#E0E6F1"/>
<path d="M134.91 126.619C134.799 126.375 134.571 126.216 134.262 126.121C134.276 126.219 134.293 126.316 134.311 126.413L134.91 126.619Z" fill="#252775"/>
<path d="M134.822 128.26C135.079 127.771 135.361 127.308 135.664 126.878L134.91 126.619V126.619L134.311 126.413C134.427 127.053 134.599 127.671 134.822 128.26Z" fill="#E0E6F1"/>
<path d="M142.631 133.926C143.914 133.926 145.189 133.624 146.38 133.065C146.576 132.25 146.689 131.444 146.725 130.665L135.665 126.878C135.362 127.308 135.08 127.771 134.823 128.26C135.749 130.703 137.565 132.651 140.026 133.493C140.882 133.786 141.758 133.926 142.631 133.926Z" fill="#CAD6F1"/>
<path d="M134.379 117.058C132.713 115.951 131.922 113.857 132.585 111.92C133.377 109.603 135.942 108.383 138.316 109.196C139.678 109.662 140.681 110.697 141.139 111.934L152.163 115.419C153.281 114.724 154.708 114.52 156.07 114.987C158.443 115.8 159.725 118.337 158.934 120.653C158.273 122.591 156.366 123.764 154.372 123.615L134.379 117.058Z" fill="white"/>
<path d="M133.886 118.803C131.998 124.325 134.941 130.335 140.458 132.225C145.977 134.116 151.98 131.169 153.869 125.646C155.756 120.121 152.812 114.114 147.295 112.222C141.776 110.331 135.773 113.279 133.886 118.803Z" fill="white"/>
<path d="M137.183 123.76C136.238 126.522 137.995 129.627 141.103 130.693C144.212 131.758 147.5 130.38 148.445 127.617C149.389 124.854 147.633 121.75 144.523 120.686C141.413 119.618 138.126 120.998 137.183 123.76Z" fill="#E6EDFF"/>
<path d="M141.756 121.466C141.524 122.145 142.289 123.02 143.467 123.424C144.645 123.828 145.787 123.603 146.018 122.925C146.249 122.247 145.484 121.371 144.306 120.968C143.129 120.564 141.988 120.788 141.756 121.466Z" fill="#4C4C4C"/>
<path d="M147.006 120.881C146.822 121.416 147.106 121.999 147.641 122.182C148.178 122.364 148.759 122.081 148.942 121.544C149.125 121.009 148.84 120.426 148.306 120.243C147.77 120.06 147.188 120.345 147.006 120.881Z" fill="#4C4C4C"/>
<path d="M140.482 118.647C140.3 119.182 140.584 119.765 141.12 119.948C141.654 120.131 142.236 119.846 142.42 119.31C142.603 118.774 142.32 118.192 141.782 118.009C141.248 117.825 140.665 118.111 140.482 118.647Z" fill="#4C4C4C"/>
<path d="M141.242 145.166C139.091 147.984 139.268 151.736 141.635 153.546C144.002 155.353 147.665 154.534 149.814 151.716C151.965 148.896 151.789 145.144 149.422 143.335C147.053 141.526 143.392 142.344 141.242 145.166Z" fill="#E6EDFF"/>
<path d="M143.494 146.62C142.307 148.176 142.405 150.248 143.712 151.245C145.017 152.245 147.039 151.791 148.226 150.234C149.413 148.679 149.315 146.608 148.009 145.61C146.703 144.612 144.681 145.063 143.494 146.62Z" fill="white"/>
<path d="M131.821 141.94C131.797 145.487 129.361 148.345 126.384 148.324C123.405 148.3 121.012 145.407 121.038 141.862C121.064 138.314 123.499 135.456 126.475 135.476C129.453 135.499 131.847 138.393 131.821 141.94Z" fill="#E6EDFF"/>
<path d="M129.152 141.707C129.137 143.666 127.793 145.243 126.147 145.232C124.505 145.219 123.184 143.622 123.199 141.665C123.212 139.706 124.557 138.129 126.201 138.141C127.844 138.154 129.165 139.75 129.152 141.707Z" fill="white"/>
<path d="M140.409 123.662C140.027 124.782 140.816 126.066 142.173 126.529C143.527 126.994 144.937 126.464 145.321 125.344L140.409 123.662Z" fill="#4C4C4C"/>
<path d="M98.7793 131.899C96.301 119.833 88.8082 111.179 84.351 112.098C79.8897 113.017 80.1485 123.159 82.628 135.225C85.1078 147.292 88.8709 156.712 93.3329 155.793C97.7893 154.875 101.261 143.966 98.7793 131.899Z" fill="#ECB49F"/>
<path d="M91.4468 126.932C93.0857 126.932 93.718 123.257 93.9387 119.496C92.9516 117.903 91.8969 116.522 90.834 115.397C89.7156 119.943 88.6824 126.108 91.0583 126.868C91.1936 126.911 91.3222 126.932 91.4468 126.932Z" fill="#E29871"/>
<path d="M95.0052 136.977C96.5714 136.976 97.6216 133.429 98.282 129.776C97.7399 127.703 97.0544 125.754 96.2693 123.956C94.4991 128.361 91.9966 135.735 94.5138 136.863C94.6828 136.94 94.8464 136.977 95.0052 136.977Z" fill="#E29871"/>
<path d="M97.0224 139.907H99.6074C99.605 138.471 99.5225 136.981 99.3478 135.456C98.5651 136.818 97.7249 138.377 97.0224 139.907Z" fill="#E29871"/>
<path d="M66.6479 118.204L74.6035 116.62C75.0917 116.524 80.2213 119.37 81.0528 120.25C81.6168 120.846 82.0244 121.603 82.1967 122.469L89.1386 157.418C89.6228 159.861 88.036 162.237 85.5958 162.722L74.105 165.008C71.6644 165.494 69.2928 163.906 68.8078 161.464L61.8668 126.515C61.6128 125.237 61.9271 123.977 62.6312 122.997C63.1067 122.335 66.1601 118.302 66.6479 118.204Z" fill="#7AB6F6"/>
<path d="M65.8282 139.907H66.974L78.3358 137.646L77.1356 131.6L64.6716 134.079L65.8282 139.907ZM73.9103 139.907H78.7844L78.5998 138.974L73.9103 139.907ZM82.3065 139.907H84.3581L83.9608 137.907L81.9877 138.3L82.3065 139.907ZM81.7234 136.972L83.6965 136.579L82.4966 130.534L80.5224 130.927L81.7234 136.972ZM64.408 132.753L76.8716 130.273L75.6714 124.227L63.2077 126.707L64.408 132.753ZM80.2584 129.598L82.2322 129.205L81.0324 123.16L79.0586 123.554L80.2584 129.598ZM63.1363 125.341L75.4075 122.899L75.1153 121.426C75.0173 120.936 75.3349 120.462 75.8235 120.365L77.4432 120.042C77.5019 120.03 77.5607 120.025 77.6195 120.025C78.0406 120.025 78.4176 120.321 78.5013 120.751L78.7943 122.225L80.5759 121.871C80.412 121.563 80.216 121.278 79.9925 121.025C79.2574 120.188 74.8268 117.473 74.2842 117.473C74.2767 117.473 74.2692 117.474 74.2628 117.475L67.2891 118.863C66.8605 118.947 64.2349 122.742 63.8257 123.365C63.4491 123.938 63.207 124.616 63.1363 125.341Z" fill="#AFD3FA"/>
<path d="M74.5277 116.637L73.8558 113.245C73.7589 112.757 73.2826 112.44 72.7968 112.536L66.7559 113.738C66.2677 113.835 65.9502 114.31 66.0478 114.798L66.7201 118.19L74.5277 116.637Z" fill="white"/>
<path d="M62.6181 126.824L81.6207 123.043L81.3572 121.716L62.3514 125.497L62.6181 126.824Z" fill="#7AB6F6"/>
<path d="M64.0807 134.197L83.085 130.416L82.8218 129.088L63.8176 132.871L64.0807 134.197Z" fill="#7AB6F6"/>
<path d="M65.5447 141.572L84.5482 137.79L84.285 136.463L65.2811 140.243L65.5447 141.572Z" fill="#7AB6F6"/>
<path d="M67.0104 148.945L86.0143 145.163L85.7507 143.836L66.7464 147.616L67.0104 148.945Z" fill="#7AB6F6"/>
<path d="M68.4727 156.32L87.4774 152.537L87.2123 151.209L68.21 154.992L68.4727 156.32Z" fill="#7AB6F6"/>
<path d="M69.9373 163.693L88.9416 159.91L88.6796 158.583L69.6741 162.365L69.9373 163.693Z" fill="#7AB6F6"/>
<path d="M78.7838 139.907H82.3059L81.9871 138.3L78.5992 138.974L78.7838 139.907ZM78.3352 137.646L81.7228 136.972L80.5218 130.927L77.135 131.6L78.3352 137.646ZM76.871 130.273L80.2578 129.598L79.058 123.553L75.6708 124.227L76.871 130.273ZM75.4069 122.899L78.7937 122.225L78.5007 120.751C78.417 120.321 78.04 120.025 77.6189 120.025C77.5601 120.025 77.5013 120.03 77.4426 120.042L75.8229 120.365C75.3343 120.462 75.0167 120.936 75.1147 121.425L75.4069 122.899Z" fill="#CFE5FC"/>
<path d="M75.6716 124.227L79.0588 123.554L78.7944 122.225L75.4076 122.899L75.6716 124.227Z" fill="#AFD3FA"/>
<path d="M77.1352 131.6L80.522 130.927L80.2581 129.598L76.8713 130.273L77.1352 131.6Z" fill="#AFD3FA"/>
<path d="M78.5991 138.974L81.9871 138.3L81.7227 136.972L78.3351 137.646L78.5991 138.974Z" fill="#AFD3FA"/>
<path d="M151.572 188.542H64.4825V139.907H151.572V188.542Z" fill="#7B5D7B"/>
<path d="M64.4825 188.116H64.6675C64.6056 188.055 64.5444 187.993 64.4825 187.931V188.116ZM86.8596 188.116H128.13C125.953 187.105 124.732 186.281 123.543 185.152C123.04 184.676 122.83 184.313 122.782 184.04H91.869C91.8789 184.319 91.7043 184.714 91.1363 185.267C90.0202 186.352 88.8755 187.149 86.8596 188.116ZM151.369 188.116H151.572V139.907H146.7V183.146C146.84 183.201 146.994 183.231 147.171 183.231C147.684 183.232 148.381 182.98 149.439 182.36C151.106 181.382 151.05 178.758 151.572 177.386V187.917C151.505 187.983 151.437 188.05 151.369 188.116ZM82.9779 186.602L89.6074 184.04H86.3985C85.1875 185.25 82.9779 186.602 82.9779 186.602ZM132.133 186.523C132.133 186.523 129.984 185.242 128.685 184.04H125.54L132.133 186.523ZM78.9521 184.653C78.9521 184.653 79.4823 184.39 80.2781 184.04H79.5955C79.2291 184.41 78.9521 184.653 78.9521 184.653ZM136.37 184.522C136.37 184.522 136.152 184.336 135.843 184.04H135.312C135.958 184.324 136.37 184.522 136.37 184.522Z" fill="#D95F54"/>
<path d="M148.604 139.046C148.604 139.046 149.271 140.743 149.601 141.504C150.579 143.75 152.837 144.934 154.649 144.145C156.46 143.357 157.137 140.895 156.16 138.648C155.183 136.402 150.965 130.71 149.152 131.498L148.604 139.046Z" fill="white"/>
<path d="M65.1155 188.542H85.9415C86.2674 188.396 86.5726 188.254 86.8592 188.116H64.667C64.8135 188.262 64.9615 188.406 65.1155 188.542Z" fill="#EF5E51"/>
<path d="M64.4824 184.04H79.5954C80.5301 183.096 82.0482 181.325 81.0274 180.671C80.8778 180.575 80.6916 180.532 80.4789 180.532C78.6666 180.532 74.9008 183.639 74.9008 183.639C74.9008 183.639 76.3701 180.058 75.5422 178.912C75.4064 178.723 75.2028 178.641 74.9532 178.641C73.6807 178.641 71.2075 180.777 70.4181 181.887C69.8259 182.716 69.504 183.394 68.6943 183.394C68.2077 183.394 67.5437 183.149 66.5403 182.544C64.9253 181.572 65.013 178.931 64.4824 177.617V184.04ZM80.278 184.04H86.3983C87.0247 183.414 87.383 182.827 87.0321 182.484C86.8008 182.35 86.4844 182.292 86.109 182.292C84.5134 182.292 81.8664 183.34 80.278 184.04ZM89.6073 184.04H91.8689C91.8514 183.539 91.241 183.409 91.241 183.409L89.6073 184.04Z" fill="#EF5E51"/>
<path d="M64.667 188.116H86.8591C88.875 187.148 90.0197 186.352 91.1358 185.267C91.7037 184.714 91.8784 184.319 91.8685 184.04H89.6069L82.9774 186.601C82.9774 186.601 85.187 185.25 86.3979 184.04H80.2776C79.4818 184.39 78.9516 184.653 78.9516 184.653C78.9516 184.653 79.2286 184.409 79.595 184.04H64.482V187.931C64.5439 187.993 64.605 188.055 64.667 188.116Z" fill="#D0503C"/>
<path d="M69.2134 191.996C62.999 191.154 59.5058 182.026 63.2987 179.337C67.0887 176.645 63.0284 182.443 65.6372 183.942C68.2473 185.445 68.497 184.565 69.4269 183.319C70.3557 182.074 73.6365 179.45 74.4414 180.525C75.2464 181.595 71.4908 184.079 72.6224 185.052C73.754 186.029 78.4073 181.308 79.7952 182.158C81.1832 183.007 75.9659 185.604 76.7954 186.333C77.6254 187.063 86.0759 182.378 86.622 182.95C87.169 183.519 81.2337 187.083 81.6885 187.704C82.1454 188.326 92.1124 183.996 92.1124 183.996C92.1124 183.996 93.5616 184.29 92.0081 185.733C90.4538 187.179 86.5081 188.784 82.4744 190.382C78.4434 191.976 73.0915 192.992 69.2134 191.996Z" fill="#ECB49F"/>
<path d="M129.077 188.542H150.909C151.067 188.406 151.219 188.262 151.369 188.116H128.13C128.427 188.254 128.741 188.396 129.077 188.542ZM122.782 184.04H125.54L123.434 183.246C123.434 183.246 122.671 183.404 122.782 184.04ZM128.685 184.04H135.312C133.702 183.333 130.635 182.1 128.836 182.1C128.441 182.1 128.107 182.16 127.863 182.298C127.466 182.675 127.934 183.345 128.685 184.04ZM135.844 184.04H146.7V183.146C146.166 182.936 145.851 182.359 145.357 181.683C144.524 180.545 141.92 178.353 140.58 178.353C140.318 178.353 140.103 178.437 139.961 178.631C139.09 179.809 140.637 183.482 140.637 183.482C140.637 183.482 136.671 180.293 134.765 180.293C134.54 180.293 134.345 180.337 134.187 180.435C133.055 181.143 134.886 183.119 135.844 184.04Z" fill="#EF5E51"/>
<path d="M128.13 188.116H151.369C151.437 188.049 151.505 187.983 151.572 187.917V177.385C151.05 178.757 151.106 181.382 149.439 182.359C148.381 182.979 147.684 183.232 147.171 183.231C146.994 183.231 146.84 183.201 146.7 183.146V184.04H135.843C136.152 184.336 136.37 184.522 136.37 184.522C136.37 184.522 135.958 184.324 135.312 184.04H128.685C129.984 185.241 132.133 186.523 132.133 186.523L125.54 184.04H122.782C122.83 184.313 123.04 184.676 123.543 185.152C124.732 186.281 125.953 187.105 128.13 188.116Z" fill="#D0503C"/>
<path d="M146.99 191.235C153.501 190.427 157.113 181.294 153.122 178.573C149.131 175.854 153.421 181.692 150.694 183.18C147.964 184.669 147.698 183.788 146.717 182.534C145.737 181.279 142.279 178.631 141.442 179.702C140.604 180.772 144.557 183.285 143.376 184.254C142.195 185.228 137.288 180.464 135.838 181.311C134.388 182.155 139.872 184.787 139.005 185.515C138.139 186.243 129.253 181.495 128.683 182.064C128.114 182.634 134.357 186.241 133.882 186.86C133.408 187.482 122.932 183.084 122.932 183.084C122.932 183.084 121.415 183.37 123.052 184.827C124.689 186.286 128.836 187.919 133.074 189.541C137.311 191.165 142.93 192.214 146.99 191.235Z" fill="#ECB49F"/>
<path d="M123.625 95.8799L126.029 98.5856C126.029 98.5856 121.821 104.6 109.806 104.901C97.79 105.201 91.4824 97.9853 91.4824 97.9853L94.7886 95.5799C94.7886 95.5799 111.91 107.006 123.625 95.8799Z" fill="white"/>
<path d="M175.183 99.3461C170.559 94.1591 167.837 101.131 167.837 101.131C167.837 101.131 168.851 93.7156 162.294 95.9899C155.736 98.2677 165.498 109.91 165.498 109.91L165.609 109.939C165.609 109.939 179.801 104.532 175.183 99.3461Z" fill="#FA7071"/>
<path d="M169.743 54.8979C178.866 54.8979 186.261 47.4954 186.261 38.3626C186.261 29.2294 178.866 21.8266 169.743 21.8266C160.621 21.8266 153.224 29.2294 153.224 38.3626C153.224 47.4954 160.621 54.8979 169.743 54.8979Z" fill="#F2A2AA"/>
<path d="M172.374 28.4841C172.599 28.4841 172.783 28.3013 172.785 28.0752C172.796 27.0597 171.978 26.2233 170.961 26.211C170.466 26.2293 170.002 26.3917 169.651 26.737C169.299 27.0823 169.102 27.5428 169.097 28.0363C169.095 28.2639 169.277 28.4503 169.505 28.4527C169.717 28.4801 169.918 28.2723 169.921 28.0446C169.924 27.7712 170.032 27.5162 170.226 27.3251C170.422 27.1352 170.677 27.0219 170.952 27.035C171.515 27.0418 171.968 27.5047 171.962 28.0677C171.959 28.2949 172.142 28.4817 172.37 28.4841H172.374Z" fill="white"/>
<path d="M169.509 28.4529C169.734 28.4529 169.918 28.2717 169.921 28.0448C169.927 27.5513 169.739 27.0853 169.394 26.7333C169.051 26.3804 168.589 26.1834 168.096 26.179C167.07 26.179 166.244 26.9923 166.233 28.0027C166.231 28.2308 166.413 28.4167 166.641 28.4199C166.87 28.4199 167.054 28.2383 167.057 28.0114C167.063 27.4528 167.519 27.003 168.077 27.003C168.361 27.0054 168.616 27.1147 168.806 27.3094C168.997 27.5048 169.101 27.7631 169.097 28.0365C169.095 28.2633 169.277 28.4505 169.505 28.4529H169.509Z" fill="white"/>
<path d="M166.646 30.3019C166.872 30.3019 167.055 30.1199 167.057 29.8938C167.068 28.8775 166.251 28.0395 165.235 28.0264C164.205 28.0022 163.381 28.8354 163.37 29.8529C163.367 30.0794 163.55 30.2669 163.777 30.2689C164.007 30.2689 164.19 30.0877 164.193 29.862C164.2 29.303 164.658 28.8513 165.216 28.8513C165.788 28.858 166.24 29.3221 166.234 29.8855C166.232 30.1131 166.414 30.2995 166.641 30.3019H166.646Z" fill="white"/>
<path d="M175.243 34.405C175.47 34.405 175.655 34.2215 175.655 33.9934L175.675 28.2045C175.68 27.7126 175.494 27.2465 175.15 26.8937C174.805 26.5409 174.345 26.343 173.852 26.3379C172.825 26.3379 171.998 27.1528 171.988 28.1639C171.985 28.3916 172.167 28.578 172.394 28.5803C172.625 28.5803 172.809 28.3992 172.811 28.1723C172.818 27.6101 173.285 27.1281 173.843 27.1627C174.115 27.1647 174.37 27.2747 174.56 27.4698C174.751 27.6653 174.854 27.9228 174.851 28.1946L174.832 33.9918C174.832 34.2199 175.027 34.4253 175.243 34.405Z" fill="white"/>
<path d="M172.378 36.7658C172.605 36.7658 172.789 36.5823 172.789 36.355L172.814 27.846C172.815 27.6188 172.63 27.4336 172.403 27.4332C172.176 27.4332 171.99 27.6172 171.99 27.844L171.965 36.3527C171.965 36.5799 172.149 36.7651 172.376 36.7658H172.378Z" fill="white"/>
<path d="M169.486 36.733C169.713 36.733 169.897 36.5499 169.897 36.323L169.924 27.8144C169.924 27.5867 169.74 27.402 169.513 27.4008C169.284 27.4008 169.1 27.5844 169.099 27.812L169.074 36.3198C169.072 36.5475 169.258 36.7322 169.484 36.733H169.486Z" fill="white"/>
<path d="M166.622 36.7C166.849 36.7 167.034 36.5169 167.035 36.29L167.059 27.7822C167.06 27.5545 166.876 27.3698 166.649 27.369C166.421 27.369 166.237 27.5521 166.235 27.7798L166.21 36.2872C166.209 36.5145 166.393 36.6996 166.621 36.7H166.622Z" fill="white"/>
<path d="M170.232 50.7714C172.115 50.7714 173.887 50.0351 175.22 48.697C176.552 47.3596 177.285 45.5812 177.285 43.6904L177.273 43.4154L177.286 41.7701V35.5652C177.285 34.5627 176.47 33.7478 175.47 33.7478C174.468 33.7478 173.653 34.5627 173.653 35.5656V38.3865C173.653 38.6142 173.838 38.7982 174.065 38.7982C174.292 38.7982 174.476 38.6142 174.476 38.3865V35.5656C174.476 35.0181 174.922 34.5727 175.47 34.5727C176.017 34.5727 176.462 35.0181 176.462 35.5656V43.7086C176.462 45.3615 175.814 46.9325 174.637 48.1149C173.46 49.2966 171.895 49.9473 170.232 49.9473C166.796 49.9473 164.002 47.1403 164.002 43.6904L164.04 40.1693L164.172 31.0572L164.195 29.9804C164.2 29.7524 164.019 29.5641 163.792 29.5593C163.553 29.5732 163.377 29.7349 163.372 29.9626L163.348 31.1192L163.178 43.6904C163.178 47.5948 166.342 50.7714 170.232 50.7714Z" fill="white"/>
<path d="M171.574 39.5232C172.4 39.5232 173.071 40.2829 173.071 41.2162C173.071 41.6767 172.911 42.1078 172.619 42.4292C172.375 42.6986 170.76 44.2172 169.887 45.0329C168.807 44.0384 167.28 42.6016 167.062 42.31C166.833 42.0053 166.707 41.6163 166.707 41.2162C166.707 40.2829 167.379 39.5232 168.205 39.5232C168.752 39.5232 169.255 39.8614 169.518 40.4053C169.587 40.5475 169.731 40.6381 169.889 40.6381C170.047 40.6381 170.19 40.5479 170.259 40.4061C170.524 39.8613 171.027 39.5232 171.574 39.5232ZM169.889 46.0063C169.989 46.0063 170.09 45.9693 170.17 45.8954C170.28 45.7929 172.875 43.3724 173.229 42.9839C173.658 42.5095 173.895 41.8825 173.895 41.2162C173.895 39.8283 172.853 38.6988 171.574 38.6988C170.927 38.6988 170.322 38.9884 169.889 39.4839C169.458 38.9892 168.854 38.6988 168.205 38.6988C166.925 38.6988 165.884 39.8283 165.884 41.2162C165.884 41.7939 166.068 42.3581 166.403 42.8051C166.766 43.2886 169.321 45.6324 169.611 45.8982C169.69 45.9709 169.789 46.0063 169.889 46.0063Z" fill="white"/>
<path d="M26.1369 83.2866C26.1369 92.9068 33.9281 100.705 43.5396 100.705C53.1518 100.705 60.9411 92.9068 60.9411 83.2866C60.9411 73.6655 53.1518 65.8649 43.5396 65.8649C33.9281 65.8649 26.1369 73.6655 26.1369 83.2866Z" fill="#F9C4C0"/>
<path d="M46.1233 89.2799H51.0636C52.0241 89.2799 52.8065 88.4971 52.8065 87.5352V79.929C52.8065 78.9675 52.0241 78.1843 51.0636 78.1843H46.0515V79.4204H51.0636C51.3446 79.4204 51.5709 79.6489 51.5709 79.929V87.5352C51.5709 87.8157 51.3446 88.0434 51.0636 88.0434H46.1233V88.6231L45.6311 88.2878L45.0604 89.227L46.1233 89.2799Z" fill="white"/>
<path d="M46.2429 87.4119C45.8567 87.9694 45.0783 88.4386 44.3179 88.5661C44.2865 88.5661 43.8416 88.5776 41.2332 88.5776C39.1415 88.5776 36.6588 88.5701 35.8872 88.5685L35.6462 88.5677C35.0414 88.5677 34.5493 88.147 34.5493 87.6304C34.5493 87.373 34.6719 87.1318 34.8934 86.9514C35.0879 86.7933 35.1665 86.5326 35.0946 86.2931C35.0224 86.0531 34.8124 85.8814 34.5627 85.8568C34.0091 85.8027 33.5915 85.4023 33.5915 84.9243C33.5915 84.4654 33.8642 84.1177 34.3044 84.0144C34.5866 83.9488 34.7858 83.6938 34.7818 83.4029C34.7767 83.1121 34.5686 82.8638 34.2837 82.807C33.8205 82.714 33.5327 82.3663 33.5327 81.8999C33.5327 81.5423 34.0134 81.0893 34.421 81.0643C34.7536 81.0433 35.01 80.762 35.0001 80.4278C34.9902 80.1338 34.7779 79.893 34.4996 79.8398C34.431 79.804 34.1706 79.6443 34.1706 79.2685C34.1706 78.7766 34.7246 78.3451 35.3553 78.3451L35.4875 78.3312H39.372C39.5634 78.3312 39.7428 78.2426 39.861 78.0916C39.9777 77.9402 40.0182 77.7431 39.971 77.5584L39.0199 73.8701C38.985 73.5447 38.9751 72.7464 39.1577 72.3296C39.4562 71.6482 39.9237 71.2847 40.1464 71.2847C40.2738 71.3936 40.2595 71.9375 40.2512 72.2287L40.2449 72.5641C40.2333 73.5614 41.3208 75.0203 41.969 75.8003C42.6775 76.6533 43.6677 77.5453 44.4643 78.2628L44.6795 78.4559C45.3058 79.0197 45.7011 79.4242 46.0436 79.8545C46.1571 79.9963 46.3199 80.3027 46.433 80.7405C46.5374 81.3397 46.3861 86.6308 46.2429 87.4119ZM41.2332 89.8141C44.3521 89.8141 44.4405 89.7998 44.5238 89.7851C45.6697 89.592 46.7715 88.8943 47.3308 88.0071C47.7229 87.3885 47.7162 80.7731 47.6285 80.431C47.4864 79.8827 47.2669 79.4035 47.0089 79.0813C46.6211 78.5958 46.1849 78.148 45.5058 77.5369L45.2907 77.3431C44.5246 76.6525 43.5693 75.7939 42.9192 75.0104C42.0805 74.0012 41.4748 72.9781 41.48 72.5768L41.4871 72.2613C41.5062 71.4917 41.5312 70.5338 40.6723 70.1571C39.794 69.7709 38.6016 70.5203 38.0261 71.8338C37.6475 72.6984 37.7911 73.9602 37.8086 74.1013L38.5762 77.0947H35.3553L35.2053 77.113C33.9602 77.1849 32.9362 78.1429 32.9362 79.2685C32.9362 79.6634 33.0465 79.9979 33.2116 80.2669C32.6758 80.6662 32.2984 81.284 32.2984 81.8999C32.2984 82.5094 32.5302 83.0501 32.9263 83.4395C32.5663 83.8261 32.3563 84.347 32.3563 84.9243C32.3563 85.7173 32.808 86.4146 33.4939 86.7949C33.3756 87.0571 33.3149 87.34 33.3149 87.6304C33.3149 88.8288 34.3607 89.8042 35.6462 89.8042L35.8844 89.805C36.6564 89.8073 39.1411 89.8141 41.2332 89.8141Z" fill="white"/>
</svg>
