<svg viewBox="0 0 245 200" fill="none" xmlns="http://www.w3.org/2000/svg">
<path d="M114.573 194.05C79.5662 201.307 41.6471 201.884 20.1948 175.663C8.89619 161.854 3.19092 138.203 5.28945 120.523C6.49723 110.359 24.7648 89.3673 31.9179 82.7224C35.1197 67.4151 17.5409 55.8001 20.141 39.201C22.7708 22.4167 41.9908 9.68279 59.1534 5.70066C102.046 -4.25137 151.097 0.871528 191.641 10.4383C209.13 14.5658 220.224 20.2757 227.695 36.2431C230.953 43.2058 233.476 50.9748 231.765 59.0722C230.379 65.6378 225.312 70.2367 222.817 76.693C216.87 92.0874 235.077 99.2778 240.747 113.435C246.296 127.286 245.571 145.625 236.921 158.295C228.364 170.829 215.019 179.2 201.412 186.133C191.122 191.378 173.339 200.879 161.233 199.011L114.573 194.05Z" fill="white"/>
<path d="M81.1116 121.906C80.8597 120.928 80.5815 119.966 80.2754 119.011C80.9209 119.519 81.5746 120.014 82.2358 120.5C81.8685 120.974 81.4924 121.443 81.1116 121.906Z" fill="#F3BFCC"/>
<path d="M86.852 67.747C86.0505 67.747 85.2804 67.6095 84.565 67.3574H89.139C88.4227 67.6095 87.6536 67.747 86.852 67.747Z" fill="#F5C3CE"/>
<path d="M65.9222 17.4447C65.9222 26.3961 58.6716 33.6512 49.7299 33.6512C40.7883 33.6512 33.5395 26.3961 33.5395 17.4447C33.5395 8.49163 40.7883 1.23697 49.7299 1.23697C58.6716 1.23697 65.9222 8.49163 65.9222 17.4447Z" fill="#4FAB8F"/>
<path d="M213.451 188.291C213.451 190.663 212.647 191.292 209.194 192.585C205.741 193.877 203.861 194.523 203.861 194.523C201.51 194.523 199.605 192.602 199.605 190.23V7.32706C199.605 4.9567 201.51 3.03284 203.861 3.03284C203.861 3.03284 205.476 2.8459 208.391 3.69424C211.306 4.54127 213.037 6.04711 213.037 8.41791L213.451 188.291Z" fill="#B0BCD8"/>
<path d="M206.495 190.856C206.495 192.961 204.988 194.666 203.141 194.666L148.01 175.567C146.163 175.567 144.664 173.862 144.664 171.758L142.94 21.7037C142.94 19.6 144.441 17.8959 146.288 17.8959L203.141 3.01749C204.988 3.01749 206.495 4.72291 206.495 6.82626V190.856Z" fill="#B0BCD8"/>
<path d="M213.02 185.276C213.02 187.647 212.217 188.276 208.763 189.569C205.311 190.861 203.431 191.507 203.431 191.507C201.08 191.507 199.175 189.585 199.175 187.215V4.31141C199.175 1.94105 201.08 0.0175798 203.431 0.0175798C203.431 0.0175798 205.046 -0.169747 207.96 0.678594C210.875 1.52562 212.606 3.03146 212.606 5.40226L213.02 185.276Z" fill="#61455F"/>
<path d="M159.395 168.343C161.689 157.279 170.011 139.071 162.6 127.396C150.627 108.526 137.595 130.831 134.299 142.078C133.878 133.729 141.546 106.402 129.126 103.654C116.451 100.849 117.772 127.168 125.938 132.681C119.227 116.816 93.9154 88.6066 75.6146 86.5566C59.2501 84.7479 61.8437 99.4884 69.6794 108.804C80.0216 121.072 94.2613 129.339 109.481 133.537C100.897 132.371 81.7007 129.309 80.7243 142.543C92.5988 150.904 112.929 148.52 126.493 151.945C118.601 153.989 99.9229 166.081 111.277 174.641C116.909 178.896 125.473 175.476 133.499 172.057C139.603 169.457 145.394 166.857 149.351 167.631L159.395 168.343Z" fill="#E7C264"/>
<path d="M122.43 164.284C122.458 163.939 122.474 163.592 122.481 163.242L139.957 152.551C135.145 148.17 130.476 144.024 125.968 140.11L80.8197 141.76C80.8604 141.461 80.9112 141.173 80.9707 140.892L125.016 139.283C115.318 130.891 106.385 123.585 98.4314 117.342L85.0405 122.46C84.7523 122.267 84.4694 122.063 84.1821 121.866L97.6387 116.722C93.1372 113.199 88.9563 110.021 85.1379 107.185L71.848 111.25C71.6329 111.018 71.4239 110.779 71.2122 110.544L84.2778 106.547C83.468 105.948 82.6713 105.362 81.8964 104.795L81.7473 104.804L81.7407 104.681C80.776 103.976 79.838 103.296 78.9285 102.639L78.7339 102.65L78.7256 102.494C72.2084 97.7975 67.1472 94.3783 63.7971 92.1808C63.8676 91.8858 63.9515 91.5982 64.053 91.3198C67.316 93.4555 72.2705 96.7955 78.6671 101.392L77.8952 86.952C78.1843 87.0151 78.4746 87.0807 78.7672 87.156L79.5631 102.037C80.2527 102.533 80.9615 103.048 81.6817 103.573L80.8347 87.7636C81.1264 87.8625 81.4211 87.9785 81.714 88.0862L82.5777 104.228C87.9834 108.186 94.2191 112.903 101.153 118.393L102.012 101.5C102.286 101.751 102.561 102.004 102.834 102.257L101.98 119.049C102.988 119.85 104.011 120.666 105.048 121.499L106.979 106.305C107.237 106.57 107.489 106.839 107.745 107.106L105.842 122.066L105.735 122.053C112.779 127.728 120.457 134.14 128.647 141.302L128.372 107.37C128.654 107.58 128.943 107.788 129.237 107.993L129.513 142.06C134.21 146.181 139.071 150.544 144.077 155.155L144.085 156.34C142.925 155.265 141.768 154.204 140.62 153.155L122.43 164.284Z" fill="#FFD6DB"/>
<path d="M206.064 187.84C206.064 189.946 204.557 191.651 202.71 191.651L147.579 172.552C145.732 172.552 144.234 170.846 144.234 168.742L142.51 18.6881C142.51 16.5852 144.01 14.8802 145.856 14.8802L202.71 0.00186157C204.557 0.00186157 206.064 1.7073 206.064 3.8102V187.84Z" fill="#7B5D7B"/>
<path d="M70.2876 198.601C57.5609 198.601 47.2431 197.956 47.2431 197.161C47.2431 196.365 57.5609 195.72 70.2876 195.72C83.0131 195.72 93.3299 196.365 93.3299 197.161C93.3299 197.956 83.0131 198.601 70.2876 198.601Z" fill="#E5EBFF"/>
<path d="M199.158 161.28C199.158 162.855 197.833 164.133 196.202 164.133L153.417 153.651C151.785 153.651 150.461 152.374 150.461 150.798L148.067 34.104C148.067 32.5295 149.392 31.25 151.023 31.25L196.202 20.4667C197.833 20.4667 199.158 21.7462 199.158 23.3208V161.28Z" fill="white"/>
<path d="M199.158 161.28C199.158 162.855 197.833 164.133 196.202 164.133L153.417 153.651C151.785 153.651 150.461 152.374 150.461 150.798L148.067 34.104C148.067 32.5295 149.392 31.25 151.023 31.25L196.202 20.4667C197.833 20.4667 199.158 21.7462 199.158 23.3208V161.28Z" fill="#F1E5C5"/>
<path d="M116.119 176.529C114.352 176.317 112.718 175.73 111.277 174.641C102.338 167.902 112.016 158.972 120.387 154.482C121.727 156.983 122.485 159.841 122.485 162.878C122.485 163 122.484 163.121 122.481 163.242L108.601 171.733C108.74 171.975 108.898 172.215 109.074 172.454L122.43 164.284C122.048 169.193 119.674 173.544 116.119 176.529ZM117.414 150.426C110.213 149.63 102.246 149.34 94.9815 147.96C97.7744 146.133 101.112 145.071 104.698 145.071C109.681 145.071 114.185 147.122 117.414 150.426Z" fill="#F498AB"/>
<path d="M109.073 172.454C108.897 172.215 108.74 171.975 108.601 171.733L122.481 163.242C122.474 163.591 122.457 163.939 122.43 164.284L109.073 172.454Z" fill="#F4C3D0"/>
<path d="M66.6883 195.713C65.4643 183.458 63.093 170.647 64.3532 158.223C64.6952 154.829 67.5817 139.658 73.0451 143.15C77.4315 145.956 74.5441 156.212 74.5118 160.475C74.4265 171.941 72.1614 184.323 69.0374 194.928L66.6883 195.713Z" fill="#2A2B7C"/>
<path d="M66.6883 195.712C66.0153 188.974 64.9956 182.067 64.4227 175.149C64.3948 174.8 64.3663 174.452 64.3401 174.103C64.1271 171.295 63.9938 168.486 63.9946 165.687C63.9955 163.188 64.1022 160.698 64.3532 158.223C64.6602 155.176 67.0193 142.632 71.453 142.632C71.9571 142.632 72.4871 142.794 73.0451 143.15C74.9298 144.357 75.4712 146.937 75.4738 149.827C75.4773 153.663 74.5297 158.044 74.5118 160.475C74.5039 161.521 74.4785 162.574 74.4357 163.634C74.2393 168.441 73.691 173.362 72.8837 178.208C71.9182 183.999 70.5832 189.681 69.0374 194.928L66.6883 195.712Z" fill="#6A6BA4"/>
<path d="M77.6451 169.809C74.8706 169.809 73.6781 176.441 73.037 180.001C72.87 180.936 72.7248 181.742 72.5866 182.279C72.1948 183.791 71.7444 185.36 71.3089 186.875C70.3394 190.233 69.3433 193.701 68.8623 197L75.7198 195.917L76.1042 195.735C78.445 194.641 80.8631 193.509 82.0429 191.313C82.7609 189.974 82.9066 188.699 82.4313 187.902C82.1374 187.412 81.6231 187.142 80.9799 187.142C80.4363 187.142 79.5448 187.333 78.3973 188.234L77.2289 189.151L77.7916 187.778C79.6566 183.239 83.4799 172.433 78.7257 170.093C78.3448 169.905 77.9823 169.809 77.6451 169.809ZM67.9479 197.938L68.0166 197.419C68.4705 193.906 69.5305 190.222 70.5563 186.658C70.9919 185.146 71.4409 183.584 71.8306 182.082C71.9604 181.574 72.1021 180.78 72.2696 179.864C73.0414 175.548 74.2155 169.028 77.6451 169.028C78.103 169.028 78.5827 169.148 79.0712 169.39C83.8988 171.768 81.3144 180.928 78.9802 186.917C79.6707 186.55 80.3462 186.36 80.9799 186.36C81.8955 186.36 82.6683 186.775 83.1012 187.501C83.7296 188.552 83.5957 190.076 82.7316 191.684C81.4294 194.109 78.7777 195.35 76.4378 196.444L75.8956 196.681L67.9479 197.938Z" fill="#55979B"/>
<path d="M68.1406 197.919C69.8573 190.019 65.9546 177.215 62.8398 169.618C61.8209 167.136 56.2853 158.917 52.7928 160.603C49.4676 162.211 54.0788 170.969 55.3491 173.004C54.4334 171.825 52.5338 170.801 50.6496 170.833C47.2248 170.887 47.9585 171.548 48.3005 174.353C48.8266 178.686 52.1066 181.095 55.1099 183.657C52.8723 182.816 49.3225 182.964 49.4418 186.227C49.5634 189.489 68.1406 197.919 68.1406 197.919Z" fill="#E7C264"/>
<path d="M41.0446 25.4513H45.6855V16.5966H41.0446V25.4513Z" fill="#E9F4FD"/>
<path d="M49.9949 25.5921C49.429 25.5921 48.8636 25.5895 48.2982 25.582C47.8478 25.5763 47.3642 25.5457 46.8919 25.4717V15.5249C47.672 14.7755 48.5374 13.9267 48.8645 13.5327C49.3206 12.9825 50.2525 11.745 50.2463 11.0569C50.2398 10.3692 50.1431 9.65614 50.6285 9.44384C50.7046 9.41013 50.7864 9.39438 50.8708 9.39438C51.3404 9.39438 51.9049 9.88903 52.229 10.631C52.5088 11.271 52.3781 12.3277 52.3781 12.3277L51.5473 15.549L55.527 15.5752V15.6427H57.9036C58.5088 15.6427 59.0008 16.1342 59.0008 16.7409V16.9498C59.0008 17.5565 58.5088 18.048 57.9036 18.048H55.527V18.1531H57.9036C58.5088 18.1531 59.0008 18.6447 59.0008 19.2518V19.4607C59.0008 20.0674 58.5088 20.5589 57.9036 20.5589H55.527V20.6631H57.9036C58.5088 20.6631 59.0008 21.1547 59.0008 21.7623V21.9711C59.0008 22.5774 58.5088 23.0703 57.9036 23.0703H55.527V23.174H57.3959C57.9434 23.174 58.3873 23.6656 58.3873 24.2723V24.482C58.3873 25.0887 57.9434 25.5803 57.3959 25.5803H55.1111C54.9952 25.5803 54.8868 25.554 54.7836 25.5142L54.8033 25.5711C54.3188 25.5711 53.836 25.5763 53.3532 25.5781C52.2338 25.582 51.1143 25.5921 49.9949 25.5921Z" fill="#E9F4FD"/>
<path d="M22.501 103.344C22.501 109.293 17.6843 114.115 11.7429 114.115C5.80111 114.115 0.984399 109.293 0.984399 103.344C0.984399 97.3964 5.80111 92.5742 11.7429 92.5742C17.6843 92.5742 22.501 97.3964 22.501 103.344Z" fill="#4FAB8F"/>
<path d="M13.9563 110.587V110.22H10.9613V110.587C8.43249 109.915 6.56574 107.583 6.56574 104.811H18.3523C18.3523 107.583 16.4851 109.916 13.9563 110.587Z" fill="#E9F4FD"/>
<path d="M13.956 111.393H10.961V110.221H13.956V111.393Z" fill="#E9F4FD"/>
<path d="M10.3533 102.626C10.3533 102.626 8.04754 101.636 9.69436 99.3287C11.3421 97.0191 9.3655 94.7113 9.3655 94.7113C9.3655 94.7113 13.6478 96.6904 12.0001 99.6587C10.3533 102.626 10.3533 102.626 10.3533 102.626Z" fill="#E9F4FD"/>
<path d="M13.7872 102.339C13.7872 102.339 12.2899 101.696 13.36 100.196C14.4304 98.6979 13.1457 97.1982 13.1457 97.1982C13.1457 97.1982 15.9277 98.483 14.8577 100.411C13.7872 102.339 13.7872 102.339 13.7872 102.339Z" fill="#E9F4FD"/>
<path d="M52.3419 147.142C44.1826 147.142 37.5665 140.52 37.5665 132.351C37.5665 124.182 44.1826 117.56 52.3419 117.56C60.5025 117.56 67.1169 124.182 67.1169 132.351C67.1169 140.52 60.5025 147.142 52.3419 147.142Z" fill="#EBD2E0"/>
<path d="M89.7611 68.3149C91.4233 68.5456 90.8312 77.0898 94.7239 81.6025C98.6197 86.1134 89.8184 80.3974 89.8184 80.3974C89.8184 80.3974 89.612 78.6092 89.1411 75.3931C88.6937 71.0845 87.0106 67.9323 89.7611 68.3149Z" fill="#F9C9B7"/>
<path d="M131.902 84.9743C131.902 84.9743 129.135 83.314 129.322 98.0711L151.247 102.313L148.672 87.1867L131.902 84.9743Z" fill="#BFD4F8"/>
<path d="M73.3393 70.4303L84.0833 79.0122L92.0183 82.8897L79.428 71.2585C79.428 71.2585 76.9176 68.9621 73.3393 70.4303Z" fill="#F9C9B7"/>
<path d="M62.3399 66.1189C62.3399 49.9322 75.4492 36.8087 91.6209 36.8087C107.791 36.8087 120.902 49.9322 120.902 66.1189H62.3399Z" fill="#5F67A0"/>
<path d="M103.865 69.6784C103.865 69.6784 104.569 69.6429 104.172 72.848C103.777 76.0562 105.425 79.3883 106.904 80.663C108.386 81.9404 112.256 83.4112 111.172 88.0009L125.221 87.3872L119.39 96.1853C119.39 96.1853 110.06 97.0293 103.775 94.5416C97.4907 92.0517 89.2068 85.7412 89.2068 85.7412L79.8462 69.3869C79.8462 69.3869 82.916 68.2238 85.0954 71.3961C87.2749 74.5692 90.8405 80.5654 90.8405 80.5654C90.8405 80.5654 96.0315 84.544 99.4349 82.312C102.84 80.08 100.509 76.8941 100.319 73.9538C100.128 71.0148 101.471 69.5435 103.865 69.6784Z" fill="#F9C9B7"/>
<path d="M109.881 85.988L124.807 88.5707L119.463 98.162L110.065 92.998L109.881 85.988Z" fill="#E7C264"/>
<path d="M123.886 87.0937L115.962 85.4342L112.462 97.6091L127.204 99.4537L123.886 87.0937Z" fill="#BFD4F8"/>
<path d="M119.649 83.9591L115.777 99.6377L199 116.5V93.5L119.649 83.9591Z" fill="#EA5A63"/>
<path d="M56.4436 67.3574H130.152V65.6966H56.4436V67.3574Z" fill="#2E3054"/>
<path d="M122.045 67.1727C122.045 67.1727 120.939 67.5413 120.202 69.2021H63.2625C62.5248 67.5413 61.4185 67.1727 61.4185 67.1727H122.045Z" fill="#3D4166"/>
<path d="M77.4452 65.6966H74.1279L70.8159 65.5114C70.8159 65.5114 68.9715 47.2506 91.085 37.8427C91.085 37.8427 77.1802 48.4649 77.4452 65.6966Z" fill="#8F95BD"/>
<path d="M77.4485 65.8822L74.1282 65.6966H77.4455C77.4468 65.7579 77.4481 65.8209 77.4485 65.8822Z" fill="#6D6F88"/>
<path d="M92.5599 35.8132C92.5599 36.6279 91.9 37.2889 91.0854 37.2889C90.272 37.2889 89.6125 36.6279 89.6125 35.8132C89.6125 34.9986 90.272 34.3376 91.0854 34.3376C91.9 34.3376 92.5599 34.9986 92.5599 35.8132Z" fill="#5F67A0"/>
<path d="M91.0866 29.4031C89.5876 29.4031 88.3675 30.6243 88.3675 32.1258C88.3675 33.6259 89.5876 34.8468 91.0866 34.8468C92.5856 34.8468 93.8043 33.6259 93.8043 32.1258C93.8043 30.6243 92.5856 29.4031 91.0866 29.4031ZM91.0866 35.6759C89.1306 35.6759 87.5394 34.0825 87.5394 32.1258C87.5394 30.1678 89.1306 28.5744 91.0866 28.5744C93.0417 28.5744 94.6325 30.1678 94.6325 32.1258C94.6325 34.0825 93.0417 35.6759 91.0866 35.6759Z" fill="#5F67A0"/>
<path d="M164.885 126.293C164.885 126.293 164.885 96.9628 164.885 92.9062C164.885 88.8471 161.938 88.6637 161.938 88.6637L131.902 84.9744C131.902 84.9744 136.51 85.7111 136.51 89.7694C136.51 93.8282 136.878 122.42 136.878 122.42L164.885 126.293Z" fill="white"/>
<path d="M11.2673 63.6571C8.39001 63.6571 6.0593 61.3222 6.0593 58.4432C6.0593 55.5628 8.39001 53.2279 11.2673 53.2279C14.1434 53.2279 16.4759 55.5628 16.4759 58.4432C16.4759 61.3222 14.1434 63.6571 11.2673 63.6571ZM11.2673 50.1002C6.66274 50.1002 2.93271 53.8346 2.93271 58.4432C2.93271 63.0504 11.2673 75.649 11.2673 75.649C11.2673 75.649 19.6002 63.0504 19.6002 58.4432C19.6002 53.8346 15.8698 50.1002 11.2673 50.1002Z" fill="#FA7071"/>
<path d="M98.2563 17.7308L96.1018 16.6845L94.0177 17.8691L94.3457 15.4935L92.5751 13.8765L94.9352 13.4536L95.9248 11.2684L97.0542 13.3831L99.4357 13.6515L97.7753 15.3797L98.2563 17.7308Z" fill="#FA7071"/>
<path d="M107.039 17.7308L104.882 16.6845L102.8 17.8691L103.127 15.4935L101.355 13.8765L103.715 13.4536L104.705 11.2684L105.835 13.3831L108.218 13.6515L106.556 15.3797L107.039 17.7308Z" fill="#FA7071"/>
<path d="M115.819 17.7308L113.662 16.6845L111.577 17.8691L111.907 15.4935L110.137 13.8765L112.497 13.4536L113.486 11.2684L114.617 13.3831L116.999 13.6515L115.338 15.3797L115.819 17.7308Z" fill="#FA7071"/>
<path d="M124.599 17.7308L122.444 16.6845L120.36 17.8691L120.688 15.4935L118.918 13.8765L121.276 13.4536L122.267 11.2684L123.397 13.3831L125.779 13.6515L124.118 15.3797L124.599 17.7308Z" fill="#FA7071"/>
<path d="M133.727 17.7308L131.571 16.6845L129.487 17.8691L129.815 15.4935L128.044 13.8765L130.403 13.4536L131.393 11.2684L132.522 13.3831L134.905 13.6515L133.245 15.3797L133.727 17.7308Z" fill="#FA7071"/>
<path d="M43.5392 129.416C43.3164 129.416 43.1317 129.239 43.1247 129.014L43.0113 125.106C43.0047 124.877 43.1838 124.686 43.4131 124.68C43.6644 124.68 43.8338 124.853 43.8404 125.082L43.9537 128.989C43.9603 129.218 43.7804 129.41 43.5519 129.416H43.5392Z" fill="#6064BA"/>
<path d="M41.2706 129.455C41.0227 129.444 40.8456 129.25 40.8574 129.021L41.0401 125.075C41.0493 124.846 41.2514 124.669 41.4726 124.68C41.7 124.691 41.8776 124.885 41.8666 125.113L41.6834 129.059C41.6738 129.281 41.4906 129.455 41.2706 129.455Z" fill="#6064BA"/>
<path d="M42.3487 129.417C42.1075 129.41 41.9276 129.219 41.9342 128.99L42.0489 125.082C42.0563 124.853 42.2551 124.681 42.4757 124.68C42.7046 124.686 42.8841 124.877 42.8775 125.106L42.7633 129.015C42.7567 129.239 42.5715 129.417 42.3487 129.417Z" fill="#6064BA"/>
<path d="M44.6892 129.404C44.4679 129.404 44.2856 129.23 44.2751 129.008L44.1037 125.113C44.0936 124.884 44.2707 124.69 44.4985 124.68C44.7587 124.664 44.9209 124.848 44.9314 125.076L45.1033 128.971C45.1129 129.2 44.9358 129.393 44.7071 129.403L44.6892 129.404Z" fill="#6064BA"/>
<path d="M41.7151 129.453C41.8257 130.3 42.2871 130.81 42.9727 130.81C43.6575 130.81 44.1171 130.3 44.2277 129.453H41.7151ZM42.9727 131.639C41.9211 131.639 40.8611 130.834 40.8611 129.039C40.8611 128.809 41.0456 128.625 41.2752 128.625H44.6676C44.8972 128.625 45.0818 128.809 45.0818 129.039C45.0818 130.834 44.0226 131.639 42.9727 131.639Z" fill="#6064BA"/>
<path d="M43.098 133.831C42.7988 135.695 42.4809 137.817 42.4809 138.373C42.4809 139.29 42.8518 139.897 43.098 139.897C43.3428 139.897 43.7132 139.29 43.7132 138.373C43.7132 137.817 43.3962 135.695 43.098 133.831ZM43.098 140.726C42.2741 140.726 41.6532 139.715 41.6532 138.373C41.6532 137.28 42.6476 131.472 42.6895 131.225C42.7245 131.026 42.8968 130.881 43.098 130.881C43.2991 130.881 43.4714 131.026 43.5059 131.225C43.5484 131.472 44.5414 137.28 44.5414 138.373C44.5414 139.715 43.9209 140.726 43.098 140.726Z" fill="#6064BA"/>
<path d="M62.1258 125.859C61.751 127.067 61.2845 129.801 61.2036 130.765C61.0982 132.005 61.2731 133.354 61.8997 133.572L62.1044 133.628C62.2146 133.648 62.3064 133.709 62.3676 133.794C62.3576 133.717 62.3488 133.638 62.3388 133.559L62.3488 133.407C62.4166 133.14 62.4437 132.715 62.4752 132.223L62.4918 131.974C62.5815 130.636 62.4013 127.259 62.1258 125.859ZM62.4192 134.233C62.0759 136.452 61.884 137.91 61.8757 138.344C61.8578 139.318 62.1971 139.862 62.3191 139.876C62.4406 139.864 62.7992 139.327 62.8154 138.361C62.8241 137.922 62.6833 136.466 62.4192 134.233ZM62.3191 140.705C61.5512 140.69 61.0229 139.69 61.0479 138.33C61.0562 137.861 61.2298 136.517 61.5661 134.332C60.2625 133.808 60.3001 131.622 60.3788 130.695C60.3836 130.638 61.0195 124.897 62.0147 124.574C62.1962 124.517 62.424 124.58 62.5631 124.728C63.2571 125.471 63.3878 130.986 63.3183 132.029L63.3016 132.276C63.2684 132.789 63.2431 133.203 63.1692 133.533C63.3953 135.397 63.6554 137.719 63.6436 138.376C63.6235 139.533 63.1617 140.705 62.3191 140.705Z" fill="#6064BA"/>
<path d="M52.4497 126.192C48.9029 126.192 46.0172 129.081 46.0172 132.631C46.0172 136.182 48.9029 139.071 52.4497 139.071C55.9969 139.071 58.8826 136.182 58.8826 132.631C58.8826 129.081 55.9969 126.192 52.4497 126.192ZM52.4497 139.9C48.4463 139.9 45.189 136.639 45.189 132.631C45.189 128.624 48.4463 125.363 52.4497 125.363C56.4539 125.363 59.7108 128.624 59.7108 132.631C59.7108 136.639 56.4539 139.9 52.4497 139.9Z" fill="#6064BA"/>
<path d="M52.4503 128.44C50.1423 128.44 48.2641 130.321 48.2641 132.631C48.2641 134.943 50.1423 136.823 52.4503 136.823C54.7596 136.823 56.6381 134.943 56.6381 132.631C56.6381 130.321 54.7596 128.44 52.4503 128.44ZM52.4503 137.651C49.6849 137.651 47.4364 135.399 47.4364 132.631C47.4364 129.864 49.6849 127.612 52.4503 127.612C55.2157 127.612 57.4664 129.864 57.4664 132.631C57.4664 135.399 55.2157 137.651 52.4503 137.651Z" fill="#6064BA"/>
</svg>
