<svg xmlns="http://www.w3.org/2000/svg" fill="none" width="133" height="112" style=""><rect id="backgroundrect" width="100%" height="100%" x="0" y="0" fill="none" stroke="none"/>


<g class="currentLayer" style=""><title>Layer 1</title><path d="M124.083 81.7612C134.463 69.8897 134.611 55.7344 128.183 42.5511C125.791 37.6447 121.522 34.0255 116.124 32.4559C111.084 30.9901 107.27 31.7701 103.692 27.8075C97.2771 20.7025 101.964 8.11048 91.4674 3.99803C84.1431 1.12844 76.1758 -1.53279 68.6677 1.08371C64.9255 2.38805 59.3861 5.69469 54.4426 8.65125C50.5691 10.9672 44.5449 15.1696 39.8072 16.116C33.1878 17.4383 26.7675 17.8008 20.3854 20.2096C14.484 22.4382 4.37962 24.4335 1.69448 30.9247C-0.430943 36.0636 1.75534 40.941 4.89503 44.7165C8.76819 49.3736 11.5878 54.8653 16.1639 59.1425C21.7788 64.391 17.738 72.4211 18.6012 79.5692C19.1516 84.1315 21.1184 88.9574 23.6619 92.9977C26.2576 97.1219 28.6815 101.38 32.9691 103.913C36.39 105.934 41.3706 107.737 45.2778 109.102C51.2844 111.201 57.7663 111.905 64.2713 111.613C71.9477 111.27 79.2479 111.369 86.0917 107.796C100.258 100.401 120.414 85.9578 124.083 81.7612Z" fill="#FDEA59" id="svg_1"/><g clip-path="url(#clip0)" id="svg_2" class="">
<path d="M92.5626063659668,56.30994331054687 C92.0868063659668,51.43324331054687 89.9484063659668,46.83564331054687 86.54120636596679,43.36414331054688 C83.62950636596679,40.39754331054688 80.0656063659668,38.491143310546875 76.3156063659668,37.64344331054687 V34.96369331054687 C77.8472063659668,34.57546331054687 78.98570636596679,33.16289331054688 78.98570636596679,31.483913310546875 C78.98570636596679,29.506553310546874 77.40690636596679,27.897923310546876 75.4661063659668,27.897923310546876 H68.0129063659668 C66.07220636596679,27.897923310546876 64.49330636596679,29.506553310546874 64.49330636596679,31.483913310546875 C64.49330636596679,33.162793310546874 65.6318063659668,34.57535331054687 67.1633063659668,34.96369331054687 V37.65094331054688 C63.4248063659668,38.50224331054687 59.87270636596679,40.405943310546874 56.9693063659668,43.364243310546875 C56.3339063659668,44.01154331054688 55.7480063659668,44.69074331054688 55.211606365966794,45.396543310546875 C55.185706365966794,45.39454331054688 55.1597063659668,45.39254331054687 55.1332063659668,45.39254331054687 H47.7564363659668 C47.184816365966796,45.39254331054687 46.7212663659668,45.86474331054687 46.7212663659668,46.447243310546874 C46.7212663659668,47.02974331054688 47.184816365966796,47.50194331054688 47.7564363659668,47.50194331054688 H53.8031063659668 C53.0441063659668,48.79654331054687 52.432106365966796,50.156143310546874 51.9663063659668,51.55574331054687 H40.6999763659668 C40.128356365966795,51.55574331054687 39.6648063659668,52.027943310546874 39.6648063659668,52.61044331054687 C39.6648063659668,53.19294331054688 40.128356365966795,53.665143310546874 40.6999763659668,53.665143310546874 H51.38130636596679 C51.083006365966796,54.99944331054688 50.91170636596679,56.35744331054687 50.8675063659668,57.719143310546876 H46.2899063659668 C45.7182863659668,57.719143310546876 45.2547363659668,58.19134331054687 45.2547363659668,58.77384331054688 C45.2547363659668,59.356343310546876 45.7182863659668,59.82854331054688 46.2899063659668,59.82854331054688 H50.900606365966794 C50.98790636596679,61.19374331054688 51.203306365966796,62.55184331054687 51.5469063659668,63.88254331054687 H44.8406663659668 C44.269046365966794,63.88254331054687 43.805496365966796,64.35474331054687 43.805496365966796,64.93724331054688 C43.805496365966796,65.51974331054687 44.269046365966794,65.99194331054687 44.8406663659668,65.99194331054687 H52.2076063659668 C53.2231063659668,68.72894331054687 54.810106365966796,71.29434331054688 56.9693063659668,73.49424331054688 C60.3797063659668,76.96904331054688 64.8968063659668,79.14834331054688 69.68820636596679,79.63064331054687 C70.3721063659668,79.69934331054688 71.0564063659668,79.73344331054687 71.7398063659668,79.73344331054687 C75.77930636596679,79.73344331054687 79.76740636596679,78.54234331054687 83.1514063659668,76.29714331054687 C83.63040636596679,75.97924331054688 83.7659063659668,75.32584331054687 83.45390636596679,74.83774331054687 C83.1419063659668,74.34964331054687 82.5006063659668,74.21154331054687 82.02160636596679,74.52944331054687 C74.6142063659668,79.44404331054687 64.6938063659668,78.38144331054687 58.4332063659668,72.00264331054687 C51.0874063659668,64.51824331054686 51.0874063659668,52.34034331054687 58.4332063659668,44.855843310546874 C65.7789063659668,37.371543310546876 77.73130636596679,37.371543310546876 85.07720636596679,44.855843310546874 C91.32950636596681,51.22624331054688 92.3782063659668,61.32514331054688 87.57050636596679,68.86864331054687 C87.2591063659668,69.35714331054687 87.3955063659668,70.01044331054688 87.8748063659668,70.32764331054688 C88.35460636596679,70.64484331054688 88.9955063659668,70.50594331054688 89.30680636596679,70.01744331054687 C91.8755063659668,65.98684331054687 93.03180636596679,61.11884331054687 92.5626063659668,56.30994331054687 zM66.5637063659668,31.484013310546874 C66.5637063659668,30.669783310546876 67.2137063659668,30.007433310546876 68.0129063659668,30.007433310546876 H75.4661063659668 C76.2653063659668,30.007433310546876 76.91540636596679,30.669783310546876 76.91540636596679,31.484013310546874 C76.91540636596679,32.298253310546876 76.2653063659668,32.96060331054687 75.4661063659668,32.96060331054687 H75.2804063659668 H68.1985063659668 H68.0129063659668 C67.2137063659668,32.96060331054687 66.5637063659668,32.29814331054688 66.5637063659668,31.484013310546874 zM69.2337063659668,37.28834331054688 V35.07001331054688 H74.2453063659668 V37.28454331054687 C72.5811063659668,37.082943310546874 70.89750636596679,37.08414331054688 69.2337063659668,37.28834331054688 z" fill="#61455F" id="svg_3"/>
<path d="M85.8096063659668,71.69324331054688 C85.5364063659668,71.69324331054688 85.2703063659668,71.80604331054687 85.0779063659668,72.00224331054687 C84.8843063659668,72.19844331054688 84.7745063659668,72.47054331054687 84.7745063659668,72.74794331054687 C84.7745063659668,73.02524331054687 84.8843063659668,73.29734331054688 85.0779063659668,73.49354331054687 C85.2703063659668,73.69074331054688 85.5365063659668,73.80254331054687 85.8096063659668,73.80254331054687 C86.0819063659668,73.80254331054687 86.3479063659668,73.69074331054688 86.5415063659668,73.49354331054687 C86.73400636596679,73.29734331054688 86.8448063659668,73.02524331054687 86.8448063659668,72.74794331054687 C86.8448063659668,72.47054331054687 86.7341063659668,72.19844331054688 86.5415063659668,72.00224331054687 C86.3479063659668,71.80604331054687 86.0818063659668,71.69324331054688 85.8096063659668,71.69324331054688 z" fill="#61455F" id="svg_4"/>
<path d="M71.75530636596679,42.06764331054688 C62.900606365966794,42.06764331054688 55.6967063659668,49.407243310546875 55.6967063659668,58.42914331054688 C55.6967063659668,67.45094331054688 62.900606365966794,74.79064331054687 71.75530636596679,74.79064331054687 C80.6099063659668,74.79064331054687 87.8138063659668,67.45094331054688 87.8138063659668,58.42914331054688 C87.8138063659668,49.407243310546875 80.6099063659668,42.06764331054688 71.75530636596679,42.06764331054688 zM71.75530636596679,72.68124331054688 C64.0421063659668,72.68124331054688 57.7671063659668,66.28774331054687 57.7671063659668,58.42914331054688 C57.7671063659668,50.570543310546874 64.0421063659668,44.17704331054688 71.75530636596679,44.17704331054688 C79.4684063659668,44.17704331054688 85.74340636596679,50.570543310546874 85.74340636596679,58.42914331054688 C85.74340636596679,66.28774331054687 79.4684063659668,72.68124331054688 71.75530636596679,72.68124331054688 z" fill="#61455F" id="svg_5"/>
<path d="M78.30330636596679,50.265943310546874 L73.1761063659668,55.48974331054687 C72.7474063659668,55.27374331054688 72.2651063659668,55.15174331054688 71.75530636596679,55.15174331054688 C71.2453063659668,55.15174331054688 70.7632063659668,55.27374331054688 70.3344063659668,55.48974331054687 L68.0397063659668,53.15174331054688 C67.6354063659668,52.73994331054688 66.9801063659668,52.73994331054688 66.5757063659668,53.15174331054688 C66.17140636596679,53.56364331054688 66.17140636596679,54.23144331054688 66.5757063659668,54.643343310546875 L68.8703063659668,56.981343310546876 C68.6582063659668,57.418143310546874 68.5386063659668,57.90954331054688 68.5386063659668,58.429043310546874 C68.5386063659668,60.23614331054687 69.9815063659668,61.70634331054688 71.75530636596679,61.70634331054688 C73.5290063659668,61.70634331054688 74.97200636596679,60.23614331054687 74.97200636596679,58.429043310546874 C74.97200636596679,57.90954331054688 74.8522063659668,57.418143310546874 74.6402063659668,56.981343310546876 L79.6169063659668,51.91074331054688 L79.76730636596679,51.757443310546876 C80.17150636596679,51.345643310546876 80.17150636596679,50.67774331054687 79.76730636596679,50.265943310546874 C79.3631063659668,49.85404331054687 78.7078063659668,49.85404331054687 78.30330636596679,50.265943310546874 zM71.75530636596679,59.59704331054687 C71.1232063659668,59.59704331054687 70.60890636596679,59.073143310546875 70.60890636596679,58.42914331054688 C70.60890636596679,57.78514331054687 71.1232063659668,57.26114331054687 71.75530636596679,57.26114331054687 C72.3873063659668,57.26114331054687 72.9016063659668,57.78514331054687 72.9016063659668,58.42914331054688 C72.9016063659668,59.073143310546875 72.3873063659668,59.59704331054687 71.75530636596679,59.59704331054687 z" fill="#61455F" id="svg_6"/>
<path d="M82.8232063659668,57.387143310546875 H81.86410636596679 C81.2925063659668,57.387143310546875 80.82900636596679,57.859343310546876 80.82900636596679,58.44184331054687 C80.82900636596679,59.024343310546875 81.2925063659668,59.496543310546876 81.86410636596679,59.496543310546876 H82.8232063659668 C83.39480636596679,59.496543310546876 83.8583063659668,59.024343310546875 83.8583063659668,58.44184331054687 C83.8583063659668,57.859343310546876 83.39480636596679,57.387143310546875 82.8232063659668,57.387143310546875 z" fill="#61455F" id="svg_7"/>
<path d="M61.646306365966794,57.36154331054688 H60.6873063659668 C60.1157063659668,57.36154331054688 59.6521063659668,57.83374331054688 59.6521063659668,58.416243310546875 C59.6521063659668,58.99874331054688 60.1157063659668,59.47094331054687 60.6873063659668,59.47094331054687 H61.646306365966794 C62.2179063659668,59.47094331054687 62.681406365966794,58.99874331054688 62.681406365966794,58.416243310546875 C62.681406365966794,57.83374331054688 62.2179063659668,57.36154331054688 61.646306365966794,57.36154331054688 z" fill="#61455F" id="svg_8"/>
<path d="M71.7679063659668,49.184043310546876 C72.3395063659668,49.184043310546876 72.8030063659668,48.711843310546875 72.8030063659668,48.12934331054687 V47.152343310546875 C72.8030063659668,46.56984331054687 72.3395063659668,46.09764331054687 71.7679063659668,46.09764331054687 C71.1962063659668,46.09764331054687 70.7327063659668,46.56984331054687 70.7327063659668,47.152343310546875 V48.12934331054687 C70.7327063659668,48.711843310546875 71.1962063659668,49.184043310546876 71.7679063659668,49.184043310546876 z" fill="#61455F" id="svg_9"/>
<path d="M71.7426063659668,67.67404331054688 C71.1710063659668,67.67404331054688 70.7075063659668,68.14624331054688 70.7075063659668,68.72874331054688 V69.70584331054687 C70.7075063659668,70.28834331054688 71.1710063659668,70.76044331054688 71.7426063659668,70.76044331054688 C72.3142063659668,70.76044331054688 72.7778063659668,70.28834331054688 72.7778063659668,69.70584331054687 V68.72874331054688 C72.7778063659668,68.14624331054688 72.3142063659668,67.67404331054688 71.7426063659668,67.67404331054688 z" fill="#61455F" id="svg_10"/>
<path d="M40.699966365966795,63.88214331054687 C40.427716365966795,63.88214331054687 40.1606463659668,63.995043310546876 39.968107365966794,64.19124331054687 C39.7755683659668,64.38734331054687 39.6648063659668,64.65944331054688 39.6648063659668,64.93684331054688 C39.6648063659668,65.21534331054687 39.7754643659668,65.48634331054689 39.968107365966794,65.68254331054688 C40.160749365966794,65.87874331054687 40.427716365966795,65.99154331054687 40.699966365966795,65.99154331054687 C40.9722063659668,65.99154331054687 41.239276365966795,65.87874331054687 41.4317163659668,65.68254331054688 C41.624256365966794,65.48634331054689 41.735116365966796,65.21424331054688 41.735116365966796,64.93684331054688 C41.735116365966796,64.65944331054688 41.6243563659668,64.38734331054687 41.4317163659668,64.19124331054687 C41.239276365966795,63.995043310546876 40.9722063659668,63.88214331054687 40.699966365966795,63.88214331054687 z" fill="#61455F" id="svg_11"/>
</g></g></svg>