<svg xmlns="http://www.w3.org/2000/svg" fill="none" width="124" height="108"><rect id="backgroundrect" width="100%" height="100%" x="0" y="0" fill="none" stroke="none"/>


<g class="currentLayer" style=""><title>Layer 1</title><path d="M117.859 76.9047C126.322 65.2685 125.157 51.7733 118.029 39.4086C115.375 34.8069 111.114 31.4902 106.001 30.1619C101.227 28.9213 97.7879 29.783 94.1306 26.1177C87.5731 19.5454 90.7293 7.39922 80.6897 3.80558C73.6844 1.29816 66.1063 -0.990552 59.4361 1.73622C56.1116 3.09551 51.317 6.41876 47.0387 9.39009C43.6864 11.7176 38.5279 15.9097 34.2539 16.9588C28.283 18.4244 22.4067 18.9693 16.754 21.4634C11.527 23.7704 2.41002 25.9858 0.535337 32.2556C-0.948502 37.2191 1.51218 41.7997 4.74944 45.3004C8.74227 49.6186 11.8426 54.7649 16.4478 58.6991C22.0987 63.5268 19.1175 71.3053 20.5692 78.0911C21.4955 82.422 23.7494 86.9602 26.4618 90.732C29.23 94.5817 31.8527 98.5646 36.0319 100.845C39.3667 102.666 44.1165 104.23 47.8385 105.409C53.56 107.223 59.5909 107.693 65.5516 107.212C72.5855 106.647 79.3141 106.514 85.2848 102.897C97.6437 95.4089 114.868 81.0182 117.859 76.9047Z" fill="#FDEA59" id="svg_1" class=""/><g clip-path="url(#clip0)" id="svg_2" class="">
<path d="M91.37387897949219,58.73198789672852 C91.32257897949219,58.64458789672852 91.2686789794922,58.56098789672851 91.2148789794922,58.487187896728514 C90.67957897949219,57.72488789672852 89.88367897949219,57.22088789672851 88.97557897949218,57.06868789672851 C88.0718789794922,56.916587896728515 87.15587897949219,57.13348789672852 86.41037897949218,57.678987896728515 L76.53467897949218,64.86368789672852 H66.2173789794922 C65.73067897949218,64.86368789672852 65.33407897949219,64.46048789672852 65.33407897949219,63.96378789672852 C65.33407897949219,63.46698789672852 65.73067897949218,63.06378789672851 66.2173789794922,63.06378789672851 H71.95907897949219 C73.66387897949218,63.06378789672851 75.05077897949218,61.65078789672852 75.05077897949218,59.913787896728515 C75.05077897949218,59.90378789672852 75.04987897949219,59.82098789672852 75.04897897949219,59.812087896728514 C74.99427897949218,58.07598789672851 73.55707897949219,56.72238789672851 71.88847897949219,56.763787896728516 H60.39717897949219 C59.378678979492186,56.772787896728516 58.38677897949219,57.14458789672852 57.60497897949219,57.808687896728514 L53.28547897949219,61.47168789672852 C53.08403897949219,61.64358789672852 52.967478979492185,61.89658789672852 52.967478979492185,62.163787896728515 V72.96378789672852 C52.967478979492185,73.46148789672851 53.36321897949219,73.86378789672852 53.85077897949219,73.86378789672852 H75.76717897949219 C77.20177897949219,73.86198789672852 78.5991789794922,73.34718789672851 79.70337897949219,72.41568789672851 L90.41207897949218,63.40038789672852 C91.86677897949218,62.344487896728516 92.28907897949219,60.294387896728516 91.37387897949219,58.73198789672852 zM89.33777897949219,61.97378789672852 L78.5778789794922,71.02868789672851 C77.78817897949219,71.69468789672851 76.78907897949219,72.0618878967285 75.7661789794922,72.0635878967285 H54.73407897949219 V62.585687896728516 L58.73637897949219,59.19088789672852 C59.206378979492186,58.792187896728514 59.80087897949219,58.56888789672852 60.40507897949219,58.56348789672852 L71.91667897949219,58.56268789672851 C72.6488789794922,58.561687896728515 73.2601789794922,59.126087896728514 73.2840789794922,59.913587896728515 C73.2840789794922,60.65788789672852 72.68957897949218,61.26358789672852 71.95907897949219,61.26358789672852 H66.2173789794922 C64.75637897949218,61.26358789672852 63.56737897949219,62.47508789672852 63.56737897949219,63.96358789672851 C63.56737897949219,65.45218789672852 64.75637897949218,66.66358789672852 66.2173789794922,66.66358789672852 H76.81737897949219 C77.00107897949218,66.66358789672852 77.18037897949219,66.60508789672852 77.33237897949219,66.49628789672852 L87.43947897949218,59.142387896728515 C87.80337897949218,58.875887896728514 88.24587897949219,58.772487896728514 88.68937897949219,58.84438789672851 C89.13187897949219,58.91908789672851 89.51887897949219,59.16388789672852 89.78467897949218,59.54188789672852 C89.81117897949218,59.578787896728514 89.83497897949218,59.616487896728515 89.85797897949219,59.65518789672851 C90.30507897949218,60.417687896728516 90.09737897949219,61.41928789672851 89.33777897949219,61.97378789672852 z" fill="#61455F" id="svg_3"/>
<path d="M53.82427897949219,60.363687896728514 H44.13407897949219 V62.163787896728515 H52.94087897949219 V75.66378789672851 H44.13407897949219 V77.46368789672852 H53.82427897949219 C54.311878979492185,77.46368789672852 54.70757897949218,77.06138789672852 54.70757897949218,76.56368789672851 V61.26368789672851 C54.70757897949218,60.76598789672852 54.311878979492185,60.363687896728514 53.82427897949219,60.363687896728514 z" fill="#61455F" id="svg_4"/>
<path d="M48.550818979492185,68.46368789672852 C47.08979897949219,68.46368789672852 45.900818979492186,69.67508789672851 45.900818979492186,71.16368789672852 C45.900818979492186,72.65228789672852 47.08979897949219,73.86368789672852 48.550818979492185,73.86368789672852 C50.01183897949219,73.86368789672852 51.20081897949219,72.65228789672852 51.20081897949219,71.16368789672852 C51.20081897949219,69.67508789672851 50.01183897949219,68.46368789672852 48.550818979492185,68.46368789672852 zM48.550818979492185,72.06368789672851 C48.06408897949219,72.06368789672851 47.667518979492186,71.66048789672851 47.667518979492186,71.16368789672852 C47.667518979492186,70.66688789672853 48.06408897949219,70.26368789672851 48.550818979492185,70.26368789672851 C49.037548979492186,70.26368789672851 49.43411897949219,70.66688789672853 49.43411897949219,71.16368789672852 C49.43411897949219,71.66048789672851 49.037548979492186,72.06368789672851 48.550818979492185,72.06368789672851 z" fill="#61455F" id="svg_5"/>
<path d="M96.2507789794922,51.363687896728514 H45.01737797949219 C44.52981897949219,51.363687896728514 44.13407897949219,51.76598789672852 44.13407897949219,52.26368789672851 C44.13407897949219,55.736787896728515 46.907778979492186,58.56368789672852 50.31737897949219,58.56368789672852 H90.95067897949218 C94.3594789794922,58.56368789672852 97.13397897949218,55.736787896728515 97.13397897949218,52.26368789672851 C97.13407897949219,51.766087896728514 96.73927897949218,51.363687896728514 96.2507789794922,51.363687896728514 zM90.95077897949218,56.76368789672851 H50.31737897949219 C48.184128979492186,56.76368789672851 46.399828979492185,55.21478789672852 45.989908979492185,53.163787896728515 H95.2781789794922 C94.86837897949218,55.21478789672852 93.08407897949219,56.76368789672851 90.95077897949218,56.76368789672851 z" fill="#61455F" id="svg_6"/>
<path d="M70.63407897949219,27.963687896728516 C57.97057897949219,27.963687896728516 47.66734897949219,38.461287896728514 47.66734897949219,51.363687896728514 V52.26368789672851 C47.66734897949219,52.761387896728515 48.063088979492186,53.16368789672852 48.55064897949219,53.16368789672852 H92.7173789794922 C93.20587897949218,53.16368789672852 93.60067897949219,52.761387896728515 93.60067897949219,52.26368789672851 V51.363687896728514 C93.60077897949219,38.46118789672852 83.29837897949218,27.963687896728516 70.63407897949219,27.963687896728516 zM49.43404897949219,51.36358789672852 C49.43404897949219,39.45388789672852 58.94487897949219,29.763617896728515 70.63407897949219,29.763617896728515 C82.32327897949219,29.763617896728515 91.83407897949219,39.45388789672852 91.83407897949219,51.36358789672852 H49.43404897949219 z" fill="#61455F" id="svg_7"/>
<path d="M56.10507897949219,38.22988789672851 C55.487578979492184,38.93728789672851 54.915278979492186,39.69428789672851 54.40377897949219,40.480787896728515 L55.876278979492184,41.47528789672852 C56.34267897949219,40.75888789672852 56.86377897949219,40.068587896728516 57.42557897949219,39.42508789672851 L56.10507897949219,38.22988789672851 z" fill="#61455F" id="svg_8"/>
<path d="M70.63407897949219,31.563667896728518 C65.67327897949218,31.566407896728514 60.95007897949219,33.476087896728515 57.33547897949219,36.93848789672852 L58.545778979492184,38.24978789672851 C61.831778979492185,35.101487896728514 66.12557897949219,33.36633789672852 70.63497897949219,33.36369789672852 L70.63407897949219,31.563667896728518 z" fill="#61455F" id="svg_9"/>
<path d="M73.2840789794922,23.463687896728516 H67.98407897949218 V25.263727896728515 H73.2840789794922 V23.463687896728516 z" fill="#61455F" id="svg_10"/>
<path d="M71.51747897949218,24.363711896728514 H69.7507789794922 V28.863747896728515 H71.51747897949218 V24.363711896728514 z" fill="#61455F" id="svg_11"/>
</g></g></svg>